<svg xmlns="http://www.w3.org/2000/svg" xmlns:xlink="http://www.w3.org/1999/xlink" contentStyleType="text/css" data-diagram-type="CLASS" height="829px" preserveAspectRatio="none" style="width:3630px;height:829px;background:#FFFFFF;" version="1.1" viewBox="0 0 3630 829" width="3630px" zoomAndPan="magnify"><defs/><g><!--cluster ch--><g class="cluster" data-entity="ch" data-source-line="2" data-uid="ent0003" id="cluster_ch"><path d="M8.5,6 L27.7656,6 A3.75,3.75 0 0 1 30.2656,8.5 L37.2656,28.2969 L3620.5,28.2969 A2.5,2.5 0 0 1 3623,30.7969 L3623,819.5 A2.5,2.5 0 0 1 3620.5,822 L8.5,822 A2.5,2.5 0 0 1 6,819.5 L6,8.5 A2.5,2.5 0 0 1 8.5,6" fill="none" style="stroke:#000000;stroke-width:1.5;"/><line style="stroke:#000000;stroke-width:1.5;" x1="6" x2="37.2656" y1="28.2969" y2="28.2969"/><text fill="#000000" font-family="sans-serif" font-size="14" font-weight="bold" lengthAdjust="spacing" textLength="18.2656" x="10" y="20.9951">ch</text></g><!--cluster hslu--><g class="cluster" data-entity="hslu" data-source-line="2" data-uid="ent0004" id="cluster_hslu"><path d="M32.5,49 L66.5654,49 A3.75,3.75 0 0 1 69.0654,51.5 L76.0654,71.2969 L3596.5,71.2969 A2.5,2.5 0 0 1 3599,73.7969 L3599,795.5 A2.5,2.5 0 0 1 3596.5,798 L32.5,798 A2.5,2.5 0 0 1 30,795.5 L30,51.5 A2.5,2.5 0 0 1 32.5,49" fill="none" style="stroke:#000000;stroke-width:1.5;"/><line style="stroke:#000000;stroke-width:1.5;" x1="30" x2="76.0654" y1="71.2969" y2="71.2969"/><text fill="#000000" font-family="sans-serif" font-size="14" font-weight="bold" lengthAdjust="spacing" textLength="33.0654" x="34" y="63.9951">hslu</text></g><!--cluster cas--><g class="cluster" data-entity="cas" data-source-line="2" data-uid="ent0005" id="cluster_cas"><path d="M56.5,92 L83.5791,92 A3.75,3.75 0 0 1 86.0791,94.5 L93.0791,114.2969 L3572.5,114.2969 A2.5,2.5 0 0 1 3575,116.7969 L3575,771.5 A2.5,2.5 0 0 1 3572.5,774 L56.5,774 A2.5,2.5 0 0 1 54,771.5 L54,94.5 A2.5,2.5 0 0 1 56.5,92" fill="none" style="stroke:#000000;stroke-width:1.5;"/><line style="stroke:#000000;stroke-width:1.5;" x1="54" x2="93.0791" y1="114.2969" y2="114.2969"/><text fill="#000000" font-family="sans-serif" font-size="14" font-weight="bold" lengthAdjust="spacing" textLength="26.0791" x="58" y="106.9951">cas</text></g><!--cluster msed--><g class="cluster" data-entity="msed" data-source-line="2" data-uid="ent0006" id="cluster_msed"><path d="M80.5,135 L123.9375,135 A3.75,3.75 0 0 1 126.4375,137.5 L133.4375,157.2969 L3548.5,157.2969 A2.5,2.5 0 0 1 3551,159.7969 L3551,747.5 A2.5,2.5 0 0 1 3548.5,750 L80.5,750 A2.5,2.5 0 0 1 78,747.5 L78,137.5 A2.5,2.5 0 0 1 80.5,135" fill="none" style="stroke:#000000;stroke-width:1.5;"/><line style="stroke:#000000;stroke-width:1.5;" x1="78" x2="133.4375" y1="157.2969" y2="157.2969"/><text fill="#000000" font-family="sans-serif" font-size="14" font-weight="bold" lengthAdjust="spacing" textLength="42.4375" x="82" y="149.9951">msed</text></g><!--cluster blobfish--><g class="cluster" data-entity="blobfish" data-source-line="2" data-uid="ent0007" id="cluster_blobfish"><path d="M104.5,178 L169.1494,178 A3.75,3.75 0 0 1 171.6494,180.5 L178.6494,200.2969 L3524.5,200.2969 A2.5,2.5 0 0 1 3527,202.7969 L3527,723.5 A2.5,2.5 0 0 1 3524.5,726 L104.5,726 A2.5,2.5 0 0 1 102,723.5 L102,180.5 A2.5,2.5 0 0 1 104.5,178" fill="none" style="stroke:#000000;stroke-width:1.5;"/><line style="stroke:#000000;stroke-width:1.5;" x1="102" x2="178.6494" y1="200.2969" y2="200.2969"/><text fill="#000000" font-family="sans-serif" font-size="14" font-weight="bold" lengthAdjust="spacing" textLength="63.6494" x="106" y="192.9951">blobfish</text></g><!--cluster game--><g class="cluster" data-entity="game" data-source-line="2" data-uid="ent0008" id="cluster_game"><path d="M128.5,221 L173.0518,221 A3.75,3.75 0 0 1 175.5518,223.5 L182.5518,243.2969 L3500.5,243.2969 A2.5,2.5 0 0 1 3503,245.7969 L3503,699.5 A2.5,2.5 0 0 1 3500.5,702 L128.5,702 A2.5,2.5 0 0 1 126,699.5 L126,223.5 A2.5,2.5 0 0 1 128.5,221" fill="none" style="stroke:#000000;stroke-width:1.5;"/><line style="stroke:#000000;stroke-width:1.5;" x1="126" x2="182.5518" y1="243.2969" y2="243.2969"/><text fill="#000000" font-family="sans-serif" font-size="14" font-weight="bold" lengthAdjust="spacing" textLength="43.5518" x="130" y="235.9951">game</text></g><!--cluster exceptions--><g class="cluster" data-entity="exceptions" data-source-line="37" data-uid="ent0013" id="cluster_exceptions"><path d="M3014.5,321 L3101.25,321 A3.75,3.75 0 0 1 3103.75,323.5 L3110.75,343.2969 L3476.5,343.2969 A2.5,2.5 0 0 1 3479,345.7969 L3479,417.5 A2.5,2.5 0 0 1 3476.5,420 L3014.5,420 A2.5,2.5 0 0 1 3012,417.5 L3012,323.5 A2.5,2.5 0 0 1 3014.5,321" fill="none" style="stroke:#000000;stroke-width:1.5;"/><line style="stroke:#000000;stroke-width:1.5;" x1="3012" x2="3110.75" y1="343.2969" y2="343.2969"/><text fill="#000000" font-family="sans-serif" font-size="14" font-weight="bold" lengthAdjust="spacing" textLength="85.75" x="3016" y="335.9951">exceptions</text></g><!--cluster screen--><g class="cluster" data-entity="screen" data-source-line="45" data-uid="ent0016" id="cluster_screen"><path d="M1809.5,264 L1862.9932,264 A3.75,3.75 0 0 1 1865.4932,266.5 L1872.4932,286.2969 L2985.5,286.2969 A2.5,2.5 0 0 1 2988,288.7969 L2988,474.5 A2.5,2.5 0 0 1 2985.5,477 L1809.5,477 A2.5,2.5 0 0 1 1807,474.5 L1807,266.5 A2.5,2.5 0 0 1 1809.5,264" fill="none" style="stroke:#000000;stroke-width:1.5;"/><line style="stroke:#000000;stroke-width:1.5;" x1="1807" x2="1872.4932" y1="286.2969" y2="286.2969"/><text fill="#000000" font-family="sans-serif" font-size="14" font-weight="bold" lengthAdjust="spacing" textLength="52.4932" x="1811" y="278.9951">screen</text></g><!--class ChessGame--><g class="entity" data-entity="ChessGame" data-source-line="2" data-uid="ent0002" id="entity_ChessGame"><rect fill="#F1F1F1" height="113.1875" rx="2.5" ry="2.5" style="stroke:#181818;stroke-width:0.5;" width="1181.5469" x="606" y="323.5"/><ellipse cx="1150.7593" cy="339.5" fill="#ADD1B2" rx="11" ry="11" style="stroke:#181818;stroke-width:1;"/><path d="M1153.728,345.1406 Q1153.1499,345.4375 1152.5093,345.5781 Q1151.8687,345.7344 1151.1655,345.7344 Q1148.6655,345.7344 1147.3374,344.0938 Q1146.0249,342.4375 1146.0249,339.3125 Q1146.0249,336.1875 1147.3374,334.5313 Q1148.6655,332.875 1151.1655,332.875 Q1151.8687,332.875 1152.5093,333.0313 Q1153.1655,333.1875 1153.728,333.4844 L1153.728,336.2031 Q1153.103,335.625 1152.5093,335.3594 Q1151.9155,335.0781 1151.2905,335.0781 Q1149.9468,335.0781 1149.2593,336.1563 Q1148.5718,337.2188 1148.5718,339.3125 Q1148.5718,341.4063 1149.2593,342.4844 Q1149.9468,343.5469 1151.2905,343.5469 Q1151.9155,343.5469 1152.5093,343.2813 Q1153.103,343 1153.728,342.4219 L1153.728,345.1406 Z " fill="#000000"/><text fill="#000000" font-family="sans-serif" font-size="14" lengthAdjust="spacing" textLength="83.5283" x="1171.2593" y="344.3467">ChessGame</text><line style="stroke:#181818;stroke-width:0.5;" x1="607" x2="1786.5469" y1="355.5" y2="355.5"/><rect fill="none" height="6" style="stroke:#C82930;stroke-width:1;" width="6" x="614" y="366.1484"/><text fill="#000000" font-family="sans-serif" font-size="14" lengthAdjust="spacing" textLength="258.5762" x="626" y="372.4951">terminal : org.jline.terminal.Terminal</text><line style="stroke:#181818;stroke-width:0.5;" x1="607" x2="1786.5469" y1="379.7969" y2="379.7969"/><rect fill="#F24D5C" height="6" style="stroke:#C82930;stroke-width:1;" width="6" x="614" y="390.4453"/><text fill="#000000" font-family="sans-serif" font-size="14" lengthAdjust="spacing" textLength="1155.5469" x="626" y="396.792">shouldRestart ( paramInputReader1 : ch.hslu.cas.msed.blobfish.game.InputReader , paramOutputWriter2 : ch.hslu.cas.msed.blobfish.game.OutputWriter ) : boolean</text><ellipse cx="617" cy="409.7422" fill="#84BE84" rx="3" ry="3" style="stroke:#038048;stroke-width:1;"/><text fill="#000000" font-family="sans-serif" font-size="14" lengthAdjust="spacing" textLength="91.2256" x="626" y="413.0889">start () : void</text><rect fill="#F24D5C" height="6" style="stroke:#C82930;stroke-width:1;" width="6" x="614" y="423.0391"/><text fill="#000000" font-family="sans-serif" font-size="14" lengthAdjust="spacing" textLength="713.4121" x="626" y="429.3857">writeEndGameMessage ( paramOutputWriter1 : ch.hslu.cas.msed.blobfish.game.OutputWriter ) : void</text></g><!--class InputReader--><g class="entity" data-entity="InputReader" data-source-line="10" data-uid="ent0009" id="entity_InputReader"><rect fill="#F1F1F1" height="80.5938" rx="2.5" ry="2.5" style="stroke:#181818;stroke-width:0.5;" width="318.209" x="1905" y="572.5"/><ellipse cx="2016.6411" cy="588.5" fill="#ADD1B2" rx="11" ry="11" style="stroke:#181818;stroke-width:1;"/><path d="M2019.6099,594.1406 Q2019.0317,594.4375 2018.3911,594.5781 Q2017.7505,594.7344 2017.0474,594.7344 Q2014.5474,594.7344 2013.2192,593.0938 Q2011.9067,591.4375 2011.9067,588.3125 Q2011.9067,585.1875 2013.2192,583.5313 Q2014.5474,581.875 2017.0474,581.875 Q2017.7505,581.875 2018.3911,582.0313 Q2019.0474,582.1875 2019.6099,582.4844 L2019.6099,585.2031 Q2018.9849,584.625 2018.3911,584.3594 Q2017.7974,584.0781 2017.1724,584.0781 Q2015.8286,584.0781 2015.1411,585.1563 Q2014.4536,586.2188 2014.4536,588.3125 Q2014.4536,590.4063 2015.1411,591.4844 Q2015.8286,592.5469 2017.1724,592.5469 Q2017.7974,592.5469 2018.3911,592.2813 Q2018.9849,592 2019.6099,591.4219 L2019.6099,594.1406 Z " fill="#000000"/><text fill="#000000" font-family="sans-serif" font-size="14" lengthAdjust="spacing" textLength="86.4268" x="2037.1411" y="593.3467">InputReader</text><line style="stroke:#181818;stroke-width:0.5;" x1="1906" x2="2222.209" y1="604.5" y2="604.5"/><rect fill="none" height="6" style="stroke:#C82930;stroke-width:1;" width="6" x="1913" y="615.1484"/><text fill="#000000" font-family="sans-serif" font-size="14" lengthAdjust="spacing" textLength="251.0908" x="1925" y="621.4951">reader : org.jline.reader.LineReader</text><line style="stroke:#181818;stroke-width:0.5;" x1="1906" x2="2222.209" y1="628.7969" y2="628.7969"/><ellipse cx="1916" cy="642.4453" fill="#84BE84" rx="3" ry="3" style="stroke:#038048;stroke-width:1;"/><text fill="#000000" font-family="sans-serif" font-size="14" lengthAdjust="spacing" textLength="292.209" x="1925" y="645.792">readLine ( paramString1 : String ) : String</text></g><!--class MatchConfig--><g class="entity" data-entity="MatchConfig" data-source-line="16" data-uid="ent0010" id="entity_MatchConfig"><rect fill="#F1F1F1" height="162.0781" rx="2.5" ry="2.5" style="stroke:#181818;stroke-width:0.5;" width="429.0674" x="142.5" y="299"/><ellipse cx="308.9653" cy="315" fill="#ADD1B2" rx="11" ry="11" style="stroke:#181818;stroke-width:1;"/><path d="M311.9341,320.6406 Q311.356,320.9375 310.7153,321.0781 Q310.0747,321.2344 309.3716,321.2344 Q306.8716,321.2344 305.5435,319.5938 Q304.231,317.9375 304.231,314.8125 Q304.231,311.6875 305.5435,310.0313 Q306.8716,308.375 309.3716,308.375 Q310.0747,308.375 310.7153,308.5313 Q311.3716,308.6875 311.9341,308.9844 L311.9341,311.7031 Q311.3091,311.125 310.7153,310.8594 Q310.1216,310.5781 309.4966,310.5781 Q308.1528,310.5781 307.4653,311.6563 Q306.7778,312.7188 306.7778,314.8125 Q306.7778,316.9063 307.4653,317.9844 Q308.1528,319.0469 309.4966,319.0469 Q310.1216,319.0469 310.7153,318.7813 Q311.3091,318.5 311.9341,317.9219 L311.9341,320.6406 Z " fill="#000000"/><text fill="#000000" font-family="sans-serif" font-size="14" lengthAdjust="spacing" textLength="87.6367" x="329.4653" y="319.8467">MatchConfig</text><line style="stroke:#181818;stroke-width:0.5;" x1="143.5" x2="570.5674" y1="331" y2="331"/><rect fill="none" height="6" style="stroke:#C82930;stroke-width:1;" width="6" x="150.5" y="341.6484"/><text fill="#000000" font-family="sans-serif" font-size="14" lengthAdjust="spacing" textLength="386.5381" x="162.5" y="347.9951">black : ch.hslu.cas.msed.blobfish.player.AbstractPlayer</text><rect fill="none" height="6" style="stroke:#C82930;stroke-width:1;" width="6" x="150.5" y="357.9453"/><text fill="#000000" font-family="sans-serif" font-size="14" lengthAdjust="spacing" textLength="387.6934" x="162.5" y="364.292">white : ch.hslu.cas.msed.blobfish.player.AbstractPlayer</text><line style="stroke:#181818;stroke-width:0.5;" x1="143.5" x2="570.5674" y1="371.5938" y2="371.5938"/><ellipse cx="153.5" cy="385.2422" fill="#84BE84" rx="3" ry="3" style="stroke:#038048;stroke-width:1;"/><text fill="#000000" font-family="sans-serif" font-size="14" lengthAdjust="spacing" textLength="401.9121" x="162.5" y="388.5889">black () : ch.hslu.cas.msed.blobfish.player.AbstractPlayer</text><ellipse cx="153.5" cy="401.5391" fill="#84BE84" rx="3" ry="3" style="stroke:#038048;stroke-width:1;"/><text fill="#000000" font-family="sans-serif" font-size="14" lengthAdjust="spacing" textLength="299.1543" x="162.5" y="404.8857">equals ( paramObject1 : Object ) : boolean</text><ellipse cx="153.5" cy="417.8359" fill="#84BE84" rx="3" ry="3" style="stroke:#038048;stroke-width:1;"/><text fill="#000000" font-family="sans-serif" font-size="14" lengthAdjust="spacing" textLength="116.7031" x="162.5" y="421.1826">hashCode () : int</text><ellipse cx="153.5" cy="434.1328" fill="#84BE84" rx="3" ry="3" style="stroke:#038048;stroke-width:1;"/><text fill="#000000" font-family="sans-serif" font-size="14" lengthAdjust="spacing" textLength="126.6084" x="162.5" y="437.4795">toString () : String</text><ellipse cx="153.5" cy="450.4297" fill="#84BE84" rx="3" ry="3" style="stroke:#038048;stroke-width:1;"/><text fill="#000000" font-family="sans-serif" font-size="14" lengthAdjust="spacing" textLength="403.0674" x="162.5" y="453.7764">white () : ch.hslu.cas.msed.blobfish.player.AbstractPlayer</text></g><!--class OutputWriter--><g class="entity" data-entity="OutputWriter" data-source-line="27" data-uid="ent0011" id="entity_OutputWriter"><rect fill="#F1F1F1" height="145.7813" rx="2.5" ry="2.5" style="stroke:#181818;stroke-width:0.5;" width="355.0205" x="2368.5" y="540"/><ellipse cx="2495.7715" cy="556" fill="#ADD1B2" rx="11" ry="11" style="stroke:#181818;stroke-width:1;"/><path d="M2498.7402,561.6406 Q2498.1621,561.9375 2497.5215,562.0781 Q2496.8809,562.2344 2496.1777,562.2344 Q2493.6777,562.2344 2492.3496,560.5938 Q2491.0371,558.9375 2491.0371,555.8125 Q2491.0371,552.6875 2492.3496,551.0313 Q2493.6777,549.375 2496.1777,549.375 Q2496.8809,549.375 2497.5215,549.5313 Q2498.1777,549.6875 2498.7402,549.9844 L2498.7402,552.7031 Q2498.1152,552.125 2497.5215,551.8594 Q2496.9277,551.5781 2496.3027,551.5781 Q2494.959,551.5781 2494.2715,552.6563 Q2493.584,553.7188 2493.584,555.8125 Q2493.584,557.9063 2494.2715,558.9844 Q2494.959,560.0469 2496.3027,560.0469 Q2496.9277,560.0469 2497.5215,559.7813 Q2498.1152,559.5 2498.7402,558.9219 L2498.7402,561.6406 Z " fill="#000000"/><text fill="#000000" font-family="sans-serif" font-size="14" lengthAdjust="spacing" textLength="91.9775" x="2516.2715" y="560.8467">OutputWriter</text><line style="stroke:#181818;stroke-width:0.5;" x1="2369.5" x2="2722.5205" y1="572" y2="572"/><polygon fill="none" points="2379.5,581.6484,2375.5,587.6484,2383.5,587.6484" style="stroke:#1963A0;stroke-width:1;"/><text fill="#000000" font-family="sans-serif" font-size="14" lengthAdjust="spacing" textLength="258.5762" x="2388.5" y="588.9951">terminal : org.jline.terminal.Terminal</text><line style="stroke:#181818;stroke-width:0.5;" x1="2369.5" x2="2722.5205" y1="596.2969" y2="596.2969"/><ellipse cx="2379.5" cy="609.9453" fill="#84BE84" rx="3" ry="3" style="stroke:#038048;stroke-width:1;"/><text fill="#000000" font-family="sans-serif" font-size="14" lengthAdjust="spacing" textLength="92.4766" x="2388.5" y="613.292">flush () : void</text><ellipse cx="2379.5" cy="626.2422" fill="#84BE84" rx="3" ry="3" style="stroke:#038048;stroke-width:1;"/><text fill="#000000" font-family="sans-serif" font-size="14" lengthAdjust="spacing" textLength="251.9385" x="2388.5" y="629.5889">print ( paramString1 : String ) : void</text><ellipse cx="2379.5" cy="642.5391" fill="#84BE84" rx="3" ry="3" style="stroke:#038048;stroke-width:1;"/><text fill="#000000" font-family="sans-serif" font-size="14" lengthAdjust="spacing" textLength="316.2578" x="2388.5" y="645.8857">printAndFlush ( paramString1 : String ) : void</text><ellipse cx="2379.5" cy="658.8359" fill="#84BE84" rx="3" ry="3" style="stroke:#038048;stroke-width:1;"/><text fill="#000000" font-family="sans-serif" font-size="14" lengthAdjust="spacing" textLength="264.7012" x="2388.5" y="662.1826">println ( paramString1 : String ) : void</text><ellipse cx="2379.5" cy="675.1328" fill="#84BE84" rx="3" ry="3" style="stroke:#038048;stroke-width:1;"/><text fill="#000000" font-family="sans-serif" font-size="14" lengthAdjust="spacing" textLength="329.0205" x="2388.5" y="678.4795">printlnAndFlush ( paramString1 : String ) : void</text></g><!--class GameAbortedException--><g class="entity" data-entity="GameAbortedException" data-source-line="37" data-uid="ent0012" id="entity_GameAbortedException"><rect fill="#F1F1F1" height="48" rx="2.5" ry="2.5" style="stroke:#181818;stroke-width:0.5;" width="198.5986" x="3263.5" y="356"/><ellipse cx="3278.5" cy="372" fill="#ADD1B2" rx="11" ry="11" style="stroke:#181818;stroke-width:1;"/><path d="M3281.4688,377.6406 Q3280.8906,377.9375 3280.25,378.0781 Q3279.6094,378.2344 3278.9063,378.2344 Q3276.4063,378.2344 3275.0781,376.5938 Q3273.7656,374.9375 3273.7656,371.8125 Q3273.7656,368.6875 3275.0781,367.0313 Q3276.4063,365.375 3278.9063,365.375 Q3279.6094,365.375 3280.25,365.5313 Q3280.9063,365.6875 3281.4688,365.9844 L3281.4688,368.7031 Q3280.8438,368.125 3280.25,367.8594 Q3279.6563,367.5781 3279.0313,367.5781 Q3277.6875,367.5781 3277,368.6563 Q3276.3125,369.7188 3276.3125,371.8125 Q3276.3125,373.9063 3277,374.9844 Q3277.6875,376.0469 3279.0313,376.0469 Q3279.6563,376.0469 3280.25,375.7813 Q3280.8438,375.5 3281.4688,374.9219 L3281.4688,377.6406 Z " fill="#000000"/><text fill="#000000" font-family="sans-serif" font-size="14" lengthAdjust="spacing" textLength="166.5986" x="3292.5" y="376.8467">GameAbortedException</text><line style="stroke:#181818;stroke-width:0.5;" x1="3264.5" x2="3461.0986" y1="388" y2="388"/><line style="stroke:#181818;stroke-width:0.5;" x1="3264.5" x2="3461.0986" y1="396" y2="396"/></g><!--class MatchAbortedException--><g class="entity" data-entity="MatchAbortedException" data-source-line="41" data-uid="ent0014" id="entity_MatchAbortedException"><rect fill="#F1F1F1" height="48" rx="2.5" ry="2.5" style="stroke:#181818;stroke-width:0.5;" width="199.6377" x="3028" y="356"/><ellipse cx="3043" cy="372" fill="#ADD1B2" rx="11" ry="11" style="stroke:#181818;stroke-width:1;"/><path d="M3045.9688,377.6406 Q3045.3906,377.9375 3044.75,378.0781 Q3044.1094,378.2344 3043.4063,378.2344 Q3040.9063,378.2344 3039.5781,376.5938 Q3038.2656,374.9375 3038.2656,371.8125 Q3038.2656,368.6875 3039.5781,367.0313 Q3040.9063,365.375 3043.4063,365.375 Q3044.1094,365.375 3044.75,365.5313 Q3045.4063,365.6875 3045.9688,365.9844 L3045.9688,368.7031 Q3045.3438,368.125 3044.75,367.8594 Q3044.1563,367.5781 3043.5313,367.5781 Q3042.1875,367.5781 3041.5,368.6563 Q3040.8125,369.7188 3040.8125,371.8125 Q3040.8125,373.9063 3041.5,374.9844 Q3042.1875,376.0469 3043.5313,376.0469 Q3044.1563,376.0469 3044.75,375.7813 Q3045.3438,375.5 3045.9688,374.9219 L3045.9688,377.6406 Z " fill="#000000"/><text fill="#000000" font-family="sans-serif" font-size="14" lengthAdjust="spacing" textLength="167.6377" x="3057" y="376.8467">MatchAbortedException</text><line style="stroke:#181818;stroke-width:0.5;" x1="3029" x2="3226.6377" y1="388" y2="388"/><line style="stroke:#181818;stroke-width:0.5;" x1="3029" x2="3226.6377" y1="396" y2="396"/></g><!--class HomeScreen--><g class="entity" data-entity="HomeScreen" data-source-line="45" data-uid="ent0015" id="entity_HomeScreen"><rect fill="#F1F1F1" height="80.5938" rx="2.5" ry="2.5" style="stroke:#181818;stroke-width:0.5;" width="482.3877" x="1823" y="339.5"/><ellipse cx="2015.0522" cy="355.5" fill="#ADD1B2" rx="11" ry="11" style="stroke:#181818;stroke-width:1;"/><path d="M2018.021,361.1406 Q2017.4429,361.4375 2016.8022,361.5781 Q2016.1616,361.7344 2015.4585,361.7344 Q2012.9585,361.7344 2011.6304,360.0938 Q2010.3179,358.4375 2010.3179,355.3125 Q2010.3179,352.1875 2011.6304,350.5313 Q2012.9585,348.875 2015.4585,348.875 Q2016.1616,348.875 2016.8022,349.0313 Q2017.4585,349.1875 2018.021,349.4844 L2018.021,352.2031 Q2017.396,351.625 2016.8022,351.3594 Q2016.2085,351.0781 2015.5835,351.0781 Q2014.2397,351.0781 2013.5522,352.1563 Q2012.8647,353.2188 2012.8647,355.3125 Q2012.8647,357.4063 2013.5522,358.4844 Q2014.2397,359.5469 2015.5835,359.5469 Q2016.2085,359.5469 2016.8022,359.2813 Q2017.396,359 2018.021,358.4219 L2018.021,361.1406 Z " fill="#000000"/><text fill="#000000" font-family="sans-serif" font-size="14" lengthAdjust="spacing" textLength="89.7832" x="2035.5522" y="360.3467">HomeScreen</text><line style="stroke:#181818;stroke-width:0.5;" x1="1824" x2="2304.3877" y1="371.5" y2="371.5"/><line style="stroke:#181818;stroke-width:0.5;" x1="1824" x2="2304.3877" y1="379.5" y2="379.5"/><ellipse cx="1834" cy="393.1484" fill="#84BE84" rx="3" ry="3" style="stroke:#038048;stroke-width:1;"/><text fill="#000000" font-family="sans-serif" font-size="14" lengthAdjust="spacing" textLength="456.3877" x="1843" y="396.4951">getMatchConfig () : ch.hslu.cas.msed.blobfish.game.MatchConfig</text><rect fill="#F24D5C" height="6" style="stroke:#C82930;stroke-width:1;" width="6" x="1831" y="406.4453"/><text fill="#000000" font-family="sans-serif" font-size="14" lengthAdjust="spacing" textLength="435.0049" x="1843" y="412.792">getPlayerColor () : ch.hslu.cas.msed.blobfish.base.PlayerColor</text></g><!--class MatchScreen--><g class="entity" data-entity="MatchScreen" data-source-line="51" data-uid="ent0017" id="entity_MatchScreen"><rect fill="#F1F1F1" height="162.0781" rx="2.5" ry="2.5" style="stroke:#181818;stroke-width:0.5;" width="632.4092" x="2340" y="299"/><ellipse cx="2606.376" cy="315" fill="#ADD1B2" rx="11" ry="11" style="stroke:#181818;stroke-width:1;"/><path d="M2609.3447,320.6406 Q2608.7666,320.9375 2608.126,321.0781 Q2607.4854,321.2344 2606.7822,321.2344 Q2604.2822,321.2344 2602.9541,319.5938 Q2601.6416,317.9375 2601.6416,314.8125 Q2601.6416,311.6875 2602.9541,310.0313 Q2604.2822,308.375 2606.7822,308.375 Q2607.4854,308.375 2608.126,308.5313 Q2608.7822,308.6875 2609.3447,308.9844 L2609.3447,311.7031 Q2608.7197,311.125 2608.126,310.8594 Q2607.5322,310.5781 2606.9072,310.5781 Q2605.5635,310.5781 2604.876,311.6563 Q2604.1885,312.7188 2604.1885,314.8125 Q2604.1885,316.9063 2604.876,317.9844 Q2605.5635,319.0469 2606.9072,319.0469 Q2607.5322,319.0469 2608.126,318.7813 Q2608.7197,318.5 2609.3447,317.9219 L2609.3447,320.6406 Z " fill="#000000"/><text fill="#000000" font-family="sans-serif" font-size="14" lengthAdjust="spacing" textLength="91.1572" x="2626.876" y="319.8467">MatchScreen</text><line style="stroke:#181818;stroke-width:0.5;" x1="2341" x2="2971.4092" y1="331" y2="331"/><polygon fill="none" points="2351,340.6484,2347,346.6484,2355,346.6484" style="stroke:#1963A0;stroke-width:1;"/><text fill="#000000" font-family="sans-serif" font-size="14" lengthAdjust="spacing" textLength="386.5381" x="2360" y="347.9951">black : ch.hslu.cas.msed.blobfish.player.AbstractPlayer</text><polygon fill="none" points="2351,356.9453,2347,362.9453,2355,362.9453" style="stroke:#1963A0;stroke-width:1;"/><text fill="#000000" font-family="sans-serif" font-size="14" lengthAdjust="spacing" textLength="555.0029" x="2360" y="364.292">chessBoardRenderer : ch.hslu.cas.msed.blobfish.board.ui.ChessBoardRenderer</text><polygon fill="none" points="2351,373.2422,2347,379.2422,2355,379.2422" style="stroke:#1963A0;stroke-width:1;"/><text fill="#000000" font-family="sans-serif" font-size="14" lengthAdjust="spacing" textLength="407.3945" x="2360" y="380.5889">chessboard : ch.hslu.cas.msed.blobfish.board.ChessBoard</text><polygon fill="none" points="2351,389.5391,2347,395.5391,2355,395.5391" style="stroke:#1963A0;stroke-width:1;"/><text fill="#000000" font-family="sans-serif" font-size="14" lengthAdjust="spacing" textLength="444.001" x="2360" y="396.8857">currentPlayer : ch.hslu.cas.msed.blobfish.player.AbstractPlayer</text><polygon fill="none" points="2351,405.8359,2347,411.8359,2355,411.8359" style="stroke:#1963A0;stroke-width:1;"/><text fill="#000000" font-family="sans-serif" font-size="14" lengthAdjust="spacing" textLength="387.6934" x="2360" y="413.1826">white : ch.hslu.cas.msed.blobfish.player.AbstractPlayer</text><line style="stroke:#181818;stroke-width:0.5;" x1="2341" x2="2971.4092" y1="420.4844" y2="420.4844"/><rect fill="#F24D5C" height="6" style="stroke:#C82930;stroke-width:1;" width="6" x="2348" y="431.1328"/><text fill="#000000" font-family="sans-serif" font-size="14" lengthAdjust="spacing" textLength="606.4092" x="2360" y="437.4795">printPosition ( paramPlayerColor1 : ch.hslu.cas.msed.blobfish.base.PlayerColor ) : void</text><ellipse cx="2351" cy="450.4297" fill="#84BE84" rx="3" ry="3" style="stroke:#038048;stroke-width:1;"/><text fill="#000000" font-family="sans-serif" font-size="14" lengthAdjust="spacing" textLength="91.2256" x="2360" y="453.7764">start () : void</text></g><!--reverse link HomeScreen to InputReader--><g class="link" data-entity-1="HomeScreen" data-entity-2="InputReader" data-source-line="64" data-uid="lnk18" id="link_HomeScreen_InputReader"><path codeLine="64" d="M2064,432.71 C2064,475.15 2064,530.03 2064,572.42" fill="none" id="HomeScreen-backto-InputReader" style="stroke:#181818;stroke-width:1;"/><polygon fill="#181818" points="2064,420.71,2060,426.71,2064,432.71,2068,426.71,2064,420.71" style="stroke:#181818;stroke-width:1;"/><text fill="#000000" font-family="sans-serif" font-size="13" lengthAdjust="spacing" textLength="42.9038" x="2065" y="506.0669">reader</text></g><!--link HomeScreen to OutputWriter--><g class="link" data-entity-1="HomeScreen" data-entity-2="OutputWriter" data-source-line="65" data-uid="lnk19" id="link_HomeScreen_OutputWriter"><path codeLine="65" d="M2146.58,420.58 C2214.78,453.26 2307.9491,497.9172 2390.1091,537.2872" fill="none" id="HomeScreen-to-OutputWriter" style="stroke:#181818;stroke-width:1;"/><polygon fill="#181818" points="2395.52,539.88,2389.1323,532.3835,2391.011,537.7193,2385.6752,539.598,2395.52,539.88" style="stroke:#181818;stroke-width:1;"/><text fill="#000000" font-family="sans-serif" font-size="13" lengthAdjust="spacing" textLength="38.0288" x="2320" y="506.0669">writer</text></g><!--link MatchScreen to OutputWriter--><g class="link" data-entity-1="MatchScreen" data-entity-2="OutputWriter" data-source-line="66" data-uid="lnk20" id="link_MatchScreen_OutputWriter"><path codeLine="66" d="M2617.84,461.14 C2605.67,486.68 2594.8794,509.3628 2582.9994,534.3128" fill="none" id="MatchScreen-to-OutputWriter" style="stroke:#181818;stroke-width:1;"/><polygon fill="#181818" points="2580.42,539.73,2587.9006,533.3238,2582.5695,535.2156,2580.6777,529.8845,2580.42,539.73" style="stroke:#181818;stroke-width:1;"/><text fill="#000000" font-family="sans-serif" font-size="13" lengthAdjust="spacing" textLength="38.0288" x="2602" y="506.0669">writer</text></g><!--SRC=[fLPRRzCm57uclyAFWn9BvR4FIAKQ0uc9QKFYsN5E4s-ENMo7WQRjj-DBqfrMfKtIjnFRvplVkOTBPYtXDQsjR2bdbZOMIbf8NQo5hMd56g2h6gozyX9vojuyhGN8yfda3amZ59DaGRIfwBqK2cX_I7zqWbTemDKwQDXQjxAy1UkOSUI2R9XXpLUrQTqji1BCt4ETe89Ua_S9u7lh_DbF8xpj3wSHy7Forhylj9R0528wwmY6szzQbDY7nw1ugSeGZciV5bP1xmb6dayW4aqzPrd6XoG5HmAdnQGZd9HqHBzvEIbWNyDbkEczk7D6g2hmJrAabiJXvAwPu_LAgxMeTiWLal67ew7PIFRNSrqMrXd6tKtyH0YFjO_N98Ijnub4pEuPAF2hPT9kSr_S0tSXQadwNsNLpFgub93C2-NmfTDTo2zGpD5zydqIyS6PswbAbBgNqUq-MylMrWUxQBRnhhcZ5NTGOwdApmbqhAPKKtI6sniSN_Z3OUE4LfQ64R8ij75GNlQdFkHJe6A_dODbkG5Gz8jku2wACVVRU5JWS4kVAC7z4O3dfqTA9RdIKfjJI0MpGD7xqGv55iYZlfhF7aGlF2p5JvePlz2KdwbnvXxn9BoahKZBT4Tl7pG-7G3sYeGHMcD0TNJFSl3yIPl7DhhHLiHox9e8fNC-Ala7EtL_LOS2yIKojjhVvJaPit4N92tLyPRo_2CPDOGN9Fvp33M5AtwwhUmV]--></g></svg>