<?plantuml 1.2026.1?><svg xmlns="http://www.w3.org/2000/svg" xmlns:xlink="http://www.w3.org/1999/xlink" contentStyleType="text/css" data-diagram-type="CHART" height="436px" preserveAspectRatio="none" style="width:835px;height:436px;background:#FFFFFF;" version="1.1" viewBox="0 0 835 436" width="835px" zoomAndPan="magnify"><title>FEN: 5rk1/5q1p/p2PR1p1/4p1b1/1pP5/1P1Q4/P5PP/1K2R3 b - - 0 31</title><defs/><g><g class="title" data-source-line="2"><text fill="#000000" font-family="sans-serif" font-size="14" font-weight="bold" lengthAdjust="spacing" textLength="442.7432" x="214.6484" y="34.5332">FEN: 5rk1/5q1p/p2PR1p1/4p1b1/1pP5/1P1Q4/P5PP/1K2R3 b - - 0 31</text></g><line style="stroke:#181818;stroke-width:0.5;" x1="70" x2="70" y1="98.6094" y2="398.6094"/><line style="stroke:#181818;stroke-width:0.5;" x1="70" x2="65" y1="398.6094" y2="398.6094"/><text fill="#000000" font-family="sans-serif" font-size="14" lengthAdjust="spacing" textLength="7.7861" x="52.2139" y="404.3379">0</text><line style="stroke:#181818;stroke-width:0.5;" x1="70" x2="65" y1="323.6094" y2="323.6094"/><text fill="#000000" font-family="sans-serif" font-size="14" lengthAdjust="spacing" textLength="7.7861" x="52.2139" y="329.3379">5</text><line style="stroke:#181818;stroke-width:0.5;" x1="70" x2="65" y1="248.6094" y2="248.6094"/><text fill="#000000" font-family="sans-serif" font-size="14" lengthAdjust="spacing" textLength="15.5723" x="44.4277" y="254.3379">10</text><line style="stroke:#181818;stroke-width:0.5;" x1="70" x2="65" y1="173.6094" y2="173.6094"/><text fill="#000000" font-family="sans-serif" font-size="14" lengthAdjust="spacing" textLength="15.5723" x="44.4277" y="179.3379">15</text><line style="stroke:#181818;stroke-width:0.5;" x1="70" x2="65" y1="98.6094" y2="98.6094"/><text fill="#000000" font-family="sans-serif" font-size="14" lengthAdjust="spacing" textLength="15.5723" x="44.4277" y="104.3379">20</text><text fill="#000000" font-family="sans-serif" font-size="14" lengthAdjust="spacing" textLength="118.2686" transform="rotate(-90 28.8047 307.7437)" x="28.8047" y="307.7437">Calculation time [s]</text><line style="stroke:#181818;stroke-width:0.5;" x1="70" x2="470" y1="398.6094" y2="398.6094"/><line style="stroke:#181818;stroke-width:0.5;" x1="120" x2="120" y1="398.6094" y2="403.6094"/><text fill="#000000" font-family="sans-serif" font-size="14" lengthAdjust="spacing" textLength="49.0342" x="95.4829" y="423.1426">Depth 1</text><line style="stroke:#181818;stroke-width:0.5;" x1="220" x2="220" y1="398.6094" y2="403.6094"/><text fill="#000000" font-family="sans-serif" font-size="14" lengthAdjust="spacing" textLength="49.0342" x="195.4829" y="423.1426">Depth 2</text><line style="stroke:#181818;stroke-width:0.5;" x1="320" x2="320" y1="398.6094" y2="403.6094"/><text fill="#000000" font-family="sans-serif" font-size="14" lengthAdjust="spacing" textLength="49.0342" x="295.4829" y="423.1426">Depth 3</text><line style="stroke:#181818;stroke-width:0.5;" x1="420" x2="420" y1="398.6094" y2="403.6094"/><text fill="#000000" font-family="sans-serif" font-size="14" lengthAdjust="spacing" textLength="49.0342" x="395.4829" y="423.1426">Depth 4</text><line style="stroke:#181818;stroke-width:0.5;" x1="70" x2="470" y1="398.6094" y2="398.6094"/><line style="stroke:#181818;stroke-width:0.5;" x1="70" x2="470" y1="323.6094" y2="323.6094"/><line style="stroke:#181818;stroke-width:0.5;" x1="70" x2="470" y1="248.6094" y2="248.6094"/><line style="stroke:#181818;stroke-width:0.5;" x1="70" x2="470" y1="173.6094" y2="173.6094"/><line style="stroke:#181818;stroke-width:0.5;" x1="70" x2="470" y1="98.6094" y2="98.6094"/><rect fill="#1F77B4" height="0.0002" style="stroke:#181818;stroke-width:0.5;" width="20" x="80" y="398.6092"/><rect fill="#FF7F0E" height="0.0002" style="stroke:#181818;stroke-width:0.5;" width="20" x="100" y="398.6092"/><rect fill="#2CA02C" height="0.015" style="stroke:#181818;stroke-width:0.5;" width="20" x="120" y="398.5944"/><rect fill="#D62728" height="0.0002" style="stroke:#181818;stroke-width:0.5;" width="20" x="140" y="398.6092"/><rect fill="#1F77B4" height="0.21" style="stroke:#181818;stroke-width:0.5;" width="20" x="180" y="398.3994"/><rect fill="#FF7F0E" height="0.21" style="stroke:#181818;stroke-width:0.5;" width="20" x="200" y="398.3994"/><rect fill="#2CA02C" height="0.18" style="stroke:#181818;stroke-width:0.5;" width="20" x="220" y="398.4294"/><rect fill="#D62728" height="0.03" style="stroke:#181818;stroke-width:0.5;" width="20" x="240" y="398.5794"/><rect fill="#1F77B4" height="6.435" style="stroke:#181818;stroke-width:0.5;" width="20" x="280" y="392.1744"/><rect fill="#FF7F0E" height="7.095" style="stroke:#181818;stroke-width:0.5;" width="20" x="300" y="391.5144"/><rect fill="#2CA02C" height="0.81" style="stroke:#181818;stroke-width:0.5;" width="20" x="320" y="397.7994"/><rect fill="#D62728" height="0.945" style="stroke:#181818;stroke-width:0.5;" width="20" x="340" y="397.6644"/><rect fill="#1F77B4" height="206.76" style="stroke:#181818;stroke-width:0.5;" width="20" x="380" y="191.8494"/><rect fill="#FF7F0E" height="265.11" style="stroke:#181818;stroke-width:0.5;" width="20" x="400" y="133.4994"/><rect fill="#2CA02C" height="27.795" style="stroke:#181818;stroke-width:0.5;" width="20" x="420" y="370.8144"/><rect fill="#D62728" height="36.105" style="stroke:#181818;stroke-width:0.5;" width="20" x="440" y="362.5044"/><rect fill="#1F77B4" height="12" style="stroke:#1F77B4;stroke-width:1;" width="12" x="480" y="98.6094"/><text fill="#000000" font-family="sans-serif" font-size="14" lengthAdjust="spacing" textLength="295.6885" x="497" y="113.1426">MiniMaxSequential (Simple material evaluation)</text><rect fill="#FF7F0E" height="12" style="stroke:#FF7F0E;stroke-width:1;" width="12" x="480" y="131.2188"/><text fill="#000000" font-family="sans-serif" font-size="14" lengthAdjust="spacing" textLength="326.04" x="497" y="145.752">MiniMaxSequential (Mate aware material evaluation)</text><rect fill="#2CA02C" height="12" style="stroke:#2CA02C;stroke-width:1;" width="12" x="480" y="163.8281"/><text fill="#000000" font-family="sans-serif" font-size="14" lengthAdjust="spacing" textLength="276.2129" x="497" y="178.3613">MiniMaxParallel (Simple material evaluation)</text><rect fill="#D62728" height="12" style="stroke:#D62728;stroke-width:1;" width="12" x="480" y="196.4375"/><text fill="#000000" font-family="sans-serif" font-size="14" lengthAdjust="spacing" textLength="306.5645" x="497" y="210.9707">MiniMaxParallel (Mate aware material evaluation)</text><?plantuml-src bTBFJy8m50VmU_-AbtdHP3_wkdP53mO5TZ6O2KV2eK2pDPOvjeBy-NQ3YmUZfibxBqtpoJTv7NTEjMvR-KA8CyvgaizU7q2qxvY80pP9mue5DfZm1ZUOO5E810jyuqaXYYB15xP8OGEHFnHI9BhUmSKXLQJEfeCLJ7NZAi3mqjcrfzVEOKrEbwV1HDdjqIfdFcglx3MikdNWuIXw14PZ2bsZjgOkGVYvRCsEa8rg8PYRsipLUQaFHrqxeopSBis-iHhsokcslz0dPO-3V1Ui06CwYqJeIUI-SdOVOXhBaGy3DvXB-Sn_bEUU1FMfsZ_hCWrHnfaSz3oNEPrzqmlLAclrhwazI75WMLy53p4UYRHNsUI9iiaFwdyIqu7Eqf35dCgUdcPCiX4XLfVzTbjJLewC_NZzDXWpoh8Olm00?></g></svg>