<?plantuml 1.2026.1?><svg xmlns="http://www.w3.org/2000/svg" xmlns:xlink="http://www.w3.org/1999/xlink" contentStyleType="text/css" data-diagram-type="CHART" height="436px" preserveAspectRatio="none" style="width:835px;height:436px;background:#FFFFFF;" version="1.1" viewBox="0 0 835 436" width="835px" zoomAndPan="magnify"><title>FEN: Q7/p1pk3p/2p2qp1/3p1b2/8/1PN1P3/P1PP2PP/R4KNR b - - 4 15</title><defs/><g><g class="title" data-source-line="2"><text fill="#000000" font-family="sans-serif" font-size="14" font-weight="bold" lengthAdjust="spacing" textLength="452.0469" x="209.9966" y="34.5332">FEN: Q7/p1pk3p/2p2qp1/3p1b2/8/1PN1P3/P1PP2PP/R4KNR b - - 4 15</text></g><line style="stroke:#181818;stroke-width:0.5;" x1="70" x2="70" y1="98.6094" y2="398.6094"/><line style="stroke:#181818;stroke-width:0.5;" x1="70" x2="65" y1="398.6094" y2="398.6094"/><text fill="#000000" font-family="sans-serif" font-size="14" lengthAdjust="spacing" textLength="7.7861" x="52.2139" y="404.3379">0</text><line style="stroke:#181818;stroke-width:0.5;" x1="70" x2="65" y1="338.6094" y2="338.6094"/><text fill="#000000" font-family="sans-serif" font-size="14" lengthAdjust="spacing" textLength="7.7861" x="52.2139" y="344.3379">2</text><line style="stroke:#181818;stroke-width:0.5;" x1="70" x2="65" y1="278.6094" y2="278.6094"/><text fill="#000000" font-family="sans-serif" font-size="14" lengthAdjust="spacing" textLength="7.7861" x="52.2139" y="284.3379">4</text><line style="stroke:#181818;stroke-width:0.5;" x1="70" x2="65" y1="218.6094" y2="218.6094"/><text fill="#000000" font-family="sans-serif" font-size="14" lengthAdjust="spacing" textLength="7.7861" x="52.2139" y="224.3379">6</text><line style="stroke:#181818;stroke-width:0.5;" x1="70" x2="65" y1="158.6094" y2="158.6094"/><text fill="#000000" font-family="sans-serif" font-size="14" lengthAdjust="spacing" textLength="7.7861" x="52.2139" y="164.3379">8</text><line style="stroke:#181818;stroke-width:0.5;" x1="70" x2="65" y1="98.6094" y2="98.6094"/><text fill="#000000" font-family="sans-serif" font-size="14" lengthAdjust="spacing" textLength="15.5723" x="44.4277" y="104.3379">10</text><text fill="#000000" font-family="sans-serif" font-size="14" lengthAdjust="spacing" textLength="118.2686" transform="rotate(-90 28.8047 307.7437)" x="28.8047" y="307.7437">Calculation time [s]</text><line style="stroke:#181818;stroke-width:0.5;" x1="70" x2="470" y1="398.6094" y2="398.6094"/><line style="stroke:#181818;stroke-width:0.5;" x1="120" x2="120" y1="398.6094" y2="403.6094"/><text fill="#000000" font-family="sans-serif" font-size="14" lengthAdjust="spacing" textLength="49.0342" x="95.4829" y="423.1426">Depth 1</text><line style="stroke:#181818;stroke-width:0.5;" x1="220" x2="220" y1="398.6094" y2="403.6094"/><text fill="#000000" font-family="sans-serif" font-size="14" lengthAdjust="spacing" textLength="49.0342" x="195.4829" y="423.1426">Depth 2</text><line style="stroke:#181818;stroke-width:0.5;" x1="320" x2="320" y1="398.6094" y2="403.6094"/><text fill="#000000" font-family="sans-serif" font-size="14" lengthAdjust="spacing" textLength="49.0342" x="295.4829" y="423.1426">Depth 3</text><line style="stroke:#181818;stroke-width:0.5;" x1="420" x2="420" y1="398.6094" y2="403.6094"/><text fill="#000000" font-family="sans-serif" font-size="14" lengthAdjust="spacing" textLength="49.0342" x="395.4829" y="423.1426">Depth 4</text><line style="stroke:#181818;stroke-width:0.5;" x1="70" x2="470" y1="398.6094" y2="398.6094"/><line style="stroke:#181818;stroke-width:0.5;" x1="70" x2="470" y1="338.6094" y2="338.6094"/><line style="stroke:#181818;stroke-width:0.5;" x1="70" x2="470" y1="278.6094" y2="278.6094"/><line style="stroke:#181818;stroke-width:0.5;" x1="70" x2="470" y1="218.6094" y2="218.6094"/><line style="stroke:#181818;stroke-width:0.5;" x1="70" x2="470" y1="158.6094" y2="158.6094"/><line style="stroke:#181818;stroke-width:0.5;" x1="70" x2="470" y1="98.6094" y2="98.6094"/><rect fill="#1F77B4" height="0.0003" style="stroke:#181818;stroke-width:0.5;" width="20" x="80" y="398.6091"/><rect fill="#FF7F0E" height="0.0003" style="stroke:#181818;stroke-width:0.5;" width="20" x="100" y="398.6091"/><rect fill="#2CA02C" height="0.0003" style="stroke:#181818;stroke-width:0.5;" width="20" x="120" y="398.6091"/><rect fill="#D62728" height="0.0003" style="stroke:#181818;stroke-width:0.5;" width="20" x="140" y="398.6091"/><rect fill="#1F77B4" height="0.21" style="stroke:#181818;stroke-width:0.5;" width="20" x="180" y="398.3994"/><rect fill="#FF7F0E" height="0.27" style="stroke:#181818;stroke-width:0.5;" width="20" x="200" y="398.3394"/><rect fill="#2CA02C" height="0.03" style="stroke:#181818;stroke-width:0.5;" width="20" x="220" y="398.5794"/><rect fill="#D62728" height="0.03" style="stroke:#181818;stroke-width:0.5;" width="20" x="240" y="398.5794"/><rect fill="#1F77B4" height="5.43" style="stroke:#181818;stroke-width:0.5;" width="20" x="280" y="393.1794"/><rect fill="#FF7F0E" height="6.78" style="stroke:#181818;stroke-width:0.5;" width="20" x="300" y="391.8294"/><rect fill="#2CA02C" height="0.78" style="stroke:#181818;stroke-width:0.5;" width="20" x="320" y="397.8294"/><rect fill="#D62728" height="0.99" style="stroke:#181818;stroke-width:0.5;" width="20" x="340" y="397.6194"/><rect fill="#1F77B4" height="170.13" style="stroke:#181818;stroke-width:0.5;" width="20" x="380" y="228.4794"/><rect fill="#FF7F0E" height="214.47" style="stroke:#181818;stroke-width:0.5;" width="20" x="400" y="184.1394"/><rect fill="#2CA02C" height="24.27" style="stroke:#181818;stroke-width:0.5;" width="20" x="420" y="374.3394"/><rect fill="#D62728" height="30.78" style="stroke:#181818;stroke-width:0.5;" width="20" x="440" y="367.8294"/><rect fill="#1F77B4" height="12" style="stroke:#1F77B4;stroke-width:1;" width="12" x="480" y="98.6094"/><text fill="#000000" font-family="sans-serif" font-size="14" lengthAdjust="spacing" textLength="295.6885" x="497" y="113.1426">MiniMaxSequential (Simple material evaluation)</text><rect fill="#FF7F0E" height="12" style="stroke:#FF7F0E;stroke-width:1;" width="12" x="480" y="131.2188"/><text fill="#000000" font-family="sans-serif" font-size="14" lengthAdjust="spacing" textLength="326.04" x="497" y="145.752">MiniMaxSequential (Mate aware material evaluation)</text><rect fill="#2CA02C" height="12" style="stroke:#2CA02C;stroke-width:1;" width="12" x="480" y="163.8281"/><text fill="#000000" font-family="sans-serif" font-size="14" lengthAdjust="spacing" textLength="276.2129" x="497" y="178.3613">MiniMaxParallel (Simple material evaluation)</text><rect fill="#D62728" height="12" style="stroke:#D62728;stroke-width:1;" width="12" x="480" y="196.4375"/><text fill="#000000" font-family="sans-serif" font-size="14" lengthAdjust="spacing" textLength="306.5645" x="497" y="210.9707">MiniMaxParallel (Mate aware material evaluation)</text><?plantuml-src bTBFQy8m50VmU_wAHtVPe3_oqchg3iDDxMKecHx5GzJGXiKkjj7vvozLBnw4IU3x7Y5yyY0PjausRbFv8CHfPnGf9hDN-EA9HVkTseHPjhUOf1RNBCaJ53CKQI9G22P4Ciy-PtDOG-HN1jWZgjx2nI5L94-wXIMCbNKLO7Yfx5hJQyrWHOwNey58cit1IAT_Qg_i52pRLG0KekWDaCOKMYitkYw1-Rviz9QGjMmWcEfQJ-LfeVO7LJij3JmlzCuQ1JlfLDDjgACqXxFy4Ym1Opg9Ug4dAVU9EOQzkCyHLl241USVsLruwaMGlxBv3pxmoLW_v35cWmul2bxGoGqkP2EDKO_CZ5rwbiOvFRDiz4xPw0xxqCHdEar3x2xew76VSPOJObJPFMwZoygHeM-llmPZva_6-0S0?></g></svg>