<?plantuml 1.2026.1?><svg xmlns="http://www.w3.org/2000/svg" xmlns:xlink="http://www.w3.org/1999/xlink" contentStyleType="text/css" data-diagram-type="CHART" height="436px" preserveAspectRatio="none" style="width:835px;height:436px;background:#FFFFFF;" version="1.1" viewBox="0 0 835 436" width="835px" zoomAndPan="magnify"><title>FEN: r5k1/7p/1p1Qp1p1/p1np1r2/1q3P1P/1P6/2P3P1/RB3RK1 w - - 3 26</title><defs/><g><g class="title" data-source-line="2"><text fill="#000000" font-family="sans-serif" font-size="14" font-weight="bold" lengthAdjust="spacing" textLength="467.6396" x="202.2002" y="34.5332">FEN: r5k1/7p/1p1Qp1p1/p1np1r2/1q3P1P/1P6/2P3P1/RB3RK1 w - - 3 26</text></g><line style="stroke:#181818;stroke-width:0.5;" x1="70" x2="70" y1="98.6094" y2="398.6094"/><line style="stroke:#181818;stroke-width:0.5;" x1="70" x2="65" y1="398.6094" y2="398.6094"/><text fill="#000000" font-family="sans-serif" font-size="14" lengthAdjust="spacing" textLength="7.7861" x="52.2139" y="404.3379">0</text><line style="stroke:#181818;stroke-width:0.5;" x1="70" x2="65" y1="323.6094" y2="323.6094"/><text fill="#000000" font-family="sans-serif" font-size="14" lengthAdjust="spacing" textLength="7.7861" x="52.2139" y="329.3379">5</text><line style="stroke:#181818;stroke-width:0.5;" x1="70" x2="65" y1="248.6094" y2="248.6094"/><text fill="#000000" font-family="sans-serif" font-size="14" lengthAdjust="spacing" textLength="15.5723" x="44.4277" y="254.3379">10</text><line style="stroke:#181818;stroke-width:0.5;" x1="70" x2="65" y1="173.6094" y2="173.6094"/><text fill="#000000" font-family="sans-serif" font-size="14" lengthAdjust="spacing" textLength="15.5723" x="44.4277" y="179.3379">15</text><line style="stroke:#181818;stroke-width:0.5;" x1="70" x2="65" y1="98.6094" y2="98.6094"/><text fill="#000000" font-family="sans-serif" font-size="14" lengthAdjust="spacing" textLength="15.5723" x="44.4277" y="104.3379">20</text><text fill="#000000" font-family="sans-serif" font-size="14" lengthAdjust="spacing" textLength="118.2686" transform="rotate(-90 28.8047 307.7437)" x="28.8047" y="307.7437">Calculation time [s]</text><line style="stroke:#181818;stroke-width:0.5;" x1="70" x2="470" y1="398.6094" y2="398.6094"/><line style="stroke:#181818;stroke-width:0.5;" x1="120" x2="120" y1="398.6094" y2="403.6094"/><text fill="#000000" font-family="sans-serif" font-size="14" lengthAdjust="spacing" textLength="49.0342" x="95.4829" y="423.1426">Depth 1</text><line style="stroke:#181818;stroke-width:0.5;" x1="220" x2="220" y1="398.6094" y2="403.6094"/><text fill="#000000" font-family="sans-serif" font-size="14" lengthAdjust="spacing" textLength="49.0342" x="195.4829" y="423.1426">Depth 2</text><line style="stroke:#181818;stroke-width:0.5;" x1="320" x2="320" y1="398.6094" y2="403.6094"/><text fill="#000000" font-family="sans-serif" font-size="14" lengthAdjust="spacing" textLength="49.0342" x="295.4829" y="423.1426">Depth 3</text><line style="stroke:#181818;stroke-width:0.5;" x1="420" x2="420" y1="398.6094" y2="403.6094"/><text fill="#000000" font-family="sans-serif" font-size="14" lengthAdjust="spacing" textLength="49.0342" x="395.4829" y="423.1426">Depth 4</text><line style="stroke:#181818;stroke-width:0.5;" x1="70" x2="470" y1="398.6094" y2="398.6094"/><line style="stroke:#181818;stroke-width:0.5;" x1="70" x2="470" y1="323.6094" y2="323.6094"/><line style="stroke:#181818;stroke-width:0.5;" x1="70" x2="470" y1="248.6094" y2="248.6094"/><line style="stroke:#181818;stroke-width:0.5;" x1="70" x2="470" y1="173.6094" y2="173.6094"/><line style="stroke:#181818;stroke-width:0.5;" x1="70" x2="470" y1="98.6094" y2="98.6094"/><rect fill="#1F77B4" height="0.0002" style="stroke:#181818;stroke-width:0.5;" width="20" x="80" y="398.6092"/><rect fill="#FF7F0E" height="0.0002" style="stroke:#181818;stroke-width:0.5;" width="20" x="100" y="398.6092"/><rect fill="#2CA02C" height="0.0002" style="stroke:#181818;stroke-width:0.5;" width="20" x="120" y="398.6092"/><rect fill="#D62728" height="0.0002" style="stroke:#181818;stroke-width:0.5;" width="20" x="140" y="398.6092"/><rect fill="#1F77B4" height="0.135" style="stroke:#181818;stroke-width:0.5;" width="20" x="180" y="398.4744"/><rect fill="#FF7F0E" height="0.165" style="stroke:#181818;stroke-width:0.5;" width="20" x="200" y="398.4444"/><rect fill="#2CA02C" height="0.03" style="stroke:#181818;stroke-width:0.5;" width="20" x="220" y="398.5794"/><rect fill="#D62728" height="0.03" style="stroke:#181818;stroke-width:0.5;" width="20" x="240" y="398.5794"/><rect fill="#1F77B4" height="4.155" style="stroke:#181818;stroke-width:0.5;" width="20" x="280" y="394.4544"/><rect fill="#FF7F0E" height="5.22" style="stroke:#181818;stroke-width:0.5;" width="20" x="300" y="393.3894"/><rect fill="#2CA02C" height="0.6" style="stroke:#181818;stroke-width:0.5;" width="20" x="320" y="398.0094"/><rect fill="#D62728" height="0.765" style="stroke:#181818;stroke-width:0.5;" width="20" x="340" y="397.8444"/><rect fill="#1F77B4" height="151.62" style="stroke:#181818;stroke-width:0.5;" width="20" x="380" y="246.9894"/><rect fill="#FF7F0E" height="188.445" style="stroke:#181818;stroke-width:0.5;" width="20" x="400" y="210.1644"/><rect fill="#2CA02C" height="21.51" style="stroke:#181818;stroke-width:0.5;" width="20" x="420" y="377.0994"/><rect fill="#D62728" height="27.24" style="stroke:#181818;stroke-width:0.5;" width="20" x="440" y="371.3694"/><rect fill="#1F77B4" height="12" style="stroke:#1F77B4;stroke-width:1;" width="12" x="480" y="98.6094"/><text fill="#000000" font-family="sans-serif" font-size="14" lengthAdjust="spacing" textLength="295.6885" x="497" y="113.1426">MiniMaxSequential (Simple material evaluation)</text><rect fill="#FF7F0E" height="12" style="stroke:#FF7F0E;stroke-width:1;" width="12" x="480" y="131.2188"/><text fill="#000000" font-family="sans-serif" font-size="14" lengthAdjust="spacing" textLength="326.04" x="497" y="145.752">MiniMaxSequential (Mate aware material evaluation)</text><rect fill="#2CA02C" height="12" style="stroke:#2CA02C;stroke-width:1;" width="12" x="480" y="163.8281"/><text fill="#000000" font-family="sans-serif" font-size="14" lengthAdjust="spacing" textLength="276.2129" x="497" y="178.3613">MiniMaxParallel (Simple material evaluation)</text><rect fill="#D62728" height="12" style="stroke:#D62728;stroke-width:1;" width="12" x="480" y="196.4375"/><text fill="#000000" font-family="sans-serif" font-size="14" lengthAdjust="spacing" textLength="306.5645" x="497" y="210.9707">MiniMaxParallel (Mate aware material evaluation)</text><?plantuml-src bTB9QiCm40RWkvvYS2yjUD78QtieQHPVIegR74CEQY9iKSLLP6Lv_CfnBZq46WJ_349y38n6dUN6RXeNX5XfbI3bxEC5JFgDKQuZrFYfNKGQMus6HRYFAwmYhBA8LQwD5kDuyOvmWi2T65X6HBk5WI9DmC-oWnLCXRODe3zKTgtnjIQm9iVXgJVXQdDGtCgVrYax0QjkxG6587W5HaCAdUORsTQGkhusSal85pVWpMKhv_oy5Fk3QAta2XwNSgULW1stmlGNuiZLuI8_UIl0aCw2r7SaVNR9yjn76Y8jO0qFMERvEBafpnq9_CJDFtH4bt5I-CZ2D8jxlIppaix-w1KtN2bnpzIipyJ7C8cJNcMJDyecDzHx9Xxa51rTODRJqupbh214YRhVhf5rOyd8jTUVWo6ZB0ln5m00?></g></svg>