<?plantuml 1.2026.1?><svg xmlns="http://www.w3.org/2000/svg" xmlns:xlink="http://www.w3.org/1999/xlink" contentStyleType="text/css" data-diagram-type="CHART" height="436px" preserveAspectRatio="none" style="width:835px;height:436px;background:#FFFFFF;" version="1.1" viewBox="0 0 835 436" width="835px" zoomAndPan="magnify"><title>FEN: 5r1k/1pqnbr1P/p2p1pQp/2p5/3PP2P/1PN5/1PP3R1/R5K1 w - - 0 24</title><defs/><g><g class="title" data-source-line="2"><text fill="#000000" font-family="sans-serif" font-size="14" font-weight="bold" lengthAdjust="spacing" textLength="471.5088" x="200.2656" y="34.5332">FEN: 5r1k/1pqnbr1P/p2p1pQp/2p5/3PP2P/1PN5/1PP3R1/R5K1 w - - 0 24</text></g><line style="stroke:#181818;stroke-width:0.5;" x1="70" x2="70" y1="98.6094" y2="398.6094"/><line style="stroke:#181818;stroke-width:0.5;" x1="70" x2="65" y1="398.6094" y2="398.6094"/><text fill="#000000" font-family="sans-serif" font-size="14" lengthAdjust="spacing" textLength="7.7861" x="52.2139" y="404.3379">0</text><line style="stroke:#181818;stroke-width:0.5;" x1="70" x2="65" y1="323.6094" y2="323.6094"/><text fill="#000000" font-family="sans-serif" font-size="14" lengthAdjust="spacing" textLength="7.7861" x="52.2139" y="329.3379">5</text><line style="stroke:#181818;stroke-width:0.5;" x1="70" x2="65" y1="248.6094" y2="248.6094"/><text fill="#000000" font-family="sans-serif" font-size="14" lengthAdjust="spacing" textLength="15.5723" x="44.4277" y="254.3379">10</text><line style="stroke:#181818;stroke-width:0.5;" x1="70" x2="65" y1="173.6094" y2="173.6094"/><text fill="#000000" font-family="sans-serif" font-size="14" lengthAdjust="spacing" textLength="15.5723" x="44.4277" y="179.3379">15</text><line style="stroke:#181818;stroke-width:0.5;" x1="70" x2="65" y1="98.6094" y2="98.6094"/><text fill="#000000" font-family="sans-serif" font-size="14" lengthAdjust="spacing" textLength="15.5723" x="44.4277" y="104.3379">20</text><text fill="#000000" font-family="sans-serif" font-size="14" lengthAdjust="spacing" textLength="118.2686" transform="rotate(-90 28.8047 307.7437)" x="28.8047" y="307.7437">Calculation time [s]</text><line style="stroke:#181818;stroke-width:0.5;" x1="70" x2="470" y1="398.6094" y2="398.6094"/><line style="stroke:#181818;stroke-width:0.5;" x1="120" x2="120" y1="398.6094" y2="403.6094"/><text fill="#000000" font-family="sans-serif" font-size="14" lengthAdjust="spacing" textLength="49.0342" x="95.4829" y="423.1426">Depth 1</text><line style="stroke:#181818;stroke-width:0.5;" x1="220" x2="220" y1="398.6094" y2="403.6094"/><text fill="#000000" font-family="sans-serif" font-size="14" lengthAdjust="spacing" textLength="49.0342" x="195.4829" y="423.1426">Depth 2</text><line style="stroke:#181818;stroke-width:0.5;" x1="320" x2="320" y1="398.6094" y2="403.6094"/><text fill="#000000" font-family="sans-serif" font-size="14" lengthAdjust="spacing" textLength="49.0342" x="295.4829" y="423.1426">Depth 3</text><line style="stroke:#181818;stroke-width:0.5;" x1="420" x2="420" y1="398.6094" y2="403.6094"/><text fill="#000000" font-family="sans-serif" font-size="14" lengthAdjust="spacing" textLength="49.0342" x="395.4829" y="423.1426">Depth 4</text><line style="stroke:#181818;stroke-width:0.5;" x1="70" x2="470" y1="398.6094" y2="398.6094"/><line style="stroke:#181818;stroke-width:0.5;" x1="70" x2="470" y1="323.6094" y2="323.6094"/><line style="stroke:#181818;stroke-width:0.5;" x1="70" x2="470" y1="248.6094" y2="248.6094"/><line style="stroke:#181818;stroke-width:0.5;" x1="70" x2="470" y1="173.6094" y2="173.6094"/><line style="stroke:#181818;stroke-width:0.5;" x1="70" x2="470" y1="98.6094" y2="98.6094"/><rect fill="#1F77B4" height="0.0002" style="stroke:#181818;stroke-width:0.5;" width="20" x="80" y="398.6092"/><rect fill="#FF7F0E" height="0.0002" style="stroke:#181818;stroke-width:0.5;" width="20" x="100" y="398.6092"/><rect fill="#2CA02C" height="0.0002" style="stroke:#181818;stroke-width:0.5;" width="20" x="120" y="398.6092"/><rect fill="#D62728" height="0.0002" style="stroke:#181818;stroke-width:0.5;" width="20" x="140" y="398.6092"/><rect fill="#1F77B4" height="0.135" style="stroke:#181818;stroke-width:0.5;" width="20" x="180" y="398.4744"/><rect fill="#FF7F0E" height="0.165" style="stroke:#181818;stroke-width:0.5;" width="20" x="200" y="398.4444"/><rect fill="#2CA02C" height="0.03" style="stroke:#181818;stroke-width:0.5;" width="20" x="220" y="398.5794"/><rect fill="#D62728" height="0.03" style="stroke:#181818;stroke-width:0.5;" width="20" x="240" y="398.5794"/><rect fill="#1F77B4" height="5.58" style="stroke:#181818;stroke-width:0.5;" width="20" x="280" y="393.0294"/><rect fill="#FF7F0E" height="6.84" style="stroke:#181818;stroke-width:0.5;" width="20" x="300" y="391.7694"/><rect fill="#2CA02C" height="0.78" style="stroke:#181818;stroke-width:0.5;" width="20" x="320" y="397.8294"/><rect fill="#D62728" height="0.99" style="stroke:#181818;stroke-width:0.5;" width="20" x="340" y="397.6194"/><rect fill="#1F77B4" height="139.68" style="stroke:#181818;stroke-width:0.5;" width="20" x="380" y="258.9294"/><rect fill="#FF7F0E" height="172.62" style="stroke:#181818;stroke-width:0.5;" width="20" x="400" y="225.9894"/><rect fill="#2CA02C" height="19.725" style="stroke:#181818;stroke-width:0.5;" width="20" x="420" y="378.8844"/><rect fill="#D62728" height="24.825" style="stroke:#181818;stroke-width:0.5;" width="20" x="440" y="373.7844"/><rect fill="#1F77B4" height="12" style="stroke:#1F77B4;stroke-width:1;" width="12" x="480" y="98.6094"/><text fill="#000000" font-family="sans-serif" font-size="14" lengthAdjust="spacing" textLength="295.6885" x="497" y="113.1426">MiniMaxSequential (Simple material evaluation)</text><rect fill="#FF7F0E" height="12" style="stroke:#FF7F0E;stroke-width:1;" width="12" x="480" y="131.2188"/><text fill="#000000" font-family="sans-serif" font-size="14" lengthAdjust="spacing" textLength="326.04" x="497" y="145.752">MiniMaxSequential (Mate aware material evaluation)</text><rect fill="#2CA02C" height="12" style="stroke:#2CA02C;stroke-width:1;" width="12" x="480" y="163.8281"/><text fill="#000000" font-family="sans-serif" font-size="14" lengthAdjust="spacing" textLength="276.2129" x="497" y="178.3613">MiniMaxParallel (Simple material evaluation)</text><rect fill="#D62728" height="12" style="stroke:#D62728;stroke-width:1;" width="12" x="480" y="196.4375"/><text fill="#000000" font-family="sans-serif" font-size="14" lengthAdjust="spacing" textLength="306.5645" x="497" y="210.9707">MiniMaxParallel (Mate aware material evaluation)</text><?plantuml-src bT9DQy8m60VmUpx5GtVPe2zvqgRL7OQRsijGEZsAXwZ1XiKkfl7buozLBpi8ay3_2I7y-4CoQ9smRbtx8CGffoKfnzDNu1Q_4pJxPcMnIWmpQBvCmWnFqgfYLOBLbFkeqXacC_w9S8B8Bmei8xBPm9KYTIJEgeK5ZAHnDM1udUmsqzlCO4cErwl1KEZrGGkdVXglx2GiscNWuIXw0qPZ2gqHQzLiWVlzrgeD8IjX8PYeHat4UIxt1zau9JGypzNEQ0axuQJj3kHHwCD5VWaMW34THppq9EtxJ0iMzkCK6IpX2SkY-CZkmXClWZW9-mySqMV6yn0nvhJNwMLPb7JyHw-45LhBHqgpBZaBqPVc7Sk6xvGDxx2FLBxIkQySv_n2Zt9Mi1uXMcwxrxLgMpioyDlRpy6OKPR7-0i0?></g></svg>