<svg xmlns="http://www.w3.org/2000/svg" xmlns:xlink="http://www.w3.org/1999/xlink" contentStyleType="text/css" data-diagram-type="CLASS" height="784px" preserveAspectRatio="none" style="width:1204px;height:784px;background:#FFFFFF;" version="1.1" viewBox="0 0 1204 784" width="1204px" zoomAndPan="magnify"><defs/><g><!--cluster ch--><g class="cluster" data-entity="ch" data-source-line="2" data-uid="ent0003" id="cluster_ch"><path d="M8.5,6 L27.7656,6 A3.75,3.75 0 0 1 30.2656,8.5 L37.2656,28.2969 L1194.5,28.2969 A2.5,2.5 0 0 1 1197,30.7969 L1197,774.5 A2.5,2.5 0 0 1 1194.5,777 L8.5,777 A2.5,2.5 0 0 1 6,774.5 L6,8.5 A2.5,2.5 0 0 1 8.5,6" fill="none" style="stroke:#000000;stroke-width:1.5;"/><line style="stroke:#000000;stroke-width:1.5;" x1="6" x2="37.2656" y1="28.2969" y2="28.2969"/><text fill="#000000" font-family="sans-serif" font-size="14" font-weight="bold" lengthAdjust="spacing" textLength="18.2656" x="10" y="20.9951">ch</text></g><!--cluster hslu--><g class="cluster" data-entity="hslu" data-source-line="2" data-uid="ent0004" id="cluster_hslu"><path d="M32.5,49 L66.5654,49 A3.75,3.75 0 0 1 69.0654,51.5 L76.0654,71.2969 L1170.5,71.2969 A2.5,2.5 0 0 1 1173,73.7969 L1173,750.5 A2.5,2.5 0 0 1 1170.5,753 L32.5,753 A2.5,2.5 0 0 1 30,750.5 L30,51.5 A2.5,2.5 0 0 1 32.5,49" fill="none" style="stroke:#000000;stroke-width:1.5;"/><line style="stroke:#000000;stroke-width:1.5;" x1="30" x2="76.0654" y1="71.2969" y2="71.2969"/><text fill="#000000" font-family="sans-serif" font-size="14" font-weight="bold" lengthAdjust="spacing" textLength="33.0654" x="34" y="63.9951">hslu</text></g><!--cluster cas--><g class="cluster" data-entity="cas" data-source-line="2" data-uid="ent0005" id="cluster_cas"><path d="M56.5,92 L83.5791,92 A3.75,3.75 0 0 1 86.0791,94.5 L93.0791,114.2969 L1146.5,114.2969 A2.5,2.5 0 0 1 1149,116.7969 L1149,726.5 A2.5,2.5 0 0 1 1146.5,729 L56.5,729 A2.5,2.5 0 0 1 54,726.5 L54,94.5 A2.5,2.5 0 0 1 56.5,92" fill="none" style="stroke:#000000;stroke-width:1.5;"/><line style="stroke:#000000;stroke-width:1.5;" x1="54" x2="93.0791" y1="114.2969" y2="114.2969"/><text fill="#000000" font-family="sans-serif" font-size="14" font-weight="bold" lengthAdjust="spacing" textLength="26.0791" x="58" y="106.9951">cas</text></g><!--cluster msed--><g class="cluster" data-entity="msed" data-source-line="2" data-uid="ent0006" id="cluster_msed"><path d="M80.5,135 L123.9375,135 A3.75,3.75 0 0 1 126.4375,137.5 L133.4375,157.2969 L1122.5,157.2969 A2.5,2.5 0 0 1 1125,159.7969 L1125,702.5 A2.5,2.5 0 0 1 1122.5,705 L80.5,705 A2.5,2.5 0 0 1 78,702.5 L78,137.5 A2.5,2.5 0 0 1 80.5,135" fill="none" style="stroke:#000000;stroke-width:1.5;"/><line style="stroke:#000000;stroke-width:1.5;" x1="78" x2="133.4375" y1="157.2969" y2="157.2969"/><text fill="#000000" font-family="sans-serif" font-size="14" font-weight="bold" lengthAdjust="spacing" textLength="42.4375" x="82" y="149.9951">msed</text></g><!--cluster blobfish--><g class="cluster" data-entity="blobfish" data-source-line="2" data-uid="ent0007" id="cluster_blobfish"><path d="M104.5,178 L169.1494,178 A3.75,3.75 0 0 1 171.6494,180.5 L178.6494,200.2969 L1098.5,200.2969 A2.5,2.5 0 0 1 1101,202.7969 L1101,678.5 A2.5,2.5 0 0 1 1098.5,681 L104.5,681 A2.5,2.5 0 0 1 102,678.5 L102,180.5 A2.5,2.5 0 0 1 104.5,178" fill="none" style="stroke:#000000;stroke-width:1.5;"/><line style="stroke:#000000;stroke-width:1.5;" x1="102" x2="178.6494" y1="200.2969" y2="200.2969"/><text fill="#000000" font-family="sans-serif" font-size="14" font-weight="bold" lengthAdjust="spacing" textLength="63.6494" x="106" y="192.9951">blobfish</text></g><!--cluster base--><g class="cluster" data-entity="base" data-source-line="2" data-uid="ent0008" id="cluster_base"><path d="M128.5,221 L166.7969,221 A3.75,3.75 0 0 1 169.2969,223.5 L176.2969,243.2969 L1074.5,243.2969 A2.5,2.5 0 0 1 1077,245.7969 L1077,654.5 A2.5,2.5 0 0 1 1074.5,657 L128.5,657 A2.5,2.5 0 0 1 126,654.5 L126,223.5 A2.5,2.5 0 0 1 128.5,221" fill="none" style="stroke:#000000;stroke-width:1.5;"/><line style="stroke:#000000;stroke-width:1.5;" x1="126" x2="176.2969" y1="243.2969" y2="243.2969"/><text fill="#000000" font-family="sans-serif" font-size="14" font-weight="bold" lengthAdjust="spacing" textLength="37.2969" x="130" y="235.9951">base</text></g><!--class FenUtil--><g class="entity" data-entity="FenUtil" data-source-line="2" data-uid="ent0002" id="entity_FenUtil"><rect fill="#F1F1F1" height="80.5938" rx="2.5" ry="2.5" style="stroke:#181818;stroke-width:0.5;" width="492.334" x="569" y="296.5"/><ellipse cx="786.3896" cy="312.5" fill="#ADD1B2" rx="11" ry="11" style="stroke:#181818;stroke-width:1;"/><path d="M789.3584,318.1406 Q788.7803,318.4375 788.1396,318.5781 Q787.499,318.7344 786.7959,318.7344 Q784.2959,318.7344 782.9678,317.0938 Q781.6553,315.4375 781.6553,312.3125 Q781.6553,309.1875 782.9678,307.5313 Q784.2959,305.875 786.7959,305.875 Q787.499,305.875 788.1396,306.0313 Q788.7959,306.1875 789.3584,306.4844 L789.3584,309.2031 Q788.7334,308.625 788.1396,308.3594 Q787.5459,308.0781 786.9209,308.0781 Q785.5771,308.0781 784.8896,309.1563 Q784.2021,310.2188 784.2021,312.3125 Q784.2021,314.4063 784.8896,315.4844 Q785.5771,316.5469 786.9209,316.5469 Q787.5459,316.5469 788.1396,316.2813 Q788.7334,316 789.3584,315.4219 L789.3584,318.1406 Z " fill="#000000"/><text fill="#000000" font-family="sans-serif" font-size="14" lengthAdjust="spacing" textLength="49.0547" x="806.8896" y="317.3467">FenUtil</text><line style="stroke:#181818;stroke-width:0.5;" x1="570" x2="1060.334" y1="328.5" y2="328.5"/><line style="stroke:#181818;stroke-width:0.5;" x1="570" x2="1060.334" y1="336.5" y2="336.5"/><ellipse cx="580" cy="350.1484" fill="#84BE84" rx="3" ry="3" style="stroke:#038048;stroke-width:1;"/><text fill="#000000" font-family="sans-serif" font-size="14" lengthAdjust="spacing" text-decoration="underline" textLength="466.334" x="589" y="353.4951">getFenPositionBlocks ( paramString1 : String ) : [Ljava.lang.String;</text><ellipse cx="580" cy="366.4453" fill="#84BE84" rx="3" ry="3" style="stroke:#038048;stroke-width:1;"/><text fill="#000000" font-family="sans-serif" font-size="14" lengthAdjust="spacing" text-decoration="underline" textLength="342.5762" x="589" y="369.792">validateFenString ( paramString1 : String ) : void</text></g><!--class Piece--><g class="entity" data-entity="Piece" data-source-line="8" data-uid="ent0009" id="entity_Piece"><rect fill="#F1F1F1" height="162.0781" rx="2.5" ry="2.5" style="stroke:#181818;stroke-width:0.5;" width="392.3721" x="142" y="256"/><ellipse cx="315.3081" cy="272" fill="#ADD1B2" rx="11" ry="11" style="stroke:#181818;stroke-width:1;"/><path d="M318.2769,277.6406 Q317.6987,277.9375 317.0581,278.0781 Q316.4175,278.2344 315.7144,278.2344 Q313.2144,278.2344 311.8862,276.5938 Q310.5737,274.9375 310.5737,271.8125 Q310.5737,268.6875 311.8862,267.0313 Q313.2144,265.375 315.7144,265.375 Q316.4175,265.375 317.0581,265.5313 Q317.7144,265.6875 318.2769,265.9844 L318.2769,268.7031 Q317.6519,268.125 317.0581,267.8594 Q316.4644,267.5781 315.8394,267.5781 Q314.4956,267.5781 313.8081,268.6563 Q313.1206,269.7188 313.1206,271.8125 Q313.1206,273.9063 313.8081,274.9844 Q314.4956,276.0469 315.8394,276.0469 Q316.4644,276.0469 317.0581,275.7813 Q317.6519,275.5 318.2769,274.9219 L318.2769,277.6406 Z " fill="#000000"/><text fill="#000000" font-family="sans-serif" font-size="14" lengthAdjust="spacing" textLength="37.2559" x="335.8081" y="276.8467">Piece</text><line style="stroke:#181818;stroke-width:0.5;" x1="143" x2="533.3721" y1="288" y2="288"/><line style="stroke:#181818;stroke-width:0.5;" x1="143" x2="533.3721" y1="296" y2="296"/><ellipse cx="153" cy="309.6484" fill="#84BE84" rx="3" ry="3" style="stroke:#038048;stroke-width:1;"/><text fill="#000000" font-family="sans-serif" font-size="14" lengthAdjust="spacing" textLength="366.3721" x="162" y="312.9951">color () : ch.hslu.cas.msed.blobfish.base.PlayerColor</text><ellipse cx="153" cy="325.9453" fill="#84BE84" rx="3" ry="3" style="stroke:#038048;stroke-width:1;"/><text fill="#000000" font-family="sans-serif" font-size="14" lengthAdjust="spacing" textLength="299.1543" x="162" y="329.292">equals ( paramObject1 : Object ) : boolean</text><ellipse cx="153" cy="342.2422" fill="#84BE84" rx="3" ry="3" style="stroke:#038048;stroke-width:1;"/><text fill="#000000" font-family="sans-serif" font-size="14" lengthAdjust="spacing" textLength="120.5244" x="162" y="345.5889">fen () : Character</text><ellipse cx="153" cy="358.5391" fill="#84BE84" rx="3" ry="3" style="stroke:#038048;stroke-width:1;"/><text fill="#000000" font-family="sans-serif" font-size="14" lengthAdjust="spacing" textLength="116.7031" x="162" y="361.8857">hashCode () : int</text><ellipse cx="153" cy="374.8359" fill="#84BE84" rx="3" ry="3" style="stroke:#038048;stroke-width:1;"/><text fill="#000000" font-family="sans-serif" font-size="14" lengthAdjust="spacing" textLength="148.2305" x="162" y="378.1826">materialPoints () : int</text><ellipse cx="153" cy="391.1328" fill="#84BE84" rx="3" ry="3" style="stroke:#038048;stroke-width:1;"/><text fill="#000000" font-family="sans-serif" font-size="14" lengthAdjust="spacing" textLength="126.6084" x="162" y="394.4795">toString () : String</text><ellipse cx="153" cy="407.4297" fill="#84BE84" rx="3" ry="3" style="stroke:#038048;stroke-width:1;"/><text fill="#000000" font-family="sans-serif" font-size="14" lengthAdjust="spacing" textLength="354.6484" x="162" y="410.7764">type () : ch.hslu.cas.msed.blobfish.base.PieceType</text></g><!--class PieceType--><g class="entity" data-entity="PieceType" data-source-line="19" data-uid="ent0010" id="entity_PieceType"><rect fill="#F1F1F1" height="145.7813" rx="2.5" ry="2.5" style="stroke:#181818;stroke-width:0.5;" width="103.5928" x="223" y="495"/><ellipse cx="238" cy="511" fill="#EB937F" rx="11" ry="11" style="stroke:#181818;stroke-width:1;"/><path d="M242.1094,517 L234.3906,517 L234.3906,504.6094 L242.1094,504.6094 L242.1094,506.7656 L236.8438,506.7656 L236.8438,509.4375 L241.6094,509.4375 L241.6094,511.5938 L236.8438,511.5938 L236.8438,514.8438 L242.1094,514.8438 L242.1094,517 Z " fill="#000000"/><text fill="#000000" font-family="sans-serif" font-size="14" lengthAdjust="spacing" textLength="71.5928" x="252" y="515.8467">PieceType</text><line style="stroke:#181818;stroke-width:0.5;" x1="224" x2="325.5928" y1="527" y2="527"/><ellipse cx="234" cy="540.6484" fill="none" rx="3" ry="3" style="stroke:#038048;stroke-width:1;"/><text fill="#000000" font-family="sans-serif" font-size="14" lengthAdjust="spacing" textLength="52.6094" x="243" y="543.9951">BISHOP</text><ellipse cx="234" cy="556.9453" fill="none" rx="3" ry="3" style="stroke:#038048;stroke-width:1;"/><text fill="#000000" font-family="sans-serif" font-size="14" lengthAdjust="spacing" textLength="34.6309" x="243" y="560.292">KING</text><ellipse cx="234" cy="573.2422" fill="none" rx="3" ry="3" style="stroke:#038048;stroke-width:1;"/><text fill="#000000" font-family="sans-serif" font-size="14" lengthAdjust="spacing" textLength="53.71" x="243" y="576.5889">KNIGHT</text><ellipse cx="234" cy="589.5391" fill="none" rx="3" ry="3" style="stroke:#038048;stroke-width:1;"/><text fill="#000000" font-family="sans-serif" font-size="14" lengthAdjust="spacing" textLength="42.335" x="243" y="592.8857">PAWN</text><ellipse cx="234" cy="605.8359" fill="none" rx="3" ry="3" style="stroke:#038048;stroke-width:1;"/><text fill="#000000" font-family="sans-serif" font-size="14" lengthAdjust="spacing" textLength="49.4307" x="243" y="609.1826">QUEEN</text><ellipse cx="234" cy="622.1328" fill="none" rx="3" ry="3" style="stroke:#038048;stroke-width:1;"/><text fill="#000000" font-family="sans-serif" font-size="14" lengthAdjust="spacing" textLength="40.9473" x="243" y="625.4795">ROOK</text><line style="stroke:#181818;stroke-width:0.5;" x1="224" x2="325.5928" y1="632.7813" y2="632.7813"/></g><!--class PlayerColor--><g class="entity" data-entity="PlayerColor" data-source-line="29" data-uid="ent0011" id="entity_PlayerColor"><rect fill="#F1F1F1" height="80.5938" rx="2.5" ry="2.5" style="stroke:#181818;stroke-width:0.5;" width="112.1172" x="362" y="527.5"/><ellipse cx="377" cy="543.5" fill="#EB937F" rx="11" ry="11" style="stroke:#181818;stroke-width:1;"/><path d="M381.1094,549.5 L373.3906,549.5 L373.3906,537.1094 L381.1094,537.1094 L381.1094,539.2656 L375.8438,539.2656 L375.8438,541.9375 L380.6094,541.9375 L380.6094,544.0938 L375.8438,544.0938 L375.8438,547.3438 L381.1094,547.3438 L381.1094,549.5 Z " fill="#000000"/><text fill="#000000" font-family="sans-serif" font-size="14" lengthAdjust="spacing" textLength="80.1172" x="391" y="548.3467">PlayerColor</text><line style="stroke:#181818;stroke-width:0.5;" x1="363" x2="473.1172" y1="559.5" y2="559.5"/><ellipse cx="373" cy="573.1484" fill="none" rx="3" ry="3" style="stroke:#038048;stroke-width:1;"/><text fill="#000000" font-family="sans-serif" font-size="14" lengthAdjust="spacing" textLength="45.9375" x="382" y="576.4951">BLACK</text><ellipse cx="373" cy="589.4453" fill="none" rx="3" ry="3" style="stroke:#038048;stroke-width:1;"/><text fill="#000000" font-family="sans-serif" font-size="14" lengthAdjust="spacing" textLength="45.8965" x="382" y="592.792">WHITE</text><line style="stroke:#181818;stroke-width:0.5;" x1="363" x2="473.1172" y1="600.0938" y2="600.0938"/></g><!--reverse link Piece to PieceType--><g class="link" data-entity-1="Piece" data-entity-2="PieceType" data-source-line="37" data-uid="lnk12" id="link_Piece_PieceType"><path codeLine="37" d="M312.784,429.6593 C305.894,454.6793 301.53,470.55 294.81,494.98" fill="none" id="Piece-backto-PieceType" style="stroke:#181818;stroke-width:1;"/><polygon fill="#181818" points="315.97,418.09,310.5206,422.8127,312.784,429.6593,318.2335,424.9367,315.97,418.09" style="stroke:#181818;stroke-width:1;"/><text fill="#000000" font-family="sans-serif" font-size="13" lengthAdjust="spacing" textLength="29.0405" x="307" y="461.0669">type</text></g><!--reverse link Piece to PlayerColor--><g class="link" data-entity-1="Piece" data-entity-2="PlayerColor" data-source-line="38" data-uid="lnk13" id="link_Piece_PlayerColor"><path codeLine="38" d="M369.9368,429.4189 C382.8668,466.4389 393.69,497.42 404.18,527.45" fill="none" id="Piece-backto-PlayerColor" style="stroke:#181818;stroke-width:1;"/><polygon fill="#181818" points="365.98,418.09,364.1821,425.0734,369.9368,429.4189,371.7347,422.4355,365.98,418.09" style="stroke:#181818;stroke-width:1;"/><text fill="#000000" font-family="sans-serif" font-size="13" lengthAdjust="spacing" textLength="32.0112" x="381" y="461.0669">color</text></g><!--SRC=[hL8zRy8m49sRN-4HYcgfAvqWeX21I5f039qkpe5D7Pl61WaX_dkTfAMEXDeCtUxZtVEzvsCIZ26CKsxaWJ8mD3UOqLJgT2CCfoaOfC-eLbP8SWxkpZbQhhCB8MTZmGfs8RqjMeT8j15MQ3MKchqRqY5xA21Vs4AexIFfapeYNHU-pNPm12f1RMbTVhhDV0GfCh3ewB_6VwCzQf45bo08M1jHYK263KazfgKkIAVa-cjOmWcBiCJx1FXn07dL7gSxPBPSiewg9LEj9OBofpQewaT3xiQOnGOd1yD3dM4D4ShwpToPKmYGYNODSnDYzRTrtQjTZVvfZ-qqbuOj7Rho6DKXRprHsRmHACi7Xz5Y4YTUOHhDntuwZyQJfLT81kkvbxwiHYC_VutZQVkLVZwkkTHi44wzV3s9bgEArPrJcqEwVtWWxVteazBsVsJsPBcFhEuo-0G0]--></g></svg>