<svg xmlns="http://www.w3.org/2000/svg" xmlns:xlink="http://www.w3.org/1999/xlink" contentStyleType="text/css" data-diagram-type="CLASS" height="768px" preserveAspectRatio="none" style="width:677px;height:768px;background:#FFFFFF;" version="1.1" viewBox="0 0 677 768" width="677px" zoomAndPan="magnify"><defs/><g><!--cluster ch--><g class="cluster" data-entity="ch" data-source-line="2" data-uid="ent0003" id="cluster_ch"><path d="M8.5,6 L27.7656,6 A3.75,3.75 0 0 1 30.2656,8.5 L37.2656,28.2969 L667.5,28.2969 A2.5,2.5 0 0 1 670,30.7969 L670,758.5 A2.5,2.5 0 0 1 667.5,761 L8.5,761 A2.5,2.5 0 0 1 6,758.5 L6,8.5 A2.5,2.5 0 0 1 8.5,6" fill="none" style="stroke:#000000;stroke-width:1.5;"/><line style="stroke:#000000;stroke-width:1.5;" x1="6" x2="37.2656" y1="28.2969" y2="28.2969"/><text fill="#000000" font-family="sans-serif" font-size="14" font-weight="bold" lengthAdjust="spacing" textLength="18.2656" x="10" y="20.9951">ch</text></g><!--cluster hslu--><g class="cluster" data-entity="hslu" data-source-line="2" data-uid="ent0004" id="cluster_hslu"><path d="M32.5,49 L66.5654,49 A3.75,3.75 0 0 1 69.0654,51.5 L76.0654,71.2969 L643.5,71.2969 A2.5,2.5 0 0 1 646,73.7969 L646,734.5 A2.5,2.5 0 0 1 643.5,737 L32.5,737 A2.5,2.5 0 0 1 30,734.5 L30,51.5 A2.5,2.5 0 0 1 32.5,49" fill="none" style="stroke:#000000;stroke-width:1.5;"/><line style="stroke:#000000;stroke-width:1.5;" x1="30" x2="76.0654" y1="71.2969" y2="71.2969"/><text fill="#000000" font-family="sans-serif" font-size="14" font-weight="bold" lengthAdjust="spacing" textLength="33.0654" x="34" y="63.9951">hslu</text></g><!--cluster cas--><g class="cluster" data-entity="cas" data-source-line="2" data-uid="ent0005" id="cluster_cas"><path d="M56.5,92 L83.5791,92 A3.75,3.75 0 0 1 86.0791,94.5 L93.0791,114.2969 L619.5,114.2969 A2.5,2.5 0 0 1 622,116.7969 L622,710.5 A2.5,2.5 0 0 1 619.5,713 L56.5,713 A2.5,2.5 0 0 1 54,710.5 L54,94.5 A2.5,2.5 0 0 1 56.5,92" fill="none" style="stroke:#000000;stroke-width:1.5;"/><line style="stroke:#000000;stroke-width:1.5;" x1="54" x2="93.0791" y1="114.2969" y2="114.2969"/><text fill="#000000" font-family="sans-serif" font-size="14" font-weight="bold" lengthAdjust="spacing" textLength="26.0791" x="58" y="106.9951">cas</text></g><!--cluster msed--><g class="cluster" data-entity="msed" data-source-line="2" data-uid="ent0006" id="cluster_msed"><path d="M80.5,135 L123.9375,135 A3.75,3.75 0 0 1 126.4375,137.5 L133.4375,157.2969 L595.5,157.2969 A2.5,2.5 0 0 1 598,159.7969 L598,686.5 A2.5,2.5 0 0 1 595.5,689 L80.5,689 A2.5,2.5 0 0 1 78,686.5 L78,137.5 A2.5,2.5 0 0 1 80.5,135" fill="none" style="stroke:#000000;stroke-width:1.5;"/><line style="stroke:#000000;stroke-width:1.5;" x1="78" x2="133.4375" y1="157.2969" y2="157.2969"/><text fill="#000000" font-family="sans-serif" font-size="14" font-weight="bold" lengthAdjust="spacing" textLength="42.4375" x="82" y="149.9951">msed</text></g><!--cluster blobfish--><g class="cluster" data-entity="blobfish" data-source-line="2" data-uid="ent0007" id="cluster_blobfish"><path d="M104.5,178 L169.1494,178 A3.75,3.75 0 0 1 171.6494,180.5 L178.6494,200.2969 L571.5,200.2969 A2.5,2.5 0 0 1 574,202.7969 L574,662.5 A2.5,2.5 0 0 1 571.5,665 L104.5,665 A2.5,2.5 0 0 1 102,662.5 L102,180.5 A2.5,2.5 0 0 1 104.5,178" fill="none" style="stroke:#000000;stroke-width:1.5;"/><line style="stroke:#000000;stroke-width:1.5;" x1="102" x2="178.6494" y1="200.2969" y2="200.2969"/><text fill="#000000" font-family="sans-serif" font-size="14" font-weight="bold" lengthAdjust="spacing" textLength="63.6494" x="106" y="192.9951">blobfish</text></g><!--cluster base--><g class="cluster" data-entity="base" data-source-line="2" data-uid="ent0008" id="cluster_base"><path d="M128.5,221 L166.7969,221 A3.75,3.75 0 0 1 169.2969,223.5 L176.2969,243.2969 L547.5,243.2969 A2.5,2.5 0 0 1 550,245.7969 L550,638.5 A2.5,2.5 0 0 1 547.5,641 L128.5,641 A2.5,2.5 0 0 1 126,638.5 L126,223.5 A2.5,2.5 0 0 1 128.5,221" fill="none" style="stroke:#000000;stroke-width:1.5;"/><line style="stroke:#000000;stroke-width:1.5;" x1="126" x2="176.2969" y1="243.2969" y2="243.2969"/><text fill="#000000" font-family="sans-serif" font-size="14" font-weight="bold" lengthAdjust="spacing" textLength="37.2969" x="130" y="235.9951">base</text></g><!--class Piece--><g class="entity" data-entity="Piece" data-source-line="2" data-uid="ent0002" id="entity_Piece"><rect fill="#F1F1F1" height="145.7813" rx="2.5" ry="2.5" style="stroke:#181818;stroke-width:0.5;" width="392.3721" x="142" y="256"/><ellipse cx="315.3081" cy="272" fill="#ADD1B2" rx="11" ry="11" style="stroke:#181818;stroke-width:1;"/><path d="M318.2769,277.6406 Q317.6987,277.9375 317.0581,278.0781 Q316.4175,278.2344 315.7144,278.2344 Q313.2144,278.2344 311.8862,276.5938 Q310.5737,274.9375 310.5737,271.8125 Q310.5737,268.6875 311.8862,267.0313 Q313.2144,265.375 315.7144,265.375 Q316.4175,265.375 317.0581,265.5313 Q317.7144,265.6875 318.2769,265.9844 L318.2769,268.7031 Q317.6519,268.125 317.0581,267.8594 Q316.4644,267.5781 315.8394,267.5781 Q314.4956,267.5781 313.8081,268.6563 Q313.1206,269.7188 313.1206,271.8125 Q313.1206,273.9063 313.8081,274.9844 Q314.4956,276.0469 315.8394,276.0469 Q316.4644,276.0469 317.0581,275.7813 Q317.6519,275.5 318.2769,274.9219 L318.2769,277.6406 Z " fill="#000000"/><text fill="#000000" font-family="sans-serif" font-size="14" lengthAdjust="spacing" textLength="37.2559" x="335.8081" y="276.8467">Piece</text><line style="stroke:#181818;stroke-width:0.5;" x1="143" x2="533.3721" y1="288" y2="288"/><line style="stroke:#181818;stroke-width:0.5;" x1="143" x2="533.3721" y1="296" y2="296"/><ellipse cx="153" cy="309.6484" fill="#84BE84" rx="3" ry="3" style="stroke:#038048;stroke-width:1;"/><text fill="#000000" font-family="sans-serif" font-size="14" lengthAdjust="spacing" textLength="366.3721" x="162" y="312.9951">color () : ch.hslu.cas.msed.blobfish.base.PlayerColor</text><ellipse cx="153" cy="325.9453" fill="#84BE84" rx="3" ry="3" style="stroke:#038048;stroke-width:1;"/><text fill="#000000" font-family="sans-serif" font-size="14" lengthAdjust="spacing" textLength="299.1543" x="162" y="329.292">equals ( paramObject1 : Object ) : boolean</text><ellipse cx="153" cy="342.2422" fill="#84BE84" rx="3" ry="3" style="stroke:#038048;stroke-width:1;"/><text fill="#000000" font-family="sans-serif" font-size="14" lengthAdjust="spacing" textLength="120.5244" x="162" y="345.5889">fen () : Character</text><ellipse cx="153" cy="358.5391" fill="#84BE84" rx="3" ry="3" style="stroke:#038048;stroke-width:1;"/><text fill="#000000" font-family="sans-serif" font-size="14" lengthAdjust="spacing" textLength="116.7031" x="162" y="361.8857">hashCode () : int</text><ellipse cx="153" cy="374.8359" fill="#84BE84" rx="3" ry="3" style="stroke:#038048;stroke-width:1;"/><text fill="#000000" font-family="sans-serif" font-size="14" lengthAdjust="spacing" textLength="126.6084" x="162" y="378.1826">toString () : String</text><ellipse cx="153" cy="391.1328" fill="#84BE84" rx="3" ry="3" style="stroke:#038048;stroke-width:1;"/><text fill="#000000" font-family="sans-serif" font-size="14" lengthAdjust="spacing" textLength="354.6484" x="162" y="394.4795">type () : ch.hslu.cas.msed.blobfish.base.PieceType</text></g><!--class PieceType--><g class="entity" data-entity="PieceType" data-source-line="12" data-uid="ent0009" id="entity_PieceType"><rect fill="#F1F1F1" height="145.7813" rx="2.5" ry="2.5" style="stroke:#181818;stroke-width:0.5;" width="103.5928" x="223" y="479"/><ellipse cx="238" cy="495" fill="#EB937F" rx="11" ry="11" style="stroke:#181818;stroke-width:1;"/><path d="M242.1094,501 L234.3906,501 L234.3906,488.6094 L242.1094,488.6094 L242.1094,490.7656 L236.8438,490.7656 L236.8438,493.4375 L241.6094,493.4375 L241.6094,495.5938 L236.8438,495.5938 L236.8438,498.8438 L242.1094,498.8438 L242.1094,501 Z " fill="#000000"/><text fill="#000000" font-family="sans-serif" font-size="14" lengthAdjust="spacing" textLength="71.5928" x="252" y="499.8467">PieceType</text><line style="stroke:#181818;stroke-width:0.5;" x1="224" x2="325.5928" y1="511" y2="511"/><ellipse cx="234" cy="524.6484" fill="none" rx="3" ry="3" style="stroke:#038048;stroke-width:1;"/><text fill="#000000" font-family="sans-serif" font-size="14" lengthAdjust="spacing" textLength="52.6094" x="243" y="527.9951">BISHOP</text><ellipse cx="234" cy="540.9453" fill="none" rx="3" ry="3" style="stroke:#038048;stroke-width:1;"/><text fill="#000000" font-family="sans-serif" font-size="14" lengthAdjust="spacing" textLength="34.6309" x="243" y="544.292">KING</text><ellipse cx="234" cy="557.2422" fill="none" rx="3" ry="3" style="stroke:#038048;stroke-width:1;"/><text fill="#000000" font-family="sans-serif" font-size="14" lengthAdjust="spacing" textLength="53.71" x="243" y="560.5889">KNIGHT</text><ellipse cx="234" cy="573.5391" fill="none" rx="3" ry="3" style="stroke:#038048;stroke-width:1;"/><text fill="#000000" font-family="sans-serif" font-size="14" lengthAdjust="spacing" textLength="42.335" x="243" y="576.8857">PAWN</text><ellipse cx="234" cy="589.8359" fill="none" rx="3" ry="3" style="stroke:#038048;stroke-width:1;"/><text fill="#000000" font-family="sans-serif" font-size="14" lengthAdjust="spacing" textLength="49.4307" x="243" y="593.1826">QUEEN</text><ellipse cx="234" cy="606.1328" fill="none" rx="3" ry="3" style="stroke:#038048;stroke-width:1;"/><text fill="#000000" font-family="sans-serif" font-size="14" lengthAdjust="spacing" textLength="40.9473" x="243" y="609.4795">ROOK</text><line style="stroke:#181818;stroke-width:0.5;" x1="224" x2="325.5928" y1="616.7813" y2="616.7813"/></g><!--class PlayerColor--><g class="entity" data-entity="PlayerColor" data-source-line="22" data-uid="ent0010" id="entity_PlayerColor"><rect fill="#F1F1F1" height="80.5938" rx="2.5" ry="2.5" style="stroke:#181818;stroke-width:0.5;" width="112.1172" x="362" y="511.5"/><ellipse cx="377" cy="527.5" fill="#EB937F" rx="11" ry="11" style="stroke:#181818;stroke-width:1;"/><path d="M381.1094,533.5 L373.3906,533.5 L373.3906,521.1094 L381.1094,521.1094 L381.1094,523.2656 L375.8438,523.2656 L375.8438,525.9375 L380.6094,525.9375 L380.6094,528.0938 L375.8438,528.0938 L375.8438,531.3438 L381.1094,531.3438 L381.1094,533.5 Z " fill="#000000"/><text fill="#000000" font-family="sans-serif" font-size="14" lengthAdjust="spacing" textLength="80.1172" x="391" y="532.3467">PlayerColor</text><line style="stroke:#181818;stroke-width:0.5;" x1="363" x2="473.1172" y1="543.5" y2="543.5"/><ellipse cx="373" cy="557.1484" fill="none" rx="3" ry="3" style="stroke:#038048;stroke-width:1;"/><text fill="#000000" font-family="sans-serif" font-size="14" lengthAdjust="spacing" textLength="45.9375" x="382" y="560.4951">BLACK</text><ellipse cx="373" cy="573.4453" fill="none" rx="3" ry="3" style="stroke:#038048;stroke-width:1;"/><text fill="#000000" font-family="sans-serif" font-size="14" lengthAdjust="spacing" textLength="45.8965" x="382" y="576.792">WHITE</text><line style="stroke:#181818;stroke-width:0.5;" x1="363" x2="473.1172" y1="584.0938" y2="584.0938"/></g><!--reverse link Piece to PieceType--><g class="link" data-entity-1="Piece" data-entity-2="PieceType" data-source-line="30" data-uid="lnk11" id="link_Piece_PieceType"><path codeLine="30" d="M313.2751,413.6386 C310.3451,423.6686 310.76,422.33 308,432 C303.67,447.15 299.11,463.41 294.8,478.9" fill="none" id="Piece-backto-PieceType" style="stroke:#181818;stroke-width:1;"/><polygon fill="#181818" points="316.64,402.12,311.118,406.7577,313.2751,413.6386,318.7971,409.0009,316.64,402.12" style="stroke:#181818;stroke-width:1;"/><text fill="#000000" font-family="sans-serif" font-size="13" lengthAdjust="spacing" textLength="29.0405" x="309" y="445.0669">type</text></g><!--reverse link Piece to PlayerColor--><g class="link" data-entity-1="Piece" data-entity-2="PlayerColor" data-source-line="31" data-uid="lnk12" id="link_Piece_PlayerColor"><path codeLine="31" d="M368.1674,413.3424 C381.3074,449.6124 392.63,480.93 403.61,511.25" fill="none" id="Piece-backto-PlayerColor" style="stroke:#181818;stroke-width:1;"/><polygon fill="#181818" points="364.08,402.06,362.3629,409.0637,368.1674,413.3424,369.8845,406.3387,364.08,402.06" style="stroke:#181818;stroke-width:1;"/><text fill="#000000" font-family="sans-serif" font-size="13" lengthAdjust="spacing" textLength="32.0112" x="381" y="445.0669">color</text></g><!--SRC=[hL8zRuCm49thN-4nRHLBNREb20L41RIXocpC4RioTehD44NvxyLug9dgeTkz-tXtz-wOfCPWnWatSYAC6Z8Ow4WhTTiBmqbB3P1Q00DyGm-t0IpNtHq_CotrY3UFUFTdiQHN61EN7nB0zqIbmHjyeICTglOBc7sPsRo57N6hjGIgmgeUb6-QyBcCMLXnScfueZlmAKBPC6ZrqOv2dNtGswluzG9n2parcZaRtH52eAOXkcBHi1SWNSFN_9XLTU0eyl8GmZ8_P4tWgFUdCe3ldsaQue-gAk97-htAUgYtVL84-9JbJRgm8XJr9K_RBOxNOuUTxF_87Amr7t9vElG3]--></g></svg>