<svg xmlns="http://www.w3.org/2000/svg" xmlns:xlink="http://www.w3.org/1999/xlink" contentStyleType="text/css" data-diagram-type="CLASS" height="883px" preserveAspectRatio="none" style="width:1743px;height:883px;background:#FFFFFF;" version="1.1" viewBox="0 0 1743 883" width="1743px" zoomAndPan="magnify"><defs/><g><!--cluster ch--><g class="cluster" data-entity="ch" data-source-line="2" data-uid="ent0003" id="cluster_ch"><path d="M8.5,6 L27.7656,6 A3.75,3.75 0 0 1 30.2656,8.5 L37.2656,28.2969 L1733.5,28.2969 A2.5,2.5 0 0 1 1736,30.7969 L1736,873.5 A2.5,2.5 0 0 1 1733.5,876 L8.5,876 A2.5,2.5 0 0 1 6,873.5 L6,8.5 A2.5,2.5 0 0 1 8.5,6" fill="none" style="stroke:#000000;stroke-width:1.5;"/><line style="stroke:#000000;stroke-width:1.5;" x1="6" x2="37.2656" y1="28.2969" y2="28.2969"/><text fill="#000000" font-family="sans-serif" font-size="14" font-weight="bold" lengthAdjust="spacing" textLength="18.2656" x="10" y="20.9951">ch</text></g><!--cluster hslu--><g class="cluster" data-entity="hslu" data-source-line="2" data-uid="ent0004" id="cluster_hslu"><path d="M32.5,49 L66.5654,49 A3.75,3.75 0 0 1 69.0654,51.5 L76.0654,71.2969 L1709.5,71.2969 A2.5,2.5 0 0 1 1712,73.7969 L1712,849.5 A2.5,2.5 0 0 1 1709.5,852 L32.5,852 A2.5,2.5 0 0 1 30,849.5 L30,51.5 A2.5,2.5 0 0 1 32.5,49" fill="none" style="stroke:#000000;stroke-width:1.5;"/><line style="stroke:#000000;stroke-width:1.5;" x1="30" x2="76.0654" y1="71.2969" y2="71.2969"/><text fill="#000000" font-family="sans-serif" font-size="14" font-weight="bold" lengthAdjust="spacing" textLength="33.0654" x="34" y="63.9951">hslu</text></g><!--cluster cas--><g class="cluster" data-entity="cas" data-source-line="2" data-uid="ent0005" id="cluster_cas"><path d="M56.5,92 L83.5791,92 A3.75,3.75 0 0 1 86.0791,94.5 L93.0791,114.2969 L1685.5,114.2969 A2.5,2.5 0 0 1 1688,116.7969 L1688,825.5 A2.5,2.5 0 0 1 1685.5,828 L56.5,828 A2.5,2.5 0 0 1 54,825.5 L54,94.5 A2.5,2.5 0 0 1 56.5,92" fill="none" style="stroke:#000000;stroke-width:1.5;"/><line style="stroke:#000000;stroke-width:1.5;" x1="54" x2="93.0791" y1="114.2969" y2="114.2969"/><text fill="#000000" font-family="sans-serif" font-size="14" font-weight="bold" lengthAdjust="spacing" textLength="26.0791" x="58" y="106.9951">cas</text></g><!--cluster msed--><g class="cluster" data-entity="msed" data-source-line="2" data-uid="ent0006" id="cluster_msed"><path d="M80.5,135 L123.9375,135 A3.75,3.75 0 0 1 126.4375,137.5 L133.4375,157.2969 L1661.5,157.2969 A2.5,2.5 0 0 1 1664,159.7969 L1664,801.5 A2.5,2.5 0 0 1 1661.5,804 L80.5,804 A2.5,2.5 0 0 1 78,801.5 L78,137.5 A2.5,2.5 0 0 1 80.5,135" fill="none" style="stroke:#000000;stroke-width:1.5;"/><line style="stroke:#000000;stroke-width:1.5;" x1="78" x2="133.4375" y1="157.2969" y2="157.2969"/><text fill="#000000" font-family="sans-serif" font-size="14" font-weight="bold" lengthAdjust="spacing" textLength="42.4375" x="82" y="149.9951">msed</text></g><!--cluster blobfish--><g class="cluster" data-entity="blobfish" data-source-line="2" data-uid="ent0007" id="cluster_blobfish"><path d="M104.5,178 L169.1494,178 A3.75,3.75 0 0 1 171.6494,180.5 L178.6494,200.2969 L1637.5,200.2969 A2.5,2.5 0 0 1 1640,202.7969 L1640,777.5 A2.5,2.5 0 0 1 1637.5,780 L104.5,780 A2.5,2.5 0 0 1 102,777.5 L102,180.5 A2.5,2.5 0 0 1 104.5,178" fill="none" style="stroke:#000000;stroke-width:1.5;"/><line style="stroke:#000000;stroke-width:1.5;" x1="102" x2="178.6494" y1="200.2969" y2="200.2969"/><text fill="#000000" font-family="sans-serif" font-size="14" font-weight="bold" lengthAdjust="spacing" textLength="63.6494" x="106" y="192.9951">blobfish</text></g><!--cluster board--><g class="cluster" data-entity="board" data-source-line="2" data-uid="ent0008" id="cluster_board"><path d="M128.5,221 L175.5127,221 A3.75,3.75 0 0 1 178.0127,223.5 L185.0127,243.2969 L1613.5,243.2969 A2.5,2.5 0 0 1 1616,245.7969 L1616,753.5 A2.5,2.5 0 0 1 1613.5,756 L128.5,756 A2.5,2.5 0 0 1 126,753.5 L126,223.5 A2.5,2.5 0 0 1 128.5,221" fill="none" style="stroke:#000000;stroke-width:1.5;"/><line style="stroke:#000000;stroke-width:1.5;" x1="126" x2="185.0127" y1="243.2969" y2="243.2969"/><text fill="#000000" font-family="sans-serif" font-size="14" font-weight="bold" lengthAdjust="spacing" textLength="46.0127" x="130" y="235.9951">board</text></g><!--cluster ui--><g class="cluster" data-entity="ui" data-source-line="14" data-uid="ent0010" id="cluster_ui"><path d="M518.5,269.5 L534.2656,269.5 A3.75,3.75 0 0 1 536.7656,272 L543.7656,291.7969 L1589.5,291.7969 A2.5,2.5 0 0 1 1592,294.2969 L1592,729.5 A2.5,2.5 0 0 1 1589.5,732 L518.5,732 A2.5,2.5 0 0 1 516,729.5 L516,272 A2.5,2.5 0 0 1 518.5,269.5" fill="none" style="stroke:#000000;stroke-width:1.5;"/><line style="stroke:#000000;stroke-width:1.5;" x1="516" x2="543.7656" y1="291.7969" y2="291.7969"/><text fill="#000000" font-family="sans-serif" font-size="14" font-weight="bold" lengthAdjust="spacing" textLength="14.7656" x="520" y="284.4951">ui</text></g><!--class ChessBoard--><g class="entity" data-entity="ChessBoard" data-source-line="2" data-uid="ent0002" id="entity_ChessBoard"><rect fill="#F1F1F1" height="178.375" rx="2.5" ry="2.5" style="stroke:#181818;stroke-width:0.5;" width="357.8848" x="142" y="256"/><ellipse cx="275.0718" cy="272" fill="#ADD1B2" rx="11" ry="11" style="stroke:#181818;stroke-width:1;"/><path d="M278.0405,277.6406 Q277.4624,277.9375 276.8218,278.0781 Q276.1812,278.2344 275.478,278.2344 Q272.978,278.2344 271.6499,276.5938 Q270.3374,274.9375 270.3374,271.8125 Q270.3374,268.6875 271.6499,267.0313 Q272.978,265.375 275.478,265.375 Q276.1812,265.375 276.8218,265.5313 Q277.478,265.6875 278.0405,265.9844 L278.0405,268.7031 Q277.4155,268.125 276.8218,267.8594 Q276.228,267.5781 275.603,267.5781 Q274.2593,267.5781 273.5718,268.6563 Q272.8843,269.7188 272.8843,271.8125 Q272.8843,273.9063 273.5718,274.9844 Q274.2593,276.0469 275.603,276.0469 Q276.228,276.0469 276.8218,275.7813 Q277.4155,275.5 278.0405,274.9219 L278.0405,277.6406 Z " fill="#000000"/><text fill="#000000" font-family="sans-serif" font-size="14" lengthAdjust="spacing" textLength="83.2412" x="295.5718" y="276.8467">ChessBoard</text><line style="stroke:#181818;stroke-width:0.5;" x1="143" x2="498.8848" y1="288" y2="288"/><rect fill="none" height="6" style="stroke:#C82930;stroke-width:1;" width="6" x="150" y="298.6484"/><text fill="#000000" font-family="sans-serif" font-size="14" lengthAdjust="spacing" text-decoration="underline" textLength="201.7148" x="162" y="304.9951">STARTPOSITION_FEN : String</text><rect fill="none" height="6" style="stroke:#C82930;stroke-width:1;" width="6" x="150" y="314.9453"/><text fill="#000000" font-family="sans-serif" font-size="14" lengthAdjust="spacing" textLength="323.6816" x="162" y="321.292">board : com.github.bhlangonijr.chesslib.Board</text><line style="stroke:#181818;stroke-width:0.5;" x1="143" x2="498.8848" y1="328.5938" y2="328.5938"/><ellipse cx="153" cy="342.2422" fill="#84BE84" rx="3" ry="3" style="stroke:#038048;stroke-width:1;"/><text fill="#000000" font-family="sans-serif" font-size="14" lengthAdjust="spacing" textLength="274.0391" x="162" y="345.5889">doMove ( paramString1 : String ) : void</text><ellipse cx="153" cy="358.5391" fill="#84BE84" rx="3" ry="3" style="stroke:#038048;stroke-width:1;"/><text fill="#000000" font-family="sans-serif" font-size="14" lengthAdjust="spacing" textLength="173.5645" x="162" y="361.8857">getEvaluation () : double</text><ellipse cx="153" cy="374.8359" fill="#84BE84" rx="3" ry="3" style="stroke:#038048;stroke-width:1;"/><text fill="#000000" font-family="sans-serif" font-size="14" lengthAdjust="spacing" textLength="119.3008" x="162" y="378.1826">getFen () : String</text><ellipse cx="153" cy="391.1328" fill="#84BE84" rx="3" ry="3" style="stroke:#038048;stroke-width:1;"/><text fill="#000000" font-family="sans-serif" font-size="14" lengthAdjust="spacing" textLength="171.5" x="162" y="394.4795">isGameOver () : boolean</text><ellipse cx="153" cy="407.4297" fill="#84BE84" rx="3" ry="3" style="stroke:#038048;stroke-width:1;"/><text fill="#000000" font-family="sans-serif" font-size="14" lengthAdjust="spacing" textLength="331.8848" x="162" y="410.7764">isMoveLegal ( paramString1 : String ) : boolean</text><ellipse cx="153" cy="423.7266" fill="#84BE84" rx="3" ry="3" style="stroke:#038048;stroke-width:1;"/><text fill="#000000" font-family="sans-serif" font-size="14" lengthAdjust="spacing" textLength="192.5342" x="162" y="427.0732">legalMoves () : java.util.List</text></g><!--class BoardRenderer--><g class="entity" data-entity="BoardRenderer" data-source-line="14" data-uid="ent0009" id="entity_BoardRenderer"><rect fill="#F1F1F1" height="64.2969" rx="2.5" ry="2.5" style="stroke:#181818;stroke-width:0.5;" width="1042.832" x="532.5" y="511"/><ellipse cx="996.5508" cy="527" fill="#ADD1B2" rx="11" ry="11" style="stroke:#181818;stroke-width:1;"/><path d="M999.5195,532.6406 Q998.9414,532.9375 998.3008,533.0781 Q997.6602,533.2344 996.957,533.2344 Q994.457,533.2344 993.1289,531.5938 Q991.8164,529.9375 991.8164,526.8125 Q991.8164,523.6875 993.1289,522.0313 Q994.457,520.375 996.957,520.375 Q997.6602,520.375 998.3008,520.5313 Q998.957,520.6875 999.5195,520.9844 L999.5195,523.7031 Q998.8945,523.125 998.3008,522.8594 Q997.707,522.5781 997.082,522.5781 Q995.7383,522.5781 995.0508,523.6563 Q994.3633,524.7188 994.3633,526.8125 Q994.3633,528.9063 995.0508,529.9844 Q995.7383,531.0469 997.082,531.0469 Q997.707,531.0469 998.3008,530.7813 Q998.8945,530.5 999.5195,529.9219 L999.5195,532.6406 Z " fill="#000000"/><text fill="#000000" font-family="sans-serif" font-size="14" lengthAdjust="spacing" textLength="106.2305" x="1017.0508" y="531.8467">BoardRenderer</text><line style="stroke:#181818;stroke-width:0.5;" x1="533.5" x2="1574.332" y1="543" y2="543"/><line style="stroke:#181818;stroke-width:0.5;" x1="533.5" x2="1574.332" y1="551" y2="551"/><polygon fill="#4177AF" points="543.5,560.6484,539.5,566.6484,547.5,566.6484" style="stroke:#1963A0;stroke-width:1;"/><text fill="#000000" font-family="sans-serif" font-size="14" lengthAdjust="spacing" textLength="1016.832" x="552.5" y="567.9951">render ( paramUiBoard1 : ch.hslu.cas.msed.blobfish.board.ui.UiBoard , paramPlayerColor2 : ch.hslu.cas.msed.blobfish.base.PlayerColor ) : String</text></g><!--class ChessBoardRenderer--><g class="entity" data-entity="ChessBoardRenderer" data-source-line="19" data-uid="ent0011" id="entity_ChessBoardRenderer"><rect fill="#F1F1F1" height="80.5938" rx="2.5" ry="2.5" style="stroke:#181818;stroke-width:0.5;" width="768.0342" x="688" y="304.5"/><ellipse cx="993.7271" cy="320.5" fill="#ADD1B2" rx="11" ry="11" style="stroke:#181818;stroke-width:1;"/><path d="M996.6958,326.1406 Q996.1177,326.4375 995.4771,326.5781 Q994.8364,326.7344 994.1333,326.7344 Q991.6333,326.7344 990.3052,325.0938 Q988.9927,323.4375 988.9927,320.3125 Q988.9927,317.1875 990.3052,315.5313 Q991.6333,313.875 994.1333,313.875 Q994.8364,313.875 995.4771,314.0313 Q996.1333,314.1875 996.6958,314.4844 L996.6958,317.2031 Q996.0708,316.625 995.4771,316.3594 Q994.8833,316.0781 994.2583,316.0781 Q992.9146,316.0781 992.2271,317.1563 Q991.5396,318.2188 991.5396,320.3125 Q991.5396,322.4063 992.2271,323.4844 Q992.9146,324.5469 994.2583,324.5469 Q994.8833,324.5469 995.4771,324.2813 Q996.0708,324 996.6958,323.4219 L996.6958,326.1406 Z " fill="#000000"/><text fill="#000000" font-family="sans-serif" font-size="14" lengthAdjust="spacing" textLength="148.0801" x="1014.2271" y="325.3467">ChessBoardRenderer</text><line style="stroke:#181818;stroke-width:0.5;" x1="689" x2="1455.0342" y1="336.5" y2="336.5"/><rect fill="none" height="6" style="stroke:#C82930;stroke-width:1;" width="6" x="696" y="347.1484"/><text fill="#000000" font-family="sans-serif" font-size="14" lengthAdjust="spacing" textLength="417.1768" x="708" y="353.4951">parser : ch.hslu.cas.msed.blobfish.board.ui.FenBoardParser</text><line style="stroke:#181818;stroke-width:0.5;" x1="689" x2="1455.0342" y1="360.7969" y2="360.7969"/><ellipse cx="699" cy="374.4453" fill="#84BE84" rx="3" ry="3" style="stroke:#038048;stroke-width:1;"/><text fill="#000000" font-family="sans-serif" font-size="14" lengthAdjust="spacing" textLength="742.0342" x="708" y="377.792">render ( paramString1 : String , paramPlayerColor2 : ch.hslu.cas.msed.blobfish.base.PlayerColor ) : String</text></g><!--class FieldRenderer--><g class="entity" data-entity="FieldRenderer" data-source-line="25" data-uid="ent0012" id="entity_FieldRenderer"><rect fill="#F1F1F1" height="64.2969" rx="2.5" ry="2.5" style="stroke:#181818;stroke-width:0.5;" width="562.375" x="773" y="652"/><ellipse cx="1000.8521" cy="668" fill="#B4A7E5" rx="11" ry="11" style="stroke:#181818;stroke-width:1;"/><path d="M996.7739,663.7656 L996.7739,661.6094 L1004.1646,661.6094 L1004.1646,663.7656 L1001.6958,663.7656 L1001.6958,671.8438 L1004.1646,671.8438 L1004.1646,674 L996.7739,674 L996.7739,671.8438 L999.2427,671.8438 L999.2427,663.7656 L996.7739,663.7656 Z " fill="#000000"/><text fill="#000000" font-family="sans-serif" font-size="14" font-style="italic" lengthAdjust="spacing" textLength="98.1709" x="1021.3521" y="672.8467">FieldRenderer</text><line style="stroke:#181818;stroke-width:0.5;" x1="774" x2="1334.375" y1="684" y2="684"/><line style="stroke:#181818;stroke-width:0.5;" x1="774" x2="1334.375" y1="692" y2="692"/><ellipse cx="784" cy="705.6484" fill="#84BE84" rx="3" ry="3" style="stroke:#038048;stroke-width:1;"/><text fill="#000000" font-family="sans-serif" font-size="14" font-style="italic" lengthAdjust="spacing" textLength="536.375" x="793" y="708.9951">render ( paramUiField1 : ch.hslu.cas.msed.blobfish.board.ui.UiField ) : String</text></g><!--class SquareColor--><g class="entity" data-entity="SquareColor" data-source-line="30" data-uid="ent0013" id="entity_SquareColor"><rect fill="#F1F1F1" height="80.5938" rx="2.5" ry="2.5" style="stroke:#181818;stroke-width:0.5;" width="118.1465" x="535" y="304.5"/><ellipse cx="550" cy="320.5" fill="#EB937F" rx="11" ry="11" style="stroke:#181818;stroke-width:1;"/><path d="M554.1094,326.5 L546.3906,326.5 L546.3906,314.1094 L554.1094,314.1094 L554.1094,316.2656 L548.8438,316.2656 L548.8438,318.9375 L553.6094,318.9375 L553.6094,321.0938 L548.8438,321.0938 L548.8438,324.3438 L554.1094,324.3438 L554.1094,326.5 Z " fill="#000000"/><text fill="#000000" font-family="sans-serif" font-size="14" lengthAdjust="spacing" textLength="86.1465" x="564" y="325.3467">SquareColor</text><line style="stroke:#181818;stroke-width:0.5;" x1="536" x2="652.1465" y1="336.5" y2="336.5"/><ellipse cx="546" cy="350.1484" fill="none" rx="3" ry="3" style="stroke:#038048;stroke-width:1;"/><text fill="#000000" font-family="sans-serif" font-size="14" lengthAdjust="spacing" textLength="39.2656" x="555" y="353.4951">DARK</text><ellipse cx="546" cy="366.4453" fill="none" rx="3" ry="3" style="stroke:#038048;stroke-width:1;"/><text fill="#000000" font-family="sans-serif" font-size="14" lengthAdjust="spacing" textLength="41.8564" x="555" y="369.792">LIGHT</text><line style="stroke:#181818;stroke-width:0.5;" x1="536" x2="652.1465" y1="377.0938" y2="377.0938"/></g><!--reverse link BoardRenderer to FieldRenderer--><g class="link" data-entity-1="BoardRenderer" data-entity-2="FieldRenderer" data-source-line="38" data-uid="lnk14" id="link_BoardRenderer_FieldRenderer"><path codeLine="38" d="M1054,587.19 C1054,610.09 1054,629.04 1054,651.91" fill="none" id="BoardRenderer-backto-FieldRenderer" style="stroke:#181818;stroke-width:1;"/><polygon fill="#181818" points="1054,575.19,1050,581.19,1054,587.19,1058,581.19,1054,575.19" style="stroke:#181818;stroke-width:1;"/><text fill="#000000" font-family="sans-serif" font-size="13" lengthAdjust="spacing" textLength="43.1768" x="1055" y="618.0669">render</text></g><!--reverse link ChessBoardRenderer to BoardRenderer--><g class="link" data-entity-1="ChessBoardRenderer" data-entity-2="BoardRenderer" data-source-line="39" data-uid="lnk15" id="link_ChessBoardRenderer_BoardRenderer"><path codeLine="39" d="M1067.2628,397.6097 C1063.8728,434.5297 1059.98,476.85 1056.87,510.77" fill="none" id="ChessBoardRenderer-backto-BoardRenderer" style="stroke:#181818;stroke-width:1;"/><polygon fill="#181818" points="1068.36,385.66,1063.8281,391.2691,1067.2628,397.6097,1071.7946,392.0006,1068.36,385.66" style="stroke:#181818;stroke-width:1;"/><text fill="#000000" font-family="sans-serif" font-size="13" lengthAdjust="spacing" textLength="97.9761" x="1061" y="477.0669">boardRenderer</text></g><!--SRC=[hLFBJiCm43oJh_2HLot1aHkK0XMbhVeuexMpJOoS66md4ehAjsCxq2PGLIdY5jipkpCx6ox16C9JcXfPK0w6PWPZogHYAs5IoXJecFPJDER6Vv8gEgfM0cMy9fMnO0LVazvySJrRJ2VpuM8u6J_V3SRaYioj5dcoHVT2AVV0LKOJOTE2KPPAo1ELYnTDkUyX1QEXZ-DbQ5FbY6UnUb8bacFo2Xgokkx5fWCvSP-b4YrAWdPGWYoSFfMJOm-9LS4a_W3TuTVhHktcLPXxo71IeguHJ2c9aBSXNjW84v1xrUsWIa_oR5DNVu4IQ665f2DXRBIEeeXtYgOGzS1ccCUedTYgqUP3XzjlSKiHe5vTXx9VQ79UawSItb7tbLJwSdy1C4WRQDAOxq6-jblNClUzJqwLSLUTlBYSGw5fu3I3Q4_eLtp_RLxa5lKAE7PIxPtk39PKm8pLmEql2qiHQ9r33kYVCZ4liYxq-Li16ckdZMpERgzdZutZQ7Z_i0Y5NVo7BlHfhqSEdzOLgSSI_MtHkZPji_oltZX7qIS0]--></g></svg>