<svg xmlns="http://www.w3.org/2000/svg" xmlns:xlink="http://www.w3.org/1999/xlink" contentStyleType="text/css" data-diagram-type="CLASS" height="1033px" preserveAspectRatio="none" style="width:2679px;height:1033px;background:#FFFFFF;" version="1.1" viewBox="0 0 2679 1033" width="2679px" zoomAndPan="magnify"><defs/><g><!--cluster ch--><g class="cluster" data-entity="ch" data-source-line="2" data-uid="ent0003" id="cluster_ch"><path d="M8.5,6 L27.7656,6 A3.75,3.75 0 0 1 30.2656,8.5 L37.2656,28.2969 L2669.5,28.2969 A2.5,2.5 0 0 1 2672,30.7969 L2672,1024 A2.5,2.5 0 0 1 2669.5,1026.5 L8.5,1026.5 A2.5,2.5 0 0 1 6,1024 L6,8.5 A2.5,2.5 0 0 1 8.5,6" fill="none" style="stroke:#000000;stroke-width:1.5;"/><line style="stroke:#000000;stroke-width:1.5;" x1="6" x2="37.2656" y1="28.2969" y2="28.2969"/><text fill="#000000" font-family="sans-serif" font-size="14" font-weight="bold" lengthAdjust="spacing" textLength="18.2656" x="10" y="20.9951">ch</text></g><!--cluster hslu--><g class="cluster" data-entity="hslu" data-source-line="2" data-uid="ent0004" id="cluster_hslu"><path d="M32.5,49 L66.5654,49 A3.75,3.75 0 0 1 69.0654,51.5 L76.0654,71.2969 L2645.5,71.2969 A2.5,2.5 0 0 1 2648,73.7969 L2648,1000 A2.5,2.5 0 0 1 2645.5,1002.5 L32.5,1002.5 A2.5,2.5 0 0 1 30,1000 L30,51.5 A2.5,2.5 0 0 1 32.5,49" fill="none" style="stroke:#000000;stroke-width:1.5;"/><line style="stroke:#000000;stroke-width:1.5;" x1="30" x2="76.0654" y1="71.2969" y2="71.2969"/><text fill="#000000" font-family="sans-serif" font-size="14" font-weight="bold" lengthAdjust="spacing" textLength="33.0654" x="34" y="63.9951">hslu</text></g><!--cluster cas--><g class="cluster" data-entity="cas" data-source-line="2" data-uid="ent0005" id="cluster_cas"><path d="M56.5,92 L83.5791,92 A3.75,3.75 0 0 1 86.0791,94.5 L93.0791,114.2969 L2621.5,114.2969 A2.5,2.5 0 0 1 2624,116.7969 L2624,976 A2.5,2.5 0 0 1 2621.5,978.5 L56.5,978.5 A2.5,2.5 0 0 1 54,976 L54,94.5 A2.5,2.5 0 0 1 56.5,92" fill="none" style="stroke:#000000;stroke-width:1.5;"/><line style="stroke:#000000;stroke-width:1.5;" x1="54" x2="93.0791" y1="114.2969" y2="114.2969"/><text fill="#000000" font-family="sans-serif" font-size="14" font-weight="bold" lengthAdjust="spacing" textLength="26.0791" x="58" y="106.9951">cas</text></g><!--cluster msed--><g class="cluster" data-entity="msed" data-source-line="2" data-uid="ent0006" id="cluster_msed"><path d="M80.5,135 L123.9375,135 A3.75,3.75 0 0 1 126.4375,137.5 L133.4375,157.2969 L2597.5,157.2969 A2.5,2.5 0 0 1 2600,159.7969 L2600,952 A2.5,2.5 0 0 1 2597.5,954.5 L80.5,954.5 A2.5,2.5 0 0 1 78,952 L78,137.5 A2.5,2.5 0 0 1 80.5,135" fill="none" style="stroke:#000000;stroke-width:1.5;"/><line style="stroke:#000000;stroke-width:1.5;" x1="78" x2="133.4375" y1="157.2969" y2="157.2969"/><text fill="#000000" font-family="sans-serif" font-size="14" font-weight="bold" lengthAdjust="spacing" textLength="42.4375" x="82" y="149.9951">msed</text></g><!--cluster blobfish--><g class="cluster" data-entity="blobfish" data-source-line="2" data-uid="ent0007" id="cluster_blobfish"><path d="M104.5,178 L169.1494,178 A3.75,3.75 0 0 1 171.6494,180.5 L178.6494,200.2969 L2573.5,200.2969 A2.5,2.5 0 0 1 2576,202.7969 L2576,928 A2.5,2.5 0 0 1 2573.5,930.5 L104.5,930.5 A2.5,2.5 0 0 1 102,928 L102,180.5 A2.5,2.5 0 0 1 104.5,178" fill="none" style="stroke:#000000;stroke-width:1.5;"/><line style="stroke:#000000;stroke-width:1.5;" x1="102" x2="178.6494" y1="200.2969" y2="200.2969"/><text fill="#000000" font-family="sans-serif" font-size="14" font-weight="bold" lengthAdjust="spacing" textLength="63.6494" x="106" y="192.9951">blobfish</text></g><!--cluster board--><g class="cluster" data-entity="board" data-source-line="2" data-uid="ent0008" id="cluster_board"><path d="M128.5,221 L175.5127,221 A3.75,3.75 0 0 1 178.0127,223.5 L185.0127,243.2969 L2549.5,243.2969 A2.5,2.5 0 0 1 2552,245.7969 L2552,904 A2.5,2.5 0 0 1 2549.5,906.5 L128.5,906.5 A2.5,2.5 0 0 1 126,904 L126,223.5 A2.5,2.5 0 0 1 128.5,221" fill="none" style="stroke:#000000;stroke-width:1.5;"/><line style="stroke:#000000;stroke-width:1.5;" x1="126" x2="185.0127" y1="243.2969" y2="243.2969"/><text fill="#000000" font-family="sans-serif" font-size="14" font-weight="bold" lengthAdjust="spacing" textLength="46.0127" x="130" y="235.9951">board</text></g><!--cluster ui--><g class="cluster" data-entity="ui" data-source-line="13" data-uid="ent0010" id="cluster_ui"><path d="M744.5,264 L760.2656,264 A3.75,3.75 0 0 1 762.7656,266.5 L769.7656,286.2969 L2525.5,286.2969 A2.5,2.5 0 0 1 2528,288.7969 L2528,880 A2.5,2.5 0 0 1 2525.5,882.5 L744.5,882.5 A2.5,2.5 0 0 1 742,880 L742,266.5 A2.5,2.5 0 0 1 744.5,264" fill="none" style="stroke:#000000;stroke-width:1.5;"/><line style="stroke:#000000;stroke-width:1.5;" x1="742" x2="769.7656" y1="286.2969" y2="286.2969"/><text fill="#000000" font-family="sans-serif" font-size="14" font-weight="bold" lengthAdjust="spacing" textLength="14.7656" x="746" y="278.9951">ui</text></g><!--class ChessBoard--><g class="entity" data-entity="ChessBoard" data-source-line="2" data-uid="ent0002" id="entity_ChessBoard"><rect fill="#F1F1F1" height="162.0781" rx="2.5" ry="2.5" style="stroke:#181818;stroke-width:0.5;" width="583.7441" x="142" y="258.5"/><ellipse cx="388.0015" cy="274.5" fill="#ADD1B2" rx="11" ry="11" style="stroke:#181818;stroke-width:1;"/><path d="M390.9702,280.1406 Q390.3921,280.4375 389.7515,280.5781 Q389.1108,280.7344 388.4077,280.7344 Q385.9077,280.7344 384.5796,279.0938 Q383.2671,277.4375 383.2671,274.3125 Q383.2671,271.1875 384.5796,269.5313 Q385.9077,267.875 388.4077,267.875 Q389.1108,267.875 389.7515,268.0313 Q390.4077,268.1875 390.9702,268.4844 L390.9702,271.2031 Q390.3452,270.625 389.7515,270.3594 Q389.1577,270.0781 388.5327,270.0781 Q387.189,270.0781 386.5015,271.1563 Q385.814,272.2188 385.814,274.3125 Q385.814,276.4063 386.5015,277.4844 Q387.189,278.5469 388.5327,278.5469 Q389.1577,278.5469 389.7515,278.2813 Q390.3452,278 390.9702,277.4219 L390.9702,280.1406 Z " fill="#000000"/><text fill="#000000" font-family="sans-serif" font-size="14" lengthAdjust="spacing" textLength="83.2412" x="408.5015" y="279.3467">ChessBoard</text><line style="stroke:#181818;stroke-width:0.5;" x1="143" x2="724.7441" y1="290.5" y2="290.5"/><rect fill="none" height="6" style="stroke:#C82930;stroke-width:1;" width="6" x="150" y="301.1484"/><text fill="#000000" font-family="sans-serif" font-size="14" lengthAdjust="spacing" text-decoration="underline" textLength="201.7148" x="162" y="307.4951">STARTPOSITION_FEN : String</text><rect fill="none" height="6" style="stroke:#C82930;stroke-width:1;" width="6" x="150" y="317.4453"/><text fill="#000000" font-family="sans-serif" font-size="14" lengthAdjust="spacing" textLength="323.6816" x="162" y="323.792">board : com.github.bhlangonijr.chesslib.Board</text><line style="stroke:#181818;stroke-width:0.5;" x1="143" x2="724.7441" y1="331.0938" y2="331.0938"/><ellipse cx="153" cy="344.7422" fill="#84BE84" rx="3" ry="3" style="stroke:#038048;stroke-width:1;"/><text fill="#000000" font-family="sans-serif" font-size="14" lengthAdjust="spacing" textLength="557.7441" x="162" y="348.0889">doMove ( paramString1 : String ) : ch.hslu.cas.msed.blobfish.board.ChessBoard</text><ellipse cx="153" cy="361.0391" fill="#84BE84" rx="3" ry="3" style="stroke:#038048;stroke-width:1;"/><text fill="#000000" font-family="sans-serif" font-size="14" lengthAdjust="spacing" textLength="119.3008" x="162" y="364.3857">getFen () : String</text><ellipse cx="153" cy="377.3359" fill="#84BE84" rx="3" ry="3" style="stroke:#038048;stroke-width:1;"/><text fill="#000000" font-family="sans-serif" font-size="14" lengthAdjust="spacing" textLength="171.5" x="162" y="380.6826">isGameOver () : boolean</text><ellipse cx="153" cy="393.6328" fill="#84BE84" rx="3" ry="3" style="stroke:#038048;stroke-width:1;"/><text fill="#000000" font-family="sans-serif" font-size="14" lengthAdjust="spacing" textLength="331.8848" x="162" y="396.9795">isMoveLegal ( paramString1 : String ) : boolean</text><ellipse cx="153" cy="409.9297" fill="#84BE84" rx="3" ry="3" style="stroke:#038048;stroke-width:1;"/><text fill="#000000" font-family="sans-serif" font-size="14" lengthAdjust="spacing" textLength="192.5342" x="162" y="413.2764">legalMoves () : java.util.List</text></g><!--class AlphanumericBorderFieldRenderer--><g class="entity" data-entity="AlphanumericBorderFieldRenderer" data-source-line="13" data-uid="ent0009" id="entity_AlphanumericBorderFieldRenderer"><rect fill="#F1F1F1" height="210.9688" rx="2.5" ry="2.5" style="stroke:#181818;stroke-width:0.5;" width="674.6826" x="1836.5" y="497.5"/><ellipse cx="2048.3423" cy="513.5" fill="#ADD1B2" rx="11" ry="11" style="stroke:#181818;stroke-width:1;"/><path d="M2051.311,519.1406 Q2050.7329,519.4375 2050.0923,519.5781 Q2049.4517,519.7344 2048.7485,519.7344 Q2046.2485,519.7344 2044.9204,518.0938 Q2043.6079,516.4375 2043.6079,513.3125 Q2043.6079,510.1875 2044.9204,508.5313 Q2046.2485,506.875 2048.7485,506.875 Q2049.4517,506.875 2050.0923,507.0313 Q2050.7485,507.1875 2051.311,507.4844 L2051.311,510.2031 Q2050.686,509.625 2050.0923,509.3594 Q2049.4985,509.0781 2048.8735,509.0781 Q2047.5298,509.0781 2046.8423,510.1563 Q2046.1548,511.2188 2046.1548,513.3125 Q2046.1548,515.4063 2046.8423,516.4844 Q2047.5298,517.5469 2048.8735,517.5469 Q2049.4985,517.5469 2050.0923,517.2813 Q2050.686,517 2051.311,516.4219 L2051.311,519.1406 Z " fill="#000000"/><text fill="#000000" font-family="sans-serif" font-size="14" lengthAdjust="spacing" textLength="242.498" x="2068.8423" y="518.3467">AlphanumericBorderFieldRenderer</text><line style="stroke:#181818;stroke-width:0.5;" x1="1837.5" x2="2510.1826" y1="529.5" y2="529.5"/><ellipse cx="1847.5" cy="543.1484" fill="none" rx="3" ry="3" style="stroke:#038048;stroke-width:1;"/><text fill="#000000" font-family="sans-serif" font-size="14" lengthAdjust="spacing" text-decoration="underline" textLength="132.1934" x="1856.5" y="546.4951">BG_COLOR : String</text><ellipse cx="1847.5" cy="559.4453" fill="none" rx="3" ry="3" style="stroke:#038048;stroke-width:1;"/><text fill="#000000" font-family="sans-serif" font-size="14" lengthAdjust="spacing" text-decoration="underline" textLength="130.6416" x="1856.5" y="562.792">FG_COLOR : String</text><ellipse cx="1847.5" cy="575.7422" fill="none" rx="3" ry="3" style="stroke:#038048;stroke-width:1;"/><text fill="#000000" font-family="sans-serif" font-size="14" lengthAdjust="spacing" text-decoration="underline" textLength="240.748" x="1856.5" y="579.0889">PLACEHOLDER_CHARACTER : char</text><ellipse cx="1847.5" cy="592.0391" fill="none" rx="3" ry="3" style="stroke:#038048;stroke-width:1;"/><text fill="#000000" font-family="sans-serif" font-size="14" lengthAdjust="spacing" text-decoration="underline" textLength="214.8809" x="1856.5" y="595.3857">PLACEHOLDER_COLOR : String</text><ellipse cx="1847.5" cy="608.3359" fill="none" rx="3" ry="3" style="stroke:#038048;stroke-width:1;"/><text fill="#000000" font-family="sans-serif" font-size="14" lengthAdjust="spacing" text-decoration="underline" textLength="100.2559" x="1856.5" y="611.6826">RESET : String</text><ellipse cx="1847.5" cy="624.6328" fill="none" rx="3" ry="3" style="stroke:#038048;stroke-width:1;"/><text fill="#000000" font-family="sans-serif" font-size="14" lengthAdjust="spacing" text-decoration="underline" textLength="202.501" x="1856.5" y="627.9795">ROW_STRING_WHITE : String</text><line style="stroke:#181818;stroke-width:0.5;" x1="1837.5" x2="2510.1826" y1="635.2813" y2="635.2813"/><ellipse cx="1847.5" cy="648.9297" fill="#84BE84" rx="3" ry="3" style="stroke:#038048;stroke-width:1;"/><text fill="#000000" font-family="sans-serif" font-size="14" lengthAdjust="spacing" textLength="317.584" x="1856.5" y="652.2764">renderColumnField ( paramint1 : int ) : String</text><rect fill="#F24D5C" height="6" style="stroke:#C82930;stroke-width:1;" width="6" x="1844.5" y="662.2266"/><text fill="#000000" font-family="sans-serif" font-size="14" lengthAdjust="spacing" text-decoration="underline" textLength="195.7471" x="1856.5" y="668.5732">renderEmptyField () : String</text><ellipse cx="1847.5" cy="681.5234" fill="#84BE84" rx="3" ry="3" style="stroke:#038048;stroke-width:1;"/><text fill="#000000" font-family="sans-serif" font-size="14" lengthAdjust="spacing" textLength="606.9014" x="1856.5" y="684.8701">renderRow ( paramPlayerColor1 : ch.hslu.cas.msed.blobfish.base.PlayerColor ) : String</text><rect fill="#F24D5C" height="6" style="stroke:#C82930;stroke-width:1;" width="6" x="1844.5" y="694.8203"/><text fill="#000000" font-family="sans-serif" font-size="14" lengthAdjust="spacing" text-decoration="underline" textLength="648.6826" x="1856.5" y="701.167">renderRowString ( paramPlayerColor1 : ch.hslu.cas.msed.blobfish.base.PlayerColor ) : String</text></g><!--class BoardRenderer--><g class="entity" data-entity="BoardRenderer" data-source-line="27" data-uid="ent0011" id="entity_BoardRenderer"><rect fill="#F1F1F1" height="64.2969" rx="2.5" ry="2.5" style="stroke:#181818;stroke-width:0.5;" width="1042.832" x="758.5" y="571"/><ellipse cx="1222.5508" cy="587" fill="#ADD1B2" rx="11" ry="11" style="stroke:#181818;stroke-width:1;"/><path d="M1225.5195,592.6406 Q1224.9414,592.9375 1224.3008,593.0781 Q1223.6602,593.2344 1222.957,593.2344 Q1220.457,593.2344 1219.1289,591.5938 Q1217.8164,589.9375 1217.8164,586.8125 Q1217.8164,583.6875 1219.1289,582.0313 Q1220.457,580.375 1222.957,580.375 Q1223.6602,580.375 1224.3008,580.5313 Q1224.957,580.6875 1225.5195,580.9844 L1225.5195,583.7031 Q1224.8945,583.125 1224.3008,582.8594 Q1223.707,582.5781 1223.082,582.5781 Q1221.7383,582.5781 1221.0508,583.6563 Q1220.3633,584.7188 1220.3633,586.8125 Q1220.3633,588.9063 1221.0508,589.9844 Q1221.7383,591.0469 1223.082,591.0469 Q1223.707,591.0469 1224.3008,590.7813 Q1224.8945,590.5 1225.5195,589.9219 L1225.5195,592.6406 Z " fill="#000000"/><text fill="#000000" font-family="sans-serif" font-size="14" lengthAdjust="spacing" textLength="106.2305" x="1243.0508" y="591.8467">BoardRenderer</text><line style="stroke:#181818;stroke-width:0.5;" x1="759.5" x2="1800.332" y1="603" y2="603"/><line style="stroke:#181818;stroke-width:0.5;" x1="759.5" x2="1800.332" y1="611" y2="611"/><polygon fill="#4177AF" points="769.5,620.6484,765.5,626.6484,773.5,626.6484" style="stroke:#1963A0;stroke-width:1;"/><text fill="#000000" font-family="sans-serif" font-size="14" lengthAdjust="spacing" textLength="1016.832" x="778.5" y="627.9951">render ( paramUiBoard1 : ch.hslu.cas.msed.blobfish.board.ui.UiBoard , paramPlayerColor2 : ch.hslu.cas.msed.blobfish.base.PlayerColor ) : String</text></g><!--class BorderFieldRenderer--><g class="entity" data-entity="BorderFieldRenderer" data-source-line="32" data-uid="ent0012" id="entity_BorderFieldRenderer"><rect fill="#F1F1F1" height="80.5938" rx="2.5" ry="2.5" style="stroke:#181818;stroke-width:0.5;" width="632.9014" x="1726.5" y="785.5"/><ellipse cx="1966.0244" cy="801.5" fill="#B4A7E5" rx="11" ry="11" style="stroke:#181818;stroke-width:1;"/><path d="M1961.9463,797.2656 L1961.9463,795.1094 L1969.3369,795.1094 L1969.3369,797.2656 L1966.8682,797.2656 L1966.8682,805.3438 L1969.3369,805.3438 L1969.3369,807.5 L1961.9463,807.5 L1961.9463,805.3438 L1964.415,805.3438 L1964.415,797.2656 L1961.9463,797.2656 Z " fill="#000000"/><text fill="#000000" font-family="sans-serif" font-size="14" font-style="italic" lengthAdjust="spacing" textLength="145.3525" x="1986.5244" y="806.3467">BorderFieldRenderer</text><line style="stroke:#181818;stroke-width:0.5;" x1="1727.5" x2="2358.4014" y1="817.5" y2="817.5"/><line style="stroke:#181818;stroke-width:0.5;" x1="1727.5" x2="2358.4014" y1="825.5" y2="825.5"/><ellipse cx="1737.5" cy="839.1484" fill="#84BE84" rx="3" ry="3" style="stroke:#038048;stroke-width:1;"/><text fill="#000000" font-family="sans-serif" font-size="14" font-style="italic" lengthAdjust="spacing" textLength="317.584" x="1746.5" y="842.4951">renderColumnField ( paramint1 : int ) : String</text><ellipse cx="1737.5" cy="855.4453" fill="#84BE84" rx="3" ry="3" style="stroke:#038048;stroke-width:1;"/><text fill="#000000" font-family="sans-serif" font-size="14" font-style="italic" lengthAdjust="spacing" textLength="606.9014" x="1746.5" y="858.792">renderRow ( paramPlayerColor1 : ch.hslu.cas.msed.blobfish.base.PlayerColor ) : String</text></g><!--class ChessBoardRenderer--><g class="entity" data-entity="ChessBoardRenderer" data-source-line="38" data-uid="ent0013" id="entity_ChessBoardRenderer"><rect fill="#F1F1F1" height="80.5938" rx="2.5" ry="2.5" style="stroke:#181818;stroke-width:0.5;" width="768.0342" x="914" y="299"/><ellipse cx="1219.7271" cy="315" fill="#ADD1B2" rx="11" ry="11" style="stroke:#181818;stroke-width:1;"/><path d="M1222.6958,320.6406 Q1222.1177,320.9375 1221.4771,321.0781 Q1220.8364,321.2344 1220.1333,321.2344 Q1217.6333,321.2344 1216.3052,319.5938 Q1214.9927,317.9375 1214.9927,314.8125 Q1214.9927,311.6875 1216.3052,310.0313 Q1217.6333,308.375 1220.1333,308.375 Q1220.8364,308.375 1221.4771,308.5313 Q1222.1333,308.6875 1222.6958,308.9844 L1222.6958,311.7031 Q1222.0708,311.125 1221.4771,310.8594 Q1220.8833,310.5781 1220.2583,310.5781 Q1218.9146,310.5781 1218.2271,311.6563 Q1217.5396,312.7188 1217.5396,314.8125 Q1217.5396,316.9063 1218.2271,317.9844 Q1218.9146,319.0469 1220.2583,319.0469 Q1220.8833,319.0469 1221.4771,318.7813 Q1222.0708,318.5 1222.6958,317.9219 L1222.6958,320.6406 Z " fill="#000000"/><text fill="#000000" font-family="sans-serif" font-size="14" lengthAdjust="spacing" textLength="148.0801" x="1240.2271" y="319.8467">ChessBoardRenderer</text><line style="stroke:#181818;stroke-width:0.5;" x1="915" x2="1681.0342" y1="331" y2="331"/><rect fill="none" height="6" style="stroke:#C82930;stroke-width:1;" width="6" x="922" y="341.6484"/><text fill="#000000" font-family="sans-serif" font-size="14" lengthAdjust="spacing" textLength="431.3135" x="934" y="347.9951">parser : ch.hslu.cas.msed.blobfish.board.ui.FenUiBoardParser</text><line style="stroke:#181818;stroke-width:0.5;" x1="915" x2="1681.0342" y1="355.2969" y2="355.2969"/><ellipse cx="925" cy="368.9453" fill="#84BE84" rx="3" ry="3" style="stroke:#038048;stroke-width:1;"/><text fill="#000000" font-family="sans-serif" font-size="14" lengthAdjust="spacing" textLength="742.0342" x="934" y="372.292">render ( paramString1 : String , paramPlayerColor2 : ch.hslu.cas.msed.blobfish.base.PlayerColor ) : String</text></g><!--class FieldRenderer--><g class="entity" data-entity="FieldRenderer" data-source-line="44" data-uid="ent0014" id="entity_FieldRenderer"><rect fill="#F1F1F1" height="64.2969" rx="2.5" ry="2.5" style="stroke:#181818;stroke-width:0.5;" width="562.375" x="999" y="794"/><ellipse cx="1226.8521" cy="810" fill="#B4A7E5" rx="11" ry="11" style="stroke:#181818;stroke-width:1;"/><path d="M1222.7739,805.7656 L1222.7739,803.6094 L1230.1646,803.6094 L1230.1646,805.7656 L1227.6958,805.7656 L1227.6958,813.8438 L1230.1646,813.8438 L1230.1646,816 L1222.7739,816 L1222.7739,813.8438 L1225.2427,813.8438 L1225.2427,805.7656 L1222.7739,805.7656 Z " fill="#000000"/><text fill="#000000" font-family="sans-serif" font-size="14" font-style="italic" lengthAdjust="spacing" textLength="98.1709" x="1247.3521" y="814.8467">FieldRenderer</text><line style="stroke:#181818;stroke-width:0.5;" x1="1000" x2="1560.375" y1="826" y2="826"/><line style="stroke:#181818;stroke-width:0.5;" x1="1000" x2="1560.375" y1="834" y2="834"/><ellipse cx="1010" cy="847.6484" fill="#84BE84" rx="3" ry="3" style="stroke:#038048;stroke-width:1;"/><text fill="#000000" font-family="sans-serif" font-size="14" font-style="italic" lengthAdjust="spacing" textLength="536.375" x="1019" y="850.9951">render ( paramUiField1 : ch.hslu.cas.msed.blobfish.board.ui.UiField ) : String</text></g><!--class SquareColor--><g class="entity" data-entity="SquareColor" data-source-line="49" data-uid="ent0015" id="entity_SquareColor"><rect fill="#F1F1F1" height="80.5938" rx="2.5" ry="2.5" style="stroke:#181818;stroke-width:0.5;" width="118.1465" x="761" y="299"/><ellipse cx="776" cy="315" fill="#EB937F" rx="11" ry="11" style="stroke:#181818;stroke-width:1;"/><path d="M780.1094,321 L772.3906,321 L772.3906,308.6094 L780.1094,308.6094 L780.1094,310.7656 L774.8438,310.7656 L774.8438,313.4375 L779.6094,313.4375 L779.6094,315.5938 L774.8438,315.5938 L774.8438,318.8438 L780.1094,318.8438 L780.1094,321 Z " fill="#000000"/><text fill="#000000" font-family="sans-serif" font-size="14" lengthAdjust="spacing" textLength="86.1465" x="790" y="319.8467">SquareColor</text><line style="stroke:#181818;stroke-width:0.5;" x1="762" x2="878.1465" y1="331" y2="331"/><ellipse cx="772" cy="344.6484" fill="none" rx="3" ry="3" style="stroke:#038048;stroke-width:1;"/><text fill="#000000" font-family="sans-serif" font-size="14" lengthAdjust="spacing" textLength="39.2656" x="781" y="347.9951">DARK</text><ellipse cx="772" cy="360.9453" fill="none" rx="3" ry="3" style="stroke:#038048;stroke-width:1;"/><text fill="#000000" font-family="sans-serif" font-size="14" lengthAdjust="spacing" textLength="41.8564" x="781" y="364.292">LIGHT</text><line style="stroke:#181818;stroke-width:0.5;" x1="762" x2="878.1465" y1="371.5938" y2="371.5938"/></g><!--link AlphanumericBorderFieldRenderer to BorderFieldRenderer--><g class="link" data-entity-1="AlphanumericBorderFieldRenderer" data-entity-2="BorderFieldRenderer" data-source-line="57" data-uid="lnk16" id="link_AlphanumericBorderFieldRenderer_BorderFieldRenderer"><path codeLine="57" d="M2111.95,708.68 C2095.75,736.01 2088.4506,748.3372 2075.6606,769.9072" fill="none" id="AlphanumericBorderFieldRenderer-to-BorderFieldRenderer" style="stroke:#181818;stroke-width:1;stroke-dasharray:7,7;"/><polygon fill="none" points="2066.48,785.39,2080.8215,772.9674,2070.4996,766.847,2066.48,785.39" style="stroke:#181818;stroke-width:1;"/></g><!--reverse link BoardRenderer to BorderFieldRenderer--><g class="link" data-entity-1="BoardRenderer" data-entity-2="BorderFieldRenderer" data-source-line="58" data-uid="lnk17" id="link_BoardRenderer_BorderFieldRenderer"><path codeLine="58" d="M1398.8262,638.4185 C1534.7862,677.7985 1757.76,742.38 1906.38,785.43" fill="none" id="BoardRenderer-backto-BorderFieldRenderer" style="stroke:#181818;stroke-width:1;"/><polygon fill="#181818" points="1387.3,635.08,1391.9503,640.5913,1398.8262,638.4185,1394.176,632.9072,1387.3,635.08" style="stroke:#181818;stroke-width:1;"/><text fill="#000000" font-family="sans-serif" font-size="13" lengthAdjust="spacing" textLength="134.3037" x="1797" y="751.5669">borderFieldRenderer</text></g><!--reverse link BoardRenderer to FieldRenderer--><g class="link" data-entity-1="BoardRenderer" data-entity-2="FieldRenderer" data-source-line="59" data-uid="lnk18" id="link_BoardRenderer_FieldRenderer"><path codeLine="59" d="M1280,647.2 C1280,689.31 1280,751.93 1280,793.96" fill="none" id="BoardRenderer-backto-FieldRenderer" style="stroke:#181818;stroke-width:1;"/><polygon fill="#181818" points="1280,635.2,1276,641.2,1280,647.2,1284,641.2,1280,635.2" style="stroke:#181818;stroke-width:1;"/><text fill="#000000" font-family="sans-serif" font-size="13" lengthAdjust="spacing" textLength="88.2578" x="1281" y="751.5669">fieldRenderer</text></g><!--reverse link ChessBoardRenderer to BoardRenderer--><g class="link" data-entity-1="ChessBoardRenderer" data-entity-2="BoardRenderer" data-source-line="60" data-uid="lnk19" id="link_ChessBoardRenderer_BoardRenderer"><path codeLine="60" d="M1294.4458,392.1917 C1290.8458,444.4817 1285.41,523.37 1282.14,570.94" fill="none" id="ChessBoardRenderer-backto-BoardRenderer" style="stroke:#181818;stroke-width:1;"/><polygon fill="#181818" points="1295.27,380.22,1290.8673,385.9311,1294.4458,392.1917,1298.8484,386.4806,1295.27,380.22" style="stroke:#181818;stroke-width:1;"/><text fill="#000000" font-family="sans-serif" font-size="13" lengthAdjust="spacing" textLength="97.9761" x="1291" y="463.5669">boardRenderer</text></g><!--SRC=[nLLDZvim43sNN-7ZfcaifSSUAX6MVAWqHC1gZv4nJl3AuDGsgLPf-jjhJBAm6vebcrLxuclclHc_DmDcI4g0KvXALa2C9CmaIM3CUBoYCeKnHoA1Jaga79MtO6TzsAqeOSaUxAH2Yk8z68IH7KGBFvn5Ct- -7Bjpy0M4Ij1yNKSF39J-W7a6rrIbHGpZbA5ypNFw820kEHYDeU7HUHbHATU9_OH_vri2Ri062PHLkCCd1j0hCJitq0HU4pKcERZfDSjz-ahb16N4tn9HHSISCuBovo5bPHvP8tQsl9PKLYQLsR92Vq1R10j56VIeLDRUiYpSIPk2GfjjKfGN6H4KZxX8Y1YNPnwGND_gyjiqwuycIyVt_A15gZfet2LeuTcEE_MzMpTOEbCxi9t83OmeIBmQ_ofwu8PkT3x2lr-6KJ2RJvRtqrdajgefp64ud1LPRaxdA1ZDLQcMle1M7pHiNc6usKOz7Y1wPxW2_lF8iM3eqP1pCJplLYG9R4HtB4bJ7TpsdeGNUT0CrpF77QlzNTLuBEsEcj1XXwdLi8TeyEcahyzNzQNb9cA5CEdMM_jCrNgWM2g1iBhEQ2SexssXYnIjTsRR8XdeggH-rKb5lMKFGYvCrkcm_7Lz_bVXBvAyDhX9wspmoYGloYHwdNT93tyKI92gquOw_Lix-DPuz6QJQMI0jG6k_w50-EihUEFaM1Slau-3mLl9pB_t7vRmadnrAMtBq7LllvbLDjvujgm_]--></g></svg>