<svg xmlns="http://www.w3.org/2000/svg" xmlns:xlink="http://www.w3.org/1999/xlink" contentStyleType="text/css" data-diagram-type="CLASS" height="883px" preserveAspectRatio="none" style="width:1969px;height:883px;background:#FFFFFF;" version="1.1" viewBox="0 0 1969 883" width="1969px" zoomAndPan="magnify"><defs/><g><!--cluster ch--><g class="cluster" data-entity="ch" data-source-line="2" data-uid="ent0003" id="cluster_ch"><path d="M8.5,6 L27.7656,6 A3.75,3.75 0 0 1 30.2656,8.5 L37.2656,28.2969 L1959.5,28.2969 A2.5,2.5 0 0 1 1962,30.7969 L1962,873.5 A2.5,2.5 0 0 1 1959.5,876 L8.5,876 A2.5,2.5 0 0 1 6,873.5 L6,8.5 A2.5,2.5 0 0 1 8.5,6" fill="none" style="stroke:#000000;stroke-width:1.5;"/><line style="stroke:#000000;stroke-width:1.5;" x1="6" x2="37.2656" y1="28.2969" y2="28.2969"/><text fill="#000000" font-family="sans-serif" font-size="14" font-weight="bold" lengthAdjust="spacing" textLength="18.2656" x="10" y="20.9951">ch</text></g><!--cluster hslu--><g class="cluster" data-entity="hslu" data-source-line="2" data-uid="ent0004" id="cluster_hslu"><path d="M32.5,49 L66.5654,49 A3.75,3.75 0 0 1 69.0654,51.5 L76.0654,71.2969 L1935.5,71.2969 A2.5,2.5 0 0 1 1938,73.7969 L1938,849.5 A2.5,2.5 0 0 1 1935.5,852 L32.5,852 A2.5,2.5 0 0 1 30,849.5 L30,51.5 A2.5,2.5 0 0 1 32.5,49" fill="none" style="stroke:#000000;stroke-width:1.5;"/><line style="stroke:#000000;stroke-width:1.5;" x1="30" x2="76.0654" y1="71.2969" y2="71.2969"/><text fill="#000000" font-family="sans-serif" font-size="14" font-weight="bold" lengthAdjust="spacing" textLength="33.0654" x="34" y="63.9951">hslu</text></g><!--cluster cas--><g class="cluster" data-entity="cas" data-source-line="2" data-uid="ent0005" id="cluster_cas"><path d="M56.5,92 L83.5791,92 A3.75,3.75 0 0 1 86.0791,94.5 L93.0791,114.2969 L1911.5,114.2969 A2.5,2.5 0 0 1 1914,116.7969 L1914,825.5 A2.5,2.5 0 0 1 1911.5,828 L56.5,828 A2.5,2.5 0 0 1 54,825.5 L54,94.5 A2.5,2.5 0 0 1 56.5,92" fill="none" style="stroke:#000000;stroke-width:1.5;"/><line style="stroke:#000000;stroke-width:1.5;" x1="54" x2="93.0791" y1="114.2969" y2="114.2969"/><text fill="#000000" font-family="sans-serif" font-size="14" font-weight="bold" lengthAdjust="spacing" textLength="26.0791" x="58" y="106.9951">cas</text></g><!--cluster msed--><g class="cluster" data-entity="msed" data-source-line="2" data-uid="ent0006" id="cluster_msed"><path d="M80.5,135 L123.9375,135 A3.75,3.75 0 0 1 126.4375,137.5 L133.4375,157.2969 L1887.5,157.2969 A2.5,2.5 0 0 1 1890,159.7969 L1890,801.5 A2.5,2.5 0 0 1 1887.5,804 L80.5,804 A2.5,2.5 0 0 1 78,801.5 L78,137.5 A2.5,2.5 0 0 1 80.5,135" fill="none" style="stroke:#000000;stroke-width:1.5;"/><line style="stroke:#000000;stroke-width:1.5;" x1="78" x2="133.4375" y1="157.2969" y2="157.2969"/><text fill="#000000" font-family="sans-serif" font-size="14" font-weight="bold" lengthAdjust="spacing" textLength="42.4375" x="82" y="149.9951">msed</text></g><!--cluster blobfish--><g class="cluster" data-entity="blobfish" data-source-line="2" data-uid="ent0007" id="cluster_blobfish"><path d="M104.5,178 L169.1494,178 A3.75,3.75 0 0 1 171.6494,180.5 L178.6494,200.2969 L1863.5,200.2969 A2.5,2.5 0 0 1 1866,202.7969 L1866,777.5 A2.5,2.5 0 0 1 1863.5,780 L104.5,780 A2.5,2.5 0 0 1 102,777.5 L102,180.5 A2.5,2.5 0 0 1 104.5,178" fill="none" style="stroke:#000000;stroke-width:1.5;"/><line style="stroke:#000000;stroke-width:1.5;" x1="102" x2="178.6494" y1="200.2969" y2="200.2969"/><text fill="#000000" font-family="sans-serif" font-size="14" font-weight="bold" lengthAdjust="spacing" textLength="63.6494" x="106" y="192.9951">blobfish</text></g><!--cluster board--><g class="cluster" data-entity="board" data-source-line="2" data-uid="ent0008" id="cluster_board"><path d="M128.5,221 L175.5127,221 A3.75,3.75 0 0 1 178.0127,223.5 L185.0127,243.2969 L1839.5,243.2969 A2.5,2.5 0 0 1 1842,245.7969 L1842,753.5 A2.5,2.5 0 0 1 1839.5,756 L128.5,756 A2.5,2.5 0 0 1 126,753.5 L126,223.5 A2.5,2.5 0 0 1 128.5,221" fill="none" style="stroke:#000000;stroke-width:1.5;"/><line style="stroke:#000000;stroke-width:1.5;" x1="126" x2="185.0127" y1="243.2969" y2="243.2969"/><text fill="#000000" font-family="sans-serif" font-size="14" font-weight="bold" lengthAdjust="spacing" textLength="46.0127" x="130" y="235.9951">board</text></g><!--cluster ui--><g class="cluster" data-entity="ui" data-source-line="14" data-uid="ent0010" id="cluster_ui"><path d="M744.5,269.5 L760.2656,269.5 A3.75,3.75 0 0 1 762.7656,272 L769.7656,291.7969 L1815.5,291.7969 A2.5,2.5 0 0 1 1818,294.2969 L1818,729.5 A2.5,2.5 0 0 1 1815.5,732 L744.5,732 A2.5,2.5 0 0 1 742,729.5 L742,272 A2.5,2.5 0 0 1 744.5,269.5" fill="none" style="stroke:#000000;stroke-width:1.5;"/><line style="stroke:#000000;stroke-width:1.5;" x1="742" x2="769.7656" y1="291.7969" y2="291.7969"/><text fill="#000000" font-family="sans-serif" font-size="14" font-weight="bold" lengthAdjust="spacing" textLength="14.7656" x="746" y="284.4951">ui</text></g><!--class ChessBoard--><g class="entity" data-entity="ChessBoard" data-source-line="2" data-uid="ent0002" id="entity_ChessBoard"><rect fill="#F1F1F1" height="178.375" rx="2.5" ry="2.5" style="stroke:#181818;stroke-width:0.5;" width="583.7441" x="142" y="256"/><ellipse cx="388.0015" cy="272" fill="#ADD1B2" rx="11" ry="11" style="stroke:#181818;stroke-width:1;"/><path d="M390.9702,277.6406 Q390.3921,277.9375 389.7515,278.0781 Q389.1108,278.2344 388.4077,278.2344 Q385.9077,278.2344 384.5796,276.5938 Q383.2671,274.9375 383.2671,271.8125 Q383.2671,268.6875 384.5796,267.0313 Q385.9077,265.375 388.4077,265.375 Q389.1108,265.375 389.7515,265.5313 Q390.4077,265.6875 390.9702,265.9844 L390.9702,268.7031 Q390.3452,268.125 389.7515,267.8594 Q389.1577,267.5781 388.5327,267.5781 Q387.189,267.5781 386.5015,268.6563 Q385.814,269.7188 385.814,271.8125 Q385.814,273.9063 386.5015,274.9844 Q387.189,276.0469 388.5327,276.0469 Q389.1577,276.0469 389.7515,275.7813 Q390.3452,275.5 390.9702,274.9219 L390.9702,277.6406 Z " fill="#000000"/><text fill="#000000" font-family="sans-serif" font-size="14" lengthAdjust="spacing" textLength="83.2412" x="408.5015" y="276.8467">ChessBoard</text><line style="stroke:#181818;stroke-width:0.5;" x1="143" x2="724.7441" y1="288" y2="288"/><rect fill="none" height="6" style="stroke:#C82930;stroke-width:1;" width="6" x="150" y="298.6484"/><text fill="#000000" font-family="sans-serif" font-size="14" lengthAdjust="spacing" text-decoration="underline" textLength="201.7148" x="162" y="304.9951">STARTPOSITION_FEN : String</text><rect fill="none" height="6" style="stroke:#C82930;stroke-width:1;" width="6" x="150" y="314.9453"/><text fill="#000000" font-family="sans-serif" font-size="14" lengthAdjust="spacing" textLength="323.6816" x="162" y="321.292">board : com.github.bhlangonijr.chesslib.Board</text><line style="stroke:#181818;stroke-width:0.5;" x1="143" x2="724.7441" y1="328.5938" y2="328.5938"/><ellipse cx="153" cy="342.2422" fill="#84BE84" rx="3" ry="3" style="stroke:#038048;stroke-width:1;"/><text fill="#000000" font-family="sans-serif" font-size="14" lengthAdjust="spacing" textLength="557.7441" x="162" y="345.5889">doMove ( paramString1 : String ) : ch.hslu.cas.msed.blobfish.board.ChessBoard</text><ellipse cx="153" cy="358.5391" fill="#84BE84" rx="3" ry="3" style="stroke:#038048;stroke-width:1;"/><text fill="#000000" font-family="sans-serif" font-size="14" lengthAdjust="spacing" textLength="173.5645" x="162" y="361.8857">getEvaluation () : double</text><ellipse cx="153" cy="374.8359" fill="#84BE84" rx="3" ry="3" style="stroke:#038048;stroke-width:1;"/><text fill="#000000" font-family="sans-serif" font-size="14" lengthAdjust="spacing" textLength="119.3008" x="162" y="378.1826">getFen () : String</text><ellipse cx="153" cy="391.1328" fill="#84BE84" rx="3" ry="3" style="stroke:#038048;stroke-width:1;"/><text fill="#000000" font-family="sans-serif" font-size="14" lengthAdjust="spacing" textLength="171.5" x="162" y="394.4795">isGameOver () : boolean</text><ellipse cx="153" cy="407.4297" fill="#84BE84" rx="3" ry="3" style="stroke:#038048;stroke-width:1;"/><text fill="#000000" font-family="sans-serif" font-size="14" lengthAdjust="spacing" textLength="331.8848" x="162" y="410.7764">isMoveLegal ( paramString1 : String ) : boolean</text><ellipse cx="153" cy="423.7266" fill="#84BE84" rx="3" ry="3" style="stroke:#038048;stroke-width:1;"/><text fill="#000000" font-family="sans-serif" font-size="14" lengthAdjust="spacing" textLength="192.5342" x="162" y="427.0732">legalMoves () : java.util.List</text></g><!--class BoardRenderer--><g class="entity" data-entity="BoardRenderer" data-source-line="14" data-uid="ent0009" id="entity_BoardRenderer"><rect fill="#F1F1F1" height="64.2969" rx="2.5" ry="2.5" style="stroke:#181818;stroke-width:0.5;" width="1042.832" x="758.5" y="511"/><ellipse cx="1222.5508" cy="527" fill="#ADD1B2" rx="11" ry="11" style="stroke:#181818;stroke-width:1;"/><path d="M1225.5195,532.6406 Q1224.9414,532.9375 1224.3008,533.0781 Q1223.6602,533.2344 1222.957,533.2344 Q1220.457,533.2344 1219.1289,531.5938 Q1217.8164,529.9375 1217.8164,526.8125 Q1217.8164,523.6875 1219.1289,522.0313 Q1220.457,520.375 1222.957,520.375 Q1223.6602,520.375 1224.3008,520.5313 Q1224.957,520.6875 1225.5195,520.9844 L1225.5195,523.7031 Q1224.8945,523.125 1224.3008,522.8594 Q1223.707,522.5781 1223.082,522.5781 Q1221.7383,522.5781 1221.0508,523.6563 Q1220.3633,524.7188 1220.3633,526.8125 Q1220.3633,528.9063 1221.0508,529.9844 Q1221.7383,531.0469 1223.082,531.0469 Q1223.707,531.0469 1224.3008,530.7813 Q1224.8945,530.5 1225.5195,529.9219 L1225.5195,532.6406 Z " fill="#000000"/><text fill="#000000" font-family="sans-serif" font-size="14" lengthAdjust="spacing" textLength="106.2305" x="1243.0508" y="531.8467">BoardRenderer</text><line style="stroke:#181818;stroke-width:0.5;" x1="759.5" x2="1800.332" y1="543" y2="543"/><line style="stroke:#181818;stroke-width:0.5;" x1="759.5" x2="1800.332" y1="551" y2="551"/><polygon fill="#4177AF" points="769.5,560.6484,765.5,566.6484,773.5,566.6484" style="stroke:#1963A0;stroke-width:1;"/><text fill="#000000" font-family="sans-serif" font-size="14" lengthAdjust="spacing" textLength="1016.832" x="778.5" y="567.9951">render ( paramUiBoard1 : ch.hslu.cas.msed.blobfish.board.ui.UiBoard , paramPlayerColor2 : ch.hslu.cas.msed.blobfish.base.PlayerColor ) : String</text></g><!--class ChessBoardRenderer--><g class="entity" data-entity="ChessBoardRenderer" data-source-line="19" data-uid="ent0011" id="entity_ChessBoardRenderer"><rect fill="#F1F1F1" height="80.5938" rx="2.5" ry="2.5" style="stroke:#181818;stroke-width:0.5;" width="768.0342" x="914" y="304.5"/><ellipse cx="1219.7271" cy="320.5" fill="#ADD1B2" rx="11" ry="11" style="stroke:#181818;stroke-width:1;"/><path d="M1222.6958,326.1406 Q1222.1177,326.4375 1221.4771,326.5781 Q1220.8364,326.7344 1220.1333,326.7344 Q1217.6333,326.7344 1216.3052,325.0938 Q1214.9927,323.4375 1214.9927,320.3125 Q1214.9927,317.1875 1216.3052,315.5313 Q1217.6333,313.875 1220.1333,313.875 Q1220.8364,313.875 1221.4771,314.0313 Q1222.1333,314.1875 1222.6958,314.4844 L1222.6958,317.2031 Q1222.0708,316.625 1221.4771,316.3594 Q1220.8833,316.0781 1220.2583,316.0781 Q1218.9146,316.0781 1218.2271,317.1563 Q1217.5396,318.2188 1217.5396,320.3125 Q1217.5396,322.4063 1218.2271,323.4844 Q1218.9146,324.5469 1220.2583,324.5469 Q1220.8833,324.5469 1221.4771,324.2813 Q1222.0708,324 1222.6958,323.4219 L1222.6958,326.1406 Z " fill="#000000"/><text fill="#000000" font-family="sans-serif" font-size="14" lengthAdjust="spacing" textLength="148.0801" x="1240.2271" y="325.3467">ChessBoardRenderer</text><line style="stroke:#181818;stroke-width:0.5;" x1="915" x2="1681.0342" y1="336.5" y2="336.5"/><rect fill="none" height="6" style="stroke:#C82930;stroke-width:1;" width="6" x="922" y="347.1484"/><text fill="#000000" font-family="sans-serif" font-size="14" lengthAdjust="spacing" textLength="417.1768" x="934" y="353.4951">parser : ch.hslu.cas.msed.blobfish.board.ui.FenBoardParser</text><line style="stroke:#181818;stroke-width:0.5;" x1="915" x2="1681.0342" y1="360.7969" y2="360.7969"/><ellipse cx="925" cy="374.4453" fill="#84BE84" rx="3" ry="3" style="stroke:#038048;stroke-width:1;"/><text fill="#000000" font-family="sans-serif" font-size="14" lengthAdjust="spacing" textLength="742.0342" x="934" y="377.792">render ( paramString1 : String , paramPlayerColor2 : ch.hslu.cas.msed.blobfish.base.PlayerColor ) : String</text></g><!--class FieldRenderer--><g class="entity" data-entity="FieldRenderer" data-source-line="25" data-uid="ent0012" id="entity_FieldRenderer"><rect fill="#F1F1F1" height="64.2969" rx="2.5" ry="2.5" style="stroke:#181818;stroke-width:0.5;" width="562.375" x="999" y="652"/><ellipse cx="1226.8521" cy="668" fill="#B4A7E5" rx="11" ry="11" style="stroke:#181818;stroke-width:1;"/><path d="M1222.7739,663.7656 L1222.7739,661.6094 L1230.1646,661.6094 L1230.1646,663.7656 L1227.6958,663.7656 L1227.6958,671.8438 L1230.1646,671.8438 L1230.1646,674 L1222.7739,674 L1222.7739,671.8438 L1225.2427,671.8438 L1225.2427,663.7656 L1222.7739,663.7656 Z " fill="#000000"/><text fill="#000000" font-family="sans-serif" font-size="14" font-style="italic" lengthAdjust="spacing" textLength="98.1709" x="1247.3521" y="672.8467">FieldRenderer</text><line style="stroke:#181818;stroke-width:0.5;" x1="1000" x2="1560.375" y1="684" y2="684"/><line style="stroke:#181818;stroke-width:0.5;" x1="1000" x2="1560.375" y1="692" y2="692"/><ellipse cx="1010" cy="705.6484" fill="#84BE84" rx="3" ry="3" style="stroke:#038048;stroke-width:1;"/><text fill="#000000" font-family="sans-serif" font-size="14" font-style="italic" lengthAdjust="spacing" textLength="536.375" x="1019" y="708.9951">render ( paramUiField1 : ch.hslu.cas.msed.blobfish.board.ui.UiField ) : String</text></g><!--class SquareColor--><g class="entity" data-entity="SquareColor" data-source-line="30" data-uid="ent0013" id="entity_SquareColor"><rect fill="#F1F1F1" height="80.5938" rx="2.5" ry="2.5" style="stroke:#181818;stroke-width:0.5;" width="118.1465" x="761" y="304.5"/><ellipse cx="776" cy="320.5" fill="#EB937F" rx="11" ry="11" style="stroke:#181818;stroke-width:1;"/><path d="M780.1094,326.5 L772.3906,326.5 L772.3906,314.1094 L780.1094,314.1094 L780.1094,316.2656 L774.8438,316.2656 L774.8438,318.9375 L779.6094,318.9375 L779.6094,321.0938 L774.8438,321.0938 L774.8438,324.3438 L780.1094,324.3438 L780.1094,326.5 Z " fill="#000000"/><text fill="#000000" font-family="sans-serif" font-size="14" lengthAdjust="spacing" textLength="86.1465" x="790" y="325.3467">SquareColor</text><line style="stroke:#181818;stroke-width:0.5;" x1="762" x2="878.1465" y1="336.5" y2="336.5"/><ellipse cx="772" cy="350.1484" fill="none" rx="3" ry="3" style="stroke:#038048;stroke-width:1;"/><text fill="#000000" font-family="sans-serif" font-size="14" lengthAdjust="spacing" textLength="39.2656" x="781" y="353.4951">DARK</text><ellipse cx="772" cy="366.4453" fill="none" rx="3" ry="3" style="stroke:#038048;stroke-width:1;"/><text fill="#000000" font-family="sans-serif" font-size="14" lengthAdjust="spacing" textLength="41.8564" x="781" y="369.792">LIGHT</text><line style="stroke:#181818;stroke-width:0.5;" x1="762" x2="878.1465" y1="377.0938" y2="377.0938"/></g><!--reverse link BoardRenderer to FieldRenderer--><g class="link" data-entity-1="BoardRenderer" data-entity-2="FieldRenderer" data-source-line="38" data-uid="lnk14" id="link_BoardRenderer_FieldRenderer"><path codeLine="38" d="M1280,587.19 C1280,610.09 1280,629.04 1280,651.91" fill="none" id="BoardRenderer-backto-FieldRenderer" style="stroke:#181818;stroke-width:1;"/><polygon fill="#181818" points="1280,575.19,1276,581.19,1280,587.19,1284,581.19,1280,575.19" style="stroke:#181818;stroke-width:1;"/><text fill="#000000" font-family="sans-serif" font-size="13" lengthAdjust="spacing" textLength="43.1768" x="1281" y="618.0669">render</text></g><!--reverse link ChessBoardRenderer to BoardRenderer--><g class="link" data-entity-1="ChessBoardRenderer" data-entity-2="BoardRenderer" data-source-line="39" data-uid="lnk15" id="link_ChessBoardRenderer_BoardRenderer"><path codeLine="39" d="M1293.2628,397.6097 C1289.8728,434.5297 1285.98,476.85 1282.87,510.77" fill="none" id="ChessBoardRenderer-backto-BoardRenderer" style="stroke:#181818;stroke-width:1;"/><polygon fill="#181818" points="1294.36,385.66,1289.8281,391.2691,1293.2628,397.6097,1297.7946,392.0006,1294.36,385.66" style="stroke:#181818;stroke-width:1;"/><text fill="#000000" font-family="sans-serif" font-size="13" lengthAdjust="spacing" textLength="97.9761" x="1287" y="477.0669">boardRenderer</text></g><!--SRC=[hLDTJy8m57rslwAFAD947tr312MY43wUpMrtsMgwLTkEn2pussqxXG663EFRsdlEkVVSqt49nX2UqjJ8Wd8mD3COKoOLMmgJKgP0nxINeZ6t_fEKqLcv52ZZDIcD1IlucdHcy-vqFXdFXlFX-Fbbq7ycDsHcjSYJBReJf5o1gumcmgO5eooLa2Sg5w-QSjz32aP37yVBqARA4TknUb8h92to1XgoIlTgqu6SUyt61kh22Th-2cJXNAYSjBnGh0ecSGyqmE_gnjEcAimzP3XUeQuGJ2c9aEz2_FWZJ40UzV0BLNgIPvjA_HLMG0ih91q9OwDr54MyKO25gDOwnJn6xOOjQsq-TRZz6MuX0lIgmLgTx3UQN5RaYOGFr3qbbRu-BW06QGrDQlizoTSssXrpFw_EJMNSLIClBkSWD0cSUX2x6pg8xx_DYzoYNWB7HbDxfxy6IqfWnchWzi32GWHQuv03UdzCp8ki2NtsNe36ocajc_PTT_fOEuw6zm_p8EpYF_L1NtGwvFHjtP1gBT7V7bhJfhii_wlNpb7q1G00]--></g></svg>