<svg xmlns="http://www.w3.org/2000/svg" xmlns:xlink="http://www.w3.org/1999/xlink" contentStyleType="text/css" data-diagram-type="CLASS" height="900px" preserveAspectRatio="none" style="width:1969px;height:900px;background:#FFFFFF;" version="1.1" viewBox="0 0 1969 900" width="1969px" zoomAndPan="magnify"><defs/><g><!--cluster ch--><g class="cluster" data-entity="ch" data-source-line="2" data-uid="ent0003" id="cluster_ch"><path d="M8.5,6 L27.7656,6 A3.75,3.75 0 0 1 30.2656,8.5 L37.2656,28.2969 L1959.5,28.2969 A2.5,2.5 0 0 1 1962,30.7969 L1962,890.5 A2.5,2.5 0 0 1 1959.5,893 L8.5,893 A2.5,2.5 0 0 1 6,890.5 L6,8.5 A2.5,2.5 0 0 1 8.5,6" fill="none" style="stroke:#000000;stroke-width:1.5;"/><line style="stroke:#000000;stroke-width:1.5;" x1="6" x2="37.2656" y1="28.2969" y2="28.2969"/><text fill="#000000" font-family="sans-serif" font-size="14" font-weight="bold" lengthAdjust="spacing" textLength="18.2656" x="10" y="20.9951">ch</text></g><!--cluster hslu--><g class="cluster" data-entity="hslu" data-source-line="2" data-uid="ent0004" id="cluster_hslu"><path d="M32.5,49 L66.5654,49 A3.75,3.75 0 0 1 69.0654,51.5 L76.0654,71.2969 L1935.5,71.2969 A2.5,2.5 0 0 1 1938,73.7969 L1938,866.5 A2.5,2.5 0 0 1 1935.5,869 L32.5,869 A2.5,2.5 0 0 1 30,866.5 L30,51.5 A2.5,2.5 0 0 1 32.5,49" fill="none" style="stroke:#000000;stroke-width:1.5;"/><line style="stroke:#000000;stroke-width:1.5;" x1="30" x2="76.0654" y1="71.2969" y2="71.2969"/><text fill="#000000" font-family="sans-serif" font-size="14" font-weight="bold" lengthAdjust="spacing" textLength="33.0654" x="34" y="63.9951">hslu</text></g><!--cluster cas--><g class="cluster" data-entity="cas" data-source-line="2" data-uid="ent0005" id="cluster_cas"><path d="M56.5,92 L83.5791,92 A3.75,3.75 0 0 1 86.0791,94.5 L93.0791,114.2969 L1911.5,114.2969 A2.5,2.5 0 0 1 1914,116.7969 L1914,842.5 A2.5,2.5 0 0 1 1911.5,845 L56.5,845 A2.5,2.5 0 0 1 54,842.5 L54,94.5 A2.5,2.5 0 0 1 56.5,92" fill="none" style="stroke:#000000;stroke-width:1.5;"/><line style="stroke:#000000;stroke-width:1.5;" x1="54" x2="93.0791" y1="114.2969" y2="114.2969"/><text fill="#000000" font-family="sans-serif" font-size="14" font-weight="bold" lengthAdjust="spacing" textLength="26.0791" x="58" y="106.9951">cas</text></g><!--cluster msed--><g class="cluster" data-entity="msed" data-source-line="2" data-uid="ent0006" id="cluster_msed"><path d="M80.5,135 L123.9375,135 A3.75,3.75 0 0 1 126.4375,137.5 L133.4375,157.2969 L1887.5,157.2969 A2.5,2.5 0 0 1 1890,159.7969 L1890,818.5 A2.5,2.5 0 0 1 1887.5,821 L80.5,821 A2.5,2.5 0 0 1 78,818.5 L78,137.5 A2.5,2.5 0 0 1 80.5,135" fill="none" style="stroke:#000000;stroke-width:1.5;"/><line style="stroke:#000000;stroke-width:1.5;" x1="78" x2="133.4375" y1="157.2969" y2="157.2969"/><text fill="#000000" font-family="sans-serif" font-size="14" font-weight="bold" lengthAdjust="spacing" textLength="42.4375" x="82" y="149.9951">msed</text></g><!--cluster blobfish--><g class="cluster" data-entity="blobfish" data-source-line="2" data-uid="ent0007" id="cluster_blobfish"><path d="M104.5,178 L169.1494,178 A3.75,3.75 0 0 1 171.6494,180.5 L178.6494,200.2969 L1863.5,200.2969 A2.5,2.5 0 0 1 1866,202.7969 L1866,794.5 A2.5,2.5 0 0 1 1863.5,797 L104.5,797 A2.5,2.5 0 0 1 102,794.5 L102,180.5 A2.5,2.5 0 0 1 104.5,178" fill="none" style="stroke:#000000;stroke-width:1.5;"/><line style="stroke:#000000;stroke-width:1.5;" x1="102" x2="178.6494" y1="200.2969" y2="200.2969"/><text fill="#000000" font-family="sans-serif" font-size="14" font-weight="bold" lengthAdjust="spacing" textLength="63.6494" x="106" y="192.9951">blobfish</text></g><!--cluster board--><g class="cluster" data-entity="board" data-source-line="2" data-uid="ent0008" id="cluster_board"><path d="M128.5,221 L175.5127,221 A3.75,3.75 0 0 1 178.0127,223.5 L185.0127,243.2969 L1839.5,243.2969 A2.5,2.5 0 0 1 1842,245.7969 L1842,770.5 A2.5,2.5 0 0 1 1839.5,773 L128.5,773 A2.5,2.5 0 0 1 126,770.5 L126,223.5 A2.5,2.5 0 0 1 128.5,221" fill="none" style="stroke:#000000;stroke-width:1.5;"/><line style="stroke:#000000;stroke-width:1.5;" x1="126" x2="185.0127" y1="243.2969" y2="243.2969"/><text fill="#000000" font-family="sans-serif" font-size="14" font-weight="bold" lengthAdjust="spacing" textLength="46.0127" x="130" y="235.9951">board</text></g><!--cluster ui--><g class="cluster" data-entity="ui" data-source-line="15" data-uid="ent0010" id="cluster_ui"><path d="M744.5,278 L760.2656,278 A3.75,3.75 0 0 1 762.7656,280.5 L769.7656,300.2969 L1815.5,300.2969 A2.5,2.5 0 0 1 1818,302.7969 L1818,746.5 A2.5,2.5 0 0 1 1815.5,749 L744.5,749 A2.5,2.5 0 0 1 742,746.5 L742,280.5 A2.5,2.5 0 0 1 744.5,278" fill="none" style="stroke:#000000;stroke-width:1.5;"/><line style="stroke:#000000;stroke-width:1.5;" x1="742" x2="769.7656" y1="300.2969" y2="300.2969"/><text fill="#000000" font-family="sans-serif" font-size="14" font-weight="bold" lengthAdjust="spacing" textLength="14.7656" x="746" y="292.9951">ui</text></g><!--class ChessBoard--><g class="entity" data-entity="ChessBoard" data-source-line="2" data-uid="ent0002" id="entity_ChessBoard"><rect fill="#F1F1F1" height="194.6719" rx="2.5" ry="2.5" style="stroke:#181818;stroke-width:0.5;" width="583.7441" x="142" y="256"/><ellipse cx="388.0015" cy="272" fill="#ADD1B2" rx="11" ry="11" style="stroke:#181818;stroke-width:1;"/><path d="M390.9702,277.6406 Q390.3921,277.9375 389.7515,278.0781 Q389.1108,278.2344 388.4077,278.2344 Q385.9077,278.2344 384.5796,276.5938 Q383.2671,274.9375 383.2671,271.8125 Q383.2671,268.6875 384.5796,267.0313 Q385.9077,265.375 388.4077,265.375 Q389.1108,265.375 389.7515,265.5313 Q390.4077,265.6875 390.9702,265.9844 L390.9702,268.7031 Q390.3452,268.125 389.7515,267.8594 Q389.1577,267.5781 388.5327,267.5781 Q387.189,267.5781 386.5015,268.6563 Q385.814,269.7188 385.814,271.8125 Q385.814,273.9063 386.5015,274.9844 Q387.189,276.0469 388.5327,276.0469 Q389.1577,276.0469 389.7515,275.7813 Q390.3452,275.5 390.9702,274.9219 L390.9702,277.6406 Z " fill="#000000"/><text fill="#000000" font-family="sans-serif" font-size="14" lengthAdjust="spacing" textLength="83.2412" x="408.5015" y="276.8467">ChessBoard</text><line style="stroke:#181818;stroke-width:0.5;" x1="143" x2="724.7441" y1="288" y2="288"/><rect fill="none" height="6" style="stroke:#C82930;stroke-width:1;" width="6" x="150" y="298.6484"/><text fill="#000000" font-family="sans-serif" font-size="14" lengthAdjust="spacing" text-decoration="underline" textLength="201.7148" x="162" y="304.9951">STARTPOSITION_FEN : String</text><rect fill="none" height="6" style="stroke:#C82930;stroke-width:1;" width="6" x="150" y="314.9453"/><text fill="#000000" font-family="sans-serif" font-size="14" lengthAdjust="spacing" textLength="323.6816" x="162" y="321.292">board : com.github.bhlangonijr.chesslib.Board</text><line style="stroke:#181818;stroke-width:0.5;" x1="143" x2="724.7441" y1="328.5938" y2="328.5938"/><ellipse cx="153" cy="342.2422" fill="#84BE84" rx="3" ry="3" style="stroke:#038048;stroke-width:1;"/><text fill="#000000" font-family="sans-serif" font-size="14" lengthAdjust="spacing" textLength="557.7441" x="162" y="345.5889">doMove ( paramString1 : String ) : ch.hslu.cas.msed.blobfish.board.ChessBoard</text><ellipse cx="153" cy="358.5391" fill="#84BE84" rx="3" ry="3" style="stroke:#038048;stroke-width:1;"/><text fill="#000000" font-family="sans-serif" font-size="14" lengthAdjust="spacing" textLength="173.5645" x="162" y="361.8857">getEvaluation () : double</text><ellipse cx="153" cy="374.8359" fill="#84BE84" rx="3" ry="3" style="stroke:#038048;stroke-width:1;"/><text fill="#000000" font-family="sans-serif" font-size="14" lengthAdjust="spacing" textLength="119.3008" x="162" y="378.1826">getFen () : String</text><ellipse cx="153" cy="391.1328" fill="#84BE84" rx="3" ry="3" style="stroke:#038048;stroke-width:1;"/><text fill="#000000" font-family="sans-serif" font-size="14" lengthAdjust="spacing" textLength="439.8242" x="162" y="394.4795">getSideToMove () : ch.hslu.cas.msed.blobfish.base.PlayerColor</text><ellipse cx="153" cy="407.4297" fill="#84BE84" rx="3" ry="3" style="stroke:#038048;stroke-width:1;"/><text fill="#000000" font-family="sans-serif" font-size="14" lengthAdjust="spacing" textLength="171.5" x="162" y="410.7764">isGameOver () : boolean</text><ellipse cx="153" cy="423.7266" fill="#84BE84" rx="3" ry="3" style="stroke:#038048;stroke-width:1;"/><text fill="#000000" font-family="sans-serif" font-size="14" lengthAdjust="spacing" textLength="331.8848" x="162" y="427.0732">isMoveLegal ( paramString1 : String ) : boolean</text><ellipse cx="153" cy="440.0234" fill="#84BE84" rx="3" ry="3" style="stroke:#038048;stroke-width:1;"/><text fill="#000000" font-family="sans-serif" font-size="14" lengthAdjust="spacing" textLength="192.5342" x="162" y="443.3701">legalMoves () : java.util.List</text></g><!--class BoardRenderer--><g class="entity" data-entity="BoardRenderer" data-source-line="15" data-uid="ent0009" id="entity_BoardRenderer"><rect fill="#F1F1F1" height="64.2969" rx="2.5" ry="2.5" style="stroke:#181818;stroke-width:0.5;" width="1042.832" x="758.5" y="528"/><ellipse cx="1222.5508" cy="544" fill="#ADD1B2" rx="11" ry="11" style="stroke:#181818;stroke-width:1;"/><path d="M1225.5195,549.6406 Q1224.9414,549.9375 1224.3008,550.0781 Q1223.6602,550.2344 1222.957,550.2344 Q1220.457,550.2344 1219.1289,548.5938 Q1217.8164,546.9375 1217.8164,543.8125 Q1217.8164,540.6875 1219.1289,539.0313 Q1220.457,537.375 1222.957,537.375 Q1223.6602,537.375 1224.3008,537.5313 Q1224.957,537.6875 1225.5195,537.9844 L1225.5195,540.7031 Q1224.8945,540.125 1224.3008,539.8594 Q1223.707,539.5781 1223.082,539.5781 Q1221.7383,539.5781 1221.0508,540.6563 Q1220.3633,541.7188 1220.3633,543.8125 Q1220.3633,545.9063 1221.0508,546.9844 Q1221.7383,548.0469 1223.082,548.0469 Q1223.707,548.0469 1224.3008,547.7813 Q1224.8945,547.5 1225.5195,546.9219 L1225.5195,549.6406 Z " fill="#000000"/><text fill="#000000" font-family="sans-serif" font-size="14" lengthAdjust="spacing" textLength="106.2305" x="1243.0508" y="548.8467">BoardRenderer</text><line style="stroke:#181818;stroke-width:0.5;" x1="759.5" x2="1800.332" y1="560" y2="560"/><line style="stroke:#181818;stroke-width:0.5;" x1="759.5" x2="1800.332" y1="568" y2="568"/><polygon fill="#4177AF" points="769.5,577.6484,765.5,583.6484,773.5,583.6484" style="stroke:#1963A0;stroke-width:1;"/><text fill="#000000" font-family="sans-serif" font-size="14" lengthAdjust="spacing" textLength="1016.832" x="778.5" y="584.9951">render ( paramUiBoard1 : ch.hslu.cas.msed.blobfish.board.ui.UiBoard , paramPlayerColor2 : ch.hslu.cas.msed.blobfish.base.PlayerColor ) : String</text></g><!--class ChessBoardRenderer--><g class="entity" data-entity="ChessBoardRenderer" data-source-line="20" data-uid="ent0011" id="entity_ChessBoardRenderer"><rect fill="#F1F1F1" height="80.5938" rx="2.5" ry="2.5" style="stroke:#181818;stroke-width:0.5;" width="768.0342" x="914" y="313"/><ellipse cx="1219.7271" cy="329" fill="#ADD1B2" rx="11" ry="11" style="stroke:#181818;stroke-width:1;"/><path d="M1222.6958,334.6406 Q1222.1177,334.9375 1221.4771,335.0781 Q1220.8364,335.2344 1220.1333,335.2344 Q1217.6333,335.2344 1216.3052,333.5938 Q1214.9927,331.9375 1214.9927,328.8125 Q1214.9927,325.6875 1216.3052,324.0313 Q1217.6333,322.375 1220.1333,322.375 Q1220.8364,322.375 1221.4771,322.5313 Q1222.1333,322.6875 1222.6958,322.9844 L1222.6958,325.7031 Q1222.0708,325.125 1221.4771,324.8594 Q1220.8833,324.5781 1220.2583,324.5781 Q1218.9146,324.5781 1218.2271,325.6563 Q1217.5396,326.7188 1217.5396,328.8125 Q1217.5396,330.9063 1218.2271,331.9844 Q1218.9146,333.0469 1220.2583,333.0469 Q1220.8833,333.0469 1221.4771,332.7813 Q1222.0708,332.5 1222.6958,331.9219 L1222.6958,334.6406 Z " fill="#000000"/><text fill="#000000" font-family="sans-serif" font-size="14" lengthAdjust="spacing" textLength="148.0801" x="1240.2271" y="333.8467">ChessBoardRenderer</text><line style="stroke:#181818;stroke-width:0.5;" x1="915" x2="1681.0342" y1="345" y2="345"/><rect fill="none" height="6" style="stroke:#C82930;stroke-width:1;" width="6" x="922" y="355.6484"/><text fill="#000000" font-family="sans-serif" font-size="14" lengthAdjust="spacing" textLength="417.1768" x="934" y="361.9951">parser : ch.hslu.cas.msed.blobfish.board.ui.FenBoardParser</text><line style="stroke:#181818;stroke-width:0.5;" x1="915" x2="1681.0342" y1="369.2969" y2="369.2969"/><ellipse cx="925" cy="382.9453" fill="#84BE84" rx="3" ry="3" style="stroke:#038048;stroke-width:1;"/><text fill="#000000" font-family="sans-serif" font-size="14" lengthAdjust="spacing" textLength="742.0342" x="934" y="386.292">render ( paramString1 : String , paramPlayerColor2 : ch.hslu.cas.msed.blobfish.base.PlayerColor ) : String</text></g><!--class FieldRenderer--><g class="entity" data-entity="FieldRenderer" data-source-line="26" data-uid="ent0012" id="entity_FieldRenderer"><rect fill="#F1F1F1" height="64.2969" rx="2.5" ry="2.5" style="stroke:#181818;stroke-width:0.5;" width="562.375" x="999" y="669"/><ellipse cx="1226.8521" cy="685" fill="#B4A7E5" rx="11" ry="11" style="stroke:#181818;stroke-width:1;"/><path d="M1222.7739,680.7656 L1222.7739,678.6094 L1230.1646,678.6094 L1230.1646,680.7656 L1227.6958,680.7656 L1227.6958,688.8438 L1230.1646,688.8438 L1230.1646,691 L1222.7739,691 L1222.7739,688.8438 L1225.2427,688.8438 L1225.2427,680.7656 L1222.7739,680.7656 Z " fill="#000000"/><text fill="#000000" font-family="sans-serif" font-size="14" font-style="italic" lengthAdjust="spacing" textLength="98.1709" x="1247.3521" y="689.8467">FieldRenderer</text><line style="stroke:#181818;stroke-width:0.5;" x1="1000" x2="1560.375" y1="701" y2="701"/><line style="stroke:#181818;stroke-width:0.5;" x1="1000" x2="1560.375" y1="709" y2="709"/><ellipse cx="1010" cy="722.6484" fill="#84BE84" rx="3" ry="3" style="stroke:#038048;stroke-width:1;"/><text fill="#000000" font-family="sans-serif" font-size="14" font-style="italic" lengthAdjust="spacing" textLength="536.375" x="1019" y="725.9951">render ( paramUiField1 : ch.hslu.cas.msed.blobfish.board.ui.UiField ) : String</text></g><!--class SquareColor--><g class="entity" data-entity="SquareColor" data-source-line="31" data-uid="ent0013" id="entity_SquareColor"><rect fill="#F1F1F1" height="80.5938" rx="2.5" ry="2.5" style="stroke:#181818;stroke-width:0.5;" width="118.1465" x="761" y="313"/><ellipse cx="776" cy="329" fill="#EB937F" rx="11" ry="11" style="stroke:#181818;stroke-width:1;"/><path d="M780.1094,335 L772.3906,335 L772.3906,322.6094 L780.1094,322.6094 L780.1094,324.7656 L774.8438,324.7656 L774.8438,327.4375 L779.6094,327.4375 L779.6094,329.5938 L774.8438,329.5938 L774.8438,332.8438 L780.1094,332.8438 L780.1094,335 Z " fill="#000000"/><text fill="#000000" font-family="sans-serif" font-size="14" lengthAdjust="spacing" textLength="86.1465" x="790" y="333.8467">SquareColor</text><line style="stroke:#181818;stroke-width:0.5;" x1="762" x2="878.1465" y1="345" y2="345"/><ellipse cx="772" cy="358.6484" fill="none" rx="3" ry="3" style="stroke:#038048;stroke-width:1;"/><text fill="#000000" font-family="sans-serif" font-size="14" lengthAdjust="spacing" textLength="39.2656" x="781" y="361.9951">DARK</text><ellipse cx="772" cy="374.9453" fill="none" rx="3" ry="3" style="stroke:#038048;stroke-width:1;"/><text fill="#000000" font-family="sans-serif" font-size="14" lengthAdjust="spacing" textLength="41.8564" x="781" y="378.292">LIGHT</text><line style="stroke:#181818;stroke-width:0.5;" x1="762" x2="878.1465" y1="385.5938" y2="385.5938"/></g><!--reverse link BoardRenderer to FieldRenderer--><g class="link" data-entity-1="BoardRenderer" data-entity-2="FieldRenderer" data-source-line="39" data-uid="lnk14" id="link_BoardRenderer_FieldRenderer"><path codeLine="39" d="M1280,604.19 C1280,627.09 1280,646.04 1280,668.91" fill="none" id="BoardRenderer-backto-FieldRenderer" style="stroke:#181818;stroke-width:1;"/><polygon fill="#181818" points="1280,592.19,1276,598.19,1280,604.19,1284,598.19,1280,592.19" style="stroke:#181818;stroke-width:1;"/><text fill="#000000" font-family="sans-serif" font-size="13" lengthAdjust="spacing" textLength="43.1768" x="1281" y="635.0669">render</text></g><!--reverse link ChessBoardRenderer to BoardRenderer--><g class="link" data-entity-1="ChessBoardRenderer" data-entity-2="BoardRenderer" data-source-line="40" data-uid="lnk15" id="link_ChessBoardRenderer_BoardRenderer"><path codeLine="40" d="M1293.437,406.3737 C1289.997,445.4237 1285.88,492.15 1282.74,527.87" fill="none" id="ChessBoardRenderer-backto-BoardRenderer" style="stroke:#181818;stroke-width:1;"/><polygon fill="#181818" points="1294.49,394.42,1289.9789,400.0458,1293.437,406.3737,1297.9481,400.7479,1294.49,394.42" style="stroke:#181818;stroke-width:1;"/><text fill="#000000" font-family="sans-serif" font-size="13" lengthAdjust="spacing" textLength="97.9761" x="1287" y="494.0669">boardRenderer</text></g><!--SRC=[hLFBJiCm43oJh_2HLot1aHkF5YeAhPfmHcjdcnWvCTXE9HILRyTs2hY084NSOdjdTcPdmoKOGtX9IoCRoi7Goc1EcLHi8Kn9cGATq_CIZJdpdwHDTjg5G9clI6iiMC5NP91cf_DiDat7sNXwUpyQtf8JabejwkAZUX2et0DN5Is4BHj6MIcXBbGj7ZJbleSKZ8O-3bUXBPK37kJgHYsHx997q51rl4Vl7SYUv-nj82Okq0wN81ldGjLarnFbgc4IFnMDSFtwxYb-JKMEsLhYBrh089r9U4PzhgJICP4mbr3XT8cwOs5AIOHwiyGtcM01yiTXV0EL7kJHfcD_W2NGnWf99yBOP9Ka2U-r2OteyfbZdQDsOjkepOiEjs_YxaGeFUgHZwDTLvF33XoDwNYheP8egAryVUp8XhctzNMgZBlgvSKjJ22Q1KmSnEQ4liJtt-P5RL4lW6ClrTxfjy6I5fYn6hZzOk5E15Zla4FrPvbODrKVUFhKWCREQPJDmSNf_3ewJiQNLraWTl5lkz3xWm7PVbedf1jByhT5wzjq4-L_zUYS9Ay0]--></g></svg>