<svg xmlns="http://www.w3.org/2000/svg" xmlns:xlink="http://www.w3.org/1999/xlink" contentStyleType="text/css" data-diagram-type="CLASS" height="853px" preserveAspectRatio="none" style="width:1735px;height:853px;background:#FFFFFF;" version="1.1" viewBox="0 0 1735 853" width="1735px" zoomAndPan="magnify"><defs/><g><!--cluster ch--><g class="cluster" data-entity="ch" data-source-line="2" data-uid="ent0003" id="cluster_ch"><path d="M8.5,6 L27.7656,6 A3.75,3.75 0 0 1 30.2656,8.5 L37.2656,28.2969 L1725.5,28.2969 A2.5,2.5 0 0 1 1728,30.7969 L1728,843.5 A2.5,2.5 0 0 1 1725.5,846 L8.5,846 A2.5,2.5 0 0 1 6,843.5 L6,8.5 A2.5,2.5 0 0 1 8.5,6" fill="none" style="stroke:#000000;stroke-width:1.5;"/><line style="stroke:#000000;stroke-width:1.5;" x1="6" x2="37.2656" y1="28.2969" y2="28.2969"/><text fill="#000000" font-family="sans-serif" font-size="14" font-weight="bold" lengthAdjust="spacing" textLength="18.2656" x="10" y="20.9951">ch</text></g><!--cluster hslu--><g class="cluster" data-entity="hslu" data-source-line="2" data-uid="ent0004" id="cluster_hslu"><path d="M32.5,49 L66.5654,49 A3.75,3.75 0 0 1 69.0654,51.5 L76.0654,71.2969 L1701.5,71.2969 A2.5,2.5 0 0 1 1704,73.7969 L1704,819.5 A2.5,2.5 0 0 1 1701.5,822 L32.5,822 A2.5,2.5 0 0 1 30,819.5 L30,51.5 A2.5,2.5 0 0 1 32.5,49" fill="none" style="stroke:#000000;stroke-width:1.5;"/><line style="stroke:#000000;stroke-width:1.5;" x1="30" x2="76.0654" y1="71.2969" y2="71.2969"/><text fill="#000000" font-family="sans-serif" font-size="14" font-weight="bold" lengthAdjust="spacing" textLength="33.0654" x="34" y="63.9951">hslu</text></g><!--cluster cas--><g class="cluster" data-entity="cas" data-source-line="2" data-uid="ent0005" id="cluster_cas"><path d="M56.5,92 L83.5791,92 A3.75,3.75 0 0 1 86.0791,94.5 L93.0791,114.2969 L1677.5,114.2969 A2.5,2.5 0 0 1 1680,116.7969 L1680,795.5 A2.5,2.5 0 0 1 1677.5,798 L56.5,798 A2.5,2.5 0 0 1 54,795.5 L54,94.5 A2.5,2.5 0 0 1 56.5,92" fill="none" style="stroke:#000000;stroke-width:1.5;"/><line style="stroke:#000000;stroke-width:1.5;" x1="54" x2="93.0791" y1="114.2969" y2="114.2969"/><text fill="#000000" font-family="sans-serif" font-size="14" font-weight="bold" lengthAdjust="spacing" textLength="26.0791" x="58" y="106.9951">cas</text></g><!--cluster msed--><g class="cluster" data-entity="msed" data-source-line="2" data-uid="ent0006" id="cluster_msed"><path d="M80.5,135 L123.9375,135 A3.75,3.75 0 0 1 126.4375,137.5 L133.4375,157.2969 L1653.5,157.2969 A2.5,2.5 0 0 1 1656,159.7969 L1656,771.5 A2.5,2.5 0 0 1 1653.5,774 L80.5,774 A2.5,2.5 0 0 1 78,771.5 L78,137.5 A2.5,2.5 0 0 1 80.5,135" fill="none" style="stroke:#000000;stroke-width:1.5;"/><line style="stroke:#000000;stroke-width:1.5;" x1="78" x2="133.4375" y1="157.2969" y2="157.2969"/><text fill="#000000" font-family="sans-serif" font-size="14" font-weight="bold" lengthAdjust="spacing" textLength="42.4375" x="82" y="149.9951">msed</text></g><!--cluster blobfish--><g class="cluster" data-entity="blobfish" data-source-line="2" data-uid="ent0007" id="cluster_blobfish"><path d="M104.5,178 L169.1494,178 A3.75,3.75 0 0 1 171.6494,180.5 L178.6494,200.2969 L1629.5,200.2969 A2.5,2.5 0 0 1 1632,202.7969 L1632,747.5 A2.5,2.5 0 0 1 1629.5,750 L104.5,750 A2.5,2.5 0 0 1 102,747.5 L102,180.5 A2.5,2.5 0 0 1 104.5,178" fill="none" style="stroke:#000000;stroke-width:1.5;"/><line style="stroke:#000000;stroke-width:1.5;" x1="102" x2="178.6494" y1="200.2969" y2="200.2969"/><text fill="#000000" font-family="sans-serif" font-size="14" font-weight="bold" lengthAdjust="spacing" textLength="63.6494" x="106" y="192.9951">blobfish</text></g><!--cluster board--><g class="cluster" data-entity="board" data-source-line="2" data-uid="ent0008" id="cluster_board"><path d="M128.5,221 L175.5127,221 A3.75,3.75 0 0 1 178.0127,223.5 L185.0127,243.2969 L1605.5,243.2969 A2.5,2.5 0 0 1 1608,245.7969 L1608,723.5 A2.5,2.5 0 0 1 1605.5,726 L128.5,726 A2.5,2.5 0 0 1 126,723.5 L126,223.5 A2.5,2.5 0 0 1 128.5,221" fill="none" style="stroke:#000000;stroke-width:1.5;"/><line style="stroke:#000000;stroke-width:1.5;" x1="126" x2="185.0127" y1="243.2969" y2="243.2969"/><text fill="#000000" font-family="sans-serif" font-size="14" font-weight="bold" lengthAdjust="spacing" textLength="46.0127" x="130" y="235.9951">board</text></g><!--cluster ui--><g class="cluster" data-entity="ui" data-source-line="11" data-uid="ent0010" id="cluster_ui"><path d="M510.5,264 L526.2656,264 A3.75,3.75 0 0 1 528.7656,266.5 L535.7656,286.2969 L1581.5,286.2969 A2.5,2.5 0 0 1 1584,288.7969 L1584,699.5 A2.5,2.5 0 0 1 1581.5,702 L510.5,702 A2.5,2.5 0 0 1 508,699.5 L508,266.5 A2.5,2.5 0 0 1 510.5,264" fill="none" style="stroke:#000000;stroke-width:1.5;"/><line style="stroke:#000000;stroke-width:1.5;" x1="508" x2="535.7656" y1="286.2969" y2="286.2969"/><text fill="#000000" font-family="sans-serif" font-size="14" font-weight="bold" lengthAdjust="spacing" textLength="14.7656" x="512" y="278.9951">ui</text></g><!--class ChessBoard--><g class="entity" data-entity="ChessBoard" data-source-line="2" data-uid="ent0002" id="entity_ChessBoard"><rect fill="#F1F1F1" height="129.4844" rx="2.5" ry="2.5" style="stroke:#181818;stroke-width:0.5;" width="349.6816" x="142" y="275"/><ellipse cx="270.9702" cy="291" fill="#ADD1B2" rx="11" ry="11" style="stroke:#181818;stroke-width:1;"/><path d="M273.939,296.6406 Q273.3608,296.9375 272.7202,297.0781 Q272.0796,297.2344 271.3765,297.2344 Q268.8765,297.2344 267.5483,295.5938 Q266.2358,293.9375 266.2358,290.8125 Q266.2358,287.6875 267.5483,286.0313 Q268.8765,284.375 271.3765,284.375 Q272.0796,284.375 272.7202,284.5313 Q273.3765,284.6875 273.939,284.9844 L273.939,287.7031 Q273.314,287.125 272.7202,286.8594 Q272.1265,286.5781 271.5015,286.5781 Q270.1577,286.5781 269.4702,287.6563 Q268.7827,288.7188 268.7827,290.8125 Q268.7827,292.9063 269.4702,293.9844 Q270.1577,295.0469 271.5015,295.0469 Q272.1265,295.0469 272.7202,294.7813 Q273.314,294.5 273.939,293.9219 L273.939,296.6406 Z " fill="#000000"/><text fill="#000000" font-family="sans-serif" font-size="14" lengthAdjust="spacing" textLength="83.2412" x="291.4702" y="295.8467">ChessBoard</text><line style="stroke:#181818;stroke-width:0.5;" x1="143" x2="490.6816" y1="307" y2="307"/><rect fill="none" height="6" style="stroke:#C82930;stroke-width:1;" width="6" x="150" y="317.6484"/><text fill="#000000" font-family="sans-serif" font-size="14" lengthAdjust="spacing" text-decoration="underline" textLength="201.7148" x="162" y="323.9951">STARTPOSITION_FEN : String</text><rect fill="none" height="6" style="stroke:#C82930;stroke-width:1;" width="6" x="150" y="333.9453"/><text fill="#000000" font-family="sans-serif" font-size="14" lengthAdjust="spacing" textLength="323.6816" x="162" y="340.292">board : com.github.bhlangonijr.chesslib.Board</text><line style="stroke:#181818;stroke-width:0.5;" x1="143" x2="490.6816" y1="347.5938" y2="347.5938"/><ellipse cx="153" cy="361.2422" fill="#84BE84" rx="3" ry="3" style="stroke:#038048;stroke-width:1;"/><text fill="#000000" font-family="sans-serif" font-size="14" lengthAdjust="spacing" textLength="274.0391" x="162" y="364.5889">doMove ( paramString1 : String ) : void</text><ellipse cx="153" cy="377.5391" fill="#84BE84" rx="3" ry="3" style="stroke:#038048;stroke-width:1;"/><text fill="#000000" font-family="sans-serif" font-size="14" lengthAdjust="spacing" textLength="119.3008" x="162" y="380.8857">getFen () : String</text><ellipse cx="153" cy="393.8359" fill="#84BE84" rx="3" ry="3" style="stroke:#038048;stroke-width:1;"/><text fill="#000000" font-family="sans-serif" font-size="14" lengthAdjust="spacing" textLength="171.5" x="162" y="397.1826">isGameOver () : boolean</text></g><!--class BoardRenderer--><g class="entity" data-entity="BoardRenderer" data-source-line="11" data-uid="ent0009" id="entity_BoardRenderer"><rect fill="#F1F1F1" height="64.2969" rx="2.5" ry="2.5" style="stroke:#181818;stroke-width:0.5;" width="1042.832" x="524.5" y="481"/><ellipse cx="988.5508" cy="497" fill="#ADD1B2" rx="11" ry="11" style="stroke:#181818;stroke-width:1;"/><path d="M991.5195,502.6406 Q990.9414,502.9375 990.3008,503.0781 Q989.6602,503.2344 988.957,503.2344 Q986.457,503.2344 985.1289,501.5938 Q983.8164,499.9375 983.8164,496.8125 Q983.8164,493.6875 985.1289,492.0313 Q986.457,490.375 988.957,490.375 Q989.6602,490.375 990.3008,490.5313 Q990.957,490.6875 991.5195,490.9844 L991.5195,493.7031 Q990.8945,493.125 990.3008,492.8594 Q989.707,492.5781 989.082,492.5781 Q987.7383,492.5781 987.0508,493.6563 Q986.3633,494.7188 986.3633,496.8125 Q986.3633,498.9063 987.0508,499.9844 Q987.7383,501.0469 989.082,501.0469 Q989.707,501.0469 990.3008,500.7813 Q990.8945,500.5 991.5195,499.9219 L991.5195,502.6406 Z " fill="#000000"/><text fill="#000000" font-family="sans-serif" font-size="14" lengthAdjust="spacing" textLength="106.2305" x="1009.0508" y="501.8467">BoardRenderer</text><line style="stroke:#181818;stroke-width:0.5;" x1="525.5" x2="1566.332" y1="513" y2="513"/><line style="stroke:#181818;stroke-width:0.5;" x1="525.5" x2="1566.332" y1="521" y2="521"/><polygon fill="#4177AF" points="535.5,530.6484,531.5,536.6484,539.5,536.6484" style="stroke:#1963A0;stroke-width:1;"/><text fill="#000000" font-family="sans-serif" font-size="14" lengthAdjust="spacing" textLength="1016.832" x="544.5" y="537.9951">render ( paramUiBoard1 : ch.hslu.cas.msed.blobfish.board.ui.UiBoard , paramPlayerColor2 : ch.hslu.cas.msed.blobfish.base.PlayerColor ) : String</text></g><!--class ChessBoardRenderer--><g class="entity" data-entity="ChessBoardRenderer" data-source-line="16" data-uid="ent0011" id="entity_ChessBoardRenderer"><rect fill="#F1F1F1" height="80.5938" rx="2.5" ry="2.5" style="stroke:#181818;stroke-width:0.5;" width="768.0342" x="680" y="299"/><ellipse cx="985.7271" cy="315" fill="#ADD1B2" rx="11" ry="11" style="stroke:#181818;stroke-width:1;"/><path d="M988.6958,320.6406 Q988.1177,320.9375 987.4771,321.0781 Q986.8364,321.2344 986.1333,321.2344 Q983.6333,321.2344 982.3052,319.5938 Q980.9927,317.9375 980.9927,314.8125 Q980.9927,311.6875 982.3052,310.0313 Q983.6333,308.375 986.1333,308.375 Q986.8364,308.375 987.4771,308.5313 Q988.1333,308.6875 988.6958,308.9844 L988.6958,311.7031 Q988.0708,311.125 987.4771,310.8594 Q986.8833,310.5781 986.2583,310.5781 Q984.9146,310.5781 984.2271,311.6563 Q983.5396,312.7188 983.5396,314.8125 Q983.5396,316.9063 984.2271,317.9844 Q984.9146,319.0469 986.2583,319.0469 Q986.8833,319.0469 987.4771,318.7813 Q988.0708,318.5 988.6958,317.9219 L988.6958,320.6406 Z " fill="#000000"/><text fill="#000000" font-family="sans-serif" font-size="14" lengthAdjust="spacing" textLength="148.0801" x="1006.2271" y="319.8467">ChessBoardRenderer</text><line style="stroke:#181818;stroke-width:0.5;" x1="681" x2="1447.0342" y1="331" y2="331"/><rect fill="none" height="6" style="stroke:#C82930;stroke-width:1;" width="6" x="688" y="341.6484"/><text fill="#000000" font-family="sans-serif" font-size="14" lengthAdjust="spacing" textLength="431.3135" x="700" y="347.9951">parser : ch.hslu.cas.msed.blobfish.board.ui.FenUiBoardParser</text><line style="stroke:#181818;stroke-width:0.5;" x1="681" x2="1447.0342" y1="355.2969" y2="355.2969"/><ellipse cx="691" cy="368.9453" fill="#84BE84" rx="3" ry="3" style="stroke:#038048;stroke-width:1;"/><text fill="#000000" font-family="sans-serif" font-size="14" lengthAdjust="spacing" textLength="742.0342" x="700" y="372.292">render ( paramString1 : String , paramPlayerColor2 : ch.hslu.cas.msed.blobfish.base.PlayerColor ) : String</text></g><!--class FieldRenderer--><g class="entity" data-entity="FieldRenderer" data-source-line="22" data-uid="ent0012" id="entity_FieldRenderer"><rect fill="#F1F1F1" height="64.2969" rx="2.5" ry="2.5" style="stroke:#181818;stroke-width:0.5;" width="562.375" x="765" y="622"/><ellipse cx="992.8521" cy="638" fill="#B4A7E5" rx="11" ry="11" style="stroke:#181818;stroke-width:1;"/><path d="M988.7739,633.7656 L988.7739,631.6094 L996.1646,631.6094 L996.1646,633.7656 L993.6958,633.7656 L993.6958,641.8438 L996.1646,641.8438 L996.1646,644 L988.7739,644 L988.7739,641.8438 L991.2427,641.8438 L991.2427,633.7656 L988.7739,633.7656 Z " fill="#000000"/><text fill="#000000" font-family="sans-serif" font-size="14" font-style="italic" lengthAdjust="spacing" textLength="98.1709" x="1013.3521" y="642.8467">FieldRenderer</text><line style="stroke:#181818;stroke-width:0.5;" x1="766" x2="1326.375" y1="654" y2="654"/><line style="stroke:#181818;stroke-width:0.5;" x1="766" x2="1326.375" y1="662" y2="662"/><ellipse cx="776" cy="675.6484" fill="#84BE84" rx="3" ry="3" style="stroke:#038048;stroke-width:1;"/><text fill="#000000" font-family="sans-serif" font-size="14" font-style="italic" lengthAdjust="spacing" textLength="536.375" x="785" y="678.9951">render ( paramUiField1 : ch.hslu.cas.msed.blobfish.board.ui.UiField ) : String</text></g><!--class SquareColor--><g class="entity" data-entity="SquareColor" data-source-line="27" data-uid="ent0013" id="entity_SquareColor"><rect fill="#F1F1F1" height="80.5938" rx="2.5" ry="2.5" style="stroke:#181818;stroke-width:0.5;" width="118.1465" x="527" y="299"/><ellipse cx="542" cy="315" fill="#EB937F" rx="11" ry="11" style="stroke:#181818;stroke-width:1;"/><path d="M546.1094,321 L538.3906,321 L538.3906,308.6094 L546.1094,308.6094 L546.1094,310.7656 L540.8438,310.7656 L540.8438,313.4375 L545.6094,313.4375 L545.6094,315.5938 L540.8438,315.5938 L540.8438,318.8438 L546.1094,318.8438 L546.1094,321 Z " fill="#000000"/><text fill="#000000" font-family="sans-serif" font-size="14" lengthAdjust="spacing" textLength="86.1465" x="556" y="319.8467">SquareColor</text><line style="stroke:#181818;stroke-width:0.5;" x1="528" x2="644.1465" y1="331" y2="331"/><ellipse cx="538" cy="344.6484" fill="none" rx="3" ry="3" style="stroke:#038048;stroke-width:1;"/><text fill="#000000" font-family="sans-serif" font-size="14" lengthAdjust="spacing" textLength="39.2656" x="547" y="347.9951">DARK</text><ellipse cx="538" cy="360.9453" fill="none" rx="3" ry="3" style="stroke:#038048;stroke-width:1;"/><text fill="#000000" font-family="sans-serif" font-size="14" lengthAdjust="spacing" textLength="41.8564" x="547" y="364.292">LIGHT</text><line style="stroke:#181818;stroke-width:0.5;" x1="528" x2="644.1465" y1="371.5938" y2="371.5938"/></g><!--reverse link BoardRenderer to FieldRenderer--><g class="link" data-entity-1="BoardRenderer" data-entity-2="FieldRenderer" data-source-line="35" data-uid="lnk14" id="link_BoardRenderer_FieldRenderer"><path codeLine="35" d="M1046,557.19 C1046,580.09 1046,599.04 1046,621.91" fill="none" id="BoardRenderer-backto-FieldRenderer" style="stroke:#181818;stroke-width:1;"/><polygon fill="#181818" points="1046,545.19,1042,551.19,1046,557.19,1050,551.19,1046,545.19" style="stroke:#181818;stroke-width:1;"/><text fill="#000000" font-family="sans-serif" font-size="13" lengthAdjust="spacing" textLength="43.1768" x="1047" y="588.0669">render</text></g><!--reverse link ChessBoardRenderer to BoardRenderer--><g class="link" data-entity-1="ChessBoardRenderer" data-entity-2="BoardRenderer" data-source-line="36" data-uid="lnk15" id="link_ChessBoardRenderer_BoardRenderer"><path codeLine="36" d="M1058.577,392.2144 C1055.357,422.8844 1052.22,452.77 1049.25,480.99" fill="none" id="ChessBoardRenderer-backto-BoardRenderer" style="stroke:#181818;stroke-width:1;"/><polygon fill="#181818" points="1059.83,380.28,1055.2254,385.8295,1058.577,392.2144,1063.1816,386.6649,1059.83,380.28" style="stroke:#181818;stroke-width:1;"/><text fill="#000000" font-family="sans-serif" font-size="13" lengthAdjust="spacing" textLength="97.9761" x="1054" y="447.0669">boardRenderer</text></g><!--SRC=[hLDTJy8m57rslwAF8Aw9FlA6A4XK80oUJTjTjfgkrROZCGl-ThkDZqwC6SQtVjnpxZdtj4mGOn1BSMf4ZXanE3CGOoeKNNEJOgg8Zl4m1MDkooKgWejYpK74MrGOIondMnH6oy5YEPz5a-LaDdqPtKzH7qLMSvaSgyEAobqmbU64spIdcAQ2o4H9_genAti8Jd7Ln-4oiAbom5widjK6K0Uz4KsoclVwq05rtNAZU0EIW1s1H9skB-HmoysOP33RWAuhg582Y0osGH2mLWF9UIrp0J86xNWAZ_zJLwTxmIjUbPQAMz3kgj5L3PuByW5wg8JIDxyJ40FOgqQUzRDy7RDkcDkdw5GPTzJAYujWPsTUeVmCcZCw2VM_xNDfGQy9WrQwIwy_HeiAGetLXDaJ2ojUmLh7N5L_bmaopzh0e_USQAYTUkdqxWQBHs_xD1a_B2jYzm3EVTANOOZEdrOVrMC9_lRKsZPjeielxEs3u0i0]--></g></svg>