<svg xmlns="http://www.w3.org/2000/svg" xmlns:xlink="http://www.w3.org/1999/xlink" contentStyleType="text/css" data-diagram-type="CLASS" height="1064px" preserveAspectRatio="none" style="width:2679px;height:1064px;background:#FFFFFF;" version="1.1" viewBox="0 0 2679 1064" width="2679px" zoomAndPan="magnify"><defs/><g><!--cluster ch--><g class="cluster" data-entity="ch" data-source-line="2" data-uid="ent0003" id="cluster_ch"><path d="M8.5,6 L27.7656,6 A3.75,3.75 0 0 1 30.2656,8.5 L37.2656,28.2969 L2669.5,28.2969 A2.5,2.5 0 0 1 2672,30.7969 L2672,1054.5 A2.5,2.5 0 0 1 2669.5,1057 L8.5,1057 A2.5,2.5 0 0 1 6,1054.5 L6,8.5 A2.5,2.5 0 0 1 8.5,6" fill="none" style="stroke:#000000;stroke-width:1.5;"/><line style="stroke:#000000;stroke-width:1.5;" x1="6" x2="37.2656" y1="28.2969" y2="28.2969"/><text fill="#000000" font-family="sans-serif" font-size="14" font-weight="bold" lengthAdjust="spacing" textLength="18.2656" x="10" y="20.9951">ch</text></g><!--cluster hslu--><g class="cluster" data-entity="hslu" data-source-line="2" data-uid="ent0004" id="cluster_hslu"><path d="M32.5,49 L66.5654,49 A3.75,3.75 0 0 1 69.0654,51.5 L76.0654,71.2969 L2645.5,71.2969 A2.5,2.5 0 0 1 2648,73.7969 L2648,1030.5 A2.5,2.5 0 0 1 2645.5,1033 L32.5,1033 A2.5,2.5 0 0 1 30,1030.5 L30,51.5 A2.5,2.5 0 0 1 32.5,49" fill="none" style="stroke:#000000;stroke-width:1.5;"/><line style="stroke:#000000;stroke-width:1.5;" x1="30" x2="76.0654" y1="71.2969" y2="71.2969"/><text fill="#000000" font-family="sans-serif" font-size="14" font-weight="bold" lengthAdjust="spacing" textLength="33.0654" x="34" y="63.9951">hslu</text></g><!--cluster cas--><g class="cluster" data-entity="cas" data-source-line="2" data-uid="ent0005" id="cluster_cas"><path d="M56.5,92 L83.5791,92 A3.75,3.75 0 0 1 86.0791,94.5 L93.0791,114.2969 L2621.5,114.2969 A2.5,2.5 0 0 1 2624,116.7969 L2624,1006.5 A2.5,2.5 0 0 1 2621.5,1009 L56.5,1009 A2.5,2.5 0 0 1 54,1006.5 L54,94.5 A2.5,2.5 0 0 1 56.5,92" fill="none" style="stroke:#000000;stroke-width:1.5;"/><line style="stroke:#000000;stroke-width:1.5;" x1="54" x2="93.0791" y1="114.2969" y2="114.2969"/><text fill="#000000" font-family="sans-serif" font-size="14" font-weight="bold" lengthAdjust="spacing" textLength="26.0791" x="58" y="106.9951">cas</text></g><!--cluster msed--><g class="cluster" data-entity="msed" data-source-line="2" data-uid="ent0006" id="cluster_msed"><path d="M80.5,135 L123.9375,135 A3.75,3.75 0 0 1 126.4375,137.5 L133.4375,157.2969 L2597.5,157.2969 A2.5,2.5 0 0 1 2600,159.7969 L2600,982.5 A2.5,2.5 0 0 1 2597.5,985 L80.5,985 A2.5,2.5 0 0 1 78,982.5 L78,137.5 A2.5,2.5 0 0 1 80.5,135" fill="none" style="stroke:#000000;stroke-width:1.5;"/><line style="stroke:#000000;stroke-width:1.5;" x1="78" x2="133.4375" y1="157.2969" y2="157.2969"/><text fill="#000000" font-family="sans-serif" font-size="14" font-weight="bold" lengthAdjust="spacing" textLength="42.4375" x="82" y="149.9951">msed</text></g><!--cluster blobfish--><g class="cluster" data-entity="blobfish" data-source-line="2" data-uid="ent0007" id="cluster_blobfish"><path d="M104.5,178 L169.1494,178 A3.75,3.75 0 0 1 171.6494,180.5 L178.6494,200.2969 L2573.5,200.2969 A2.5,2.5 0 0 1 2576,202.7969 L2576,958.5 A2.5,2.5 0 0 1 2573.5,961 L104.5,961 A2.5,2.5 0 0 1 102,958.5 L102,180.5 A2.5,2.5 0 0 1 104.5,178" fill="none" style="stroke:#000000;stroke-width:1.5;"/><line style="stroke:#000000;stroke-width:1.5;" x1="102" x2="178.6494" y1="200.2969" y2="200.2969"/><text fill="#000000" font-family="sans-serif" font-size="14" font-weight="bold" lengthAdjust="spacing" textLength="63.6494" x="106" y="192.9951">blobfish</text></g><!--cluster board--><g class="cluster" data-entity="board" data-source-line="2" data-uid="ent0008" id="cluster_board"><path d="M128.5,221 L175.5127,221 A3.75,3.75 0 0 1 178.0127,223.5 L185.0127,243.2969 L2549.5,243.2969 A2.5,2.5 0 0 1 2552,245.7969 L2552,934.5 A2.5,2.5 0 0 1 2549.5,937 L128.5,937 A2.5,2.5 0 0 1 126,934.5 L126,223.5 A2.5,2.5 0 0 1 128.5,221" fill="none" style="stroke:#000000;stroke-width:1.5;"/><line style="stroke:#000000;stroke-width:1.5;" x1="126" x2="185.0127" y1="243.2969" y2="243.2969"/><text fill="#000000" font-family="sans-serif" font-size="14" font-weight="bold" lengthAdjust="spacing" textLength="46.0127" x="130" y="235.9951">board</text></g><!--cluster ui--><g class="cluster" data-entity="ui" data-source-line="15" data-uid="ent0010" id="cluster_ui"><path d="M744.5,278 L760.2656,278 A3.75,3.75 0 0 1 762.7656,280.5 L769.7656,300.2969 L2525.5,300.2969 A2.5,2.5 0 0 1 2528,302.7969 L2528,910.5 A2.5,2.5 0 0 1 2525.5,913 L744.5,913 A2.5,2.5 0 0 1 742,910.5 L742,280.5 A2.5,2.5 0 0 1 744.5,278" fill="none" style="stroke:#000000;stroke-width:1.5;"/><line style="stroke:#000000;stroke-width:1.5;" x1="742" x2="769.7656" y1="300.2969" y2="300.2969"/><text fill="#000000" font-family="sans-serif" font-size="14" font-weight="bold" lengthAdjust="spacing" textLength="14.7656" x="746" y="292.9951">ui</text></g><!--class ChessBoard--><g class="entity" data-entity="ChessBoard" data-source-line="2" data-uid="ent0002" id="entity_ChessBoard"><rect fill="#F1F1F1" height="194.6719" rx="2.5" ry="2.5" style="stroke:#181818;stroke-width:0.5;" width="583.7441" x="142" y="256"/><ellipse cx="388.0015" cy="272" fill="#ADD1B2" rx="11" ry="11" style="stroke:#181818;stroke-width:1;"/><path d="M390.9702,277.6406 Q390.3921,277.9375 389.7515,278.0781 Q389.1108,278.2344 388.4077,278.2344 Q385.9077,278.2344 384.5796,276.5938 Q383.2671,274.9375 383.2671,271.8125 Q383.2671,268.6875 384.5796,267.0313 Q385.9077,265.375 388.4077,265.375 Q389.1108,265.375 389.7515,265.5313 Q390.4077,265.6875 390.9702,265.9844 L390.9702,268.7031 Q390.3452,268.125 389.7515,267.8594 Q389.1577,267.5781 388.5327,267.5781 Q387.189,267.5781 386.5015,268.6563 Q385.814,269.7188 385.814,271.8125 Q385.814,273.9063 386.5015,274.9844 Q387.189,276.0469 388.5327,276.0469 Q389.1577,276.0469 389.7515,275.7813 Q390.3452,275.5 390.9702,274.9219 L390.9702,277.6406 Z " fill="#000000"/><text fill="#000000" font-family="sans-serif" font-size="14" lengthAdjust="spacing" textLength="83.2412" x="408.5015" y="276.8467">ChessBoard</text><line style="stroke:#181818;stroke-width:0.5;" x1="143" x2="724.7441" y1="288" y2="288"/><rect fill="none" height="6" style="stroke:#C82930;stroke-width:1;" width="6" x="150" y="298.6484"/><text fill="#000000" font-family="sans-serif" font-size="14" lengthAdjust="spacing" text-decoration="underline" textLength="201.7148" x="162" y="304.9951">STARTPOSITION_FEN : String</text><rect fill="none" height="6" style="stroke:#C82930;stroke-width:1;" width="6" x="150" y="314.9453"/><text fill="#000000" font-family="sans-serif" font-size="14" lengthAdjust="spacing" textLength="323.6816" x="162" y="321.292">board : com.github.bhlangonijr.chesslib.Board</text><line style="stroke:#181818;stroke-width:0.5;" x1="143" x2="724.7441" y1="328.5938" y2="328.5938"/><ellipse cx="153" cy="342.2422" fill="#84BE84" rx="3" ry="3" style="stroke:#038048;stroke-width:1;"/><text fill="#000000" font-family="sans-serif" font-size="14" lengthAdjust="spacing" textLength="557.7441" x="162" y="345.5889">doMove ( paramString1 : String ) : ch.hslu.cas.msed.blobfish.board.ChessBoard</text><ellipse cx="153" cy="358.5391" fill="#84BE84" rx="3" ry="3" style="stroke:#038048;stroke-width:1;"/><text fill="#000000" font-family="sans-serif" font-size="14" lengthAdjust="spacing" textLength="119.3008" x="162" y="361.8857">getFen () : String</text><ellipse cx="153" cy="374.8359" fill="#84BE84" rx="3" ry="3" style="stroke:#038048;stroke-width:1;"/><text fill="#000000" font-family="sans-serif" font-size="14" lengthAdjust="spacing" textLength="439.8242" x="162" y="378.1826">getSideToMove () : ch.hslu.cas.msed.blobfish.base.PlayerColor</text><ellipse cx="153" cy="391.1328" fill="#84BE84" rx="3" ry="3" style="stroke:#038048;stroke-width:1;"/><text fill="#000000" font-family="sans-serif" font-size="14" lengthAdjust="spacing" textLength="171.5" x="162" y="394.4795">isGameOver () : boolean</text><ellipse cx="153" cy="407.4297" fill="#84BE84" rx="3" ry="3" style="stroke:#038048;stroke-width:1;"/><text fill="#000000" font-family="sans-serif" font-size="14" lengthAdjust="spacing" textLength="139.7949" x="162" y="410.7764">isMated () : boolean</text><ellipse cx="153" cy="423.7266" fill="#84BE84" rx="3" ry="3" style="stroke:#038048;stroke-width:1;"/><text fill="#000000" font-family="sans-serif" font-size="14" lengthAdjust="spacing" textLength="331.8848" x="162" y="427.0732">isMoveLegal ( paramString1 : String ) : boolean</text><ellipse cx="153" cy="440.0234" fill="#84BE84" rx="3" ry="3" style="stroke:#038048;stroke-width:1;"/><text fill="#000000" font-family="sans-serif" font-size="14" lengthAdjust="spacing" textLength="192.5342" x="162" y="443.3701">legalMoves () : java.util.List</text></g><!--class AlphanumericBorderFieldRenderer--><g class="entity" data-entity="AlphanumericBorderFieldRenderer" data-source-line="15" data-uid="ent0009" id="entity_AlphanumericBorderFieldRenderer"><rect fill="#F1F1F1" height="210.9688" rx="2.5" ry="2.5" style="stroke:#181818;stroke-width:0.5;" width="674.6826" x="1836.5" y="528"/><ellipse cx="2048.3423" cy="544" fill="#ADD1B2" rx="11" ry="11" style="stroke:#181818;stroke-width:1;"/><path d="M2051.311,549.6406 Q2050.7329,549.9375 2050.0923,550.0781 Q2049.4517,550.2344 2048.7485,550.2344 Q2046.2485,550.2344 2044.9204,548.5938 Q2043.6079,546.9375 2043.6079,543.8125 Q2043.6079,540.6875 2044.9204,539.0313 Q2046.2485,537.375 2048.7485,537.375 Q2049.4517,537.375 2050.0923,537.5313 Q2050.7485,537.6875 2051.311,537.9844 L2051.311,540.7031 Q2050.686,540.125 2050.0923,539.8594 Q2049.4985,539.5781 2048.8735,539.5781 Q2047.5298,539.5781 2046.8423,540.6563 Q2046.1548,541.7188 2046.1548,543.8125 Q2046.1548,545.9063 2046.8423,546.9844 Q2047.5298,548.0469 2048.8735,548.0469 Q2049.4985,548.0469 2050.0923,547.7813 Q2050.686,547.5 2051.311,546.9219 L2051.311,549.6406 Z " fill="#000000"/><text fill="#000000" font-family="sans-serif" font-size="14" lengthAdjust="spacing" textLength="242.498" x="2068.8423" y="548.8467">AlphanumericBorderFieldRenderer</text><line style="stroke:#181818;stroke-width:0.5;" x1="1837.5" x2="2510.1826" y1="560" y2="560"/><ellipse cx="1847.5" cy="573.6484" fill="none" rx="3" ry="3" style="stroke:#038048;stroke-width:1;"/><text fill="#000000" font-family="sans-serif" font-size="14" lengthAdjust="spacing" text-decoration="underline" textLength="132.1934" x="1856.5" y="576.9951">BG_COLOR : String</text><ellipse cx="1847.5" cy="589.9453" fill="none" rx="3" ry="3" style="stroke:#038048;stroke-width:1;"/><text fill="#000000" font-family="sans-serif" font-size="14" lengthAdjust="spacing" text-decoration="underline" textLength="130.6416" x="1856.5" y="593.292">FG_COLOR : String</text><ellipse cx="1847.5" cy="606.2422" fill="none" rx="3" ry="3" style="stroke:#038048;stroke-width:1;"/><text fill="#000000" font-family="sans-serif" font-size="14" lengthAdjust="spacing" text-decoration="underline" textLength="240.748" x="1856.5" y="609.5889">PLACEHOLDER_CHARACTER : char</text><ellipse cx="1847.5" cy="622.5391" fill="none" rx="3" ry="3" style="stroke:#038048;stroke-width:1;"/><text fill="#000000" font-family="sans-serif" font-size="14" lengthAdjust="spacing" text-decoration="underline" textLength="214.8809" x="1856.5" y="625.8857">PLACEHOLDER_COLOR : String</text><ellipse cx="1847.5" cy="638.8359" fill="none" rx="3" ry="3" style="stroke:#038048;stroke-width:1;"/><text fill="#000000" font-family="sans-serif" font-size="14" lengthAdjust="spacing" text-decoration="underline" textLength="100.2559" x="1856.5" y="642.1826">RESET : String</text><ellipse cx="1847.5" cy="655.1328" fill="none" rx="3" ry="3" style="stroke:#038048;stroke-width:1;"/><text fill="#000000" font-family="sans-serif" font-size="14" lengthAdjust="spacing" text-decoration="underline" textLength="202.501" x="1856.5" y="658.4795">ROW_STRING_WHITE : String</text><line style="stroke:#181818;stroke-width:0.5;" x1="1837.5" x2="2510.1826" y1="665.7813" y2="665.7813"/><ellipse cx="1847.5" cy="679.4297" fill="#84BE84" rx="3" ry="3" style="stroke:#038048;stroke-width:1;"/><text fill="#000000" font-family="sans-serif" font-size="14" lengthAdjust="spacing" textLength="317.584" x="1856.5" y="682.7764">renderColumnField ( paramint1 : int ) : String</text><rect fill="#F24D5C" height="6" style="stroke:#C82930;stroke-width:1;" width="6" x="1844.5" y="692.7266"/><text fill="#000000" font-family="sans-serif" font-size="14" lengthAdjust="spacing" text-decoration="underline" textLength="195.7471" x="1856.5" y="699.0732">renderEmptyField () : String</text><ellipse cx="1847.5" cy="712.0234" fill="#84BE84" rx="3" ry="3" style="stroke:#038048;stroke-width:1;"/><text fill="#000000" font-family="sans-serif" font-size="14" lengthAdjust="spacing" textLength="606.9014" x="1856.5" y="715.3701">renderRow ( paramPlayerColor1 : ch.hslu.cas.msed.blobfish.base.PlayerColor ) : String</text><rect fill="#F24D5C" height="6" style="stroke:#C82930;stroke-width:1;" width="6" x="1844.5" y="725.3203"/><text fill="#000000" font-family="sans-serif" font-size="14" lengthAdjust="spacing" text-decoration="underline" textLength="648.6826" x="1856.5" y="731.667">renderRowString ( paramPlayerColor1 : ch.hslu.cas.msed.blobfish.base.PlayerColor ) : String</text></g><!--class BoardRenderer--><g class="entity" data-entity="BoardRenderer" data-source-line="29" data-uid="ent0011" id="entity_BoardRenderer"><rect fill="#F1F1F1" height="64.2969" rx="2.5" ry="2.5" style="stroke:#181818;stroke-width:0.5;" width="1042.832" x="758.5" y="601.5"/><ellipse cx="1222.5508" cy="617.5" fill="#ADD1B2" rx="11" ry="11" style="stroke:#181818;stroke-width:1;"/><path d="M1225.5195,623.1406 Q1224.9414,623.4375 1224.3008,623.5781 Q1223.6602,623.7344 1222.957,623.7344 Q1220.457,623.7344 1219.1289,622.0938 Q1217.8164,620.4375 1217.8164,617.3125 Q1217.8164,614.1875 1219.1289,612.5313 Q1220.457,610.875 1222.957,610.875 Q1223.6602,610.875 1224.3008,611.0313 Q1224.957,611.1875 1225.5195,611.4844 L1225.5195,614.2031 Q1224.8945,613.625 1224.3008,613.3594 Q1223.707,613.0781 1223.082,613.0781 Q1221.7383,613.0781 1221.0508,614.1563 Q1220.3633,615.2188 1220.3633,617.3125 Q1220.3633,619.4063 1221.0508,620.4844 Q1221.7383,621.5469 1223.082,621.5469 Q1223.707,621.5469 1224.3008,621.2813 Q1224.8945,621 1225.5195,620.4219 L1225.5195,623.1406 Z " fill="#000000"/><text fill="#000000" font-family="sans-serif" font-size="14" lengthAdjust="spacing" textLength="106.2305" x="1243.0508" y="622.3467">BoardRenderer</text><line style="stroke:#181818;stroke-width:0.5;" x1="759.5" x2="1800.332" y1="633.5" y2="633.5"/><line style="stroke:#181818;stroke-width:0.5;" x1="759.5" x2="1800.332" y1="641.5" y2="641.5"/><polygon fill="#4177AF" points="769.5,651.1484,765.5,657.1484,773.5,657.1484" style="stroke:#1963A0;stroke-width:1;"/><text fill="#000000" font-family="sans-serif" font-size="14" lengthAdjust="spacing" textLength="1016.832" x="778.5" y="658.4951">render ( paramUiBoard1 : ch.hslu.cas.msed.blobfish.board.ui.UiBoard , paramPlayerColor2 : ch.hslu.cas.msed.blobfish.base.PlayerColor ) : String</text></g><!--class BorderFieldRenderer--><g class="entity" data-entity="BorderFieldRenderer" data-source-line="34" data-uid="ent0012" id="entity_BorderFieldRenderer"><rect fill="#F1F1F1" height="80.5938" rx="2.5" ry="2.5" style="stroke:#181818;stroke-width:0.5;" width="632.9014" x="1726.5" y="816"/><ellipse cx="1966.0244" cy="832" fill="#B4A7E5" rx="11" ry="11" style="stroke:#181818;stroke-width:1;"/><path d="M1961.9463,827.7656 L1961.9463,825.6094 L1969.3369,825.6094 L1969.3369,827.7656 L1966.8682,827.7656 L1966.8682,835.8438 L1969.3369,835.8438 L1969.3369,838 L1961.9463,838 L1961.9463,835.8438 L1964.415,835.8438 L1964.415,827.7656 L1961.9463,827.7656 Z " fill="#000000"/><text fill="#000000" font-family="sans-serif" font-size="14" font-style="italic" lengthAdjust="spacing" textLength="145.3525" x="1986.5244" y="836.8467">BorderFieldRenderer</text><line style="stroke:#181818;stroke-width:0.5;" x1="1727.5" x2="2358.4014" y1="848" y2="848"/><line style="stroke:#181818;stroke-width:0.5;" x1="1727.5" x2="2358.4014" y1="856" y2="856"/><ellipse cx="1737.5" cy="869.6484" fill="#84BE84" rx="3" ry="3" style="stroke:#038048;stroke-width:1;"/><text fill="#000000" font-family="sans-serif" font-size="14" font-style="italic" lengthAdjust="spacing" textLength="317.584" x="1746.5" y="872.9951">renderColumnField ( paramint1 : int ) : String</text><ellipse cx="1737.5" cy="885.9453" fill="#84BE84" rx="3" ry="3" style="stroke:#038048;stroke-width:1;"/><text fill="#000000" font-family="sans-serif" font-size="14" font-style="italic" lengthAdjust="spacing" textLength="606.9014" x="1746.5" y="889.292">renderRow ( paramPlayerColor1 : ch.hslu.cas.msed.blobfish.base.PlayerColor ) : String</text></g><!--class ChessBoardRenderer--><g class="entity" data-entity="ChessBoardRenderer" data-source-line="40" data-uid="ent0013" id="entity_ChessBoardRenderer"><rect fill="#F1F1F1" height="80.5938" rx="2.5" ry="2.5" style="stroke:#181818;stroke-width:0.5;" width="768.0342" x="914" y="313"/><ellipse cx="1219.7271" cy="329" fill="#ADD1B2" rx="11" ry="11" style="stroke:#181818;stroke-width:1;"/><path d="M1222.6958,334.6406 Q1222.1177,334.9375 1221.4771,335.0781 Q1220.8364,335.2344 1220.1333,335.2344 Q1217.6333,335.2344 1216.3052,333.5938 Q1214.9927,331.9375 1214.9927,328.8125 Q1214.9927,325.6875 1216.3052,324.0313 Q1217.6333,322.375 1220.1333,322.375 Q1220.8364,322.375 1221.4771,322.5313 Q1222.1333,322.6875 1222.6958,322.9844 L1222.6958,325.7031 Q1222.0708,325.125 1221.4771,324.8594 Q1220.8833,324.5781 1220.2583,324.5781 Q1218.9146,324.5781 1218.2271,325.6563 Q1217.5396,326.7188 1217.5396,328.8125 Q1217.5396,330.9063 1218.2271,331.9844 Q1218.9146,333.0469 1220.2583,333.0469 Q1220.8833,333.0469 1221.4771,332.7813 Q1222.0708,332.5 1222.6958,331.9219 L1222.6958,334.6406 Z " fill="#000000"/><text fill="#000000" font-family="sans-serif" font-size="14" lengthAdjust="spacing" textLength="148.0801" x="1240.2271" y="333.8467">ChessBoardRenderer</text><line style="stroke:#181818;stroke-width:0.5;" x1="915" x2="1681.0342" y1="345" y2="345"/><rect fill="none" height="6" style="stroke:#C82930;stroke-width:1;" width="6" x="922" y="355.6484"/><text fill="#000000" font-family="sans-serif" font-size="14" lengthAdjust="spacing" textLength="431.3135" x="934" y="361.9951">parser : ch.hslu.cas.msed.blobfish.board.ui.FenUiBoardParser</text><line style="stroke:#181818;stroke-width:0.5;" x1="915" x2="1681.0342" y1="369.2969" y2="369.2969"/><ellipse cx="925" cy="382.9453" fill="#84BE84" rx="3" ry="3" style="stroke:#038048;stroke-width:1;"/><text fill="#000000" font-family="sans-serif" font-size="14" lengthAdjust="spacing" textLength="742.0342" x="934" y="386.292">render ( paramString1 : String , paramPlayerColor2 : ch.hslu.cas.msed.blobfish.base.PlayerColor ) : String</text></g><!--class FieldRenderer--><g class="entity" data-entity="FieldRenderer" data-source-line="46" data-uid="ent0014" id="entity_FieldRenderer"><rect fill="#F1F1F1" height="64.2969" rx="2.5" ry="2.5" style="stroke:#181818;stroke-width:0.5;" width="562.375" x="999" y="824.5"/><ellipse cx="1226.8521" cy="840.5" fill="#B4A7E5" rx="11" ry="11" style="stroke:#181818;stroke-width:1;"/><path d="M1222.7739,836.2656 L1222.7739,834.1094 L1230.1646,834.1094 L1230.1646,836.2656 L1227.6958,836.2656 L1227.6958,844.3438 L1230.1646,844.3438 L1230.1646,846.5 L1222.7739,846.5 L1222.7739,844.3438 L1225.2427,844.3438 L1225.2427,836.2656 L1222.7739,836.2656 Z " fill="#000000"/><text fill="#000000" font-family="sans-serif" font-size="14" font-style="italic" lengthAdjust="spacing" textLength="98.1709" x="1247.3521" y="845.3467">FieldRenderer</text><line style="stroke:#181818;stroke-width:0.5;" x1="1000" x2="1560.375" y1="856.5" y2="856.5"/><line style="stroke:#181818;stroke-width:0.5;" x1="1000" x2="1560.375" y1="864.5" y2="864.5"/><ellipse cx="1010" cy="878.1484" fill="#84BE84" rx="3" ry="3" style="stroke:#038048;stroke-width:1;"/><text fill="#000000" font-family="sans-serif" font-size="14" font-style="italic" lengthAdjust="spacing" textLength="536.375" x="1019" y="881.4951">render ( paramUiField1 : ch.hslu.cas.msed.blobfish.board.ui.UiField ) : String</text></g><!--class SquareColor--><g class="entity" data-entity="SquareColor" data-source-line="51" data-uid="ent0015" id="entity_SquareColor"><rect fill="#F1F1F1" height="80.5938" rx="2.5" ry="2.5" style="stroke:#181818;stroke-width:0.5;" width="118.1465" x="761" y="313"/><ellipse cx="776" cy="329" fill="#EB937F" rx="11" ry="11" style="stroke:#181818;stroke-width:1;"/><path d="M780.1094,335 L772.3906,335 L772.3906,322.6094 L780.1094,322.6094 L780.1094,324.7656 L774.8438,324.7656 L774.8438,327.4375 L779.6094,327.4375 L779.6094,329.5938 L774.8438,329.5938 L774.8438,332.8438 L780.1094,332.8438 L780.1094,335 Z " fill="#000000"/><text fill="#000000" font-family="sans-serif" font-size="14" lengthAdjust="spacing" textLength="86.1465" x="790" y="333.8467">SquareColor</text><line style="stroke:#181818;stroke-width:0.5;" x1="762" x2="878.1465" y1="345" y2="345"/><ellipse cx="772" cy="358.6484" fill="none" rx="3" ry="3" style="stroke:#038048;stroke-width:1;"/><text fill="#000000" font-family="sans-serif" font-size="14" lengthAdjust="spacing" textLength="39.2656" x="781" y="361.9951">DARK</text><ellipse cx="772" cy="374.9453" fill="none" rx="3" ry="3" style="stroke:#038048;stroke-width:1;"/><text fill="#000000" font-family="sans-serif" font-size="14" lengthAdjust="spacing" textLength="41.8564" x="781" y="378.292">LIGHT</text><line style="stroke:#181818;stroke-width:0.5;" x1="762" x2="878.1465" y1="385.5938" y2="385.5938"/></g><!--link AlphanumericBorderFieldRenderer to BorderFieldRenderer--><g class="link" data-entity-1="AlphanumericBorderFieldRenderer" data-entity-2="BorderFieldRenderer" data-source-line="59" data-uid="lnk16" id="link_AlphanumericBorderFieldRenderer_BorderFieldRenderer"><path codeLine="59" d="M2111.95,739.18 C2095.75,766.51 2088.4506,778.8372 2075.6606,800.4072" fill="none" id="AlphanumericBorderFieldRenderer-to-BorderFieldRenderer" style="stroke:#181818;stroke-width:1;stroke-dasharray:7,7;"/><polygon fill="none" points="2066.48,815.89,2080.8215,803.4674,2070.4996,797.347,2066.48,815.89" style="stroke:#181818;stroke-width:1;"/></g><!--reverse link BoardRenderer to BorderFieldRenderer--><g class="link" data-entity-1="BoardRenderer" data-entity-2="BorderFieldRenderer" data-source-line="60" data-uid="lnk17" id="link_BoardRenderer_BorderFieldRenderer"><path codeLine="60" d="M1398.8262,668.9185 C1534.7862,708.2985 1757.76,772.88 1906.38,815.93" fill="none" id="BoardRenderer-backto-BorderFieldRenderer" style="stroke:#181818;stroke-width:1;"/><polygon fill="#181818" points="1387.3,665.58,1391.9503,671.0913,1398.8262,668.9185,1394.176,663.4072,1387.3,665.58" style="stroke:#181818;stroke-width:1;"/><text fill="#000000" font-family="sans-serif" font-size="13" lengthAdjust="spacing" textLength="134.3037" x="1797" y="782.0669">borderFieldRenderer</text></g><!--reverse link BoardRenderer to FieldRenderer--><g class="link" data-entity-1="BoardRenderer" data-entity-2="FieldRenderer" data-source-line="61" data-uid="lnk18" id="link_BoardRenderer_FieldRenderer"><path codeLine="61" d="M1280,677.7 C1280,719.81 1280,782.43 1280,824.46" fill="none" id="BoardRenderer-backto-FieldRenderer" style="stroke:#181818;stroke-width:1;"/><polygon fill="#181818" points="1280,665.7,1276,671.7,1280,677.7,1284,671.7,1280,665.7" style="stroke:#181818;stroke-width:1;"/><text fill="#000000" font-family="sans-serif" font-size="13" lengthAdjust="spacing" textLength="88.2578" x="1281" y="782.0669">fieldRenderer</text></g><!--reverse link ChessBoardRenderer to BoardRenderer--><g class="link" data-entity-1="ChessBoardRenderer" data-entity-2="BoardRenderer" data-source-line="62" data-uid="lnk19" id="link_ChessBoardRenderer_BoardRenderer"><path codeLine="62" d="M1294.6647,406.0149 C1291.0547,461.7749 1285.31,550.42 1282.02,601.27" fill="none" id="ChessBoardRenderer-backto-BoardRenderer" style="stroke:#181818;stroke-width:1;"/><polygon fill="#181818" points="1295.44,394.04,1291.0607,399.769,1294.6647,406.0149,1299.044,400.2859,1295.44,394.04" style="stroke:#181818;stroke-width:1;"/><text fill="#000000" font-family="sans-serif" font-size="13" lengthAdjust="spacing" textLength="97.9761" x="1290" y="494.0669">boardRenderer</text></g><!--SRC=[nLLDZvim43sNN-7ZfjjOIeyzL28i-L3P406hFKO69i4hWrFRf5gbwM-lWQHXDpI1pQez1UAPzsRytWmH8rAYAC69P3cEYCIfX1Y7Z8TBAXCSSY9YR2KWvR1uH5lZmtP9WSKxj9MAA1hjKDyFJ2-Ok_uqcBgpnSYUeI_8Lu9cgsDqluJI1n5FyOgg90znc32IhNX6dmIE2Wv6GrpowBmKLC9ructCx_a6q0rQ4q7I2dVmXm7r2ipM3TI1Lw16aA6RNhtS-gbFOmZsx1TeY0GyP-GPXCKP5tKWAiSa1NS3ea89EMT0ifSXzqH1VEvS5-70Yh2pzz2Goega8bjMw4zaGt2kACCEbShO6OOHjJ91Jh79rWd9yXG4ZOPSn216XRWUPFfHjzTaZjlXU66vZkirUE8OD6eJD7TCovwupftjBQo9wPbMO7kbB4HSZB-8xjc-7PoFS1yNVk1DP-F5usGQs8ss4ULbQ1FaQLRUpa4mcgb2BVs36WrNcwSAmqxNwdaFqJl3vV4V1uwQ0mUT_Dgo94srTzjx4dRoO3d5BnntgFPNLUEXj0TQXWvQh0SDkuz6dqxw-dnLNrfk44iIGRlUccVgg0S9fH8aKjSPxGJblItKIT7ZScvQ97rTbTH_jL9Hh_EzaFCowtHO_he-_wlmdIG_6hnCQstmoYIloWIzpjka-zzp8g3gjARExPtfVQkzEjFn92Y1jG6k_w1W_FChUkFa69sNoST-_wravRVt7vRmcdpPbRPXwDgtNyyg6g-z6yPl]--></g></svg>