<svg xmlns="http://www.w3.org/2000/svg" xmlns:xlink="http://www.w3.org/1999/xlink" contentStyleType="text/css" data-diagram-type="CLASS" height="861px" preserveAspectRatio="none" style="width:1735px;height:861px;background:#FFFFFF;" version="1.1" viewBox="0 0 1735 861" width="1735px" zoomAndPan="magnify"><defs/><g><!--cluster ch--><g class="cluster" data-entity="ch" data-source-line="2" data-uid="ent0003" id="cluster_ch"><path d="M8.5,6 L27.7656,6 A3.75,3.75 0 0 1 30.2656,8.5 L37.2656,28.2969 L1725.5,28.2969 A2.5,2.5 0 0 1 1728,30.7969 L1728,852 A2.5,2.5 0 0 1 1725.5,854.5 L8.5,854.5 A2.5,2.5 0 0 1 6,852 L6,8.5 A2.5,2.5 0 0 1 8.5,6" fill="none" style="stroke:#000000;stroke-width:1.5;"/><line style="stroke:#000000;stroke-width:1.5;" x1="6" x2="37.2656" y1="28.2969" y2="28.2969"/><text fill="#000000" font-family="sans-serif" font-size="14" font-weight="bold" lengthAdjust="spacing" textLength="18.2656" x="10" y="20.9951">ch</text></g><!--cluster hslu--><g class="cluster" data-entity="hslu" data-source-line="2" data-uid="ent0004" id="cluster_hslu"><path d="M32.5,49 L66.5654,49 A3.75,3.75 0 0 1 69.0654,51.5 L76.0654,71.2969 L1701.5,71.2969 A2.5,2.5 0 0 1 1704,73.7969 L1704,828 A2.5,2.5 0 0 1 1701.5,830.5 L32.5,830.5 A2.5,2.5 0 0 1 30,828 L30,51.5 A2.5,2.5 0 0 1 32.5,49" fill="none" style="stroke:#000000;stroke-width:1.5;"/><line style="stroke:#000000;stroke-width:1.5;" x1="30" x2="76.0654" y1="71.2969" y2="71.2969"/><text fill="#000000" font-family="sans-serif" font-size="14" font-weight="bold" lengthAdjust="spacing" textLength="33.0654" x="34" y="63.9951">hslu</text></g><!--cluster cas--><g class="cluster" data-entity="cas" data-source-line="2" data-uid="ent0005" id="cluster_cas"><path d="M56.5,92 L83.5791,92 A3.75,3.75 0 0 1 86.0791,94.5 L93.0791,114.2969 L1677.5,114.2969 A2.5,2.5 0 0 1 1680,116.7969 L1680,804 A2.5,2.5 0 0 1 1677.5,806.5 L56.5,806.5 A2.5,2.5 0 0 1 54,804 L54,94.5 A2.5,2.5 0 0 1 56.5,92" fill="none" style="stroke:#000000;stroke-width:1.5;"/><line style="stroke:#000000;stroke-width:1.5;" x1="54" x2="93.0791" y1="114.2969" y2="114.2969"/><text fill="#000000" font-family="sans-serif" font-size="14" font-weight="bold" lengthAdjust="spacing" textLength="26.0791" x="58" y="106.9951">cas</text></g><!--cluster msed--><g class="cluster" data-entity="msed" data-source-line="2" data-uid="ent0006" id="cluster_msed"><path d="M80.5,135 L123.9375,135 A3.75,3.75 0 0 1 126.4375,137.5 L133.4375,157.2969 L1653.5,157.2969 A2.5,2.5 0 0 1 1656,159.7969 L1656,780 A2.5,2.5 0 0 1 1653.5,782.5 L80.5,782.5 A2.5,2.5 0 0 1 78,780 L78,137.5 A2.5,2.5 0 0 1 80.5,135" fill="none" style="stroke:#000000;stroke-width:1.5;"/><line style="stroke:#000000;stroke-width:1.5;" x1="78" x2="133.4375" y1="157.2969" y2="157.2969"/><text fill="#000000" font-family="sans-serif" font-size="14" font-weight="bold" lengthAdjust="spacing" textLength="42.4375" x="82" y="149.9951">msed</text></g><!--cluster blobfish--><g class="cluster" data-entity="blobfish" data-source-line="2" data-uid="ent0007" id="cluster_blobfish"><path d="M104.5,178 L169.1494,178 A3.75,3.75 0 0 1 171.6494,180.5 L178.6494,200.2969 L1629.5,200.2969 A2.5,2.5 0 0 1 1632,202.7969 L1632,756 A2.5,2.5 0 0 1 1629.5,758.5 L104.5,758.5 A2.5,2.5 0 0 1 102,756 L102,180.5 A2.5,2.5 0 0 1 104.5,178" fill="none" style="stroke:#000000;stroke-width:1.5;"/><line style="stroke:#000000;stroke-width:1.5;" x1="102" x2="178.6494" y1="200.2969" y2="200.2969"/><text fill="#000000" font-family="sans-serif" font-size="14" font-weight="bold" lengthAdjust="spacing" textLength="63.6494" x="106" y="192.9951">blobfish</text></g><!--cluster board--><g class="cluster" data-entity="board" data-source-line="2" data-uid="ent0008" id="cluster_board"><path d="M128.5,221 L175.5127,221 A3.75,3.75 0 0 1 178.0127,223.5 L185.0127,243.2969 L1605.5,243.2969 A2.5,2.5 0 0 1 1608,245.7969 L1608,732 A2.5,2.5 0 0 1 1605.5,734.5 L128.5,734.5 A2.5,2.5 0 0 1 126,732 L126,223.5 A2.5,2.5 0 0 1 128.5,221" fill="none" style="stroke:#000000;stroke-width:1.5;"/><line style="stroke:#000000;stroke-width:1.5;" x1="126" x2="185.0127" y1="243.2969" y2="243.2969"/><text fill="#000000" font-family="sans-serif" font-size="14" font-weight="bold" lengthAdjust="spacing" textLength="46.0127" x="130" y="235.9951">board</text></g><!--cluster ui--><g class="cluster" data-entity="ui" data-source-line="12" data-uid="ent0010" id="cluster_ui"><path d="M510.5,264 L526.2656,264 A3.75,3.75 0 0 1 528.7656,266.5 L535.7656,286.2969 L1581.5,286.2969 A2.5,2.5 0 0 1 1584,288.7969 L1584,708 A2.5,2.5 0 0 1 1581.5,710.5 L510.5,710.5 A2.5,2.5 0 0 1 508,708 L508,266.5 A2.5,2.5 0 0 1 510.5,264" fill="none" style="stroke:#000000;stroke-width:1.5;"/><line style="stroke:#000000;stroke-width:1.5;" x1="508" x2="535.7656" y1="286.2969" y2="286.2969"/><text fill="#000000" font-family="sans-serif" font-size="14" font-weight="bold" lengthAdjust="spacing" textLength="14.7656" x="512" y="278.9951">ui</text></g><!--class ChessBoard--><g class="entity" data-entity="ChessBoard" data-source-line="2" data-uid="ent0002" id="entity_ChessBoard"><rect fill="#F1F1F1" height="145.7813" rx="2.5" ry="2.5" style="stroke:#181818;stroke-width:0.5;" width="349.6816" x="142" y="266.5"/><ellipse cx="270.9702" cy="282.5" fill="#ADD1B2" rx="11" ry="11" style="stroke:#181818;stroke-width:1;"/><path d="M273.939,288.1406 Q273.3608,288.4375 272.7202,288.5781 Q272.0796,288.7344 271.3765,288.7344 Q268.8765,288.7344 267.5483,287.0938 Q266.2358,285.4375 266.2358,282.3125 Q266.2358,279.1875 267.5483,277.5313 Q268.8765,275.875 271.3765,275.875 Q272.0796,275.875 272.7202,276.0313 Q273.3765,276.1875 273.939,276.4844 L273.939,279.2031 Q273.314,278.625 272.7202,278.3594 Q272.1265,278.0781 271.5015,278.0781 Q270.1577,278.0781 269.4702,279.1563 Q268.7827,280.2188 268.7827,282.3125 Q268.7827,284.4063 269.4702,285.4844 Q270.1577,286.5469 271.5015,286.5469 Q272.1265,286.5469 272.7202,286.2813 Q273.314,286 273.939,285.4219 L273.939,288.1406 Z " fill="#000000"/><text fill="#000000" font-family="sans-serif" font-size="14" lengthAdjust="spacing" textLength="83.2412" x="291.4702" y="287.3467">ChessBoard</text><line style="stroke:#181818;stroke-width:0.5;" x1="143" x2="490.6816" y1="298.5" y2="298.5"/><rect fill="none" height="6" style="stroke:#C82930;stroke-width:1;" width="6" x="150" y="309.1484"/><text fill="#000000" font-family="sans-serif" font-size="14" lengthAdjust="spacing" text-decoration="underline" textLength="201.7148" x="162" y="315.4951">STARTPOSITION_FEN : String</text><rect fill="none" height="6" style="stroke:#C82930;stroke-width:1;" width="6" x="150" y="325.4453"/><text fill="#000000" font-family="sans-serif" font-size="14" lengthAdjust="spacing" textLength="323.6816" x="162" y="331.792">board : com.github.bhlangonijr.chesslib.Board</text><line style="stroke:#181818;stroke-width:0.5;" x1="143" x2="490.6816" y1="339.0938" y2="339.0938"/><ellipse cx="153" cy="352.7422" fill="#84BE84" rx="3" ry="3" style="stroke:#038048;stroke-width:1;"/><text fill="#000000" font-family="sans-serif" font-size="14" lengthAdjust="spacing" textLength="274.0391" x="162" y="356.0889">doMove ( paramString1 : String ) : void</text><ellipse cx="153" cy="369.0391" fill="#84BE84" rx="3" ry="3" style="stroke:#038048;stroke-width:1;"/><text fill="#000000" font-family="sans-serif" font-size="14" lengthAdjust="spacing" textLength="173.5645" x="162" y="372.3857">getEvaluation () : double</text><ellipse cx="153" cy="385.3359" fill="#84BE84" rx="3" ry="3" style="stroke:#038048;stroke-width:1;"/><text fill="#000000" font-family="sans-serif" font-size="14" lengthAdjust="spacing" textLength="119.3008" x="162" y="388.6826">getFen () : String</text><ellipse cx="153" cy="401.6328" fill="#84BE84" rx="3" ry="3" style="stroke:#038048;stroke-width:1;"/><text fill="#000000" font-family="sans-serif" font-size="14" lengthAdjust="spacing" textLength="171.5" x="162" y="404.9795">isGameOver () : boolean</text></g><!--class BoardRenderer--><g class="entity" data-entity="BoardRenderer" data-source-line="12" data-uid="ent0009" id="entity_BoardRenderer"><rect fill="#F1F1F1" height="64.2969" rx="2.5" ry="2.5" style="stroke:#181818;stroke-width:0.5;" width="1042.832" x="524.5" y="489.5"/><ellipse cx="988.5508" cy="505.5" fill="#ADD1B2" rx="11" ry="11" style="stroke:#181818;stroke-width:1;"/><path d="M991.5195,511.1406 Q990.9414,511.4375 990.3008,511.5781 Q989.6602,511.7344 988.957,511.7344 Q986.457,511.7344 985.1289,510.0938 Q983.8164,508.4375 983.8164,505.3125 Q983.8164,502.1875 985.1289,500.5313 Q986.457,498.875 988.957,498.875 Q989.6602,498.875 990.3008,499.0313 Q990.957,499.1875 991.5195,499.4844 L991.5195,502.2031 Q990.8945,501.625 990.3008,501.3594 Q989.707,501.0781 989.082,501.0781 Q987.7383,501.0781 987.0508,502.1563 Q986.3633,503.2188 986.3633,505.3125 Q986.3633,507.4063 987.0508,508.4844 Q987.7383,509.5469 989.082,509.5469 Q989.707,509.5469 990.3008,509.2813 Q990.8945,509 991.5195,508.4219 L991.5195,511.1406 Z " fill="#000000"/><text fill="#000000" font-family="sans-serif" font-size="14" lengthAdjust="spacing" textLength="106.2305" x="1009.0508" y="510.3467">BoardRenderer</text><line style="stroke:#181818;stroke-width:0.5;" x1="525.5" x2="1566.332" y1="521.5" y2="521.5"/><line style="stroke:#181818;stroke-width:0.5;" x1="525.5" x2="1566.332" y1="529.5" y2="529.5"/><polygon fill="#4177AF" points="535.5,539.1484,531.5,545.1484,539.5,545.1484" style="stroke:#1963A0;stroke-width:1;"/><text fill="#000000" font-family="sans-serif" font-size="14" lengthAdjust="spacing" textLength="1016.832" x="544.5" y="546.4951">render ( paramUiBoard1 : ch.hslu.cas.msed.blobfish.board.ui.UiBoard , paramPlayerColor2 : ch.hslu.cas.msed.blobfish.base.PlayerColor ) : String</text></g><!--class ChessBoardRenderer--><g class="entity" data-entity="ChessBoardRenderer" data-source-line="17" data-uid="ent0011" id="entity_ChessBoardRenderer"><rect fill="#F1F1F1" height="80.5938" rx="2.5" ry="2.5" style="stroke:#181818;stroke-width:0.5;" width="768.0342" x="680" y="299"/><ellipse cx="985.7271" cy="315" fill="#ADD1B2" rx="11" ry="11" style="stroke:#181818;stroke-width:1;"/><path d="M988.6958,320.6406 Q988.1177,320.9375 987.4771,321.0781 Q986.8364,321.2344 986.1333,321.2344 Q983.6333,321.2344 982.3052,319.5938 Q980.9927,317.9375 980.9927,314.8125 Q980.9927,311.6875 982.3052,310.0313 Q983.6333,308.375 986.1333,308.375 Q986.8364,308.375 987.4771,308.5313 Q988.1333,308.6875 988.6958,308.9844 L988.6958,311.7031 Q988.0708,311.125 987.4771,310.8594 Q986.8833,310.5781 986.2583,310.5781 Q984.9146,310.5781 984.2271,311.6563 Q983.5396,312.7188 983.5396,314.8125 Q983.5396,316.9063 984.2271,317.9844 Q984.9146,319.0469 986.2583,319.0469 Q986.8833,319.0469 987.4771,318.7813 Q988.0708,318.5 988.6958,317.9219 L988.6958,320.6406 Z " fill="#000000"/><text fill="#000000" font-family="sans-serif" font-size="14" lengthAdjust="spacing" textLength="148.0801" x="1006.2271" y="319.8467">ChessBoardRenderer</text><line style="stroke:#181818;stroke-width:0.5;" x1="681" x2="1447.0342" y1="331" y2="331"/><rect fill="none" height="6" style="stroke:#C82930;stroke-width:1;" width="6" x="688" y="341.6484"/><text fill="#000000" font-family="sans-serif" font-size="14" lengthAdjust="spacing" textLength="417.1768" x="700" y="347.9951">parser : ch.hslu.cas.msed.blobfish.board.ui.FenBoardParser</text><line style="stroke:#181818;stroke-width:0.5;" x1="681" x2="1447.0342" y1="355.2969" y2="355.2969"/><ellipse cx="691" cy="368.9453" fill="#84BE84" rx="3" ry="3" style="stroke:#038048;stroke-width:1;"/><text fill="#000000" font-family="sans-serif" font-size="14" lengthAdjust="spacing" textLength="742.0342" x="700" y="372.292">render ( paramString1 : String , paramPlayerColor2 : ch.hslu.cas.msed.blobfish.base.PlayerColor ) : String</text></g><!--class FieldRenderer--><g class="entity" data-entity="FieldRenderer" data-source-line="23" data-uid="ent0012" id="entity_FieldRenderer"><rect fill="#F1F1F1" height="64.2969" rx="2.5" ry="2.5" style="stroke:#181818;stroke-width:0.5;" width="562.375" x="765" y="630.5"/><ellipse cx="992.8521" cy="646.5" fill="#B4A7E5" rx="11" ry="11" style="stroke:#181818;stroke-width:1;"/><path d="M988.7739,642.2656 L988.7739,640.1094 L996.1646,640.1094 L996.1646,642.2656 L993.6958,642.2656 L993.6958,650.3438 L996.1646,650.3438 L996.1646,652.5 L988.7739,652.5 L988.7739,650.3438 L991.2427,650.3438 L991.2427,642.2656 L988.7739,642.2656 Z " fill="#000000"/><text fill="#000000" font-family="sans-serif" font-size="14" font-style="italic" lengthAdjust="spacing" textLength="98.1709" x="1013.3521" y="651.3467">FieldRenderer</text><line style="stroke:#181818;stroke-width:0.5;" x1="766" x2="1326.375" y1="662.5" y2="662.5"/><line style="stroke:#181818;stroke-width:0.5;" x1="766" x2="1326.375" y1="670.5" y2="670.5"/><ellipse cx="776" cy="684.1484" fill="#84BE84" rx="3" ry="3" style="stroke:#038048;stroke-width:1;"/><text fill="#000000" font-family="sans-serif" font-size="14" font-style="italic" lengthAdjust="spacing" textLength="536.375" x="785" y="687.4951">render ( paramUiField1 : ch.hslu.cas.msed.blobfish.board.ui.UiField ) : String</text></g><!--class SquareColor--><g class="entity" data-entity="SquareColor" data-source-line="28" data-uid="ent0013" id="entity_SquareColor"><rect fill="#F1F1F1" height="80.5938" rx="2.5" ry="2.5" style="stroke:#181818;stroke-width:0.5;" width="118.1465" x="527" y="299"/><ellipse cx="542" cy="315" fill="#EB937F" rx="11" ry="11" style="stroke:#181818;stroke-width:1;"/><path d="M546.1094,321 L538.3906,321 L538.3906,308.6094 L546.1094,308.6094 L546.1094,310.7656 L540.8438,310.7656 L540.8438,313.4375 L545.6094,313.4375 L545.6094,315.5938 L540.8438,315.5938 L540.8438,318.8438 L546.1094,318.8438 L546.1094,321 Z " fill="#000000"/><text fill="#000000" font-family="sans-serif" font-size="14" lengthAdjust="spacing" textLength="86.1465" x="556" y="319.8467">SquareColor</text><line style="stroke:#181818;stroke-width:0.5;" x1="528" x2="644.1465" y1="331" y2="331"/><ellipse cx="538" cy="344.6484" fill="none" rx="3" ry="3" style="stroke:#038048;stroke-width:1;"/><text fill="#000000" font-family="sans-serif" font-size="14" lengthAdjust="spacing" textLength="39.2656" x="547" y="347.9951">DARK</text><ellipse cx="538" cy="360.9453" fill="none" rx="3" ry="3" style="stroke:#038048;stroke-width:1;"/><text fill="#000000" font-family="sans-serif" font-size="14" lengthAdjust="spacing" textLength="41.8564" x="547" y="364.292">LIGHT</text><line style="stroke:#181818;stroke-width:0.5;" x1="528" x2="644.1465" y1="371.5938" y2="371.5938"/></g><!--reverse link BoardRenderer to FieldRenderer--><g class="link" data-entity-1="BoardRenderer" data-entity-2="FieldRenderer" data-source-line="36" data-uid="lnk14" id="link_BoardRenderer_FieldRenderer"><path codeLine="36" d="M1046,565.69 C1046,588.59 1046,607.54 1046,630.41" fill="none" id="BoardRenderer-backto-FieldRenderer" style="stroke:#181818;stroke-width:1;"/><polygon fill="#181818" points="1046,553.69,1042,559.69,1046,565.69,1050,559.69,1046,553.69" style="stroke:#181818;stroke-width:1;"/><text fill="#000000" font-family="sans-serif" font-size="13" lengthAdjust="spacing" textLength="43.1768" x="1047" y="596.5669">render</text></g><!--reverse link ChessBoardRenderer to BoardRenderer--><g class="link" data-entity-1="ChessBoardRenderer" data-entity-2="BoardRenderer" data-source-line="37" data-uid="lnk15" id="link_ChessBoardRenderer_BoardRenderer"><path codeLine="37" d="M1058.8563,391.9405 C1055.5663,424.8505 1052.14,459.14 1049.11,489.45" fill="none" id="ChessBoardRenderer-backto-BoardRenderer" style="stroke:#181818;stroke-width:1;"/><polygon fill="#181818" points="1060.05,380,1055.473,385.5723,1058.8563,391.9405,1063.4333,386.3681,1060.05,380" style="stroke:#181818;stroke-width:1;"/><text fill="#000000" font-family="sans-serif" font-size="13" lengthAdjust="spacing" textLength="97.9761" x="1054" y="455.5669">boardRenderer</text></g><!--SRC=[hLFBJiCm43oJh_2nF689ZhsLqfOAQAicFIFRsIP6JWos4mb5vTjnd3wI5g4KSVDZPdPdnsQ2Q8rOWXCjSio8ngc625CXwPhh15D9L8I72MXzNorHwLsKQmuYsg1I6s8uso0_20VBS34Ffk5qFdiTZsQeZmAZU1OVqBwJiXTCfZZc9iaffeaWMImp_gOmgse8Jh6hOtafc4HQudKaNsG1g8VUYI9fhNkxhu0kxRAGl4M9mOmA8dBRdynGhu94CgS2Za1ZsDxkkztVSZqXASmBK3M2IYc0PDx6yppMQMevhxqi8Oj0MPsoeV-btEdErOexQ6MhW-mMZMvgyaAGJr13AQIw-rs0QC0DD6fOFylNuK6qpEsYjbrfUzJ9Yut02IqSfvb0Uq8dkV-tUPuPK6l2e5FNbTCVWqKbeTeemio9XHLtjCuXE_Hncv3bQHTwy94J1RNJHZRN3uFbKsFxF9qyXaxOnd_kWxxoVNJ-jFge7eltjuVMjMYRLNtWnjxplW40]--></g></svg>