<svg xmlns="http://www.w3.org/2000/svg" xmlns:xlink="http://www.w3.org/1999/xlink" contentStyleType="text/css" data-diagram-type="CLASS" height="1033px" preserveAspectRatio="none" style="width:2453px;height:1033px;background:#FFFFFF;" version="1.1" viewBox="0 0 2453 1033" width="2453px" zoomAndPan="magnify"><defs/><g><!--cluster ch--><g class="cluster" data-entity="ch" data-source-line="2" data-uid="ent0003" id="cluster_ch"><path d="M8.5,6 L27.7656,6 A3.75,3.75 0 0 1 30.2656,8.5 L37.2656,28.2969 L2443.5,28.2969 A2.5,2.5 0 0 1 2446,30.7969 L2446,1024 A2.5,2.5 0 0 1 2443.5,1026.5 L8.5,1026.5 A2.5,2.5 0 0 1 6,1024 L6,8.5 A2.5,2.5 0 0 1 8.5,6" fill="none" style="stroke:#000000;stroke-width:1.5;"/><line style="stroke:#000000;stroke-width:1.5;" x1="6" x2="37.2656" y1="28.2969" y2="28.2969"/><text fill="#000000" font-family="sans-serif" font-size="14" font-weight="bold" lengthAdjust="spacing" textLength="18.2656" x="10" y="20.9951">ch</text></g><!--cluster hslu--><g class="cluster" data-entity="hslu" data-source-line="2" data-uid="ent0004" id="cluster_hslu"><path d="M32.5,49 L66.5654,49 A3.75,3.75 0 0 1 69.0654,51.5 L76.0654,71.2969 L2419.5,71.2969 A2.5,2.5 0 0 1 2422,73.7969 L2422,1000 A2.5,2.5 0 0 1 2419.5,1002.5 L32.5,1002.5 A2.5,2.5 0 0 1 30,1000 L30,51.5 A2.5,2.5 0 0 1 32.5,49" fill="none" style="stroke:#000000;stroke-width:1.5;"/><line style="stroke:#000000;stroke-width:1.5;" x1="30" x2="76.0654" y1="71.2969" y2="71.2969"/><text fill="#000000" font-family="sans-serif" font-size="14" font-weight="bold" lengthAdjust="spacing" textLength="33.0654" x="34" y="63.9951">hslu</text></g><!--cluster cas--><g class="cluster" data-entity="cas" data-source-line="2" data-uid="ent0005" id="cluster_cas"><path d="M56.5,92 L83.5791,92 A3.75,3.75 0 0 1 86.0791,94.5 L93.0791,114.2969 L2395.5,114.2969 A2.5,2.5 0 0 1 2398,116.7969 L2398,976 A2.5,2.5 0 0 1 2395.5,978.5 L56.5,978.5 A2.5,2.5 0 0 1 54,976 L54,94.5 A2.5,2.5 0 0 1 56.5,92" fill="none" style="stroke:#000000;stroke-width:1.5;"/><line style="stroke:#000000;stroke-width:1.5;" x1="54" x2="93.0791" y1="114.2969" y2="114.2969"/><text fill="#000000" font-family="sans-serif" font-size="14" font-weight="bold" lengthAdjust="spacing" textLength="26.0791" x="58" y="106.9951">cas</text></g><!--cluster msed--><g class="cluster" data-entity="msed" data-source-line="2" data-uid="ent0006" id="cluster_msed"><path d="M80.5,135 L123.9375,135 A3.75,3.75 0 0 1 126.4375,137.5 L133.4375,157.2969 L2371.5,157.2969 A2.5,2.5 0 0 1 2374,159.7969 L2374,952 A2.5,2.5 0 0 1 2371.5,954.5 L80.5,954.5 A2.5,2.5 0 0 1 78,952 L78,137.5 A2.5,2.5 0 0 1 80.5,135" fill="none" style="stroke:#000000;stroke-width:1.5;"/><line style="stroke:#000000;stroke-width:1.5;" x1="78" x2="133.4375" y1="157.2969" y2="157.2969"/><text fill="#000000" font-family="sans-serif" font-size="14" font-weight="bold" lengthAdjust="spacing" textLength="42.4375" x="82" y="149.9951">msed</text></g><!--cluster blobfish--><g class="cluster" data-entity="blobfish" data-source-line="2" data-uid="ent0007" id="cluster_blobfish"><path d="M104.5,178 L169.1494,178 A3.75,3.75 0 0 1 171.6494,180.5 L178.6494,200.2969 L2347.5,200.2969 A2.5,2.5 0 0 1 2350,202.7969 L2350,928 A2.5,2.5 0 0 1 2347.5,930.5 L104.5,930.5 A2.5,2.5 0 0 1 102,928 L102,180.5 A2.5,2.5 0 0 1 104.5,178" fill="none" style="stroke:#000000;stroke-width:1.5;"/><line style="stroke:#000000;stroke-width:1.5;" x1="102" x2="178.6494" y1="200.2969" y2="200.2969"/><text fill="#000000" font-family="sans-serif" font-size="14" font-weight="bold" lengthAdjust="spacing" textLength="63.6494" x="106" y="192.9951">blobfish</text></g><!--cluster board--><g class="cluster" data-entity="board" data-source-line="2" data-uid="ent0008" id="cluster_board"><path d="M128.5,221 L175.5127,221 A3.75,3.75 0 0 1 178.0127,223.5 L185.0127,243.2969 L2323.5,243.2969 A2.5,2.5 0 0 1 2326,245.7969 L2326,904 A2.5,2.5 0 0 1 2323.5,906.5 L128.5,906.5 A2.5,2.5 0 0 1 126,904 L126,223.5 A2.5,2.5 0 0 1 128.5,221" fill="none" style="stroke:#000000;stroke-width:1.5;"/><line style="stroke:#000000;stroke-width:1.5;" x1="126" x2="185.0127" y1="243.2969" y2="243.2969"/><text fill="#000000" font-family="sans-serif" font-size="14" font-weight="bold" lengthAdjust="spacing" textLength="46.0127" x="130" y="235.9951">board</text></g><!--cluster ui--><g class="cluster" data-entity="ui" data-source-line="13" data-uid="ent0010" id="cluster_ui"><path d="M518.5,264 L534.2656,264 A3.75,3.75 0 0 1 536.7656,266.5 L543.7656,286.2969 L2299.5,286.2969 A2.5,2.5 0 0 1 2302,288.7969 L2302,880 A2.5,2.5 0 0 1 2299.5,882.5 L518.5,882.5 A2.5,2.5 0 0 1 516,880 L516,266.5 A2.5,2.5 0 0 1 518.5,264" fill="none" style="stroke:#000000;stroke-width:1.5;"/><line style="stroke:#000000;stroke-width:1.5;" x1="516" x2="543.7656" y1="286.2969" y2="286.2969"/><text fill="#000000" font-family="sans-serif" font-size="14" font-weight="bold" lengthAdjust="spacing" textLength="14.7656" x="520" y="278.9951">ui</text></g><!--class ChessBoard--><g class="entity" data-entity="ChessBoard" data-source-line="2" data-uid="ent0002" id="entity_ChessBoard"><rect fill="#F1F1F1" height="162.0781" rx="2.5" ry="2.5" style="stroke:#181818;stroke-width:0.5;" width="357.8848" x="142" y="258.5"/><ellipse cx="275.0718" cy="274.5" fill="#ADD1B2" rx="11" ry="11" style="stroke:#181818;stroke-width:1;"/><path d="M278.0405,280.1406 Q277.4624,280.4375 276.8218,280.5781 Q276.1812,280.7344 275.478,280.7344 Q272.978,280.7344 271.6499,279.0938 Q270.3374,277.4375 270.3374,274.3125 Q270.3374,271.1875 271.6499,269.5313 Q272.978,267.875 275.478,267.875 Q276.1812,267.875 276.8218,268.0313 Q277.478,268.1875 278.0405,268.4844 L278.0405,271.2031 Q277.4155,270.625 276.8218,270.3594 Q276.228,270.0781 275.603,270.0781 Q274.2593,270.0781 273.5718,271.1563 Q272.8843,272.2188 272.8843,274.3125 Q272.8843,276.4063 273.5718,277.4844 Q274.2593,278.5469 275.603,278.5469 Q276.228,278.5469 276.8218,278.2813 Q277.4155,278 278.0405,277.4219 L278.0405,280.1406 Z " fill="#000000"/><text fill="#000000" font-family="sans-serif" font-size="14" lengthAdjust="spacing" textLength="83.2412" x="295.5718" y="279.3467">ChessBoard</text><line style="stroke:#181818;stroke-width:0.5;" x1="143" x2="498.8848" y1="290.5" y2="290.5"/><rect fill="none" height="6" style="stroke:#C82930;stroke-width:1;" width="6" x="150" y="301.1484"/><text fill="#000000" font-family="sans-serif" font-size="14" lengthAdjust="spacing" text-decoration="underline" textLength="201.7148" x="162" y="307.4951">STARTPOSITION_FEN : String</text><rect fill="none" height="6" style="stroke:#C82930;stroke-width:1;" width="6" x="150" y="317.4453"/><text fill="#000000" font-family="sans-serif" font-size="14" lengthAdjust="spacing" textLength="323.6816" x="162" y="323.792">board : com.github.bhlangonijr.chesslib.Board</text><line style="stroke:#181818;stroke-width:0.5;" x1="143" x2="498.8848" y1="331.0938" y2="331.0938"/><ellipse cx="153" cy="344.7422" fill="#84BE84" rx="3" ry="3" style="stroke:#038048;stroke-width:1;"/><text fill="#000000" font-family="sans-serif" font-size="14" lengthAdjust="spacing" textLength="274.0391" x="162" y="348.0889">doMove ( paramString1 : String ) : void</text><ellipse cx="153" cy="361.0391" fill="#84BE84" rx="3" ry="3" style="stroke:#038048;stroke-width:1;"/><text fill="#000000" font-family="sans-serif" font-size="14" lengthAdjust="spacing" textLength="119.3008" x="162" y="364.3857">getFen () : String</text><ellipse cx="153" cy="377.3359" fill="#84BE84" rx="3" ry="3" style="stroke:#038048;stroke-width:1;"/><text fill="#000000" font-family="sans-serif" font-size="14" lengthAdjust="spacing" textLength="171.5" x="162" y="380.6826">isGameOver () : boolean</text><ellipse cx="153" cy="393.6328" fill="#84BE84" rx="3" ry="3" style="stroke:#038048;stroke-width:1;"/><text fill="#000000" font-family="sans-serif" font-size="14" lengthAdjust="spacing" textLength="331.8848" x="162" y="396.9795">isMoveLegal ( paramString1 : String ) : boolean</text><ellipse cx="153" cy="409.9297" fill="#84BE84" rx="3" ry="3" style="stroke:#038048;stroke-width:1;"/><text fill="#000000" font-family="sans-serif" font-size="14" lengthAdjust="spacing" textLength="192.5342" x="162" y="413.2764">legalMoves () : java.util.List</text></g><!--class AlphanumericBorderFieldRenderer--><g class="entity" data-entity="AlphanumericBorderFieldRenderer" data-source-line="13" data-uid="ent0009" id="entity_AlphanumericBorderFieldRenderer"><rect fill="#F1F1F1" height="210.9688" rx="2.5" ry="2.5" style="stroke:#181818;stroke-width:0.5;" width="674.6826" x="1610.5" y="497.5"/><ellipse cx="1822.3423" cy="513.5" fill="#ADD1B2" rx="11" ry="11" style="stroke:#181818;stroke-width:1;"/><path d="M1825.311,519.1406 Q1824.7329,519.4375 1824.0923,519.5781 Q1823.4517,519.7344 1822.7485,519.7344 Q1820.2485,519.7344 1818.9204,518.0938 Q1817.6079,516.4375 1817.6079,513.3125 Q1817.6079,510.1875 1818.9204,508.5313 Q1820.2485,506.875 1822.7485,506.875 Q1823.4517,506.875 1824.0923,507.0313 Q1824.7485,507.1875 1825.311,507.4844 L1825.311,510.2031 Q1824.686,509.625 1824.0923,509.3594 Q1823.4985,509.0781 1822.8735,509.0781 Q1821.5298,509.0781 1820.8423,510.1563 Q1820.1548,511.2188 1820.1548,513.3125 Q1820.1548,515.4063 1820.8423,516.4844 Q1821.5298,517.5469 1822.8735,517.5469 Q1823.4985,517.5469 1824.0923,517.2813 Q1824.686,517 1825.311,516.4219 L1825.311,519.1406 Z " fill="#000000"/><text fill="#000000" font-family="sans-serif" font-size="14" lengthAdjust="spacing" textLength="242.498" x="1842.8423" y="518.3467">AlphanumericBorderFieldRenderer</text><line style="stroke:#181818;stroke-width:0.5;" x1="1611.5" x2="2284.1826" y1="529.5" y2="529.5"/><ellipse cx="1621.5" cy="543.1484" fill="none" rx="3" ry="3" style="stroke:#038048;stroke-width:1;"/><text fill="#000000" font-family="sans-serif" font-size="14" lengthAdjust="spacing" text-decoration="underline" textLength="132.1934" x="1630.5" y="546.4951">BG_COLOR : String</text><ellipse cx="1621.5" cy="559.4453" fill="none" rx="3" ry="3" style="stroke:#038048;stroke-width:1;"/><text fill="#000000" font-family="sans-serif" font-size="14" lengthAdjust="spacing" text-decoration="underline" textLength="130.6416" x="1630.5" y="562.792">FG_COLOR : String</text><ellipse cx="1621.5" cy="575.7422" fill="none" rx="3" ry="3" style="stroke:#038048;stroke-width:1;"/><text fill="#000000" font-family="sans-serif" font-size="14" lengthAdjust="spacing" text-decoration="underline" textLength="240.748" x="1630.5" y="579.0889">PLACEHOLDER_CHARACTER : char</text><ellipse cx="1621.5" cy="592.0391" fill="none" rx="3" ry="3" style="stroke:#038048;stroke-width:1;"/><text fill="#000000" font-family="sans-serif" font-size="14" lengthAdjust="spacing" text-decoration="underline" textLength="214.8809" x="1630.5" y="595.3857">PLACEHOLDER_COLOR : String</text><ellipse cx="1621.5" cy="608.3359" fill="none" rx="3" ry="3" style="stroke:#038048;stroke-width:1;"/><text fill="#000000" font-family="sans-serif" font-size="14" lengthAdjust="spacing" text-decoration="underline" textLength="100.2559" x="1630.5" y="611.6826">RESET : String</text><ellipse cx="1621.5" cy="624.6328" fill="none" rx="3" ry="3" style="stroke:#038048;stroke-width:1;"/><text fill="#000000" font-family="sans-serif" font-size="14" lengthAdjust="spacing" text-decoration="underline" textLength="202.501" x="1630.5" y="627.9795">ROW_STRING_WHITE : String</text><line style="stroke:#181818;stroke-width:0.5;" x1="1611.5" x2="2284.1826" y1="635.2813" y2="635.2813"/><ellipse cx="1621.5" cy="648.9297" fill="#84BE84" rx="3" ry="3" style="stroke:#038048;stroke-width:1;"/><text fill="#000000" font-family="sans-serif" font-size="14" lengthAdjust="spacing" textLength="317.584" x="1630.5" y="652.2764">renderColumnField ( paramint1 : int ) : String</text><rect fill="#F24D5C" height="6" style="stroke:#C82930;stroke-width:1;" width="6" x="1618.5" y="662.2266"/><text fill="#000000" font-family="sans-serif" font-size="14" lengthAdjust="spacing" text-decoration="underline" textLength="195.7471" x="1630.5" y="668.5732">renderEmptyField () : String</text><ellipse cx="1621.5" cy="681.5234" fill="#84BE84" rx="3" ry="3" style="stroke:#038048;stroke-width:1;"/><text fill="#000000" font-family="sans-serif" font-size="14" lengthAdjust="spacing" textLength="606.9014" x="1630.5" y="684.8701">renderRow ( paramPlayerColor1 : ch.hslu.cas.msed.blobfish.base.PlayerColor ) : String</text><rect fill="#F24D5C" height="6" style="stroke:#C82930;stroke-width:1;" width="6" x="1618.5" y="694.8203"/><text fill="#000000" font-family="sans-serif" font-size="14" lengthAdjust="spacing" text-decoration="underline" textLength="648.6826" x="1630.5" y="701.167">renderRowString ( paramPlayerColor1 : ch.hslu.cas.msed.blobfish.base.PlayerColor ) : String</text></g><!--class BoardRenderer--><g class="entity" data-entity="BoardRenderer" data-source-line="27" data-uid="ent0011" id="entity_BoardRenderer"><rect fill="#F1F1F1" height="64.2969" rx="2.5" ry="2.5" style="stroke:#181818;stroke-width:0.5;" width="1042.832" x="532.5" y="571"/><ellipse cx="996.5508" cy="587" fill="#ADD1B2" rx="11" ry="11" style="stroke:#181818;stroke-width:1;"/><path d="M999.5195,592.6406 Q998.9414,592.9375 998.3008,593.0781 Q997.6602,593.2344 996.957,593.2344 Q994.457,593.2344 993.1289,591.5938 Q991.8164,589.9375 991.8164,586.8125 Q991.8164,583.6875 993.1289,582.0313 Q994.457,580.375 996.957,580.375 Q997.6602,580.375 998.3008,580.5313 Q998.957,580.6875 999.5195,580.9844 L999.5195,583.7031 Q998.8945,583.125 998.3008,582.8594 Q997.707,582.5781 997.082,582.5781 Q995.7383,582.5781 995.0508,583.6563 Q994.3633,584.7188 994.3633,586.8125 Q994.3633,588.9063 995.0508,589.9844 Q995.7383,591.0469 997.082,591.0469 Q997.707,591.0469 998.3008,590.7813 Q998.8945,590.5 999.5195,589.9219 L999.5195,592.6406 Z " fill="#000000"/><text fill="#000000" font-family="sans-serif" font-size="14" lengthAdjust="spacing" textLength="106.2305" x="1017.0508" y="591.8467">BoardRenderer</text><line style="stroke:#181818;stroke-width:0.5;" x1="533.5" x2="1574.332" y1="603" y2="603"/><line style="stroke:#181818;stroke-width:0.5;" x1="533.5" x2="1574.332" y1="611" y2="611"/><polygon fill="#4177AF" points="543.5,620.6484,539.5,626.6484,547.5,626.6484" style="stroke:#1963A0;stroke-width:1;"/><text fill="#000000" font-family="sans-serif" font-size="14" lengthAdjust="spacing" textLength="1016.832" x="552.5" y="627.9951">render ( paramUiBoard1 : ch.hslu.cas.msed.blobfish.board.ui.UiBoard , paramPlayerColor2 : ch.hslu.cas.msed.blobfish.base.PlayerColor ) : String</text></g><!--class BorderFieldRenderer--><g class="entity" data-entity="BorderFieldRenderer" data-source-line="32" data-uid="ent0012" id="entity_BorderFieldRenderer"><rect fill="#F1F1F1" height="80.5938" rx="2.5" ry="2.5" style="stroke:#181818;stroke-width:0.5;" width="632.9014" x="1500.5" y="785.5"/><ellipse cx="1740.0244" cy="801.5" fill="#B4A7E5" rx="11" ry="11" style="stroke:#181818;stroke-width:1;"/><path d="M1735.9463,797.2656 L1735.9463,795.1094 L1743.3369,795.1094 L1743.3369,797.2656 L1740.8682,797.2656 L1740.8682,805.3438 L1743.3369,805.3438 L1743.3369,807.5 L1735.9463,807.5 L1735.9463,805.3438 L1738.415,805.3438 L1738.415,797.2656 L1735.9463,797.2656 Z " fill="#000000"/><text fill="#000000" font-family="sans-serif" font-size="14" font-style="italic" lengthAdjust="spacing" textLength="145.3525" x="1760.5244" y="806.3467">BorderFieldRenderer</text><line style="stroke:#181818;stroke-width:0.5;" x1="1501.5" x2="2132.4014" y1="817.5" y2="817.5"/><line style="stroke:#181818;stroke-width:0.5;" x1="1501.5" x2="2132.4014" y1="825.5" y2="825.5"/><ellipse cx="1511.5" cy="839.1484" fill="#84BE84" rx="3" ry="3" style="stroke:#038048;stroke-width:1;"/><text fill="#000000" font-family="sans-serif" font-size="14" font-style="italic" lengthAdjust="spacing" textLength="317.584" x="1520.5" y="842.4951">renderColumnField ( paramint1 : int ) : String</text><ellipse cx="1511.5" cy="855.4453" fill="#84BE84" rx="3" ry="3" style="stroke:#038048;stroke-width:1;"/><text fill="#000000" font-family="sans-serif" font-size="14" font-style="italic" lengthAdjust="spacing" textLength="606.9014" x="1520.5" y="858.792">renderRow ( paramPlayerColor1 : ch.hslu.cas.msed.blobfish.base.PlayerColor ) : String</text></g><!--class ChessBoardRenderer--><g class="entity" data-entity="ChessBoardRenderer" data-source-line="38" data-uid="ent0013" id="entity_ChessBoardRenderer"><rect fill="#F1F1F1" height="80.5938" rx="2.5" ry="2.5" style="stroke:#181818;stroke-width:0.5;" width="768.0342" x="688" y="299"/><ellipse cx="993.7271" cy="315" fill="#ADD1B2" rx="11" ry="11" style="stroke:#181818;stroke-width:1;"/><path d="M996.6958,320.6406 Q996.1177,320.9375 995.4771,321.0781 Q994.8364,321.2344 994.1333,321.2344 Q991.6333,321.2344 990.3052,319.5938 Q988.9927,317.9375 988.9927,314.8125 Q988.9927,311.6875 990.3052,310.0313 Q991.6333,308.375 994.1333,308.375 Q994.8364,308.375 995.4771,308.5313 Q996.1333,308.6875 996.6958,308.9844 L996.6958,311.7031 Q996.0708,311.125 995.4771,310.8594 Q994.8833,310.5781 994.2583,310.5781 Q992.9146,310.5781 992.2271,311.6563 Q991.5396,312.7188 991.5396,314.8125 Q991.5396,316.9063 992.2271,317.9844 Q992.9146,319.0469 994.2583,319.0469 Q994.8833,319.0469 995.4771,318.7813 Q996.0708,318.5 996.6958,317.9219 L996.6958,320.6406 Z " fill="#000000"/><text fill="#000000" font-family="sans-serif" font-size="14" lengthAdjust="spacing" textLength="148.0801" x="1014.2271" y="319.8467">ChessBoardRenderer</text><line style="stroke:#181818;stroke-width:0.5;" x1="689" x2="1455.0342" y1="331" y2="331"/><rect fill="none" height="6" style="stroke:#C82930;stroke-width:1;" width="6" x="696" y="341.6484"/><text fill="#000000" font-family="sans-serif" font-size="14" lengthAdjust="spacing" textLength="431.3135" x="708" y="347.9951">parser : ch.hslu.cas.msed.blobfish.board.ui.FenUiBoardParser</text><line style="stroke:#181818;stroke-width:0.5;" x1="689" x2="1455.0342" y1="355.2969" y2="355.2969"/><ellipse cx="699" cy="368.9453" fill="#84BE84" rx="3" ry="3" style="stroke:#038048;stroke-width:1;"/><text fill="#000000" font-family="sans-serif" font-size="14" lengthAdjust="spacing" textLength="742.0342" x="708" y="372.292">render ( paramString1 : String , paramPlayerColor2 : ch.hslu.cas.msed.blobfish.base.PlayerColor ) : String</text></g><!--class FieldRenderer--><g class="entity" data-entity="FieldRenderer" data-source-line="44" data-uid="ent0014" id="entity_FieldRenderer"><rect fill="#F1F1F1" height="64.2969" rx="2.5" ry="2.5" style="stroke:#181818;stroke-width:0.5;" width="562.375" x="773" y="794"/><ellipse cx="1000.8521" cy="810" fill="#B4A7E5" rx="11" ry="11" style="stroke:#181818;stroke-width:1;"/><path d="M996.7739,805.7656 L996.7739,803.6094 L1004.1646,803.6094 L1004.1646,805.7656 L1001.6958,805.7656 L1001.6958,813.8438 L1004.1646,813.8438 L1004.1646,816 L996.7739,816 L996.7739,813.8438 L999.2427,813.8438 L999.2427,805.7656 L996.7739,805.7656 Z " fill="#000000"/><text fill="#000000" font-family="sans-serif" font-size="14" font-style="italic" lengthAdjust="spacing" textLength="98.1709" x="1021.3521" y="814.8467">FieldRenderer</text><line style="stroke:#181818;stroke-width:0.5;" x1="774" x2="1334.375" y1="826" y2="826"/><line style="stroke:#181818;stroke-width:0.5;" x1="774" x2="1334.375" y1="834" y2="834"/><ellipse cx="784" cy="847.6484" fill="#84BE84" rx="3" ry="3" style="stroke:#038048;stroke-width:1;"/><text fill="#000000" font-family="sans-serif" font-size="14" font-style="italic" lengthAdjust="spacing" textLength="536.375" x="793" y="850.9951">render ( paramUiField1 : ch.hslu.cas.msed.blobfish.board.ui.UiField ) : String</text></g><!--class SquareColor--><g class="entity" data-entity="SquareColor" data-source-line="49" data-uid="ent0015" id="entity_SquareColor"><rect fill="#F1F1F1" height="80.5938" rx="2.5" ry="2.5" style="stroke:#181818;stroke-width:0.5;" width="118.1465" x="535" y="299"/><ellipse cx="550" cy="315" fill="#EB937F" rx="11" ry="11" style="stroke:#181818;stroke-width:1;"/><path d="M554.1094,321 L546.3906,321 L546.3906,308.6094 L554.1094,308.6094 L554.1094,310.7656 L548.8438,310.7656 L548.8438,313.4375 L553.6094,313.4375 L553.6094,315.5938 L548.8438,315.5938 L548.8438,318.8438 L554.1094,318.8438 L554.1094,321 Z " fill="#000000"/><text fill="#000000" font-family="sans-serif" font-size="14" lengthAdjust="spacing" textLength="86.1465" x="564" y="319.8467">SquareColor</text><line style="stroke:#181818;stroke-width:0.5;" x1="536" x2="652.1465" y1="331" y2="331"/><ellipse cx="546" cy="344.6484" fill="none" rx="3" ry="3" style="stroke:#038048;stroke-width:1;"/><text fill="#000000" font-family="sans-serif" font-size="14" lengthAdjust="spacing" textLength="39.2656" x="555" y="347.9951">DARK</text><ellipse cx="546" cy="360.9453" fill="none" rx="3" ry="3" style="stroke:#038048;stroke-width:1;"/><text fill="#000000" font-family="sans-serif" font-size="14" lengthAdjust="spacing" textLength="41.8564" x="555" y="364.292">LIGHT</text><line style="stroke:#181818;stroke-width:0.5;" x1="536" x2="652.1465" y1="371.5938" y2="371.5938"/></g><!--link AlphanumericBorderFieldRenderer to BorderFieldRenderer--><g class="link" data-entity-1="AlphanumericBorderFieldRenderer" data-entity-2="BorderFieldRenderer" data-source-line="57" data-uid="lnk16" id="link_AlphanumericBorderFieldRenderer_BorderFieldRenderer"><path codeLine="57" d="M1885.95,708.68 C1869.75,736.01 1862.4506,748.3372 1849.6606,769.9072" fill="none" id="AlphanumericBorderFieldRenderer-to-BorderFieldRenderer" style="stroke:#181818;stroke-width:1;stroke-dasharray:7,7;"/><polygon fill="none" points="1840.48,785.39,1854.8215,772.9674,1844.4996,766.847,1840.48,785.39" style="stroke:#181818;stroke-width:1;"/></g><!--reverse link BoardRenderer to BorderFieldRenderer--><g class="link" data-entity-1="BoardRenderer" data-entity-2="BorderFieldRenderer" data-source-line="58" data-uid="lnk17" id="link_BoardRenderer_BorderFieldRenderer"><path codeLine="58" d="M1172.8262,638.4185 C1308.7862,677.7985 1531.76,742.38 1680.38,785.43" fill="none" id="BoardRenderer-backto-BorderFieldRenderer" style="stroke:#181818;stroke-width:1;"/><polygon fill="#181818" points="1161.3,635.08,1165.9503,640.5913,1172.8262,638.4185,1168.176,632.9072,1161.3,635.08" style="stroke:#181818;stroke-width:1;"/><text fill="#000000" font-family="sans-serif" font-size="13" lengthAdjust="spacing" textLength="134.3037" x="1571" y="751.5669">borderFieldRenderer</text></g><!--reverse link BoardRenderer to FieldRenderer--><g class="link" data-entity-1="BoardRenderer" data-entity-2="FieldRenderer" data-source-line="59" data-uid="lnk18" id="link_BoardRenderer_FieldRenderer"><path codeLine="59" d="M1054,647.2 C1054,689.31 1054,751.93 1054,793.96" fill="none" id="BoardRenderer-backto-FieldRenderer" style="stroke:#181818;stroke-width:1;"/><polygon fill="#181818" points="1054,635.2,1050,641.2,1054,647.2,1058,641.2,1054,635.2" style="stroke:#181818;stroke-width:1;"/><text fill="#000000" font-family="sans-serif" font-size="13" lengthAdjust="spacing" textLength="88.2578" x="1055" y="751.5669">fieldRenderer</text></g><!--reverse link ChessBoardRenderer to BoardRenderer--><g class="link" data-entity-1="ChessBoardRenderer" data-entity-2="BoardRenderer" data-source-line="60" data-uid="lnk19" id="link_ChessBoardRenderer_BoardRenderer"><path codeLine="60" d="M1068.4458,392.1917 C1064.8458,444.4817 1059.41,523.37 1056.14,570.94" fill="none" id="ChessBoardRenderer-backto-BoardRenderer" style="stroke:#181818;stroke-width:1;"/><polygon fill="#181818" points="1069.27,380.22,1064.8673,385.9311,1068.4458,392.1917,1072.8484,386.4806,1069.27,380.22" style="stroke:#181818;stroke-width:1;"/><text fill="#000000" font-family="sans-serif" font-size="13" lengthAdjust="spacing" textLength="97.9761" x="1065" y="463.5669">boardRenderer</text></g><!--SRC=[nLLDSzem43tNlqB7K8fcqcCFdJ6E-PYwcB7ToP6HXS3Ao1QLP3ePIdzxPHbY4nmm8PESaF6-VRlxdjQO8Ia1Jc0YMGunaZ2LP0vZnkC5bGcCEH9pw2H4odvn11lhqsP12PjlmKOgf2ZUWbuOsK4qzSDnDFOdiu4x0Tz0g0JDbbLqpwJIBp1FuPAg98zXd32KBNb67mJ41GUZCJGy6fSIbN0DxCxvJxucu0Qia41fcVVsYG5qz77DwG5aITI0PE2cKo_awIsLGvGIVqr46H5ppWZA3aCAJeyi4Jj9t01b1QX0opBx0reZc2lAe4UbihQMPU5MKyyfjDagGLcU4a5nduiv4ODYcW79z56NtwH6jp-SERxd1mqYL463Da5JptRSaU_TkS7C6Tc1xKHkWS094cVZpsOFtD2DJaVuzxCm2iQJuUn-D8xSHZM56OR3MPvcPZfxmMYc2hNq3sZqGSt0PGutNQd7NOhE2Qw0_zbpJ1bwDEHSt9h1l2WfaWJMebkMfAbsRdjBmeiyQExZWUFsrVuhQzoNzekQq3DbxTFkei6Nexw-NjMNbfk81SAaNM_DTwhI0yLI2OJLTKOxolBM5hf8qMgTDosIdgvAwhzQgQYtx4x8gK4TNvONr-U72d-Hv9N13QormKkJF2kJw7NU1Xx-pf4WPQSrTRftTl2ZzkYDXwF89DO6kFw30k7Vx-2LDyUwU9byxlLUIsQ-lUzOmdFonQMq3PUkVVjrLD5uxTco_WC0]--></g></svg>