<svg xmlns="http://www.w3.org/2000/svg" xmlns:xlink="http://www.w3.org/1999/xlink" contentStyleType="text/css" data-diagram-type="CLASS" height="869px" preserveAspectRatio="none" style="width:1969px;height:869px;background:#FFFFFF;" version="1.1" viewBox="0 0 1969 869" width="1969px" zoomAndPan="magnify"><defs/><g><!--cluster ch--><g class="cluster" data-entity="ch" data-source-line="2" data-uid="ent0003" id="cluster_ch"><path d="M8.5,6 L27.7656,6 A3.75,3.75 0 0 1 30.2656,8.5 L37.2656,28.2969 L1959.5,28.2969 A2.5,2.5 0 0 1 1962,30.7969 L1962,860 A2.5,2.5 0 0 1 1959.5,862.5 L8.5,862.5 A2.5,2.5 0 0 1 6,860 L6,8.5 A2.5,2.5 0 0 1 8.5,6" fill="none" style="stroke:#000000;stroke-width:1.5;"/><line style="stroke:#000000;stroke-width:1.5;" x1="6" x2="37.2656" y1="28.2969" y2="28.2969"/><text fill="#000000" font-family="sans-serif" font-size="14" font-weight="bold" lengthAdjust="spacing" textLength="18.2656" x="10" y="20.9951">ch</text></g><!--cluster hslu--><g class="cluster" data-entity="hslu" data-source-line="2" data-uid="ent0004" id="cluster_hslu"><path d="M32.5,49 L66.5654,49 A3.75,3.75 0 0 1 69.0654,51.5 L76.0654,71.2969 L1935.5,71.2969 A2.5,2.5 0 0 1 1938,73.7969 L1938,836 A2.5,2.5 0 0 1 1935.5,838.5 L32.5,838.5 A2.5,2.5 0 0 1 30,836 L30,51.5 A2.5,2.5 0 0 1 32.5,49" fill="none" style="stroke:#000000;stroke-width:1.5;"/><line style="stroke:#000000;stroke-width:1.5;" x1="30" x2="76.0654" y1="71.2969" y2="71.2969"/><text fill="#000000" font-family="sans-serif" font-size="14" font-weight="bold" lengthAdjust="spacing" textLength="33.0654" x="34" y="63.9951">hslu</text></g><!--cluster cas--><g class="cluster" data-entity="cas" data-source-line="2" data-uid="ent0005" id="cluster_cas"><path d="M56.5,92 L83.5791,92 A3.75,3.75 0 0 1 86.0791,94.5 L93.0791,114.2969 L1911.5,114.2969 A2.5,2.5 0 0 1 1914,116.7969 L1914,812 A2.5,2.5 0 0 1 1911.5,814.5 L56.5,814.5 A2.5,2.5 0 0 1 54,812 L54,94.5 A2.5,2.5 0 0 1 56.5,92" fill="none" style="stroke:#000000;stroke-width:1.5;"/><line style="stroke:#000000;stroke-width:1.5;" x1="54" x2="93.0791" y1="114.2969" y2="114.2969"/><text fill="#000000" font-family="sans-serif" font-size="14" font-weight="bold" lengthAdjust="spacing" textLength="26.0791" x="58" y="106.9951">cas</text></g><!--cluster msed--><g class="cluster" data-entity="msed" data-source-line="2" data-uid="ent0006" id="cluster_msed"><path d="M80.5,135 L123.9375,135 A3.75,3.75 0 0 1 126.4375,137.5 L133.4375,157.2969 L1887.5,157.2969 A2.5,2.5 0 0 1 1890,159.7969 L1890,788 A2.5,2.5 0 0 1 1887.5,790.5 L80.5,790.5 A2.5,2.5 0 0 1 78,788 L78,137.5 A2.5,2.5 0 0 1 80.5,135" fill="none" style="stroke:#000000;stroke-width:1.5;"/><line style="stroke:#000000;stroke-width:1.5;" x1="78" x2="133.4375" y1="157.2969" y2="157.2969"/><text fill="#000000" font-family="sans-serif" font-size="14" font-weight="bold" lengthAdjust="spacing" textLength="42.4375" x="82" y="149.9951">msed</text></g><!--cluster blobfish--><g class="cluster" data-entity="blobfish" data-source-line="2" data-uid="ent0007" id="cluster_blobfish"><path d="M104.5,178 L169.1494,178 A3.75,3.75 0 0 1 171.6494,180.5 L178.6494,200.2969 L1863.5,200.2969 A2.5,2.5 0 0 1 1866,202.7969 L1866,764 A2.5,2.5 0 0 1 1863.5,766.5 L104.5,766.5 A2.5,2.5 0 0 1 102,764 L102,180.5 A2.5,2.5 0 0 1 104.5,178" fill="none" style="stroke:#000000;stroke-width:1.5;"/><line style="stroke:#000000;stroke-width:1.5;" x1="102" x2="178.6494" y1="200.2969" y2="200.2969"/><text fill="#000000" font-family="sans-serif" font-size="14" font-weight="bold" lengthAdjust="spacing" textLength="63.6494" x="106" y="192.9951">blobfish</text></g><!--cluster board--><g class="cluster" data-entity="board" data-source-line="2" data-uid="ent0008" id="cluster_board"><path d="M128.5,221 L175.5127,221 A3.75,3.75 0 0 1 178.0127,223.5 L185.0127,243.2969 L1839.5,243.2969 A2.5,2.5 0 0 1 1842,245.7969 L1842,740 A2.5,2.5 0 0 1 1839.5,742.5 L128.5,742.5 A2.5,2.5 0 0 1 126,740 L126,223.5 A2.5,2.5 0 0 1 128.5,221" fill="none" style="stroke:#000000;stroke-width:1.5;"/><line style="stroke:#000000;stroke-width:1.5;" x1="126" x2="185.0127" y1="243.2969" y2="243.2969"/><text fill="#000000" font-family="sans-serif" font-size="14" font-weight="bold" lengthAdjust="spacing" textLength="46.0127" x="130" y="235.9951">board</text></g><!--cluster ui--><g class="cluster" data-entity="ui" data-source-line="13" data-uid="ent0010" id="cluster_ui"><path d="M744.5,264 L760.2656,264 A3.75,3.75 0 0 1 762.7656,266.5 L769.7656,286.2969 L1815.5,286.2969 A2.5,2.5 0 0 1 1818,288.7969 L1818,716 A2.5,2.5 0 0 1 1815.5,718.5 L744.5,718.5 A2.5,2.5 0 0 1 742,716 L742,266.5 A2.5,2.5 0 0 1 744.5,264" fill="none" style="stroke:#000000;stroke-width:1.5;"/><line style="stroke:#000000;stroke-width:1.5;" x1="742" x2="769.7656" y1="286.2969" y2="286.2969"/><text fill="#000000" font-family="sans-serif" font-size="14" font-weight="bold" lengthAdjust="spacing" textLength="14.7656" x="746" y="278.9951">ui</text></g><!--class ChessBoard--><g class="entity" data-entity="ChessBoard" data-source-line="2" data-uid="ent0002" id="entity_ChessBoard"><rect fill="#F1F1F1" height="162.0781" rx="2.5" ry="2.5" style="stroke:#181818;stroke-width:0.5;" width="583.7441" x="142" y="258.5"/><ellipse cx="388.0015" cy="274.5" fill="#ADD1B2" rx="11" ry="11" style="stroke:#181818;stroke-width:1;"/><path d="M390.9702,280.1406 Q390.3921,280.4375 389.7515,280.5781 Q389.1108,280.7344 388.4077,280.7344 Q385.9077,280.7344 384.5796,279.0938 Q383.2671,277.4375 383.2671,274.3125 Q383.2671,271.1875 384.5796,269.5313 Q385.9077,267.875 388.4077,267.875 Q389.1108,267.875 389.7515,268.0313 Q390.4077,268.1875 390.9702,268.4844 L390.9702,271.2031 Q390.3452,270.625 389.7515,270.3594 Q389.1577,270.0781 388.5327,270.0781 Q387.189,270.0781 386.5015,271.1563 Q385.814,272.2188 385.814,274.3125 Q385.814,276.4063 386.5015,277.4844 Q387.189,278.5469 388.5327,278.5469 Q389.1577,278.5469 389.7515,278.2813 Q390.3452,278 390.9702,277.4219 L390.9702,280.1406 Z " fill="#000000"/><text fill="#000000" font-family="sans-serif" font-size="14" lengthAdjust="spacing" textLength="83.2412" x="408.5015" y="279.3467">ChessBoard</text><line style="stroke:#181818;stroke-width:0.5;" x1="143" x2="724.7441" y1="290.5" y2="290.5"/><rect fill="none" height="6" style="stroke:#C82930;stroke-width:1;" width="6" x="150" y="301.1484"/><text fill="#000000" font-family="sans-serif" font-size="14" lengthAdjust="spacing" text-decoration="underline" textLength="201.7148" x="162" y="307.4951">STARTPOSITION_FEN : String</text><rect fill="none" height="6" style="stroke:#C82930;stroke-width:1;" width="6" x="150" y="317.4453"/><text fill="#000000" font-family="sans-serif" font-size="14" lengthAdjust="spacing" textLength="323.6816" x="162" y="323.792">board : com.github.bhlangonijr.chesslib.Board</text><line style="stroke:#181818;stroke-width:0.5;" x1="143" x2="724.7441" y1="331.0938" y2="331.0938"/><ellipse cx="153" cy="344.7422" fill="#84BE84" rx="3" ry="3" style="stroke:#038048;stroke-width:1;"/><text fill="#000000" font-family="sans-serif" font-size="14" lengthAdjust="spacing" textLength="557.7441" x="162" y="348.0889">doMove ( paramString1 : String ) : ch.hslu.cas.msed.blobfish.board.ChessBoard</text><ellipse cx="153" cy="361.0391" fill="#84BE84" rx="3" ry="3" style="stroke:#038048;stroke-width:1;"/><text fill="#000000" font-family="sans-serif" font-size="14" lengthAdjust="spacing" textLength="119.3008" x="162" y="364.3857">getFen () : String</text><ellipse cx="153" cy="377.3359" fill="#84BE84" rx="3" ry="3" style="stroke:#038048;stroke-width:1;"/><text fill="#000000" font-family="sans-serif" font-size="14" lengthAdjust="spacing" textLength="171.5" x="162" y="380.6826">isGameOver () : boolean</text><ellipse cx="153" cy="393.6328" fill="#84BE84" rx="3" ry="3" style="stroke:#038048;stroke-width:1;"/><text fill="#000000" font-family="sans-serif" font-size="14" lengthAdjust="spacing" textLength="331.8848" x="162" y="396.9795">isMoveLegal ( paramString1 : String ) : boolean</text><ellipse cx="153" cy="409.9297" fill="#84BE84" rx="3" ry="3" style="stroke:#038048;stroke-width:1;"/><text fill="#000000" font-family="sans-serif" font-size="14" lengthAdjust="spacing" textLength="192.5342" x="162" y="413.2764">legalMoves () : java.util.List</text></g><!--class BoardRenderer--><g class="entity" data-entity="BoardRenderer" data-source-line="13" data-uid="ent0009" id="entity_BoardRenderer"><rect fill="#F1F1F1" height="64.2969" rx="2.5" ry="2.5" style="stroke:#181818;stroke-width:0.5;" width="1042.832" x="758.5" y="497.5"/><ellipse cx="1222.5508" cy="513.5" fill="#ADD1B2" rx="11" ry="11" style="stroke:#181818;stroke-width:1;"/><path d="M1225.5195,519.1406 Q1224.9414,519.4375 1224.3008,519.5781 Q1223.6602,519.7344 1222.957,519.7344 Q1220.457,519.7344 1219.1289,518.0938 Q1217.8164,516.4375 1217.8164,513.3125 Q1217.8164,510.1875 1219.1289,508.5313 Q1220.457,506.875 1222.957,506.875 Q1223.6602,506.875 1224.3008,507.0313 Q1224.957,507.1875 1225.5195,507.4844 L1225.5195,510.2031 Q1224.8945,509.625 1224.3008,509.3594 Q1223.707,509.0781 1223.082,509.0781 Q1221.7383,509.0781 1221.0508,510.1563 Q1220.3633,511.2188 1220.3633,513.3125 Q1220.3633,515.4063 1221.0508,516.4844 Q1221.7383,517.5469 1223.082,517.5469 Q1223.707,517.5469 1224.3008,517.2813 Q1224.8945,517 1225.5195,516.4219 L1225.5195,519.1406 Z " fill="#000000"/><text fill="#000000" font-family="sans-serif" font-size="14" lengthAdjust="spacing" textLength="106.2305" x="1243.0508" y="518.3467">BoardRenderer</text><line style="stroke:#181818;stroke-width:0.5;" x1="759.5" x2="1800.332" y1="529.5" y2="529.5"/><line style="stroke:#181818;stroke-width:0.5;" x1="759.5" x2="1800.332" y1="537.5" y2="537.5"/><polygon fill="#4177AF" points="769.5,547.1484,765.5,553.1484,773.5,553.1484" style="stroke:#1963A0;stroke-width:1;"/><text fill="#000000" font-family="sans-serif" font-size="14" lengthAdjust="spacing" textLength="1016.832" x="778.5" y="554.4951">render ( paramUiBoard1 : ch.hslu.cas.msed.blobfish.board.ui.UiBoard , paramPlayerColor2 : ch.hslu.cas.msed.blobfish.base.PlayerColor ) : String</text></g><!--class ChessBoardRenderer--><g class="entity" data-entity="ChessBoardRenderer" data-source-line="18" data-uid="ent0011" id="entity_ChessBoardRenderer"><rect fill="#F1F1F1" height="80.5938" rx="2.5" ry="2.5" style="stroke:#181818;stroke-width:0.5;" width="768.0342" x="914" y="299"/><ellipse cx="1219.7271" cy="315" fill="#ADD1B2" rx="11" ry="11" style="stroke:#181818;stroke-width:1;"/><path d="M1222.6958,320.6406 Q1222.1177,320.9375 1221.4771,321.0781 Q1220.8364,321.2344 1220.1333,321.2344 Q1217.6333,321.2344 1216.3052,319.5938 Q1214.9927,317.9375 1214.9927,314.8125 Q1214.9927,311.6875 1216.3052,310.0313 Q1217.6333,308.375 1220.1333,308.375 Q1220.8364,308.375 1221.4771,308.5313 Q1222.1333,308.6875 1222.6958,308.9844 L1222.6958,311.7031 Q1222.0708,311.125 1221.4771,310.8594 Q1220.8833,310.5781 1220.2583,310.5781 Q1218.9146,310.5781 1218.2271,311.6563 Q1217.5396,312.7188 1217.5396,314.8125 Q1217.5396,316.9063 1218.2271,317.9844 Q1218.9146,319.0469 1220.2583,319.0469 Q1220.8833,319.0469 1221.4771,318.7813 Q1222.0708,318.5 1222.6958,317.9219 L1222.6958,320.6406 Z " fill="#000000"/><text fill="#000000" font-family="sans-serif" font-size="14" lengthAdjust="spacing" textLength="148.0801" x="1240.2271" y="319.8467">ChessBoardRenderer</text><line style="stroke:#181818;stroke-width:0.5;" x1="915" x2="1681.0342" y1="331" y2="331"/><rect fill="none" height="6" style="stroke:#C82930;stroke-width:1;" width="6" x="922" y="341.6484"/><text fill="#000000" font-family="sans-serif" font-size="14" lengthAdjust="spacing" textLength="431.3135" x="934" y="347.9951">parser : ch.hslu.cas.msed.blobfish.board.ui.FenUiBoardParser</text><line style="stroke:#181818;stroke-width:0.5;" x1="915" x2="1681.0342" y1="355.2969" y2="355.2969"/><ellipse cx="925" cy="368.9453" fill="#84BE84" rx="3" ry="3" style="stroke:#038048;stroke-width:1;"/><text fill="#000000" font-family="sans-serif" font-size="14" lengthAdjust="spacing" textLength="742.0342" x="934" y="372.292">render ( paramString1 : String , paramPlayerColor2 : ch.hslu.cas.msed.blobfish.base.PlayerColor ) : String</text></g><!--class FieldRenderer--><g class="entity" data-entity="FieldRenderer" data-source-line="24" data-uid="ent0012" id="entity_FieldRenderer"><rect fill="#F1F1F1" height="64.2969" rx="2.5" ry="2.5" style="stroke:#181818;stroke-width:0.5;" width="562.375" x="999" y="638.5"/><ellipse cx="1226.8521" cy="654.5" fill="#B4A7E5" rx="11" ry="11" style="stroke:#181818;stroke-width:1;"/><path d="M1222.7739,650.2656 L1222.7739,648.1094 L1230.1646,648.1094 L1230.1646,650.2656 L1227.6958,650.2656 L1227.6958,658.3438 L1230.1646,658.3438 L1230.1646,660.5 L1222.7739,660.5 L1222.7739,658.3438 L1225.2427,658.3438 L1225.2427,650.2656 L1222.7739,650.2656 Z " fill="#000000"/><text fill="#000000" font-family="sans-serif" font-size="14" font-style="italic" lengthAdjust="spacing" textLength="98.1709" x="1247.3521" y="659.3467">FieldRenderer</text><line style="stroke:#181818;stroke-width:0.5;" x1="1000" x2="1560.375" y1="670.5" y2="670.5"/><line style="stroke:#181818;stroke-width:0.5;" x1="1000" x2="1560.375" y1="678.5" y2="678.5"/><ellipse cx="1010" cy="692.1484" fill="#84BE84" rx="3" ry="3" style="stroke:#038048;stroke-width:1;"/><text fill="#000000" font-family="sans-serif" font-size="14" font-style="italic" lengthAdjust="spacing" textLength="536.375" x="1019" y="695.4951">render ( paramUiField1 : ch.hslu.cas.msed.blobfish.board.ui.UiField ) : String</text></g><!--class SquareColor--><g class="entity" data-entity="SquareColor" data-source-line="29" data-uid="ent0013" id="entity_SquareColor"><rect fill="#F1F1F1" height="80.5938" rx="2.5" ry="2.5" style="stroke:#181818;stroke-width:0.5;" width="118.1465" x="761" y="299"/><ellipse cx="776" cy="315" fill="#EB937F" rx="11" ry="11" style="stroke:#181818;stroke-width:1;"/><path d="M780.1094,321 L772.3906,321 L772.3906,308.6094 L780.1094,308.6094 L780.1094,310.7656 L774.8438,310.7656 L774.8438,313.4375 L779.6094,313.4375 L779.6094,315.5938 L774.8438,315.5938 L774.8438,318.8438 L780.1094,318.8438 L780.1094,321 Z " fill="#000000"/><text fill="#000000" font-family="sans-serif" font-size="14" lengthAdjust="spacing" textLength="86.1465" x="790" y="319.8467">SquareColor</text><line style="stroke:#181818;stroke-width:0.5;" x1="762" x2="878.1465" y1="331" y2="331"/><ellipse cx="772" cy="344.6484" fill="none" rx="3" ry="3" style="stroke:#038048;stroke-width:1;"/><text fill="#000000" font-family="sans-serif" font-size="14" lengthAdjust="spacing" textLength="39.2656" x="781" y="347.9951">DARK</text><ellipse cx="772" cy="360.9453" fill="none" rx="3" ry="3" style="stroke:#038048;stroke-width:1;"/><text fill="#000000" font-family="sans-serif" font-size="14" lengthAdjust="spacing" textLength="41.8564" x="781" y="364.292">LIGHT</text><line style="stroke:#181818;stroke-width:0.5;" x1="762" x2="878.1465" y1="371.5938" y2="371.5938"/></g><!--reverse link BoardRenderer to FieldRenderer--><g class="link" data-entity-1="BoardRenderer" data-entity-2="FieldRenderer" data-source-line="37" data-uid="lnk14" id="link_BoardRenderer_FieldRenderer"><path codeLine="37" d="M1280,573.69 C1280,596.59 1280,615.54 1280,638.41" fill="none" id="BoardRenderer-backto-FieldRenderer" style="stroke:#181818;stroke-width:1;"/><polygon fill="#181818" points="1280,561.69,1276,567.69,1280,573.69,1284,567.69,1280,561.69" style="stroke:#181818;stroke-width:1;"/><text fill="#000000" font-family="sans-serif" font-size="13" lengthAdjust="spacing" textLength="43.1768" x="1281" y="604.5669">render</text></g><!--reverse link ChessBoardRenderer to BoardRenderer--><g class="link" data-entity-1="ChessBoardRenderer" data-entity-2="BoardRenderer" data-source-line="38" data-uid="lnk15" id="link_ChessBoardRenderer_BoardRenderer"><path codeLine="38" d="M1293.0374,392.3155 C1289.6974,427.2355 1286.05,465.33 1282.98,497.38" fill="none" id="ChessBoardRenderer-backto-BoardRenderer" style="stroke:#181818;stroke-width:1;"/><polygon fill="#181818" points="1294.18,380.37,1289.6269,385.9619,1293.0374,392.3155,1297.5906,386.7236,1294.18,380.37" style="stroke:#181818;stroke-width:1;"/><text fill="#000000" font-family="sans-serif" font-size="13" lengthAdjust="spacing" textLength="97.9761" x="1288" y="463.5669">boardRenderer</text></g><!--SRC=[hLFBRi8m43mtN-4ZjCKIFNAZj51K2eZ7kTeuIsBanAtj85KH_VOw2G-d81Igtc9xPtPcPyC4Q4rOH2CjKif0qrXZG7qX_HNN4VKbg83s8jJwCVyacNUJhJYAO4ioRS1mjYMj-Q8xMqmdy-5YE1c_zv_7f4FcHl4aF5Qt2Yhxm6HCGswYrAT-9209PSBNYhAyX-0-BVfON8mcaXPu5yWtkK7I81-W82vvsuSEf9bprZRW4eTe-fYGHjELUtZbUW0nJZQeoWfVIe6GL4joPICCGLoKTmOgSb2ErYNx6ZP0KyC57N5jlAtdUQnMDYal9pR3941bnMPEcszLtEx5BNbHsgunCKkxgoRt9NWgu0jLJmgf7YuJW4RgL1DdlbVvEgPMCRTVAAjAswjQNcpEEplJ0kL6KPtHIO3_RPyd1jKA6DRIdNiz6ot9mDT60JCd5fQyWDMEkQZ-BHEJDAu3dt-ceB1qwgHpzzITlJh7qN3miYY8xG9SkzAthHQvVbeTKex5-zkgrMrQHUK_ktFsl1y0]--></g></svg>