<svg xmlns="http://www.w3.org/2000/svg" xmlns:xlink="http://www.w3.org/1999/xlink" contentStyleType="text/css" data-diagram-type="CLASS" height="767px" preserveAspectRatio="none" style="width:2761px;height:767px;background:#FFFFFF;" version="1.1" viewBox="0 0 2761 767" width="2761px" zoomAndPan="magnify"><defs/><g><!--cluster ch--><g class="cluster" data-entity="ch" data-source-line="2" data-uid="ent0003" id="cluster_ch"><path d="M8.5,6 L27.7656,6 A3.75,3.75 0 0 1 30.2656,8.5 L37.2656,28.2969 L2751.5,28.2969 A2.5,2.5 0 0 1 2754,30.7969 L2754,757.5 A2.5,2.5 0 0 1 2751.5,760 L8.5,760 A2.5,2.5 0 0 1 6,757.5 L6,8.5 A2.5,2.5 0 0 1 8.5,6" fill="none" style="stroke:#000000;stroke-width:1.5;"/><line style="stroke:#000000;stroke-width:1.5;" x1="6" x2="37.2656" y1="28.2969" y2="28.2969"/><text fill="#000000" font-family="sans-serif" font-size="14" font-weight="bold" lengthAdjust="spacing" textLength="18.2656" x="10" y="20.9951">ch</text></g><!--cluster hslu--><g class="cluster" data-entity="hslu" data-source-line="2" data-uid="ent0004" id="cluster_hslu"><path d="M32.5,49 L66.5654,49 A3.75,3.75 0 0 1 69.0654,51.5 L76.0654,71.2969 L2727.5,71.2969 A2.5,2.5 0 0 1 2730,73.7969 L2730,733.5 A2.5,2.5 0 0 1 2727.5,736 L32.5,736 A2.5,2.5 0 0 1 30,733.5 L30,51.5 A2.5,2.5 0 0 1 32.5,49" fill="none" style="stroke:#000000;stroke-width:1.5;"/><line style="stroke:#000000;stroke-width:1.5;" x1="30" x2="76.0654" y1="71.2969" y2="71.2969"/><text fill="#000000" font-family="sans-serif" font-size="14" font-weight="bold" lengthAdjust="spacing" textLength="33.0654" x="34" y="63.9951">hslu</text></g><!--cluster cas--><g class="cluster" data-entity="cas" data-source-line="2" data-uid="ent0005" id="cluster_cas"><path d="M56.5,92 L83.5791,92 A3.75,3.75 0 0 1 86.0791,94.5 L93.0791,114.2969 L2703.5,114.2969 A2.5,2.5 0 0 1 2706,116.7969 L2706,709.5 A2.5,2.5 0 0 1 2703.5,712 L56.5,712 A2.5,2.5 0 0 1 54,709.5 L54,94.5 A2.5,2.5 0 0 1 56.5,92" fill="none" style="stroke:#000000;stroke-width:1.5;"/><line style="stroke:#000000;stroke-width:1.5;" x1="54" x2="93.0791" y1="114.2969" y2="114.2969"/><text fill="#000000" font-family="sans-serif" font-size="14" font-weight="bold" lengthAdjust="spacing" textLength="26.0791" x="58" y="106.9951">cas</text></g><!--cluster msed--><g class="cluster" data-entity="msed" data-source-line="2" data-uid="ent0006" id="cluster_msed"><path d="M80.5,135 L123.9375,135 A3.75,3.75 0 0 1 126.4375,137.5 L133.4375,157.2969 L2679.5,157.2969 A2.5,2.5 0 0 1 2682,159.7969 L2682,685.5 A2.5,2.5 0 0 1 2679.5,688 L80.5,688 A2.5,2.5 0 0 1 78,685.5 L78,137.5 A2.5,2.5 0 0 1 80.5,135" fill="none" style="stroke:#000000;stroke-width:1.5;"/><line style="stroke:#000000;stroke-width:1.5;" x1="78" x2="133.4375" y1="157.2969" y2="157.2969"/><text fill="#000000" font-family="sans-serif" font-size="14" font-weight="bold" lengthAdjust="spacing" textLength="42.4375" x="82" y="149.9951">msed</text></g><!--cluster blobfish--><g class="cluster" data-entity="blobfish" data-source-line="2" data-uid="ent0007" id="cluster_blobfish"><path d="M104.5,178 L169.1494,178 A3.75,3.75 0 0 1 171.6494,180.5 L178.6494,200.2969 L2655.5,200.2969 A2.5,2.5 0 0 1 2658,202.7969 L2658,661.5 A2.5,2.5 0 0 1 2655.5,664 L104.5,664 A2.5,2.5 0 0 1 102,661.5 L102,180.5 A2.5,2.5 0 0 1 104.5,178" fill="none" style="stroke:#000000;stroke-width:1.5;"/><line style="stroke:#000000;stroke-width:1.5;" x1="102" x2="178.6494" y1="200.2969" y2="200.2969"/><text fill="#000000" font-family="sans-serif" font-size="14" font-weight="bold" lengthAdjust="spacing" textLength="63.6494" x="106" y="192.9951">blobfish</text></g><!--cluster eval--><g class="cluster" data-entity="eval" data-source-line="2" data-uid="ent0008" id="cluster_eval"><path d="M128.5,221 L162.3672,221 A3.75,3.75 0 0 1 164.8672,223.5 L171.8672,243.2969 L2631.5,243.2969 A2.5,2.5 0 0 1 2634,245.7969 L2634,637.5 A2.5,2.5 0 0 1 2631.5,640 L128.5,640 A2.5,2.5 0 0 1 126,637.5 L126,223.5 A2.5,2.5 0 0 1 128.5,221" fill="none" style="stroke:#000000;stroke-width:1.5;"/><line style="stroke:#000000;stroke-width:1.5;" x1="126" x2="171.8672" y1="243.2969" y2="243.2969"/><text fill="#000000" font-family="sans-serif" font-size="14" font-weight="bold" lengthAdjust="spacing" textLength="32.8672" x="130" y="235.9951">eval</text></g><!--class CompositeEvaluationStrategy--><g class="entity" data-entity="CompositeEvaluationStrategy" data-source-line="2" data-uid="ent0002" id="entity_CompositeEvaluationStrategy"><rect fill="#F1F1F1" height="96.8906" rx="2.5" ry="2.5" style="stroke:#181818;stroke-width:0.5;" width="636.2373" x="142" y="256"/><ellipse cx="351.583" cy="272" fill="#ADD1B2" rx="11" ry="11" style="stroke:#181818;stroke-width:1;"/><path d="M354.5518,277.6406 Q353.9736,277.9375 353.333,278.0781 Q352.6924,278.2344 351.9893,278.2344 Q349.4893,278.2344 348.1611,276.5938 Q346.8486,274.9375 346.8486,271.8125 Q346.8486,268.6875 348.1611,267.0313 Q349.4893,265.375 351.9893,265.375 Q352.6924,265.375 353.333,265.5313 Q353.9893,265.6875 354.5518,265.9844 L354.5518,268.7031 Q353.9268,268.125 353.333,267.8594 Q352.7393,267.5781 352.1143,267.5781 Q350.7705,267.5781 350.083,268.6563 Q349.3955,269.7188 349.3955,271.8125 Q349.3955,273.9063 350.083,274.9844 Q350.7705,276.0469 352.1143,276.0469 Q352.7393,276.0469 353.333,275.7813 Q353.9268,275.5 354.5518,274.9219 L354.5518,277.6406 Z " fill="#000000"/><text fill="#000000" font-family="sans-serif" font-size="14" lengthAdjust="spacing" textLength="208.5713" x="372.083" y="276.8467">CompositeEvaluationStrategy</text><line style="stroke:#181818;stroke-width:0.5;" x1="143" x2="777.2373" y1="288" y2="288"/><rect fill="none" height="6" style="stroke:#C82930;stroke-width:1;" width="6" x="150" y="298.6484"/><text fill="#000000" font-family="sans-serif" font-size="14" lengthAdjust="spacing" textLength="168.3691" x="162" y="304.9951">strategies : java.util.List</text><line style="stroke:#181818;stroke-width:0.5;" x1="143" x2="777.2373" y1="312.2969" y2="312.2969"/><ellipse cx="153" cy="325.9453" fill="#84BE84" rx="3" ry="3" style="stroke:#038048;stroke-width:1;"/><text fill="#000000" font-family="sans-serif" font-size="14" lengthAdjust="spacing" text-decoration="underline" textLength="563.5615" x="162" y="329.292">builder () : ch.hslu.cas.msed.blobfish.eval.CompositeEvaluationStrategy$Builder</text><ellipse cx="153" cy="342.2422" fill="#84BE84" rx="3" ry="3" style="stroke:#038048;stroke-width:1;"/><text fill="#000000" font-family="sans-serif" font-size="14" lengthAdjust="spacing" textLength="610.2373" x="162" y="345.5889">getEvaluation ( paramChessBoard1 : ch.hslu.cas.msed.blobfish.base.ChessBoard ) : int</text></g><!--class CompositeEvaluationStrategy$Builder--><g class="entity" data-entity="CompositeEvaluationStrategy.Builder" data-source-line="9" data-uid="ent0009" id="entity_CompositeEvaluationStrategy.Builder"><rect fill="#F1F1F1" height="96.8906" rx="2.5" ry="2.5" style="stroke:#181818;stroke-width:0.5;" width="1134.4814" x="813" y="256"/><ellipse cx="1242.4951" cy="272" fill="#ADD1B2" rx="11" ry="11" style="stroke:#181818;stroke-width:1;"/><path d="M1245.4639,277.6406 Q1244.8857,277.9375 1244.2451,278.0781 Q1243.6045,278.2344 1242.9014,278.2344 Q1240.4014,278.2344 1239.0732,276.5938 Q1237.7607,274.9375 1237.7607,271.8125 Q1237.7607,268.6875 1239.0732,267.0313 Q1240.4014,265.375 1242.9014,265.375 Q1243.6045,265.375 1244.2451,265.5313 Q1244.9014,265.6875 1245.4639,265.9844 L1245.4639,268.7031 Q1244.8389,268.125 1244.2451,267.8594 Q1243.6514,267.5781 1243.0264,267.5781 Q1241.6826,267.5781 1240.9951,268.6563 Q1240.3076,269.7188 1240.3076,271.8125 Q1240.3076,273.9063 1240.9951,274.9844 Q1241.6826,276.0469 1243.0264,276.0469 Q1243.6514,276.0469 1244.2451,275.7813 Q1244.8389,275.5 1245.4639,274.9219 L1245.4639,277.6406 Z " fill="#000000"/><text fill="#000000" font-family="sans-serif" font-size="14" lengthAdjust="spacing" textLength="266.9912" x="1262.9951" y="276.8467">CompositeEvaluationStrategy$Builder</text><line style="stroke:#181818;stroke-width:0.5;" x1="814" x2="1946.4814" y1="288" y2="288"/><rect fill="none" height="6" style="stroke:#C82930;stroke-width:1;" width="6" x="821" y="298.6484"/><text fill="#000000" font-family="sans-serif" font-size="14" lengthAdjust="spacing" textLength="168.3691" x="833" y="304.9951">strategies : java.util.List</text><line style="stroke:#181818;stroke-width:0.5;" x1="814" x2="1946.4814" y1="312.2969" y2="312.2969"/><ellipse cx="824" cy="325.9453" fill="#84BE84" rx="3" ry="3" style="stroke:#038048;stroke-width:1;"/><text fill="#000000" font-family="sans-serif" font-size="14" lengthAdjust="spacing" textLength="1108.4814" x="833" y="329.292">add ( paramEvaluationStrategy1 : ch.hslu.cas.msed.blobfish.base.EvaluationStrategy ) : ch.hslu.cas.msed.blobfish.eval.CompositeEvaluationStrategy$Builder</text><ellipse cx="824" cy="342.2422" fill="#84BE84" rx="3" ry="3" style="stroke:#038048;stroke-width:1;"/><text fill="#000000" font-family="sans-serif" font-size="14" lengthAdjust="spacing" textLength="490.7725" x="833" y="345.5889">build () : ch.hslu.cas.msed.blobfish.eval.CompositeEvaluationStrategy</text></g><!--class MateAwareEvaluation--><g class="entity" data-entity="MateAwareEvaluation" data-source-line="16" data-uid="ent0010" id="entity_MateAwareEvaluation"><rect fill="#F1F1F1" height="80.5938" rx="2.5" ry="2.5" style="stroke:#181818;stroke-width:0.5;" width="636.2373" x="1982" y="264"/><ellipse cx="2219.5659" cy="280" fill="#ADD1B2" rx="11" ry="11" style="stroke:#181818;stroke-width:1;"/><path d="M2222.5347,285.6406 Q2221.9565,285.9375 2221.3159,286.0781 Q2220.6753,286.2344 2219.9722,286.2344 Q2217.4722,286.2344 2216.144,284.5938 Q2214.8315,282.9375 2214.8315,279.8125 Q2214.8315,276.6875 2216.144,275.0313 Q2217.4722,273.375 2219.9722,273.375 Q2220.6753,273.375 2221.3159,273.5313 Q2221.9722,273.6875 2222.5347,273.9844 L2222.5347,276.7031 Q2221.9097,276.125 2221.3159,275.8594 Q2220.7222,275.5781 2220.0972,275.5781 Q2218.7534,275.5781 2218.0659,276.6563 Q2217.3784,277.7188 2217.3784,279.8125 Q2217.3784,281.9063 2218.0659,282.9844 Q2218.7534,284.0469 2220.0972,284.0469 Q2220.7222,284.0469 2221.3159,283.7813 Q2221.9097,283.5 2222.5347,282.9219 L2222.5347,285.6406 Z " fill="#000000"/><text fill="#000000" font-family="sans-serif" font-size="14" lengthAdjust="spacing" textLength="152.6055" x="2240.0659" y="284.8467">MateAwareEvaluation</text><line style="stroke:#181818;stroke-width:0.5;" x1="1983" x2="2617.2373" y1="296" y2="296"/><rect fill="none" height="6" style="stroke:#C82930;stroke-width:1;" width="6" x="1990" y="306.6484"/><text fill="#000000" font-family="sans-serif" font-size="14" lengthAdjust="spacing" text-decoration="underline" textLength="131.0928" x="2002" y="312.9951">MAX_NUMBER : int</text><line style="stroke:#181818;stroke-width:0.5;" x1="1983" x2="2617.2373" y1="320.2969" y2="320.2969"/><ellipse cx="1993" cy="333.9453" fill="#84BE84" rx="3" ry="3" style="stroke:#038048;stroke-width:1;"/><text fill="#000000" font-family="sans-serif" font-size="14" lengthAdjust="spacing" textLength="610.2373" x="2002" y="337.292">getEvaluation ( paramChessBoard1 : ch.hslu.cas.msed.blobfish.base.ChessBoard ) : int</text></g><!--class MaterialEvaluation--><g class="entity" data-entity="MaterialEvaluation" data-source-line="22" data-uid="ent0011" id="entity_MaterialEvaluation"><rect fill="#F1F1F1" height="96.8906" rx="2.5" ry="2.5" style="stroke:#181818;stroke-width:0.5;" width="636.2373" x="142" y="470"/><ellipse cx="390.4966" cy="486" fill="#ADD1B2" rx="11" ry="11" style="stroke:#181818;stroke-width:1;"/><path d="M393.4653,491.6406 Q392.8872,491.9375 392.2466,492.0781 Q391.606,492.2344 390.9028,492.2344 Q388.4028,492.2344 387.0747,490.5938 Q385.7622,488.9375 385.7622,485.8125 Q385.7622,482.6875 387.0747,481.0313 Q388.4028,479.375 390.9028,479.375 Q391.606,479.375 392.2466,479.5313 Q392.9028,479.6875 393.4653,479.9844 L393.4653,482.7031 Q392.8403,482.125 392.2466,481.8594 Q391.6528,481.5781 391.0278,481.5781 Q389.6841,481.5781 388.9966,482.6563 Q388.3091,483.7188 388.3091,485.8125 Q388.3091,487.9063 388.9966,488.9844 Q389.6841,490.0469 391.0278,490.0469 Q391.6528,490.0469 392.2466,489.7813 Q392.8403,489.5 393.4653,488.9219 L393.4653,491.6406 Z " fill="#000000"/><text fill="#000000" font-family="sans-serif" font-size="14" lengthAdjust="spacing" textLength="130.7441" x="410.9966" y="490.8467">MaterialEvaluation</text><line style="stroke:#181818;stroke-width:0.5;" x1="143" x2="777.2373" y1="502" y2="502"/><line style="stroke:#181818;stroke-width:0.5;" x1="143" x2="777.2373" y1="510" y2="510"/><ellipse cx="153" cy="523.6484" fill="#84BE84" rx="3" ry="3" style="stroke:#038048;stroke-width:1;"/><text fill="#000000" font-family="sans-serif" font-size="14" lengthAdjust="spacing" textLength="610.2373" x="162" y="526.9951">getEvaluation ( paramChessBoard1 : ch.hslu.cas.msed.blobfish.base.ChessBoard ) : int</text><rect fill="#F24D5C" height="6" style="stroke:#C82930;stroke-width:1;" width="6" x="150" y="536.9453"/><text fill="#000000" font-family="sans-serif" font-size="14" lengthAdjust="spacing" textLength="338.9326" x="162" y="543.292">parseFen ( paramString1 : String ) : java.util.List</text><rect fill="#F24D5C" height="6" style="stroke:#C82930;stroke-width:1;" width="6" x="150" y="553.2422"/><text fill="#000000" font-family="sans-serif" font-size="14" lengthAdjust="spacing" textLength="461.46" x="162" y="559.5889">removeEmptyFieldsFromPosition ( paramString1 : String ) : String</text></g><!--class PieceSquareEvaluation--><g class="entity" data-entity="PieceSquareEvaluation" data-source-line="29" data-uid="ent0012" id="entity_PieceSquareEvaluation"><rect fill="#F1F1F1" height="210.9688" rx="2.5" ry="2.5" style="stroke:#181818;stroke-width:0.5;" width="858.2617" x="813" y="413"/><ellipse cx="1157.521" cy="429" fill="#ADD1B2" rx="11" ry="11" style="stroke:#181818;stroke-width:1;"/><path d="M1160.4897,434.6406 Q1159.9116,434.9375 1159.271,435.0781 Q1158.6304,435.2344 1157.9272,435.2344 Q1155.4272,435.2344 1154.0991,433.5938 Q1152.7866,431.9375 1152.7866,428.8125 Q1152.7866,425.6875 1154.0991,424.0313 Q1155.4272,422.375 1157.9272,422.375 Q1158.6304,422.375 1159.271,422.5313 Q1159.9272,422.6875 1160.4897,422.9844 L1160.4897,425.7031 Q1159.8647,425.125 1159.271,424.8594 Q1158.6772,424.5781 1158.0522,424.5781 Q1156.7085,424.5781 1156.021,425.6563 Q1155.3335,426.7188 1155.3335,428.8125 Q1155.3335,430.9063 1156.021,431.9844 Q1156.7085,433.0469 1158.0522,433.0469 Q1158.6772,433.0469 1159.271,432.7813 Q1159.8647,432.5 1160.4897,431.9219 L1160.4897,434.6406 Z " fill="#000000"/><text fill="#000000" font-family="sans-serif" font-size="14" lengthAdjust="spacing" textLength="160.7197" x="1178.021" y="433.8467">PieceSquareEvaluation</text><line style="stroke:#181818;stroke-width:0.5;" x1="814" x2="1670.2617" y1="445" y2="445"/><rect fill="none" height="6" style="stroke:#C82930;stroke-width:1;" width="6" x="821" y="455.6484"/><text fill="#000000" font-family="sans-serif" font-size="14" lengthAdjust="spacing" textLength="108.6982" x="833" y="461.9951">BISHOP_PST : [I</text><rect fill="none" height="6" style="stroke:#C82930;stroke-width:1;" width="6" x="821" y="471.9453"/><text fill="#000000" font-family="sans-serif" font-size="14" lengthAdjust="spacing" textLength="127.8184" x="833" y="478.292">KING_END_PST : [I</text><rect fill="none" height="6" style="stroke:#C82930;stroke-width:1;" width="6" x="821" y="488.2422"/><text fill="#000000" font-family="sans-serif" font-size="14" lengthAdjust="spacing" textLength="161.9502" x="833" y="494.5889">KING_OPENING_PST : [I</text><rect fill="none" height="6" style="stroke:#C82930;stroke-width:1;" width="6" x="821" y="504.5391"/><text fill="#000000" font-family="sans-serif" font-size="14" lengthAdjust="spacing" textLength="109.7988" x="833" y="510.8857">KNIGHT_PST : [I</text><rect fill="none" height="6" style="stroke:#C82930;stroke-width:1;" width="6" x="821" y="520.8359"/><text fill="#000000" font-family="sans-serif" font-size="14" lengthAdjust="spacing" textLength="98.4238" x="833" y="527.1826">PAWN_PST : [I</text><rect fill="none" height="6" style="stroke:#C82930;stroke-width:1;" width="6" x="821" y="537.1328"/><text fill="#000000" font-family="sans-serif" font-size="14" lengthAdjust="spacing" textLength="105.5195" x="833" y="543.4795">QUEEN_PST : [I</text><rect fill="none" height="6" style="stroke:#C82930;stroke-width:1;" width="6" x="821" y="553.4297"/><text fill="#000000" font-family="sans-serif" font-size="14" lengthAdjust="spacing" textLength="97.0361" x="833" y="559.7764">ROOK_PST : [I</text><line style="stroke:#181818;stroke-width:0.5;" x1="814" x2="1670.2617" y1="567.0781" y2="567.0781"/><ellipse cx="824" cy="580.7266" fill="#84BE84" rx="3" ry="3" style="stroke:#038048;stroke-width:1;"/><text fill="#000000" font-family="sans-serif" font-size="14" lengthAdjust="spacing" textLength="610.2373" x="833" y="584.0732">getEvaluation ( paramChessBoard1 : ch.hslu.cas.msed.blobfish.base.ChessBoard ) : int</text><rect fill="#F24D5C" height="6" style="stroke:#C82930;stroke-width:1;" width="6" x="821" y="594.0234"/><text fill="#000000" font-family="sans-serif" font-size="14" lengthAdjust="spacing" textLength="832.2617" x="833" y="600.3701">getPieceValue ( paramint1 : int , paramPiece2 : ch.hslu.cas.msed.blobfish.base.Piece , paramboolean3 : boolean ) : int</text><rect fill="#F24D5C" height="6" style="stroke:#C82930;stroke-width:1;" width="6" x="821" y="610.3203"/><text fill="#000000" font-family="sans-serif" font-size="14" lengthAdjust="spacing" textLength="709.8506" x="833" y="616.667">getPstForPiece ( paramPiece1 : ch.hslu.cas.msed.blobfish.base.Piece , paramboolean2 : boolean ) : [I</text></g><!--SRC=[pL9DJy9043tRNx473nZi9k3D6sWHWfGgVYKUoBOTw9ejYpjRZ27yTxUjG8D52Nv4BcndthoPUMy2mH194D48HK83XZH62Aalf3_Y656OCK7FP3oLo3KuvYjXcil9G2kcOVnAvjR1VCH1X0jYOnxaWEIKFB4PeudcWbvor0OLWuwaWP4vQiCHB4ZLJxW8GP7AaIdOVuZ3PivJQ58TWru3IOLCcMBnMGI8JSbKMFkqeSyGw1fCql7uH5iBoxA2Rogs77OFvQei39UhV2JUOQKI_tvU-SpKxrgwkzGzWs-yC5KWAKgxEZQxrtWOkhUzfdFzxkQ_kPPq1SMPsDZWTwTRyzk63w45AsfZ0f-CKzhybTLilKfRGInduCHJ_TfAHSUMah6N6biOjvGpV-ukbCSXWC5pijLjkzaPjFlUq1lS6Fh7JY7JxRWNGySztvhhUuwR_fVbtSv5-wOiupNktRBurQtZb2Qk-_rkCVvd9Xl-JBuxqmEM_0PJow7aE8zacFhNpJBSiiYNKW2Rd9Yoz-Us2L2tfCfhAuM6jVqQrZSQ6aNJMpA_Dm00]--></g></svg>