<svg xmlns="http://www.w3.org/2000/svg" xmlns:xlink="http://www.w3.org/1999/xlink" contentStyleType="text/css" data-diagram-type="ACTIVITY" height="963px" preserveAspectRatio="none" style="width:963px;height:963px;background:#FFFFFF;" version="1.1" viewBox="0 0 963 963" width="963px" zoomAndPan="magnify"><defs/><g><ellipse cx="417.6533" cy="20" fill="#222222" rx="10" ry="10" style="stroke:#222222;stroke-width:1;"/><rect fill="#F1F1F1" height="33.9688" rx="12.5" ry="12.5" style="stroke:#181818;stroke-width:0.5;" width="320.2402" x="257.5332" y="50"/><text fill="#000000" font-family="sans-serif" font-size="12" lengthAdjust="spacing" textLength="300.2402" x="267.5332" y="71.1387">call Minimax(position, depth, playerColor, history)</text><polygon fill="#F1F1F1" points="332.5779,103.9688,502.7288,103.9688,514.7288,115.9688,502.7288,127.9688,332.5779,127.9688,320.5779,115.9688,332.5779,103.9688" style="stroke:#181818;stroke-width:0.5;"/><text fill="#000000" font-family="sans-serif" font-size="11" lengthAdjust="spacing" textLength="170.1509" x="332.5779" y="119.7769">depth &lt;= 0 OR isGameOver()?</text><text fill="#000000" font-family="sans-serif" font-size="11" lengthAdjust="spacing" textLength="19.0083" x="301.5696" y="113.3745">yes</text><text fill="#000000" font-family="sans-serif" font-size="11" lengthAdjust="spacing" textLength="13.7017" x="514.7288" y="113.3745">no</text><rect fill="#F1F1F1" height="33.9688" rx="12.5" ry="12.5" style="stroke:#181818;stroke-width:0.5;" width="123.5645" x="67.4844" y="137.9688"/><text fill="#000000" font-family="sans-serif" font-size="12" lengthAdjust="spacing" textLength="103.5645" x="77.4844" y="159.1074">evaluate position</text><rect fill="#F1F1F1" height="33.9688" rx="12.5" ry="12.5" style="stroke:#181818;stroke-width:0.5;" width="236.5332" x="11" y="206.9375"/><text fill="#000000" font-family="sans-serif" font-size="12" lengthAdjust="spacing" textLength="216.5332" x="21" y="228.0762">return new MoveNode(eval, history)</text><ellipse cx="129.2666" cy="286.9063" fill="none" rx="11" ry="11" style="stroke:#222222;stroke-width:1;"/><ellipse cx="129.2666" cy="286.9063" fill="#222222" rx="6" ry="6" style="stroke:#222222;stroke-width:1;"/><path d="M336.6965,137.9688 L336.6965,193.3672 A0,0 0 0 0 336.6965,193.3672 L601.6687,193.3672 A0,0 0 0 0 601.6687,193.3672 L601.6687,169.668 L621.6687,165.668 L601.6687,161.668 L601.6687,147.9688 L591.6687,137.9688 L336.6965,137.9688 A0,0 0 0 0 336.6965,137.9688" fill="#FEFFDD" style="stroke:#181818;stroke-width:0.5;"/><path d="M591.6687,137.9688 L591.6687,147.9688 L601.6687,147.9688 L591.6687,137.9688" fill="#FEFFDD" style="stroke:#181818;stroke-width:0.5;"/><text fill="#000000" font-family="sans-serif" font-size="13" lengthAdjust="spacing" textLength="243.9722" x="342.6965" y="155.0356">playerColor WHITE  -&gt; maximize eval</text><text fill="#000000" font-family="sans-serif" font-size="13" lengthAdjust="spacing" textLength="240.2017" x="342.6965" y="170.1685">playerColor BLACK  -&gt; minimize eval</text><text fill="#000000" font-family="sans-serif" font-size="13" lengthAdjust="spacing" textLength="188.9443" x="342.6965" y="185.3013">Always prefer shorter history</text><rect fill="#F1F1F1" height="33.9688" rx="12.5" ry="12.5" style="stroke:#181818;stroke-width:0.5;" width="187.4434" x="621.6687" y="148.6836"/><text fill="#000000" font-family="sans-serif" font-size="12" lengthAdjust="spacing" textLength="167.4434" x="631.6687" y="169.8223">determine nodeComparator</text><rect fill="#F1F1F1" height="33.9688" rx="12.5" ry="12.5" style="stroke:#181818;stroke-width:0.5;" width="246.6289" x="592.0759" y="228.3672"/><text fill="#000000" font-family="sans-serif" font-size="12" lengthAdjust="spacing" textLength="226.6289" x="602.0759" y="249.5059">nextPlayerColor = invert(playerColor)</text><rect fill="#F1F1F1" height="33.9688" rx="12.5" ry="12.5" style="stroke:#181818;stroke-width:0.5;" width="140.4805" x="645.1501" y="341.3359"/><text fill="#000000" font-family="sans-serif" font-size="12" lengthAdjust="spacing" textLength="120.4805" x="655.1501" y="362.4746">get next legal move</text><rect fill="#F1F1F1" height="33.9688" rx="12.5" ry="12.5" style="stroke:#181818;stroke-width:0.5;" width="199.6543" x="615.5632" y="395.3047"/><text fill="#000000" font-family="sans-serif" font-size="12" lengthAdjust="spacing" textLength="179.6543" x="625.5632" y="416.4434">newPosition = doMove(move)</text><rect fill="#F1F1F1" height="33.9688" rx="12.5" ry="12.5" style="stroke:#181818;stroke-width:0.5;" width="197.6504" x="616.5652" y="453.625"/><text fill="#000000" font-family="sans-serif" font-size="12" lengthAdjust="spacing" textLength="177.6504" x="626.5652" y="474.7637">newHistory = history + move</text><path d="M258.1829,504.4453 L258.1829,544.7109 A0,0 0 0 0 258.1829,544.7109 L484.8533,544.7109 A0,0 0 0 0 484.8533,544.7109 L484.8533,528.5781 L504.8533,524.5781 L484.8533,520.5781 L484.8533,514.4453 L474.8533,504.4453 L258.1829,504.4453 A0,0 0 0 0 258.1829,504.4453" fill="#FEFFDD" style="stroke:#181818;stroke-width:0.5;"/><path d="M474.8533,504.4453 L474.8533,514.4453 L484.8533,514.4453 L474.8533,504.4453" fill="#FEFFDD" style="stroke:#181818;stroke-width:0.5;"/><text fill="#000000" font-family="sans-serif" font-size="13" lengthAdjust="spacing" textLength="205.6704" x="264.1829" y="521.5122">creates minimax subtask which</text><text fill="#000000" font-family="sans-serif" font-size="13" lengthAdjust="spacing" textLength="163.6616" x="264.1829" y="536.645">gets executed in the fork</text><rect fill="#F1F1F1" height="33.9688" rx="12.5" ry="12.5" style="stroke:#181818;stroke-width:0.5;" width="421.0742" x="504.8533" y="507.5938"/><text fill="#000000" font-family="sans-serif" font-size="12" lengthAdjust="spacing" textLength="401.0742" x="514.8533" y="528.7324">new Minimax(newPosition, depth - 1, nextPlayerColor, newHistory)</text><polygon fill="#F1F1F1" points="715.3904,297.3359,727.3904,309.3359,715.3904,321.3359,703.3904,309.3359,715.3904,297.3359" style="stroke:#181818;stroke-width:0.5;"/><polygon fill="#F1F1F1" points="667.7246,564.7109,763.0562,564.7109,775.0562,576.7109,763.0562,588.7109,667.7246,588.7109,655.7246,576.7109,667.7246,564.7109" style="stroke:#181818;stroke-width:0.5;"/><text fill="#000000" font-family="sans-serif" font-size="11" lengthAdjust="spacing" textLength="95.3315" x="667.7246" y="580.519">has legal moves?</text><rect fill="#555555" height="6" rx="2.5" ry="2.5" style="stroke:#555555;stroke-width:1;" width="182.7539" x="624.0134" y="608.7109"/><rect fill="#F1F1F1" height="33.9688" rx="12.5" ry="12.5" style="stroke:#181818;stroke-width:0.5;" width="154.7539" x="638.0134" y="634.7109"/><text fill="#000000" font-family="sans-serif" font-size="12" lengthAdjust="spacing" textLength="134.7539" x="648.0134" y="655.8496">execute subtask (1..n)</text><rect fill="#555555" height="6" rx="2.5" ry="2.5" style="stroke:#555555;stroke-width:1;" width="182.7539" x="624.0134" y="688.6797"/><rect fill="#F1F1F1" height="33.9688" rx="12.5" ry="12.5" style="stroke:#181818;stroke-width:0.5;" width="116.252" x="657.2644" y="714.6797"/><text fill="#000000" font-family="sans-serif" font-size="12" lengthAdjust="spacing" textLength="96.252" x="667.2644" y="735.8184">join all subtasks</text><rect fill="#F1F1F1" height="33.9688" rx="12.5" ry="12.5" style="stroke:#181818;stroke-width:0.5;" width="239.498" x="595.6414" y="768.6484"/><text fill="#000000" font-family="sans-serif" font-size="12" lengthAdjust="spacing" textLength="219.498" x="605.6414" y="789.7871">collect all MoveNodes from subtasks</text><rect fill="#F1F1F1" height="33.9688" rx="12.5" ry="12.5" style="stroke:#181818;stroke-width:0.5;" width="294.377" x="568.2019" y="822.6172"/><text fill="#000000" font-family="sans-serif" font-size="12" lengthAdjust="spacing" textLength="274.377" x="578.2019" y="843.7559">select best MoveNode using nodeComparator</text><rect fill="#F1F1F1" height="33.9688" rx="12.5" ry="12.5" style="stroke:#181818;stroke-width:0.5;" width="178.9473" x="625.9167" y="876.5859"/><text fill="#000000" font-family="sans-serif" font-size="12" lengthAdjust="spacing" textLength="158.9473" x="635.9167" y="897.7246">return selected MoveNode</text><ellipse cx="715.3904" cy="941.5547" fill="none" rx="11" ry="11" style="stroke:#222222;stroke-width:1;"/><ellipse cx="715.3904" cy="941.5547" fill="#222222" rx="6" ry="6" style="stroke:#222222;stroke-width:1;"/><line style="stroke:#181818;stroke-width:1;" x1="417.6533" x2="417.6533" y1="30" y2="50"/><polygon fill="#181818" points="413.6533,40,417.6533,50,421.6533,40,417.6533,44" style="stroke:#181818;stroke-width:1;"/><line style="stroke:#181818;stroke-width:1;" x1="129.2666" x2="129.2666" y1="171.9375" y2="206.9375"/><polygon fill="#181818" points="125.2666,196.9375,129.2666,206.9375,133.2666,196.9375,129.2666,200.9375" style="stroke:#181818;stroke-width:1;"/><line style="stroke:#181818;stroke-width:1;" x1="129.2666" x2="129.2666" y1="240.9063" y2="275.9063"/><polygon fill="#181818" points="125.2666,265.9063,129.2666,275.9063,133.2666,265.9063,129.2666,269.9063" style="stroke:#181818;stroke-width:1;"/><line style="stroke:#181818;stroke-width:1;" x1="715.3904" x2="715.3904" y1="182.6523" y2="228.3672"/><polygon fill="#181818" points="711.3904,218.3672,715.3904,228.3672,719.3904,218.3672,715.3904,222.3672" style="stroke:#181818;stroke-width:1;"/><line style="stroke:#181818;stroke-width:1;" x1="715.3904" x2="715.3904" y1="375.3047" y2="395.3047"/><polygon fill="#181818" points="711.3904,385.3047,715.3904,395.3047,719.3904,385.3047,715.3904,389.3047" style="stroke:#181818;stroke-width:1;"/><line style="stroke:#181818;stroke-width:1;" x1="715.3904" x2="715.3904" y1="429.2734" y2="453.625"/><polygon fill="#181818" points="711.3904,443.625,715.3904,453.625,719.3904,443.625,715.3904,447.625" style="stroke:#181818;stroke-width:1;"/><line style="stroke:#181818;stroke-width:1;" x1="715.3904" x2="715.3904" y1="487.5938" y2="507.5938"/><polygon fill="#181818" points="711.3904,497.5938,715.3904,507.5938,719.3904,497.5938,715.3904,501.5938" style="stroke:#181818;stroke-width:1;"/><line style="stroke:#181818;stroke-width:1;" x1="715.3904" x2="715.3904" y1="321.3359" y2="341.3359"/><polygon fill="#181818" points="711.3904,331.3359,715.3904,341.3359,719.3904,331.3359,715.3904,335.3359" style="stroke:#181818;stroke-width:1;"/><line style="stroke:#181818;stroke-width:1;" x1="775.0562" x2="937.9275" y1="576.7109" y2="576.7109"/><polygon fill="#181818" points="933.9275,449.2734,937.9275,439.2734,941.9275,449.2734,937.9275,445.2734" style="stroke:#181818;stroke-width:1;"/><line style="stroke:#181818;stroke-width:1;" x1="937.9275" x2="937.9275" y1="309.3359" y2="576.7109"/><line style="stroke:#181818;stroke-width:1;" x1="937.9275" x2="727.3904" y1="309.3359" y2="309.3359"/><polygon fill="#181818" points="737.3904,305.3359,727.3904,309.3359,737.3904,313.3359,733.3904,309.3359" style="stroke:#181818;stroke-width:1;"/><line style="stroke:#181818;stroke-width:1;" x1="715.3904" x2="715.3904" y1="541.5625" y2="564.7109"/><polygon fill="#181818" points="711.3904,554.7109,715.3904,564.7109,719.3904,554.7109,715.3904,558.7109" style="stroke:#181818;stroke-width:1;"/><line style="stroke:#181818;stroke-width:1;" x1="715.3904" x2="715.3904" y1="262.3359" y2="297.3359"/><polygon fill="#181818" points="711.3904,287.3359,715.3904,297.3359,719.3904,287.3359,715.3904,291.3359" style="stroke:#181818;stroke-width:1;"/><line style="stroke:#181818;stroke-width:1;" x1="715.3904" x2="715.3904" y1="614.7109" y2="634.7109"/><polygon fill="#181818" points="711.3904,624.7109,715.3904,634.7109,719.3904,624.7109,715.3904,628.7109" style="stroke:#181818;stroke-width:1;"/><line style="stroke:#181818;stroke-width:1;" x1="715.3904" x2="715.3904" y1="668.6797" y2="688.6797"/><polygon fill="#181818" points="711.3904,678.6797,715.3904,688.6797,719.3904,678.6797,715.3904,682.6797" style="stroke:#181818;stroke-width:1;"/><line style="stroke:#181818;stroke-width:1;" x1="715.3904" x2="715.3904" y1="588.7109" y2="608.7109"/><polygon fill="#181818" points="711.3904,598.7109,715.3904,608.7109,719.3904,598.7109,715.3904,602.7109" style="stroke:#181818;stroke-width:1;"/><line style="stroke:#181818;stroke-width:1;" x1="715.3904" x2="715.3904" y1="694.6797" y2="714.6797"/><polygon fill="#181818" points="711.3904,704.6797,715.3904,714.6797,719.3904,704.6797,715.3904,708.6797" style="stroke:#181818;stroke-width:1;"/><line style="stroke:#181818;stroke-width:1;" x1="715.3904" x2="715.3904" y1="748.6484" y2="768.6484"/><polygon fill="#181818" points="711.3904,758.6484,715.3904,768.6484,719.3904,758.6484,715.3904,762.6484" style="stroke:#181818;stroke-width:1;"/><line style="stroke:#181818;stroke-width:1;" x1="715.3904" x2="715.3904" y1="802.6172" y2="822.6172"/><polygon fill="#181818" points="711.3904,812.6172,715.3904,822.6172,719.3904,812.6172,715.3904,816.6172" style="stroke:#181818;stroke-width:1;"/><line style="stroke:#181818;stroke-width:1;" x1="715.3904" x2="715.3904" y1="856.5859" y2="876.5859"/><polygon fill="#181818" points="711.3904,866.5859,715.3904,876.5859,719.3904,866.5859,715.3904,870.5859" style="stroke:#181818;stroke-width:1;"/><line style="stroke:#181818;stroke-width:1;" x1="715.3904" x2="715.3904" y1="910.5547" y2="930.5547"/><polygon fill="#181818" points="711.3904,920.5547,715.3904,930.5547,719.3904,920.5547,715.3904,924.5547" style="stroke:#181818;stroke-width:1;"/><line style="stroke:#181818;stroke-width:1;" x1="320.5779" x2="129.2666" y1="115.9688" y2="115.9688"/><line style="stroke:#181818;stroke-width:1;" x1="129.2666" x2="129.2666" y1="115.9688" y2="137.9688"/><polygon fill="#181818" points="125.2666,127.9688,129.2666,137.9688,133.2666,127.9688,129.2666,131.9688" style="stroke:#181818;stroke-width:1;"/><line style="stroke:#181818;stroke-width:1;" x1="514.7288" x2="715.3904" y1="115.9688" y2="115.9688"/><line style="stroke:#181818;stroke-width:1;" x1="715.3904" x2="715.3904" y1="115.9688" y2="148.6836"/><polygon fill="#181818" points="711.3904,138.6836,715.3904,148.6836,719.3904,138.6836,715.3904,142.6836" style="stroke:#181818;stroke-width:1;"/><line style="stroke:#181818;stroke-width:1;" x1="417.6533" x2="417.6533" y1="83.9688" y2="103.9688"/><polygon fill="#181818" points="413.6533,93.9688,417.6533,103.9688,421.6533,93.9688,417.6533,97.9688" style="stroke:#181818;stroke-width:1;"/><!--SRC=[RPDRRzGm48NV_IlEOoAs5NtDKggoGXH1QOMG-kmcausfOqUsinT-FMFdibcMDylvpioPax4FqWKXYb9gZKTbL2iFMMUz2igQ5IhgGhD2f-MHtCPgwrPeb0_M7VEr4Af6bX1ykCLxFFs4ybzaIqyxSbb-boCqP90ToUS2A6WdTIy3OMgmZhUEGkyC3EtnQ7VqmrQKHNBP2U1J9qXxGcPiBlY6fHK5Sgqo1CEgZMqxwIHBrkcpiO7IOM4VBmzVVtq6hZw29rMj-aE8pIwuJz_lDzy6BgPonjthlJnwT8vgSl2DTMnZSfi8CjNGVl1fw12U5yLleGn75B95nvXdX1rr94Cw9ksM0g8UchPIe-M8rgUldDhp62PNhMnCC8jCVWuz3EQO6MtYtNzApHkmA3ik0Qvmiy8_WyIBgVIYOPoSxTQdAKh7Cv4VifG7-FurIF-6VQFAPgPuL0ywKDa7gZYYk3wehNkRYJdNKrAnXkQjQAHVHEJlnXqvanTZyRb_TdDzRKRdiVPC5xyjzu-FOaJz-7kAqcfDPKZVfdtrg9rjBr1FYNmb7sOKlLTcUx6lWs1y2eEE8vX4Wy7q10JRLBKGuYy0]--></g></svg>