<svg xmlns="http://www.w3.org/2000/svg" xmlns:xlink="http://www.w3.org/1999/xlink" contentStyleType="text/css" data-diagram-type="ACTIVITY" height="1109px" preserveAspectRatio="none" style="width:715px;height:1109px;background:#FFFFFF;" version="1.1" viewBox="0 0 715 1109" width="715px" zoomAndPan="magnify"><defs/><g><ellipse cx="467.2075" cy="20" fill="#222222" rx="10" ry="10" style="stroke:#222222;stroke-width:1;"/><rect fill="#F1F1F1" height="33.9688" rx="12.5" ry="12.5" style="stroke:#181818;stroke-width:0.5;" width="320.2402" x="307.0874" y="50"/><text fill="#000000" font-family="sans-serif" font-size="12" lengthAdjust="spacing" textLength="300.2402" x="317.0874" y="71.1387">call Minimax(position, depth, playerColor, history)</text><rect fill="#F1F1F1" height="33.9688" rx="12.5" ry="12.5" style="stroke:#181818;stroke-width:0.5;" width="123.5645" x="405.4253" y="152.3711"/><text fill="#000000" font-family="sans-serif" font-size="12" lengthAdjust="spacing" textLength="103.5645" x="415.4253" y="173.5098">evaluate position</text><rect fill="#F1F1F1" height="33.9688" rx="12.5" ry="12.5" style="stroke:#181818;stroke-width:0.5;" width="236.5332" x="348.9409" y="206.3398"/><text fill="#000000" font-family="sans-serif" font-size="12" lengthAdjust="spacing" textLength="216.5332" x="358.9409" y="227.4785">return new MoveNode(eval, history)</text><ellipse cx="467.2075" cy="271.3086" fill="none" rx="11" ry="11" style="stroke:#222222;stroke-width:1;"/><ellipse cx="467.2075" cy="271.3086" fill="#222222" rx="6" ry="6" style="stroke:#222222;stroke-width:1;"/><polygon fill="#F1F1F1" points="382.1321,103.9688,552.283,103.9688,564.283,115.9688,552.283,127.9688,382.1321,127.9688,370.1321,115.9688,382.1321,103.9688" style="stroke:#181818;stroke-width:0.5;"/><text fill="#000000" font-family="sans-serif" font-size="11" lengthAdjust="spacing" textLength="19.0083" x="471.2075" y="138.1792">yes</text><text fill="#000000" font-family="sans-serif" font-size="11" lengthAdjust="spacing" textLength="170.1509" x="382.1321" y="119.7769">depth &lt;= 0 OR isGameOver()?</text><path d="M88.5137,314.3086 L88.5137,369.707 A0,0 0 0 0 88.5137,369.707 L353.4858,369.707 A0,0 0 0 0 353.4858,369.707 L353.4858,346.0078 L373.4858,342.0078 L353.4858,338.0078 L353.4858,324.3086 L343.4858,314.3086 L88.5137,314.3086 A0,0 0 0 0 88.5137,314.3086" fill="#FEFFDD" style="stroke:#181818;stroke-width:0.5;"/><path d="M343.4858,314.3086 L343.4858,324.3086 L353.4858,324.3086 L343.4858,314.3086" fill="#FEFFDD" style="stroke:#181818;stroke-width:0.5;"/><text fill="#000000" font-family="sans-serif" font-size="13" lengthAdjust="spacing" textLength="243.9722" x="94.5137" y="331.3755">playerColor WHITE  -&gt; maximize eval</text><text fill="#000000" font-family="sans-serif" font-size="13" lengthAdjust="spacing" textLength="240.2017" x="94.5137" y="346.5083">playerColor BLACK  -&gt; minimize eval</text><text fill="#000000" font-family="sans-serif" font-size="13" lengthAdjust="spacing" textLength="188.9443" x="94.5137" y="361.6411">Always prefer shorter history</text><rect fill="#F1F1F1" height="33.9688" rx="12.5" ry="12.5" style="stroke:#181818;stroke-width:0.5;" width="187.4434" x="373.4858" y="325.0234"/><text fill="#000000" font-family="sans-serif" font-size="12" lengthAdjust="spacing" textLength="167.4434" x="383.4858" y="346.1621">determine nodeComparator</text><rect fill="#F1F1F1" height="33.9688" rx="12.5" ry="12.5" style="stroke:#181818;stroke-width:0.5;" width="246.6289" x="343.8931" y="389.707"/><text fill="#000000" font-family="sans-serif" font-size="12" lengthAdjust="spacing" textLength="226.6289" x="353.8931" y="410.8457">nextPlayerColor = invert(playerColor)</text><rect fill="#F1F1F1" height="33.9688" rx="12.5" ry="12.5" style="stroke:#181818;stroke-width:0.5;" width="140.4805" x="396.9673" y="487.6758"/><text fill="#000000" font-family="sans-serif" font-size="12" lengthAdjust="spacing" textLength="120.4805" x="406.9673" y="508.8145">get next legal move</text><rect fill="#F1F1F1" height="33.9688" rx="12.5" ry="12.5" style="stroke:#181818;stroke-width:0.5;" width="199.6543" x="367.3804" y="541.6445"/><text fill="#000000" font-family="sans-serif" font-size="12" lengthAdjust="spacing" textLength="179.6543" x="377.3804" y="562.7832">newPosition = doMove(move)</text><rect fill="#F1F1F1" height="33.9688" rx="12.5" ry="12.5" style="stroke:#181818;stroke-width:0.5;" width="197.6504" x="368.3823" y="599.9648"/><text fill="#000000" font-family="sans-serif" font-size="12" lengthAdjust="spacing" textLength="177.6504" x="378.3823" y="621.1035">newHistory = history + move</text><path d="M10,650.7852 L10,691.0508 A0,0 0 0 0 10,691.0508 L236.6704,691.0508 A0,0 0 0 0 236.6704,691.0508 L236.6704,674.918 L256.6704,670.918 L236.6704,666.918 L236.6704,660.7852 L226.6704,650.7852 L10,650.7852 A0,0 0 0 0 10,650.7852" fill="#FEFFDD" style="stroke:#181818;stroke-width:0.5;"/><path d="M226.6704,650.7852 L226.6704,660.7852 L236.6704,660.7852 L226.6704,650.7852" fill="#FEFFDD" style="stroke:#181818;stroke-width:0.5;"/><text fill="#000000" font-family="sans-serif" font-size="13" lengthAdjust="spacing" textLength="205.6704" x="16" y="667.8521">creates minimax subtask which</text><text fill="#000000" font-family="sans-serif" font-size="13" lengthAdjust="spacing" textLength="163.6616" x="16" y="682.9849">gets executed in the fork</text><rect fill="#F1F1F1" height="33.9688" rx="12.5" ry="12.5" style="stroke:#181818;stroke-width:0.5;" width="421.0742" x="256.6704" y="653.9336"/><text fill="#000000" font-family="sans-serif" font-size="12" lengthAdjust="spacing" textLength="401.0742" x="266.6704" y="675.0723">new Minimax(newPosition, depth - 1, nextPlayerColor, newHistory)</text><polygon fill="#F1F1F1" points="467.2075,443.6758,479.2075,455.6758,467.2075,467.6758,455.2075,455.6758,467.2075,443.6758" style="stroke:#181818;stroke-width:0.5;"/><polygon fill="#F1F1F1" points="419.5417,711.0508,514.8733,711.0508,526.8733,723.0508,514.8733,735.0508,419.5417,735.0508,407.5417,723.0508,419.5417,711.0508" style="stroke:#181818;stroke-width:0.5;"/><text fill="#000000" font-family="sans-serif" font-size="11" lengthAdjust="spacing" textLength="95.3315" x="419.5417" y="726.8589">has legal moves?</text><rect fill="#555555" height="6" rx="2.5" ry="2.5" style="stroke:#555555;stroke-width:1;" width="182.7539" x="375.8306" y="755.0508"/><rect fill="#F1F1F1" height="33.9688" rx="12.5" ry="12.5" style="stroke:#181818;stroke-width:0.5;" width="154.7539" x="389.8306" y="781.0508"/><text fill="#000000" font-family="sans-serif" font-size="12" lengthAdjust="spacing" textLength="134.7539" x="399.8306" y="802.1895">execute subtask (1..n)</text><rect fill="#555555" height="6" rx="2.5" ry="2.5" style="stroke:#555555;stroke-width:1;" width="182.7539" x="375.8306" y="835.0195"/><rect fill="#F1F1F1" height="33.9688" rx="12.5" ry="12.5" style="stroke:#181818;stroke-width:0.5;" width="116.252" x="409.0815" y="861.0195"/><text fill="#000000" font-family="sans-serif" font-size="12" lengthAdjust="spacing" textLength="96.252" x="419.0815" y="882.1582">join all subtasks</text><rect fill="#F1F1F1" height="33.9688" rx="12.5" ry="12.5" style="stroke:#181818;stroke-width:0.5;" width="239.498" x="347.4585" y="914.9883"/><text fill="#000000" font-family="sans-serif" font-size="12" lengthAdjust="spacing" textLength="219.498" x="357.4585" y="936.127">collect all MoveNodes from subtasks</text><rect fill="#F1F1F1" height="33.9688" rx="12.5" ry="12.5" style="stroke:#181818;stroke-width:0.5;" width="294.377" x="320.019" y="968.957"/><text fill="#000000" font-family="sans-serif" font-size="12" lengthAdjust="spacing" textLength="274.377" x="330.019" y="990.0957">select best MoveNode using nodeComparator</text><rect fill="#F1F1F1" height="33.9688" rx="12.5" ry="12.5" style="stroke:#181818;stroke-width:0.5;" width="178.9473" x="377.7339" y="1022.9258"/><text fill="#000000" font-family="sans-serif" font-size="12" lengthAdjust="spacing" textLength="158.9473" x="387.7339" y="1044.0645">return selected MoveNode</text><ellipse cx="467.2075" cy="1087.8945" fill="none" rx="11" ry="11" style="stroke:#222222;stroke-width:1;"/><ellipse cx="467.2075" cy="1087.8945" fill="#222222" rx="6" ry="6" style="stroke:#222222;stroke-width:1;"/><line style="stroke:#181818;stroke-width:1;" x1="467.2075" x2="467.2075" y1="30" y2="50"/><polygon fill="#181818" points="463.2075,40,467.2075,50,471.2075,40,467.2075,44" style="stroke:#181818;stroke-width:1;"/><line style="stroke:#181818;stroke-width:1;" x1="467.2075" x2="467.2075" y1="186.3398" y2="206.3398"/><polygon fill="#181818" points="463.2075,196.3398,467.2075,206.3398,471.2075,196.3398,467.2075,200.3398" style="stroke:#181818;stroke-width:1;"/><line style="stroke:#181818;stroke-width:1;" x1="467.2075" x2="467.2075" y1="240.3086" y2="260.3086"/><polygon fill="#181818" points="463.2075,250.3086,467.2075,260.3086,471.2075,250.3086,467.2075,254.3086" style="stroke:#181818;stroke-width:1;"/><line style="stroke:#181818;stroke-width:1;" x1="467.2075" x2="467.2075" y1="127.9688" y2="152.3711"/><polygon fill="#181818" points="463.2075,142.3711,467.2075,152.3711,471.2075,142.3711,467.2075,146.3711" style="stroke:#181818;stroke-width:1;"/><line style="stroke:#181818;stroke-width:1;" x1="564.283" x2="595.4741" y1="115.9688" y2="115.9688"/><polygon fill="#181818" points="591.4741,204.3398,595.4741,214.3398,599.4741,204.3398,595.4741,208.3398" style="stroke:#181818;stroke-width:1;"/><line style="stroke:#181818;stroke-width:1;" x1="595.4741" x2="595.4741" y1="115.9688" y2="304.3086"/><line style="stroke:#181818;stroke-width:1;" x1="595.4741" x2="467.2075" y1="304.3086" y2="304.3086"/><line style="stroke:#181818;stroke-width:1;" x1="467.2075" x2="467.2075" y1="304.3086" y2="325.0234"/><polygon fill="#181818" points="463.2075,315.0234,467.2075,325.0234,471.2075,315.0234,467.2075,319.0234" style="stroke:#181818;stroke-width:1;"/><line style="stroke:#181818;stroke-width:1;" x1="467.2075" x2="467.2075" y1="83.9688" y2="103.9688"/><polygon fill="#181818" points="463.2075,93.9688,467.2075,103.9688,471.2075,93.9688,467.2075,97.9688" style="stroke:#181818;stroke-width:1;"/><line style="stroke:#181818;stroke-width:1;" x1="467.2075" x2="467.2075" y1="358.9922" y2="389.707"/><polygon fill="#181818" points="463.2075,379.707,467.2075,389.707,471.2075,379.707,467.2075,383.707" style="stroke:#181818;stroke-width:1;"/><line style="stroke:#181818;stroke-width:1;" x1="467.2075" x2="467.2075" y1="521.6445" y2="541.6445"/><polygon fill="#181818" points="463.2075,531.6445,467.2075,541.6445,471.2075,531.6445,467.2075,535.6445" style="stroke:#181818;stroke-width:1;"/><line style="stroke:#181818;stroke-width:1;" x1="467.2075" x2="467.2075" y1="575.6133" y2="599.9648"/><polygon fill="#181818" points="463.2075,589.9648,467.2075,599.9648,471.2075,589.9648,467.2075,593.9648" style="stroke:#181818;stroke-width:1;"/><line style="stroke:#181818;stroke-width:1;" x1="467.2075" x2="467.2075" y1="633.9336" y2="653.9336"/><polygon fill="#181818" points="463.2075,643.9336,467.2075,653.9336,471.2075,643.9336,467.2075,647.9336" style="stroke:#181818;stroke-width:1;"/><line style="stroke:#181818;stroke-width:1;" x1="467.2075" x2="467.2075" y1="467.6758" y2="487.6758"/><polygon fill="#181818" points="463.2075,477.6758,467.2075,487.6758,471.2075,477.6758,467.2075,481.6758" style="stroke:#181818;stroke-width:1;"/><line style="stroke:#181818;stroke-width:1;" x1="526.8733" x2="689.7446" y1="723.0508" y2="723.0508"/><polygon fill="#181818" points="685.7446,595.6133,689.7446,585.6133,693.7446,595.6133,689.7446,591.6133" style="stroke:#181818;stroke-width:1;"/><line style="stroke:#181818;stroke-width:1;" x1="689.7446" x2="689.7446" y1="455.6758" y2="723.0508"/><line style="stroke:#181818;stroke-width:1;" x1="689.7446" x2="479.2075" y1="455.6758" y2="455.6758"/><polygon fill="#181818" points="489.2075,451.6758,479.2075,455.6758,489.2075,459.6758,485.2075,455.6758" style="stroke:#181818;stroke-width:1;"/><line style="stroke:#181818;stroke-width:1;" x1="467.2075" x2="467.2075" y1="687.9023" y2="711.0508"/><polygon fill="#181818" points="463.2075,701.0508,467.2075,711.0508,471.2075,701.0508,467.2075,705.0508" style="stroke:#181818;stroke-width:1;"/><line style="stroke:#181818;stroke-width:1;" x1="467.2075" x2="467.2075" y1="423.6758" y2="443.6758"/><polygon fill="#181818" points="463.2075,433.6758,467.2075,443.6758,471.2075,433.6758,467.2075,437.6758" style="stroke:#181818;stroke-width:1;"/><line style="stroke:#181818;stroke-width:1;" x1="467.2075" x2="467.2075" y1="761.0508" y2="781.0508"/><polygon fill="#181818" points="463.2075,771.0508,467.2075,781.0508,471.2075,771.0508,467.2075,775.0508" style="stroke:#181818;stroke-width:1;"/><line style="stroke:#181818;stroke-width:1;" x1="467.2075" x2="467.2075" y1="815.0195" y2="835.0195"/><polygon fill="#181818" points="463.2075,825.0195,467.2075,835.0195,471.2075,825.0195,467.2075,829.0195" style="stroke:#181818;stroke-width:1;"/><line style="stroke:#181818;stroke-width:1;" x1="467.2075" x2="467.2075" y1="735.0508" y2="755.0508"/><polygon fill="#181818" points="463.2075,745.0508,467.2075,755.0508,471.2075,745.0508,467.2075,749.0508" style="stroke:#181818;stroke-width:1;"/><line style="stroke:#181818;stroke-width:1;" x1="467.2075" x2="467.2075" y1="841.0195" y2="861.0195"/><polygon fill="#181818" points="463.2075,851.0195,467.2075,861.0195,471.2075,851.0195,467.2075,855.0195" style="stroke:#181818;stroke-width:1;"/><line style="stroke:#181818;stroke-width:1;" x1="467.2075" x2="467.2075" y1="894.9883" y2="914.9883"/><polygon fill="#181818" points="463.2075,904.9883,467.2075,914.9883,471.2075,904.9883,467.2075,908.9883" style="stroke:#181818;stroke-width:1;"/><line style="stroke:#181818;stroke-width:1;" x1="467.2075" x2="467.2075" y1="948.957" y2="968.957"/><polygon fill="#181818" points="463.2075,958.957,467.2075,968.957,471.2075,958.957,467.2075,962.957" style="stroke:#181818;stroke-width:1;"/><line style="stroke:#181818;stroke-width:1;" x1="467.2075" x2="467.2075" y1="1002.9258" y2="1022.9258"/><polygon fill="#181818" points="463.2075,1012.9258,467.2075,1022.9258,471.2075,1012.9258,467.2075,1016.9258" style="stroke:#181818;stroke-width:1;"/><line style="stroke:#181818;stroke-width:1;" x1="467.2075" x2="467.2075" y1="1056.8945" y2="1076.8945"/><polygon fill="#181818" points="463.2075,1066.8945,467.2075,1076.8945,471.2075,1066.8945,467.2075,1070.8945" style="stroke:#181818;stroke-width:1;"/><!--SRC=[PL9DJzqm4BpxLypH4GzKhaafeazLgIW5LPKucsJpukBOaUsyZ_xwhlD5W9lbdPsPdTqGbOz2vAKo1lVQwbOTPUU2ZjhP3IhgOhD1PzI9_DOPvpTeT8ZEdx9225r33X1yli8dFFo63jzLImzxyZAxpX0Rif0d2fa0Sjehqwj8c0MAzEifzjx2qW7tRa-_N4Ko8TTA0BywGRRIDRkjA99ljILOHczTsocl65e8woA9bLqytVxuymqu_mAUJBVw7o6Hly5y_NcplHinAO45SsCEwXJGUQh98pJEi-piAfd182ToIyVuk2AyWhOSGPGhbPINfuvKv6bux1r5f3uOsYc3baSlnWedyJW5n4oLIwd8LCzU0RUZ2QvFTd3sZcBPvefkMYZESRd1EzFfOwQTXD9qRAyU7PUUlLCOCr97XFuvgl22GwFBPa3mI05qfBAFL744QVsedNyPgajUOmgfpn1aey8gWd2T2R6qv1FPeYKlBouikqjS0oh_wrWd7Uy42KMwPcSCbN7udsygeFQkVGCBDA2UASG5XZvek_jmLs8-qx67nviR2Z6Svdy0]--></g></svg>