<svg xmlns="http://www.w3.org/2000/svg" xmlns:xlink="http://www.w3.org/1999/xlink" contentStyleType="text/css" data-diagram-type="ACTIVITY" height="1109px" preserveAspectRatio="none" style="width:884px;height:1109px;background:#FFFFFF;" version="1.1" viewBox="0 0 884 1109" width="884px" zoomAndPan="magnify"><defs/><g><ellipse cx="221.5371" cy="20" fill="#222222" rx="10" ry="10" style="stroke:#222222;stroke-width:1;"/><rect fill="#F1F1F1" height="33.9688" rx="12.5" ry="12.5" style="stroke:#181818;stroke-width:0.5;" width="320.2402" x="61.417" y="50"/><text fill="#000000" font-family="sans-serif" font-size="12" lengthAdjust="spacing" textLength="300.2402" x="71.417" y="71.1387">call Minimax(position, depth, playerColor, history)</text><rect fill="#F1F1F1" height="33.9688" rx="12.5" ry="12.5" style="stroke:#181818;stroke-width:0.5;" width="123.5645" x="159.7549" y="152.3711"/><text fill="#000000" font-family="sans-serif" font-size="12" lengthAdjust="spacing" textLength="103.5645" x="169.7549" y="173.5098">evaluate position</text><rect fill="#F1F1F1" height="33.9688" rx="12.5" ry="12.5" style="stroke:#181818;stroke-width:0.5;" width="236.5332" x="103.2705" y="206.3398"/><text fill="#000000" font-family="sans-serif" font-size="12" lengthAdjust="spacing" textLength="216.5332" x="113.2705" y="227.4785">return new MoveNode(eval, history)</text><ellipse cx="221.5371" cy="271.3086" fill="none" rx="11" ry="11" style="stroke:#222222;stroke-width:1;"/><ellipse cx="221.5371" cy="271.3086" fill="#222222" rx="6" ry="6" style="stroke:#222222;stroke-width:1;"/><polygon fill="#F1F1F1" points="136.4617,103.9688,306.6125,103.9688,318.6125,115.9688,306.6125,127.9688,136.4617,127.9688,124.4617,115.9688,136.4617,103.9688" style="stroke:#181818;stroke-width:0.5;"/><text fill="#000000" font-family="sans-serif" font-size="11" lengthAdjust="spacing" textLength="19.0083" x="225.5371" y="138.1792">yes</text><text fill="#000000" font-family="sans-serif" font-size="11" lengthAdjust="spacing" textLength="170.1509" x="136.4617" y="119.7769">depth &lt;= 0 OR isGameOver()?</text><path d="M335.2588,314.3086 L335.2588,338.0078 L315.2588,342.0078 L335.2588,346.0078 L335.2588,369.707 A0,0 0 0 0 335.2588,369.707 L600.231,369.707 A0,0 0 0 0 600.231,369.707 L600.231,324.3086 L590.231,314.3086 L335.2588,314.3086 A0,0 0 0 0 335.2588,314.3086" fill="#FEFFDD" style="stroke:#181818;stroke-width:0.5;"/><path d="M590.231,314.3086 L590.231,324.3086 L600.231,324.3086 L590.231,314.3086" fill="#FEFFDD" style="stroke:#181818;stroke-width:0.5;"/><text fill="#000000" font-family="sans-serif" font-size="13" lengthAdjust="spacing" textLength="243.9722" x="341.2588" y="331.3755">playerColor WHITE  -&gt; maximize eval</text><text fill="#000000" font-family="sans-serif" font-size="13" lengthAdjust="spacing" textLength="240.2017" x="341.2588" y="346.5083">playerColor BLACK  -&gt; minimize eval</text><text fill="#000000" font-family="sans-serif" font-size="13" lengthAdjust="spacing" textLength="188.9443" x="341.2588" y="361.6411">Always prefer shorter history</text><rect fill="#F1F1F1" height="33.9688" rx="12.5" ry="12.5" style="stroke:#181818;stroke-width:0.5;" width="187.4434" x="127.8154" y="325.0234"/><text fill="#000000" font-family="sans-serif" font-size="12" lengthAdjust="spacing" textLength="167.4434" x="137.8154" y="346.1621">determine nodeComparator</text><rect fill="#F1F1F1" height="33.9688" rx="12.5" ry="12.5" style="stroke:#181818;stroke-width:0.5;" width="246.6289" x="98.2227" y="389.707"/><text fill="#000000" font-family="sans-serif" font-size="12" lengthAdjust="spacing" textLength="226.6289" x="108.2227" y="410.8457">nextPlayerColor = invert(playerColor)</text><rect fill="#F1F1F1" height="33.9688" rx="12.5" ry="12.5" style="stroke:#181818;stroke-width:0.5;" width="140.4805" x="151.2969" y="487.6758"/><text fill="#000000" font-family="sans-serif" font-size="12" lengthAdjust="spacing" textLength="120.4805" x="161.2969" y="508.8145">get next legal move</text><rect fill="#F1F1F1" height="33.9688" rx="12.5" ry="12.5" style="stroke:#181818;stroke-width:0.5;" width="199.6543" x="121.71" y="541.6445"/><text fill="#000000" font-family="sans-serif" font-size="12" lengthAdjust="spacing" textLength="179.6543" x="131.71" y="562.7832">newPosition = doMove(move)</text><rect fill="#F1F1F1" height="33.9688" rx="12.5" ry="12.5" style="stroke:#181818;stroke-width:0.5;" width="197.6504" x="122.7119" y="603.1133"/><text fill="#000000" font-family="sans-serif" font-size="12" lengthAdjust="spacing" textLength="177.6504" x="132.7119" y="624.252">newHistory = history + move</text><path d="M452.0742,661.5 L452.0742,670.0664 L432.0742,674.0664 L452.0742,678.0664 L452.0742,686.6328 A0,0 0 0 0 452.0742,686.6328 L846.5386,686.6328 A0,0 0 0 0 846.5386,686.6328 L846.5386,671.5 L836.5386,661.5 L452.0742,661.5 A0,0 0 0 0 452.0742,661.5" fill="#FEFFDD" style="stroke:#181818;stroke-width:0.5;"/><path d="M836.5386,661.5 L836.5386,671.5 L846.5386,671.5 L836.5386,661.5" fill="#FEFFDD" style="stroke:#181818;stroke-width:0.5;"/><text fill="#000000" font-family="sans-serif" font-size="13" lengthAdjust="spacing" textLength="373.4644" x="458.0742" y="678.5669">creates minimax subtask which gets executed in the fork</text><rect fill="#F1F1F1" height="33.9688" rx="12.5" ry="12.5" style="stroke:#181818;stroke-width:0.5;" width="421.0742" x="11" y="657.082"/><text fill="#000000" font-family="sans-serif" font-size="12" lengthAdjust="spacing" textLength="401.0742" x="21" y="678.2207">new Minimax(newPosition, depth - 1, nextPlayerColor, newHistory)</text><polygon fill="#F1F1F1" points="221.5371,443.6758,233.5371,455.6758,221.5371,467.6758,209.5371,455.6758,221.5371,443.6758" style="stroke:#181818;stroke-width:0.5;"/><polygon fill="#F1F1F1" points="173.8713,711.0508,269.2029,711.0508,281.2029,723.0508,269.2029,735.0508,173.8713,735.0508,161.8713,723.0508,173.8713,711.0508" style="stroke:#181818;stroke-width:0.5;"/><text fill="#000000" font-family="sans-serif" font-size="11" lengthAdjust="spacing" textLength="95.3315" x="173.8713" y="726.8589">has legal moves?</text><rect fill="#555555" height="6" rx="2.5" ry="2.5" style="stroke:#555555;stroke-width:1;" width="182.7539" x="130.1602" y="755.0508"/><rect fill="#F1F1F1" height="33.9688" rx="12.5" ry="12.5" style="stroke:#181818;stroke-width:0.5;" width="154.7539" x="144.1602" y="781.0508"/><text fill="#000000" font-family="sans-serif" font-size="12" lengthAdjust="spacing" textLength="134.7539" x="154.1602" y="802.1895">execute subtask (1..n)</text><rect fill="#555555" height="6" rx="2.5" ry="2.5" style="stroke:#555555;stroke-width:1;" width="182.7539" x="130.1602" y="835.0195"/><rect fill="#F1F1F1" height="33.9688" rx="12.5" ry="12.5" style="stroke:#181818;stroke-width:0.5;" width="116.252" x="163.4111" y="861.0195"/><text fill="#000000" font-family="sans-serif" font-size="12" lengthAdjust="spacing" textLength="96.252" x="173.4111" y="882.1582">join all subtasks</text><rect fill="#F1F1F1" height="33.9688" rx="12.5" ry="12.5" style="stroke:#181818;stroke-width:0.5;" width="239.498" x="101.7881" y="914.9883"/><text fill="#000000" font-family="sans-serif" font-size="12" lengthAdjust="spacing" textLength="219.498" x="111.7881" y="936.127">collect all MoveNodes from subtasks</text><rect fill="#F1F1F1" height="33.9688" rx="12.5" ry="12.5" style="stroke:#181818;stroke-width:0.5;" width="294.377" x="74.3486" y="968.957"/><text fill="#000000" font-family="sans-serif" font-size="12" lengthAdjust="spacing" textLength="274.377" x="84.3486" y="990.0957">select best MoveNode using nodeComparator</text><rect fill="#F1F1F1" height="33.9688" rx="12.5" ry="12.5" style="stroke:#181818;stroke-width:0.5;" width="178.9473" x="132.0635" y="1022.9258"/><text fill="#000000" font-family="sans-serif" font-size="12" lengthAdjust="spacing" textLength="158.9473" x="142.0635" y="1044.0645">return selected MoveNode</text><ellipse cx="221.5371" cy="1087.8945" fill="none" rx="11" ry="11" style="stroke:#222222;stroke-width:1;"/><ellipse cx="221.5371" cy="1087.8945" fill="#222222" rx="6" ry="6" style="stroke:#222222;stroke-width:1;"/><line style="stroke:#181818;stroke-width:1;" x1="221.5371" x2="221.5371" y1="30" y2="50"/><polygon fill="#181818" points="217.5371,40,221.5371,50,225.5371,40,221.5371,44" style="stroke:#181818;stroke-width:1;"/><line style="stroke:#181818;stroke-width:1;" x1="221.5371" x2="221.5371" y1="186.3398" y2="206.3398"/><polygon fill="#181818" points="217.5371,196.3398,221.5371,206.3398,225.5371,196.3398,221.5371,200.3398" style="stroke:#181818;stroke-width:1;"/><line style="stroke:#181818;stroke-width:1;" x1="221.5371" x2="221.5371" y1="240.3086" y2="260.3086"/><polygon fill="#181818" points="217.5371,250.3086,221.5371,260.3086,225.5371,250.3086,221.5371,254.3086" style="stroke:#181818;stroke-width:1;"/><line style="stroke:#181818;stroke-width:1;" x1="221.5371" x2="221.5371" y1="127.9688" y2="152.3711"/><polygon fill="#181818" points="217.5371,142.3711,221.5371,152.3711,225.5371,142.3711,221.5371,146.3711" style="stroke:#181818;stroke-width:1;"/><line style="stroke:#181818;stroke-width:1;" x1="318.6125" x2="349.8037" y1="115.9688" y2="115.9688"/><polygon fill="#181818" points="345.8037,204.3398,349.8037,214.3398,353.8037,204.3398,349.8037,208.3398" style="stroke:#181818;stroke-width:1;"/><line style="stroke:#181818;stroke-width:1;" x1="349.8037" x2="349.8037" y1="115.9688" y2="304.3086"/><line style="stroke:#181818;stroke-width:1;" x1="349.8037" x2="221.5371" y1="304.3086" y2="304.3086"/><line style="stroke:#181818;stroke-width:1;" x1="221.5371" x2="221.5371" y1="304.3086" y2="325.0234"/><polygon fill="#181818" points="217.5371,315.0234,221.5371,325.0234,225.5371,315.0234,221.5371,319.0234" style="stroke:#181818;stroke-width:1;"/><line style="stroke:#181818;stroke-width:1;" x1="221.5371" x2="221.5371" y1="83.9688" y2="103.9688"/><polygon fill="#181818" points="217.5371,93.9688,221.5371,103.9688,225.5371,93.9688,221.5371,97.9688" style="stroke:#181818;stroke-width:1;"/><line style="stroke:#181818;stroke-width:1;" x1="221.5371" x2="221.5371" y1="358.9922" y2="389.707"/><polygon fill="#181818" points="217.5371,379.707,221.5371,389.707,225.5371,379.707,221.5371,383.707" style="stroke:#181818;stroke-width:1;"/><line style="stroke:#181818;stroke-width:1;" x1="221.5371" x2="221.5371" y1="521.6445" y2="541.6445"/><polygon fill="#181818" points="217.5371,531.6445,221.5371,541.6445,225.5371,531.6445,221.5371,535.6445" style="stroke:#181818;stroke-width:1;"/><line style="stroke:#181818;stroke-width:1;" x1="221.5371" x2="221.5371" y1="575.6133" y2="603.1133"/><polygon fill="#181818" points="217.5371,593.1133,221.5371,603.1133,225.5371,593.1133,221.5371,597.1133" style="stroke:#181818;stroke-width:1;"/><line style="stroke:#181818;stroke-width:1;" x1="221.5371" x2="221.5371" y1="637.082" y2="657.082"/><polygon fill="#181818" points="217.5371,647.082,221.5371,657.082,225.5371,647.082,221.5371,651.082" style="stroke:#181818;stroke-width:1;"/><line style="stroke:#181818;stroke-width:1;" x1="221.5371" x2="221.5371" y1="467.6758" y2="487.6758"/><polygon fill="#181818" points="217.5371,477.6758,221.5371,487.6758,225.5371,477.6758,221.5371,481.6758" style="stroke:#181818;stroke-width:1;"/><line style="stroke:#181818;stroke-width:1;" x1="281.2029" x2="858.5386" y1="723.0508" y2="723.0508"/><polygon fill="#181818" points="854.5386,595.6133,858.5386,585.6133,862.5386,595.6133,858.5386,591.6133" style="stroke:#181818;stroke-width:1;"/><line style="stroke:#181818;stroke-width:1;" x1="858.5386" x2="858.5386" y1="455.6758" y2="723.0508"/><line style="stroke:#181818;stroke-width:1;" x1="858.5386" x2="233.5371" y1="455.6758" y2="455.6758"/><polygon fill="#181818" points="243.5371,451.6758,233.5371,455.6758,243.5371,459.6758,239.5371,455.6758" style="stroke:#181818;stroke-width:1;"/><line style="stroke:#181818;stroke-width:1;" x1="221.5371" x2="221.5371" y1="691.0508" y2="711.0508"/><polygon fill="#181818" points="217.5371,701.0508,221.5371,711.0508,225.5371,701.0508,221.5371,705.0508" style="stroke:#181818;stroke-width:1;"/><line style="stroke:#181818;stroke-width:1;" x1="221.5371" x2="221.5371" y1="423.6758" y2="443.6758"/><polygon fill="#181818" points="217.5371,433.6758,221.5371,443.6758,225.5371,433.6758,221.5371,437.6758" style="stroke:#181818;stroke-width:1;"/><line style="stroke:#181818;stroke-width:1;" x1="221.5371" x2="221.5371" y1="761.0508" y2="781.0508"/><polygon fill="#181818" points="217.5371,771.0508,221.5371,781.0508,225.5371,771.0508,221.5371,775.0508" style="stroke:#181818;stroke-width:1;"/><line style="stroke:#181818;stroke-width:1;" x1="221.5371" x2="221.5371" y1="815.0195" y2="835.0195"/><polygon fill="#181818" points="217.5371,825.0195,221.5371,835.0195,225.5371,825.0195,221.5371,829.0195" style="stroke:#181818;stroke-width:1;"/><line style="stroke:#181818;stroke-width:1;" x1="221.5371" x2="221.5371" y1="735.0508" y2="755.0508"/><polygon fill="#181818" points="217.5371,745.0508,221.5371,755.0508,225.5371,745.0508,221.5371,749.0508" style="stroke:#181818;stroke-width:1;"/><line style="stroke:#181818;stroke-width:1;" x1="221.5371" x2="221.5371" y1="841.0195" y2="861.0195"/><polygon fill="#181818" points="217.5371,851.0195,221.5371,861.0195,225.5371,851.0195,221.5371,855.0195" style="stroke:#181818;stroke-width:1;"/><line style="stroke:#181818;stroke-width:1;" x1="221.5371" x2="221.5371" y1="894.9883" y2="914.9883"/><polygon fill="#181818" points="217.5371,904.9883,221.5371,914.9883,225.5371,904.9883,221.5371,908.9883" style="stroke:#181818;stroke-width:1;"/><line style="stroke:#181818;stroke-width:1;" x1="221.5371" x2="221.5371" y1="948.957" y2="968.957"/><polygon fill="#181818" points="217.5371,958.957,221.5371,968.957,225.5371,958.957,221.5371,962.957" style="stroke:#181818;stroke-width:1;"/><line style="stroke:#181818;stroke-width:1;" x1="221.5371" x2="221.5371" y1="1002.9258" y2="1022.9258"/><polygon fill="#181818" points="217.5371,1012.9258,221.5371,1022.9258,225.5371,1012.9258,221.5371,1016.9258" style="stroke:#181818;stroke-width:1;"/><line style="stroke:#181818;stroke-width:1;" x1="221.5371" x2="221.5371" y1="1056.8945" y2="1076.8945"/><polygon fill="#181818" points="217.5371,1066.8945,221.5371,1076.8945,225.5371,1066.8945,221.5371,1070.8945" style="stroke:#181818;stroke-width:1;"/><!--SRC=[PL9DRzGm5BpxLymn4TkANZUKggmGHL1Q8QIUtUHbO-hOaP-p7_nwdlD5Mcw9FMzctdWuwX2LsfRQMjmRPrfzoZhF9XhlDgYeYyq6dTLd2ZjlVTYWCHnzEEU5KgP6Da3muHhlyV0JXh_ebXuE5BBy9aTio24x4-SAsD91srv7mYnGfDD0iGyEZewuzmVwuIlA4dAj1CXNfyXLfXQt5KKAhN449-YTRpiTj40BvRpG1xDlebgPnjFTrr-VWOkFaFrCQ_uGaiGhpAVljxjl8oRbi61kxL6V6LsWcWAuyK74Ps_94fAek79qYeyhmciO9q74RAMIKWlKaOwoaoo_fuWq1qjxRT5A0CLu8tayJZ49K-LJDbcwp_y1xaOJSZ_PmRit5CkRhkYcPyK5hZPuOpeTpBIJq2hIz5i6CKyyXgHFuFuvQdx1iJ5b0zc7GISg-qYLx9yQWDg7bs5s2MkC8CrOGjPeNktFDxbIoyXs8bjqiglBIoVM4jU0slxsefFwEq6uI8Nsrb8PX_EvLemw-FOLZ6b0FHF71OQUZTl_LoqrDtMSaVNcWK8DxVmB]--></g></svg>