<svg xmlns="http://www.w3.org/2000/svg" xmlns:xlink="http://www.w3.org/1999/xlink" contentStyleType="text/css" data-diagram-type="CLASS" height="862px" preserveAspectRatio="none" style="width:3764px;height:862px;background:#FFFFFF;" version="1.1" viewBox="0 0 3764 862" width="3764px" zoomAndPan="magnify"><defs/><g><!--cluster ch--><g class="cluster" data-entity="ch" data-source-line="2" data-uid="ent0003" id="cluster_ch"><path d="M8.5,6 L27.7656,6 A3.75,3.75 0 0 1 30.2656,8.5 L37.2656,28.2969 L3754.5,28.2969 A2.5,2.5 0 0 1 3757,30.7969 L3757,852.5 A2.5,2.5 0 0 1 3754.5,855 L8.5,855 A2.5,2.5 0 0 1 6,852.5 L6,8.5 A2.5,2.5 0 0 1 8.5,6" fill="none" style="stroke:#000000;stroke-width:1.5;"/><line style="stroke:#000000;stroke-width:1.5;" x1="6" x2="37.2656" y1="28.2969" y2="28.2969"/><text fill="#000000" font-family="sans-serif" font-size="14" font-weight="bold" lengthAdjust="spacing" textLength="18.2656" x="10" y="20.9951">ch</text></g><!--cluster hslu--><g class="cluster" data-entity="hslu" data-source-line="2" data-uid="ent0004" id="cluster_hslu"><path d="M32.5,49 L66.5654,49 A3.75,3.75 0 0 1 69.0654,51.5 L76.0654,71.2969 L3730.5,71.2969 A2.5,2.5 0 0 1 3733,73.7969 L3733,828.5 A2.5,2.5 0 0 1 3730.5,831 L32.5,831 A2.5,2.5 0 0 1 30,828.5 L30,51.5 A2.5,2.5 0 0 1 32.5,49" fill="none" style="stroke:#000000;stroke-width:1.5;"/><line style="stroke:#000000;stroke-width:1.5;" x1="30" x2="76.0654" y1="71.2969" y2="71.2969"/><text fill="#000000" font-family="sans-serif" font-size="14" font-weight="bold" lengthAdjust="spacing" textLength="33.0654" x="34" y="63.9951">hslu</text></g><!--cluster cas--><g class="cluster" data-entity="cas" data-source-line="2" data-uid="ent0005" id="cluster_cas"><path d="M56.5,92 L83.5791,92 A3.75,3.75 0 0 1 86.0791,94.5 L93.0791,114.2969 L3706.5,114.2969 A2.5,2.5 0 0 1 3709,116.7969 L3709,804.5 A2.5,2.5 0 0 1 3706.5,807 L56.5,807 A2.5,2.5 0 0 1 54,804.5 L54,94.5 A2.5,2.5 0 0 1 56.5,92" fill="none" style="stroke:#000000;stroke-width:1.5;"/><line style="stroke:#000000;stroke-width:1.5;" x1="54" x2="93.0791" y1="114.2969" y2="114.2969"/><text fill="#000000" font-family="sans-serif" font-size="14" font-weight="bold" lengthAdjust="spacing" textLength="26.0791" x="58" y="106.9951">cas</text></g><!--cluster msed--><g class="cluster" data-entity="msed" data-source-line="2" data-uid="ent0006" id="cluster_msed"><path d="M80.5,135 L123.9375,135 A3.75,3.75 0 0 1 126.4375,137.5 L133.4375,157.2969 L3682.5,157.2969 A2.5,2.5 0 0 1 3685,159.7969 L3685,780.5 A2.5,2.5 0 0 1 3682.5,783 L80.5,783 A2.5,2.5 0 0 1 78,780.5 L78,137.5 A2.5,2.5 0 0 1 80.5,135" fill="none" style="stroke:#000000;stroke-width:1.5;"/><line style="stroke:#000000;stroke-width:1.5;" x1="78" x2="133.4375" y1="157.2969" y2="157.2969"/><text fill="#000000" font-family="sans-serif" font-size="14" font-weight="bold" lengthAdjust="spacing" textLength="42.4375" x="82" y="149.9951">msed</text></g><!--cluster blobfish--><g class="cluster" data-entity="blobfish" data-source-line="2" data-uid="ent0007" id="cluster_blobfish"><path d="M104.5,178 L169.1494,178 A3.75,3.75 0 0 1 171.6494,180.5 L178.6494,200.2969 L3658.5,200.2969 A2.5,2.5 0 0 1 3661,202.7969 L3661,756.5 A2.5,2.5 0 0 1 3658.5,759 L104.5,759 A2.5,2.5 0 0 1 102,756.5 L102,180.5 A2.5,2.5 0 0 1 104.5,178" fill="none" style="stroke:#000000;stroke-width:1.5;"/><line style="stroke:#000000;stroke-width:1.5;" x1="102" x2="178.6494" y1="200.2969" y2="200.2969"/><text fill="#000000" font-family="sans-serif" font-size="14" font-weight="bold" lengthAdjust="spacing" textLength="63.6494" x="106" y="192.9951">blobfish</text></g><!--cluster game--><g class="cluster" data-entity="game" data-source-line="2" data-uid="ent0008" id="cluster_game"><path d="M128.5,221 L173.0518,221 A3.75,3.75 0 0 1 175.5518,223.5 L182.5518,243.2969 L3634.5,243.2969 A2.5,2.5 0 0 1 3637,245.7969 L3637,732.5 A2.5,2.5 0 0 1 3634.5,735 L128.5,735 A2.5,2.5 0 0 1 126,732.5 L126,223.5 A2.5,2.5 0 0 1 128.5,221" fill="none" style="stroke:#000000;stroke-width:1.5;"/><line style="stroke:#000000;stroke-width:1.5;" x1="126" x2="182.5518" y1="243.2969" y2="243.2969"/><text fill="#000000" font-family="sans-serif" font-size="14" font-weight="bold" lengthAdjust="spacing" textLength="43.5518" x="130" y="235.9951">game</text></g><!--cluster exceptions--><g class="cluster" data-entity="exceptions" data-source-line="37" data-uid="ent0013" id="cluster_exceptions"><path d="M3148.5,337.5 L3235.25,337.5 A3.75,3.75 0 0 1 3237.75,340 L3244.75,359.7969 L3610.5,359.7969 A2.5,2.5 0 0 1 3613,362.2969 L3613,434 A2.5,2.5 0 0 1 3610.5,436.5 L3148.5,436.5 A2.5,2.5 0 0 1 3146,434 L3146,340 A2.5,2.5 0 0 1 3148.5,337.5" fill="none" style="stroke:#000000;stroke-width:1.5;"/><line style="stroke:#000000;stroke-width:1.5;" x1="3146" x2="3244.75" y1="359.7969" y2="359.7969"/><text fill="#000000" font-family="sans-serif" font-size="14" font-weight="bold" lengthAdjust="spacing" textLength="85.75" x="3150" y="352.4951">exceptions</text></g><!--cluster screen--><g class="cluster" data-entity="screen" data-source-line="45" data-uid="ent0016" id="cluster_screen"><path d="M1809.5,264 L1862.9932,264 A3.75,3.75 0 0 1 1865.4932,266.5 L1872.4932,286.2969 L3119.5,286.2969 A2.5,2.5 0 0 1 3122,288.7969 L3122,507.5 A2.5,2.5 0 0 1 3119.5,510 L1809.5,510 A2.5,2.5 0 0 1 1807,507.5 L1807,266.5 A2.5,2.5 0 0 1 1809.5,264" fill="none" style="stroke:#000000;stroke-width:1.5;"/><line style="stroke:#000000;stroke-width:1.5;" x1="1807" x2="1872.4932" y1="286.2969" y2="286.2969"/><text fill="#000000" font-family="sans-serif" font-size="14" font-weight="bold" lengthAdjust="spacing" textLength="52.4932" x="1811" y="278.9951">screen</text></g><!--class ChessGame--><g class="entity" data-entity="ChessGame" data-source-line="2" data-uid="ent0002" id="entity_ChessGame"><rect fill="#F1F1F1" height="113.1875" rx="2.5" ry="2.5" style="stroke:#181818;stroke-width:0.5;" width="1181.5469" x="606" y="340"/><ellipse cx="1150.7593" cy="356" fill="#ADD1B2" rx="11" ry="11" style="stroke:#181818;stroke-width:1;"/><path d="M1153.728,361.6406 Q1153.1499,361.9375 1152.5093,362.0781 Q1151.8687,362.2344 1151.1655,362.2344 Q1148.6655,362.2344 1147.3374,360.5938 Q1146.0249,358.9375 1146.0249,355.8125 Q1146.0249,352.6875 1147.3374,351.0313 Q1148.6655,349.375 1151.1655,349.375 Q1151.8687,349.375 1152.5093,349.5313 Q1153.1655,349.6875 1153.728,349.9844 L1153.728,352.7031 Q1153.103,352.125 1152.5093,351.8594 Q1151.9155,351.5781 1151.2905,351.5781 Q1149.9468,351.5781 1149.2593,352.6563 Q1148.5718,353.7188 1148.5718,355.8125 Q1148.5718,357.9063 1149.2593,358.9844 Q1149.9468,360.0469 1151.2905,360.0469 Q1151.9155,360.0469 1152.5093,359.7813 Q1153.103,359.5 1153.728,358.9219 L1153.728,361.6406 Z " fill="#000000"/><text fill="#000000" font-family="sans-serif" font-size="14" lengthAdjust="spacing" textLength="83.5283" x="1171.2593" y="360.8467">ChessGame</text><line style="stroke:#181818;stroke-width:0.5;" x1="607" x2="1786.5469" y1="372" y2="372"/><rect fill="none" height="6" style="stroke:#C82930;stroke-width:1;" width="6" x="614" y="382.6484"/><text fill="#000000" font-family="sans-serif" font-size="14" lengthAdjust="spacing" textLength="258.5762" x="626" y="388.9951">terminal : org.jline.terminal.Terminal</text><line style="stroke:#181818;stroke-width:0.5;" x1="607" x2="1786.5469" y1="396.2969" y2="396.2969"/><rect fill="#F24D5C" height="6" style="stroke:#C82930;stroke-width:1;" width="6" x="614" y="406.9453"/><text fill="#000000" font-family="sans-serif" font-size="14" lengthAdjust="spacing" textLength="1155.5469" x="626" y="413.292">shouldRestart ( paramInputReader1 : ch.hslu.cas.msed.blobfish.game.InputReader , paramOutputWriter2 : ch.hslu.cas.msed.blobfish.game.OutputWriter ) : boolean</text><ellipse cx="617" cy="426.2422" fill="#84BE84" rx="3" ry="3" style="stroke:#038048;stroke-width:1;"/><text fill="#000000" font-family="sans-serif" font-size="14" lengthAdjust="spacing" textLength="91.2256" x="626" y="429.5889">start () : void</text><rect fill="#F24D5C" height="6" style="stroke:#C82930;stroke-width:1;" width="6" x="614" y="439.5391"/><text fill="#000000" font-family="sans-serif" font-size="14" lengthAdjust="spacing" textLength="713.4121" x="626" y="445.8857">writeEndGameMessage ( paramOutputWriter1 : ch.hslu.cas.msed.blobfish.game.OutputWriter ) : void</text></g><!--class InputReader--><g class="entity" data-entity="InputReader" data-source-line="10" data-uid="ent0009" id="entity_InputReader"><rect fill="#F1F1F1" height="80.5938" rx="2.5" ry="2.5" style="stroke:#181818;stroke-width:0.5;" width="318.209" x="1905" y="605.5"/><ellipse cx="2016.6411" cy="621.5" fill="#ADD1B2" rx="11" ry="11" style="stroke:#181818;stroke-width:1;"/><path d="M2019.6099,627.1406 Q2019.0317,627.4375 2018.3911,627.5781 Q2017.7505,627.7344 2017.0474,627.7344 Q2014.5474,627.7344 2013.2192,626.0938 Q2011.9067,624.4375 2011.9067,621.3125 Q2011.9067,618.1875 2013.2192,616.5313 Q2014.5474,614.875 2017.0474,614.875 Q2017.7505,614.875 2018.3911,615.0313 Q2019.0474,615.1875 2019.6099,615.4844 L2019.6099,618.2031 Q2018.9849,617.625 2018.3911,617.3594 Q2017.7974,617.0781 2017.1724,617.0781 Q2015.8286,617.0781 2015.1411,618.1563 Q2014.4536,619.2188 2014.4536,621.3125 Q2014.4536,623.4063 2015.1411,624.4844 Q2015.8286,625.5469 2017.1724,625.5469 Q2017.7974,625.5469 2018.3911,625.2813 Q2018.9849,625 2019.6099,624.4219 L2019.6099,627.1406 Z " fill="#000000"/><text fill="#000000" font-family="sans-serif" font-size="14" lengthAdjust="spacing" textLength="86.4268" x="2037.1411" y="626.3467">InputReader</text><line style="stroke:#181818;stroke-width:0.5;" x1="1906" x2="2222.209" y1="637.5" y2="637.5"/><rect fill="none" height="6" style="stroke:#C82930;stroke-width:1;" width="6" x="1913" y="648.1484"/><text fill="#000000" font-family="sans-serif" font-size="14" lengthAdjust="spacing" textLength="251.0908" x="1925" y="654.4951">reader : org.jline.reader.LineReader</text><line style="stroke:#181818;stroke-width:0.5;" x1="1906" x2="2222.209" y1="661.7969" y2="661.7969"/><ellipse cx="1916" cy="675.4453" fill="#84BE84" rx="3" ry="3" style="stroke:#038048;stroke-width:1;"/><text fill="#000000" font-family="sans-serif" font-size="14" lengthAdjust="spacing" textLength="292.209" x="1925" y="678.792">readLine ( paramString1 : String ) : String</text></g><!--class MatchConfig--><g class="entity" data-entity="MatchConfig" data-source-line="16" data-uid="ent0010" id="entity_MatchConfig"><rect fill="#F1F1F1" height="162.0781" rx="2.5" ry="2.5" style="stroke:#181818;stroke-width:0.5;" width="429.0674" x="142.5" y="315.5"/><ellipse cx="308.9653" cy="331.5" fill="#ADD1B2" rx="11" ry="11" style="stroke:#181818;stroke-width:1;"/><path d="M311.9341,337.1406 Q311.356,337.4375 310.7153,337.5781 Q310.0747,337.7344 309.3716,337.7344 Q306.8716,337.7344 305.5435,336.0938 Q304.231,334.4375 304.231,331.3125 Q304.231,328.1875 305.5435,326.5313 Q306.8716,324.875 309.3716,324.875 Q310.0747,324.875 310.7153,325.0313 Q311.3716,325.1875 311.9341,325.4844 L311.9341,328.2031 Q311.3091,327.625 310.7153,327.3594 Q310.1216,327.0781 309.4966,327.0781 Q308.1528,327.0781 307.4653,328.1563 Q306.7778,329.2188 306.7778,331.3125 Q306.7778,333.4063 307.4653,334.4844 Q308.1528,335.5469 309.4966,335.5469 Q310.1216,335.5469 310.7153,335.2813 Q311.3091,335 311.9341,334.4219 L311.9341,337.1406 Z " fill="#000000"/><text fill="#000000" font-family="sans-serif" font-size="14" lengthAdjust="spacing" textLength="87.6367" x="329.4653" y="336.3467">MatchConfig</text><line style="stroke:#181818;stroke-width:0.5;" x1="143.5" x2="570.5674" y1="347.5" y2="347.5"/><rect fill="none" height="6" style="stroke:#C82930;stroke-width:1;" width="6" x="150.5" y="358.1484"/><text fill="#000000" font-family="sans-serif" font-size="14" lengthAdjust="spacing" textLength="386.5381" x="162.5" y="364.4951">black : ch.hslu.cas.msed.blobfish.player.AbstractPlayer</text><rect fill="none" height="6" style="stroke:#C82930;stroke-width:1;" width="6" x="150.5" y="374.4453"/><text fill="#000000" font-family="sans-serif" font-size="14" lengthAdjust="spacing" textLength="387.6934" x="162.5" y="380.792">white : ch.hslu.cas.msed.blobfish.player.AbstractPlayer</text><line style="stroke:#181818;stroke-width:0.5;" x1="143.5" x2="570.5674" y1="388.0938" y2="388.0938"/><ellipse cx="153.5" cy="401.7422" fill="#84BE84" rx="3" ry="3" style="stroke:#038048;stroke-width:1;"/><text fill="#000000" font-family="sans-serif" font-size="14" lengthAdjust="spacing" textLength="401.9121" x="162.5" y="405.0889">black () : ch.hslu.cas.msed.blobfish.player.AbstractPlayer</text><ellipse cx="153.5" cy="418.0391" fill="#84BE84" rx="3" ry="3" style="stroke:#038048;stroke-width:1;"/><text fill="#000000" font-family="sans-serif" font-size="14" lengthAdjust="spacing" textLength="299.1543" x="162.5" y="421.3857">equals ( paramObject1 : Object ) : boolean</text><ellipse cx="153.5" cy="434.3359" fill="#84BE84" rx="3" ry="3" style="stroke:#038048;stroke-width:1;"/><text fill="#000000" font-family="sans-serif" font-size="14" lengthAdjust="spacing" textLength="116.7031" x="162.5" y="437.6826">hashCode () : int</text><ellipse cx="153.5" cy="450.6328" fill="#84BE84" rx="3" ry="3" style="stroke:#038048;stroke-width:1;"/><text fill="#000000" font-family="sans-serif" font-size="14" lengthAdjust="spacing" textLength="126.6084" x="162.5" y="453.9795">toString () : String</text><ellipse cx="153.5" cy="466.9297" fill="#84BE84" rx="3" ry="3" style="stroke:#038048;stroke-width:1;"/><text fill="#000000" font-family="sans-serif" font-size="14" lengthAdjust="spacing" textLength="403.0674" x="162.5" y="470.2764">white () : ch.hslu.cas.msed.blobfish.player.AbstractPlayer</text></g><!--class OutputWriter--><g class="entity" data-entity="OutputWriter" data-source-line="27" data-uid="ent0011" id="entity_OutputWriter"><rect fill="#F1F1F1" height="145.7813" rx="2.5" ry="2.5" style="stroke:#181818;stroke-width:0.5;" width="355.0205" x="2401.5" y="573"/><ellipse cx="2528.7715" cy="589" fill="#ADD1B2" rx="11" ry="11" style="stroke:#181818;stroke-width:1;"/><path d="M2531.7402,594.6406 Q2531.1621,594.9375 2530.5215,595.0781 Q2529.8809,595.2344 2529.1777,595.2344 Q2526.6777,595.2344 2525.3496,593.5938 Q2524.0371,591.9375 2524.0371,588.8125 Q2524.0371,585.6875 2525.3496,584.0313 Q2526.6777,582.375 2529.1777,582.375 Q2529.8809,582.375 2530.5215,582.5313 Q2531.1777,582.6875 2531.7402,582.9844 L2531.7402,585.7031 Q2531.1152,585.125 2530.5215,584.8594 Q2529.9277,584.5781 2529.3027,584.5781 Q2527.959,584.5781 2527.2715,585.6563 Q2526.584,586.7188 2526.584,588.8125 Q2526.584,590.9063 2527.2715,591.9844 Q2527.959,593.0469 2529.3027,593.0469 Q2529.9277,593.0469 2530.5215,592.7813 Q2531.1152,592.5 2531.7402,591.9219 L2531.7402,594.6406 Z " fill="#000000"/><text fill="#000000" font-family="sans-serif" font-size="14" lengthAdjust="spacing" textLength="91.9775" x="2549.2715" y="593.8467">OutputWriter</text><line style="stroke:#181818;stroke-width:0.5;" x1="2402.5" x2="2755.5205" y1="605" y2="605"/><polygon fill="none" points="2412.5,614.6484,2408.5,620.6484,2416.5,620.6484" style="stroke:#1963A0;stroke-width:1;"/><text fill="#000000" font-family="sans-serif" font-size="14" lengthAdjust="spacing" textLength="258.5762" x="2421.5" y="621.9951">terminal : org.jline.terminal.Terminal</text><line style="stroke:#181818;stroke-width:0.5;" x1="2402.5" x2="2755.5205" y1="629.2969" y2="629.2969"/><ellipse cx="2412.5" cy="642.9453" fill="#84BE84" rx="3" ry="3" style="stroke:#038048;stroke-width:1;"/><text fill="#000000" font-family="sans-serif" font-size="14" lengthAdjust="spacing" textLength="92.4766" x="2421.5" y="646.292">flush () : void</text><ellipse cx="2412.5" cy="659.2422" fill="#84BE84" rx="3" ry="3" style="stroke:#038048;stroke-width:1;"/><text fill="#000000" font-family="sans-serif" font-size="14" lengthAdjust="spacing" textLength="251.9385" x="2421.5" y="662.5889">print ( paramString1 : String ) : void</text><ellipse cx="2412.5" cy="675.5391" fill="#84BE84" rx="3" ry="3" style="stroke:#038048;stroke-width:1;"/><text fill="#000000" font-family="sans-serif" font-size="14" lengthAdjust="spacing" textLength="316.2578" x="2421.5" y="678.8857">printAndFlush ( paramString1 : String ) : void</text><ellipse cx="2412.5" cy="691.8359" fill="#84BE84" rx="3" ry="3" style="stroke:#038048;stroke-width:1;"/><text fill="#000000" font-family="sans-serif" font-size="14" lengthAdjust="spacing" textLength="264.7012" x="2421.5" y="695.1826">println ( paramString1 : String ) : void</text><ellipse cx="2412.5" cy="708.1328" fill="#84BE84" rx="3" ry="3" style="stroke:#038048;stroke-width:1;"/><text fill="#000000" font-family="sans-serif" font-size="14" lengthAdjust="spacing" textLength="329.0205" x="2421.5" y="711.4795">printlnAndFlush ( paramString1 : String ) : void</text></g><!--class GameAbortedException--><g class="entity" data-entity="GameAbortedException" data-source-line="37" data-uid="ent0012" id="entity_GameAbortedException"><rect fill="#F1F1F1" height="48" rx="2.5" ry="2.5" style="stroke:#181818;stroke-width:0.5;" width="198.5986" x="3397.5" y="372.5"/><ellipse cx="3412.5" cy="388.5" fill="#ADD1B2" rx="11" ry="11" style="stroke:#181818;stroke-width:1;"/><path d="M3415.4688,394.1406 Q3414.8906,394.4375 3414.25,394.5781 Q3413.6094,394.7344 3412.9063,394.7344 Q3410.4063,394.7344 3409.0781,393.0938 Q3407.7656,391.4375 3407.7656,388.3125 Q3407.7656,385.1875 3409.0781,383.5313 Q3410.4063,381.875 3412.9063,381.875 Q3413.6094,381.875 3414.25,382.0313 Q3414.9063,382.1875 3415.4688,382.4844 L3415.4688,385.2031 Q3414.8438,384.625 3414.25,384.3594 Q3413.6563,384.0781 3413.0313,384.0781 Q3411.6875,384.0781 3411,385.1563 Q3410.3125,386.2188 3410.3125,388.3125 Q3410.3125,390.4063 3411,391.4844 Q3411.6875,392.5469 3413.0313,392.5469 Q3413.6563,392.5469 3414.25,392.2813 Q3414.8438,392 3415.4688,391.4219 L3415.4688,394.1406 Z " fill="#000000"/><text fill="#000000" font-family="sans-serif" font-size="14" lengthAdjust="spacing" textLength="166.5986" x="3426.5" y="393.3467">GameAbortedException</text><line style="stroke:#181818;stroke-width:0.5;" x1="3398.5" x2="3595.0986" y1="404.5" y2="404.5"/><line style="stroke:#181818;stroke-width:0.5;" x1="3398.5" x2="3595.0986" y1="412.5" y2="412.5"/></g><!--class MatchAbortedException--><g class="entity" data-entity="MatchAbortedException" data-source-line="41" data-uid="ent0014" id="entity_MatchAbortedException"><rect fill="#F1F1F1" height="48" rx="2.5" ry="2.5" style="stroke:#181818;stroke-width:0.5;" width="199.6377" x="3162" y="372.5"/><ellipse cx="3177" cy="388.5" fill="#ADD1B2" rx="11" ry="11" style="stroke:#181818;stroke-width:1;"/><path d="M3179.9688,394.1406 Q3179.3906,394.4375 3178.75,394.5781 Q3178.1094,394.7344 3177.4063,394.7344 Q3174.9063,394.7344 3173.5781,393.0938 Q3172.2656,391.4375 3172.2656,388.3125 Q3172.2656,385.1875 3173.5781,383.5313 Q3174.9063,381.875 3177.4063,381.875 Q3178.1094,381.875 3178.75,382.0313 Q3179.4063,382.1875 3179.9688,382.4844 L3179.9688,385.2031 Q3179.3438,384.625 3178.75,384.3594 Q3178.1563,384.0781 3177.5313,384.0781 Q3176.1875,384.0781 3175.5,385.1563 Q3174.8125,386.2188 3174.8125,388.3125 Q3174.8125,390.4063 3175.5,391.4844 Q3176.1875,392.5469 3177.5313,392.5469 Q3178.1563,392.5469 3178.75,392.2813 Q3179.3438,392 3179.9688,391.4219 L3179.9688,394.1406 Z " fill="#000000"/><text fill="#000000" font-family="sans-serif" font-size="14" lengthAdjust="spacing" textLength="167.6377" x="3191" y="393.3467">MatchAbortedException</text><line style="stroke:#181818;stroke-width:0.5;" x1="3163" x2="3360.6377" y1="404.5" y2="404.5"/><line style="stroke:#181818;stroke-width:0.5;" x1="3163" x2="3360.6377" y1="412.5" y2="412.5"/></g><!--class HomeScreen--><g class="entity" data-entity="HomeScreen" data-source-line="45" data-uid="ent0015" id="entity_HomeScreen"><rect fill="#F1F1F1" height="80.5938" rx="2.5" ry="2.5" style="stroke:#181818;stroke-width:0.5;" width="482.3877" x="1823" y="356"/><ellipse cx="2015.0522" cy="372" fill="#ADD1B2" rx="11" ry="11" style="stroke:#181818;stroke-width:1;"/><path d="M2018.021,377.6406 Q2017.4429,377.9375 2016.8022,378.0781 Q2016.1616,378.2344 2015.4585,378.2344 Q2012.9585,378.2344 2011.6304,376.5938 Q2010.3179,374.9375 2010.3179,371.8125 Q2010.3179,368.6875 2011.6304,367.0313 Q2012.9585,365.375 2015.4585,365.375 Q2016.1616,365.375 2016.8022,365.5313 Q2017.4585,365.6875 2018.021,365.9844 L2018.021,368.7031 Q2017.396,368.125 2016.8022,367.8594 Q2016.2085,367.5781 2015.5835,367.5781 Q2014.2397,367.5781 2013.5522,368.6563 Q2012.8647,369.7188 2012.8647,371.8125 Q2012.8647,373.9063 2013.5522,374.9844 Q2014.2397,376.0469 2015.5835,376.0469 Q2016.2085,376.0469 2016.8022,375.7813 Q2017.396,375.5 2018.021,374.9219 L2018.021,377.6406 Z " fill="#000000"/><text fill="#000000" font-family="sans-serif" font-size="14" lengthAdjust="spacing" textLength="89.7832" x="2035.5522" y="376.8467">HomeScreen</text><line style="stroke:#181818;stroke-width:0.5;" x1="1824" x2="2304.3877" y1="388" y2="388"/><line style="stroke:#181818;stroke-width:0.5;" x1="1824" x2="2304.3877" y1="396" y2="396"/><ellipse cx="1834" cy="409.6484" fill="#84BE84" rx="3" ry="3" style="stroke:#038048;stroke-width:1;"/><text fill="#000000" font-family="sans-serif" font-size="14" lengthAdjust="spacing" textLength="456.3877" x="1843" y="412.9951">getMatchConfig () : ch.hslu.cas.msed.blobfish.game.MatchConfig</text><rect fill="#F24D5C" height="6" style="stroke:#C82930;stroke-width:1;" width="6" x="1831" y="422.9453"/><text fill="#000000" font-family="sans-serif" font-size="14" lengthAdjust="spacing" textLength="435.0049" x="1843" y="429.292">getPlayerColor () : ch.hslu.cas.msed.blobfish.base.PlayerColor</text></g><!--class MatchScreen--><g class="entity" data-entity="MatchScreen" data-source-line="51" data-uid="ent0017" id="entity_MatchScreen"><rect fill="#F1F1F1" height="194.6719" rx="2.5" ry="2.5" style="stroke:#181818;stroke-width:0.5;" width="765.2998" x="2340.5" y="299"/><ellipse cx="2673.3213" cy="315" fill="#ADD1B2" rx="11" ry="11" style="stroke:#181818;stroke-width:1;"/><path d="M2676.29,320.6406 Q2675.7119,320.9375 2675.0713,321.0781 Q2674.4307,321.2344 2673.7275,321.2344 Q2671.2275,321.2344 2669.8994,319.5938 Q2668.5869,317.9375 2668.5869,314.8125 Q2668.5869,311.6875 2669.8994,310.0313 Q2671.2275,308.375 2673.7275,308.375 Q2674.4307,308.375 2675.0713,308.5313 Q2675.7275,308.6875 2676.29,308.9844 L2676.29,311.7031 Q2675.665,311.125 2675.0713,310.8594 Q2674.4775,310.5781 2673.8525,310.5781 Q2672.5088,310.5781 2671.8213,311.6563 Q2671.1338,312.7188 2671.1338,314.8125 Q2671.1338,316.9063 2671.8213,317.9844 Q2672.5088,319.0469 2673.8525,319.0469 Q2674.4775,319.0469 2675.0713,318.7813 Q2675.665,318.5 2676.29,317.9219 L2676.29,320.6406 Z " fill="#000000"/><text fill="#000000" font-family="sans-serif" font-size="14" lengthAdjust="spacing" textLength="91.1572" x="2693.8213" y="319.8467">MatchScreen</text><line style="stroke:#181818;stroke-width:0.5;" x1="2341.5" x2="3104.7998" y1="331" y2="331"/><polygon fill="none" points="2351.5,340.6484,2347.5,346.6484,2355.5,346.6484" style="stroke:#1963A0;stroke-width:1;"/><text fill="#000000" font-family="sans-serif" font-size="14" lengthAdjust="spacing" textLength="386.5381" x="2360.5" y="347.9951">black : ch.hslu.cas.msed.blobfish.player.AbstractPlayer</text><polygon fill="none" points="2351.5,356.9453,2347.5,362.9453,2355.5,362.9453" style="stroke:#1963A0;stroke-width:1;"/><text fill="#000000" font-family="sans-serif" font-size="14" lengthAdjust="spacing" textLength="555.0029" x="2360.5" y="364.292">chessBoardRenderer : ch.hslu.cas.msed.blobfish.board.ui.ChessBoardRenderer</text><polygon fill="none" points="2351.5,373.2422,2347.5,379.2422,2355.5,379.2422" style="stroke:#1963A0;stroke-width:1;"/><text fill="#000000" font-family="sans-serif" font-size="14" lengthAdjust="spacing" textLength="407.3945" x="2360.5" y="380.5889">chessboard : ch.hslu.cas.msed.blobfish.board.ChessBoard</text><polygon fill="none" points="2351.5,389.5391,2347.5,395.5391,2355.5,395.5391" style="stroke:#1963A0;stroke-width:1;"/><text fill="#000000" font-family="sans-serif" font-size="14" lengthAdjust="spacing" textLength="444.001" x="2360.5" y="396.8857">currentPlayer : ch.hslu.cas.msed.blobfish.player.AbstractPlayer</text><polygon fill="none" points="2351.5,405.8359,2347.5,411.8359,2355.5,411.8359" style="stroke:#1963A0;stroke-width:1;"/><text fill="#000000" font-family="sans-serif" font-size="14" lengthAdjust="spacing" textLength="387.6934" x="2360.5" y="413.1826">white : ch.hslu.cas.msed.blobfish.player.AbstractPlayer</text><line style="stroke:#181818;stroke-width:0.5;" x1="2341.5" x2="3104.7998" y1="420.4844" y2="420.4844"/><rect fill="#F24D5C" height="6" style="stroke:#C82930;stroke-width:1;" width="6" x="2348.5" y="431.1328"/><text fill="#000000" font-family="sans-serif" font-size="14" lengthAdjust="spacing" textLength="164.165" x="2360.5" y="437.4795">getNextMove () : String</text><rect fill="#F24D5C" height="6" style="stroke:#C82930;stroke-width:1;" width="6" x="2348.5" y="447.4297"/><text fill="#000000" font-family="sans-serif" font-size="14" lengthAdjust="spacing" textLength="606.4092" x="2360.5" y="453.7764">printPosition ( paramPlayerColor1 : ch.hslu.cas.msed.blobfish.base.PlayerColor ) : void</text><rect fill="#F24D5C" height="6" style="stroke:#C82930;stroke-width:1;" width="6" x="2348.5" y="463.7266"/><text fill="#000000" font-family="sans-serif" font-size="14" lengthAdjust="spacing" textLength="739.2998" x="2360.5" y="470.0732">shouldDisplayBoard ( paramAbstractPlayer1 : ch.hslu.cas.msed.blobfish.player.AbstractPlayer ) : boolean</text><ellipse cx="2351.5" cy="483.0234" fill="#84BE84" rx="3" ry="3" style="stroke:#038048;stroke-width:1;"/><text fill="#000000" font-family="sans-serif" font-size="14" lengthAdjust="spacing" textLength="91.2256" x="2360.5" y="486.3701">start () : void</text></g><!--reverse link HomeScreen to InputReader--><g class="link" data-entity-1="HomeScreen" data-entity-2="InputReader" data-source-line="66" data-uid="lnk18" id="link_HomeScreen_InputReader"><path codeLine="66" d="M2064,449.27 C2064,495.45 2064,559.19 2064,605.33" fill="none" id="HomeScreen-backto-InputReader" style="stroke:#181818;stroke-width:1;"/><polygon fill="#181818" points="2064,437.27,2060,443.27,2064,449.27,2068,443.27,2064,437.27" style="stroke:#181818;stroke-width:1;"/><text fill="#000000" font-family="sans-serif" font-size="13" lengthAdjust="spacing" textLength="42.9038" x="2065" y="539.0669">reader</text></g><!--link HomeScreen to OutputWriter--><g class="link" data-entity-1="HomeScreen" data-entity-2="OutputWriter" data-source-line="67" data-uid="lnk19" id="link_HomeScreen_OutputWriter"><path codeLine="67" d="M2146.46,437.13 C2222.4,473.62 2331.502,526.0613 2423.632,570.3313" fill="none" id="HomeScreen-to-OutputWriter" style="stroke:#181818;stroke-width:1;"/><polygon fill="#181818" points="2429.04,572.93,2422.6604,565.4266,2424.5333,570.7645,2419.1955,572.6374,2429.04,572.93" style="stroke:#181818;stroke-width:1;"/><text fill="#000000" font-family="sans-serif" font-size="13" lengthAdjust="spacing" textLength="38.0288" x="2353" y="539.0669">writer</text></g><!--link MatchScreen to OutputWriter--><g class="link" data-entity-1="MatchScreen" data-entity-2="OutputWriter" data-source-line="68" data-uid="lnk20" id="link_MatchScreen_OutputWriter"><path codeLine="68" d="M2666.71,494.25 C2651.48,520.42 2638.2859,543.093 2624.0059,567.653" fill="none" id="MatchScreen-to-OutputWriter" style="stroke:#181818;stroke-width:1;"/><polygon fill="#181818" points="2620.99,572.84,2628.9718,567.0701,2623.5032,568.5175,2622.0558,563.049,2620.99,572.84" style="stroke:#181818;stroke-width:1;"/><text fill="#000000" font-family="sans-serif" font-size="13" lengthAdjust="spacing" textLength="38.0288" x="2647" y="539.0669">writer</text></g><!--SRC=[fLPBSzCm43wJNw5Z8LWpuPW3Co5jWHa2dPOPphAyiLLaAKXoMwRJ_dRqiCEcaoQsSrjBkzz- -vIvPDOINj7AoePoPcbjeQ2vrFbQs8gMh0QwhC3QpruYZvCtZsi1idWYcGDJ2yKacHDjIdehXGBQ7TAVhU0DQd2L3XQsqeqihi4wPXmv8njcMFrLRHft3Qm0C_DGHwWWRV8-0Vned3_xPOJt_U4u0bOdRxr-hhK4fX3HQKimtDvfKU0OxeFXXIf2EbO-BQo4BXACF1j19Bfwcamcl4zHS2PmMKmwmaL9H_IRbvC1ZZLSXfikYXjdX2e3_oH5QadiJsx57A-MMgr5kKCkbup_FfYQZMH_FTT5RfrXt5t5JuHmN_byZKBOHfn8nEgUW09_6YRjjlRvBN0NifQarpghOjRdfO3aNYY7BvrkKtw6SexkK-oZYFUkt4vNej8z3nxtwLesjjexHTED3yqTxBYz5WjLN2RGePPIZR7fxwztVk61myO9hImDAsIHQ-EWkEXEVSh7GCLvEmNBSWEWw1TTmqqKO-st-IZ1uP4-qe8lLm3UdnufjUHIIssE8UNC0aNwWmEAB514NJUVl8YUUNWKFsbc_8Ec_4wDE_T0946JDY8zfZjsBq6ZQW-m_qWOeJ46L4ltf01FtxIXsD_XmQtq7Rooqx8uQLVQYjYnxPoXYiy6zSU-OMv_Eyw53NnZlZe_kyndmuFj-mCHsjOtxj0PV9TbPCX_m9oaftwufopxI0Oz3NCI_uJwki9pEDxNv1y0]--></g></svg>