<svg xmlns="http://www.w3.org/2000/svg" xmlns:xlink="http://www.w3.org/1999/xlink" contentStyleType="text/css" data-diagram-type="DESCRIPTION" height="1100px" preserveAspectRatio="none" style="width:1378px;height:1100px;background:#FFFFFF;" version="1.1" viewBox="0 0 1378 1100" width="1378.125px" zoomAndPan="magnify"><defs/><g><!--cluster Stufe 0 (max)--><g class="cluster" data-entity="Stufe 0 .max." data-source-line="6" data-uid="ent0002" id="cluster_Stufe 0 .max."><path d="M648.4375,18.75 L988.0615,18.75 A11.7188,11.7188 0 0 1 995.874,26.5625 L1017.749,88.4277 L1017.1875,88.4277 A7.8125,7.8125 0 0 1 1025,96.2402 L1025,314.0625 A7.8125,7.8125 0 0 1 1017.1875,321.875 L648.4375,321.875 A7.8125,7.8125 0 0 1 640.625,314.0625 L640.625,26.5625 A7.8125,7.8125 0 0 1 648.4375,18.75" fill="none" style="stroke:#000000;stroke-width:4.6875;"/><line style="stroke:#000000;stroke-width:4.6875;" x1="640.625" x2="1017.749" y1="88.4277" y2="88.4277"/><text fill="#000000" font-family="sans-serif" font-size="43.75" font-weight="bold" lengthAdjust="spacing" textLength="336.499" x="653.125" y="65.6097">Stufe 0 (max)</text></g><!--cluster Stufe 1 (min)--><g class="cluster" data-entity="Stufe 1 .min." data-source-line="10" data-uid="ent0004" id="cluster_Stufe 1 .min."><path d="M585.9375,396.875 L913.9618,396.875 A11.7188,11.7188 0 0 1 921.7743,404.6875 L943.6493,466.5527 L1076.5625,466.5527 A7.8125,7.8125 0 0 1 1084.375,474.3652 L1084.375,692.1875 A7.8125,7.8125 0 0 1 1076.5625,700 L585.9375,700 A7.8125,7.8125 0 0 1 578.125,692.1875 L578.125,404.6875 A7.8125,7.8125 0 0 1 585.9375,396.875" fill="none" style="stroke:#000000;stroke-width:4.6875;"/><line style="stroke:#000000;stroke-width:4.6875;" x1="578.125" x2="943.6493" y1="466.5527" y2="466.5527"/><text fill="#000000" font-family="sans-serif" font-size="43.75" font-weight="bold" lengthAdjust="spacing" textLength="324.8993" x="590.625" y="443.7347">Stufe 1 (min)</text></g><!--cluster Stufe 2 (max)--><g class="cluster" data-entity="Stufe 2 .max." data-source-line="15" data-uid="ent0007" id="cluster_Stufe 2 .max."><path d="M26.5625,775 L366.1865,775 A11.7188,11.7188 0 0 1 373.999,782.8125 L395.874,844.6777 L1348.4375,844.6777 A7.8125,7.8125 0 0 1 1356.25,852.4902 L1356.25,1070.3125 A7.8125,7.8125 0 0 1 1348.4375,1078.125 L26.5625,1078.125 A7.8125,7.8125 0 0 1 18.75,1070.3125 L18.75,782.8125 A7.8125,7.8125 0 0 1 26.5625,775" fill="none" style="stroke:#000000;stroke-width:4.6875;"/><line style="stroke:#000000;stroke-width:4.6875;" x1="18.75" x2="395.874" y1="844.6777" y2="844.6777"/><text fill="#000000" font-family="sans-serif" font-size="43.75" font-weight="bold" lengthAdjust="spacing" textLength="336.499" x="31.25" y="821.8597">Stufe 2 (max)</text></g><!--entity L0--><g class="entity" data-entity="L0" data-source-line="7" data-uid="ent0003" id="entity_L0"><polygon fill="#F1F1F1" points="757.8125,159.375,789.0625,128.125,904.6875,128.125,904.6875,241.5527,873.4375,272.8027,757.8125,272.8027,757.8125,159.375" style="stroke:#181818;stroke-width:1.5625;"/><line style="stroke:#181818;stroke-width:1.5625;" x1="873.4375" x2="904.6875" y1="159.375" y2="128.125"/><line style="stroke:#181818;stroke-width:1.5625;" x1="757.8125" x2="873.4375" y1="159.375" y2="159.375"/><line style="stroke:#181818;stroke-width:1.5625;" x1="873.4375" x2="873.4375" y1="159.375" y2="272.8027"/><text fill="#000000" font-family="sans-serif" font-size="43.75" lengthAdjust="spacing" textLength="21.875" x="804.6875" y="231.2347">_</text></g><!--entity L1L--><g class="entity" data-entity="L1L" data-source-line="11" data-uid="ent0005" id="entity_L1L"><polygon fill="#F1F1F1" points="885.9375,537.5,917.1875,506.25,1032.8125,506.25,1032.8125,619.6777,1001.5625,650.9277,885.9375,650.9277,885.9375,537.5" style="stroke:#181818;stroke-width:1.5625;"/><line style="stroke:#181818;stroke-width:1.5625;" x1="1001.5625" x2="1032.8125" y1="537.5" y2="506.25"/><line style="stroke:#181818;stroke-width:1.5625;" x1="885.9375" x2="1001.5625" y1="537.5" y2="537.5"/><line style="stroke:#181818;stroke-width:1.5625;" x1="1001.5625" x2="1001.5625" y1="537.5" y2="650.9277"/><text fill="#000000" font-family="sans-serif" font-size="43.75" lengthAdjust="spacing" textLength="21.875" x="932.8125" y="609.3597">_</text></g><!--entity L1R--><g class="entity" data-entity="L1R" data-source-line="12" data-uid="ent0006" id="entity_L1R"><polygon fill="#F1F1F1" points="629.6875,537.5,660.9375,506.25,776.5625,506.25,776.5625,619.6777,745.3125,650.9277,629.6875,650.9277,629.6875,537.5" style="stroke:#181818;stroke-width:1.5625;"/><line style="stroke:#181818;stroke-width:1.5625;" x1="745.3125" x2="776.5625" y1="537.5" y2="506.25"/><line style="stroke:#181818;stroke-width:1.5625;" x1="629.6875" x2="745.3125" y1="537.5" y2="537.5"/><line style="stroke:#181818;stroke-width:1.5625;" x1="745.3125" x2="745.3125" y1="537.5" y2="650.9277"/><text fill="#000000" font-family="sans-serif" font-size="43.75" lengthAdjust="spacing" textLength="21.875" x="676.5625" y="609.3597">_</text></g><!--entity L2LL--><g class="entity" data-entity="L2LL" data-source-line="16" data-uid="ent0008" id="entity_L2LL"><polygon fill="#F1F1F1" points="1151.5625,915.625,1182.8125,884.375,1304.3976,884.375,1304.3976,997.8027,1273.1476,1029.0527,1151.5625,1029.0527,1151.5625,915.625" style="stroke:#181818;stroke-width:1.5625;"/><line style="stroke:#181818;stroke-width:1.5625;" x1="1273.1476" x2="1304.3976" y1="915.625" y2="884.375"/><line style="stroke:#181818;stroke-width:1.5625;" x1="1151.5625" x2="1273.1476" y1="915.625" y2="915.625"/><line style="stroke:#181818;stroke-width:1.5625;" x1="1273.1476" x2="1273.1476" y1="915.625" y2="1029.0527"/><text fill="#000000" font-family="sans-serif" font-size="43.75" lengthAdjust="spacing" textLength="27.8351" x="1198.4375" y="987.4847">2</text></g><!--entity L2LR--><g class="entity" data-entity="L2LR" data-source-line="17" data-uid="ent0009" id="entity_L2LR"><polygon fill="#F1F1F1" points="889.0625,915.625,920.3125,884.375,1041.8976,884.375,1041.8976,997.8027,1010.6476,1029.0527,889.0625,1029.0527,889.0625,915.625" style="stroke:#181818;stroke-width:1.5625;"/><line style="stroke:#181818;stroke-width:1.5625;" x1="1010.6476" x2="1041.8976" y1="915.625" y2="884.375"/><line style="stroke:#181818;stroke-width:1.5625;" x1="889.0625" x2="1010.6476" y1="915.625" y2="915.625"/><line style="stroke:#181818;stroke-width:1.5625;" x1="1010.6476" x2="1010.6476" y1="915.625" y2="1029.0527"/><text fill="#000000" font-family="sans-serif" font-size="43.75" lengthAdjust="spacing" textLength="27.8351" x="935.9375" y="987.4847">5</text></g><!--entity L2RL--><g class="entity" data-entity="L2RL" data-source-line="18" data-uid="ent0010" id="entity_L2RL"><polygon fill="#F1F1F1" points="626.5625,915.625,657.8125,884.375,779.3976,884.375,779.3976,997.8027,748.1476,1029.0527,626.5625,1029.0527,626.5625,915.625" style="stroke:#181818;stroke-width:1.5625;"/><line style="stroke:#181818;stroke-width:1.5625;" x1="748.1476" x2="779.3976" y1="915.625" y2="884.375"/><line style="stroke:#181818;stroke-width:1.5625;" x1="626.5625" x2="748.1476" y1="915.625" y2="915.625"/><line style="stroke:#181818;stroke-width:1.5625;" x1="748.1476" x2="748.1476" y1="915.625" y2="1029.0527"/><text fill="#000000" font-family="sans-serif" font-size="43.75" lengthAdjust="spacing" textLength="27.8351" x="673.4375" y="987.4847">4</text></g><!--entity L2RM--><g class="entity" data-entity="L2RM" data-source-line="19" data-uid="ent0011" id="entity_L2RM"><polygon fill="#F1F1F1" points="334.375,915.625,365.625,884.375,515.0452,884.375,515.0452,997.8027,483.7952,1029.0527,334.375,1029.0527,334.375,915.625" style="stroke:#181818;stroke-width:1.5625;"/><line style="stroke:#181818;stroke-width:1.5625;" x1="483.7952" x2="515.0452" y1="915.625" y2="884.375"/><line style="stroke:#181818;stroke-width:1.5625;" x1="334.375" x2="483.7952" y1="915.625" y2="915.625"/><line style="stroke:#181818;stroke-width:1.5625;" x1="483.7952" x2="483.7952" y1="915.625" y2="1029.0527"/><text fill="#000000" font-family="sans-serif" font-size="43.75" lengthAdjust="spacing" textLength="55.6702" x="381.25" y="987.4847">12</text></g><!--entity L2RR--><g class="entity" data-entity="L2RR" data-source-line="20" data-uid="ent0012" id="entity_L2RR"><polygon fill="#F1F1F1" points="70.3125,915.625,101.5625,884.375,223.1476,884.375,223.1476,997.8027,191.8976,1029.0527,70.3125,1029.0527,70.3125,915.625" style="stroke:#181818;stroke-width:1.5625;"/><line style="stroke:#181818;stroke-width:1.5625;" x1="191.8976" x2="223.1476" y1="915.625" y2="884.375"/><line style="stroke:#181818;stroke-width:1.5625;" x1="70.3125" x2="191.8976" y1="915.625" y2="915.625"/><line style="stroke:#181818;stroke-width:1.5625;" x1="191.8976" x2="191.8976" y1="915.625" y2="1029.0527"/><text fill="#000000" font-family="sans-serif" font-size="43.75" lengthAdjust="spacing" textLength="27.8351" x="117.1875" y="987.4847">8</text></g><!--link L0 to L1L--><g class="link" data-entity-1="L0" data-entity-2="L1L" data-source-line="24" data-uid="lnk13" id="link_L0_L1L"><path d="M855.0625,272.1875 C877.9063,338.5625 906.204,420.6479 929.1728,487.3042" fill="none" id="L0-to-L1L" style="stroke:#181818;stroke-width:3.125;"/><polygon fill="#181818" points="935.2813,505.0313,937.9366,474.3683,930.1908,490.2587,914.3005,482.513,935.2813,505.0313" style="stroke:#181818;stroke-width:3.125;"/></g><!--link L0 to L1R--><g class="link" data-entity-1="L0" data-entity-2="L1R" data-source-line="25" data-uid="lnk14" id="link_L0_L1R"><path d="M807.4375,272.1875 C784.5938,338.5625 756.296,420.6479 733.3272,487.3042" fill="none" id="L0-to-L1R" style="stroke:#181818;stroke-width:3.125;"/><polygon fill="#181818" points="727.2188,505.0313,748.1995,482.513,732.3092,490.2587,724.5634,474.3683,727.2188,505.0313" style="stroke:#181818;stroke-width:3.125;"/></g><!--link L1L to L2LL--><g class="link" data-entity-1="L1L" data-entity-2="L2LL" data-source-line="26" data-uid="lnk15" id="link_L1L_L2LL"><path d="M1018.6875,650.5 C1043.5938,680.5 1072.4375,716.375 1096.875,750 C1128.4688,793.4687 1151.3449,828.3493 1176.2824,868.2556" fill="none" id="L1L-to-L2LL" style="stroke:#181818;stroke-width:3.125;"/><polygon fill="#181818" points="1186.2188,884.1563,1181.9147,853.681,1177.9384,870.9057,1160.7138,866.9295,1186.2188,884.1563" style="stroke:#181818;stroke-width:3.125;"/></g><!--link L1L to L2LR--><g class="link" data-entity-1="L1L" data-entity-2="L2LR" data-source-line="27" data-uid="lnk16" id="link_L1L_L2LR"><path d="M960.5313,650.3125 C961.6563,716.6875 963.0361,797.7525 964.1299,864.4088" fill="none" id="L1L-to-L2LR" style="stroke:#181818;stroke-width:3.125;"/><polygon fill="#181818" points="964.4375,883.1563,976.4744,854.83,964.1811,867.5334,951.4777,855.2401,964.4375,883.1563" style="stroke:#181818;stroke-width:3.125;"/></g><!--link L1R to L2RL--><g class="link" data-entity-1="L1R" data-entity-2="L2RL" data-source-line="28" data-uid="lnk17" id="link_L1R_L2RL"><path d="M703.125,650.3125 C703.125,716.6875 703.125,797.75 703.125,864.4063" fill="none" id="L1R-to-L2RL" style="stroke:#181818;stroke-width:3.125;"/><polygon fill="#181818" points="703.125,883.1563,715.625,855.0313,703.125,867.5313,690.625,855.0313,703.125,883.1563" style="stroke:#181818;stroke-width:3.125;"/></g><!--link L1R to L2RM--><g class="link" data-entity-1="L1R" data-entity-2="L2RM" data-source-line="29" data-uid="lnk18" id="link_L1R_L2RM"><path d="M648.2813,650.625 C624.5625,680.9375 596.5938,717.0313 571.875,750 C538.7188,794.2187 513.2278,829.3172 484.9466,868.8172" fill="none" id="L1R-to-L2RM" style="stroke:#181818;stroke-width:3.125;"/><polygon fill="#181818" points="474.0313,884.0625,500.5677,868.4715,483.1274,871.3581,480.2407,853.9177,474.0313,884.0625" style="stroke:#181818;stroke-width:3.125;"/></g><!--link L1R to L2RR--><g class="link" data-entity-1="L1R" data-entity-2="L2RR" data-source-line="30" data-uid="lnk19" id="link_L1R_L2RR"><path d="M629.0625,596.5313 C538.9375,618.1563 385.8438,664.8125 281.25,750 C237,786.0312 210.8375,824.0092 187.7125,867.4779" fill="none" id="L1R-to-L2RR" style="stroke:#181818;stroke-width:3.125;"/><polygon fill="#181818" points="178.9063,884.0313,203.1511,865.0721,186.2448,870.2368,181.08,853.3304,178.9063,884.0313" style="stroke:#181818;stroke-width:3.125;"/></g><!--SRC=[RP1D2i8m48NtSugXc-gYa5O5Lsu4L-ac7a1Y6oLeCw5DKH7lRled0PlLl6_Up3pItBInifOLbbRZYZ6060zK5meTsQIaXy6xV57hm6lFy4pEaRVhMXLEam6mihZ9gyBewDgBGeQBIZwN4Ru1_JDK-jOfGjaWP_3vywVUhysyF-KpJCmioUQEPiD0niCjcmcA0Av7A49dEisBFA3R2VOnOjoJCSDFDC0P9ickZ_qh1NWvr5sGG7GTCGh1Gv67Gi0N]--></g></svg>