<svg xmlns="http://www.w3.org/2000/svg" xmlns:xlink="http://www.w3.org/1999/xlink" contentStyleType="text/css" data-diagram-type="ACTIVITY" height="779px" preserveAspectRatio="none" style="width:700px;height:779px;background:#FFFFFF;" version="1.1" viewBox="0 0 700 779" width="700px" zoomAndPan="magnify"><defs/><g><ellipse cx="336.6523" cy="20" fill="#222222" rx="10" ry="10" style="stroke:#222222;stroke-width:1;"/><rect fill="#F1F1F1" height="33.9688" rx="12.5" ry="12.5" style="stroke:#181818;stroke-width:0.5;" width="262.3086" x="205.498" y="50"/><text fill="#000000" font-family="sans-serif" font-size="12" lengthAdjust="spacing" textLength="242.3086" x="215.498" y="71.1387">call Minimax(node, depth, isMaximizing)</text><rect fill="#F1F1F1" height="33.9688" rx="12.5" ry="12.5" style="stroke:#181818;stroke-width:0.5;" width="105.9805" x="283.6621" y="152.3711"/><text fill="#000000" font-family="sans-serif" font-size="12" lengthAdjust="spacing" textLength="85.9805" x="293.6621" y="173.5098">evaluate node</text><rect fill="#F1F1F1" height="33.9688" rx="12.5" ry="12.5" style="stroke:#181818;stroke-width:0.5;" width="93.4883" x="289.9082" y="206.3398"/><text fill="#000000" font-family="sans-serif" font-size="12" lengthAdjust="spacing" textLength="73.4883" x="299.9082" y="227.4785">return score</text><ellipse cx="336.6523" cy="271.3086" fill="none" rx="11" ry="11" style="stroke:#222222;stroke-width:1;"/><ellipse cx="336.6523" cy="271.3086" fill="#222222" rx="6" ry="6" style="stroke:#222222;stroke-width:1;"/><polygon fill="#F1F1F1" points="251.3191,103.9688,421.9856,103.9688,433.9856,115.9688,421.9856,127.9688,251.3191,127.9688,239.3191,115.9688,251.3191,103.9688" style="stroke:#181818;stroke-width:0.5;"/><text fill="#000000" font-family="sans-serif" font-size="11" lengthAdjust="spacing" textLength="19.0083" x="340.6523" y="138.1792">yes</text><text fill="#000000" font-family="sans-serif" font-size="11" lengthAdjust="spacing" textLength="170.6665" x="251.3191" y="119.7769">terminal node OR depth == 0?</text><polygon fill="#F1F1F1" points="298.1631,324.3086,375.1416,324.3086,387.1416,336.3086,375.1416,348.3086,298.1631,348.3086,286.1631,336.3086,298.1631,324.3086" style="stroke:#181818;stroke-width:0.5;"/><text fill="#000000" font-family="sans-serif" font-size="11" lengthAdjust="spacing" textLength="76.9785" x="298.1631" y="340.1167">isMaximizing?</text><text fill="#000000" font-family="sans-serif" font-size="11" lengthAdjust="spacing" textLength="19.0083" x="267.1548" y="333.7144">yes</text><text fill="#000000" font-family="sans-serif" font-size="11" lengthAdjust="spacing" textLength="13.7017" x="387.1416" y="333.7144">no</text><rect fill="#F1F1F1" height="33.9688" rx="12.5" ry="12.5" style="stroke:#181818;stroke-width:0.5;" width="143.0996" x="91.2764" y="358.3086"/><text fill="#000000" font-family="sans-serif" font-size="12" lengthAdjust="spacing" textLength="123.0996" x="101.2764" y="379.4473">bestValue = -infinity</text><rect fill="#F1F1F1" height="33.9688" rx="12.5" ry="12.5" style="stroke:#181818;stroke-width:0.5;" width="106.666" x="109.4932" y="456.2773"/><text fill="#000000" font-family="sans-serif" font-size="12" lengthAdjust="spacing" textLength="86.666" x="119.4932" y="477.416">generate child</text><rect fill="#F1F1F1" height="33.9688" rx="12.5" ry="12.5" style="stroke:#181818;stroke-width:0.5;" width="303.6523" x="11" y="510.2461"/><text fill="#000000" font-family="sans-serif" font-size="12" lengthAdjust="spacing" textLength="283.6523" x="21" y="531.3848">value = Minimax(child, depth-1, !isMaximizing)</text><rect fill="#F1F1F1" height="33.9688" rx="12.5" ry="12.5" style="stroke:#181818;stroke-width:0.5;" width="233.2813" x="46.1855" y="564.2148"/><text fill="#000000" font-family="sans-serif" font-size="12" lengthAdjust="spacing" textLength="213.2813" x="56.1855" y="585.3535">bestValue = max(bestValue, value)</text><polygon fill="#F1F1F1" points="162.8262,412.2773,174.8262,424.2773,162.8262,436.2773,150.8262,424.2773,162.8262,412.2773" style="stroke:#181818;stroke-width:0.5;"/><polygon fill="#F1F1F1" points="122.2153,618.1836,203.437,618.1836,215.437,630.1836,203.437,642.1836,122.2153,642.1836,110.2153,630.1836,122.2153,618.1836" style="stroke:#181818;stroke-width:0.5;"/><text fill="#000000" font-family="sans-serif" font-size="11" lengthAdjust="spacing" textLength="81.2217" x="122.2153" y="633.9917">More children?</text><rect fill="#F1F1F1" height="33.9688" rx="12.5" ry="12.5" style="stroke:#181818;stroke-width:0.5;" width="148.8242" x="436.0664" y="358.3086"/><text fill="#000000" font-family="sans-serif" font-size="12" lengthAdjust="spacing" textLength="128.8242" x="446.0664" y="379.4473">bestValue = +infinity</text><rect fill="#F1F1F1" height="33.9688" rx="12.5" ry="12.5" style="stroke:#181818;stroke-width:0.5;" width="106.666" x="457.1455" y="456.2773"/><text fill="#000000" font-family="sans-serif" font-size="12" lengthAdjust="spacing" textLength="86.666" x="467.1455" y="477.416">generate child</text><rect fill="#F1F1F1" height="33.9688" rx="12.5" ry="12.5" style="stroke:#181818;stroke-width:0.5;" width="303.6523" x="358.6523" y="510.2461"/><text fill="#000000" font-family="sans-serif" font-size="12" lengthAdjust="spacing" textLength="283.6523" x="368.6523" y="531.3848">value = Minimax(child, depth-1, !isMaximizing)</text><rect fill="#F1F1F1" height="33.9688" rx="12.5" ry="12.5" style="stroke:#181818;stroke-width:0.5;" width="229.7656" x="395.5957" y="564.2148"/><text fill="#000000" font-family="sans-serif" font-size="12" lengthAdjust="spacing" textLength="209.7656" x="405.5957" y="585.3535">bestValue = min(bestValue, value)</text><polygon fill="#F1F1F1" points="510.4785,412.2773,522.4785,424.2773,510.4785,436.2773,498.4785,424.2773,510.4785,412.2773" style="stroke:#181818;stroke-width:0.5;"/><polygon fill="#F1F1F1" points="469.8677,618.1836,551.0894,618.1836,563.0894,630.1836,551.0894,642.1836,469.8677,642.1836,457.8677,630.1836,469.8677,618.1836" style="stroke:#181818;stroke-width:0.5;"/><text fill="#000000" font-family="sans-serif" font-size="11" lengthAdjust="spacing" textLength="81.2217" x="469.8677" y="633.9917">More children?</text><polygon fill="#F1F1F1" points="336.6523,648.1836,348.6523,660.1836,336.6523,672.1836,324.6523,660.1836,336.6523,648.1836" style="stroke:#181818;stroke-width:0.5;"/><rect fill="#F1F1F1" height="33.9688" rx="12.5" ry="12.5" style="stroke:#181818;stroke-width:0.5;" width="120.8223" x="276.2412" y="692.1836"/><text fill="#000000" font-family="sans-serif" font-size="12" lengthAdjust="spacing" textLength="100.8223" x="286.2412" y="713.3223">return bestValue</text><ellipse cx="336.6523" cy="757.1523" fill="none" rx="11" ry="11" style="stroke:#222222;stroke-width:1;"/><ellipse cx="336.6523" cy="757.1523" fill="#222222" rx="6" ry="6" style="stroke:#222222;stroke-width:1;"/><line style="stroke:#181818;stroke-width:1;" x1="336.6523" x2="336.6523" y1="30" y2="50"/><polygon fill="#181818" points="332.6523,40,336.6523,50,340.6523,40,336.6523,44" style="stroke:#181818;stroke-width:1;"/><line style="stroke:#181818;stroke-width:1;" x1="336.6523" x2="336.6523" y1="186.3398" y2="206.3398"/><polygon fill="#181818" points="332.6523,196.3398,336.6523,206.3398,340.6523,196.3398,336.6523,200.3398" style="stroke:#181818;stroke-width:1;"/><line style="stroke:#181818;stroke-width:1;" x1="336.6523" x2="336.6523" y1="240.3086" y2="260.3086"/><polygon fill="#181818" points="332.6523,250.3086,336.6523,260.3086,340.6523,250.3086,336.6523,254.3086" style="stroke:#181818;stroke-width:1;"/><line style="stroke:#181818;stroke-width:1;" x1="336.6523" x2="336.6523" y1="127.9688" y2="152.3711"/><polygon fill="#181818" points="332.6523,142.3711,336.6523,152.3711,340.6523,142.3711,336.6523,146.3711" style="stroke:#181818;stroke-width:1;"/><line style="stroke:#181818;stroke-width:1;" x1="433.9856" x2="445.9856" y1="115.9688" y2="115.9688"/><polygon fill="#181818" points="441.9856,204.3398,445.9856,214.3398,449.9856,204.3398,445.9856,208.3398" style="stroke:#181818;stroke-width:1;"/><line style="stroke:#181818;stroke-width:1;" x1="445.9856" x2="445.9856" y1="115.9688" y2="304.3086"/><line style="stroke:#181818;stroke-width:1;" x1="445.9856" x2="336.6523" y1="304.3086" y2="304.3086"/><line style="stroke:#181818;stroke-width:1;" x1="336.6523" x2="336.6523" y1="304.3086" y2="324.3086"/><polygon fill="#181818" points="332.6523,314.3086,336.6523,324.3086,340.6523,314.3086,336.6523,318.3086" style="stroke:#181818;stroke-width:1;"/><line style="stroke:#181818;stroke-width:1;" x1="336.6523" x2="336.6523" y1="83.9688" y2="103.9688"/><polygon fill="#181818" points="332.6523,93.9688,336.6523,103.9688,340.6523,93.9688,336.6523,97.9688" style="stroke:#181818;stroke-width:1;"/><line style="stroke:#181818;stroke-width:1;" x1="162.8262" x2="162.8262" y1="490.2461" y2="510.2461"/><polygon fill="#181818" points="158.8262,500.2461,162.8262,510.2461,166.8262,500.2461,162.8262,504.2461" style="stroke:#181818;stroke-width:1;"/><line style="stroke:#181818;stroke-width:1;" x1="162.8262" x2="162.8262" y1="544.2148" y2="564.2148"/><polygon fill="#181818" points="158.8262,554.2148,162.8262,564.2148,166.8262,554.2148,162.8262,558.2148" style="stroke:#181818;stroke-width:1;"/><line style="stroke:#181818;stroke-width:1;" x1="162.8262" x2="162.8262" y1="436.2773" y2="456.2773"/><polygon fill="#181818" points="158.8262,446.2773,162.8262,456.2773,166.8262,446.2773,162.8262,450.2773" style="stroke:#181818;stroke-width:1;"/><line style="stroke:#181818;stroke-width:1;" x1="215.437" x2="326.6523" y1="630.1836" y2="630.1836"/><polygon fill="#181818" points="322.6523,537.2305,326.6523,527.2305,330.6523,537.2305,326.6523,533.2305" style="stroke:#181818;stroke-width:1;"/><line style="stroke:#181818;stroke-width:1;" x1="326.6523" x2="326.6523" y1="424.2773" y2="630.1836"/><line style="stroke:#181818;stroke-width:1;" x1="326.6523" x2="174.8262" y1="424.2773" y2="424.2773"/><polygon fill="#181818" points="184.8262,420.2773,174.8262,424.2773,184.8262,428.2773,180.8262,424.2773" style="stroke:#181818;stroke-width:1;"/><line style="stroke:#181818;stroke-width:1;" x1="162.8262" x2="162.8262" y1="598.1836" y2="618.1836"/><polygon fill="#181818" points="158.8262,608.1836,162.8262,618.1836,166.8262,608.1836,162.8262,612.1836" style="stroke:#181818;stroke-width:1;"/><line style="stroke:#181818;stroke-width:1;" x1="162.8262" x2="162.8262" y1="392.2773" y2="412.2773"/><polygon fill="#181818" points="158.8262,402.2773,162.8262,412.2773,166.8262,402.2773,162.8262,406.2773" style="stroke:#181818;stroke-width:1;"/><line style="stroke:#181818;stroke-width:1;" x1="510.4785" x2="510.4785" y1="490.2461" y2="510.2461"/><polygon fill="#181818" points="506.4785,500.2461,510.4785,510.2461,514.4785,500.2461,510.4785,504.2461" style="stroke:#181818;stroke-width:1;"/><line style="stroke:#181818;stroke-width:1;" x1="510.4785" x2="510.4785" y1="544.2148" y2="564.2148"/><polygon fill="#181818" points="506.4785,554.2148,510.4785,564.2148,514.4785,554.2148,510.4785,558.2148" style="stroke:#181818;stroke-width:1;"/><line style="stroke:#181818;stroke-width:1;" x1="510.4785" x2="510.4785" y1="436.2773" y2="456.2773"/><polygon fill="#181818" points="506.4785,446.2773,510.4785,456.2773,514.4785,446.2773,510.4785,450.2773" style="stroke:#181818;stroke-width:1;"/><line style="stroke:#181818;stroke-width:1;" x1="563.0894" x2="674.3047" y1="630.1836" y2="630.1836"/><polygon fill="#181818" points="670.3047,537.2305,674.3047,527.2305,678.3047,537.2305,674.3047,533.2305" style="stroke:#181818;stroke-width:1;"/><line style="stroke:#181818;stroke-width:1;" x1="674.3047" x2="674.3047" y1="424.2773" y2="630.1836"/><line style="stroke:#181818;stroke-width:1;" x1="674.3047" x2="522.4785" y1="424.2773" y2="424.2773"/><polygon fill="#181818" points="532.4785,420.2773,522.4785,424.2773,532.4785,428.2773,528.4785,424.2773" style="stroke:#181818;stroke-width:1;"/><line style="stroke:#181818;stroke-width:1;" x1="510.4785" x2="510.4785" y1="598.1836" y2="618.1836"/><polygon fill="#181818" points="506.4785,608.1836,510.4785,618.1836,514.4785,608.1836,510.4785,612.1836" style="stroke:#181818;stroke-width:1;"/><line style="stroke:#181818;stroke-width:1;" x1="510.4785" x2="510.4785" y1="392.2773" y2="412.2773"/><polygon fill="#181818" points="506.4785,402.2773,510.4785,412.2773,514.4785,402.2773,510.4785,406.2773" style="stroke:#181818;stroke-width:1;"/><line style="stroke:#181818;stroke-width:1;" x1="286.1631" x2="162.8262" y1="336.3086" y2="336.3086"/><line style="stroke:#181818;stroke-width:1;" x1="162.8262" x2="162.8262" y1="336.3086" y2="358.3086"/><polygon fill="#181818" points="158.8262,348.3086,162.8262,358.3086,166.8262,348.3086,162.8262,352.3086" style="stroke:#181818;stroke-width:1;"/><line style="stroke:#181818;stroke-width:1;" x1="387.1416" x2="510.4785" y1="336.3086" y2="336.3086"/><line style="stroke:#181818;stroke-width:1;" x1="510.4785" x2="510.4785" y1="336.3086" y2="358.3086"/><polygon fill="#181818" points="506.4785,348.3086,510.4785,358.3086,514.4785,348.3086,510.4785,352.3086" style="stroke:#181818;stroke-width:1;"/><line style="stroke:#181818;stroke-width:1;" x1="162.8262" x2="162.8262" y1="642.1836" y2="660.1836"/><line style="stroke:#181818;stroke-width:1;" x1="162.8262" x2="324.6523" y1="660.1836" y2="660.1836"/><polygon fill="#181818" points="314.6523,656.1836,324.6523,660.1836,314.6523,664.1836,318.6523,660.1836" style="stroke:#181818;stroke-width:1;"/><line style="stroke:#181818;stroke-width:1;" x1="510.4785" x2="510.4785" y1="642.1836" y2="660.1836"/><line style="stroke:#181818;stroke-width:1;" x1="510.4785" x2="348.6523" y1="660.1836" y2="660.1836"/><polygon fill="#181818" points="358.6523,656.1836,348.6523,660.1836,358.6523,664.1836,354.6523,660.1836" style="stroke:#181818;stroke-width:1;"/><line style="stroke:#181818;stroke-width:1;" x1="336.6523" x2="336.6523" y1="672.1836" y2="692.1836"/><polygon fill="#181818" points="332.6523,682.1836,336.6523,692.1836,340.6523,682.1836,336.6523,686.1836" style="stroke:#181818;stroke-width:1;"/><line style="stroke:#181818;stroke-width:1;" x1="336.6523" x2="336.6523" y1="726.1523" y2="746.1523"/><polygon fill="#181818" points="332.6523,736.1523,336.6523,746.1523,340.6523,736.1523,336.6523,740.1523" style="stroke:#181818;stroke-width:1;"/><!--SRC=[lL6vRiCm3Dtr5UnceGwGh36CV84H84DsrQPZ0Z9jICpLhu-E90sQhKCtwV7n7Q0NuqIfTMkiXOQOHdCfUEgmX0vd6KeWtvWBZVHDVD2LKjH38UX6OcCXCc6xoroeQrXkDCY03CKLlLO0QpmPUpI2YLj5nA4S7ODl9vS0BzEia3lgi_ghuvlS5thP1qM46XR4VOWirwZYS4OZuH581sHqqRCTo7PL1a_thKVBDBlNNAnA-FZLD2szsiMbvx-4fAT_hE4S116A9jJAnWvvenLQ7r2Utk9__dDyuZ_5puTvNEsfKAbqjni0]--></g></svg>