<svg xmlns="http://www.w3.org/2000/svg" xmlns:xlink="http://www.w3.org/1999/xlink" contentStyleType="text/css" data-diagram-type="ACTIVITY" height="635px" preserveAspectRatio="none" style="width:848px;height:635px;background:#FFFFFF;" version="1.1" viewBox="0 0 848 635" width="848px" zoomAndPan="magnify"><defs/><g><ellipse cx="276.252" cy="20" fill="#222222" rx="10" ry="10" style="stroke:#222222;stroke-width:1;"/><rect fill="#F1F1F1" height="33.9688" rx="12.5" ry="12.5" style="stroke:#181818;stroke-width:0.5;" width="262.3086" x="145.0977" y="50"/><text fill="#000000" font-family="sans-serif" font-size="12" lengthAdjust="spacing" textLength="242.3086" x="155.0977" y="71.1387">call Minimax(node, depth, isMaximizing)</text><polygon fill="#F1F1F1" points="190.9187,103.9688,361.5852,103.9688,373.5852,115.9688,361.5852,127.9688,190.9187,127.9688,178.9187,115.9688,190.9187,103.9688" style="stroke:#181818;stroke-width:0.5;"/><text fill="#000000" font-family="sans-serif" font-size="11" lengthAdjust="spacing" textLength="170.6665" x="190.9187" y="119.7769">terminal node OR depth == 0?</text><text fill="#000000" font-family="sans-serif" font-size="11" lengthAdjust="spacing" textLength="19.0083" x="159.9104" y="113.3745">yes</text><text fill="#000000" font-family="sans-serif" font-size="11" lengthAdjust="spacing" textLength="13.7017" x="373.5852" y="113.3745">no</text><rect fill="#F1F1F1" height="33.9688" rx="12.5" ry="12.5" style="stroke:#181818;stroke-width:0.5;" width="105.9805" x="20.0586" y="137.9688"/><text fill="#000000" font-family="sans-serif" font-size="12" lengthAdjust="spacing" textLength="85.9805" x="30.0586" y="159.1074">evaluate node</text><rect fill="#F1F1F1" height="33.9688" rx="12.5" ry="12.5" style="stroke:#181818;stroke-width:0.5;" width="124.0977" x="11" y="206.9375"/><text fill="#000000" font-family="sans-serif" font-size="12" lengthAdjust="spacing" textLength="104.0977" x="21" y="228.0762">return evaluation</text><ellipse cx="73.0488" cy="286.9063" fill="none" rx="11" ry="11" style="stroke:#222222;stroke-width:1;"/><ellipse cx="73.0488" cy="286.9063" fill="#222222" rx="6" ry="6" style="stroke:#222222;stroke-width:1;"/><polygon fill="#F1F1F1" points="446.6133,137.9688,523.5918,137.9688,535.5918,149.9688,523.5918,161.9688,446.6133,161.9688,434.6133,149.9688,446.6133,137.9688" style="stroke:#181818;stroke-width:0.5;"/><text fill="#000000" font-family="sans-serif" font-size="11" lengthAdjust="spacing" textLength="76.9785" x="446.6133" y="153.7769">isMaximizing?</text><text fill="#000000" font-family="sans-serif" font-size="11" lengthAdjust="spacing" textLength="19.0083" x="415.605" y="147.3745">yes</text><text fill="#000000" font-family="sans-serif" font-size="11" lengthAdjust="spacing" textLength="13.7017" x="535.5918" y="147.3745">no</text><rect fill="#F1F1F1" height="33.9688" rx="12.5" ry="12.5" style="stroke:#181818;stroke-width:0.5;" width="143.0996" x="239.7266" y="171.9688"/><text fill="#000000" font-family="sans-serif" font-size="12" lengthAdjust="spacing" textLength="123.0996" x="249.7266" y="193.1074">bestValue = -infinity</text><rect fill="#F1F1F1" height="33.9688" rx="12.5" ry="12.5" style="stroke:#181818;stroke-width:0.5;" width="140.4277" x="241.0625" y="312.9375"/><text fill="#000000" font-family="sans-serif" font-size="12" lengthAdjust="spacing" textLength="120.4277" x="251.0625" y="334.0762">generate child node</text><rect fill="#F1F1F1" height="33.9688" rx="12.5" ry="12.5" style="stroke:#181818;stroke-width:0.5;" width="303.6523" x="159.4502" y="366.9063"/><text fill="#000000" font-family="sans-serif" font-size="12" lengthAdjust="spacing" textLength="283.6523" x="169.4502" y="388.0449">value = Minimax(child, depth-1, !isMaximizing)</text><rect fill="#F1F1F1" height="33.9688" rx="12.5" ry="12.5" style="stroke:#181818;stroke-width:0.5;" width="233.2813" x="194.6357" y="420.875"/><text fill="#000000" font-family="sans-serif" font-size="12" lengthAdjust="spacing" textLength="213.2813" x="204.6357" y="442.0137">bestValue = max(bestValue, value)</text><polygon fill="#F1F1F1" points="311.2764,240.9375,323.2764,252.9375,311.2764,264.9375,299.2764,252.9375,311.2764,240.9375" style="stroke:#181818;stroke-width:0.5;"/><polygon fill="#F1F1F1" points="270.6655,474.8438,351.8872,474.8438,363.8872,486.8438,351.8872,498.8438,270.6655,498.8438,258.6655,486.8438,270.6655,474.8438" style="stroke:#181818;stroke-width:0.5;"/><text fill="#000000" font-family="sans-serif" font-size="11" lengthAdjust="spacing" textLength="81.2217" x="270.6655" y="490.6519">More children?</text><rect fill="#F1F1F1" height="33.9688" rx="12.5" ry="12.5" style="stroke:#181818;stroke-width:0.5;" width="148.8242" x="584.5166" y="171.9688"/><text fill="#000000" font-family="sans-serif" font-size="12" lengthAdjust="spacing" textLength="128.8242" x="594.5166" y="193.1074">bestValue = +infinity</text><rect fill="#F1F1F1" height="33.9688" rx="12.5" ry="12.5" style="stroke:#181818;stroke-width:0.5;" width="140.4277" x="588.7148" y="312.9375"/><text fill="#000000" font-family="sans-serif" font-size="12" lengthAdjust="spacing" textLength="120.4277" x="598.7148" y="334.0762">generate child node</text><rect fill="#F1F1F1" height="33.9688" rx="12.5" ry="12.5" style="stroke:#181818;stroke-width:0.5;" width="303.6523" x="507.1025" y="366.9063"/><text fill="#000000" font-family="sans-serif" font-size="12" lengthAdjust="spacing" textLength="283.6523" x="517.1025" y="388.0449">value = Minimax(child, depth-1, !isMaximizing)</text><rect fill="#F1F1F1" height="33.9688" rx="12.5" ry="12.5" style="stroke:#181818;stroke-width:0.5;" width="229.7656" x="544.0459" y="420.875"/><text fill="#000000" font-family="sans-serif" font-size="12" lengthAdjust="spacing" textLength="209.7656" x="554.0459" y="442.0137">bestValue = min(bestValue, value)</text><polygon fill="#F1F1F1" points="658.9287,240.9375,670.9287,252.9375,658.9287,264.9375,646.9287,252.9375,658.9287,240.9375" style="stroke:#181818;stroke-width:0.5;"/><polygon fill="#F1F1F1" points="618.3179,474.8438,699.5396,474.8438,711.5396,486.8438,699.5396,498.8438,618.3179,498.8438,606.3179,486.8438,618.3179,474.8438" style="stroke:#181818;stroke-width:0.5;"/><text fill="#000000" font-family="sans-serif" font-size="11" lengthAdjust="spacing" textLength="81.2217" x="618.3179" y="490.6519">More children?</text><polygon fill="#F1F1F1" points="485.1025,504.8438,497.1025,516.8438,485.1025,528.8438,473.1025,516.8438,485.1025,504.8438" style="stroke:#181818;stroke-width:0.5;"/><rect fill="#F1F1F1" height="33.9688" rx="12.5" ry="12.5" style="stroke:#181818;stroke-width:0.5;" width="120.8223" x="215.8408" y="548.8438"/><text fill="#000000" font-family="sans-serif" font-size="12" lengthAdjust="spacing" textLength="100.8223" x="225.8408" y="569.9824">return bestValue</text><ellipse cx="276.252" cy="613.8125" fill="none" rx="11" ry="11" style="stroke:#222222;stroke-width:1;"/><ellipse cx="276.252" cy="613.8125" fill="#222222" rx="6" ry="6" style="stroke:#222222;stroke-width:1;"/><line style="stroke:#181818;stroke-width:1;" x1="276.252" x2="276.252" y1="30" y2="50"/><polygon fill="#181818" points="272.252,40,276.252,50,280.252,40,276.252,44" style="stroke:#181818;stroke-width:1;"/><line style="stroke:#181818;stroke-width:1;" x1="73.0488" x2="73.0488" y1="171.9375" y2="206.9375"/><polygon fill="#181818" points="69.0488,196.9375,73.0488,206.9375,77.0488,196.9375,73.0488,200.9375" style="stroke:#181818;stroke-width:1;"/><line style="stroke:#181818;stroke-width:1;" x1="73.0488" x2="73.0488" y1="240.9063" y2="275.9063"/><polygon fill="#181818" points="69.0488,265.9063,73.0488,275.9063,77.0488,265.9063,73.0488,269.9063" style="stroke:#181818;stroke-width:1;"/><line style="stroke:#181818;stroke-width:1;" x1="311.2764" x2="311.2764" y1="346.9063" y2="366.9063"/><polygon fill="#181818" points="307.2764,356.9063,311.2764,366.9063,315.2764,356.9063,311.2764,360.9063" style="stroke:#181818;stroke-width:1;"/><line style="stroke:#181818;stroke-width:1;" x1="311.2764" x2="311.2764" y1="400.875" y2="420.875"/><polygon fill="#181818" points="307.2764,410.875,311.2764,420.875,315.2764,410.875,311.2764,414.875" style="stroke:#181818;stroke-width:1;"/><line style="stroke:#181818;stroke-width:1;" x1="311.2764" x2="311.2764" y1="264.9375" y2="312.9375"/><polygon fill="#181818" points="307.2764,302.9375,311.2764,312.9375,315.2764,302.9375,311.2764,306.9375" style="stroke:#181818;stroke-width:1;"/><line style="stroke:#181818;stroke-width:1;" x1="363.8872" x2="475.1025" y1="486.8438" y2="486.8438"/><polygon fill="#181818" points="471.1025,393.8906,475.1025,383.8906,479.1025,393.8906,475.1025,389.8906" style="stroke:#181818;stroke-width:1;"/><line style="stroke:#181818;stroke-width:1;" x1="475.1025" x2="475.1025" y1="252.9375" y2="486.8438"/><line style="stroke:#181818;stroke-width:1;" x1="475.1025" x2="323.2764" y1="252.9375" y2="252.9375"/><polygon fill="#181818" points="333.2764,248.9375,323.2764,252.9375,333.2764,256.9375,329.2764,252.9375" style="stroke:#181818;stroke-width:1;"/><line style="stroke:#181818;stroke-width:1;" x1="311.2764" x2="311.2764" y1="454.8438" y2="474.8438"/><polygon fill="#181818" points="307.2764,464.8438,311.2764,474.8438,315.2764,464.8438,311.2764,468.8438" style="stroke:#181818;stroke-width:1;"/><line style="stroke:#181818;stroke-width:1;" x1="311.2764" x2="311.2764" y1="205.9375" y2="240.9375"/><polygon fill="#181818" points="307.2764,230.9375,311.2764,240.9375,315.2764,230.9375,311.2764,234.9375" style="stroke:#181818;stroke-width:1;"/><line style="stroke:#181818;stroke-width:1;" x1="658.9287" x2="658.9287" y1="346.9063" y2="366.9063"/><polygon fill="#181818" points="654.9287,356.9063,658.9287,366.9063,662.9287,356.9063,658.9287,360.9063" style="stroke:#181818;stroke-width:1;"/><line style="stroke:#181818;stroke-width:1;" x1="658.9287" x2="658.9287" y1="400.875" y2="420.875"/><polygon fill="#181818" points="654.9287,410.875,658.9287,420.875,662.9287,410.875,658.9287,414.875" style="stroke:#181818;stroke-width:1;"/><line style="stroke:#181818;stroke-width:1;" x1="658.9287" x2="658.9287" y1="264.9375" y2="312.9375"/><polygon fill="#181818" points="654.9287,302.9375,658.9287,312.9375,662.9287,302.9375,658.9287,306.9375" style="stroke:#181818;stroke-width:1;"/><line style="stroke:#181818;stroke-width:1;" x1="711.5396" x2="822.7549" y1="486.8438" y2="486.8438"/><polygon fill="#181818" points="818.7549,393.8906,822.7549,383.8906,826.7549,393.8906,822.7549,389.8906" style="stroke:#181818;stroke-width:1;"/><line style="stroke:#181818;stroke-width:1;" x1="822.7549" x2="822.7549" y1="252.9375" y2="486.8438"/><line style="stroke:#181818;stroke-width:1;" x1="822.7549" x2="670.9287" y1="252.9375" y2="252.9375"/><polygon fill="#181818" points="680.9287,248.9375,670.9287,252.9375,680.9287,256.9375,676.9287,252.9375" style="stroke:#181818;stroke-width:1;"/><line style="stroke:#181818;stroke-width:1;" x1="658.9287" x2="658.9287" y1="454.8438" y2="474.8438"/><polygon fill="#181818" points="654.9287,464.8438,658.9287,474.8438,662.9287,464.8438,658.9287,468.8438" style="stroke:#181818;stroke-width:1;"/><line style="stroke:#181818;stroke-width:1;" x1="658.9287" x2="658.9287" y1="205.9375" y2="240.9375"/><polygon fill="#181818" points="654.9287,230.9375,658.9287,240.9375,662.9287,230.9375,658.9287,234.9375" style="stroke:#181818;stroke-width:1;"/><line style="stroke:#181818;stroke-width:1;" x1="434.6133" x2="311.2764" y1="149.9688" y2="149.9688"/><line style="stroke:#181818;stroke-width:1;" x1="311.2764" x2="311.2764" y1="149.9688" y2="171.9688"/><polygon fill="#181818" points="307.2764,161.9688,311.2764,171.9688,315.2764,161.9688,311.2764,165.9688" style="stroke:#181818;stroke-width:1;"/><line style="stroke:#181818;stroke-width:1;" x1="535.5918" x2="658.9287" y1="149.9688" y2="149.9688"/><line style="stroke:#181818;stroke-width:1;" x1="658.9287" x2="658.9287" y1="149.9688" y2="171.9688"/><polygon fill="#181818" points="654.9287,161.9688,658.9287,171.9688,662.9287,161.9688,658.9287,165.9688" style="stroke:#181818;stroke-width:1;"/><line style="stroke:#181818;stroke-width:1;" x1="311.2764" x2="311.2764" y1="498.8438" y2="516.8438"/><line style="stroke:#181818;stroke-width:1;" x1="311.2764" x2="473.1025" y1="516.8438" y2="516.8438"/><polygon fill="#181818" points="463.1025,512.8438,473.1025,516.8438,463.1025,520.8438,467.1025,516.8438" style="stroke:#181818;stroke-width:1;"/><line style="stroke:#181818;stroke-width:1;" x1="658.9287" x2="658.9287" y1="498.8438" y2="516.8438"/><line style="stroke:#181818;stroke-width:1;" x1="658.9287" x2="497.1025" y1="516.8438" y2="516.8438"/><polygon fill="#181818" points="507.1025,512.8438,497.1025,516.8438,507.1025,520.8438,503.1025,516.8438" style="stroke:#181818;stroke-width:1;"/><line style="stroke:#181818;stroke-width:1;" x1="178.9187" x2="73.0488" y1="115.9688" y2="115.9688"/><line style="stroke:#181818;stroke-width:1;" x1="73.0488" x2="73.0488" y1="115.9688" y2="137.9688"/><polygon fill="#181818" points="69.0488,127.9688,73.0488,137.9688,77.0488,127.9688,73.0488,131.9688" style="stroke:#181818;stroke-width:1;"/><line style="stroke:#181818;stroke-width:1;" x1="373.5852" x2="485.1025" y1="115.9688" y2="115.9688"/><line style="stroke:#181818;stroke-width:1;" x1="485.1025" x2="485.1025" y1="115.9688" y2="137.9688"/><polygon fill="#181818" points="481.1025,127.9688,485.1025,137.9688,489.1025,127.9688,485.1025,131.9688" style="stroke:#181818;stroke-width:1;"/><line style="stroke:#181818;stroke-width:1;" x1="485.1025" x2="485.1025" y1="528.8438" y2="533.8438"/><line style="stroke:#181818;stroke-width:1;" x1="485.1025" x2="276.252" y1="533.8438" y2="533.8438"/><line style="stroke:#181818;stroke-width:1;" x1="276.252" x2="276.252" y1="533.8438" y2="548.8438"/><polygon fill="#181818" points="272.252,538.8438,276.252,548.8438,280.252,538.8438,276.252,542.8438" style="stroke:#181818;stroke-width:1;"/><line style="stroke:#181818;stroke-width:1;" x1="276.252" x2="276.252" y1="83.9688" y2="103.9688"/><polygon fill="#181818" points="272.252,93.9688,276.252,103.9688,280.252,93.9688,276.252,97.9688" style="stroke:#181818;stroke-width:1;"/><line style="stroke:#181818;stroke-width:1;" x1="276.252" x2="276.252" y1="582.8125" y2="602.8125"/><polygon fill="#181818" points="272.252,592.8125,276.252,602.8125,280.252,592.8125,276.252,596.8125" style="stroke:#181818;stroke-width:1;"/><!--SRC=[pLB1ReCm3BtdAzvke55fku9Glm1Lsc7th9XYAHYKf5sxhry2AMgvxh8S8jb-VdxFilFQUgNAepO63GiF-fh9s5A1bYRV5s3Nw2iF_CDooYkbk4FcoGuisY0YSVXOiAXhlErp-9u4sOrShe2IBjgSjQSPMyMC9N-sWbJWKMBM-N5IP1mXZ8-DG9pqE7rB7L_vHSv_1Y92ZHrB5opuMvMgbYRIFWK1V28X6xKSUpRjgYXLBudcleOPbFQmUo_mibd5slYe8JQkSO6PCt_MW-z077mseqrABCb-SVIyWGttwt_mn_8dVz9ofvPVtIzXvQlKV0Q_]--></g></svg>