<svg xmlns="http://www.w3.org/2000/svg" xmlns:xlink="http://www.w3.org/1999/xlink" contentStyleType="text/css" data-diagram-type="CLASS" height="1070px" preserveAspectRatio="none" style="width:3542px;height:1070px;background:#FFFFFF;" version="1.1" viewBox="0 0 3542 1070" width="3542px" zoomAndPan="magnify"><defs/><g><!--cluster ch--><g class="cluster" data-entity="ch" data-source-line="2" data-uid="ent0003" id="cluster_ch"><path d="M8.5,6 L27.7656,6 A3.75,3.75 0 0 1 30.2656,8.5 L37.2656,28.2969 L3532.5,28.2969 A2.5,2.5 0 0 1 3535,30.7969 L3535,1060.5 A2.5,2.5 0 0 1 3532.5,1063 L8.5,1063 A2.5,2.5 0 0 1 6,1060.5 L6,8.5 A2.5,2.5 0 0 1 8.5,6" fill="none" style="stroke:#000000;stroke-width:1.5;"/><line style="stroke:#000000;stroke-width:1.5;" x1="6" x2="37.2656" y1="28.2969" y2="28.2969"/><text fill="#000000" font-family="sans-serif" font-size="14" font-weight="bold" lengthAdjust="spacing" textLength="18.2656" x="10" y="20.9951">ch</text></g><!--cluster hslu--><g class="cluster" data-entity="hslu" data-source-line="2" data-uid="ent0004" id="cluster_hslu"><path d="M32.5,49 L66.5654,49 A3.75,3.75 0 0 1 69.0654,51.5 L76.0654,71.2969 L3508.5,71.2969 A2.5,2.5 0 0 1 3511,73.7969 L3511,1036.5 A2.5,2.5 0 0 1 3508.5,1039 L32.5,1039 A2.5,2.5 0 0 1 30,1036.5 L30,51.5 A2.5,2.5 0 0 1 32.5,49" fill="none" style="stroke:#000000;stroke-width:1.5;"/><line style="stroke:#000000;stroke-width:1.5;" x1="30" x2="76.0654" y1="71.2969" y2="71.2969"/><text fill="#000000" font-family="sans-serif" font-size="14" font-weight="bold" lengthAdjust="spacing" textLength="33.0654" x="34" y="63.9951">hslu</text></g><!--cluster cas--><g class="cluster" data-entity="cas" data-source-line="2" data-uid="ent0005" id="cluster_cas"><path d="M56.5,92 L83.5791,92 A3.75,3.75 0 0 1 86.0791,94.5 L93.0791,114.2969 L3484.5,114.2969 A2.5,2.5 0 0 1 3487,116.7969 L3487,1012.5 A2.5,2.5 0 0 1 3484.5,1015 L56.5,1015 A2.5,2.5 0 0 1 54,1012.5 L54,94.5 A2.5,2.5 0 0 1 56.5,92" fill="none" style="stroke:#000000;stroke-width:1.5;"/><line style="stroke:#000000;stroke-width:1.5;" x1="54" x2="93.0791" y1="114.2969" y2="114.2969"/><text fill="#000000" font-family="sans-serif" font-size="14" font-weight="bold" lengthAdjust="spacing" textLength="26.0791" x="58" y="106.9951">cas</text></g><!--cluster msed--><g class="cluster" data-entity="msed" data-source-line="2" data-uid="ent0006" id="cluster_msed"><path d="M80.5,135 L123.9375,135 A3.75,3.75 0 0 1 126.4375,137.5 L133.4375,157.2969 L3460.5,157.2969 A2.5,2.5 0 0 1 3463,159.7969 L3463,988.5 A2.5,2.5 0 0 1 3460.5,991 L80.5,991 A2.5,2.5 0 0 1 78,988.5 L78,137.5 A2.5,2.5 0 0 1 80.5,135" fill="none" style="stroke:#000000;stroke-width:1.5;"/><line style="stroke:#000000;stroke-width:1.5;" x1="78" x2="133.4375" y1="157.2969" y2="157.2969"/><text fill="#000000" font-family="sans-serif" font-size="14" font-weight="bold" lengthAdjust="spacing" textLength="42.4375" x="82" y="149.9951">msed</text></g><!--cluster blobfish--><g class="cluster" data-entity="blobfish" data-source-line="2" data-uid="ent0007" id="cluster_blobfish"><path d="M104.5,178 L169.1494,178 A3.75,3.75 0 0 1 171.6494,180.5 L178.6494,200.2969 L3436.5,200.2969 A2.5,2.5 0 0 1 3439,202.7969 L3439,964.5 A2.5,2.5 0 0 1 3436.5,967 L104.5,967 A2.5,2.5 0 0 1 102,964.5 L102,180.5 A2.5,2.5 0 0 1 104.5,178" fill="none" style="stroke:#000000;stroke-width:1.5;"/><line style="stroke:#000000;stroke-width:1.5;" x1="102" x2="178.6494" y1="200.2969" y2="200.2969"/><text fill="#000000" font-family="sans-serif" font-size="14" font-weight="bold" lengthAdjust="spacing" textLength="63.6494" x="106" y="192.9951">blobfish</text></g><!--cluster base--><g class="cluster" data-entity="base" data-source-line="7" data-uid="ent0009" id="cluster_base"><path d="M2570.5,614 L2608.7969,614 A3.75,3.75 0 0 1 2611.2969,616.5 L2618.2969,636.2969 L2848.5,636.2969 A2.5,2.5 0 0 1 2851,638.7969 L2851,805.5 A2.5,2.5 0 0 1 2848.5,808 L2570.5,808 A2.5,2.5 0 0 1 2568,805.5 L2568,616.5 A2.5,2.5 0 0 1 2570.5,614" fill="none" style="stroke:#000000;stroke-width:1.5;"/><line style="stroke:#000000;stroke-width:1.5;" x1="2568" x2="2618.2969" y1="636.2969" y2="636.2969"/><text fill="#000000" font-family="sans-serif" font-size="14" font-weight="bold" lengthAdjust="spacing" textLength="37.2969" x="2572" y="628.9951">base</text></g><!--cluster board--><g class="cluster" data-entity="board" data-source-line="40" data-uid="ent0014" id="cluster_board"><path d="M2877.5,571 L2924.5127,571 A3.75,3.75 0 0 1 2927.0127,573.5 L2934.0127,593.2969 L3412.5,593.2969 A2.5,2.5 0 0 1 3415,595.7969 L3415,940.5 A2.5,2.5 0 0 1 3412.5,943 L2877.5,943 A2.5,2.5 0 0 1 2875,940.5 L2875,573.5 A2.5,2.5 0 0 1 2877.5,571" fill="none" style="stroke:#000000;stroke-width:1.5;"/><line style="stroke:#000000;stroke-width:1.5;" x1="2875" x2="2934.0127" y1="593.2969" y2="593.2969"/><text fill="#000000" font-family="sans-serif" font-size="14" font-weight="bold" lengthAdjust="spacing" textLength="46.0127" x="2879" y="585.9951">board</text></g><!--cluster ui--><g class="cluster" data-entity="ui" data-source-line="51" data-uid="ent0016" id="cluster_ui"><path d="M2901.5,614 L2917.2656,614 A3.75,3.75 0 0 1 2919.7656,616.5 L2926.7656,636.2969 L3261.5,636.2969 A2.5,2.5 0 0 1 3264,638.7969 L3264,916.5 A2.5,2.5 0 0 1 3261.5,919 L2901.5,919 A2.5,2.5 0 0 1 2899,916.5 L2899,616.5 A2.5,2.5 0 0 1 2901.5,614" fill="none" style="stroke:#000000;stroke-width:1.5;"/><line style="stroke:#000000;stroke-width:1.5;" x1="2899" x2="2926.7656" y1="636.2969" y2="636.2969"/><text fill="#000000" font-family="sans-serif" font-size="14" font-weight="bold" lengthAdjust="spacing" textLength="14.7656" x="2903" y="628.9951">ui</text></g><!--cluster eval--><g class="cluster" data-entity="eval" data-source-line="73" data-uid="ent0021" id="cluster_eval"><path d="M2066.5,439 L2100.3672,439 A3.75,3.75 0 0 1 2102.8672,441.5 L2109.8672,461.2969 L2541.5,461.2969 A2.5,2.5 0 0 1 2544,463.7969 L2544,694.5 A2.5,2.5 0 0 1 2541.5,697 L2066.5,697 A2.5,2.5 0 0 1 2064,694.5 L2064,441.5 A2.5,2.5 0 0 1 2066.5,439" fill="none" style="stroke:#000000;stroke-width:1.5;"/><line style="stroke:#000000;stroke-width:1.5;" x1="2064" x2="2109.8672" y1="461.2969" y2="461.2969"/><text fill="#000000" font-family="sans-serif" font-size="14" font-weight="bold" lengthAdjust="spacing" textLength="32.8672" x="2068" y="453.9951">eval</text></g><!--cluster game--><g class="cluster" data-entity="game" data-source-line="96" data-uid="ent0026" id="cluster_game"><path d="M908.5,396 L953.0518,396 A3.75,3.75 0 0 1 955.5518,398.5 L962.5518,418.2969 L2037.5,418.2969 A2.5,2.5 0 0 1 2040,420.7969 L2040,694.5 A2.5,2.5 0 0 1 2037.5,697 L908.5,697 A2.5,2.5 0 0 1 906,694.5 L906,398.5 A2.5,2.5 0 0 1 908.5,396" fill="none" style="stroke:#000000;stroke-width:1.5;"/><line style="stroke:#000000;stroke-width:1.5;" x1="906" x2="962.5518" y1="418.2969" y2="418.2969"/><text fill="#000000" font-family="sans-serif" font-size="14" font-weight="bold" lengthAdjust="spacing" textLength="43.5518" x="910" y="410.9951">game</text></g><!--cluster exceptions--><g class="cluster" data-entity="exceptions" data-source-line="129" data-uid="ent0031" id="cluster_exceptions"><path d="M1551.5,439 L1638.25,439 A3.75,3.75 0 0 1 1640.75,441.5 L1647.75,461.2969 L2013.5,461.2969 A2.5,2.5 0 0 1 2016,463.7969 L2016,519.5 A2.5,2.5 0 0 1 2013.5,522 L1551.5,522 A2.5,2.5 0 0 1 1549,519.5 L1549,441.5 A2.5,2.5 0 0 1 1551.5,439" fill="none" style="stroke:#000000;stroke-width:1.5;"/><line style="stroke:#000000;stroke-width:1.5;" x1="1549" x2="1647.75" y1="461.2969" y2="461.2969"/><text fill="#000000" font-family="sans-serif" font-size="14" font-weight="bold" lengthAdjust="spacing" textLength="85.75" x="1553" y="453.9951">exceptions</text></g><!--cluster screen--><g class="cluster" data-entity="screen" data-source-line="137" data-uid="ent0034" id="cluster_screen"><path d="M1214.5,439 L1267.9932,439 A3.75,3.75 0 0 1 1270.4932,441.5 L1277.4932,461.2969 L1522.5,461.2969 A2.5,2.5 0 0 1 1525,463.7969 L1525,519.5 A2.5,2.5 0 0 1 1522.5,522 L1214.5,522 A2.5,2.5 0 0 1 1212,519.5 L1212,441.5 A2.5,2.5 0 0 1 1214.5,439" fill="none" style="stroke:#000000;stroke-width:1.5;"/><line style="stroke:#000000;stroke-width:1.5;" x1="1212" x2="1277.4932" y1="461.2969" y2="461.2969"/><text fill="#000000" font-family="sans-serif" font-size="14" font-weight="bold" lengthAdjust="spacing" textLength="52.4932" x="1216" y="453.9951">screen</text></g><!--cluster player--><g class="cluster" data-entity="player" data-source-line="151" data-uid="ent0037" id="cluster_player"><path d="M202.5,221 L253.293,221 A3.75,3.75 0 0 1 255.793,223.5 L262.793,243.2969 L879.5,243.2969 A2.5,2.5 0 0 1 882,245.7969 L882,694.5 A2.5,2.5 0 0 1 879.5,697 L202.5,697 A2.5,2.5 0 0 1 200,694.5 L200,223.5 A2.5,2.5 0 0 1 202.5,221" fill="none" style="stroke:#000000;stroke-width:1.5;"/><line style="stroke:#000000;stroke-width:1.5;" x1="200" x2="262.793" y1="243.2969" y2="243.2969"/><text fill="#000000" font-family="sans-serif" font-size="14" font-weight="bold" lengthAdjust="spacing" textLength="49.793" x="204" y="235.9951">player</text></g><!--cluster bot--><g class="cluster" data-entity="bot" data-source-line="161" data-uid="ent0040" id="cluster_bot"><path d="M466.5,264 L493.832,264 A3.75,3.75 0 0 1 496.332,266.5 L503.332,286.2969 L718.5,286.2969 A2.5,2.5 0 0 1 721,288.7969 L721,519.5 A2.5,2.5 0 0 1 718.5,522 L466.5,522 A2.5,2.5 0 0 1 464,519.5 L464,266.5 A2.5,2.5 0 0 1 466.5,264" fill="none" style="stroke:#000000;stroke-width:1.5;"/><line style="stroke:#000000;stroke-width:1.5;" x1="464" x2="503.332" y1="286.2969" y2="286.2969"/><text fill="#000000" font-family="sans-serif" font-size="14" font-weight="bold" lengthAdjust="spacing" textLength="26.332" x="468" y="278.9951">bot</text></g><!--cluster exceptions--><g class="cluster" data-entity="exceptions" data-source-line="179" data-uid="ent0044" id="cluster_exceptions"><path d="M226.5,264 L313.25,264 A3.75,3.75 0 0 1 315.75,266.5 L322.75,286.2969 L437.5,286.2969 A2.5,2.5 0 0 1 440,288.7969 L440,344.5 A2.5,2.5 0 0 1 437.5,347 L226.5,347 A2.5,2.5 0 0 1 224,344.5 L224,266.5 A2.5,2.5 0 0 1 226.5,264" fill="none" style="stroke:#000000;stroke-width:1.5;"/><line style="stroke:#000000;stroke-width:1.5;" x1="224" x2="322.75" y1="286.2969" y2="286.2969"/><text fill="#000000" font-family="sans-serif" font-size="14" font-weight="bold" lengthAdjust="spacing" textLength="85.75" x="228" y="278.9951">exceptions</text></g><!--class Main--><g class="entity" data-entity="Main" data-source-line="2" data-uid="ent0002" id="entity_Main"><rect fill="#F1F1F1" height="32" rx="2.5" ry="2.5" style="stroke:#181818;stroke-width:0.5;" width="65.4209" x="118.5" y="299"/><ellipse cx="133.5" cy="315" fill="#ADD1B2" rx="11" ry="11" style="stroke:#181818;stroke-width:1;"/><path d="M136.4688,320.6406 Q135.8906,320.9375 135.25,321.0781 Q134.6094,321.2344 133.9063,321.2344 Q131.4063,321.2344 130.0781,319.5938 Q128.7656,317.9375 128.7656,314.8125 Q128.7656,311.6875 130.0781,310.0313 Q131.4063,308.375 133.9063,308.375 Q134.6094,308.375 135.25,308.5313 Q135.9063,308.6875 136.4688,308.9844 L136.4688,311.7031 Q135.8438,311.125 135.25,310.8594 Q134.6563,310.5781 134.0313,310.5781 Q132.6875,310.5781 132,311.6563 Q131.3125,312.7188 131.3125,314.8125 Q131.3125,316.9063 132,317.9844 Q132.6875,319.0469 134.0313,319.0469 Q134.6563,319.0469 135.25,318.7813 Q135.8438,318.5 136.4688,317.9219 L136.4688,320.6406 Z " fill="#000000"/><text fill="#000000" font-family="sans-serif" font-size="14" lengthAdjust="spacing" textLength="33.4209" x="147.5" y="319.8467">Main</text></g><!--class FenUtil--><g class="entity" data-entity="FenUtil" data-source-line="7" data-uid="ent0008" id="entity_FenUtil"><rect fill="#F1F1F1" height="32" rx="2.5" ry="2.5" style="stroke:#181818;stroke-width:0.5;" width="81.0547" x="2747.5" y="649"/><ellipse cx="2762.5" cy="665" fill="#ADD1B2" rx="11" ry="11" style="stroke:#181818;stroke-width:1;"/><path d="M2765.4688,670.6406 Q2764.8906,670.9375 2764.25,671.0781 Q2763.6094,671.2344 2762.9063,671.2344 Q2760.4063,671.2344 2759.0781,669.5938 Q2757.7656,667.9375 2757.7656,664.8125 Q2757.7656,661.6875 2759.0781,660.0313 Q2760.4063,658.375 2762.9063,658.375 Q2763.6094,658.375 2764.25,658.5313 Q2764.9063,658.6875 2765.4688,658.9844 L2765.4688,661.7031 Q2764.8438,661.125 2764.25,660.8594 Q2763.6563,660.5781 2763.0313,660.5781 Q2761.6875,660.5781 2761,661.6563 Q2760.3125,662.7188 2760.3125,664.8125 Q2760.3125,666.9063 2761,667.9844 Q2761.6875,669.0469 2763.0313,669.0469 Q2763.6563,669.0469 2764.25,668.7813 Q2764.8438,668.5 2765.4688,667.9219 L2765.4688,670.6406 Z " fill="#000000"/><text fill="#000000" font-family="sans-serif" font-size="14" lengthAdjust="spacing" textLength="49.0547" x="2776.5" y="669.8467">FenUtil</text></g><!--class Piece--><g class="entity" data-entity="Piece" data-source-line="13" data-uid="ent0010" id="entity_Piece"><rect fill="#F1F1F1" height="32" rx="2.5" ry="2.5" style="stroke:#181818;stroke-width:0.5;" width="69.2559" x="2621.5" y="649"/><ellipse cx="2636.5" cy="665" fill="#ADD1B2" rx="11" ry="11" style="stroke:#181818;stroke-width:1;"/><path d="M2639.4688,670.6406 Q2638.8906,670.9375 2638.25,671.0781 Q2637.6094,671.2344 2636.9063,671.2344 Q2634.4063,671.2344 2633.0781,669.5938 Q2631.7656,667.9375 2631.7656,664.8125 Q2631.7656,661.6875 2633.0781,660.0313 Q2634.4063,658.375 2636.9063,658.375 Q2637.6094,658.375 2638.25,658.5313 Q2638.9063,658.6875 2639.4688,658.9844 L2639.4688,661.7031 Q2638.8438,661.125 2638.25,660.8594 Q2637.6563,660.5781 2637.0313,660.5781 Q2635.6875,660.5781 2635,661.6563 Q2634.3125,662.7188 2634.3125,664.8125 Q2634.3125,666.9063 2635,667.9844 Q2635.6875,669.0469 2637.0313,669.0469 Q2637.6563,669.0469 2638.25,668.7813 Q2638.8438,668.5 2639.4688,667.9219 L2639.4688,670.6406 Z " fill="#000000"/><text fill="#000000" font-family="sans-serif" font-size="14" lengthAdjust="spacing" textLength="37.2559" x="2650.5" y="669.8467">Piece</text></g><!--class PieceType--><g class="entity" data-entity="PieceType" data-source-line="24" data-uid="ent0011" id="entity_PieceType"><rect fill="#F1F1F1" height="32" rx="2.5" ry="2.5" style="stroke:#181818;stroke-width:0.5;" width="103.5928" x="2731" y="760"/><ellipse cx="2746" cy="776" fill="#EB937F" rx="11" ry="11" style="stroke:#181818;stroke-width:1;"/><path d="M2750.1094,782 L2742.3906,782 L2742.3906,769.6094 L2750.1094,769.6094 L2750.1094,771.7656 L2744.8438,771.7656 L2744.8438,774.4375 L2749.6094,774.4375 L2749.6094,776.5938 L2744.8438,776.5938 L2744.8438,779.8438 L2750.1094,779.8438 L2750.1094,782 Z " fill="#000000"/><text fill="#000000" font-family="sans-serif" font-size="14" lengthAdjust="spacing" textLength="71.5928" x="2760" y="780.8467">PieceType</text></g><!--class PlayerColor--><g class="entity" data-entity="PlayerColor" data-source-line="34" data-uid="ent0012" id="entity_PlayerColor"><rect fill="#F1F1F1" height="32" rx="2.5" ry="2.5" style="stroke:#181818;stroke-width:0.5;" width="112.1172" x="2584" y="760"/><ellipse cx="2599" cy="776" fill="#EB937F" rx="11" ry="11" style="stroke:#181818;stroke-width:1;"/><path d="M2603.1094,782 L2595.3906,782 L2595.3906,769.6094 L2603.1094,769.6094 L2603.1094,771.7656 L2597.8438,771.7656 L2597.8438,774.4375 L2602.6094,774.4375 L2602.6094,776.5938 L2597.8438,776.5938 L2597.8438,779.8438 L2603.1094,779.8438 L2603.1094,782 Z " fill="#000000"/><text fill="#000000" font-family="sans-serif" font-size="14" lengthAdjust="spacing" textLength="80.1172" x="2613" y="780.8467">PlayerColor</text></g><!--class ChessBoard--><g class="entity" data-entity="ChessBoard" data-source-line="40" data-uid="ent0013" id="entity_ChessBoard"><rect fill="#F1F1F1" height="32" rx="2.5" ry="2.5" style="stroke:#181818;stroke-width:0.5;" width="115.2412" x="3283.5" y="649"/><ellipse cx="3298.5" cy="665" fill="#ADD1B2" rx="11" ry="11" style="stroke:#181818;stroke-width:1;"/><path d="M3301.4688,670.6406 Q3300.8906,670.9375 3300.25,671.0781 Q3299.6094,671.2344 3298.9063,671.2344 Q3296.4063,671.2344 3295.0781,669.5938 Q3293.7656,667.9375 3293.7656,664.8125 Q3293.7656,661.6875 3295.0781,660.0313 Q3296.4063,658.375 3298.9063,658.375 Q3299.6094,658.375 3300.25,658.5313 Q3300.9063,658.6875 3301.4688,658.9844 L3301.4688,661.7031 Q3300.8438,661.125 3300.25,660.8594 Q3299.6563,660.5781 3299.0313,660.5781 Q3297.6875,660.5781 3297,661.6563 Q3296.3125,662.7188 3296.3125,664.8125 Q3296.3125,666.9063 3297,667.9844 Q3297.6875,669.0469 3299.0313,669.0469 Q3299.6563,669.0469 3300.25,668.7813 Q3300.8438,668.5 3301.4688,667.9219 L3301.4688,670.6406 Z " fill="#000000"/><text fill="#000000" font-family="sans-serif" font-size="14" lengthAdjust="spacing" textLength="83.2412" x="3312.5" y="669.8467">ChessBoard</text></g><!--class BoardRenderer--><g class="entity" data-entity="BoardRenderer" data-source-line="51" data-uid="ent0015" id="entity_BoardRenderer"><rect fill="#F1F1F1" height="32" rx="2.5" ry="2.5" style="stroke:#181818;stroke-width:0.5;" width="138.2305" x="3080" y="760"/><ellipse cx="3095" cy="776" fill="#ADD1B2" rx="11" ry="11" style="stroke:#181818;stroke-width:1;"/><path d="M3097.9688,781.6406 Q3097.3906,781.9375 3096.75,782.0781 Q3096.1094,782.2344 3095.4063,782.2344 Q3092.9063,782.2344 3091.5781,780.5938 Q3090.2656,778.9375 3090.2656,775.8125 Q3090.2656,772.6875 3091.5781,771.0313 Q3092.9063,769.375 3095.4063,769.375 Q3096.1094,769.375 3096.75,769.5313 Q3097.4063,769.6875 3097.9688,769.9844 L3097.9688,772.7031 Q3097.3438,772.125 3096.75,771.8594 Q3096.1563,771.5781 3095.5313,771.5781 Q3094.1875,771.5781 3093.5,772.6563 Q3092.8125,773.7188 3092.8125,775.8125 Q3092.8125,777.9063 3093.5,778.9844 Q3094.1875,780.0469 3095.5313,780.0469 Q3096.1563,780.0469 3096.75,779.7813 Q3097.3438,779.5 3097.9688,778.9219 L3097.9688,781.6406 Z " fill="#000000"/><text fill="#000000" font-family="sans-serif" font-size="14" lengthAdjust="spacing" textLength="106.2305" x="3109" y="780.8467">BoardRenderer</text></g><!--class ChessBoardRenderer--><g class="entity" data-entity="ChessBoardRenderer" data-source-line="56" data-uid="ent0017" id="entity_ChessBoardRenderer"><rect fill="#F1F1F1" height="32" rx="2.5" ry="2.5" style="stroke:#181818;stroke-width:0.5;" width="180.0801" x="3068" y="649"/><ellipse cx="3083" cy="665" fill="#ADD1B2" rx="11" ry="11" style="stroke:#181818;stroke-width:1;"/><path d="M3085.9688,670.6406 Q3085.3906,670.9375 3084.75,671.0781 Q3084.1094,671.2344 3083.4063,671.2344 Q3080.9063,671.2344 3079.5781,669.5938 Q3078.2656,667.9375 3078.2656,664.8125 Q3078.2656,661.6875 3079.5781,660.0313 Q3080.9063,658.375 3083.4063,658.375 Q3084.1094,658.375 3084.75,658.5313 Q3085.4063,658.6875 3085.9688,658.9844 L3085.9688,661.7031 Q3085.3438,661.125 3084.75,660.8594 Q3084.1563,660.5781 3083.5313,660.5781 Q3082.1875,660.5781 3081.5,661.6563 Q3080.8125,662.7188 3080.8125,664.8125 Q3080.8125,666.9063 3081.5,667.9844 Q3082.1875,669.0469 3083.5313,669.0469 Q3084.1563,669.0469 3084.75,668.7813 Q3085.3438,668.5 3085.9688,667.9219 L3085.9688,670.6406 Z " fill="#000000"/><text fill="#000000" font-family="sans-serif" font-size="14" lengthAdjust="spacing" textLength="148.0801" x="3097" y="669.8467">ChessBoardRenderer</text></g><!--class FieldRenderer--><g class="entity" data-entity="FieldRenderer" data-source-line="62" data-uid="ent0018" id="entity_FieldRenderer"><rect fill="#F1F1F1" height="32" rx="2.5" ry="2.5" style="stroke:#181818;stroke-width:0.5;" width="130.1709" x="3084" y="871"/><ellipse cx="3099" cy="887" fill="#B4A7E5" rx="11" ry="11" style="stroke:#181818;stroke-width:1;"/><path d="M3094.9219,882.7656 L3094.9219,880.6094 L3102.3125,880.6094 L3102.3125,882.7656 L3099.8438,882.7656 L3099.8438,890.8438 L3102.3125,890.8438 L3102.3125,893 L3094.9219,893 L3094.9219,890.8438 L3097.3906,890.8438 L3097.3906,882.7656 L3094.9219,882.7656 Z " fill="#000000"/><text fill="#000000" font-family="sans-serif" font-size="14" font-style="italic" lengthAdjust="spacing" textLength="98.1709" x="3113" y="891.8467">FieldRenderer</text></g><!--class SquareColor--><g class="entity" data-entity="SquareColor" data-source-line="67" data-uid="ent0019" id="entity_SquareColor"><rect fill="#F1F1F1" height="32" rx="2.5" ry="2.5" style="stroke:#181818;stroke-width:0.5;" width="118.1465" x="2915" y="649"/><ellipse cx="2930" cy="665" fill="#EB937F" rx="11" ry="11" style="stroke:#181818;stroke-width:1;"/><path d="M2934.1094,671 L2926.3906,671 L2926.3906,658.6094 L2934.1094,658.6094 L2934.1094,660.7656 L2928.8438,660.7656 L2928.8438,663.4375 L2933.6094,663.4375 L2933.6094,665.5938 L2928.8438,665.5938 L2928.8438,668.8438 L2934.1094,668.8438 L2934.1094,671 Z " fill="#000000"/><text fill="#000000" font-family="sans-serif" font-size="14" lengthAdjust="spacing" textLength="86.1465" x="2944" y="669.8467">SquareColor</text></g><!--class EvalStrategy--><g class="entity" data-entity="EvalStrategy" data-source-line="73" data-uid="ent0020" id="entity_EvalStrategy"><rect fill="#F1F1F1" height="32" rx="2.5" ry="2.5" style="stroke:#181818;stroke-width:0.5;" width="121.585" x="2233" y="649"/><ellipse cx="2248" cy="665" fill="#B4A7E5" rx="11" ry="11" style="stroke:#181818;stroke-width:1;"/><path d="M2243.9219,660.7656 L2243.9219,658.6094 L2251.3125,658.6094 L2251.3125,660.7656 L2248.8438,660.7656 L2248.8438,668.8438 L2251.3125,668.8438 L2251.3125,671 L2243.9219,671 L2243.9219,668.8438 L2246.3906,668.8438 L2246.3906,660.7656 L2243.9219,660.7656 Z " fill="#000000"/><text fill="#000000" font-family="sans-serif" font-size="14" font-style="italic" lengthAdjust="spacing" textLength="89.585" x="2262" y="669.8467">EvalStrategy</text></g><!--class MateAwareEval--><g class="entity" data-entity="MateAwareEval" data-source-line="78" data-uid="ent0022" id="entity_MateAwareEval"><rect fill="#F1F1F1" height="32" rx="2.5" ry="2.5" style="stroke:#181818;stroke-width:0.5;" width="140.3359" x="2388" y="474"/><ellipse cx="2403" cy="490" fill="#ADD1B2" rx="11" ry="11" style="stroke:#181818;stroke-width:1;"/><path d="M2405.9688,495.6406 Q2405.3906,495.9375 2404.75,496.0781 Q2404.1094,496.2344 2403.4063,496.2344 Q2400.9063,496.2344 2399.5781,494.5938 Q2398.2656,492.9375 2398.2656,489.8125 Q2398.2656,486.6875 2399.5781,485.0313 Q2400.9063,483.375 2403.4063,483.375 Q2404.1094,483.375 2404.75,483.5313 Q2405.4063,483.6875 2405.9688,483.9844 L2405.9688,486.7031 Q2405.3438,486.125 2404.75,485.8594 Q2404.1563,485.5781 2403.5313,485.5781 Q2402.1875,485.5781 2401.5,486.6563 Q2400.8125,487.7188 2400.8125,489.8125 Q2400.8125,491.9063 2401.5,492.9844 Q2402.1875,494.0469 2403.5313,494.0469 Q2404.1563,494.0469 2404.75,493.7813 Q2405.3438,493.5 2405.9688,492.9219 L2405.9688,495.6406 Z " fill="#000000"/><text fill="#000000" font-family="sans-serif" font-size="14" lengthAdjust="spacing" textLength="108.3359" x="2417" y="494.8467">MateAwareEval</text></g><!--class MaterialEval--><g class="entity" data-entity="MaterialEval" data-source-line="84" data-uid="ent0023" id="entity_MaterialEval"><rect fill="#F1F1F1" height="32" rx="2.5" ry="2.5" style="stroke:#181818;stroke-width:0.5;" width="118.4746" x="2235" y="474"/><ellipse cx="2250" cy="490" fill="#ADD1B2" rx="11" ry="11" style="stroke:#181818;stroke-width:1;"/><path d="M2252.9688,495.6406 Q2252.3906,495.9375 2251.75,496.0781 Q2251.1094,496.2344 2250.4063,496.2344 Q2247.9063,496.2344 2246.5781,494.5938 Q2245.2656,492.9375 2245.2656,489.8125 Q2245.2656,486.6875 2246.5781,485.0313 Q2247.9063,483.375 2250.4063,483.375 Q2251.1094,483.375 2251.75,483.5313 Q2252.4063,483.6875 2252.9688,483.9844 L2252.9688,486.7031 Q2252.3438,486.125 2251.75,485.8594 Q2251.1563,485.5781 2250.5313,485.5781 Q2249.1875,485.5781 2248.5,486.6563 Q2247.8125,487.7188 2247.8125,489.8125 Q2247.8125,491.9063 2248.5,492.9844 Q2249.1875,494.0469 2250.5313,494.0469 Q2251.1563,494.0469 2251.75,493.7813 Q2252.3438,493.5 2252.9688,492.9219 L2252.9688,495.6406 Z " fill="#000000"/><text fill="#000000" font-family="sans-serif" font-size="14" lengthAdjust="spacing" textLength="86.4746" x="2264" y="494.8467">MaterialEval</text></g><!--class RandomEval--><g class="entity" data-entity="RandomEval" data-source-line="91" data-uid="ent0024" id="entity_RandomEval"><rect fill="#F1F1F1" height="32" rx="2.5" ry="2.5" style="stroke:#181818;stroke-width:0.5;" width="119.8691" x="2080" y="474"/><ellipse cx="2095" cy="490" fill="#ADD1B2" rx="11" ry="11" style="stroke:#181818;stroke-width:1;"/><path d="M2097.9688,495.6406 Q2097.3906,495.9375 2096.75,496.0781 Q2096.1094,496.2344 2095.4063,496.2344 Q2092.9063,496.2344 2091.5781,494.5938 Q2090.2656,492.9375 2090.2656,489.8125 Q2090.2656,486.6875 2091.5781,485.0313 Q2092.9063,483.375 2095.4063,483.375 Q2096.1094,483.375 2096.75,483.5313 Q2097.4063,483.6875 2097.9688,483.9844 L2097.9688,486.7031 Q2097.3438,486.125 2096.75,485.8594 Q2096.1563,485.5781 2095.5313,485.5781 Q2094.1875,485.5781 2093.5,486.6563 Q2092.8125,487.7188 2092.8125,489.8125 Q2092.8125,491.9063 2093.5,492.9844 Q2094.1875,494.0469 2095.5313,494.0469 Q2096.1563,494.0469 2096.75,493.7813 Q2097.3438,493.5 2097.9688,492.9219 L2097.9688,495.6406 Z " fill="#000000"/><text fill="#000000" font-family="sans-serif" font-size="14" lengthAdjust="spacing" textLength="87.8691" x="2109" y="494.8467">RandomEval</text></g><!--class ChessGame--><g class="entity" data-entity="ChessGame" data-source-line="96" data-uid="ent0025" id="entity_ChessGame"><rect fill="#F1F1F1" height="32" rx="2.5" ry="2.5" style="stroke:#181818;stroke-width:0.5;" width="115.5283" x="1077" y="474"/><ellipse cx="1092" cy="490" fill="#ADD1B2" rx="11" ry="11" style="stroke:#181818;stroke-width:1;"/><path d="M1094.9688,495.6406 Q1094.3906,495.9375 1093.75,496.0781 Q1093.1094,496.2344 1092.4063,496.2344 Q1089.9063,496.2344 1088.5781,494.5938 Q1087.2656,492.9375 1087.2656,489.8125 Q1087.2656,486.6875 1088.5781,485.0313 Q1089.9063,483.375 1092.4063,483.375 Q1093.1094,483.375 1093.75,483.5313 Q1094.4063,483.6875 1094.9688,483.9844 L1094.9688,486.7031 Q1094.3438,486.125 1093.75,485.8594 Q1093.1563,485.5781 1092.5313,485.5781 Q1091.1875,485.5781 1090.5,486.6563 Q1089.8125,487.7188 1089.8125,489.8125 Q1089.8125,491.9063 1090.5,492.9844 Q1091.1875,494.0469 1092.5313,494.0469 Q1093.1563,494.0469 1093.75,493.7813 Q1094.3438,493.5 1094.9688,492.9219 L1094.9688,495.6406 Z " fill="#000000"/><text fill="#000000" font-family="sans-serif" font-size="14" lengthAdjust="spacing" textLength="83.5283" x="1106" y="494.8467">ChessGame</text></g><!--class InputReader--><g class="entity" data-entity="InputReader" data-source-line="104" data-uid="ent0027" id="entity_InputReader"><rect fill="#F1F1F1" height="32" rx="2.5" ry="2.5" style="stroke:#181818;stroke-width:0.5;" width="118.4268" x="1034" y="649"/><ellipse cx="1049" cy="665" fill="#ADD1B2" rx="11" ry="11" style="stroke:#181818;stroke-width:1;"/><path d="M1051.9688,670.6406 Q1051.3906,670.9375 1050.75,671.0781 Q1050.1094,671.2344 1049.4063,671.2344 Q1046.9063,671.2344 1045.5781,669.5938 Q1044.2656,667.9375 1044.2656,664.8125 Q1044.2656,661.6875 1045.5781,660.0313 Q1046.9063,658.375 1049.4063,658.375 Q1050.1094,658.375 1050.75,658.5313 Q1051.4063,658.6875 1051.9688,658.9844 L1051.9688,661.7031 Q1051.3438,661.125 1050.75,660.8594 Q1050.1563,660.5781 1049.5313,660.5781 Q1048.1875,660.5781 1047.5,661.6563 Q1046.8125,662.7188 1046.8125,664.8125 Q1046.8125,666.9063 1047.5,667.9844 Q1048.1875,669.0469 1049.5313,669.0469 Q1050.1563,669.0469 1050.75,668.7813 Q1051.3438,668.5 1051.9688,667.9219 L1051.9688,670.6406 Z " fill="#000000"/><text fill="#000000" font-family="sans-serif" font-size="14" lengthAdjust="spacing" textLength="86.4268" x="1063" y="669.8467">InputReader</text></g><!--class MatchConfig--><g class="entity" data-entity="MatchConfig" data-source-line="110" data-uid="ent0028" id="entity_MatchConfig"><rect fill="#F1F1F1" height="32" rx="2.5" ry="2.5" style="stroke:#181818;stroke-width:0.5;" width="119.6367" x="922" y="474"/><ellipse cx="937" cy="490" fill="#ADD1B2" rx="11" ry="11" style="stroke:#181818;stroke-width:1;"/><path d="M939.9688,495.6406 Q939.3906,495.9375 938.75,496.0781 Q938.1094,496.2344 937.4063,496.2344 Q934.9063,496.2344 933.5781,494.5938 Q932.2656,492.9375 932.2656,489.8125 Q932.2656,486.6875 933.5781,485.0313 Q934.9063,483.375 937.4063,483.375 Q938.1094,483.375 938.75,483.5313 Q939.4063,483.6875 939.9688,483.9844 L939.9688,486.7031 Q939.3438,486.125 938.75,485.8594 Q938.1563,485.5781 937.5313,485.5781 Q936.1875,485.5781 935.5,486.6563 Q934.8125,487.7188 934.8125,489.8125 Q934.8125,491.9063 935.5,492.9844 Q936.1875,494.0469 937.5313,494.0469 Q938.1563,494.0469 938.75,493.7813 Q939.3438,493.5 939.9688,492.9219 L939.9688,495.6406 Z " fill="#000000"/><text fill="#000000" font-family="sans-serif" font-size="14" lengthAdjust="spacing" textLength="87.6367" x="951" y="494.8467">MatchConfig</text></g><!--class OutputWriter--><g class="entity" data-entity="OutputWriter" data-source-line="119" data-uid="ent0029" id="entity_OutputWriter"><rect fill="#F1F1F1" height="32" rx="2.5" ry="2.5" style="stroke:#181818;stroke-width:0.5;" width="123.9775" x="1307" y="649"/><ellipse cx="1322" cy="665" fill="#ADD1B2" rx="11" ry="11" style="stroke:#181818;stroke-width:1;"/><path d="M1324.9688,670.6406 Q1324.3906,670.9375 1323.75,671.0781 Q1323.1094,671.2344 1322.4063,671.2344 Q1319.9063,671.2344 1318.5781,669.5938 Q1317.2656,667.9375 1317.2656,664.8125 Q1317.2656,661.6875 1318.5781,660.0313 Q1319.9063,658.375 1322.4063,658.375 Q1323.1094,658.375 1323.75,658.5313 Q1324.4063,658.6875 1324.9688,658.9844 L1324.9688,661.7031 Q1324.3438,661.125 1323.75,660.8594 Q1323.1563,660.5781 1322.5313,660.5781 Q1321.1875,660.5781 1320.5,661.6563 Q1319.8125,662.7188 1319.8125,664.8125 Q1319.8125,666.9063 1320.5,667.9844 Q1321.1875,669.0469 1322.5313,669.0469 Q1323.1563,669.0469 1323.75,668.7813 Q1324.3438,668.5 1324.9688,667.9219 L1324.9688,670.6406 Z " fill="#000000"/><text fill="#000000" font-family="sans-serif" font-size="14" lengthAdjust="spacing" textLength="91.9775" x="1336" y="669.8467">OutputWriter</text></g><!--class GameAbortedException--><g class="entity" data-entity="GameAbortedException" data-source-line="129" data-uid="ent0030" id="entity_GameAbortedException"><rect fill="#F1F1F1" height="32" rx="2.5" ry="2.5" style="stroke:#181818;stroke-width:0.5;" width="198.5986" x="1800.5" y="474"/><ellipse cx="1815.5" cy="490" fill="#ADD1B2" rx="11" ry="11" style="stroke:#181818;stroke-width:1;"/><path d="M1818.4688,495.6406 Q1817.8906,495.9375 1817.25,496.0781 Q1816.6094,496.2344 1815.9063,496.2344 Q1813.4063,496.2344 1812.0781,494.5938 Q1810.7656,492.9375 1810.7656,489.8125 Q1810.7656,486.6875 1812.0781,485.0313 Q1813.4063,483.375 1815.9063,483.375 Q1816.6094,483.375 1817.25,483.5313 Q1817.9063,483.6875 1818.4688,483.9844 L1818.4688,486.7031 Q1817.8438,486.125 1817.25,485.8594 Q1816.6563,485.5781 1816.0313,485.5781 Q1814.6875,485.5781 1814,486.6563 Q1813.3125,487.7188 1813.3125,489.8125 Q1813.3125,491.9063 1814,492.9844 Q1814.6875,494.0469 1816.0313,494.0469 Q1816.6563,494.0469 1817.25,493.7813 Q1817.8438,493.5 1818.4688,492.9219 L1818.4688,495.6406 Z " fill="#000000"/><text fill="#000000" font-family="sans-serif" font-size="14" lengthAdjust="spacing" textLength="166.5986" x="1829.5" y="494.8467">GameAbortedException</text></g><!--class MatchAbortedException--><g class="entity" data-entity="MatchAbortedException" data-source-line="133" data-uid="ent0032" id="entity_MatchAbortedException"><rect fill="#F1F1F1" height="32" rx="2.5" ry="2.5" style="stroke:#181818;stroke-width:0.5;" width="199.6377" x="1565" y="474"/><ellipse cx="1580" cy="490" fill="#ADD1B2" rx="11" ry="11" style="stroke:#181818;stroke-width:1;"/><path d="M1582.9688,495.6406 Q1582.3906,495.9375 1581.75,496.0781 Q1581.1094,496.2344 1580.4063,496.2344 Q1577.9063,496.2344 1576.5781,494.5938 Q1575.2656,492.9375 1575.2656,489.8125 Q1575.2656,486.6875 1576.5781,485.0313 Q1577.9063,483.375 1580.4063,483.375 Q1581.1094,483.375 1581.75,483.5313 Q1582.4063,483.6875 1582.9688,483.9844 L1582.9688,486.7031 Q1582.3438,486.125 1581.75,485.8594 Q1581.1563,485.5781 1580.5313,485.5781 Q1579.1875,485.5781 1578.5,486.6563 Q1577.8125,487.7188 1577.8125,489.8125 Q1577.8125,491.9063 1578.5,492.9844 Q1579.1875,494.0469 1580.5313,494.0469 Q1581.1563,494.0469 1581.75,493.7813 Q1582.3438,493.5 1582.9688,492.9219 L1582.9688,495.6406 Z " fill="#000000"/><text fill="#000000" font-family="sans-serif" font-size="14" lengthAdjust="spacing" textLength="167.6377" x="1594" y="494.8467">MatchAbortedException</text></g><!--class HomeScreen--><g class="entity" data-entity="HomeScreen" data-source-line="137" data-uid="ent0033" id="entity_HomeScreen"><rect fill="#F1F1F1" height="32" rx="2.5" ry="2.5" style="stroke:#181818;stroke-width:0.5;" width="121.7832" x="1387" y="474"/><ellipse cx="1402" cy="490" fill="#ADD1B2" rx="11" ry="11" style="stroke:#181818;stroke-width:1;"/><path d="M1404.9688,495.6406 Q1404.3906,495.9375 1403.75,496.0781 Q1403.1094,496.2344 1402.4063,496.2344 Q1399.9063,496.2344 1398.5781,494.5938 Q1397.2656,492.9375 1397.2656,489.8125 Q1397.2656,486.6875 1398.5781,485.0313 Q1399.9063,483.375 1402.4063,483.375 Q1403.1094,483.375 1403.75,483.5313 Q1404.4063,483.6875 1404.9688,483.9844 L1404.9688,486.7031 Q1404.3438,486.125 1403.75,485.8594 Q1403.1563,485.5781 1402.5313,485.5781 Q1401.1875,485.5781 1400.5,486.6563 Q1399.8125,487.7188 1399.8125,489.8125 Q1399.8125,491.9063 1400.5,492.9844 Q1401.1875,494.0469 1402.5313,494.0469 Q1403.1563,494.0469 1403.75,493.7813 Q1404.3438,493.5 1404.9688,492.9219 L1404.9688,495.6406 Z " fill="#000000"/><text fill="#000000" font-family="sans-serif" font-size="14" lengthAdjust="spacing" textLength="89.7832" x="1416" y="494.8467">HomeScreen</text></g><!--class MatchScreen--><g class="entity" data-entity="MatchScreen" data-source-line="143" data-uid="ent0035" id="entity_MatchScreen"><rect fill="#F1F1F1" height="32" rx="2.5" ry="2.5" style="stroke:#181818;stroke-width:0.5;" width="123.1572" x="1228.5" y="474"/><ellipse cx="1243.5" cy="490" fill="#ADD1B2" rx="11" ry="11" style="stroke:#181818;stroke-width:1;"/><path d="M1246.4688,495.6406 Q1245.8906,495.9375 1245.25,496.0781 Q1244.6094,496.2344 1243.9063,496.2344 Q1241.4063,496.2344 1240.0781,494.5938 Q1238.7656,492.9375 1238.7656,489.8125 Q1238.7656,486.6875 1240.0781,485.0313 Q1241.4063,483.375 1243.9063,483.375 Q1244.6094,483.375 1245.25,483.5313 Q1245.9063,483.6875 1246.4688,483.9844 L1246.4688,486.7031 Q1245.8438,486.125 1245.25,485.8594 Q1244.6563,485.5781 1244.0313,485.5781 Q1242.6875,485.5781 1242,486.6563 Q1241.3125,487.7188 1241.3125,489.8125 Q1241.3125,491.9063 1242,492.9844 Q1242.6875,494.0469 1244.0313,494.0469 Q1244.6563,494.0469 1245.25,493.7813 Q1245.8438,493.5 1246.4688,492.9219 L1246.4688,495.6406 Z " fill="#000000"/><text fill="#000000" font-family="sans-serif" font-size="14" lengthAdjust="spacing" textLength="91.1572" x="1257.5" y="494.8467">MatchScreen</text></g><!--class AbstractPlayer--><g class="entity" data-entity="AbstractPlayer" data-source-line="151" data-uid="ent0036" id="entity_AbstractPlayer"><rect fill="#F1F1F1" height="32" rx="2.5" ry="2.5" style="stroke:#181818;stroke-width:0.5;" width="134.334" x="371" y="649"/><ellipse cx="386" cy="665" fill="#A9DCDF" rx="11" ry="11" style="stroke:#181818;stroke-width:1;"/><path d="M386.1094,660.3438 L384.9531,665.4219 L387.2813,665.4219 L386.1094,660.3438 Z M384.625,658.1094 L387.6094,658.1094 L390.9688,670.5 L388.5156,670.5 L387.75,667.4375 L384.4688,667.4375 L383.7188,670.5 L381.2813,670.5 L384.625,658.1094 Z " fill="#000000"/><text fill="#000000" font-family="sans-serif" font-size="14" font-style="italic" lengthAdjust="spacing" textLength="102.334" x="400" y="669.8467">AbstractPlayer</text></g><!--class HumanPlayer--><g class="entity" data-entity="HumanPlayer" data-source-line="156" data-uid="ent0038" id="entity_HumanPlayer"><rect fill="#F1F1F1" height="32" rx="2.5" ry="2.5" style="stroke:#181818;stroke-width:0.5;" width="126.0557" x="740" y="474"/><ellipse cx="755" cy="490" fill="#ADD1B2" rx="11" ry="11" style="stroke:#181818;stroke-width:1;"/><path d="M757.9688,495.6406 Q757.3906,495.9375 756.75,496.0781 Q756.1094,496.2344 755.4063,496.2344 Q752.9063,496.2344 751.5781,494.5938 Q750.2656,492.9375 750.2656,489.8125 Q750.2656,486.6875 751.5781,485.0313 Q752.9063,483.375 755.4063,483.375 Q756.1094,483.375 756.75,483.5313 Q757.4063,483.6875 757.9688,483.9844 L757.9688,486.7031 Q757.3438,486.125 756.75,485.8594 Q756.1563,485.5781 755.5313,485.5781 Q754.1875,485.5781 753.5,486.6563 Q752.8125,487.7188 752.8125,489.8125 Q752.8125,491.9063 753.5,492.9844 Q754.1875,494.0469 755.5313,494.0469 Q756.1563,494.0469 756.75,493.7813 Q757.3438,493.5 757.9688,492.9219 L757.9688,495.6406 Z " fill="#000000"/><text fill="#000000" font-family="sans-serif" font-size="14" lengthAdjust="spacing" textLength="94.0557" x="769" y="494.8467">HumanPlayer</text></g><!--class BotPlayer--><g class="entity" data-entity="BotPlayer" data-source-line="161" data-uid="ent0039" id="entity_BotPlayer"><rect fill="#F1F1F1" height="32" rx="2.5" ry="2.5" style="stroke:#181818;stroke-width:0.5;" width="99.2246" x="480.5" y="474"/><ellipse cx="495.5" cy="490" fill="#A9DCDF" rx="11" ry="11" style="stroke:#181818;stroke-width:1;"/><path d="M495.6094,485.3438 L494.4531,490.4219 L496.7813,490.4219 L495.6094,485.3438 Z M494.125,483.1094 L497.1094,483.1094 L500.4688,495.5 L498.0156,495.5 L497.25,492.4375 L493.9688,492.4375 L493.2188,495.5 L490.7813,495.5 L494.125,483.1094 Z " fill="#000000"/><text fill="#000000" font-family="sans-serif" font-size="14" font-style="italic" lengthAdjust="spacing" textLength="67.2246" x="509.5" y="494.8467">BotPlayer</text></g><!--class MiniMax--><g class="entity" data-entity="MiniMax" data-source-line="165" data-uid="ent0041" id="entity_MiniMax"><rect fill="#F1F1F1" height="32" rx="2.5" ry="2.5" style="stroke:#181818;stroke-width:0.5;" width="89.6748" x="615" y="474"/><ellipse cx="630" cy="490" fill="#ADD1B2" rx="11" ry="11" style="stroke:#181818;stroke-width:1;"/><path d="M632.9688,495.6406 Q632.3906,495.9375 631.75,496.0781 Q631.1094,496.2344 630.4063,496.2344 Q627.9063,496.2344 626.5781,494.5938 Q625.2656,492.9375 625.2656,489.8125 Q625.2656,486.6875 626.5781,485.0313 Q627.9063,483.375 630.4063,483.375 Q631.1094,483.375 631.75,483.5313 Q632.4063,483.6875 632.9688,483.9844 L632.9688,486.7031 Q632.3438,486.125 631.75,485.8594 Q631.1563,485.5781 630.5313,485.5781 Q629.1875,485.5781 628.5,486.6563 Q627.8125,487.7188 627.8125,489.8125 Q627.8125,491.9063 628.5,492.9844 Q629.1875,494.0469 630.5313,494.0469 Q631.1563,494.0469 631.75,493.7813 Q632.3438,493.5 632.9688,492.9219 L632.9688,495.6406 Z " fill="#000000"/><text fill="#000000" font-family="sans-serif" font-size="14" lengthAdjust="spacing" textLength="57.6748" x="644" y="494.8467">MiniMax</text></g><!--class MiniMaxBotPlayer--><g class="entity" data-entity="MiniMaxBotPlayer" data-source-line="174" data-uid="ent0042" id="entity_MiniMaxBotPlayer"><rect fill="#F1F1F1" height="32" rx="2.5" ry="2.5" style="stroke:#181818;stroke-width:0.5;" width="156.8994" x="507.5" y="299"/><ellipse cx="522.5" cy="315" fill="#ADD1B2" rx="11" ry="11" style="stroke:#181818;stroke-width:1;"/><path d="M525.4688,320.6406 Q524.8906,320.9375 524.25,321.0781 Q523.6094,321.2344 522.9063,321.2344 Q520.4063,321.2344 519.0781,319.5938 Q517.7656,317.9375 517.7656,314.8125 Q517.7656,311.6875 519.0781,310.0313 Q520.4063,308.375 522.9063,308.375 Q523.6094,308.375 524.25,308.5313 Q524.9063,308.6875 525.4688,308.9844 L525.4688,311.7031 Q524.8438,311.125 524.25,310.8594 Q523.6563,310.5781 523.0313,310.5781 Q521.6875,310.5781 521,311.6563 Q520.3125,312.7188 520.3125,314.8125 Q520.3125,316.9063 521,317.9844 Q521.6875,319.0469 523.0313,319.0469 Q523.6563,319.0469 524.25,318.7813 Q524.8438,318.5 525.4688,317.9219 L525.4688,320.6406 Z " fill="#000000"/><text fill="#000000" font-family="sans-serif" font-size="14" lengthAdjust="spacing" textLength="124.8994" x="536.5" y="319.8467">MiniMaxBotPlayer</text></g><!--class InvalidMoveException--><g class="entity" data-entity="InvalidMoveException" data-source-line="179" data-uid="ent0043" id="entity_InvalidMoveException"><rect fill="#F1F1F1" height="32" rx="2.5" ry="2.5" style="stroke:#181818;stroke-width:0.5;" width="185.2207" x="239.5" y="299"/><ellipse cx="254.5" cy="315" fill="#ADD1B2" rx="11" ry="11" style="stroke:#181818;stroke-width:1;"/><path d="M257.4688,320.6406 Q256.8906,320.9375 256.25,321.0781 Q255.6094,321.2344 254.9063,321.2344 Q252.4063,321.2344 251.0781,319.5938 Q249.7656,317.9375 249.7656,314.8125 Q249.7656,311.6875 251.0781,310.0313 Q252.4063,308.375 254.9063,308.375 Q255.6094,308.375 256.25,308.5313 Q256.9063,308.6875 257.4688,308.9844 L257.4688,311.7031 Q256.8438,311.125 256.25,310.8594 Q255.6563,310.5781 255.0313,310.5781 Q253.6875,310.5781 253,311.6563 Q252.3125,312.7188 252.3125,314.8125 Q252.3125,316.9063 253,317.9844 Q253.6875,319.0469 255.0313,319.0469 Q255.6563,319.0469 256.25,318.7813 Q256.8438,318.5 257.4688,317.9219 L257.4688,320.6406 Z " fill="#000000"/><text fill="#000000" font-family="sans-serif" font-size="14" lengthAdjust="spacing" textLength="153.2207" x="268.5" y="319.8467">InvalidMoveException</text></g><!--reverse link Piece to PieceType--><g class="link" data-entity-1="Piece" data-entity-2="PieceType" data-source-line="186" data-uid="lnk45" id="link_Piece_PieceType"><path codeLine="186" d="M2682.7663,688.9751 C2707.0263,709.7951 2741.31,739.22 2765.49,759.97" fill="none" id="Piece-backto-PieceType" style="stroke:#181818;stroke-width:1;"/><polygon fill="#181818" points="2673.66,681.16,2675.6081,688.103,2682.7663,688.9751,2680.8182,682.0321,2673.66,681.16" style="stroke:#181818;stroke-width:1;"/><text fill="#000000" font-family="sans-serif" font-size="13" lengthAdjust="spacing" textLength="29.0405" x="2728" y="726.0669">type</text></g><!--reverse link Piece to PlayerColor--><g class="link" data-entity-1="Piece" data-entity-2="PlayerColor" data-source-line="187" data-uid="lnk46" id="link_Piece_PlayerColor"><path codeLine="187" d="M2652.0351,693.0325 C2648.9751,713.8525 2645.25,739.22 2642.21,759.97" fill="none" id="Piece-backto-PlayerColor" style="stroke:#181818;stroke-width:1;"/><polygon fill="#181818" points="2653.78,681.16,2648.95,686.5146,2652.0351,693.0325,2656.865,687.6779,2653.78,681.16" style="stroke:#181818;stroke-width:1;"/><text fill="#000000" font-family="sans-serif" font-size="13" lengthAdjust="spacing" textLength="32.0112" x="2649" y="726.0669">color</text></g><!--reverse link BoardRenderer to FieldRenderer--><g class="link" data-entity-1="BoardRenderer" data-entity-2="FieldRenderer" data-source-line="188" data-uid="lnk47" id="link_BoardRenderer_FieldRenderer"><path codeLine="188" d="M3149,804.16 C3149,824.98 3149,850.22 3149,870.97" fill="none" id="BoardRenderer-backto-FieldRenderer" style="stroke:#181818;stroke-width:1;"/><polygon fill="#181818" points="3149,792.16,3145,798.16,3149,804.16,3153,798.16,3149,792.16" style="stroke:#181818;stroke-width:1;"/><text fill="#000000" font-family="sans-serif" font-size="13" lengthAdjust="spacing" textLength="43.1768" x="3150" y="837.0669">render</text></g><!--reverse link ChessBoardRenderer to BoardRenderer--><g class="link" data-entity-1="ChessBoardRenderer" data-entity-2="BoardRenderer" data-source-line="189" data-uid="lnk48" id="link_ChessBoardRenderer_BoardRenderer"><path codeLine="189" d="M3155.762,693.1193 C3154.042,713.9393 3151.95,739.22 3150.24,759.97" fill="none" id="ChessBoardRenderer-backto-BoardRenderer" style="stroke:#181818;stroke-width:1;"/><polygon fill="#181818" points="3156.75,681.16,3152.2696,686.8103,3155.762,693.1193,3160.2424,687.469,3156.75,681.16" style="stroke:#181818;stroke-width:1;"/><text fill="#000000" font-family="sans-serif" font-size="13" lengthAdjust="spacing" textLength="97.9761" x="3155" y="726.0669">boardRenderer</text></g><!--reverse link MateAwareEval to EvalStrategy--><g class="link" data-entity-1="MateAwareEval" data-entity-2="EvalStrategy" data-source-line="190" data-uid="lnk49" id="link_MateAwareEval_EvalStrategy"><path codeLine="190" d="M2412.9176,510.9511 C2384.3276,523.6811 2358.7,535.37 2356,538 C2323.18,569.99 2305.13,622.95 2297.85,648.82" fill="none" id="MateAwareEval-backto-EvalStrategy" style="stroke:#181818;stroke-width:1;"/><polygon fill="#181818" points="2423.88,506.07,2416.7717,504.8564,2412.9176,510.9511,2420.0258,512.1647,2423.88,506.07" style="stroke:#181818;stroke-width:1;"/><text fill="#000000" font-family="sans-serif" font-size="13" lengthAdjust="spacing" textLength="82.9702" x="2357" y="551.0669">evalStrategy</text></g><!--link MateAwareEval to EvalStrategy--><g class="link" data-entity-1="MateAwareEval" data-entity-2="EvalStrategy" data-source-line="191" data-uid="lnk50" id="link_MateAwareEval_EvalStrategy"><path codeLine="191" d="M2457.69,506.13 C2456.74,519.89 2453.64,540.24 2444,555 C2415.21,599.06 2378.0715,623.1743 2343.3815,640.7243" fill="none" id="MateAwareEval-to-EvalStrategy" style="stroke:#181818;stroke-width:1;stroke-dasharray:7,7;"/><polygon fill="none" points="2327.32,648.85,2346.0901,646.0782,2340.673,635.3705,2327.32,648.85" style="stroke:#181818;stroke-width:1;"/></g><!--link MaterialEval to EvalStrategy--><g class="link" data-entity-1="MaterialEval" data-entity-2="EvalStrategy" data-source-line="192" data-uid="lnk51" id="link_MaterialEval_EvalStrategy"><path codeLine="192" d="M2294,506.05 C2294,538.77 2294,598.06 2294,630.86" fill="none" id="MaterialEval-to-EvalStrategy" style="stroke:#181818;stroke-width:1;stroke-dasharray:7,7;"/><polygon fill="none" points="2294,648.86,2300,630.86,2288,630.86,2294,648.86" style="stroke:#181818;stroke-width:1;"/></g><!--link RandomEval to EvalStrategy--><g class="link" data-entity-1="RandomEval" data-entity-2="EvalStrategy" data-source-line="193" data-uid="lnk52" id="link_RandomEval_EvalStrategy"><path codeLine="193" d="M2153.4,506.05 C2182.52,538.77 2239.3636,602.6136 2268.5536,635.4136" fill="none" id="RandomEval-to-EvalStrategy" style="stroke:#181818;stroke-width:1;stroke-dasharray:7,7;"/><polygon fill="none" points="2280.52,648.86,2273.0357,631.4248,2264.0714,639.4025,2280.52,648.86" style="stroke:#181818;stroke-width:1;"/></g><!--reverse link MatchConfig to AbstractPlayer--><g class="link" data-entity-1="MatchConfig" data-entity-2="AbstractPlayer" data-source-line="194" data-uid="lnk53" id="link_MatchConfig_AbstractPlayer"><path codeLine="194" d="M940.8471,511.029 C921.4371,519.859 906.32,525.23 882,530 C867.8,532.78 371.16,527.69 361,538 C327.36,572.16 383.95,623.64 416.9,648.92" fill="none" id="MatchConfig-backto-AbstractPlayer" style="stroke:#181818;stroke-width:1;"/><polygon fill="#181818" points="951.77,506.06,944.6522,504.9036,940.8471,511.029,947.9649,512.1855,951.77,506.06" style="stroke:#181818;stroke-width:1;"/><text fill="#000000" font-family="sans-serif" font-size="13" lengthAdjust="spacing" textLength="34.5059" x="362" y="551.0669">black</text></g><!--reverse link MatchConfig to AbstractPlayer--><g class="link" data-entity-1="MatchConfig" data-entity-2="AbstractPlayer" data-source-line="195" data-uid="lnk54" id="link_MatchConfig_AbstractPlayer"><path codeLine="195" d="M940.8502,511.0458 C921.4502,519.8858 906.32,525.25 882,530 C866.32,533.06 318.22,526.63 307,538 C276.74,568.69 332.72,557.15 343,563 C381.08,584.67 413.03,626.58 428.32,648.99" fill="none" id="MatchConfig-backto-AbstractPlayer-1" style="stroke:#181818;stroke-width:1;"/><polygon fill="#181818" points="951.77,506.07,944.6515,504.918,940.8502,511.0458,947.9687,512.1978,951.77,506.07" style="stroke:#181818;stroke-width:1;"/><text fill="#000000" font-family="sans-serif" font-size="13" lengthAdjust="spacing" textLength="35.5786" x="308" y="551.0669">white</text></g><!--reverse link HomeScreen to InputReader--><g class="link" data-entity-1="HomeScreen" data-entity-2="InputReader" data-source-line="196" data-uid="lnk55" id="link_HomeScreen_InputReader"><path codeLine="196" d="M1413.2825,511.961 C1398.1225,520.561 1388.33,524.73 1369,530 C1322.56,542.66 1306.07,521.1 1261,538 C1195.46,562.58 1133.73,621.16 1106.96,648.92" fill="none" id="HomeScreen-backto-InputReader" style="stroke:#181818;stroke-width:1;"/><polygon fill="#181818" points="1423.72,506.04,1416.5276,505.5213,1413.2825,511.961,1420.4749,512.4797,1423.72,506.04" style="stroke:#181818;stroke-width:1;"/><text fill="#000000" font-family="sans-serif" font-size="13" lengthAdjust="spacing" textLength="42.9038" x="1262" y="551.0669">reader</text></g><!--link HomeScreen to OutputWriter--><g class="link" data-entity-1="HomeScreen" data-entity-2="OutputWriter" data-source-line="197" data-uid="lnk56" id="link_HomeScreen_OutputWriter"><path codeLine="197" d="M1441.13,506.05 C1426.19,538.77 1393.3826,610.6023 1378.4026,643.4023" fill="none" id="HomeScreen-to-OutputWriter" style="stroke:#181818;stroke-width:1;"/><polygon fill="#181818" points="1375.91,648.86,1383.2874,642.3351,1377.9872,644.3119,1376.0104,639.0117,1375.91,648.86" style="stroke:#181818;stroke-width:1;"/><text fill="#000000" font-family="sans-serif" font-size="13" lengthAdjust="spacing" textLength="38.0288" x="1425" y="551.0669">writer</text></g><!--link MatchScreen to ChessBoard--><g class="link" data-entity-1="MatchScreen" data-entity-2="ChessBoard" data-source-line="198" data-uid="lnk57" id="link_MatchScreen_ChessBoard"><path codeLine="198" d="M1313.82,506.05 C1329.2,514.88 1350.01,525.22 1370,530 C1424.58,543.05 1819.07,533.37 1875,538 C1925.61,542.19 1937.37,551.05 1988,555 C2005.67,556.38 3248.14,555.09 3264,563 C3300.3,581.11 3321.7344,619.9 3332.3044,643.35" fill="none" id="MatchScreen-to-ChessBoard" style="stroke:#181818;stroke-width:1;"/><polygon fill="#181818" points="3334.77,648.82,3334.7183,638.9713,3332.7153,644.2617,3327.425,642.2587,3334.77,648.82" style="stroke:#181818;stroke-width:1;"/><text fill="#000000" font-family="sans-serif" font-size="13" lengthAdjust="spacing" textLength="74.6992" x="1989" y="551.0669">chessboard</text></g><!--link MatchScreen to ChessBoardRenderer--><g class="link" data-entity-1="MatchScreen" data-entity-2="ChessBoardRenderer" data-source-line="199" data-uid="lnk58" id="link_MatchScreen_ChessBoardRenderer"><path codeLine="199" d="M1314.19,506.14 C1329.55,514.88 1350.2,525.1 1370,530 C1424.39,543.46 1566.2,532.9 1622,538 C1672.14,542.58 1683.81,551.06 1734,555 C1752.24,556.43 3034.02,556.19 3051,563 C3094.63,580.49 3127.3326,620.1376 3144.2326,643.7976" fill="none" id="MatchScreen-to-ChessBoardRenderer" style="stroke:#181818;stroke-width:1;"/><polygon fill="#181818" points="3147.72,648.68,3145.7438,639.0314,3144.8138,644.6113,3139.2339,643.6814,3147.72,648.68" style="stroke:#181818;stroke-width:1;"/><text fill="#000000" font-family="sans-serif" font-size="13" lengthAdjust="spacing" textLength="135.5732" x="1735" y="551.0669">chessBoardRenderer</text></g><!--link MatchScreen to OutputWriter--><g class="link" data-entity-1="MatchScreen" data-entity-2="OutputWriter" data-source-line="200" data-uid="lnk59" id="link_MatchScreen_OutputWriter"><path codeLine="200" d="M1296.87,506.05 C1311.81,538.77 1344.6174,610.6023 1359.5974,643.4023" fill="none" id="MatchScreen-to-OutputWriter" style="stroke:#181818;stroke-width:1;"/><polygon fill="#181818" points="1362.09,648.86,1361.9896,639.0117,1360.0128,644.3119,1354.7126,642.3351,1362.09,648.86" style="stroke:#181818;stroke-width:1;"/><text fill="#000000" font-family="sans-serif" font-size="13" lengthAdjust="spacing" textLength="38.0288" x="1318" y="551.0669">writer</text></g><!--link MatchScreen to AbstractPlayer--><g class="link" data-entity-1="MatchScreen" data-entity-2="AbstractPlayer" data-source-line="201" data-uid="lnk60" id="link_MatchScreen_AbstractPlayer"><path codeLine="201" d="M1271.06,506.04 C1258.72,514.87 1241.83,525.21 1225,530 C1165.79,546.86 730.57,522.47 671,538 C585.12,560.4 501.1359,617.0884 462.6159,645.3784" fill="none" id="MatchScreen-to-AbstractPlayer" style="stroke:#181818;stroke-width:1;"/><polygon fill="#181818" points="457.78,648.93,467.4016,646.8265,461.8099,645.9703,462.6661,640.3786,457.78,648.93" style="stroke:#181818;stroke-width:1;"/><text fill="#000000" font-family="sans-serif" font-size="13" lengthAdjust="spacing" textLength="34.5059" x="672" y="551.0669">black</text></g><!--link MatchScreen to AbstractPlayer--><g class="link" data-entity-1="MatchScreen" data-entity-2="AbstractPlayer" data-source-line="202" data-uid="lnk61" id="link_MatchScreen_AbstractPlayer"><path codeLine="202" d="M1271.07,506.06 C1258.73,514.9 1241.84,525.24 1225,530 C1203.93,535.95 452.4,522.44 437,538 C407.91,567.38 420.2963,616.4116 429.8263,643.0116" fill="none" id="MatchScreen-to-AbstractPlayer-1" style="stroke:#181818;stroke-width:1;"/><polygon fill="#181818" points="431.85,648.66,432.5801,638.8382,430.1636,643.953,425.0489,641.5365,431.85,648.66" style="stroke:#181818;stroke-width:1;"/><text fill="#000000" font-family="sans-serif" font-size="13" lengthAdjust="spacing" textLength="87.8643" x="438" y="551.0669">currentPlayer</text></g><!--link MatchScreen to AbstractPlayer--><g class="link" data-entity-1="MatchScreen" data-entity-2="AbstractPlayer" data-source-line="203" data-uid="lnk62" id="link_MatchScreen_AbstractPlayer"><path codeLine="203" d="M1271.06,506.05 C1258.73,514.88 1241.84,525.22 1225,530 C1190.47,539.79 612.45,524.99 579,538 C520.25,560.84 473.917,615.5053 452.627,643.8053" fill="none" id="MatchScreen-to-AbstractPlayer-2" style="stroke:#181818;stroke-width:1;"/><polygon fill="#181818" points="449.02,648.6,457.627,643.8126,452.0259,644.6044,451.2341,639.0032,449.02,648.6" style="stroke:#181818;stroke-width:1;"/><text fill="#000000" font-family="sans-serif" font-size="13" lengthAdjust="spacing" textLength="35.5786" x="580" y="551.0669">white</text></g><!--reverse link AbstractPlayer to PlayerColor--><g class="link" data-entity-1="AbstractPlayer" data-entity-2="PlayerColor" data-source-line="204" data-uid="lnk63" id="link_AbstractPlayer_PlayerColor"><path codeLine="204" d="M517.3066,673.6506 C608.1766,682.2506 763.18,696.17 906,705 C1565.31,745.76 2367.18,768.05 2583.82,773.61" fill="none" id="AbstractPlayer-backto-PlayerColor" style="stroke:#181818;stroke-width:1;"/><polygon fill="#181818" points="505.36,672.52,510.9564,677.0675,517.3066,673.6506,511.7102,669.1031,505.36,672.52" style="stroke:#181818;stroke-width:1;"/><text fill="#000000" font-family="sans-serif" font-size="13" lengthAdjust="spacing" textLength="74.8071" x="1334" y="726.0669">playerColor</text></g><!--reverse link HumanPlayer to InputReader--><g class="link" data-entity-1="HumanPlayer" data-entity-2="InputReader" data-source-line="205" data-uid="lnk64" id="link_HumanPlayer_InputReader"><path codeLine="205" d="M746.0863,511.3145 C731.3463,518.5445 727.45,523.58 719,538 C715.18,544.52 713.79,549.53 719,555 C731.5,568.13 864.42,558.55 882,563 C954.45,581.32 1031.75,625.48 1069.51,648.87" fill="none" id="HumanPlayer-backto-InputReader" style="stroke:#181818;stroke-width:1;"/><polygon fill="#181818" points="756.86,506.03,749.7116,505.081,746.0863,511.3145,753.2346,512.2635,756.86,506.03" style="stroke:#181818;stroke-width:1;"/><text fill="#000000" font-family="sans-serif" font-size="13" lengthAdjust="spacing" textLength="42.9038" x="720" y="551.0669">reader</text></g><!--link HumanPlayer to AbstractPlayer--><g class="link" data-entity-1="HumanPlayer" data-entity-2="AbstractPlayer" data-source-line="206" data-uid="lnk65" id="link_HumanPlayer_AbstractPlayer"><path codeLine="206" d="M778.54,506.04 C762.75,514.87 741.41,525.21 721,530 C708.29,532.98 260.15,528.69 251,538 C245.7,543.39 245.89,549.43 251,555 C264.87,570.13 324.53,554.05 343,563 C382.64,582.22 404.4807,610.3876 419.2307,633.5476" fill="none" id="HumanPlayer-to-AbstractPlayer" style="stroke:#181818;stroke-width:1;"/><polygon fill="none" points="428.9,648.73,424.2915,630.3245,414.1699,636.7707,428.9,648.73" style="stroke:#181818;stroke-width:1;"/></g><!--link BotPlayer to AbstractPlayer--><g class="link" data-entity-1="BotPlayer" data-entity-2="AbstractPlayer" data-source-line="207" data-uid="lnk66" id="link_BotPlayer_AbstractPlayer"><path codeLine="207" d="M480.46,491.73 C406.78,493.99 273.76,502.95 244,538 C239.11,543.76 238.88,549.45 244,555 C258.97,571.22 323.11,553.43 343,563 C382.7,582.09 404.5419,610.3041 419.2719,633.5041" fill="none" id="BotPlayer-to-AbstractPlayer" style="stroke:#181818;stroke-width:1;"/><polygon fill="none" points="428.92,648.7,424.3372,630.2881,414.2066,636.7201,428.92,648.7" style="stroke:#181818;stroke-width:1;"/></g><!--reverse link MiniMax to PlayerColor--><g class="link" data-entity-1="MiniMax" data-entity-2="PlayerColor" data-source-line="208" data-uid="lnk67" id="link_MiniMax_PlayerColor"><path codeLine="208" d="M631.7632,513.3001 C619.8532,522.0601 613.28,525.17 597,530 C558.64,541.37 276.64,532.58 237,538 C192.46,544.09 166.58,527.5 139,563 C100.28,612.84 95,659.75 139,705 C183.09,750.34 2217.62,771.12 2583.84,774.5" fill="none" id="MiniMax-backto-PlayerColor" style="stroke:#181818;stroke-width:1;"/><polygon fill="#181818" points="641.43,506.19,634.2266,506.5228,631.7632,513.3001,638.9666,512.9673,641.43,506.19" style="stroke:#181818;stroke-width:1;"/><text fill="#000000" font-family="sans-serif" font-size="13" lengthAdjust="spacing" textLength="101.2197" x="140" y="669.5669">ownPlayerColor</text></g><!--reverse link MiniMax to EvalStrategy--><g class="link" data-entity-1="MiniMax" data-entity-2="EvalStrategy" data-source-line="209" data-uid="lnk68" id="link_MiniMax_EvalStrategy"><path codeLine="209" d="M683.7149,514.5431 C692.7649,522.9231 696.21,524.52 709,530 C732.92,540.24 741.6,532.36 767,538 C791.98,543.54 796.71,551.1 822,555 C888.88,565.32 1973.58,550.05 2040,563 C2126.17,579.8 2220.44,625.06 2266.11,648.88" fill="none" id="MiniMax-backto-EvalStrategy" style="stroke:#181818;stroke-width:1;"/><polygon fill="#181818" points="674.91,506.39,676.5948,513.4015,683.7149,514.5431,682.0302,507.5316,674.91,506.39" style="stroke:#181818;stroke-width:1;"/><text fill="#000000" font-family="sans-serif" font-size="13" lengthAdjust="spacing" textLength="82.9702" x="823" y="551.0669">evalStrategy</text></g><!--reverse link MiniMaxBotPlayer to MiniMax--><g class="link" data-entity-1="MiniMaxBotPlayer" data-entity-2="MiniMax" data-source-line="210" data-uid="lnk69" id="link_MiniMaxBotPlayer_MiniMax"><path codeLine="210" d="M597.1577,342.0837 C611.1477,374.8037 639.5,441.06 653.52,473.86" fill="none" id="MiniMaxBotPlayer-backto-MiniMax" style="stroke:#181818;stroke-width:1;"/><polygon fill="#181818" points="592.44,331.05,591.1209,338.1394,597.1577,342.0837,598.4768,334.9943,592.44,331.05" style="stroke:#181818;stroke-width:1;"/><text fill="#000000" font-family="sans-serif" font-size="13" lengthAdjust="spacing" textLength="55.0024" x="614" y="376.0669">miniMax</text></g><!--link MiniMaxBotPlayer to BotPlayer--><g class="link" data-entity-1="MiniMaxBotPlayer" data-entity-2="BotPlayer" data-source-line="211" data-uid="lnk70" id="link_MiniMaxBotPlayer_BotPlayer"><path codeLine="211" d="M580.31,331.18 C576.91,340.35 572.59,352.31 569,363 C555.67,402.73 546.5702,432.7777 539.5502,456.5377" fill="none" id="MiniMaxBotPlayer-to-BotPlayer" style="stroke:#181818;stroke-width:1;"/><polygon fill="none" points="534.45,473.8,545.3043,458.2378,533.7961,454.8376,534.45,473.8" style="stroke:#181818;stroke-width:1;"/></g><!--SRC=[lLXBR-Cs43vNlqA77ZPDBS1fJocmW9rr4YFnexQ3BT33Wf9eYub4kYALnCZk_lOEAIccRDaY7ISNWw8vyyrxXWnYnBaRH5x4uymB4FSIZaFFZva_9ppo1eXGzyNvvIN18cBX3zTzuG894lnmVoRolqydxhdxo4Ze_70S9sXWvoEElKjCxmI9Tx0zNM019yQC4q4OxSOiUE3k9tU9KfHCHKheeWsG-SgLwF_UtgD7vCM8Bhny-wzwpeye9Y4I6DWNvFlOsYar9ZZ05PLE0nQpD3TG4t6CLZYzaETr1lY_3CMlke_yUnm8AMI-KaBwZCKOKPrgZWklN4H05WXSuHaX7bsm4ET721NwdmaO9oKe7ZFuWzSU4QmqtSchkIh_hvROJ6Tfi1cSLZR6D4kCAPIPvmJ74h3RdrwFnjh6JNzufNyE-rVNCsrZtFawr3x_lklrzE_9Q7HZBjBQSLMXRZiNDzhtr-l-h6SMJ0obeNSHOSwxSgcpVOtardJMcSp6esb_rXyDlrtsXhelYjCjnKewWYNUWeWeypq_abd2ABbFlK1YnCJt58xkmv0Ds2FUcnpc2kYCyzJU5Jg4Nw44ZnvnaJGriKsubEmMBr2yLxmQqbWIIUeYhbNDoA0EURU42mlVP2Its0JJ4ASuhIJzprJjbiBT4NMqRM0nO5kSTd_FYRNWEhEg8QvcNokzrbwhA5S654Z5OSj85rdaStN6YaftHTL6MmuyjlfGmN0wHr2UJUIMkjQwrdr1FXUoecwfS4SKcR6RrUbDCPlgJKa-XQwGuksQywKpqKlEhIfxflfZw8rU3tv086W2YzLkrI69vS4CoVQyDmj3blanDWf1XJy0vCuJA2VvLo9lqFdds_1kqErDrcohTUKTHP8TyLMYmp7Nj7aYgKguXsoZG6daAKwWZlMIfLYfIEANAKlAWMalJukYeDIV81gov0ZAco0keFhd9KZsWOh_mGa9eI35kSlIXNSV4ugzSjER5GlTHZnYcKnaQ9cfA2NiqsKc9XX1wkxFLIMAThgiIQDCmDxNb03sMJC7_VYklbG8-3fnQZeyIS8U3QKv1c0Mj7XjoZhdzW6260-tMvRGtPBcMxfJyYq8MOfpWchXHw7yvrWngeI350rWfALpigW6gH-ZuA5f5bsglk5rYlgMjv6t3-5xn-oc6Vef0ZyT9hYnrIeHeVdqftMgdSxZZ4Ur4Now1DL4yorhaw93mykSgIrbJ0-XCSSpjYz-3l1ILaVkoVJj-2mLEEoLks3oGrYfM7yBBnwa65FlcYLugfPRTLrFfuOGt4m_lNO19tqaixq5sogafAZHICennCyYlz3KfbjB1S5c-zI4QTjFdvkLFEz6NmYNMPiF-GLEDN_RzYblsbUaHSifpcqoRJtIlf5mRUHSh_LLecrrNRHj0OMarrc2Q8sOxocQhJLz9k3ck3QcXNgIT40e6Q3dIWCEK1naiPh2la0nYBPwZJhHXIbeZ4JqPWCKKn10dEL8DNUrF-oofM00Ky433kMW- -V6w5lkkqRjK3FKhzrC29OCeGjN3CAMAwZtdJ2SiMlWoz9LQPSrM7kN48MuCfpE39vMv9pkgTWxsS5n8rQbgzuZNklUGsLjd28wckjWSjssrim-OJL7wJdnCPbhAAFMUFjKFHvBOVI-kyv4bfA578oKk1KmW3DvElwjrNBDNq3FNVdGUaJEMafAvyiURFqGrWHK_yPoxkQFASvX3rIce5KgsJArRyVgPQ81SlijvTp5sgSTcETz_so5vjWyQHoTk_PYS4pUMpUz1X_K3p3WTNad_00STOLph8Vn1hIjoxZC7RG_TtOWjLgVNQix8kYa5exzGDw0jLMjPMc73xN_Nd3rnQH0xXhMXWCb-4ZZlYaHZWSNP2bK-VALuiDWczAmdiw-OIwrgwlLNUKT4hu6fTNwRcy-n_92yuuWvTN7tZ7iYOvjV6E1zeOslsy6DciukfpdRfAl3aGqT5p5suuJaH2xQlhb-JeVtBdpFm00]--></g></svg>