<svg xmlns="http://www.w3.org/2000/svg" xmlns:xlink="http://www.w3.org/1999/xlink" contentStyleType="text/css" data-diagram-type="CLASS" height="1137px" preserveAspectRatio="none" style="width:4527px;height:1137px;background:#FFFFFF;" version="1.1" viewBox="0 0 4527 1137" width="4527px" zoomAndPan="magnify"><defs/><g><!--cluster ch--><g class="cluster" data-entity="ch" data-source-line="2" data-uid="ent0003" id="cluster_ch"><path d="M8.5,6 L27.7656,6 A3.75,3.75 0 0 1 30.2656,8.5 L37.2656,28.2969 L4517.5,28.2969 A2.5,2.5 0 0 1 4520,30.7969 L4520,1127.5 A2.5,2.5 0 0 1 4517.5,1130 L8.5,1130 A2.5,2.5 0 0 1 6,1127.5 L6,8.5 A2.5,2.5 0 0 1 8.5,6" fill="none" style="stroke:#000000;stroke-width:1.5;"/><line style="stroke:#000000;stroke-width:1.5;" x1="6" x2="37.2656" y1="28.2969" y2="28.2969"/><text fill="#000000" font-family="sans-serif" font-size="14" font-weight="bold" lengthAdjust="spacing" textLength="18.2656" x="10" y="20.9951">ch</text></g><!--cluster hslu--><g class="cluster" data-entity="hslu" data-source-line="2" data-uid="ent0004" id="cluster_hslu"><path d="M32.5,49 L66.5654,49 A3.75,3.75 0 0 1 69.0654,51.5 L76.0654,71.2969 L4493.5,71.2969 A2.5,2.5 0 0 1 4496,73.7969 L4496,1103.5 A2.5,2.5 0 0 1 4493.5,1106 L32.5,1106 A2.5,2.5 0 0 1 30,1103.5 L30,51.5 A2.5,2.5 0 0 1 32.5,49" fill="none" style="stroke:#000000;stroke-width:1.5;"/><line style="stroke:#000000;stroke-width:1.5;" x1="30" x2="76.0654" y1="71.2969" y2="71.2969"/><text fill="#000000" font-family="sans-serif" font-size="14" font-weight="bold" lengthAdjust="spacing" textLength="33.0654" x="34" y="63.9951">hslu</text></g><!--cluster cas--><g class="cluster" data-entity="cas" data-source-line="2" data-uid="ent0005" id="cluster_cas"><path d="M56.5,92 L83.5791,92 A3.75,3.75 0 0 1 86.0791,94.5 L93.0791,114.2969 L4469.5,114.2969 A2.5,2.5 0 0 1 4472,116.7969 L4472,1079.5 A2.5,2.5 0 0 1 4469.5,1082 L56.5,1082 A2.5,2.5 0 0 1 54,1079.5 L54,94.5 A2.5,2.5 0 0 1 56.5,92" fill="none" style="stroke:#000000;stroke-width:1.5;"/><line style="stroke:#000000;stroke-width:1.5;" x1="54" x2="93.0791" y1="114.2969" y2="114.2969"/><text fill="#000000" font-family="sans-serif" font-size="14" font-weight="bold" lengthAdjust="spacing" textLength="26.0791" x="58" y="106.9951">cas</text></g><!--cluster msed--><g class="cluster" data-entity="msed" data-source-line="2" data-uid="ent0006" id="cluster_msed"><path d="M80.5,135 L123.9375,135 A3.75,3.75 0 0 1 126.4375,137.5 L133.4375,157.2969 L4445.5,157.2969 A2.5,2.5 0 0 1 4448,159.7969 L4448,1055.5 A2.5,2.5 0 0 1 4445.5,1058 L80.5,1058 A2.5,2.5 0 0 1 78,1055.5 L78,137.5 A2.5,2.5 0 0 1 80.5,135" fill="none" style="stroke:#000000;stroke-width:1.5;"/><line style="stroke:#000000;stroke-width:1.5;" x1="78" x2="133.4375" y1="157.2969" y2="157.2969"/><text fill="#000000" font-family="sans-serif" font-size="14" font-weight="bold" lengthAdjust="spacing" textLength="42.4375" x="82" y="149.9951">msed</text></g><!--cluster blobfish--><g class="cluster" data-entity="blobfish" data-source-line="2" data-uid="ent0007" id="cluster_blobfish"><path d="M104.5,178 L169.1494,178 A3.75,3.75 0 0 1 171.6494,180.5 L178.6494,200.2969 L4421.5,200.2969 A2.5,2.5 0 0 1 4424,202.7969 L4424,1031.5 A2.5,2.5 0 0 1 4421.5,1034 L104.5,1034 A2.5,2.5 0 0 1 102,1031.5 L102,180.5 A2.5,2.5 0 0 1 104.5,178" fill="none" style="stroke:#000000;stroke-width:1.5;"/><line style="stroke:#000000;stroke-width:1.5;" x1="102" x2="178.6494" y1="200.2969" y2="200.2969"/><text fill="#000000" font-family="sans-serif" font-size="14" font-weight="bold" lengthAdjust="spacing" textLength="63.6494" x="106" y="192.9951">blobfish</text></g><!--cluster base--><g class="cluster" data-entity="base" data-source-line="7" data-uid="ent0009" id="cluster_base"><path d="M3323.5,681 L3361.7969,681 A3.75,3.75 0 0 1 3364.2969,683.5 L3371.2969,703.2969 L3601.5,703.2969 A2.5,2.5 0 0 1 3604,705.7969 L3604,872.5 A2.5,2.5 0 0 1 3601.5,875 L3323.5,875 A2.5,2.5 0 0 1 3321,872.5 L3321,683.5 A2.5,2.5 0 0 1 3323.5,681" fill="none" style="stroke:#000000;stroke-width:1.5;"/><line style="stroke:#000000;stroke-width:1.5;" x1="3321" x2="3371.2969" y1="703.2969" y2="703.2969"/><text fill="#000000" font-family="sans-serif" font-size="14" font-weight="bold" lengthAdjust="spacing" textLength="37.2969" x="3325" y="695.9951">base</text></g><!--cluster board--><g class="cluster" data-entity="board" data-source-line="40" data-uid="ent0014" id="cluster_board"><path d="M3751.5,638 L3798.5127,638 A3.75,3.75 0 0 1 3801.0127,640.5 L3808.0127,660.2969 L4397.5,660.2969 A2.5,2.5 0 0 1 4400,662.7969 L4400,1007.5 A2.5,2.5 0 0 1 4397.5,1010 L3751.5,1010 A2.5,2.5 0 0 1 3749,1007.5 L3749,640.5 A2.5,2.5 0 0 1 3751.5,638" fill="none" style="stroke:#000000;stroke-width:1.5;"/><line style="stroke:#000000;stroke-width:1.5;" x1="3749" x2="3808.0127" y1="660.2969" y2="660.2969"/><text fill="#000000" font-family="sans-serif" font-size="14" font-weight="bold" lengthAdjust="spacing" textLength="46.0127" x="3753" y="652.9951">board</text></g><!--cluster ui--><g class="cluster" data-entity="ui" data-source-line="53" data-uid="ent0016" id="cluster_ui"><path d="M3775.5,681 L3791.2656,681 A3.75,3.75 0 0 1 3793.7656,683.5 L3800.7656,703.2969 L4249.5,703.2969 A2.5,2.5 0 0 1 4252,705.7969 L4252,983.5 A2.5,2.5 0 0 1 4249.5,986 L3775.5,986 A2.5,2.5 0 0 1 3773,983.5 L3773,683.5 A2.5,2.5 0 0 1 3775.5,681" fill="none" style="stroke:#000000;stroke-width:1.5;"/><line style="stroke:#000000;stroke-width:1.5;" x1="3773" x2="3800.7656" y1="703.2969" y2="703.2969"/><text fill="#000000" font-family="sans-serif" font-size="14" font-weight="bold" lengthAdjust="spacing" textLength="14.7656" x="3777" y="695.9951">ui</text></g><!--cluster eval--><g class="cluster" data-entity="eval" data-source-line="95" data-uid="ent0023" id="cluster_eval"><path d="M258.5,482 L292.3672,482 A3.75,3.75 0 0 1 294.8672,484.5 L301.8672,504.2969 L733.5,504.2969 A2.5,2.5 0 0 1 736,506.7969 L736,761.5 A2.5,2.5 0 0 1 733.5,764 L258.5,764 A2.5,2.5 0 0 1 256,761.5 L256,484.5 A2.5,2.5 0 0 1 258.5,482" fill="none" style="stroke:#000000;stroke-width:1.5;"/><line style="stroke:#000000;stroke-width:1.5;" x1="256" x2="301.8672" y1="504.2969" y2="504.2969"/><text fill="#000000" font-family="sans-serif" font-size="14" font-weight="bold" lengthAdjust="spacing" textLength="32.8672" x="260" y="496.9951">eval</text></g><!--cluster game--><g class="cluster" data-entity="game" data-source-line="118" data-uid="ent0028" id="cluster_game"><path d="M762.5,439 L807.0518,439 A3.75,3.75 0 0 1 809.5518,441.5 L816.5518,461.2969 L1894.5,461.2969 A2.5,2.5 0 0 1 1897,463.7969 L1897,761.5 A2.5,2.5 0 0 1 1894.5,764 L762.5,764 A2.5,2.5 0 0 1 760,761.5 L760,441.5 A2.5,2.5 0 0 1 762.5,439" fill="none" style="stroke:#000000;stroke-width:1.5;"/><line style="stroke:#000000;stroke-width:1.5;" x1="760" x2="816.5518" y1="461.2969" y2="461.2969"/><text fill="#000000" font-family="sans-serif" font-size="14" font-weight="bold" lengthAdjust="spacing" textLength="43.5518" x="764" y="453.9951">game</text></g><!--cluster exceptions--><g class="cluster" data-entity="exceptions" data-source-line="151" data-uid="ent0033" id="cluster_exceptions"><path d="M1408.5,482 L1495.25,482 A3.75,3.75 0 0 1 1497.75,484.5 L1504.75,504.2969 L1870.5,504.2969 A2.5,2.5 0 0 1 1873,506.7969 L1873,562.5 A2.5,2.5 0 0 1 1870.5,565 L1408.5,565 A2.5,2.5 0 0 1 1406,562.5 L1406,484.5 A2.5,2.5 0 0 1 1408.5,482" fill="none" style="stroke:#000000;stroke-width:1.5;"/><line style="stroke:#000000;stroke-width:1.5;" x1="1406" x2="1504.75" y1="504.2969" y2="504.2969"/><text fill="#000000" font-family="sans-serif" font-size="14" font-weight="bold" lengthAdjust="spacing" textLength="85.75" x="1410" y="496.9951">exceptions</text></g><!--cluster screen--><g class="cluster" data-entity="screen" data-source-line="159" data-uid="ent0036" id="cluster_screen"><path d="M786.5,482 L839.9932,482 A3.75,3.75 0 0 1 842.4932,484.5 L849.4932,504.2969 L1094.5,504.2969 A2.5,2.5 0 0 1 1097,506.7969 L1097,562.5 A2.5,2.5 0 0 1 1094.5,565 L786.5,565 A2.5,2.5 0 0 1 784,562.5 L784,484.5 A2.5,2.5 0 0 1 786.5,482" fill="none" style="stroke:#000000;stroke-width:1.5;"/><line style="stroke:#000000;stroke-width:1.5;" x1="784" x2="849.4932" y1="504.2969" y2="504.2969"/><text fill="#000000" font-family="sans-serif" font-size="14" font-weight="bold" lengthAdjust="spacing" textLength="52.4932" x="788" y="496.9951">screen</text></g><!--cluster player--><g class="cluster" data-entity="player" data-source-line="173" data-uid="ent0039" id="cluster_player"><path d="M1923.5,221 L1974.293,221 A3.75,3.75 0 0 1 1976.793,223.5 L1983.793,243.2969 L3294.5,243.2969 A2.5,2.5 0 0 1 3297,245.7969 L3297,761.5 A2.5,2.5 0 0 1 3294.5,764 L1923.5,764 A2.5,2.5 0 0 1 1921,761.5 L1921,223.5 A2.5,2.5 0 0 1 1923.5,221" fill="none" style="stroke:#000000;stroke-width:1.5;"/><line style="stroke:#000000;stroke-width:1.5;" x1="1921" x2="1983.793" y1="243.2969" y2="243.2969"/><text fill="#000000" font-family="sans-serif" font-size="14" font-weight="bold" lengthAdjust="spacing" textLength="49.793" x="1925" y="235.9951">player</text></g><!--cluster bot--><g class="cluster" data-entity="bot" data-source-line="183" data-uid="ent0042" id="cluster_bot"><path d="M2187.5,264 L2214.832,264 A3.75,3.75 0 0 1 2217.332,266.5 L2224.332,286.2969 L3270.5,286.2969 A2.5,2.5 0 0 1 3273,288.7969 L3273,586.5 A2.5,2.5 0 0 1 3270.5,589 L2187.5,589 A2.5,2.5 0 0 1 2185,586.5 L2185,266.5 A2.5,2.5 0 0 1 2187.5,264" fill="none" style="stroke:#000000;stroke-width:1.5;"/><line style="stroke:#000000;stroke-width:1.5;" x1="2185" x2="2224.332" y1="286.2969" y2="286.2969"/><text fill="#000000" font-family="sans-serif" font-size="14" font-weight="bold" lengthAdjust="spacing" textLength="26.332" x="2189" y="278.9951">bot</text></g><!--cluster minimax--><g class="cluster" data-entity="minimax" data-source-line="187" data-uid="ent0044" id="cluster_minimax"><path d="M2211.5,307 L2279.7178,307 A3.75,3.75 0 0 1 2282.2178,309.5 L2289.2178,329.2969 L3138.5,329.2969 A2.5,2.5 0 0 1 3141,331.7969 L3141,562.5 A2.5,2.5 0 0 1 3138.5,565 L2211.5,565 A2.5,2.5 0 0 1 2209,562.5 L2209,309.5 A2.5,2.5 0 0 1 2211.5,307" fill="none" style="stroke:#000000;stroke-width:1.5;"/><line style="stroke:#000000;stroke-width:1.5;" x1="2209" x2="2289.2178" y1="329.2969" y2="329.2969"/><text fill="#000000" font-family="sans-serif" font-size="14" font-weight="bold" lengthAdjust="spacing" textLength="67.2178" x="2213" y="321.9951">minimax</text></g><!--cluster exceptions--><g class="cluster" data-entity="exceptions" data-source-line="232" data-uid="ent0051" id="cluster_exceptions"><path d="M1947.5,307 L2034.25,307 A3.75,3.75 0 0 1 2036.75,309.5 L2043.75,329.2969 L2158.5,329.2969 A2.5,2.5 0 0 1 2161,331.7969 L2161,387.5 A2.5,2.5 0 0 1 2158.5,390 L1947.5,390 A2.5,2.5 0 0 1 1945,387.5 L1945,309.5 A2.5,2.5 0 0 1 1947.5,307" fill="none" style="stroke:#000000;stroke-width:1.5;"/><line style="stroke:#000000;stroke-width:1.5;" x1="1945" x2="2043.75" y1="329.2969" y2="329.2969"/><text fill="#000000" font-family="sans-serif" font-size="14" font-weight="bold" lengthAdjust="spacing" textLength="85.75" x="1949" y="321.9951">exceptions</text></g><!--class Main--><g class="entity" data-entity="Main" data-source-line="2" data-uid="ent0002" id="entity_Main"><rect fill="#F1F1F1" height="32" rx="2.5" ry="2.5" style="stroke:#181818;stroke-width:0.5;" width="65.4209" x="978.5" y="342"/><ellipse cx="993.5" cy="358" fill="#ADD1B2" rx="11" ry="11" style="stroke:#181818;stroke-width:1;"/><path d="M996.4688,363.6406 Q995.8906,363.9375 995.25,364.0781 Q994.6094,364.2344 993.9063,364.2344 Q991.4063,364.2344 990.0781,362.5938 Q988.7656,360.9375 988.7656,357.8125 Q988.7656,354.6875 990.0781,353.0313 Q991.4063,351.375 993.9063,351.375 Q994.6094,351.375 995.25,351.5313 Q995.9063,351.6875 996.4688,351.9844 L996.4688,354.7031 Q995.8438,354.125 995.25,353.8594 Q994.6563,353.5781 994.0313,353.5781 Q992.6875,353.5781 992,354.6563 Q991.3125,355.7188 991.3125,357.8125 Q991.3125,359.9063 992,360.9844 Q992.6875,362.0469 994.0313,362.0469 Q994.6563,362.0469 995.25,361.7813 Q995.8438,361.5 996.4688,360.9219 L996.4688,363.6406 Z " fill="#000000"/><text fill="#000000" font-family="sans-serif" font-size="14" lengthAdjust="spacing" textLength="33.4209" x="1007.5" y="362.8467">Main</text></g><!--class FenUtil--><g class="entity" data-entity="FenUtil" data-source-line="7" data-uid="ent0008" id="entity_FenUtil"><rect fill="#F1F1F1" height="32" rx="2.5" ry="2.5" style="stroke:#181818;stroke-width:0.5;" width="81.0547" x="3441.5" y="716"/><ellipse cx="3456.5" cy="732" fill="#ADD1B2" rx="11" ry="11" style="stroke:#181818;stroke-width:1;"/><path d="M3459.4688,737.6406 Q3458.8906,737.9375 3458.25,738.0781 Q3457.6094,738.2344 3456.9063,738.2344 Q3454.4063,738.2344 3453.0781,736.5938 Q3451.7656,734.9375 3451.7656,731.8125 Q3451.7656,728.6875 3453.0781,727.0313 Q3454.4063,725.375 3456.9063,725.375 Q3457.6094,725.375 3458.25,725.5313 Q3458.9063,725.6875 3459.4688,725.9844 L3459.4688,728.7031 Q3458.8438,728.125 3458.25,727.8594 Q3457.6563,727.5781 3457.0313,727.5781 Q3455.6875,727.5781 3455,728.6563 Q3454.3125,729.7188 3454.3125,731.8125 Q3454.3125,733.9063 3455,734.9844 Q3455.6875,736.0469 3457.0313,736.0469 Q3457.6563,736.0469 3458.25,735.7813 Q3458.8438,735.5 3459.4688,734.9219 L3459.4688,737.6406 Z " fill="#000000"/><text fill="#000000" font-family="sans-serif" font-size="14" lengthAdjust="spacing" textLength="49.0547" x="3470.5" y="736.8467">FenUtil</text></g><!--class Piece--><g class="entity" data-entity="Piece" data-source-line="13" data-uid="ent0010" id="entity_Piece"><rect fill="#F1F1F1" height="32" rx="2.5" ry="2.5" style="stroke:#181818;stroke-width:0.5;" width="69.2559" x="3337.5" y="716"/><ellipse cx="3352.5" cy="732" fill="#ADD1B2" rx="11" ry="11" style="stroke:#181818;stroke-width:1;"/><path d="M3355.4688,737.6406 Q3354.8906,737.9375 3354.25,738.0781 Q3353.6094,738.2344 3352.9063,738.2344 Q3350.4063,738.2344 3349.0781,736.5938 Q3347.7656,734.9375 3347.7656,731.8125 Q3347.7656,728.6875 3349.0781,727.0313 Q3350.4063,725.375 3352.9063,725.375 Q3353.6094,725.375 3354.25,725.5313 Q3354.9063,725.6875 3355.4688,725.9844 L3355.4688,728.7031 Q3354.8438,728.125 3354.25,727.8594 Q3353.6563,727.5781 3353.0313,727.5781 Q3351.6875,727.5781 3351,728.6563 Q3350.3125,729.7188 3350.3125,731.8125 Q3350.3125,733.9063 3351,734.9844 Q3351.6875,736.0469 3353.0313,736.0469 Q3353.6563,736.0469 3354.25,735.7813 Q3354.8438,735.5 3355.4688,734.9219 L3355.4688,737.6406 Z " fill="#000000"/><text fill="#000000" font-family="sans-serif" font-size="14" lengthAdjust="spacing" textLength="37.2559" x="3366.5" y="736.8467">Piece</text></g><!--class PieceType--><g class="entity" data-entity="PieceType" data-source-line="24" data-uid="ent0011" id="entity_PieceType"><rect fill="#F1F1F1" height="32" rx="2.5" ry="2.5" style="stroke:#181818;stroke-width:0.5;" width="103.5928" x="3337" y="827"/><ellipse cx="3352" cy="843" fill="#EB937F" rx="11" ry="11" style="stroke:#181818;stroke-width:1;"/><path d="M3356.1094,849 L3348.3906,849 L3348.3906,836.6094 L3356.1094,836.6094 L3356.1094,838.7656 L3350.8438,838.7656 L3350.8438,841.4375 L3355.6094,841.4375 L3355.6094,843.5938 L3350.8438,843.5938 L3350.8438,846.8438 L3356.1094,846.8438 L3356.1094,849 Z " fill="#000000"/><text fill="#000000" font-family="sans-serif" font-size="14" lengthAdjust="spacing" textLength="71.5928" x="3366" y="847.8467">PieceType</text></g><!--class PlayerColor--><g class="entity" data-entity="PlayerColor" data-source-line="34" data-uid="ent0012" id="entity_PlayerColor"><rect fill="#F1F1F1" height="32" rx="2.5" ry="2.5" style="stroke:#181818;stroke-width:0.5;" width="112.1172" x="3476" y="827"/><ellipse cx="3491" cy="843" fill="#EB937F" rx="11" ry="11" style="stroke:#181818;stroke-width:1;"/><path d="M3495.1094,849 L3487.3906,849 L3487.3906,836.6094 L3495.1094,836.6094 L3495.1094,838.7656 L3489.8438,838.7656 L3489.8438,841.4375 L3494.6094,841.4375 L3494.6094,843.5938 L3489.8438,843.5938 L3489.8438,846.8438 L3495.1094,846.8438 L3495.1094,849 Z " fill="#000000"/><text fill="#000000" font-family="sans-serif" font-size="14" lengthAdjust="spacing" textLength="80.1172" x="3505" y="847.8467">PlayerColor</text></g><!--class ChessBoard--><g class="entity" data-entity="ChessBoard" data-source-line="40" data-uid="ent0013" id="entity_ChessBoard"><rect fill="#F1F1F1" height="32" rx="2.5" ry="2.5" style="stroke:#181818;stroke-width:0.5;" width="115.2412" x="4268.5" y="716"/><ellipse cx="4283.5" cy="732" fill="#ADD1B2" rx="11" ry="11" style="stroke:#181818;stroke-width:1;"/><path d="M4286.4688,737.6406 Q4285.8906,737.9375 4285.25,738.0781 Q4284.6094,738.2344 4283.9063,738.2344 Q4281.4063,738.2344 4280.0781,736.5938 Q4278.7656,734.9375 4278.7656,731.8125 Q4278.7656,728.6875 4280.0781,727.0313 Q4281.4063,725.375 4283.9063,725.375 Q4284.6094,725.375 4285.25,725.5313 Q4285.9063,725.6875 4286.4688,725.9844 L4286.4688,728.7031 Q4285.8438,728.125 4285.25,727.8594 Q4284.6563,727.5781 4284.0313,727.5781 Q4282.6875,727.5781 4282,728.6563 Q4281.3125,729.7188 4281.3125,731.8125 Q4281.3125,733.9063 4282,734.9844 Q4282.6875,736.0469 4284.0313,736.0469 Q4284.6563,736.0469 4285.25,735.7813 Q4285.8438,735.5 4286.4688,734.9219 L4286.4688,737.6406 Z " fill="#000000"/><text fill="#000000" font-family="sans-serif" font-size="14" lengthAdjust="spacing" textLength="83.2412" x="4297.5" y="736.8467">ChessBoard</text></g><!--class AlphanumericBorderFieldRenderer--><g class="entity" data-entity="AlphanumericBorderFieldRenderer" data-source-line="53" data-uid="ent0015" id="entity_AlphanumericBorderFieldRenderer"><rect fill="#F1F1F1" height="32" rx="2.5" ry="2.5" style="stroke:#181818;stroke-width:0.5;" width="274.498" x="3962" y="827"/><ellipse cx="3977" cy="843" fill="#ADD1B2" rx="11" ry="11" style="stroke:#181818;stroke-width:1;"/><path d="M3979.9688,848.6406 Q3979.3906,848.9375 3978.75,849.0781 Q3978.1094,849.2344 3977.4063,849.2344 Q3974.9063,849.2344 3973.5781,847.5938 Q3972.2656,845.9375 3972.2656,842.8125 Q3972.2656,839.6875 3973.5781,838.0313 Q3974.9063,836.375 3977.4063,836.375 Q3978.1094,836.375 3978.75,836.5313 Q3979.4063,836.6875 3979.9688,836.9844 L3979.9688,839.7031 Q3979.3438,839.125 3978.75,838.8594 Q3978.1563,838.5781 3977.5313,838.5781 Q3976.1875,838.5781 3975.5,839.6563 Q3974.8125,840.7188 3974.8125,842.8125 Q3974.8125,844.9063 3975.5,845.9844 Q3976.1875,847.0469 3977.5313,847.0469 Q3978.1563,847.0469 3978.75,846.7813 Q3979.3438,846.5 3979.9688,845.9219 L3979.9688,848.6406 Z " fill="#000000"/><text fill="#000000" font-family="sans-serif" font-size="14" lengthAdjust="spacing" textLength="242.498" x="3991" y="847.8467">AlphanumericBorderFieldRenderer</text></g><!--class BoardRenderer--><g class="entity" data-entity="BoardRenderer" data-source-line="67" data-uid="ent0017" id="entity_BoardRenderer"><rect fill="#F1F1F1" height="32" rx="2.5" ry="2.5" style="stroke:#181818;stroke-width:0.5;" width="138.2305" x="3789" y="827"/><ellipse cx="3804" cy="843" fill="#ADD1B2" rx="11" ry="11" style="stroke:#181818;stroke-width:1;"/><path d="M3806.9688,848.6406 Q3806.3906,848.9375 3805.75,849.0781 Q3805.1094,849.2344 3804.4063,849.2344 Q3801.9063,849.2344 3800.5781,847.5938 Q3799.2656,845.9375 3799.2656,842.8125 Q3799.2656,839.6875 3800.5781,838.0313 Q3801.9063,836.375 3804.4063,836.375 Q3805.1094,836.375 3805.75,836.5313 Q3806.4063,836.6875 3806.9688,836.9844 L3806.9688,839.7031 Q3806.3438,839.125 3805.75,838.8594 Q3805.1563,838.5781 3804.5313,838.5781 Q3803.1875,838.5781 3802.5,839.6563 Q3801.8125,840.7188 3801.8125,842.8125 Q3801.8125,844.9063 3802.5,845.9844 Q3803.1875,847.0469 3804.5313,847.0469 Q3805.1563,847.0469 3805.75,846.7813 Q3806.3438,846.5 3806.9688,845.9219 L3806.9688,848.6406 Z " fill="#000000"/><text fill="#000000" font-family="sans-serif" font-size="14" lengthAdjust="spacing" textLength="106.2305" x="3818" y="847.8467">BoardRenderer</text></g><!--class BorderFieldRenderer--><g class="entity" data-entity="BorderFieldRenderer" data-source-line="72" data-uid="ent0018" id="entity_BorderFieldRenderer"><rect fill="#F1F1F1" height="32" rx="2.5" ry="2.5" style="stroke:#181818;stroke-width:0.5;" width="177.3525" x="3982.5" y="938"/><ellipse cx="3997.5" cy="954" fill="#B4A7E5" rx="11" ry="11" style="stroke:#181818;stroke-width:1;"/><path d="M3993.4219,949.7656 L3993.4219,947.6094 L4000.8125,947.6094 L4000.8125,949.7656 L3998.3438,949.7656 L3998.3438,957.8438 L4000.8125,957.8438 L4000.8125,960 L3993.4219,960 L3993.4219,957.8438 L3995.8906,957.8438 L3995.8906,949.7656 L3993.4219,949.7656 Z " fill="#000000"/><text fill="#000000" font-family="sans-serif" font-size="14" font-style="italic" lengthAdjust="spacing" textLength="145.3525" x="4011.5" y="958.8467">BorderFieldRenderer</text></g><!--class ChessBoardRenderer--><g class="entity" data-entity="ChessBoardRenderer" data-source-line="78" data-uid="ent0019" id="entity_ChessBoardRenderer"><rect fill="#F1F1F1" height="32" rx="2.5" ry="2.5" style="stroke:#181818;stroke-width:0.5;" width="180.0801" x="3942" y="716"/><ellipse cx="3957" cy="732" fill="#ADD1B2" rx="11" ry="11" style="stroke:#181818;stroke-width:1;"/><path d="M3959.9688,737.6406 Q3959.3906,737.9375 3958.75,738.0781 Q3958.1094,738.2344 3957.4063,738.2344 Q3954.9063,738.2344 3953.5781,736.5938 Q3952.2656,734.9375 3952.2656,731.8125 Q3952.2656,728.6875 3953.5781,727.0313 Q3954.9063,725.375 3957.4063,725.375 Q3958.1094,725.375 3958.75,725.5313 Q3959.4063,725.6875 3959.9688,725.9844 L3959.9688,728.7031 Q3959.3438,728.125 3958.75,727.8594 Q3958.1563,727.5781 3957.5313,727.5781 Q3956.1875,727.5781 3955.5,728.6563 Q3954.8125,729.7188 3954.8125,731.8125 Q3954.8125,733.9063 3955.5,734.9844 Q3956.1875,736.0469 3957.5313,736.0469 Q3958.1563,736.0469 3958.75,735.7813 Q3959.3438,735.5 3959.9688,734.9219 L3959.9688,737.6406 Z " fill="#000000"/><text fill="#000000" font-family="sans-serif" font-size="14" lengthAdjust="spacing" textLength="148.0801" x="3971" y="736.8467">ChessBoardRenderer</text></g><!--class FieldRenderer--><g class="entity" data-entity="FieldRenderer" data-source-line="84" data-uid="ent0020" id="entity_FieldRenderer"><rect fill="#F1F1F1" height="32" rx="2.5" ry="2.5" style="stroke:#181818;stroke-width:0.5;" width="130.1709" x="3789" y="938"/><ellipse cx="3804" cy="954" fill="#B4A7E5" rx="11" ry="11" style="stroke:#181818;stroke-width:1;"/><path d="M3799.9219,949.7656 L3799.9219,947.6094 L3807.3125,947.6094 L3807.3125,949.7656 L3804.8438,949.7656 L3804.8438,957.8438 L3807.3125,957.8438 L3807.3125,960 L3799.9219,960 L3799.9219,957.8438 L3802.3906,957.8438 L3802.3906,949.7656 L3799.9219,949.7656 Z " fill="#000000"/><text fill="#000000" font-family="sans-serif" font-size="14" font-style="italic" lengthAdjust="spacing" textLength="98.1709" x="3818" y="958.8467">FieldRenderer</text></g><!--class SquareColor--><g class="entity" data-entity="SquareColor" data-source-line="89" data-uid="ent0021" id="entity_SquareColor"><rect fill="#F1F1F1" height="32" rx="2.5" ry="2.5" style="stroke:#181818;stroke-width:0.5;" width="118.1465" x="3789" y="716"/><ellipse cx="3804" cy="732" fill="#EB937F" rx="11" ry="11" style="stroke:#181818;stroke-width:1;"/><path d="M3808.1094,738 L3800.3906,738 L3800.3906,725.6094 L3808.1094,725.6094 L3808.1094,727.7656 L3802.8438,727.7656 L3802.8438,730.4375 L3807.6094,730.4375 L3807.6094,732.5938 L3802.8438,732.5938 L3802.8438,735.8438 L3808.1094,735.8438 L3808.1094,738 Z " fill="#000000"/><text fill="#000000" font-family="sans-serif" font-size="14" lengthAdjust="spacing" textLength="86.1465" x="3818" y="736.8467">SquareColor</text></g><!--class EvalStrategy--><g class="entity" data-entity="EvalStrategy" data-source-line="95" data-uid="ent0022" id="entity_EvalStrategy"><rect fill="#F1F1F1" height="32" rx="2.5" ry="2.5" style="stroke:#181818;stroke-width:0.5;" width="121.585" x="458" y="716"/><ellipse cx="473" cy="732" fill="#B4A7E5" rx="11" ry="11" style="stroke:#181818;stroke-width:1;"/><path d="M468.9219,727.7656 L468.9219,725.6094 L476.3125,725.6094 L476.3125,727.7656 L473.8438,727.7656 L473.8438,735.8438 L476.3125,735.8438 L476.3125,738 L468.9219,738 L468.9219,735.8438 L471.3906,735.8438 L471.3906,727.7656 L468.9219,727.7656 Z " fill="#000000"/><text fill="#000000" font-family="sans-serif" font-size="14" font-style="italic" lengthAdjust="spacing" textLength="89.585" x="487" y="736.8467">EvalStrategy</text></g><!--class MateAwareEval--><g class="entity" data-entity="MateAwareEval" data-source-line="100" data-uid="ent0024" id="entity_MateAwareEval"><rect fill="#F1F1F1" height="32" rx="2.5" ry="2.5" style="stroke:#181818;stroke-width:0.5;" width="140.3359" x="580" y="517"/><ellipse cx="595" cy="533" fill="#ADD1B2" rx="11" ry="11" style="stroke:#181818;stroke-width:1;"/><path d="M597.9688,538.6406 Q597.3906,538.9375 596.75,539.0781 Q596.1094,539.2344 595.4063,539.2344 Q592.9063,539.2344 591.5781,537.5938 Q590.2656,535.9375 590.2656,532.8125 Q590.2656,529.6875 591.5781,528.0313 Q592.9063,526.375 595.4063,526.375 Q596.1094,526.375 596.75,526.5313 Q597.4063,526.6875 597.9688,526.9844 L597.9688,529.7031 Q597.3438,529.125 596.75,528.8594 Q596.1563,528.5781 595.5313,528.5781 Q594.1875,528.5781 593.5,529.6563 Q592.8125,530.7188 592.8125,532.8125 Q592.8125,534.9063 593.5,535.9844 Q594.1875,537.0469 595.5313,537.0469 Q596.1563,537.0469 596.75,536.7813 Q597.3438,536.5 597.9688,535.9219 L597.9688,538.6406 Z " fill="#000000"/><text fill="#000000" font-family="sans-serif" font-size="14" lengthAdjust="spacing" textLength="108.3359" x="609" y="537.8467">MateAwareEval</text></g><!--class MaterialEval--><g class="entity" data-entity="MaterialEval" data-source-line="106" data-uid="ent0025" id="entity_MaterialEval"><rect fill="#F1F1F1" height="32" rx="2.5" ry="2.5" style="stroke:#181818;stroke-width:0.5;" width="118.4746" x="427" y="517"/><ellipse cx="442" cy="533" fill="#ADD1B2" rx="11" ry="11" style="stroke:#181818;stroke-width:1;"/><path d="M444.9688,538.6406 Q444.3906,538.9375 443.75,539.0781 Q443.1094,539.2344 442.4063,539.2344 Q439.9063,539.2344 438.5781,537.5938 Q437.2656,535.9375 437.2656,532.8125 Q437.2656,529.6875 438.5781,528.0313 Q439.9063,526.375 442.4063,526.375 Q443.1094,526.375 443.75,526.5313 Q444.4063,526.6875 444.9688,526.9844 L444.9688,529.7031 Q444.3438,529.125 443.75,528.8594 Q443.1563,528.5781 442.5313,528.5781 Q441.1875,528.5781 440.5,529.6563 Q439.8125,530.7188 439.8125,532.8125 Q439.8125,534.9063 440.5,535.9844 Q441.1875,537.0469 442.5313,537.0469 Q443.1563,537.0469 443.75,536.7813 Q444.3438,536.5 444.9688,535.9219 L444.9688,538.6406 Z " fill="#000000"/><text fill="#000000" font-family="sans-serif" font-size="14" lengthAdjust="spacing" textLength="86.4746" x="456" y="537.8467">MaterialEval</text></g><!--class RandomEval--><g class="entity" data-entity="RandomEval" data-source-line="113" data-uid="ent0026" id="entity_RandomEval"><rect fill="#F1F1F1" height="32" rx="2.5" ry="2.5" style="stroke:#181818;stroke-width:0.5;" width="119.8691" x="272" y="517"/><ellipse cx="287" cy="533" fill="#ADD1B2" rx="11" ry="11" style="stroke:#181818;stroke-width:1;"/><path d="M289.9688,538.6406 Q289.3906,538.9375 288.75,539.0781 Q288.1094,539.2344 287.4063,539.2344 Q284.9063,539.2344 283.5781,537.5938 Q282.2656,535.9375 282.2656,532.8125 Q282.2656,529.6875 283.5781,528.0313 Q284.9063,526.375 287.4063,526.375 Q288.1094,526.375 288.75,526.5313 Q289.4063,526.6875 289.9688,526.9844 L289.9688,529.7031 Q289.3438,529.125 288.75,528.8594 Q288.1563,528.5781 287.5313,528.5781 Q286.1875,528.5781 285.5,529.6563 Q284.8125,530.7188 284.8125,532.8125 Q284.8125,534.9063 285.5,535.9844 Q286.1875,537.0469 287.5313,537.0469 Q288.1563,537.0469 288.75,536.7813 Q289.3438,536.5 289.9688,535.9219 L289.9688,538.6406 Z " fill="#000000"/><text fill="#000000" font-family="sans-serif" font-size="14" lengthAdjust="spacing" textLength="87.8691" x="301" y="537.8467">RandomEval</text></g><!--class ChessGame--><g class="entity" data-entity="ChessGame" data-source-line="118" data-uid="ent0027" id="entity_ChessGame"><rect fill="#F1F1F1" height="32" rx="2.5" ry="2.5" style="stroke:#181818;stroke-width:0.5;" width="115.5283" x="1116" y="517"/><ellipse cx="1131" cy="533" fill="#ADD1B2" rx="11" ry="11" style="stroke:#181818;stroke-width:1;"/><path d="M1133.9688,538.6406 Q1133.3906,538.9375 1132.75,539.0781 Q1132.1094,539.2344 1131.4063,539.2344 Q1128.9063,539.2344 1127.5781,537.5938 Q1126.2656,535.9375 1126.2656,532.8125 Q1126.2656,529.6875 1127.5781,528.0313 Q1128.9063,526.375 1131.4063,526.375 Q1132.1094,526.375 1132.75,526.5313 Q1133.4063,526.6875 1133.9688,526.9844 L1133.9688,529.7031 Q1133.3438,529.125 1132.75,528.8594 Q1132.1563,528.5781 1131.5313,528.5781 Q1130.1875,528.5781 1129.5,529.6563 Q1128.8125,530.7188 1128.8125,532.8125 Q1128.8125,534.9063 1129.5,535.9844 Q1130.1875,537.0469 1131.5313,537.0469 Q1132.1563,537.0469 1132.75,536.7813 Q1133.3438,536.5 1133.9688,535.9219 L1133.9688,538.6406 Z " fill="#000000"/><text fill="#000000" font-family="sans-serif" font-size="14" lengthAdjust="spacing" textLength="83.5283" x="1145" y="537.8467">ChessGame</text></g><!--class InputReader--><g class="entity" data-entity="InputReader" data-source-line="126" data-uid="ent0029" id="entity_InputReader"><rect fill="#F1F1F1" height="32" rx="2.5" ry="2.5" style="stroke:#181818;stroke-width:0.5;" width="118.4268" x="1103" y="716"/><ellipse cx="1118" cy="732" fill="#ADD1B2" rx="11" ry="11" style="stroke:#181818;stroke-width:1;"/><path d="M1120.9688,737.6406 Q1120.3906,737.9375 1119.75,738.0781 Q1119.1094,738.2344 1118.4063,738.2344 Q1115.9063,738.2344 1114.5781,736.5938 Q1113.2656,734.9375 1113.2656,731.8125 Q1113.2656,728.6875 1114.5781,727.0313 Q1115.9063,725.375 1118.4063,725.375 Q1119.1094,725.375 1119.75,725.5313 Q1120.4063,725.6875 1120.9688,725.9844 L1120.9688,728.7031 Q1120.3438,728.125 1119.75,727.8594 Q1119.1563,727.5781 1118.5313,727.5781 Q1117.1875,727.5781 1116.5,728.6563 Q1115.8125,729.7188 1115.8125,731.8125 Q1115.8125,733.9063 1116.5,734.9844 Q1117.1875,736.0469 1118.5313,736.0469 Q1119.1563,736.0469 1119.75,735.7813 Q1120.3438,735.5 1120.9688,734.9219 L1120.9688,737.6406 Z " fill="#000000"/><text fill="#000000" font-family="sans-serif" font-size="14" lengthAdjust="spacing" textLength="86.4268" x="1132" y="736.8467">InputReader</text></g><!--class MatchConfig--><g class="entity" data-entity="MatchConfig" data-source-line="132" data-uid="ent0030" id="entity_MatchConfig"><rect fill="#F1F1F1" height="32" rx="2.5" ry="2.5" style="stroke:#181818;stroke-width:0.5;" width="119.6367" x="1267" y="517"/><ellipse cx="1282" cy="533" fill="#ADD1B2" rx="11" ry="11" style="stroke:#181818;stroke-width:1;"/><path d="M1284.9688,538.6406 Q1284.3906,538.9375 1283.75,539.0781 Q1283.1094,539.2344 1282.4063,539.2344 Q1279.9063,539.2344 1278.5781,537.5938 Q1277.2656,535.9375 1277.2656,532.8125 Q1277.2656,529.6875 1278.5781,528.0313 Q1279.9063,526.375 1282.4063,526.375 Q1283.1094,526.375 1283.75,526.5313 Q1284.4063,526.6875 1284.9688,526.9844 L1284.9688,529.7031 Q1284.3438,529.125 1283.75,528.8594 Q1283.1563,528.5781 1282.5313,528.5781 Q1281.1875,528.5781 1280.5,529.6563 Q1279.8125,530.7188 1279.8125,532.8125 Q1279.8125,534.9063 1280.5,535.9844 Q1281.1875,537.0469 1282.5313,537.0469 Q1283.1563,537.0469 1283.75,536.7813 Q1284.3438,536.5 1284.9688,535.9219 L1284.9688,538.6406 Z " fill="#000000"/><text fill="#000000" font-family="sans-serif" font-size="14" lengthAdjust="spacing" textLength="87.6367" x="1296" y="537.8467">MatchConfig</text></g><!--class OutputWriter--><g class="entity" data-entity="OutputWriter" data-source-line="141" data-uid="ent0031" id="entity_OutputWriter"><rect fill="#F1F1F1" height="32" rx="2.5" ry="2.5" style="stroke:#181818;stroke-width:0.5;" width="123.9775" x="840" y="716"/><ellipse cx="855" cy="732" fill="#ADD1B2" rx="11" ry="11" style="stroke:#181818;stroke-width:1;"/><path d="M857.9688,737.6406 Q857.3906,737.9375 856.75,738.0781 Q856.1094,738.2344 855.4063,738.2344 Q852.9063,738.2344 851.5781,736.5938 Q850.2656,734.9375 850.2656,731.8125 Q850.2656,728.6875 851.5781,727.0313 Q852.9063,725.375 855.4063,725.375 Q856.1094,725.375 856.75,725.5313 Q857.4063,725.6875 857.9688,725.9844 L857.9688,728.7031 Q857.3438,728.125 856.75,727.8594 Q856.1563,727.5781 855.5313,727.5781 Q854.1875,727.5781 853.5,728.6563 Q852.8125,729.7188 852.8125,731.8125 Q852.8125,733.9063 853.5,734.9844 Q854.1875,736.0469 855.5313,736.0469 Q856.1563,736.0469 856.75,735.7813 Q857.3438,735.5 857.9688,734.9219 L857.9688,737.6406 Z " fill="#000000"/><text fill="#000000" font-family="sans-serif" font-size="14" lengthAdjust="spacing" textLength="91.9775" x="869" y="736.8467">OutputWriter</text></g><!--class GameAbortedException--><g class="entity" data-entity="GameAbortedException" data-source-line="151" data-uid="ent0032" id="entity_GameAbortedException"><rect fill="#F1F1F1" height="32" rx="2.5" ry="2.5" style="stroke:#181818;stroke-width:0.5;" width="198.5986" x="1657.5" y="517"/><ellipse cx="1672.5" cy="533" fill="#ADD1B2" rx="11" ry="11" style="stroke:#181818;stroke-width:1;"/><path d="M1675.4688,538.6406 Q1674.8906,538.9375 1674.25,539.0781 Q1673.6094,539.2344 1672.9063,539.2344 Q1670.4063,539.2344 1669.0781,537.5938 Q1667.7656,535.9375 1667.7656,532.8125 Q1667.7656,529.6875 1669.0781,528.0313 Q1670.4063,526.375 1672.9063,526.375 Q1673.6094,526.375 1674.25,526.5313 Q1674.9063,526.6875 1675.4688,526.9844 L1675.4688,529.7031 Q1674.8438,529.125 1674.25,528.8594 Q1673.6563,528.5781 1673.0313,528.5781 Q1671.6875,528.5781 1671,529.6563 Q1670.3125,530.7188 1670.3125,532.8125 Q1670.3125,534.9063 1671,535.9844 Q1671.6875,537.0469 1673.0313,537.0469 Q1673.6563,537.0469 1674.25,536.7813 Q1674.8438,536.5 1675.4688,535.9219 L1675.4688,538.6406 Z " fill="#000000"/><text fill="#000000" font-family="sans-serif" font-size="14" lengthAdjust="spacing" textLength="166.5986" x="1686.5" y="537.8467">GameAbortedException</text></g><!--class MatchAbortedException--><g class="entity" data-entity="MatchAbortedException" data-source-line="155" data-uid="ent0034" id="entity_MatchAbortedException"><rect fill="#F1F1F1" height="32" rx="2.5" ry="2.5" style="stroke:#181818;stroke-width:0.5;" width="199.6377" x="1422" y="517"/><ellipse cx="1437" cy="533" fill="#ADD1B2" rx="11" ry="11" style="stroke:#181818;stroke-width:1;"/><path d="M1439.9688,538.6406 Q1439.3906,538.9375 1438.75,539.0781 Q1438.1094,539.2344 1437.4063,539.2344 Q1434.9063,539.2344 1433.5781,537.5938 Q1432.2656,535.9375 1432.2656,532.8125 Q1432.2656,529.6875 1433.5781,528.0313 Q1434.9063,526.375 1437.4063,526.375 Q1438.1094,526.375 1438.75,526.5313 Q1439.4063,526.6875 1439.9688,526.9844 L1439.9688,529.7031 Q1439.3438,529.125 1438.75,528.8594 Q1438.1563,528.5781 1437.5313,528.5781 Q1436.1875,528.5781 1435.5,529.6563 Q1434.8125,530.7188 1434.8125,532.8125 Q1434.8125,534.9063 1435.5,535.9844 Q1436.1875,537.0469 1437.5313,537.0469 Q1438.1563,537.0469 1438.75,536.7813 Q1439.3438,536.5 1439.9688,535.9219 L1439.9688,538.6406 Z " fill="#000000"/><text fill="#000000" font-family="sans-serif" font-size="14" lengthAdjust="spacing" textLength="167.6377" x="1451" y="537.8467">MatchAbortedException</text></g><!--class HomeScreen--><g class="entity" data-entity="HomeScreen" data-source-line="159" data-uid="ent0035" id="entity_HomeScreen"><rect fill="#F1F1F1" height="32" rx="2.5" ry="2.5" style="stroke:#181818;stroke-width:0.5;" width="121.7832" x="800" y="517"/><ellipse cx="815" cy="533" fill="#ADD1B2" rx="11" ry="11" style="stroke:#181818;stroke-width:1;"/><path d="M817.9688,538.6406 Q817.3906,538.9375 816.75,539.0781 Q816.1094,539.2344 815.4063,539.2344 Q812.9063,539.2344 811.5781,537.5938 Q810.2656,535.9375 810.2656,532.8125 Q810.2656,529.6875 811.5781,528.0313 Q812.9063,526.375 815.4063,526.375 Q816.1094,526.375 816.75,526.5313 Q817.4063,526.6875 817.9688,526.9844 L817.9688,529.7031 Q817.3438,529.125 816.75,528.8594 Q816.1563,528.5781 815.5313,528.5781 Q814.1875,528.5781 813.5,529.6563 Q812.8125,530.7188 812.8125,532.8125 Q812.8125,534.9063 813.5,535.9844 Q814.1875,537.0469 815.5313,537.0469 Q816.1563,537.0469 816.75,536.7813 Q817.3438,536.5 817.9688,535.9219 L817.9688,538.6406 Z " fill="#000000"/><text fill="#000000" font-family="sans-serif" font-size="14" lengthAdjust="spacing" textLength="89.7832" x="829" y="537.8467">HomeScreen</text></g><!--class MatchScreen--><g class="entity" data-entity="MatchScreen" data-source-line="165" data-uid="ent0037" id="entity_MatchScreen"><rect fill="#F1F1F1" height="32" rx="2.5" ry="2.5" style="stroke:#181818;stroke-width:0.5;" width="123.1572" x="957.5" y="517"/><ellipse cx="972.5" cy="533" fill="#ADD1B2" rx="11" ry="11" style="stroke:#181818;stroke-width:1;"/><path d="M975.4688,538.6406 Q974.8906,538.9375 974.25,539.0781 Q973.6094,539.2344 972.9063,539.2344 Q970.4063,539.2344 969.0781,537.5938 Q967.7656,535.9375 967.7656,532.8125 Q967.7656,529.6875 969.0781,528.0313 Q970.4063,526.375 972.9063,526.375 Q973.6094,526.375 974.25,526.5313 Q974.9063,526.6875 975.4688,526.9844 L975.4688,529.7031 Q974.8438,529.125 974.25,528.8594 Q973.6563,528.5781 973.0313,528.5781 Q971.6875,528.5781 971,529.6563 Q970.3125,530.7188 970.3125,532.8125 Q970.3125,534.9063 971,535.9844 Q971.6875,537.0469 973.0313,537.0469 Q973.6563,537.0469 974.25,536.7813 Q974.8438,536.5 975.4688,535.9219 L975.4688,538.6406 Z " fill="#000000"/><text fill="#000000" font-family="sans-serif" font-size="14" lengthAdjust="spacing" textLength="91.1572" x="986.5" y="537.8467">MatchScreen</text></g><!--class AbstractPlayer--><g class="entity" data-entity="AbstractPlayer" data-source-line="173" data-uid="ent0038" id="entity_AbstractPlayer"><rect fill="#F1F1F1" height="32" rx="2.5" ry="2.5" style="stroke:#181818;stroke-width:0.5;" width="134.334" x="1937" y="716"/><ellipse cx="1952" cy="732" fill="#A9DCDF" rx="11" ry="11" style="stroke:#181818;stroke-width:1;"/><path d="M1952.1094,727.3438 L1950.9531,732.4219 L1953.2813,732.4219 L1952.1094,727.3438 Z M1950.625,725.1094 L1953.6094,725.1094 L1956.9688,737.5 L1954.5156,737.5 L1953.75,734.4375 L1950.4688,734.4375 L1949.7188,737.5 L1947.2813,737.5 L1950.625,725.1094 Z " fill="#000000"/><text fill="#000000" font-family="sans-serif" font-size="14" font-style="italic" lengthAdjust="spacing" textLength="102.334" x="1966" y="736.8467">AbstractPlayer</text></g><!--class HumanPlayer--><g class="entity" data-entity="HumanPlayer" data-source-line="178" data-uid="ent0040" id="entity_HumanPlayer"><rect fill="#F1F1F1" height="32" rx="2.5" ry="2.5" style="stroke:#181818;stroke-width:0.5;" width="126.0557" x="1956" y="517"/><ellipse cx="1971" cy="533" fill="#ADD1B2" rx="11" ry="11" style="stroke:#181818;stroke-width:1;"/><path d="M1973.9688,538.6406 Q1973.3906,538.9375 1972.75,539.0781 Q1972.1094,539.2344 1971.4063,539.2344 Q1968.9063,539.2344 1967.5781,537.5938 Q1966.2656,535.9375 1966.2656,532.8125 Q1966.2656,529.6875 1967.5781,528.0313 Q1968.9063,526.375 1971.4063,526.375 Q1972.1094,526.375 1972.75,526.5313 Q1973.4063,526.6875 1973.9688,526.9844 L1973.9688,529.7031 Q1973.3438,529.125 1972.75,528.8594 Q1972.1563,528.5781 1971.5313,528.5781 Q1970.1875,528.5781 1969.5,529.6563 Q1968.8125,530.7188 1968.8125,532.8125 Q1968.8125,534.9063 1969.5,535.9844 Q1970.1875,537.0469 1971.5313,537.0469 Q1972.1563,537.0469 1972.75,536.7813 Q1973.3438,536.5 1973.9688,535.9219 L1973.9688,538.6406 Z " fill="#000000"/><text fill="#000000" font-family="sans-serif" font-size="14" lengthAdjust="spacing" textLength="94.0557" x="1985" y="537.8467">HumanPlayer</text></g><!--class BotPlayer--><g class="entity" data-entity="BotPlayer" data-source-line="183" data-uid="ent0041" id="entity_BotPlayer"><rect fill="#F1F1F1" height="32" rx="2.5" ry="2.5" style="stroke:#181818;stroke-width:0.5;" width="99.2246" x="3157.5" y="517"/><ellipse cx="3172.5" cy="533" fill="#A9DCDF" rx="11" ry="11" style="stroke:#181818;stroke-width:1;"/><path d="M3172.6094,528.3438 L3171.4531,533.4219 L3173.7813,533.4219 L3172.6094,528.3438 Z M3171.125,526.1094 L3174.1094,526.1094 L3177.4688,538.5 L3175.0156,538.5 L3174.25,535.4375 L3170.9688,535.4375 L3170.2188,538.5 L3167.7813,538.5 L3171.125,526.1094 Z " fill="#000000"/><text fill="#000000" font-family="sans-serif" font-size="14" font-style="italic" lengthAdjust="spacing" textLength="67.2246" x="3186.5" y="537.8467">BotPlayer</text></g><!--class MiniMaxAlgo--><g class="entity" data-entity="MiniMaxAlgo" data-source-line="187" data-uid="ent0043" id="entity_MiniMaxAlgo"><rect fill="#F1F1F1" height="32" rx="2.5" ry="2.5" style="stroke:#181818;stroke-width:0.5;" width="120.5938" x="2575.5" y="517"/><ellipse cx="2590.5" cy="533" fill="#A9DCDF" rx="11" ry="11" style="stroke:#181818;stroke-width:1;"/><path d="M2590.6094,528.3438 L2589.4531,533.4219 L2591.7813,533.4219 L2590.6094,528.3438 Z M2589.125,526.1094 L2592.1094,526.1094 L2595.4688,538.5 L2593.0156,538.5 L2592.25,535.4375 L2588.9688,535.4375 L2588.2188,538.5 L2585.7813,538.5 L2589.125,526.1094 Z " fill="#000000"/><text fill="#000000" font-family="sans-serif" font-size="14" font-style="italic" lengthAdjust="spacing" textLength="88.5938" x="2604.5" y="537.8467">MiniMaxAlgo</text></g><!--class MiniMaxBotPlayer--><g class="entity" data-entity="MiniMaxBotPlayer" data-source-line="193" data-uid="ent0045" id="entity_MiniMaxBotPlayer"><rect fill="#F1F1F1" height="32" rx="2.5" ry="2.5" style="stroke:#181818;stroke-width:0.5;" width="156.8994" x="2741.5" y="342"/><ellipse cx="2756.5" cy="358" fill="#ADD1B2" rx="11" ry="11" style="stroke:#181818;stroke-width:1;"/><path d="M2759.4688,363.6406 Q2758.8906,363.9375 2758.25,364.0781 Q2757.6094,364.2344 2756.9063,364.2344 Q2754.4063,364.2344 2753.0781,362.5938 Q2751.7656,360.9375 2751.7656,357.8125 Q2751.7656,354.6875 2753.0781,353.0313 Q2754.4063,351.375 2756.9063,351.375 Q2757.6094,351.375 2758.25,351.5313 Q2758.9063,351.6875 2759.4688,351.9844 L2759.4688,354.7031 Q2758.8438,354.125 2758.25,353.8594 Q2757.6563,353.5781 2757.0313,353.5781 Q2755.6875,353.5781 2755,354.6563 Q2754.3125,355.7188 2754.3125,357.8125 Q2754.3125,359.9063 2755,360.9844 Q2755.6875,362.0469 2757.0313,362.0469 Q2757.6563,362.0469 2758.25,361.7813 Q2758.8438,361.5 2759.4688,360.9219 L2759.4688,363.6406 Z " fill="#000000"/><text fill="#000000" font-family="sans-serif" font-size="14" lengthAdjust="spacing" textLength="124.8994" x="2770.5" y="362.8467">MiniMaxBotPlayer</text></g><!--class MiniMaxParallel--><g class="entity" data-entity="MiniMaxParallel" data-source-line="198" data-uid="ent0046" id="entity_MiniMaxParallel"><rect fill="#F1F1F1" height="32" rx="2.5" ry="2.5" style="stroke:#181818;stroke-width:0.5;" width="141.3135" x="2565.5" y="342"/><ellipse cx="2580.5" cy="358" fill="#ADD1B2" rx="11" ry="11" style="stroke:#181818;stroke-width:1;"/><path d="M2583.4688,363.6406 Q2582.8906,363.9375 2582.25,364.0781 Q2581.6094,364.2344 2580.9063,364.2344 Q2578.4063,364.2344 2577.0781,362.5938 Q2575.7656,360.9375 2575.7656,357.8125 Q2575.7656,354.6875 2577.0781,353.0313 Q2578.4063,351.375 2580.9063,351.375 Q2581.6094,351.375 2582.25,351.5313 Q2582.9063,351.6875 2583.4688,351.9844 L2583.4688,354.7031 Q2582.8438,354.125 2582.25,353.8594 Q2581.6563,353.5781 2581.0313,353.5781 Q2579.6875,353.5781 2579,354.6563 Q2578.3125,355.7188 2578.3125,357.8125 Q2578.3125,359.9063 2579,360.9844 Q2579.6875,362.0469 2581.0313,362.0469 Q2581.6563,362.0469 2582.25,361.7813 Q2582.8438,361.5 2583.4688,360.9219 L2583.4688,363.6406 Z " fill="#000000"/><text fill="#000000" font-family="sans-serif" font-size="14" lengthAdjust="spacing" textLength="109.3135" x="2594.5" y="362.8467">MiniMaxParallel</text></g><!--class MiniMaxRecursiveTask--><g class="entity" data-entity="MiniMaxRecursiveTask" data-source-line="203" data-uid="ent0047" id="entity_MiniMaxRecursiveTask"><rect fill="#F1F1F1" height="32" rx="2.5" ry="2.5" style="stroke:#181818;stroke-width:0.5;" width="190.9561" x="2933.5" y="342"/><ellipse cx="2948.5" cy="358" fill="#ADD1B2" rx="11" ry="11" style="stroke:#181818;stroke-width:1;"/><path d="M2951.4688,363.6406 Q2950.8906,363.9375 2950.25,364.0781 Q2949.6094,364.2344 2948.9063,364.2344 Q2946.4063,364.2344 2945.0781,362.5938 Q2943.7656,360.9375 2943.7656,357.8125 Q2943.7656,354.6875 2945.0781,353.0313 Q2946.4063,351.375 2948.9063,351.375 Q2949.6094,351.375 2950.25,351.5313 Q2950.9063,351.6875 2951.4688,351.9844 L2951.4688,354.7031 Q2950.8438,354.125 2950.25,353.8594 Q2949.6563,353.5781 2949.0313,353.5781 Q2947.6875,353.5781 2947,354.6563 Q2946.3125,355.7188 2946.3125,357.8125 Q2946.3125,359.9063 2947,360.9844 Q2947.6875,362.0469 2949.0313,362.0469 Q2949.6563,362.0469 2950.25,361.7813 Q2950.8438,361.5 2951.4688,360.9219 L2951.4688,363.6406 Z " fill="#000000"/><text fill="#000000" font-family="sans-serif" font-size="14" lengthAdjust="spacing" textLength="158.9561" x="2962.5" y="362.8467">MiniMaxRecursiveTask</text></g><!--class MiniMaxSequential--><g class="entity" data-entity="MiniMaxSequential" data-source-line="213" data-uid="ent0048" id="entity_MiniMaxSequential"><rect fill="#F1F1F1" height="32" rx="2.5" ry="2.5" style="stroke:#181818;stroke-width:0.5;" width="164.2686" x="2366" y="342"/><ellipse cx="2381" cy="358" fill="#ADD1B2" rx="11" ry="11" style="stroke:#181818;stroke-width:1;"/><path d="M2383.9688,363.6406 Q2383.3906,363.9375 2382.75,364.0781 Q2382.1094,364.2344 2381.4063,364.2344 Q2378.9063,364.2344 2377.5781,362.5938 Q2376.2656,360.9375 2376.2656,357.8125 Q2376.2656,354.6875 2377.5781,353.0313 Q2378.9063,351.375 2381.4063,351.375 Q2382.1094,351.375 2382.75,351.5313 Q2383.4063,351.6875 2383.9688,351.9844 L2383.9688,354.7031 Q2383.3438,354.125 2382.75,353.8594 Q2382.1563,353.5781 2381.5313,353.5781 Q2380.1875,353.5781 2379.5,354.6563 Q2378.8125,355.7188 2378.8125,357.8125 Q2378.8125,359.9063 2379.5,360.9844 Q2380.1875,362.0469 2381.5313,362.0469 Q2382.1563,362.0469 2382.75,361.7813 Q2383.3438,361.5 2383.9688,360.9219 L2383.9688,363.6406 Z " fill="#000000"/><text fill="#000000" font-family="sans-serif" font-size="14" lengthAdjust="spacing" textLength="132.2686" x="2395" y="362.8467">MiniMaxSequential</text></g><!--class MoveNode--><g class="entity" data-entity="MoveNode" data-source-line="221" data-uid="ent0049" id="entity_MoveNode"><rect fill="#F1F1F1" height="32" rx="2.5" ry="2.5" style="stroke:#181818;stroke-width:0.5;" width="106.0811" x="2225" y="342"/><ellipse cx="2240" cy="358" fill="#ADD1B2" rx="11" ry="11" style="stroke:#181818;stroke-width:1;"/><path d="M2242.9688,363.6406 Q2242.3906,363.9375 2241.75,364.0781 Q2241.1094,364.2344 2240.4063,364.2344 Q2237.9063,364.2344 2236.5781,362.5938 Q2235.2656,360.9375 2235.2656,357.8125 Q2235.2656,354.6875 2236.5781,353.0313 Q2237.9063,351.375 2240.4063,351.375 Q2241.1094,351.375 2241.75,351.5313 Q2242.4063,351.6875 2242.9688,351.9844 L2242.9688,354.7031 Q2242.3438,354.125 2241.75,353.8594 Q2241.1563,353.5781 2240.5313,353.5781 Q2239.1875,353.5781 2238.5,354.6563 Q2237.8125,355.7188 2237.8125,357.8125 Q2237.8125,359.9063 2238.5,360.9844 Q2239.1875,362.0469 2240.5313,362.0469 Q2241.1563,362.0469 2241.75,361.7813 Q2242.3438,361.5 2242.9688,360.9219 L2242.9688,363.6406 Z " fill="#000000"/><text fill="#000000" font-family="sans-serif" font-size="14" lengthAdjust="spacing" textLength="74.0811" x="2254" y="362.8467">MoveNode</text></g><!--class InvalidMoveException--><g class="entity" data-entity="InvalidMoveException" data-source-line="232" data-uid="ent0050" id="entity_InvalidMoveException"><rect fill="#F1F1F1" height="32" rx="2.5" ry="2.5" style="stroke:#181818;stroke-width:0.5;" width="185.2207" x="1960.5" y="342"/><ellipse cx="1975.5" cy="358" fill="#ADD1B2" rx="11" ry="11" style="stroke:#181818;stroke-width:1;"/><path d="M1978.4688,363.6406 Q1977.8906,363.9375 1977.25,364.0781 Q1976.6094,364.2344 1975.9063,364.2344 Q1973.4063,364.2344 1972.0781,362.5938 Q1970.7656,360.9375 1970.7656,357.8125 Q1970.7656,354.6875 1972.0781,353.0313 Q1973.4063,351.375 1975.9063,351.375 Q1976.6094,351.375 1977.25,351.5313 Q1977.9063,351.6875 1978.4688,351.9844 L1978.4688,354.7031 Q1977.8438,354.125 1977.25,353.8594 Q1976.6563,353.5781 1976.0313,353.5781 Q1974.6875,353.5781 1974,354.6563 Q1973.3125,355.7188 1973.3125,357.8125 Q1973.3125,359.9063 1974,360.9844 Q1974.6875,362.0469 1976.0313,362.0469 Q1976.6563,362.0469 1977.25,361.7813 Q1977.8438,361.5 1978.4688,360.9219 L1978.4688,363.6406 Z " fill="#000000"/><text fill="#000000" font-family="sans-serif" font-size="14" lengthAdjust="spacing" textLength="153.2207" x="1989.5" y="362.8467">InvalidMoveException</text></g><!--reverse link Piece to PieceType--><g class="link" data-entity-1="Piece" data-entity-2="PieceType" data-source-line="239" data-uid="lnk52" id="link_Piece_PieceType"><path codeLine="239" d="M3376.2108,760.0164 C3379.4608,780.8364 3383.42,806.22 3386.66,826.97" fill="none" id="Piece-backto-PieceType" style="stroke:#181818;stroke-width:1;"/><polygon fill="#181818" points="3374.36,748.16,3371.3333,754.7051,3376.2108,760.0164,3379.2375,753.4713,3374.36,748.16" style="stroke:#181818;stroke-width:1;"/><text fill="#000000" font-family="sans-serif" font-size="13" lengthAdjust="spacing" textLength="29.0405" x="3382" y="793.0669">type</text></g><!--reverse link Piece to PlayerColor--><g class="link" data-entity-1="Piece" data-entity-2="PlayerColor" data-source-line="240" data-uid="lnk53" id="link_Piece_PlayerColor"><path codeLine="240" d="M3401.0652,755.4125 C3410.7252,762.7725 3413.08,764.38 3424,772 C3452.22,791.69 3485.57,813.02 3507.67,826.9" fill="none" id="Piece-backto-PlayerColor" style="stroke:#181818;stroke-width:1;"/><polygon fill="#181818" points="3391.52,748.14,3393.8684,754.958,3401.0652,755.4125,3398.7168,748.5945,3391.52,748.14" style="stroke:#181818;stroke-width:1;"/><text fill="#000000" font-family="sans-serif" font-size="13" lengthAdjust="spacing" textLength="32.0112" x="3460" y="793.0669">color</text></g><!--link AlphanumericBorderFieldRenderer to BorderFieldRenderer--><g class="link" data-entity-1="AlphanumericBorderFieldRenderer" data-entity-2="BorderFieldRenderer" data-source-line="241" data-uid="lnk54" id="link_AlphanumericBorderFieldRenderer_BorderFieldRenderer"><path codeLine="241" d="M4104.68,859.15 C4108.76,872.39 4112.63,891.94 4107,908 C4103.03,919.33 4107.1674,916.7756 4099.6174,924.8456" fill="none" id="AlphanumericBorderFieldRenderer-to-BorderFieldRenderer" style="stroke:#181818;stroke-width:1;stroke-dasharray:7,7;"/><polygon fill="none" points="4087.32,937.99,4103.9988,928.9448,4095.2359,920.7465,4087.32,937.99" style="stroke:#181818;stroke-width:1;"/></g><!--reverse link BoardRenderer to BorderFieldRenderer--><g class="link" data-entity-1="BoardRenderer" data-entity-2="BorderFieldRenderer" data-source-line="242" data-uid="lnk55" id="link_BoardRenderer_BorderFieldRenderer"><path codeLine="242" d="M3890.4061,865.5885 C3911.2761,879.2685 3933.51,892.98 3963,908 C3984.9,919.16 4010.23,929.82 4030.85,937.96" fill="none" id="BoardRenderer-backto-BorderFieldRenderer" style="stroke:#181818;stroke-width:1;"/><polygon fill="#181818" points="3880.37,859.01,3883.1952,865.6446,3890.4061,865.5885,3887.5809,858.9539,3880.37,859.01" style="stroke:#181818;stroke-width:1;"/><text fill="#000000" font-family="sans-serif" font-size="13" lengthAdjust="spacing" textLength="134.3037" x="3964" y="904.0669">borderFieldRenderer</text></g><!--reverse link BoardRenderer to FieldRenderer--><g class="link" data-entity-1="BoardRenderer" data-entity-2="FieldRenderer" data-source-line="243" data-uid="lnk56" id="link_BoardRenderer_FieldRenderer"><path codeLine="243" d="M3843.7575,869.7585 C3839.1075,878.7085 3839.39,879.81 3837,891 C3833.55,907.16 3839.78,925.35 3845.64,937.83" fill="none" id="BoardRenderer-backto-FieldRenderer" style="stroke:#181818;stroke-width:1;"/><polygon fill="#181818" points="3849.29,859.11,3842.9742,862.5901,3843.7575,869.7585,3850.0733,866.2784,3849.29,859.11" style="stroke:#181818;stroke-width:1;"/><text fill="#000000" font-family="sans-serif" font-size="13" lengthAdjust="spacing" textLength="88.2578" x="3838" y="904.0669">fieldRenderer</text></g><!--reverse link ChessBoardRenderer to BoardRenderer--><g class="link" data-entity-1="ChessBoardRenderer" data-entity-2="BoardRenderer" data-source-line="244" data-uid="lnk57" id="link_ChessBoardRenderer_BoardRenderer"><path codeLine="244" d="M3997.6394,754.5285 C3964.3894,775.3485 3915.12,806.22 3881.99,826.97" fill="none" id="ChessBoardRenderer-backto-BoardRenderer" style="stroke:#181818;stroke-width:1;"/><polygon fill="#181818" points="4007.81,748.16,4000.6018,747.954,3997.6394,754.5285,4004.8475,754.7345,4007.81,748.16" style="stroke:#181818;stroke-width:1;"/><text fill="#000000" font-family="sans-serif" font-size="13" lengthAdjust="spacing" textLength="97.9761" x="3956" y="793.0669">boardRenderer</text></g><!--reverse link MateAwareEval to EvalStrategy--><g class="link" data-entity-1="MateAwareEval" data-entity-2="EvalStrategy" data-source-line="245" data-uid="lnk58" id="link_MateAwareEval_EvalStrategy"><path codeLine="245" d="M618.8496,556.1871 C590.4096,576.4671 553.32,603.07 552,605 C528.25,639.71 521.59,690.5 519.73,715.68" fill="none" id="MateAwareEval-backto-EvalStrategy" style="stroke:#181818;stroke-width:1;"/><polygon fill="#181818" points="628.62,549.22,621.4125,549.4467,618.8496,556.1871,626.0572,555.9603,628.62,549.22" style="stroke:#181818;stroke-width:1;"/><text fill="#000000" font-family="sans-serif" font-size="13" lengthAdjust="spacing" textLength="82.9702" x="553" y="618.0669">evalStrategy</text></g><!--link MateAwareEval to EvalStrategy--><g class="link" data-entity-1="MateAwareEval" data-entity-2="EvalStrategy" data-source-line="246" data-uid="lnk59" id="link_MateAwareEval_EvalStrategy"><path codeLine="246" d="M651.42,549.25 C652.45,567.58 651.96,598.76 640,622 C618.39,663.98 588.6482,687.8885 560.0382,706.1685" fill="none" id="MateAwareEval-to-EvalStrategy" style="stroke:#181818;stroke-width:1;stroke-dasharray:7,7;"/><polygon fill="none" points="544.87,715.86,563.2687,711.2245,556.8077,701.1124,544.87,715.86" style="stroke:#181818;stroke-width:1;"/></g><!--link MaterialEval to EvalStrategy--><g class="link" data-entity-1="MaterialEval" data-entity-2="EvalStrategy" data-source-line="247" data-uid="lnk60" id="link_MaterialEval_EvalStrategy"><path codeLine="247" d="M488.53,549.13 C494.68,585.8 507.3375,661.3371 513.4875,698.0671" fill="none" id="MaterialEval-to-EvalStrategy" style="stroke:#181818;stroke-width:1;stroke-dasharray:7,7;"/><polygon fill="none" points="516.46,715.82,519.4051,697.0763,507.5699,699.058,516.46,715.82" style="stroke:#181818;stroke-width:1;"/></g><!--link RandomEval to EvalStrategy--><g class="link" data-entity-1="RandomEval" data-entity-2="EvalStrategy" data-source-line="248" data-uid="lnk61" id="link_RandomEval_EvalStrategy"><path codeLine="248" d="M346.36,549.13 C381.17,585.8 457.3388,666.0341 492.1988,702.7641" fill="none" id="RandomEval-to-EvalStrategy" style="stroke:#181818;stroke-width:1;stroke-dasharray:7,7;"/><polygon fill="none" points="504.59,715.82,496.5507,698.6337,487.8468,706.8945,504.59,715.82" style="stroke:#181818;stroke-width:1;"/></g><!--reverse link MatchConfig to AbstractPlayer--><g class="link" data-entity-1="MatchConfig" data-entity-2="AbstractPlayer" data-source-line="249" data-uid="lnk62" id="link_MatchConfig_AbstractPlayer"><path codeLine="249" d="M1348.2728,557.7893 C1362.6628,573.1193 1379.12,587.24 1406,597 C1441.41,609.86 1708.05,597.66 1745,605 C1765.56,609.09 1768.55,617.4 1789,622 C1812.48,627.28 1874.98,620.29 1897,630 C1939.77,648.86 1976.07,692.37 1993.29,715.65" fill="none" id="MatchConfig-backto-AbstractPlayer" style="stroke:#181818;stroke-width:1;"/><polygon fill="#181818" points="1340.06,549.04,1341.25,556.1522,1348.2728,557.7893,1347.0828,550.677,1340.06,549.04" style="stroke:#181818;stroke-width:1;"/><text fill="#000000" font-family="sans-serif" font-size="13" lengthAdjust="spacing" textLength="34.5059" x="1790" y="618.0669">black</text></g><!--reverse link MatchConfig to AbstractPlayer--><g class="link" data-entity-1="MatchConfig" data-entity-2="AbstractPlayer" data-source-line="250" data-uid="lnk63" id="link_MatchConfig_AbstractPlayer"><path codeLine="250" d="M1348.2541,557.8175 C1362.6341,573.1675 1379.1,587.3 1406,597 C1450.22,612.94 1783.07,594.97 1829,605 C1847.47,609.03 1850.17,615.69 1868,622 C1880.6,626.46 1885.35,623.44 1897,630 C1937.29,652.69 1974.09,693.78 1992.2,715.91" fill="none" id="MatchConfig-backto-AbstractPlayer-1" style="stroke:#181818;stroke-width:1;"/><polygon fill="#181818" points="1340.05,549.06,1341.2329,556.1734,1348.2541,557.8175,1347.0712,550.704,1340.05,549.06" style="stroke:#181818;stroke-width:1;"/><text fill="#000000" font-family="sans-serif" font-size="13" lengthAdjust="spacing" textLength="35.5786" x="1869" y="618.0669">white</text></g><!--reverse link HomeScreen to InputReader--><g class="link" data-entity-1="HomeScreen" data-entity-2="InputReader" data-source-line="251" data-uid="lnk64" id="link_HomeScreen_InputReader"><path codeLine="251" d="M874.2014,559.9106 C885.0314,580.1506 901.33,604.67 931,622 C950.43,633.35 959.74,622.63 981,630 C1042.88,651.46 1108.26,693.45 1140.88,715.94" fill="none" id="HomeScreen-backto-InputReader" style="stroke:#181818;stroke-width:1;"/><polygon fill="#181818" points="868.54,549.33,867.8439,556.5074,874.2014,559.9106,874.8976,552.7331,868.54,549.33" style="stroke:#181818;stroke-width:1;"/><text fill="#000000" font-family="sans-serif" font-size="13" lengthAdjust="spacing" textLength="42.9038" x="932" y="618.0669">reader</text></g><!--reverse link HomeScreen to OutputWriter--><g class="link" data-entity-1="HomeScreen" data-entity-2="OutputWriter" data-source-line="252" data-uid="lnk65" id="link_HomeScreen_OutputWriter"><path codeLine="252" d="M855.182,560.88 C851.672,578.55 849.8,596.8 855,622 C862.29,657.32 881.58,695.29 893.05,715.78" fill="none" id="HomeScreen-backto-OutputWriter" style="stroke:#181818;stroke-width:1;"/><polygon fill="#181818" points="857.52,549.11,852.4276,554.2157,855.182,560.88,860.2743,555.7744,857.52,549.11" style="stroke:#181818;stroke-width:1;"/><text fill="#000000" font-family="sans-serif" font-size="13" lengthAdjust="spacing" textLength="38.0288" x="856" y="618.0669">writer</text></g><!--reverse link MatchScreen to ChessBoardRenderer--><g class="link" data-entity-1="MatchScreen" data-entity-2="ChessBoardRenderer" data-source-line="253" data-uid="lnk66" id="link_MatchScreen_ChessBoardRenderer"><path codeLine="253" d="M1036.2382,558.7108 C1047.5482,574.0608 1060.3,587.28 1084,597 C1096.29,602.04 2026.72,604.86 2040,605 C2046.55,605.07 3918.93,627.54 3925,630 C3968.56,647.65 4004.78,692.1 4021.71,715.71" fill="none" id="MatchScreen-backto-ChessBoardRenderer" style="stroke:#181818;stroke-width:1;"/><polygon fill="#181818" points="1029.12,549.05,1029.4588,556.2531,1036.2382,558.7108,1035.8994,551.5077,1029.12,549.05" style="stroke:#181818;stroke-width:1;"/><text fill="#000000" font-family="sans-serif" font-size="13" lengthAdjust="spacing" textLength="135.5732" x="3367" y="618.0669">chessBoardRenderer</text></g><!--reverse link MatchScreen to OutputWriter--><g class="link" data-entity-1="MatchScreen" data-entity-2="OutputWriter" data-source-line="254" data-uid="lnk67" id="link_MatchScreen_OutputWriter"><path codeLine="254" d="M1010.2503,560.5257 C1004.1603,578.5057 996.71,597.7 983,622 C962.73,657.93 932.32,695.68 915.11,715.96" fill="none" id="MatchScreen-backto-OutputWriter" style="stroke:#181818;stroke-width:1;"/><polygon fill="#181818" points="1014.1,549.16,1008.3866,553.5596,1010.2503,560.5257,1015.9637,556.1261,1014.1,549.16" style="stroke:#181818;stroke-width:1;"/><text fill="#000000" font-family="sans-serif" font-size="13" lengthAdjust="spacing" textLength="38.0288" x="993" y="618.0669">writer</text></g><!--reverse link MatchScreen to AbstractPlayer--><g class="link" data-entity-1="MatchScreen" data-entity-2="AbstractPlayer" data-source-line="255" data-uid="lnk68" id="link_MatchScreen_AbstractPlayer"><path codeLine="255" d="M1036.2613,558.6812 C1047.5813,574.0012 1060.33,587.21 1084,597 C1112.96,608.97 1617.95,596.1 1648,605 C1661.6,609.03 1661.45,617.82 1675,622 C1722.18,636.54 1851.46,610.95 1897,630 C1940.36,648.14 1976.67,692.38 1993.66,715.83" fill="none" id="MatchScreen-backto-AbstractPlayer" style="stroke:#181818;stroke-width:1;"/><polygon fill="#181818" points="1029.13,549.03,1029.4786,556.2327,1036.2613,558.6812,1035.9127,551.4785,1029.13,549.03" style="stroke:#181818;stroke-width:1;"/><text fill="#000000" font-family="sans-serif" font-size="13" lengthAdjust="spacing" textLength="34.5059" x="1676" y="618.0669">black</text></g><!--reverse link MatchScreen to AbstractPlayer--><g class="link" data-entity-1="MatchScreen" data-entity-2="AbstractPlayer" data-source-line="256" data-uid="lnk69" id="link_MatchScreen_AbstractPlayer"><path codeLine="256" d="M1036.5267,558.8849 C1047.8967,574.1549 1060.53,587.14 1084,597 C1115.77,610.35 1359.8,600.82 1394,605 C1428.79,609.25 1436.2,617.87 1471,622 C1494.51,624.79 1875.09,621.05 1897,630 C1940.51,647.77 1976.75,692.17 1993.7,715.74" fill="none" id="MatchScreen-backto-AbstractPlayer-1" style="stroke:#181818;stroke-width:1;"/><polygon fill="#181818" points="1029.36,549.26,1029.735,556.4613,1036.5267,558.8849,1036.1516,551.6836,1029.36,549.26" style="stroke:#181818;stroke-width:1;"/><text fill="#000000" font-family="sans-serif" font-size="13" lengthAdjust="spacing" textLength="35.5786" x="1472" y="618.0669">white</text></g><!--link MatchScreen to AbstractPlayer--><g class="link" data-entity-1="MatchScreen" data-entity-2="AbstractPlayer" data-source-line="258" data-uid="lnk71" id="link_MatchScreen_AbstractPlayer"><path codeLine="258" d="M1029.14,549.01 C1040.46,564.31 1060.35,587.16 1084,597 C1127.92,615.27 1465.53,594.86 1512,605 C1530.47,609.03 1532.54,617.93 1551,622 C1588.55,630.28 1861.43,615.39 1897,630 C1940.48,647.86 1973.2236,687.3512 1990.1836,710.9012" fill="none" id="MatchScreen-to-AbstractPlayer" style="stroke:#181818;stroke-width:1;"/><polygon fill="#181818" points="1993.69,715.77,1991.6763,706.1292,1990.768,711.7127,1985.1846,710.8044,1993.69,715.77" style="stroke:#181818;stroke-width:1;"/><text fill="#000000" font-family="sans-serif" font-size="13" lengthAdjust="spacing" textLength="87.8643" x="1552" y="618.0669">currentPlayer</text></g><!--link MatchScreen to ChessBoard--><g class="link" data-entity-1="MatchScreen" data-entity-2="ChessBoard" data-source-line="257" data-uid="lnk70" id="link_MatchScreen_ChessBoard"><path codeLine="257" d="M1029.11,549.08 C1040.41,564.44 1060.27,587.34 1084,597 C1115.22,609.71 3477.41,602.16 3511,605 C3556.8,608.87 3567.22,617.92 3613,622 C3630.68,623.57 4236.22,621.87 4252,630 C4287.56,648.31 4307.8833,686.958 4317.8233,710.348" fill="none" id="MatchScreen-to-ChessBoard" style="stroke:#181818;stroke-width:1;"/><polygon fill="#181818" points="4320.17,715.87,4320.3313,706.0225,4318.2144,711.2683,4312.9686,709.1514,4320.17,715.87" style="stroke:#181818;stroke-width:1;"/><text fill="#000000" font-family="sans-serif" font-size="13" lengthAdjust="spacing" textLength="74.6992" x="3614" y="618.0669">chessboard</text></g><!--reverse link AbstractPlayer to PlayerColor--><g class="link" data-entity-1="AbstractPlayer" data-entity-2="PlayerColor" data-source-line="259" data-uid="lnk72" id="link_AbstractPlayer_PlayerColor"><path codeLine="259" d="M2083.0378,734.2674 C2290.3478,738.1974 2927.14,755.53 3459,827 C3464.51,827.74 3470.24,828.66 3475.94,829.67" fill="none" id="AbstractPlayer-backto-PlayerColor" style="stroke:#181818;stroke-width:1;"/><polygon fill="#181818" points="2071.04,734.04,2076.9631,738.153,2083.0378,734.2674,2077.1147,730.1544,2071.04,734.04" style="stroke:#181818;stroke-width:1;"/><text fill="#000000" font-family="sans-serif" font-size="13" lengthAdjust="spacing" textLength="74.8071" x="3182" y="793.0669">playerColor</text></g><!--reverse link HumanPlayer to InputReader--><g class="link" data-entity-1="HumanPlayer" data-entity-2="InputReader" data-source-line="260" data-uid="lnk73" id="link_HumanPlayer_InputReader"><path codeLine="260" d="M1982.3348,554.747 C1953.9048,570.187 1917.13,587.53 1873,597 C1815.74,609.28 1401.81,587.26 1346,605 C1274.79,627.64 1206.37,687.76 1177.01,715.98" fill="none" id="HumanPlayer-backto-InputReader" style="stroke:#181818;stroke-width:1;"/><polygon fill="#181818" points="1992.88,549.02,1985.6984,548.3684,1982.3348,554.747,1989.5164,555.3986,1992.88,549.02" style="stroke:#181818;stroke-width:1;"/><text fill="#000000" font-family="sans-serif" font-size="13" lengthAdjust="spacing" textLength="42.9038" x="1347" y="618.0669">reader</text></g><!--link HumanPlayer to AbstractPlayer--><g class="link" data-entity-1="HumanPlayer" data-entity-2="AbstractPlayer" data-source-line="261" data-uid="lnk74" id="link_HumanPlayer_AbstractPlayer"><path codeLine="261" d="M2022.87,549.11 C2026.31,563.4 2031.1,585.49 2033,605 C2036.97,645.66 2027.556,675.5717 2017.776,699.0717" fill="none" id="HumanPlayer-to-AbstractPlayer" style="stroke:#181818;stroke-width:1;"/><polygon fill="none" points="2010.86,715.69,2023.3155,701.377,2012.2366,696.7663,2010.86,715.69" style="stroke:#181818;stroke-width:1;"/></g><!--link BotPlayer to AbstractPlayer--><g class="link" data-entity-1="BotPlayer" data-entity-2="AbstractPlayer" data-source-line="262" data-uid="lnk75" id="link_BotPlayer_AbstractPlayer"><path codeLine="262" d="M3196.01,549.1 C3184.23,564.02 3164.08,586.14 3141,597 C2948.89,687.38 2303.6462,719.525 2089.3362,727.925" fill="none" id="BotPlayer-to-AbstractPlayer" style="stroke:#181818;stroke-width:1;"/><polygon fill="none" points="2071.35,728.63,2089.5712,733.9204,2089.1012,721.9296,2071.35,728.63" style="stroke:#181818;stroke-width:1;"/></g><!--reverse link MiniMaxAlgo to PlayerColor--><g class="link" data-entity-1="MiniMaxAlgo" data-entity-2="PlayerColor" data-source-line="263" data-uid="lnk76" id="link_MiniMaxAlgo_PlayerColor"><path codeLine="263" d="M2653.2583,558.6834 C2664.5783,574.0134 2677.32,587.22 2701,597 C2731.61,609.64 3264.01,602.15 3297,605 C3344.54,609.11 3355.57,616.82 3403,622 C3418.16,623.65 3529.54,618.91 3540,630 C3591.94,685.06 3555.34,788.33 3538.87,826.93" fill="none" id="MiniMaxAlgo-backto-PlayerColor" style="stroke:#181818;stroke-width:1;"/><polygon fill="#181818" points="2646.13,549.03,2646.4763,556.2328,2653.2583,558.6834,2652.9119,551.4806,2646.13,549.03" style="stroke:#181818;stroke-width:1;"/><text fill="#000000" font-family="sans-serif" font-size="13" lengthAdjust="spacing" textLength="101.2197" x="3567" y="736.5669">ownPlayerColor</text></g><!--reverse link MiniMaxAlgo to EvalStrategy--><g class="link" data-entity-1="MiniMaxAlgo" data-entity-2="EvalStrategy" data-source-line="264" data-uid="lnk77" id="link_MiniMaxAlgo_EvalStrategy"><path codeLine="264" d="M2619.0435,558.7504 C2607.9535,574.0704 2595.46,587.22 2572,597 C2540,610.35 1982.19,599.23 1948,605 C1924.44,608.98 1920.57,618.09 1897,622 C1834.68,632.34 821.88,617.33 760,630 C677.78,646.83 588.53,692.08 545.36,715.89" fill="none" id="MiniMaxAlgo-backto-EvalStrategy" style="stroke:#181818;stroke-width:1;"/><polygon fill="#181818" points="2626.08,549.03,2619.3216,551.5447,2619.0435,558.7504,2625.8019,556.2357,2626.08,549.03" style="stroke:#181818;stroke-width:1;"/><text fill="#000000" font-family="sans-serif" font-size="13" lengthAdjust="spacing" textLength="82.9702" x="1949" y="618.0669">evalStrategy</text></g><!--reverse link MiniMaxBotPlayer to MiniMaxAlgo--><g class="link" data-entity-1="MiniMaxBotPlayer" data-entity-2="MiniMaxAlgo" data-source-line="265" data-uid="lnk78" id="link_MiniMaxBotPlayer_MiniMaxAlgo"><path codeLine="265" d="M2776.2028,378.7992 C2757.8928,386.7492 2745.5,391.43 2724,398 C2707.49,403.05 2699.2,394.88 2686,406 C2651.81,434.82 2640.83,490.26 2637.44,516.94" fill="none" id="MiniMaxBotPlayer-backto-MiniMaxAlgo" style="stroke:#181818;stroke-width:1;"/><polygon fill="#181818" points="2787.21,374.02,2780.1133,372.7405,2776.2028,378.7992,2783.2995,380.0787,2787.21,374.02" style="stroke:#181818;stroke-width:1;"/><text fill="#000000" font-family="sans-serif" font-size="13" lengthAdjust="spacing" textLength="83.7129" x="2687" y="419.0669">miniMaxAlgo</text></g><!--link MiniMaxBotPlayer to BotPlayer--><g class="link" data-entity-1="MiniMaxBotPlayer" data-entity-2="BotPlayer" data-source-line="266" data-uid="lnk79" id="link_MiniMaxBotPlayer_BotPlayer"><path codeLine="266" d="M2851.77,374.16 C2870.16,382.35 2893.96,392 2916,398 C3013.52,424.54 3055.84,376.56 3141,431 C3173.12,451.53 3186.4654,477.1209 3195.2354,499.9109" fill="none" id="MiniMaxBotPlayer-to-BotPlayer" style="stroke:#181818;stroke-width:1;"/><polygon fill="none" points="3201.7,516.71,3200.8351,497.7561,3189.6357,502.0658,3201.7,516.71" style="stroke:#181818;stroke-width:1;"/></g><!--link MiniMaxParallel to MiniMaxAlgo--><g class="link" data-entity-1="MiniMaxParallel" data-entity-2="MiniMaxAlgo" data-source-line="267" data-uid="lnk80" id="link_MiniMaxParallel_MiniMaxAlgo"><path codeLine="267" d="M2636,374.05 C2636,406.77 2636,466.06 2636,498.86" fill="none" id="MiniMaxParallel-to-MiniMaxAlgo" style="stroke:#181818;stroke-width:1;"/><polygon fill="none" points="2636,516.86,2642,498.86,2630,498.86,2636,516.86" style="stroke:#181818;stroke-width:1;"/></g><!--reverse link MiniMaxRecursiveTask to PlayerColor--><g class="link" data-entity-1="MiniMaxRecursiveTask" data-entity-2="PlayerColor" data-source-line="268" data-uid="lnk81" id="link_MiniMaxRecursiveTask_PlayerColor"><path codeLine="268" d="M3136.5699,361.5447 C3289.1799,370.3947 3571.06,412.29 3693,605 C3716.29,641.8 3861.52,510.04 3677,772 C3656.23,801.48 3619.58,819.03 3588.32,829.18" fill="none" id="MiniMaxRecursiveTask-backto-PlayerColor" style="stroke:#181818;stroke-width:1;"/><polygon fill="#181818" points="3124.59,360.85,3130.3484,365.1907,3136.5699,361.5447,3130.8115,357.2041,3124.59,360.85" style="stroke:#181818;stroke-width:1;"/><text fill="#000000" font-family="sans-serif" font-size="13" lengthAdjust="spacing" textLength="84.6206" x="3770" y="618.0669">playerAtTurn</text></g><!--reverse link MiniMaxRecursiveTask to ChessBoard--><g class="link" data-entity-1="MiniMaxRecursiveTask" data-entity-2="ChessBoard" data-source-line="269" data-uid="lnk82" id="link_MiniMaxRecursiveTask_ChessBoard"><path codeLine="269" d="M3136.7555,361.5472 C3303.1755,366.0872 3626.9,378.14 3741,406 C3981.89,464.83 4058.53,474.89 4252,630 C4282.36,654.34 4306.44,694.02 4318.18,715.69" fill="none" id="MiniMaxRecursiveTask-backto-ChessBoard" style="stroke:#181818;stroke-width:1;"/><polygon fill="#181818" points="3124.76,361.22,3130.6487,365.3821,3136.7555,361.5472,3130.8668,357.3851,3124.76,361.22" style="stroke:#181818;stroke-width:1;"/><text fill="#000000" font-family="sans-serif" font-size="13" lengthAdjust="spacing" textLength="75.3657" x="4209" y="537.5669">chessBoard</text></g><!--reverse link MiniMaxRecursiveTask to EvalStrategy--><g class="link" data-entity-1="MiniMaxRecursiveTask" data-entity-2="EvalStrategy" data-source-line="270" data-uid="lnk83" id="link_MiniMaxRecursiveTask_EvalStrategy"><path codeLine="270" d="M2983.5063,378.5567 C2961.4963,387.4067 2943.19,393.27 2916,398 C2840.84,411.07 223.62,376.74 170,431 C118.15,483.48 128.21,536.2 170,597 C234.88,691.41 376.19,719.33 457.7,727.57" fill="none" id="MiniMaxRecursiveTask-backto-EvalStrategy" style="stroke:#181818;stroke-width:1;"/><polygon fill="#181818" points="2994.64,374.08,2987.5809,372.6071,2983.5063,378.5567,2990.5654,380.0296,2994.64,374.08" style="stroke:#181818;stroke-width:1;"/><text fill="#000000" font-family="sans-serif" font-size="13" lengthAdjust="spacing" textLength="82.9702" x="171" y="537.5669">evalStrategy</text></g><!--link MiniMaxSequential to MiniMaxAlgo--><g class="link" data-entity-1="MiniMaxSequential" data-entity-2="MiniMaxAlgo" data-source-line="271" data-uid="lnk84" id="link_MiniMaxSequential_MiniMaxAlgo"><path codeLine="271" d="M2483.6,374.01 C2510.16,386.47 2546.17,406.15 2572,431 C2598.63,456.62 2611.4894,479.1609 2621.5294,500.4409" fill="none" id="MiniMaxSequential-to-MiniMaxAlgo" style="stroke:#181818;stroke-width:1;"/><polygon fill="none" points="2629.21,516.72,2626.9558,497.8807,2616.1031,503.0011,2629.21,516.72" style="stroke:#181818;stroke-width:1;"/></g><!--SRC=[tHd9RkCsz5nzXO1UCirOWDEUKg20x3YnCV5Isq4Az13G4cqneKHNInPaPhwzZvGKKvPiaPQJANf9P8fltvySYgB8T3pBYsXYEIYo_0YxreAonP94dZL4931VZPzUVHnxpFrccgzHZ6BYV3E_-_pToIVpt7nan3M-6ORXrA1Re0XRbpYuYGdTWVPqXMEuCM4HYGaBEfGv3v5vOgvHYFnP799WrGQIwPF9gVzzVOyUaKLHiBBIuz-hCJyYIbmKOq2VWUz3goVKX6075qGwTHXbOQgWEc2ANd3OvVTb1FYV1D4tsSUBU-p4dCdqIJ2vO8nY5CXGIvnPfUi1c1FZ0auFHLwNkJYzGe9OVkc3SaA2w8J1YwZoIinorNrwKrVX_SiQgydC5JQ7sqB7E4XyPGYXvYN1b1Fi36RzyKGw-38ONSa_HuEh_bmwcDYt8-dddpUzdlnxEXv_KMTfOxWYKzTszulq-xO_cFVKd8cXqBMw7ewY3d-KqRvvScisjwVpoNWsc0_6exlBtaYsHNQx9L1nGp3VMf7OInRMmkDHmW9o7reEfq79mX9qP1kwRCWUyTxWK1T0Hfo6zYxNWRSpuk9vHltmk27H5VBn-15dqLSH92GQWg-x-zu34zTuXUXUFLI0KWx4eRC04iafWOHdNPCerd22X5WsNNi8_12YqkcmqCNX9JVk50VmYCDAvpZjNDrrnzVZQOLFR2vTgboQW1lt-kFhYzxqhjktftPttfiAiw2mzdujzcblrflllp6-lPlDfn3GToA2Ajqc5Ce09qZyG6WdDnXahdQQmCnAXvFYASNHyzVnIuRYqnvQK_QKqv0yiAtbhuei0QbYgJeAGIqV555SyBYSs-yfZpbhDqHSRIka1q2RtJO_b-GwQoGNc1k7ImJ5M4cswfZQs0CjefXNqMQELi9oR1VIikWcELSbaXPm5S6HaXLvBvSQSYAWoi6oCtt-KCDhcNpZu09CsS5J9zbYiwwjoC5dqFo5kDnQNDXJkREu5jsDglmOMc2h1t-08QX_gvVTeaCrvXSJnBlmlJNGPSc2OYKN5FHvvRMVG3YElxg_6Tf_tOrkXXrHRJBynKxX7NdZ7V0RQuVJtC2c4IKwdprWMts211vY7zg9JNMABaFcvmFINfmQsK68FqM1o_mZ2Az2SGLDMfgBUBjMI45W1CYgmCMvoSALTKz9WAtyq9fd3xAE8eybFAB1XS8uvt0Gh9DuYX74yFwW5Qn8j_FaD4vYEBiD2T0-gySWNz_L7cOClasOaWnF7B0Nk5mTGr0BMhqruJBczW6CA0-p9Kt8PWdJ8zaewH6uR81JW685G2v_SomV5Sn1Y3emmWPBiYewwO8Yvw5kRbYB0cBPMQ9BwqdpeNllM5qtCpzvOAV365VMMi4Z6eNQwP8caLVfmQVha3T1jLkLRGWxS2zJfBgGD3W4HfsUidxniuFNF3j65WzVUy52c2zx-Ice_11KmjURu8gS4EF0wZCVpyHZAQ_BuLJZWjlX9-Skm2JtPhhJkwv0WeiAYJWV8_mSRrO8fN1h2IVOBf_Dkl3jJ9vMemiIyQXDvvoCJZ5-s_eXhrfNk4RpTiwiKsqrfNszuKR9gLoRcQAjjHxIBG4Pf_t4Hq45c-_9cgus5oo60NEZp4DnG08cFdgsXl1_Y9vjkcA53EuWwYHKj6ONa26yKW6gibq7EgKVQByAkMHLVOn13-SLXbr4AQQLhFxtL3l5JX96v17FKVHGy1stu33vgGS320jVjeQIu06xMwF9pmxpeQrGRLuAh866Hj0noMdJOUiNgCsswyvPF-CXK-A6V7i7MtdFpX6VAQoz-Kmbk2XDNnM2jg3Km6WuInPSXQNDBbG22jqXHE1MBSgbx8AUWBauBuqoQFwceP5dqBdY82PRivj83zmb9oZs6hlavxUDrrcsyIglSNxLgv-Vjmtysou3_yzzx3tpH-MAcNzmGS5uAHFZpsrjoHfcgSnCXSp4zn7oCaKxDnquoGcw9vLxdFrJNixOYOgfAqT23VL9Cy8W4D-rkHBb4M6ZCHQI5P_XXBKAn82SobVjNrejK_tZxBd9lm4V4REKAxXVyd7X29_EBElh7-Q1tmWCxSycTOBk-o31tVG3MTWcljGbM_5vGLry6OeBBlqsjFRADIJBc_1p4qi_zOZLELE9cg6pXpuwTcdDUqpSfVLSZGsgfqwmEb_aVG0TiNSpj3SeDTHA6zHpCrsIlW-bmc8FP18FXluMHJL4AwARDoNRXyVdu2EbRUIPnoEduw0okLPBeRH9ZM9cG75-V7Axf8EPD8I19TjawyBhjmvhQT-ejM1wXu2leD9gVTLNew6vXNf78bLhAdqZiQTWecEd0oatAFyg6oorUD_5-xdfRturv4JHu0KlCHgjn3GeLWXlDDzl7PePx7YUXC47CB0Z_NPgqk-HoB-BwqlBfuRsDpm20xOOEgBqEHsQ8-DV]--></g></svg>