<svg xmlns="http://www.w3.org/2000/svg" xmlns:xlink="http://www.w3.org/1999/xlink" contentStyleType="text/css" data-diagram-type="CLASS" height="1137px" preserveAspectRatio="none" style="width:5500px;height:1137px;background:#FFFFFF;" version="1.1" viewBox="0 0 5500 1137" width="5500px" zoomAndPan="magnify"><defs/><g><!--cluster ch--><g class="cluster" data-entity="ch" data-source-line="2" data-uid="ent0003" id="cluster_ch"><path d="M8.5,6 L27.7656,6 A3.75,3.75 0 0 1 30.2656,8.5 L37.2656,28.2969 L5490.5,28.2969 A2.5,2.5 0 0 1 5493,30.7969 L5493,1127.5 A2.5,2.5 0 0 1 5490.5,1130 L8.5,1130 A2.5,2.5 0 0 1 6,1127.5 L6,8.5 A2.5,2.5 0 0 1 8.5,6" fill="none" style="stroke:#000000;stroke-width:1.5;"/><line style="stroke:#000000;stroke-width:1.5;" x1="6" x2="37.2656" y1="28.2969" y2="28.2969"/><text fill="#000000" font-family="sans-serif" font-size="14" font-weight="bold" lengthAdjust="spacing" textLength="18.2656" x="10" y="20.9951">ch</text></g><!--cluster hslu--><g class="cluster" data-entity="hslu" data-source-line="2" data-uid="ent0004" id="cluster_hslu"><path d="M32.5,49 L66.5654,49 A3.75,3.75 0 0 1 69.0654,51.5 L76.0654,71.2969 L5466.5,71.2969 A2.5,2.5 0 0 1 5469,73.7969 L5469,1103.5 A2.5,2.5 0 0 1 5466.5,1106 L32.5,1106 A2.5,2.5 0 0 1 30,1103.5 L30,51.5 A2.5,2.5 0 0 1 32.5,49" fill="none" style="stroke:#000000;stroke-width:1.5;"/><line style="stroke:#000000;stroke-width:1.5;" x1="30" x2="76.0654" y1="71.2969" y2="71.2969"/><text fill="#000000" font-family="sans-serif" font-size="14" font-weight="bold" lengthAdjust="spacing" textLength="33.0654" x="34" y="63.9951">hslu</text></g><!--cluster cas--><g class="cluster" data-entity="cas" data-source-line="2" data-uid="ent0005" id="cluster_cas"><path d="M56.5,92 L83.5791,92 A3.75,3.75 0 0 1 86.0791,94.5 L93.0791,114.2969 L5442.5,114.2969 A2.5,2.5 0 0 1 5445,116.7969 L5445,1079.5 A2.5,2.5 0 0 1 5442.5,1082 L56.5,1082 A2.5,2.5 0 0 1 54,1079.5 L54,94.5 A2.5,2.5 0 0 1 56.5,92" fill="none" style="stroke:#000000;stroke-width:1.5;"/><line style="stroke:#000000;stroke-width:1.5;" x1="54" x2="93.0791" y1="114.2969" y2="114.2969"/><text fill="#000000" font-family="sans-serif" font-size="14" font-weight="bold" lengthAdjust="spacing" textLength="26.0791" x="58" y="106.9951">cas</text></g><!--cluster msed--><g class="cluster" data-entity="msed" data-source-line="2" data-uid="ent0006" id="cluster_msed"><path d="M80.5,135 L123.9375,135 A3.75,3.75 0 0 1 126.4375,137.5 L133.4375,157.2969 L5418.5,157.2969 A2.5,2.5 0 0 1 5421,159.7969 L5421,1055.5 A2.5,2.5 0 0 1 5418.5,1058 L80.5,1058 A2.5,2.5 0 0 1 78,1055.5 L78,137.5 A2.5,2.5 0 0 1 80.5,135" fill="none" style="stroke:#000000;stroke-width:1.5;"/><line style="stroke:#000000;stroke-width:1.5;" x1="78" x2="133.4375" y1="157.2969" y2="157.2969"/><text fill="#000000" font-family="sans-serif" font-size="14" font-weight="bold" lengthAdjust="spacing" textLength="42.4375" x="82" y="149.9951">msed</text></g><!--cluster blobfish--><g class="cluster" data-entity="blobfish" data-source-line="2" data-uid="ent0007" id="cluster_blobfish"><path d="M104.5,178 L169.1494,178 A3.75,3.75 0 0 1 171.6494,180.5 L178.6494,200.2969 L5394.5,200.2969 A2.5,2.5 0 0 1 5397,202.7969 L5397,1031.5 A2.5,2.5 0 0 1 5394.5,1034 L104.5,1034 A2.5,2.5 0 0 1 102,1031.5 L102,180.5 A2.5,2.5 0 0 1 104.5,178" fill="none" style="stroke:#000000;stroke-width:1.5;"/><line style="stroke:#000000;stroke-width:1.5;" x1="102" x2="178.6494" y1="200.2969" y2="200.2969"/><text fill="#000000" font-family="sans-serif" font-size="14" font-weight="bold" lengthAdjust="spacing" textLength="63.6494" x="106" y="192.9951">blobfish</text></g><!--cluster base--><g class="cluster" data-entity="base" data-source-line="12" data-uid="ent0010" id="cluster_base"><path d="M128.5,657 L166.7969,657 A3.75,3.75 0 0 1 169.2969,659.5 L176.2969,679.2969 L406.5,679.2969 A2.5,2.5 0 0 1 409,681.7969 L409,872.5 A2.5,2.5 0 0 1 406.5,875 L128.5,875 A2.5,2.5 0 0 1 126,872.5 L126,659.5 A2.5,2.5 0 0 1 128.5,657" fill="none" style="stroke:#000000;stroke-width:1.5;"/><line style="stroke:#000000;stroke-width:1.5;" x1="126" x2="176.2969" y1="679.2969" y2="679.2969"/><text fill="#000000" font-family="sans-serif" font-size="14" font-weight="bold" lengthAdjust="spacing" textLength="37.2969" x="130" y="671.9951">base</text></g><!--cluster board--><g class="cluster" data-entity="board" data-source-line="45" data-uid="ent0015" id="cluster_board"><path d="M4724.5,614 L4771.5127,614 A3.75,3.75 0 0 1 4774.0127,616.5 L4781.0127,636.2969 L5370.5,636.2969 A2.5,2.5 0 0 1 5373,638.7969 L5373,1007.5 A2.5,2.5 0 0 1 5370.5,1010 L4724.5,1010 A2.5,2.5 0 0 1 4722,1007.5 L4722,616.5 A2.5,2.5 0 0 1 4724.5,614" fill="none" style="stroke:#000000;stroke-width:1.5;"/><line style="stroke:#000000;stroke-width:1.5;" x1="4722" x2="4781.0127" y1="636.2969" y2="636.2969"/><text fill="#000000" font-family="sans-serif" font-size="14" font-weight="bold" lengthAdjust="spacing" textLength="46.0127" x="4726" y="628.9951">board</text></g><!--cluster ui--><g class="cluster" data-entity="ui" data-source-line="58" data-uid="ent0017" id="cluster_ui"><path d="M4872.5,657 L4888.2656,657 A3.75,3.75 0 0 1 4890.7656,659.5 L4897.7656,679.2969 L5346.5,679.2969 A2.5,2.5 0 0 1 5349,681.7969 L5349,983.5 A2.5,2.5 0 0 1 5346.5,986 L4872.5,986 A2.5,2.5 0 0 1 4870,983.5 L4870,659.5 A2.5,2.5 0 0 1 4872.5,657" fill="none" style="stroke:#000000;stroke-width:1.5;"/><line style="stroke:#000000;stroke-width:1.5;" x1="4870" x2="4897.7656" y1="679.2969" y2="679.2969"/><text fill="#000000" font-family="sans-serif" font-size="14" font-weight="bold" lengthAdjust="spacing" textLength="14.7656" x="4874" y="671.9951">ui</text></g><!--cluster eval--><g class="cluster" data-entity="eval" data-source-line="100" data-uid="ent0024" id="cluster_eval"><path d="M1994.5,657 L2028.3672,657 A3.75,3.75 0 0 1 2030.8672,659.5 L2037.8672,679.2969 L2469.5,679.2969 A2.5,2.5 0 0 1 2472,681.7969 L2472,872.5 A2.5,2.5 0 0 1 2469.5,875 L1994.5,875 A2.5,2.5 0 0 1 1992,872.5 L1992,659.5 A2.5,2.5 0 0 1 1994.5,657" fill="none" style="stroke:#000000;stroke-width:1.5;"/><line style="stroke:#000000;stroke-width:1.5;" x1="1992" x2="2037.8672" y1="679.2969" y2="679.2969"/><text fill="#000000" font-family="sans-serif" font-size="14" font-weight="bold" lengthAdjust="spacing" textLength="32.8672" x="1996" y="671.9951">eval</text></g><!--cluster game--><g class="cluster" data-entity="game" data-source-line="123" data-uid="ent0029" id="cluster_game"><path d="M2498.5,439 L2543.0518,439 A3.75,3.75 0 0 1 2545.5518,441.5 L2552.5518,461.2969 L4695.5,461.2969 A2.5,2.5 0 0 1 4698,463.7969 L4698,761.5 A2.5,2.5 0 0 1 4695.5,764 L2498.5,764 A2.5,2.5 0 0 1 2496,761.5 L2496,441.5 A2.5,2.5 0 0 1 2498.5,439" fill="none" style="stroke:#000000;stroke-width:1.5;"/><line style="stroke:#000000;stroke-width:1.5;" x1="2496" x2="2552.5518" y1="461.2969" y2="461.2969"/><text fill="#000000" font-family="sans-serif" font-size="14" font-weight="bold" lengthAdjust="spacing" textLength="43.5518" x="2500" y="453.9951">game</text></g><!--cluster exceptions--><g class="cluster" data-entity="exceptions" data-source-line="166" data-uid="ent0035" id="cluster_exceptions"><path d="M4209.5,482 L4296.25,482 A3.75,3.75 0 0 1 4298.75,484.5 L4305.75,504.2969 L4671.5,504.2969 A2.5,2.5 0 0 1 4674,506.7969 L4674,562.5 A2.5,2.5 0 0 1 4671.5,565 L4209.5,565 A2.5,2.5 0 0 1 4207,562.5 L4207,484.5 A2.5,2.5 0 0 1 4209.5,482" fill="none" style="stroke:#000000;stroke-width:1.5;"/><line style="stroke:#000000;stroke-width:1.5;" x1="4207" x2="4305.75" y1="504.2969" y2="504.2969"/><text fill="#000000" font-family="sans-serif" font-size="14" font-weight="bold" lengthAdjust="spacing" textLength="85.75" x="4211" y="496.9951">exceptions</text></g><!--cluster providers--><g class="cluster" data-entity="providers" data-source-line="174" data-uid="ent0038" id="cluster_providers"><path d="M3308.5,482 L3384.7227,482 A3.75,3.75 0 0 1 3387.2227,484.5 L3394.2227,504.2969 L4180.5,504.2969 A2.5,2.5 0 0 1 4183,506.7969 L4183,737.5 A2.5,2.5 0 0 1 4180.5,740 L3308.5,740 A2.5,2.5 0 0 1 3306,737.5 L3306,484.5 A2.5,2.5 0 0 1 3308.5,482" fill="none" style="stroke:#000000;stroke-width:1.5;"/><line style="stroke:#000000;stroke-width:1.5;" x1="3306" x2="3394.2227" y1="504.2969" y2="504.2969"/><text fill="#000000" font-family="sans-serif" font-size="14" font-weight="bold" lengthAdjust="spacing" textLength="75.2227" x="3310" y="496.9951">providers</text></g><!--cluster screen--><g class="cluster" data-entity="screen" data-source-line="209" data-uid="ent0044" id="cluster_screen"><path d="M2804.5,482 L2857.9932,482 A3.75,3.75 0 0 1 2860.4932,484.5 L2867.4932,504.2969 L3112.5,504.2969 A2.5,2.5 0 0 1 3115,506.7969 L3115,562.5 A2.5,2.5 0 0 1 3112.5,565 L2804.5,565 A2.5,2.5 0 0 1 2802,562.5 L2802,484.5 A2.5,2.5 0 0 1 2804.5,482" fill="none" style="stroke:#000000;stroke-width:1.5;"/><line style="stroke:#000000;stroke-width:1.5;" x1="2802" x2="2867.4932" y1="504.2969" y2="504.2969"/><text fill="#000000" font-family="sans-serif" font-size="14" font-weight="bold" lengthAdjust="spacing" textLength="52.4932" x="2806" y="496.9951">screen</text></g><!--cluster player--><g class="cluster" data-entity="player" data-source-line="226" data-uid="ent0047" id="cluster_player"><path d="M435.5,221 L486.293,221 A3.75,3.75 0 0 1 488.793,223.5 L495.793,243.2969 L1949.5,243.2969 A2.5,2.5 0 0 1 1952,245.7969 L1952,761.5 A2.5,2.5 0 0 1 1949.5,764 L435.5,764 A2.5,2.5 0 0 1 433,761.5 L433,223.5 A2.5,2.5 0 0 1 435.5,221" fill="none" style="stroke:#000000;stroke-width:1.5;"/><line style="stroke:#000000;stroke-width:1.5;" x1="433" x2="495.793" y1="243.2969" y2="243.2969"/><text fill="#000000" font-family="sans-serif" font-size="14" font-weight="bold" lengthAdjust="spacing" textLength="49.793" x="437" y="235.9951">player</text></g><!--cluster bot--><g class="cluster" data-entity="bot" data-source-line="236" data-uid="ent0050" id="cluster_bot"><path d="M699.5,264 L726.832,264 A3.75,3.75 0 0 1 729.332,266.5 L736.332,286.2969 L1783.5,286.2969 A2.5,2.5 0 0 1 1786,288.7969 L1786,737.5 A2.5,2.5 0 0 1 1783.5,740 L699.5,740 A2.5,2.5 0 0 1 697,737.5 L697,266.5 A2.5,2.5 0 0 1 699.5,264" fill="none" style="stroke:#000000;stroke-width:1.5;"/><line style="stroke:#000000;stroke-width:1.5;" x1="697" x2="736.332" y1="286.2969" y2="286.2969"/><text fill="#000000" font-family="sans-serif" font-size="14" font-weight="bold" lengthAdjust="spacing" textLength="26.332" x="701" y="278.9951">bot</text></g><!--cluster minimax--><g class="cluster" data-entity="minimax" data-source-line="246" data-uid="ent0053" id="cluster_minimax"><path d="M723.5,307 L791.7178,307 A3.75,3.75 0 0 1 794.2178,309.5 L801.2178,329.2969 L1651.5,329.2969 A2.5,2.5 0 0 1 1654,331.7969 L1654,562.5 A2.5,2.5 0 0 1 1651.5,565 L723.5,565 A2.5,2.5 0 0 1 721,562.5 L721,309.5 A2.5,2.5 0 0 1 723.5,307" fill="none" style="stroke:#000000;stroke-width:1.5;"/><line style="stroke:#000000;stroke-width:1.5;" x1="721" x2="801.2178" y1="329.2969" y2="329.2969"/><text fill="#000000" font-family="sans-serif" font-size="14" font-weight="bold" lengthAdjust="spacing" textLength="67.2178" x="725" y="321.9951">minimax</text></g><!--cluster exceptions--><g class="cluster" data-entity="exceptions" data-source-line="298" data-uid="ent0061" id="cluster_exceptions"><path d="M459.5,307 L546.25,307 A3.75,3.75 0 0 1 548.75,309.5 L555.75,329.2969 L670.5,329.2969 A2.5,2.5 0 0 1 673,331.7969 L673,387.5 A2.5,2.5 0 0 1 670.5,390 L459.5,390 A2.5,2.5 0 0 1 457,387.5 L457,309.5 A2.5,2.5 0 0 1 459.5,307" fill="none" style="stroke:#000000;stroke-width:1.5;"/><line style="stroke:#000000;stroke-width:1.5;" x1="457" x2="555.75" y1="329.2969" y2="329.2969"/><text fill="#000000" font-family="sans-serif" font-size="14" font-weight="bold" lengthAdjust="spacing" textLength="85.75" x="461" y="321.9951">exceptions</text></g><!--class Main--><g class="entity" data-entity="Main" data-source-line="2" data-uid="ent0002" id="entity_Main"><rect fill="#F1F1F1" height="32" rx="2.5" ry="2.5" style="stroke:#181818;stroke-width:0.5;" width="65.4209" x="338.5" y="342"/><ellipse cx="353.5" cy="358" fill="#ADD1B2" rx="11" ry="11" style="stroke:#181818;stroke-width:1;"/><path d="M356.4688,363.6406 Q355.8906,363.9375 355.25,364.0781 Q354.6094,364.2344 353.9063,364.2344 Q351.4063,364.2344 350.0781,362.5938 Q348.7656,360.9375 348.7656,357.8125 Q348.7656,354.6875 350.0781,353.0313 Q351.4063,351.375 353.9063,351.375 Q354.6094,351.375 355.25,351.5313 Q355.9063,351.6875 356.4688,351.9844 L356.4688,354.7031 Q355.8438,354.125 355.25,353.8594 Q354.6563,353.5781 354.0313,353.5781 Q352.6875,353.5781 352,354.6563 Q351.3125,355.7188 351.3125,357.8125 Q351.3125,359.9063 352,360.9844 Q352.6875,362.0469 354.0313,362.0469 Q354.6563,362.0469 355.25,361.7813 Q355.8438,361.5 356.4688,360.9219 L356.4688,363.6406 Z " fill="#000000"/><text fill="#000000" font-family="sans-serif" font-size="14" lengthAdjust="spacing" textLength="33.4209" x="367.5" y="362.8467">Main</text></g><!--class ThreadLocalUtils--><g class="entity" data-entity="ThreadLocalUtils" data-source-line="7" data-uid="ent0008" id="entity_ThreadLocalUtils"><rect fill="#F1F1F1" height="32" rx="2.5" ry="2.5" style="stroke:#181818;stroke-width:0.5;" width="148.6006" x="142.5" y="342"/><ellipse cx="157.5" cy="358" fill="#ADD1B2" rx="11" ry="11" style="stroke:#181818;stroke-width:1;"/><path d="M160.4688,363.6406 Q159.8906,363.9375 159.25,364.0781 Q158.6094,364.2344 157.9063,364.2344 Q155.4063,364.2344 154.0781,362.5938 Q152.7656,360.9375 152.7656,357.8125 Q152.7656,354.6875 154.0781,353.0313 Q155.4063,351.375 157.9063,351.375 Q158.6094,351.375 159.25,351.5313 Q159.9063,351.6875 160.4688,351.9844 L160.4688,354.7031 Q159.8438,354.125 159.25,353.8594 Q158.6563,353.5781 158.0313,353.5781 Q156.6875,353.5781 156,354.6563 Q155.3125,355.7188 155.3125,357.8125 Q155.3125,359.9063 156,360.9844 Q156.6875,362.0469 158.0313,362.0469 Q158.6563,362.0469 159.25,361.7813 Q159.8438,361.5 160.4688,360.9219 L160.4688,363.6406 Z " fill="#000000"/><text fill="#000000" font-family="sans-serif" font-size="14" lengthAdjust="spacing" textLength="116.6006" x="171.5" y="362.8467">ThreadLocalUtils</text></g><!--class FenUtil--><g class="entity" data-entity="FenUtil" data-source-line="12" data-uid="ent0009" id="entity_FenUtil"><rect fill="#F1F1F1" height="32" rx="2.5" ry="2.5" style="stroke:#181818;stroke-width:0.5;" width="81.0547" x="311.5" y="692"/><ellipse cx="326.5" cy="708" fill="#ADD1B2" rx="11" ry="11" style="stroke:#181818;stroke-width:1;"/><path d="M329.4688,713.6406 Q328.8906,713.9375 328.25,714.0781 Q327.6094,714.2344 326.9063,714.2344 Q324.4063,714.2344 323.0781,712.5938 Q321.7656,710.9375 321.7656,707.8125 Q321.7656,704.6875 323.0781,703.0313 Q324.4063,701.375 326.9063,701.375 Q327.6094,701.375 328.25,701.5313 Q328.9063,701.6875 329.4688,701.9844 L329.4688,704.7031 Q328.8438,704.125 328.25,703.8594 Q327.6563,703.5781 327.0313,703.5781 Q325.6875,703.5781 325,704.6563 Q324.3125,705.7188 324.3125,707.8125 Q324.3125,709.9063 325,710.9844 Q325.6875,712.0469 327.0313,712.0469 Q327.6563,712.0469 328.25,711.7813 Q328.8438,711.5 329.4688,710.9219 L329.4688,713.6406 Z " fill="#000000"/><text fill="#000000" font-family="sans-serif" font-size="14" lengthAdjust="spacing" textLength="49.0547" x="340.5" y="712.8467">FenUtil</text></g><!--class Piece--><g class="entity" data-entity="Piece" data-source-line="18" data-uid="ent0011" id="entity_Piece"><rect fill="#F1F1F1" height="32" rx="2.5" ry="2.5" style="stroke:#181818;stroke-width:0.5;" width="69.2559" x="207.5" y="692"/><ellipse cx="222.5" cy="708" fill="#ADD1B2" rx="11" ry="11" style="stroke:#181818;stroke-width:1;"/><path d="M225.4688,713.6406 Q224.8906,713.9375 224.25,714.0781 Q223.6094,714.2344 222.9063,714.2344 Q220.4063,714.2344 219.0781,712.5938 Q217.7656,710.9375 217.7656,707.8125 Q217.7656,704.6875 219.0781,703.0313 Q220.4063,701.375 222.9063,701.375 Q223.6094,701.375 224.25,701.5313 Q224.9063,701.6875 225.4688,701.9844 L225.4688,704.7031 Q224.8438,704.125 224.25,703.8594 Q223.6563,703.5781 223.0313,703.5781 Q221.6875,703.5781 221,704.6563 Q220.3125,705.7188 220.3125,707.8125 Q220.3125,709.9063 221,710.9844 Q221.6875,712.0469 223.0313,712.0469 Q223.6563,712.0469 224.25,711.7813 Q224.8438,711.5 225.4688,710.9219 L225.4688,713.6406 Z " fill="#000000"/><text fill="#000000" font-family="sans-serif" font-size="14" lengthAdjust="spacing" textLength="37.2559" x="236.5" y="712.8467">Piece</text></g><!--class PieceType--><g class="entity" data-entity="PieceType" data-source-line="29" data-uid="ent0012" id="entity_PieceType"><rect fill="#F1F1F1" height="32" rx="2.5" ry="2.5" style="stroke:#181818;stroke-width:0.5;" width="103.5928" x="142" y="827"/><ellipse cx="157" cy="843" fill="#EB937F" rx="11" ry="11" style="stroke:#181818;stroke-width:1;"/><path d="M161.1094,849 L153.3906,849 L153.3906,836.6094 L161.1094,836.6094 L161.1094,838.7656 L155.8438,838.7656 L155.8438,841.4375 L160.6094,841.4375 L160.6094,843.5938 L155.8438,843.5938 L155.8438,846.8438 L161.1094,846.8438 L161.1094,849 Z " fill="#000000"/><text fill="#000000" font-family="sans-serif" font-size="14" lengthAdjust="spacing" textLength="71.5928" x="171" y="847.8467">PieceType</text></g><!--class PlayerColor--><g class="entity" data-entity="PlayerColor" data-source-line="39" data-uid="ent0013" id="entity_PlayerColor"><rect fill="#F1F1F1" height="32" rx="2.5" ry="2.5" style="stroke:#181818;stroke-width:0.5;" width="112.1172" x="281" y="827"/><ellipse cx="296" cy="843" fill="#EB937F" rx="11" ry="11" style="stroke:#181818;stroke-width:1;"/><path d="M300.1094,849 L292.3906,849 L292.3906,836.6094 L300.1094,836.6094 L300.1094,838.7656 L294.8438,838.7656 L294.8438,841.4375 L299.6094,841.4375 L299.6094,843.5938 L294.8438,843.5938 L294.8438,846.8438 L300.1094,846.8438 L300.1094,849 Z " fill="#000000"/><text fill="#000000" font-family="sans-serif" font-size="14" lengthAdjust="spacing" textLength="80.1172" x="310" y="847.8467">PlayerColor</text></g><!--class ChessBoard--><g class="entity" data-entity="ChessBoard" data-source-line="45" data-uid="ent0014" id="entity_ChessBoard"><rect fill="#F1F1F1" height="32" rx="2.5" ry="2.5" style="stroke:#181818;stroke-width:0.5;" width="115.2412" x="4738.5" y="692"/><ellipse cx="4753.5" cy="708" fill="#ADD1B2" rx="11" ry="11" style="stroke:#181818;stroke-width:1;"/><path d="M4756.4688,713.6406 Q4755.8906,713.9375 4755.25,714.0781 Q4754.6094,714.2344 4753.9063,714.2344 Q4751.4063,714.2344 4750.0781,712.5938 Q4748.7656,710.9375 4748.7656,707.8125 Q4748.7656,704.6875 4750.0781,703.0313 Q4751.4063,701.375 4753.9063,701.375 Q4754.6094,701.375 4755.25,701.5313 Q4755.9063,701.6875 4756.4688,701.9844 L4756.4688,704.7031 Q4755.8438,704.125 4755.25,703.8594 Q4754.6563,703.5781 4754.0313,703.5781 Q4752.6875,703.5781 4752,704.6563 Q4751.3125,705.7188 4751.3125,707.8125 Q4751.3125,709.9063 4752,710.9844 Q4752.6875,712.0469 4754.0313,712.0469 Q4754.6563,712.0469 4755.25,711.7813 Q4755.8438,711.5 4756.4688,710.9219 L4756.4688,713.6406 Z " fill="#000000"/><text fill="#000000" font-family="sans-serif" font-size="14" lengthAdjust="spacing" textLength="83.2412" x="4767.5" y="712.8467">ChessBoard</text></g><!--class AlphanumericBorderFieldRenderer--><g class="entity" data-entity="AlphanumericBorderFieldRenderer" data-source-line="58" data-uid="ent0016" id="entity_AlphanumericBorderFieldRenderer"><rect fill="#F1F1F1" height="32" rx="2.5" ry="2.5" style="stroke:#181818;stroke-width:0.5;" width="274.498" x="5059" y="827"/><ellipse cx="5074" cy="843" fill="#ADD1B2" rx="11" ry="11" style="stroke:#181818;stroke-width:1;"/><path d="M5076.9688,848.6406 Q5076.3906,848.9375 5075.75,849.0781 Q5075.1094,849.2344 5074.4063,849.2344 Q5071.9063,849.2344 5070.5781,847.5938 Q5069.2656,845.9375 5069.2656,842.8125 Q5069.2656,839.6875 5070.5781,838.0313 Q5071.9063,836.375 5074.4063,836.375 Q5075.1094,836.375 5075.75,836.5313 Q5076.4063,836.6875 5076.9688,836.9844 L5076.9688,839.7031 Q5076.3438,839.125 5075.75,838.8594 Q5075.1563,838.5781 5074.5313,838.5781 Q5073.1875,838.5781 5072.5,839.6563 Q5071.8125,840.7188 5071.8125,842.8125 Q5071.8125,844.9063 5072.5,845.9844 Q5073.1875,847.0469 5074.5313,847.0469 Q5075.1563,847.0469 5075.75,846.7813 Q5076.3438,846.5 5076.9688,845.9219 L5076.9688,848.6406 Z " fill="#000000"/><text fill="#000000" font-family="sans-serif" font-size="14" lengthAdjust="spacing" textLength="242.498" x="5088" y="847.8467">AlphanumericBorderFieldRenderer</text></g><!--class BoardRenderer--><g class="entity" data-entity="BoardRenderer" data-source-line="72" data-uid="ent0018" id="entity_BoardRenderer"><rect fill="#F1F1F1" height="32" rx="2.5" ry="2.5" style="stroke:#181818;stroke-width:0.5;" width="138.2305" x="4886" y="827"/><ellipse cx="4901" cy="843" fill="#ADD1B2" rx="11" ry="11" style="stroke:#181818;stroke-width:1;"/><path d="M4903.9688,848.6406 Q4903.3906,848.9375 4902.75,849.0781 Q4902.1094,849.2344 4901.4063,849.2344 Q4898.9063,849.2344 4897.5781,847.5938 Q4896.2656,845.9375 4896.2656,842.8125 Q4896.2656,839.6875 4897.5781,838.0313 Q4898.9063,836.375 4901.4063,836.375 Q4902.1094,836.375 4902.75,836.5313 Q4903.4063,836.6875 4903.9688,836.9844 L4903.9688,839.7031 Q4903.3438,839.125 4902.75,838.8594 Q4902.1563,838.5781 4901.5313,838.5781 Q4900.1875,838.5781 4899.5,839.6563 Q4898.8125,840.7188 4898.8125,842.8125 Q4898.8125,844.9063 4899.5,845.9844 Q4900.1875,847.0469 4901.5313,847.0469 Q4902.1563,847.0469 4902.75,846.7813 Q4903.3438,846.5 4903.9688,845.9219 L4903.9688,848.6406 Z " fill="#000000"/><text fill="#000000" font-family="sans-serif" font-size="14" lengthAdjust="spacing" textLength="106.2305" x="4915" y="847.8467">BoardRenderer</text></g><!--class BorderFieldRenderer--><g class="entity" data-entity="BorderFieldRenderer" data-source-line="77" data-uid="ent0019" id="entity_BorderFieldRenderer"><rect fill="#F1F1F1" height="32" rx="2.5" ry="2.5" style="stroke:#181818;stroke-width:0.5;" width="177.3525" x="5079.5" y="938"/><ellipse cx="5094.5" cy="954" fill="#B4A7E5" rx="11" ry="11" style="stroke:#181818;stroke-width:1;"/><path d="M5090.4219,949.7656 L5090.4219,947.6094 L5097.8125,947.6094 L5097.8125,949.7656 L5095.3438,949.7656 L5095.3438,957.8438 L5097.8125,957.8438 L5097.8125,960 L5090.4219,960 L5090.4219,957.8438 L5092.8906,957.8438 L5092.8906,949.7656 L5090.4219,949.7656 Z " fill="#000000"/><text fill="#000000" font-family="sans-serif" font-size="14" font-style="italic" lengthAdjust="spacing" textLength="145.3525" x="5108.5" y="958.8467">BorderFieldRenderer</text></g><!--class ChessBoardRenderer--><g class="entity" data-entity="ChessBoardRenderer" data-source-line="83" data-uid="ent0020" id="entity_ChessBoardRenderer"><rect fill="#F1F1F1" height="32" rx="2.5" ry="2.5" style="stroke:#181818;stroke-width:0.5;" width="180.0801" x="5042" y="692"/><ellipse cx="5057" cy="708" fill="#ADD1B2" rx="11" ry="11" style="stroke:#181818;stroke-width:1;"/><path d="M5059.9688,713.6406 Q5059.3906,713.9375 5058.75,714.0781 Q5058.1094,714.2344 5057.4063,714.2344 Q5054.9063,714.2344 5053.5781,712.5938 Q5052.2656,710.9375 5052.2656,707.8125 Q5052.2656,704.6875 5053.5781,703.0313 Q5054.9063,701.375 5057.4063,701.375 Q5058.1094,701.375 5058.75,701.5313 Q5059.4063,701.6875 5059.9688,701.9844 L5059.9688,704.7031 Q5059.3438,704.125 5058.75,703.8594 Q5058.1563,703.5781 5057.5313,703.5781 Q5056.1875,703.5781 5055.5,704.6563 Q5054.8125,705.7188 5054.8125,707.8125 Q5054.8125,709.9063 5055.5,710.9844 Q5056.1875,712.0469 5057.5313,712.0469 Q5058.1563,712.0469 5058.75,711.7813 Q5059.3438,711.5 5059.9688,710.9219 L5059.9688,713.6406 Z " fill="#000000"/><text fill="#000000" font-family="sans-serif" font-size="14" lengthAdjust="spacing" textLength="148.0801" x="5071" y="712.8467">ChessBoardRenderer</text></g><!--class FieldRenderer--><g class="entity" data-entity="FieldRenderer" data-source-line="89" data-uid="ent0021" id="entity_FieldRenderer"><rect fill="#F1F1F1" height="32" rx="2.5" ry="2.5" style="stroke:#181818;stroke-width:0.5;" width="130.1709" x="4886" y="938"/><ellipse cx="4901" cy="954" fill="#B4A7E5" rx="11" ry="11" style="stroke:#181818;stroke-width:1;"/><path d="M4896.9219,949.7656 L4896.9219,947.6094 L4904.3125,947.6094 L4904.3125,949.7656 L4901.8438,949.7656 L4901.8438,957.8438 L4904.3125,957.8438 L4904.3125,960 L4896.9219,960 L4896.9219,957.8438 L4899.3906,957.8438 L4899.3906,949.7656 L4896.9219,949.7656 Z " fill="#000000"/><text fill="#000000" font-family="sans-serif" font-size="14" font-style="italic" lengthAdjust="spacing" textLength="98.1709" x="4915" y="958.8467">FieldRenderer</text></g><!--class SquareColor--><g class="entity" data-entity="SquareColor" data-source-line="94" data-uid="ent0022" id="entity_SquareColor"><rect fill="#F1F1F1" height="32" rx="2.5" ry="2.5" style="stroke:#181818;stroke-width:0.5;" width="118.1465" x="4889" y="692"/><ellipse cx="4904" cy="708" fill="#EB937F" rx="11" ry="11" style="stroke:#181818;stroke-width:1;"/><path d="M4908.1094,714 L4900.3906,714 L4900.3906,701.6094 L4908.1094,701.6094 L4908.1094,703.7656 L4902.8438,703.7656 L4902.8438,706.4375 L4907.6094,706.4375 L4907.6094,708.5938 L4902.8438,708.5938 L4902.8438,711.8438 L4908.1094,711.8438 L4908.1094,714 Z " fill="#000000"/><text fill="#000000" font-family="sans-serif" font-size="14" lengthAdjust="spacing" textLength="86.1465" x="4918" y="712.8467">SquareColor</text></g><!--class EvalStrategy--><g class="entity" data-entity="EvalStrategy" data-source-line="100" data-uid="ent0023" id="entity_EvalStrategy"><rect fill="#F1F1F1" height="32" rx="2.5" ry="2.5" style="stroke:#181818;stroke-width:0.5;" width="121.585" x="2061" y="827"/><ellipse cx="2076" cy="843" fill="#B4A7E5" rx="11" ry="11" style="stroke:#181818;stroke-width:1;"/><path d="M2071.9219,838.7656 L2071.9219,836.6094 L2079.3125,836.6094 L2079.3125,838.7656 L2076.8438,838.7656 L2076.8438,846.8438 L2079.3125,846.8438 L2079.3125,849 L2071.9219,849 L2071.9219,846.8438 L2074.3906,846.8438 L2074.3906,838.7656 L2071.9219,838.7656 Z " fill="#000000"/><text fill="#000000" font-family="sans-serif" font-size="14" font-style="italic" lengthAdjust="spacing" textLength="89.585" x="2090" y="847.8467">EvalStrategy</text></g><!--class MateAwareEval--><g class="entity" data-entity="MateAwareEval" data-source-line="105" data-uid="ent0025" id="entity_MateAwareEval"><rect fill="#F1F1F1" height="32" rx="2.5" ry="2.5" style="stroke:#181818;stroke-width:0.5;" width="140.3359" x="2316" y="692"/><ellipse cx="2331" cy="708" fill="#ADD1B2" rx="11" ry="11" style="stroke:#181818;stroke-width:1;"/><path d="M2333.9688,713.6406 Q2333.3906,713.9375 2332.75,714.0781 Q2332.1094,714.2344 2331.4063,714.2344 Q2328.9063,714.2344 2327.5781,712.5938 Q2326.2656,710.9375 2326.2656,707.8125 Q2326.2656,704.6875 2327.5781,703.0313 Q2328.9063,701.375 2331.4063,701.375 Q2332.1094,701.375 2332.75,701.5313 Q2333.4063,701.6875 2333.9688,701.9844 L2333.9688,704.7031 Q2333.3438,704.125 2332.75,703.8594 Q2332.1563,703.5781 2331.5313,703.5781 Q2330.1875,703.5781 2329.5,704.6563 Q2328.8125,705.7188 2328.8125,707.8125 Q2328.8125,709.9063 2329.5,710.9844 Q2330.1875,712.0469 2331.5313,712.0469 Q2332.1563,712.0469 2332.75,711.7813 Q2333.3438,711.5 2333.9688,710.9219 L2333.9688,713.6406 Z " fill="#000000"/><text fill="#000000" font-family="sans-serif" font-size="14" lengthAdjust="spacing" textLength="108.3359" x="2345" y="712.8467">MateAwareEval</text></g><!--class MaterialEval--><g class="entity" data-entity="MaterialEval" data-source-line="111" data-uid="ent0026" id="entity_MaterialEval"><rect fill="#F1F1F1" height="32" rx="2.5" ry="2.5" style="stroke:#181818;stroke-width:0.5;" width="118.4746" x="2163" y="692"/><ellipse cx="2178" cy="708" fill="#ADD1B2" rx="11" ry="11" style="stroke:#181818;stroke-width:1;"/><path d="M2180.9688,713.6406 Q2180.3906,713.9375 2179.75,714.0781 Q2179.1094,714.2344 2178.4063,714.2344 Q2175.9063,714.2344 2174.5781,712.5938 Q2173.2656,710.9375 2173.2656,707.8125 Q2173.2656,704.6875 2174.5781,703.0313 Q2175.9063,701.375 2178.4063,701.375 Q2179.1094,701.375 2179.75,701.5313 Q2180.4063,701.6875 2180.9688,701.9844 L2180.9688,704.7031 Q2180.3438,704.125 2179.75,703.8594 Q2179.1563,703.5781 2178.5313,703.5781 Q2177.1875,703.5781 2176.5,704.6563 Q2175.8125,705.7188 2175.8125,707.8125 Q2175.8125,709.9063 2176.5,710.9844 Q2177.1875,712.0469 2178.5313,712.0469 Q2179.1563,712.0469 2179.75,711.7813 Q2180.3438,711.5 2180.9688,710.9219 L2180.9688,713.6406 Z " fill="#000000"/><text fill="#000000" font-family="sans-serif" font-size="14" lengthAdjust="spacing" textLength="86.4746" x="2192" y="712.8467">MaterialEval</text></g><!--class RandomEval--><g class="entity" data-entity="RandomEval" data-source-line="118" data-uid="ent0027" id="entity_RandomEval"><rect fill="#F1F1F1" height="32" rx="2.5" ry="2.5" style="stroke:#181818;stroke-width:0.5;" width="119.8691" x="2008" y="692"/><ellipse cx="2023" cy="708" fill="#ADD1B2" rx="11" ry="11" style="stroke:#181818;stroke-width:1;"/><path d="M2025.9688,713.6406 Q2025.3906,713.9375 2024.75,714.0781 Q2024.1094,714.2344 2023.4063,714.2344 Q2020.9063,714.2344 2019.5781,712.5938 Q2018.2656,710.9375 2018.2656,707.8125 Q2018.2656,704.6875 2019.5781,703.0313 Q2020.9063,701.375 2023.4063,701.375 Q2024.1094,701.375 2024.75,701.5313 Q2025.4063,701.6875 2025.9688,701.9844 L2025.9688,704.7031 Q2025.3438,704.125 2024.75,703.8594 Q2024.1563,703.5781 2023.5313,703.5781 Q2022.1875,703.5781 2021.5,704.6563 Q2020.8125,705.7188 2020.8125,707.8125 Q2020.8125,709.9063 2021.5,710.9844 Q2022.1875,712.0469 2023.5313,712.0469 Q2024.1563,712.0469 2024.75,711.7813 Q2025.3438,711.5 2025.9688,710.9219 L2025.9688,713.6406 Z " fill="#000000"/><text fill="#000000" font-family="sans-serif" font-size="14" lengthAdjust="spacing" textLength="87.8691" x="2037" y="712.8467">RandomEval</text></g><!--class BotPlayerFactory--><g class="entity" data-entity="BotPlayerFactory" data-source-line="123" data-uid="ent0028" id="entity_BotPlayerFactory"><rect fill="#F1F1F1" height="32" rx="2.5" ry="2.5" style="stroke:#181818;stroke-width:0.5;" width="151.6494" x="3134" y="517"/><ellipse cx="3149" cy="533" fill="#ADD1B2" rx="11" ry="11" style="stroke:#181818;stroke-width:1;"/><path d="M3151.9688,538.6406 Q3151.3906,538.9375 3150.75,539.0781 Q3150.1094,539.2344 3149.4063,539.2344 Q3146.9063,539.2344 3145.5781,537.5938 Q3144.2656,535.9375 3144.2656,532.8125 Q3144.2656,529.6875 3145.5781,528.0313 Q3146.9063,526.375 3149.4063,526.375 Q3150.1094,526.375 3150.75,526.5313 Q3151.4063,526.6875 3151.9688,526.9844 L3151.9688,529.7031 Q3151.3438,529.125 3150.75,528.8594 Q3150.1563,528.5781 3149.5313,528.5781 Q3148.1875,528.5781 3147.5,529.6563 Q3146.8125,530.7188 3146.8125,532.8125 Q3146.8125,534.9063 3147.5,535.9844 Q3148.1875,537.0469 3149.5313,537.0469 Q3150.1563,537.0469 3150.75,536.7813 Q3151.3438,536.5 3151.9688,535.9219 L3151.9688,538.6406 Z " fill="#000000"/><text fill="#000000" font-family="sans-serif" font-size="14" lengthAdjust="spacing" textLength="119.6494" x="3163" y="537.8467">BotPlayerFactory</text></g><!--class ChessGame--><g class="entity" data-entity="ChessGame" data-source-line="133" data-uid="ent0030" id="entity_ChessGame"><rect fill="#F1F1F1" height="32" rx="2.5" ry="2.5" style="stroke:#181818;stroke-width:0.5;" width="115.5283" x="2667" y="517"/><ellipse cx="2682" cy="533" fill="#ADD1B2" rx="11" ry="11" style="stroke:#181818;stroke-width:1;"/><path d="M2684.9688,538.6406 Q2684.3906,538.9375 2683.75,539.0781 Q2683.1094,539.2344 2682.4063,539.2344 Q2679.9063,539.2344 2678.5781,537.5938 Q2677.2656,535.9375 2677.2656,532.8125 Q2677.2656,529.6875 2678.5781,528.0313 Q2679.9063,526.375 2682.4063,526.375 Q2683.1094,526.375 2683.75,526.5313 Q2684.4063,526.6875 2684.9688,526.9844 L2684.9688,529.7031 Q2684.3438,529.125 2683.75,528.8594 Q2683.1563,528.5781 2682.5313,528.5781 Q2681.1875,528.5781 2680.5,529.6563 Q2679.8125,530.7188 2679.8125,532.8125 Q2679.8125,534.9063 2680.5,535.9844 Q2681.1875,537.0469 2682.5313,537.0469 Q2683.1563,537.0469 2683.75,536.7813 Q2684.3438,536.5 2684.9688,535.9219 L2684.9688,538.6406 Z " fill="#000000"/><text fill="#000000" font-family="sans-serif" font-size="14" lengthAdjust="spacing" textLength="83.5283" x="2696" y="537.8467">ChessGame</text></g><!--class InputReader--><g class="entity" data-entity="InputReader" data-source-line="141" data-uid="ent0031" id="entity_InputReader"><rect fill="#F1F1F1" height="32" rx="2.5" ry="2.5" style="stroke:#181818;stroke-width:0.5;" width="118.4268" x="2624" y="692"/><ellipse cx="2639" cy="708" fill="#ADD1B2" rx="11" ry="11" style="stroke:#181818;stroke-width:1;"/><path d="M2641.9688,713.6406 Q2641.3906,713.9375 2640.75,714.0781 Q2640.1094,714.2344 2639.4063,714.2344 Q2636.9063,714.2344 2635.5781,712.5938 Q2634.2656,710.9375 2634.2656,707.8125 Q2634.2656,704.6875 2635.5781,703.0313 Q2636.9063,701.375 2639.4063,701.375 Q2640.1094,701.375 2640.75,701.5313 Q2641.4063,701.6875 2641.9688,701.9844 L2641.9688,704.7031 Q2641.3438,704.125 2640.75,703.8594 Q2640.1563,703.5781 2639.5313,703.5781 Q2638.1875,703.5781 2637.5,704.6563 Q2636.8125,705.7188 2636.8125,707.8125 Q2636.8125,709.9063 2637.5,710.9844 Q2638.1875,712.0469 2639.5313,712.0469 Q2640.1563,712.0469 2640.75,711.7813 Q2641.3438,711.5 2641.9688,710.9219 L2641.9688,713.6406 Z " fill="#000000"/><text fill="#000000" font-family="sans-serif" font-size="14" lengthAdjust="spacing" textLength="86.4268" x="2653" y="712.8467">InputReader</text></g><!--class MatchConfig--><g class="entity" data-entity="MatchConfig" data-source-line="147" data-uid="ent0032" id="entity_MatchConfig"><rect fill="#F1F1F1" height="32" rx="2.5" ry="2.5" style="stroke:#181818;stroke-width:0.5;" width="119.6367" x="2512" y="517"/><ellipse cx="2527" cy="533" fill="#ADD1B2" rx="11" ry="11" style="stroke:#181818;stroke-width:1;"/><path d="M2529.9688,538.6406 Q2529.3906,538.9375 2528.75,539.0781 Q2528.1094,539.2344 2527.4063,539.2344 Q2524.9063,539.2344 2523.5781,537.5938 Q2522.2656,535.9375 2522.2656,532.8125 Q2522.2656,529.6875 2523.5781,528.0313 Q2524.9063,526.375 2527.4063,526.375 Q2528.1094,526.375 2528.75,526.5313 Q2529.4063,526.6875 2529.9688,526.9844 L2529.9688,529.7031 Q2529.3438,529.125 2528.75,528.8594 Q2528.1563,528.5781 2527.5313,528.5781 Q2526.1875,528.5781 2525.5,529.6563 Q2524.8125,530.7188 2524.8125,532.8125 Q2524.8125,534.9063 2525.5,535.9844 Q2526.1875,537.0469 2527.5313,537.0469 Q2528.1563,537.0469 2528.75,536.7813 Q2529.3438,536.5 2529.9688,535.9219 L2529.9688,538.6406 Z " fill="#000000"/><text fill="#000000" font-family="sans-serif" font-size="14" lengthAdjust="spacing" textLength="87.6367" x="2541" y="537.8467">MatchConfig</text></g><!--class OutputWriter--><g class="entity" data-entity="OutputWriter" data-source-line="156" data-uid="ent0033" id="entity_OutputWriter"><rect fill="#F1F1F1" height="32" rx="2.5" ry="2.5" style="stroke:#181818;stroke-width:0.5;" width="123.9775" x="2898" y="692"/><ellipse cx="2913" cy="708" fill="#ADD1B2" rx="11" ry="11" style="stroke:#181818;stroke-width:1;"/><path d="M2915.9688,713.6406 Q2915.3906,713.9375 2914.75,714.0781 Q2914.1094,714.2344 2913.4063,714.2344 Q2910.9063,714.2344 2909.5781,712.5938 Q2908.2656,710.9375 2908.2656,707.8125 Q2908.2656,704.6875 2909.5781,703.0313 Q2910.9063,701.375 2913.4063,701.375 Q2914.1094,701.375 2914.75,701.5313 Q2915.4063,701.6875 2915.9688,701.9844 L2915.9688,704.7031 Q2915.3438,704.125 2914.75,703.8594 Q2914.1563,703.5781 2913.5313,703.5781 Q2912.1875,703.5781 2911.5,704.6563 Q2910.8125,705.7188 2910.8125,707.8125 Q2910.8125,709.9063 2911.5,710.9844 Q2912.1875,712.0469 2913.5313,712.0469 Q2914.1563,712.0469 2914.75,711.7813 Q2915.3438,711.5 2915.9688,710.9219 L2915.9688,713.6406 Z " fill="#000000"/><text fill="#000000" font-family="sans-serif" font-size="14" lengthAdjust="spacing" textLength="91.9775" x="2927" y="712.8467">OutputWriter</text></g><!--class GameAbortedException--><g class="entity" data-entity="GameAbortedException" data-source-line="166" data-uid="ent0034" id="entity_GameAbortedException"><rect fill="#F1F1F1" height="32" rx="2.5" ry="2.5" style="stroke:#181818;stroke-width:0.5;" width="198.5986" x="4458.5" y="517"/><ellipse cx="4473.5" cy="533" fill="#ADD1B2" rx="11" ry="11" style="stroke:#181818;stroke-width:1;"/><path d="M4476.4688,538.6406 Q4475.8906,538.9375 4475.25,539.0781 Q4474.6094,539.2344 4473.9063,539.2344 Q4471.4063,539.2344 4470.0781,537.5938 Q4468.7656,535.9375 4468.7656,532.8125 Q4468.7656,529.6875 4470.0781,528.0313 Q4471.4063,526.375 4473.9063,526.375 Q4474.6094,526.375 4475.25,526.5313 Q4475.9063,526.6875 4476.4688,526.9844 L4476.4688,529.7031 Q4475.8438,529.125 4475.25,528.8594 Q4474.6563,528.5781 4474.0313,528.5781 Q4472.6875,528.5781 4472,529.6563 Q4471.3125,530.7188 4471.3125,532.8125 Q4471.3125,534.9063 4472,535.9844 Q4472.6875,537.0469 4474.0313,537.0469 Q4474.6563,537.0469 4475.25,536.7813 Q4475.8438,536.5 4476.4688,535.9219 L4476.4688,538.6406 Z " fill="#000000"/><text fill="#000000" font-family="sans-serif" font-size="14" lengthAdjust="spacing" textLength="166.5986" x="4487.5" y="537.8467">GameAbortedException</text></g><!--class MatchAbortedException--><g class="entity" data-entity="MatchAbortedException" data-source-line="170" data-uid="ent0036" id="entity_MatchAbortedException"><rect fill="#F1F1F1" height="32" rx="2.5" ry="2.5" style="stroke:#181818;stroke-width:0.5;" width="199.6377" x="4223" y="517"/><ellipse cx="4238" cy="533" fill="#ADD1B2" rx="11" ry="11" style="stroke:#181818;stroke-width:1;"/><path d="M4240.9688,538.6406 Q4240.3906,538.9375 4239.75,539.0781 Q4239.1094,539.2344 4238.4063,539.2344 Q4235.9063,539.2344 4234.5781,537.5938 Q4233.2656,535.9375 4233.2656,532.8125 Q4233.2656,529.6875 4234.5781,528.0313 Q4235.9063,526.375 4238.4063,526.375 Q4239.1094,526.375 4239.75,526.5313 Q4240.4063,526.6875 4240.9688,526.9844 L4240.9688,529.7031 Q4240.3438,529.125 4239.75,528.8594 Q4239.1563,528.5781 4238.5313,528.5781 Q4237.1875,528.5781 4236.5,529.6563 Q4235.8125,530.7188 4235.8125,532.8125 Q4235.8125,534.9063 4236.5,535.9844 Q4237.1875,537.0469 4238.5313,537.0469 Q4239.1563,537.0469 4239.75,536.7813 Q4240.3438,536.5 4240.9688,535.9219 L4240.9688,538.6406 Z " fill="#000000"/><text fill="#000000" font-family="sans-serif" font-size="14" lengthAdjust="spacing" textLength="167.6377" x="4252" y="537.8467">MatchAbortedException</text></g><!--class BotAlgorithmProvider--><g class="entity" data-entity="BotAlgorithmProvider" data-source-line="174" data-uid="ent0037" id="entity_BotAlgorithmProvider"><rect fill="#F1F1F1" height="32" rx="2.5" ry="2.5" style="stroke:#181818;stroke-width:0.5;" width="182.418" x="3376" y="692"/><ellipse cx="3391" cy="708" fill="#B4A7E5" rx="11" ry="11" style="stroke:#181818;stroke-width:1;"/><path d="M3386.9219,703.7656 L3386.9219,701.6094 L3394.3125,701.6094 L3394.3125,703.7656 L3391.8438,703.7656 L3391.8438,711.8438 L3394.3125,711.8438 L3394.3125,714 L3386.9219,714 L3386.9219,711.8438 L3389.3906,711.8438 L3389.3906,703.7656 L3386.9219,703.7656 Z " fill="#000000"/><text fill="#000000" font-family="sans-serif" font-size="14" font-style="italic" lengthAdjust="spacing" textLength="150.418" x="3405" y="712.8467">BotAlgorithmProvider</text></g><!--class BotPlayerProvider--><g class="entity" data-entity="BotPlayerProvider" data-source-line="180" data-uid="ent0039" id="entity_BotPlayerProvider"><rect fill="#F1F1F1" height="32" rx="2.5" ry="2.5" style="stroke:#181818;stroke-width:0.5;" width="157.4189" x="3699.5" y="692"/><ellipse cx="3714.5" cy="708" fill="#B4A7E5" rx="11" ry="11" style="stroke:#181818;stroke-width:1;"/><path d="M3710.4219,703.7656 L3710.4219,701.6094 L3717.8125,701.6094 L3717.8125,703.7656 L3715.3438,703.7656 L3715.3438,711.8438 L3717.8125,711.8438 L3717.8125,714 L3710.4219,714 L3710.4219,711.8438 L3712.8906,711.8438 L3712.8906,703.7656 L3710.4219,703.7656 Z " fill="#000000"/><text fill="#000000" font-family="sans-serif" font-size="14" font-style="italic" lengthAdjust="spacing" textLength="125.4189" x="3728.5" y="712.8467">BotPlayerProvider</text></g><!--class MiniMaxBotPlayerProvider--><g class="entity" data-entity="MiniMaxBotPlayerProvider" data-source-line="187" data-uid="ent0040" id="entity_MiniMaxBotPlayerProvider"><rect fill="#F1F1F1" height="32" rx="2.5" ry="2.5" style="stroke:#181818;stroke-width:0.5;" width="215.0938" x="3951.5" y="517"/><ellipse cx="3966.5" cy="533" fill="#ADD1B2" rx="11" ry="11" style="stroke:#181818;stroke-width:1;"/><path d="M3969.4688,538.6406 Q3968.8906,538.9375 3968.25,539.0781 Q3967.6094,539.2344 3966.9063,539.2344 Q3964.4063,539.2344 3963.0781,537.5938 Q3961.7656,535.9375 3961.7656,532.8125 Q3961.7656,529.6875 3963.0781,528.0313 Q3964.4063,526.375 3966.9063,526.375 Q3967.6094,526.375 3968.25,526.5313 Q3968.9063,526.6875 3969.4688,526.9844 L3969.4688,529.7031 Q3968.8438,529.125 3968.25,528.8594 Q3967.6563,528.5781 3967.0313,528.5781 Q3965.6875,528.5781 3965,529.6563 Q3964.3125,530.7188 3964.3125,532.8125 Q3964.3125,534.9063 3965,535.9844 Q3965.6875,537.0469 3967.0313,537.0469 Q3967.6563,537.0469 3968.25,536.7813 Q3968.8438,536.5 3969.4688,535.9219 L3969.4688,538.6406 Z " fill="#000000"/><text fill="#000000" font-family="sans-serif" font-size="14" lengthAdjust="spacing" textLength="183.0938" x="3980.5" y="537.8467">MiniMaxBotPlayerProvider</text></g><!--class MiniMaxParallelAlgorithmProvider--><g class="entity" data-entity="MiniMaxParallelAlgorithmProvider" data-source-line="195" data-uid="ent0041" id="entity_MiniMaxParallelAlgorithmProvider"><rect fill="#F1F1F1" height="32" rx="2.5" ry="2.5" style="stroke:#181818;stroke-width:0.5;" width="268.0723" x="3648" y="517"/><ellipse cx="3663" cy="533" fill="#ADD1B2" rx="11" ry="11" style="stroke:#181818;stroke-width:1;"/><path d="M3665.9688,538.6406 Q3665.3906,538.9375 3664.75,539.0781 Q3664.1094,539.2344 3663.4063,539.2344 Q3660.9063,539.2344 3659.5781,537.5938 Q3658.2656,535.9375 3658.2656,532.8125 Q3658.2656,529.6875 3659.5781,528.0313 Q3660.9063,526.375 3663.4063,526.375 Q3664.1094,526.375 3664.75,526.5313 Q3665.4063,526.6875 3665.9688,526.9844 L3665.9688,529.7031 Q3665.3438,529.125 3664.75,528.8594 Q3664.1563,528.5781 3663.5313,528.5781 Q3662.1875,528.5781 3661.5,529.6563 Q3660.8125,530.7188 3660.8125,532.8125 Q3660.8125,534.9063 3661.5,535.9844 Q3662.1875,537.0469 3663.5313,537.0469 Q3664.1563,537.0469 3664.75,536.7813 Q3665.3438,536.5 3665.9688,535.9219 L3665.9688,538.6406 Z " fill="#000000"/><text fill="#000000" font-family="sans-serif" font-size="14" lengthAdjust="spacing" textLength="236.0723" x="3677" y="537.8467">MiniMaxParallelAlgorithmProvider</text></g><!--class MiniMaxSequentialAlgorithmProvider--><g class="entity" data-entity="MiniMaxSequentialAlgorithmProvider" data-source-line="202" data-uid="ent0042" id="entity_MiniMaxSequentialAlgorithmProvider"><rect fill="#F1F1F1" height="32" rx="2.5" ry="2.5" style="stroke:#181818;stroke-width:0.5;" width="291.0273" x="3321.5" y="517"/><ellipse cx="3336.5" cy="533" fill="#ADD1B2" rx="11" ry="11" style="stroke:#181818;stroke-width:1;"/><path d="M3339.4688,538.6406 Q3338.8906,538.9375 3338.25,539.0781 Q3337.6094,539.2344 3336.9063,539.2344 Q3334.4063,539.2344 3333.0781,537.5938 Q3331.7656,535.9375 3331.7656,532.8125 Q3331.7656,529.6875 3333.0781,528.0313 Q3334.4063,526.375 3336.9063,526.375 Q3337.6094,526.375 3338.25,526.5313 Q3338.9063,526.6875 3339.4688,526.9844 L3339.4688,529.7031 Q3338.8438,529.125 3338.25,528.8594 Q3337.6563,528.5781 3337.0313,528.5781 Q3335.6875,528.5781 3335,529.6563 Q3334.3125,530.7188 3334.3125,532.8125 Q3334.3125,534.9063 3335,535.9844 Q3335.6875,537.0469 3337.0313,537.0469 Q3337.6563,537.0469 3338.25,536.7813 Q3338.8438,536.5 3339.4688,535.9219 L3339.4688,538.6406 Z " fill="#000000"/><text fill="#000000" font-family="sans-serif" font-size="14" lengthAdjust="spacing" textLength="259.0273" x="3350.5" y="537.8467">MiniMaxSequentialAlgorithmProvider</text></g><!--class HomeScreen--><g class="entity" data-entity="HomeScreen" data-source-line="209" data-uid="ent0043" id="entity_HomeScreen"><rect fill="#F1F1F1" height="32" rx="2.5" ry="2.5" style="stroke:#181818;stroke-width:0.5;" width="121.7832" x="2977" y="517"/><ellipse cx="2992" cy="533" fill="#ADD1B2" rx="11" ry="11" style="stroke:#181818;stroke-width:1;"/><path d="M2994.9688,538.6406 Q2994.3906,538.9375 2993.75,539.0781 Q2993.1094,539.2344 2992.4063,539.2344 Q2989.9063,539.2344 2988.5781,537.5938 Q2987.2656,535.9375 2987.2656,532.8125 Q2987.2656,529.6875 2988.5781,528.0313 Q2989.9063,526.375 2992.4063,526.375 Q2993.1094,526.375 2993.75,526.5313 Q2994.4063,526.6875 2994.9688,526.9844 L2994.9688,529.7031 Q2994.3438,529.125 2993.75,528.8594 Q2993.1563,528.5781 2992.5313,528.5781 Q2991.1875,528.5781 2990.5,529.6563 Q2989.8125,530.7188 2989.8125,532.8125 Q2989.8125,534.9063 2990.5,535.9844 Q2991.1875,537.0469 2992.5313,537.0469 Q2993.1563,537.0469 2993.75,536.7813 Q2994.3438,536.5 2994.9688,535.9219 L2994.9688,538.6406 Z " fill="#000000"/><text fill="#000000" font-family="sans-serif" font-size="14" lengthAdjust="spacing" textLength="89.7832" x="3006" y="537.8467">HomeScreen</text></g><!--class MatchScreen--><g class="entity" data-entity="MatchScreen" data-source-line="217" data-uid="ent0045" id="entity_MatchScreen"><rect fill="#F1F1F1" height="32" rx="2.5" ry="2.5" style="stroke:#181818;stroke-width:0.5;" width="123.1572" x="2818.5" y="517"/><ellipse cx="2833.5" cy="533" fill="#ADD1B2" rx="11" ry="11" style="stroke:#181818;stroke-width:1;"/><path d="M2836.4688,538.6406 Q2835.8906,538.9375 2835.25,539.0781 Q2834.6094,539.2344 2833.9063,539.2344 Q2831.4063,539.2344 2830.0781,537.5938 Q2828.7656,535.9375 2828.7656,532.8125 Q2828.7656,529.6875 2830.0781,528.0313 Q2831.4063,526.375 2833.9063,526.375 Q2834.6094,526.375 2835.25,526.5313 Q2835.9063,526.6875 2836.4688,526.9844 L2836.4688,529.7031 Q2835.8438,529.125 2835.25,528.8594 Q2834.6563,528.5781 2834.0313,528.5781 Q2832.6875,528.5781 2832,529.6563 Q2831.3125,530.7188 2831.3125,532.8125 Q2831.3125,534.9063 2832,535.9844 Q2832.6875,537.0469 2834.0313,537.0469 Q2834.6563,537.0469 2835.25,536.7813 Q2835.8438,536.5 2836.4688,535.9219 L2836.4688,538.6406 Z " fill="#000000"/><text fill="#000000" font-family="sans-serif" font-size="14" lengthAdjust="spacing" textLength="91.1572" x="2847.5" y="537.8467">MatchScreen</text></g><!--class AbstractPlayer--><g class="entity" data-entity="AbstractPlayer" data-source-line="226" data-uid="ent0046" id="entity_AbstractPlayer"><rect fill="#F1F1F1" height="32" rx="2.5" ry="2.5" style="stroke:#181818;stroke-width:0.5;" width="134.334" x="1802" y="692"/><ellipse cx="1817" cy="708" fill="#A9DCDF" rx="11" ry="11" style="stroke:#181818;stroke-width:1;"/><path d="M1817.1094,703.3438 L1815.9531,708.4219 L1818.2813,708.4219 L1817.1094,703.3438 Z M1815.625,701.1094 L1818.6094,701.1094 L1821.9688,713.5 L1819.5156,713.5 L1818.75,710.4375 L1815.4688,710.4375 L1814.7188,713.5 L1812.2813,713.5 L1815.625,701.1094 Z " fill="#000000"/><text fill="#000000" font-family="sans-serif" font-size="14" font-style="italic" lengthAdjust="spacing" textLength="102.334" x="1831" y="712.8467">AbstractPlayer</text></g><!--class HumanPlayer--><g class="entity" data-entity="HumanPlayer" data-source-line="231" data-uid="ent0048" id="entity_HumanPlayer"><rect fill="#F1F1F1" height="32" rx="2.5" ry="2.5" style="stroke:#181818;stroke-width:0.5;" width="126.0557" x="1808" y="517"/><ellipse cx="1823" cy="533" fill="#ADD1B2" rx="11" ry="11" style="stroke:#181818;stroke-width:1;"/><path d="M1825.9688,538.6406 Q1825.3906,538.9375 1824.75,539.0781 Q1824.1094,539.2344 1823.4063,539.2344 Q1820.9063,539.2344 1819.5781,537.5938 Q1818.2656,535.9375 1818.2656,532.8125 Q1818.2656,529.6875 1819.5781,528.0313 Q1820.9063,526.375 1823.4063,526.375 Q1824.1094,526.375 1824.75,526.5313 Q1825.4063,526.6875 1825.9688,526.9844 L1825.9688,529.7031 Q1825.3438,529.125 1824.75,528.8594 Q1824.1563,528.5781 1823.5313,528.5781 Q1822.1875,528.5781 1821.5,529.6563 Q1820.8125,530.7188 1820.8125,532.8125 Q1820.8125,534.9063 1821.5,535.9844 Q1822.1875,537.0469 1823.5313,537.0469 Q1824.1563,537.0469 1824.75,536.7813 Q1825.3438,536.5 1825.9688,535.9219 L1825.9688,538.6406 Z " fill="#000000"/><text fill="#000000" font-family="sans-serif" font-size="14" lengthAdjust="spacing" textLength="94.0557" x="1837" y="537.8467">HumanPlayer</text></g><!--class BotAlgorithm--><g class="entity" data-entity="BotAlgorithm" data-source-line="236" data-uid="ent0049" id="entity_BotAlgorithm"><rect fill="#F1F1F1" height="32" rx="2.5" ry="2.5" style="stroke:#181818;stroke-width:0.5;" width="124.2236" x="1344" y="692"/><ellipse cx="1359" cy="708" fill="#A9DCDF" rx="11" ry="11" style="stroke:#181818;stroke-width:1;"/><path d="M1359.1094,703.3438 L1357.9531,708.4219 L1360.2813,708.4219 L1359.1094,703.3438 Z M1357.625,701.1094 L1360.6094,701.1094 L1363.9688,713.5 L1361.5156,713.5 L1360.75,710.4375 L1357.4688,710.4375 L1356.7188,713.5 L1354.2813,713.5 L1357.625,701.1094 Z " fill="#000000"/><text fill="#000000" font-family="sans-serif" font-size="14" font-style="italic" lengthAdjust="spacing" textLength="92.2236" x="1373" y="712.8467">BotAlgorithm</text></g><!--class BotPlayer--><g class="entity" data-entity="BotPlayer" data-source-line="242" data-uid="ent0051" id="entity_BotPlayer"><rect fill="#F1F1F1" height="32" rx="2.5" ry="2.5" style="stroke:#181818;stroke-width:0.5;" width="99.2246" x="1670.5" y="517"/><ellipse cx="1685.5" cy="533" fill="#A9DCDF" rx="11" ry="11" style="stroke:#181818;stroke-width:1;"/><path d="M1685.6094,528.3438 L1684.4531,533.4219 L1686.7813,533.4219 L1685.6094,528.3438 Z M1684.125,526.1094 L1687.1094,526.1094 L1690.4688,538.5 L1688.0156,538.5 L1687.25,535.4375 L1683.9688,535.4375 L1683.2188,538.5 L1680.7813,538.5 L1684.125,526.1094 Z " fill="#000000"/><text fill="#000000" font-family="sans-serif" font-size="14" font-style="italic" lengthAdjust="spacing" textLength="67.2246" x="1699.5" y="537.8467">BotPlayer</text></g><!--class MiniMaxAlgo--><g class="entity" data-entity="MiniMaxAlgo" data-source-line="246" data-uid="ent0052" id="entity_MiniMaxAlgo"><rect fill="#F1F1F1" height="32" rx="2.5" ry="2.5" style="stroke:#181818;stroke-width:0.5;" width="120.5938" x="935.5" y="517"/><ellipse cx="950.5" cy="533" fill="#A9DCDF" rx="11" ry="11" style="stroke:#181818;stroke-width:1;"/><path d="M950.6094,528.3438 L949.4531,533.4219 L951.7813,533.4219 L950.6094,528.3438 Z M949.125,526.1094 L952.1094,526.1094 L955.4688,538.5 L953.0156,538.5 L952.25,535.4375 L948.9688,535.4375 L948.2188,538.5 L945.7813,538.5 L949.125,526.1094 Z " fill="#000000"/><text fill="#000000" font-family="sans-serif" font-size="14" font-style="italic" lengthAdjust="spacing" textLength="88.5938" x="964.5" y="537.8467">MiniMaxAlgo</text></g><!--class MiniMaxBotPlayer--><g class="entity" data-entity="MiniMaxBotPlayer" data-source-line="250" data-uid="ent0054" id="entity_MiniMaxBotPlayer"><rect fill="#F1F1F1" height="32" rx="2.5" ry="2.5" style="stroke:#181818;stroke-width:0.5;" width="156.8994" x="1254.5" y="342"/><ellipse cx="1269.5" cy="358" fill="#ADD1B2" rx="11" ry="11" style="stroke:#181818;stroke-width:1;"/><path d="M1272.4688,363.6406 Q1271.8906,363.9375 1271.25,364.0781 Q1270.6094,364.2344 1269.9063,364.2344 Q1267.4063,364.2344 1266.0781,362.5938 Q1264.7656,360.9375 1264.7656,357.8125 Q1264.7656,354.6875 1266.0781,353.0313 Q1267.4063,351.375 1269.9063,351.375 Q1270.6094,351.375 1271.25,351.5313 Q1271.9063,351.6875 1272.4688,351.9844 L1272.4688,354.7031 Q1271.8438,354.125 1271.25,353.8594 Q1270.6563,353.5781 1270.0313,353.5781 Q1268.6875,353.5781 1268,354.6563 Q1267.3125,355.7188 1267.3125,357.8125 Q1267.3125,359.9063 1268,360.9844 Q1268.6875,362.0469 1270.0313,362.0469 Q1270.6563,362.0469 1271.25,361.7813 Q1271.8438,361.5 1272.4688,360.9219 L1272.4688,363.6406 Z " fill="#000000"/><text fill="#000000" font-family="sans-serif" font-size="14" lengthAdjust="spacing" textLength="124.8994" x="1283.5" y="362.8467">MiniMaxBotPlayer</text></g><!--class MiniMaxParallel--><g class="entity" data-entity="MiniMaxParallel" data-source-line="255" data-uid="ent0055" id="entity_MiniMaxParallel"><rect fill="#F1F1F1" height="32" rx="2.5" ry="2.5" style="stroke:#181818;stroke-width:0.5;" width="141.3135" x="737.5" y="342"/><ellipse cx="752.5" cy="358" fill="#ADD1B2" rx="11" ry="11" style="stroke:#181818;stroke-width:1;"/><path d="M755.4688,363.6406 Q754.8906,363.9375 754.25,364.0781 Q753.6094,364.2344 752.9063,364.2344 Q750.4063,364.2344 749.0781,362.5938 Q747.7656,360.9375 747.7656,357.8125 Q747.7656,354.6875 749.0781,353.0313 Q750.4063,351.375 752.9063,351.375 Q753.6094,351.375 754.25,351.5313 Q754.9063,351.6875 755.4688,351.9844 L755.4688,354.7031 Q754.8438,354.125 754.25,353.8594 Q753.6563,353.5781 753.0313,353.5781 Q751.6875,353.5781 751,354.6563 Q750.3125,355.7188 750.3125,357.8125 Q750.3125,359.9063 751,360.9844 Q751.6875,362.0469 753.0313,362.0469 Q753.6563,362.0469 754.25,361.7813 Q754.8438,361.5 755.4688,360.9219 L755.4688,363.6406 Z " fill="#000000"/><text fill="#000000" font-family="sans-serif" font-size="14" lengthAdjust="spacing" textLength="109.3135" x="766.5" y="362.8467">MiniMaxParallel</text></g><!--class MiniMaxRecursiveTask--><g class="entity" data-entity="MiniMaxRecursiveTask" data-source-line="260" data-uid="ent0056" id="entity_MiniMaxRecursiveTask"><rect fill="#F1F1F1" height="32" rx="2.5" ry="2.5" style="stroke:#181818;stroke-width:0.5;" width="190.9561" x="1446.5" y="342"/><ellipse cx="1461.5" cy="358" fill="#ADD1B2" rx="11" ry="11" style="stroke:#181818;stroke-width:1;"/><path d="M1464.4688,363.6406 Q1463.8906,363.9375 1463.25,364.0781 Q1462.6094,364.2344 1461.9063,364.2344 Q1459.4063,364.2344 1458.0781,362.5938 Q1456.7656,360.9375 1456.7656,357.8125 Q1456.7656,354.6875 1458.0781,353.0313 Q1459.4063,351.375 1461.9063,351.375 Q1462.6094,351.375 1463.25,351.5313 Q1463.9063,351.6875 1464.4688,351.9844 L1464.4688,354.7031 Q1463.8438,354.125 1463.25,353.8594 Q1462.6563,353.5781 1462.0313,353.5781 Q1460.6875,353.5781 1460,354.6563 Q1459.3125,355.7188 1459.3125,357.8125 Q1459.3125,359.9063 1460,360.9844 Q1460.6875,362.0469 1462.0313,362.0469 Q1462.6563,362.0469 1463.25,361.7813 Q1463.8438,361.5 1464.4688,360.9219 L1464.4688,363.6406 Z " fill="#000000"/><text fill="#000000" font-family="sans-serif" font-size="14" lengthAdjust="spacing" textLength="158.9561" x="1475.5" y="362.8467">MiniMaxRecursiveTask</text></g><!--class MiniMaxSequential--><g class="entity" data-entity="MiniMaxSequential" data-source-line="268" data-uid="ent0057" id="entity_MiniMaxSequential"><rect fill="#F1F1F1" height="32" rx="2.5" ry="2.5" style="stroke:#181818;stroke-width:0.5;" width="164.2686" x="914" y="342"/><ellipse cx="929" cy="358" fill="#ADD1B2" rx="11" ry="11" style="stroke:#181818;stroke-width:1;"/><path d="M931.9688,363.6406 Q931.3906,363.9375 930.75,364.0781 Q930.1094,364.2344 929.4063,364.2344 Q926.9063,364.2344 925.5781,362.5938 Q924.2656,360.9375 924.2656,357.8125 Q924.2656,354.6875 925.5781,353.0313 Q926.9063,351.375 929.4063,351.375 Q930.1094,351.375 930.75,351.5313 Q931.4063,351.6875 931.9688,351.9844 L931.9688,354.7031 Q931.3438,354.125 930.75,353.8594 Q930.1563,353.5781 929.5313,353.5781 Q928.1875,353.5781 927.5,354.6563 Q926.8125,355.7188 926.8125,357.8125 Q926.8125,359.9063 927.5,360.9844 Q928.1875,362.0469 929.5313,362.0469 Q930.1563,362.0469 930.75,361.7813 Q931.3438,361.5 931.9688,360.9219 L931.9688,363.6406 Z " fill="#000000"/><text fill="#000000" font-family="sans-serif" font-size="14" lengthAdjust="spacing" textLength="132.2686" x="943" y="362.8467">MiniMaxSequential</text></g><!--class MoveHistoryNode--><g class="entity" data-entity="MoveHistoryNode" data-source-line="275" data-uid="ent0058" id="entity_MoveHistoryNode"><rect fill="#F1F1F1" height="32" rx="2.5" ry="2.5" style="stroke:#181818;stroke-width:0.5;" width="155.8877" x="1274" y="517"/><ellipse cx="1289" cy="533" fill="#ADD1B2" rx="11" ry="11" style="stroke:#181818;stroke-width:1;"/><path d="M1291.9688,538.6406 Q1291.3906,538.9375 1290.75,539.0781 Q1290.1094,539.2344 1289.4063,539.2344 Q1286.9063,539.2344 1285.5781,537.5938 Q1284.2656,535.9375 1284.2656,532.8125 Q1284.2656,529.6875 1285.5781,528.0313 Q1286.9063,526.375 1289.4063,526.375 Q1290.1094,526.375 1290.75,526.5313 Q1291.4063,526.6875 1291.9688,526.9844 L1291.9688,529.7031 Q1291.3438,529.125 1290.75,528.8594 Q1290.1563,528.5781 1289.5313,528.5781 Q1288.1875,528.5781 1287.5,529.6563 Q1286.8125,530.7188 1286.8125,532.8125 Q1286.8125,534.9063 1287.5,535.9844 Q1288.1875,537.0469 1289.5313,537.0469 Q1290.1563,537.0469 1290.75,536.7813 Q1291.3438,536.5 1291.9688,535.9219 L1291.9688,538.6406 Z " fill="#000000"/><text fill="#000000" font-family="sans-serif" font-size="14" lengthAdjust="spacing" textLength="123.8877" x="1303" y="537.8467">MoveHistoryNode</text></g><!--class MoveNode--><g class="entity" data-entity="MoveNode" data-source-line="287" data-uid="ent0059" id="entity_MoveNode"><rect fill="#F1F1F1" height="32" rx="2.5" ry="2.5" style="stroke:#181818;stroke-width:0.5;" width="106.0811" x="1113" y="342"/><ellipse cx="1128" cy="358" fill="#ADD1B2" rx="11" ry="11" style="stroke:#181818;stroke-width:1;"/><path d="M1130.9688,363.6406 Q1130.3906,363.9375 1129.75,364.0781 Q1129.1094,364.2344 1128.4063,364.2344 Q1125.9063,364.2344 1124.5781,362.5938 Q1123.2656,360.9375 1123.2656,357.8125 Q1123.2656,354.6875 1124.5781,353.0313 Q1125.9063,351.375 1128.4063,351.375 Q1129.1094,351.375 1129.75,351.5313 Q1130.4063,351.6875 1130.9688,351.9844 L1130.9688,354.7031 Q1130.3438,354.125 1129.75,353.8594 Q1129.1563,353.5781 1128.5313,353.5781 Q1127.1875,353.5781 1126.5,354.6563 Q1125.8125,355.7188 1125.8125,357.8125 Q1125.8125,359.9063 1126.5,360.9844 Q1127.1875,362.0469 1128.5313,362.0469 Q1129.1563,362.0469 1129.75,361.7813 Q1130.3438,361.5 1130.9688,360.9219 L1130.9688,363.6406 Z " fill="#000000"/><text fill="#000000" font-family="sans-serif" font-size="14" lengthAdjust="spacing" textLength="74.0811" x="1142" y="362.8467">MoveNode</text></g><!--class InvalidMoveException--><g class="entity" data-entity="InvalidMoveException" data-source-line="298" data-uid="ent0060" id="entity_InvalidMoveException"><rect fill="#F1F1F1" height="32" rx="2.5" ry="2.5" style="stroke:#181818;stroke-width:0.5;" width="185.2207" x="472.5" y="342"/><ellipse cx="487.5" cy="358" fill="#ADD1B2" rx="11" ry="11" style="stroke:#181818;stroke-width:1;"/><path d="M490.4688,363.6406 Q489.8906,363.9375 489.25,364.0781 Q488.6094,364.2344 487.9063,364.2344 Q485.4063,364.2344 484.0781,362.5938 Q482.7656,360.9375 482.7656,357.8125 Q482.7656,354.6875 484.0781,353.0313 Q485.4063,351.375 487.9063,351.375 Q488.6094,351.375 489.25,351.5313 Q489.9063,351.6875 490.4688,351.9844 L490.4688,354.7031 Q489.8438,354.125 489.25,353.8594 Q488.6563,353.5781 488.0313,353.5781 Q486.6875,353.5781 486,354.6563 Q485.3125,355.7188 485.3125,357.8125 Q485.3125,359.9063 486,360.9844 Q486.6875,362.0469 488.0313,362.0469 Q488.6563,362.0469 489.25,361.7813 Q489.8438,361.5 490.4688,360.9219 L490.4688,363.6406 Z " fill="#000000"/><text fill="#000000" font-family="sans-serif" font-size="14" lengthAdjust="spacing" textLength="153.2207" x="501.5" y="362.8467">InvalidMoveException</text></g><!--reverse link Piece to PieceType--><g class="link" data-entity-1="Piece" data-entity-2="PieceType" data-source-line="305" data-uid="lnk62" id="link_Piece_PieceType"><path codeLine="305" d="M232.4152,735.547 C223.1552,761.197 208.66,801.39 199.44,826.92" fill="none" id="Piece-backto-PieceType" style="stroke:#181818;stroke-width:1;"/><polygon fill="#181818" points="236.49,724.26,230.6903,728.5452,232.4152,735.547,238.215,731.2618,236.49,724.26" style="stroke:#181818;stroke-width:1;"/><text fill="#000000" font-family="sans-serif" font-size="13" lengthAdjust="spacing" textLength="29.0405" x="216" y="793.0669">type</text></g><!--reverse link Piece to PlayerColor--><g class="link" data-entity-1="Piece" data-entity-2="PlayerColor" data-source-line="306" data-uid="lnk63" id="link_Piece_PlayerColor"><path codeLine="306" d="M259.8745,734.0251 C278.1945,759.6751 307.99,801.39 326.23,826.92" fill="none" id="Piece-backto-PlayerColor" style="stroke:#181818;stroke-width:1;"/><polygon fill="#181818" points="252.9,724.26,253.1322,731.4674,259.8745,734.0251,259.6423,726.8177,252.9,724.26" style="stroke:#181818;stroke-width:1;"/><text fill="#000000" font-family="sans-serif" font-size="13" lengthAdjust="spacing" textLength="32.0112" x="304" y="793.0669">color</text></g><!--link AlphanumericBorderFieldRenderer to BorderFieldRenderer--><g class="link" data-entity-1="AlphanumericBorderFieldRenderer" data-entity-2="BorderFieldRenderer" data-source-line="307" data-uid="lnk64" id="link_AlphanumericBorderFieldRenderer_BorderFieldRenderer"><path codeLine="307" d="M5201.68,859.15 C5205.76,872.39 5209.63,891.94 5204,908 C5200.03,919.33 5204.1674,916.7756 5196.6174,924.8456" fill="none" id="AlphanumericBorderFieldRenderer-to-BorderFieldRenderer" style="stroke:#181818;stroke-width:1;stroke-dasharray:7,7;"/><polygon fill="none" points="5184.32,937.99,5200.9988,928.9448,5192.2359,920.7465,5184.32,937.99" style="stroke:#181818;stroke-width:1;"/></g><!--reverse link BoardRenderer to BorderFieldRenderer--><g class="link" data-entity-1="BoardRenderer" data-entity-2="BorderFieldRenderer" data-source-line="308" data-uid="lnk65" id="link_BoardRenderer_BorderFieldRenderer"><path codeLine="308" d="M4987.4061,865.5885 C5008.2761,879.2685 5030.51,892.98 5060,908 C5081.9,919.16 5107.23,929.82 5127.85,937.96" fill="none" id="BoardRenderer-backto-BorderFieldRenderer" style="stroke:#181818;stroke-width:1;"/><polygon fill="#181818" points="4977.37,859.01,4980.1952,865.6446,4987.4061,865.5885,4984.5809,858.9539,4977.37,859.01" style="stroke:#181818;stroke-width:1;"/><text fill="#000000" font-family="sans-serif" font-size="13" lengthAdjust="spacing" textLength="134.3037" x="5061" y="904.0669">borderFieldRenderer</text></g><!--reverse link BoardRenderer to FieldRenderer--><g class="link" data-entity-1="BoardRenderer" data-entity-2="FieldRenderer" data-source-line="309" data-uid="lnk66" id="link_BoardRenderer_FieldRenderer"><path codeLine="309" d="M4940.7575,869.7585 C4936.1075,878.7085 4936.39,879.81 4934,891 C4930.55,907.16 4936.78,925.35 4942.64,937.83" fill="none" id="BoardRenderer-backto-FieldRenderer" style="stroke:#181818;stroke-width:1;"/><polygon fill="#181818" points="4946.29,859.11,4939.9742,862.5901,4940.7575,869.7585,4947.0733,866.2784,4946.29,859.11" style="stroke:#181818;stroke-width:1;"/><text fill="#000000" font-family="sans-serif" font-size="13" lengthAdjust="spacing" textLength="88.2578" x="4935" y="904.0669">fieldRenderer</text></g><!--reverse link ChessBoardRenderer to BoardRenderer--><g class="link" data-entity-1="ChessBoardRenderer" data-entity-2="BoardRenderer" data-source-line="310" data-uid="lnk67" id="link_ChessBoardRenderer_BoardRenderer"><path codeLine="310" d="M5102.1051,731.4667 C5067.9551,757.1167 5009.05,801.39 4975.07,826.92" fill="none" id="ChessBoardRenderer-backto-BoardRenderer" style="stroke:#181818;stroke-width:1;"/><polygon fill="#181818" points="5111.7,724.26,5104.5003,724.6651,5102.1051,731.4667,5109.3048,731.0617,5111.7,724.26" style="stroke:#181818;stroke-width:1;"/><text fill="#000000" font-family="sans-serif" font-size="13" lengthAdjust="spacing" textLength="97.9761" x="5033" y="793.0669">boardRenderer</text></g><!--reverse link MateAwareEval to EvalStrategy--><g class="link" data-entity-1="MateAwareEval" data-entity-2="EvalStrategy" data-source-line="311" data-uid="lnk68" id="link_MateAwareEval_EvalStrategy"><path codeLine="311" d="M2358.5599,731.7364 C2341.5599,745.4864 2324.34,758.1 2299,772 C2298.19,772.44 2211.98,806.49 2160.19,826.93" fill="none" id="MateAwareEval-backto-EvalStrategy" style="stroke:#181818;stroke-width:1;"/><polygon fill="#181818" points="2367.89,724.19,2360.7095,724.8532,2358.5599,731.7364,2365.7404,731.0733,2367.89,724.19" style="stroke:#181818;stroke-width:1;"/><text fill="#000000" font-family="sans-serif" font-size="13" lengthAdjust="spacing" textLength="82.9702" x="2277" y="793.0669">evalStrategy</text></g><!--link MateAwareEval to EvalStrategy--><g class="link" data-entity-1="MateAwareEval" data-entity-2="EvalStrategy" data-source-line="312" data-uid="lnk69" id="link_MateAwareEval_EvalStrategy"><path codeLine="312" d="M2387.4,724.14 C2388.31,743.83 2386.64,777.96 2367,797 C2341.38,821.83 2264.954,831.931 2201.094,836.981" fill="none" id="MateAwareEval-to-EvalStrategy" style="stroke:#181818;stroke-width:1;stroke-dasharray:7,7;"/><polygon fill="none" points="2183.15,838.4,2201.567,842.9623,2200.621,830.9997,2183.15,838.4" style="stroke:#181818;stroke-width:1;"/></g><!--link MaterialEval to EvalStrategy--><g class="link" data-entity-1="MaterialEval" data-entity-2="EvalStrategy" data-source-line="313" data-uid="lnk70" id="link_MaterialEval_EvalStrategy"><path codeLine="313" d="M2210.53,724.26 C2191.24,749.91 2163.3589,787.0042 2144.1589,812.5342" fill="none" id="MaterialEval-to-EvalStrategy" style="stroke:#181818;stroke-width:1;stroke-dasharray:7,7;"/><polygon fill="none" points="2133.34,826.92,2148.9542,816.1405,2139.3637,808.9279,2133.34,826.92" style="stroke:#181818;stroke-width:1;"/></g><!--link RandomEval to EvalStrategy--><g class="link" data-entity-1="RandomEval" data-entity-2="EvalStrategy" data-source-line="314" data-uid="lnk71" id="link_RandomEval_EvalStrategy"><path codeLine="314" d="M2074.19,724.26 C2084.61,749.91 2098.7361,784.7132 2109.1061,810.2432" fill="none" id="RandomEval-to-EvalStrategy" style="stroke:#181818;stroke-width:1;stroke-dasharray:7,7;"/><polygon fill="none" points="2115.88,826.92,2114.665,807.9853,2103.5472,812.5012,2115.88,826.92" style="stroke:#181818;stroke-width:1;"/></g><!--reverse link BotPlayerFactory to BotAlgorithmProvider--><g class="link" data-entity-1="BotPlayerFactory" data-entity-2="BotAlgorithmProvider" data-source-line="315" data-uid="lnk72" id="link_BotPlayerFactory_BotAlgorithmProvider"><path codeLine="315" d="M3210.468,561.1046 C3211.228,576.0846 3214.36,586.43 3229,598 C3253.97,617.74 3343.15,592.56 3372,606 C3412.15,624.7 3443.66,668.7 3458.21,691.96" fill="none" id="BotPlayerFactory-backto-BotAlgorithmProvider" style="stroke:#181818;stroke-width:1;"/><polygon fill="none" points="3209.86,549.12,3206.1692,555.315,3210.468,561.1046,3214.1589,554.9096,3209.86,549.12" style="stroke:#181818;stroke-width:1;"/><text fill="#000000" font-family="sans-serif" font-size="13" lengthAdjust="spacing" textLength="86.4932" x="3230" y="594.0669">ALGORITHMS</text><text fill="#000000" font-family="sans-serif" font-size="13" lengthAdjust="spacing" textLength="8.271" x="3200.5916" y="569.033">1</text><text fill="#000000" font-family="sans-serif" font-size="13" lengthAdjust="spacing" textLength="23.0356" x="3428.1696" y="680.9578">0..*</text></g><!--reverse link BotPlayerFactory to BotPlayerProvider--><g class="link" data-entity-1="BotPlayerFactory" data-entity-2="BotPlayerProvider" data-source-line="316" data-uid="lnk73" id="link_BotPlayerFactory_BotPlayerProvider"><path codeLine="316" d="M3252.2194,554.0925 C3270.6494,562.4025 3283.71,567.22 3306,573 C3423.02,603.35 3460.25,571.13 3576,606 C3644.51,626.64 3718,669.18 3754.55,691.91" fill="none" id="BotPlayerFactory-backto-BotPlayerProvider" style="stroke:#181818;stroke-width:1;"/><polygon fill="none" points="3241.28,549.16,3245.1055,555.2727,3252.2194,554.0925,3248.3939,547.9798,3241.28,549.16" style="stroke:#181818;stroke-width:1;"/><text fill="#000000" font-family="sans-serif" font-size="13" lengthAdjust="spacing" textLength="91.0063" x="3544" y="594.0669">BOT_PLAYERS</text><text fill="#000000" font-family="sans-serif" font-size="13" lengthAdjust="spacing" textLength="8.271" x="3242.4194" y="569.0863">1</text><text fill="#000000" font-family="sans-serif" font-size="13" lengthAdjust="spacing" textLength="23.0356" x="3719.4701" y="680.8907">0..*</text></g><!--reverse link MatchConfig to AbstractPlayer--><g class="link" data-entity-1="MatchConfig" data-entity-2="AbstractPlayer" data-source-line="317" data-uid="lnk74" id="link_MatchConfig_AbstractPlayer"><path codeLine="317" d="M2499.9118,537.113 C2342.6818,544.103 1941.7,563.51 1918,581 C1881.93,607.62 1872.41,664.66 1869.9,691.9" fill="none" id="MatchConfig-backto-AbstractPlayer" style="stroke:#181818;stroke-width:1;"/><polygon fill="#181818" points="2511.9,536.58,2505.7283,532.8504,2499.9118,537.113,2506.0836,540.8425,2511.9,536.58" style="stroke:#181818;stroke-width:1;"/><text fill="#000000" font-family="sans-serif" font-size="13" lengthAdjust="spacing" textLength="34.5059" x="1919" y="594.0669">black</text></g><!--reverse link MatchConfig to AbstractPlayer--><g class="link" data-entity-1="MatchConfig" data-entity-2="AbstractPlayer" data-source-line="318" data-uid="lnk75" id="link_MatchConfig_AbstractPlayer"><path codeLine="318" d="M2499.9426,538.4162 C2328.3026,548.9662 1859.79,578.02 1857,581 C1828.61,611.31 1848.68,665.55 1861.13,691.86" fill="none" id="MatchConfig-backto-AbstractPlayer-1" style="stroke:#181818;stroke-width:1;"/><polygon fill="#181818" points="2511.92,537.68,2505.6859,534.0556,2499.9426,538.4162,2506.1767,542.0406,2511.92,537.68" style="stroke:#181818;stroke-width:1;"/><text fill="#000000" font-family="sans-serif" font-size="13" lengthAdjust="spacing" textLength="35.5786" x="1858" y="594.0669">white</text></g><!--link MiniMaxBotPlayerProvider to BotPlayerProvider--><g class="link" data-entity-1="MiniMaxBotPlayerProvider" data-entity-2="BotPlayerProvider" data-source-line="319" data-uid="lnk76" id="link_MiniMaxBotPlayerProvider_BotPlayerProvider"><path codeLine="319" d="M4034.55,549.05 C3981.41,581.77 3871.1875,649.6224 3817.9175,682.4224" fill="none" id="MiniMaxBotPlayerProvider-to-BotPlayerProvider" style="stroke:#181818;stroke-width:1;stroke-dasharray:7,7;"/><polygon fill="none" points="3802.59,691.86,3821.0633,687.5316,3814.7716,677.3132,3802.59,691.86" style="stroke:#181818;stroke-width:1;"/></g><!--link MiniMaxParallelAlgorithmProvider to BotAlgorithmProvider--><g class="link" data-entity-1="MiniMaxParallelAlgorithmProvider" data-entity-2="BotAlgorithmProvider" data-source-line="320" data-uid="lnk77" id="link_MiniMaxParallelAlgorithmProvider_BotAlgorithmProvider"><path codeLine="320" d="M3754.6,549.05 C3695.02,581.77 3570.057,650.3948 3510.337,683.1948" fill="none" id="MiniMaxParallelAlgorithmProvider-to-BotAlgorithmProvider" style="stroke:#181818;stroke-width:1;stroke-dasharray:7,7;"/><polygon fill="none" points="3494.56,691.86,3513.2254,688.4538,3507.4486,677.9358,3494.56,691.86" style="stroke:#181818;stroke-width:1;"/></g><!--link MiniMaxSequentialAlgorithmProvider to BotAlgorithmProvider--><g class="link" data-entity-1="MiniMaxSequentialAlgorithmProvider" data-entity-2="BotAlgorithmProvider" data-source-line="321" data-uid="lnk78" id="link_MiniMaxSequentialAlgorithmProvider_BotAlgorithmProvider"><path codeLine="321" d="M3467,549.05 C3467,581.77 3467,641.06 3467,673.86" fill="none" id="MiniMaxSequentialAlgorithmProvider-to-BotAlgorithmProvider" style="stroke:#181818;stroke-width:1;stroke-dasharray:7,7;"/><polygon fill="none" points="3467,691.86,3473,673.86,3461,673.86,3467,691.86" style="stroke:#181818;stroke-width:1;"/></g><!--reverse link HomeScreen to InputReader--><g class="link" data-entity-1="HomeScreen" data-entity-2="InputReader" data-source-line="322" data-uid="lnk79" id="link_HomeScreen_InputReader"><path codeLine="322" d="M3003.2825,554.961 C2988.1225,563.561 2978.33,567.73 2959,573 C2912.56,585.66 2896.07,564.1 2851,581 C2785.46,605.58 2723.73,664.16 2696.96,691.92" fill="none" id="HomeScreen-backto-InputReader" style="stroke:#181818;stroke-width:1;"/><polygon fill="#181818" points="3013.72,549.04,3006.5276,548.5213,3003.2825,554.961,3010.4749,555.4797,3013.72,549.04" style="stroke:#181818;stroke-width:1;"/><text fill="#000000" font-family="sans-serif" font-size="13" lengthAdjust="spacing" textLength="42.9038" x="2852" y="594.0669">reader</text></g><!--reverse link HomeScreen to OutputWriter--><g class="link" data-entity-1="HomeScreen" data-entity-2="OutputWriter" data-source-line="323" data-uid="lnk80" id="link_HomeScreen_OutputWriter"><path codeLine="323" d="M3026.2784,559.9898 C3011.5284,592.7098 2981.61,659.06 2966.83,691.86" fill="none" id="HomeScreen-backto-OutputWriter" style="stroke:#181818;stroke-width:1;"/><polygon fill="#181818" points="3031.21,549.05,3025.0976,552.876,3026.2784,559.9898,3032.3908,556.1638,3031.21,549.05" style="stroke:#181818;stroke-width:1;"/><text fill="#000000" font-family="sans-serif" font-size="13" lengthAdjust="spacing" textLength="38.0288" x="3015" y="594.0669">writer</text></g><!--reverse link MatchScreen to ChessBoardRenderer--><g class="link" data-entity-1="MatchScreen" data-entity-2="ChessBoardRenderer" data-source-line="324" data-uid="lnk81" id="link_MatchScreen_ChessBoardRenderer"><path codeLine="324" d="M2914.1951,555.1151 C2929.5751,563.9851 2939.99,568.33 2960,573 C3003.55,583.16 4525.3,579.66 4570,581 C4671.22,584.03 4931.96,566.03 5025,606 C5068.19,624.55 5104.57,668.61 5121.62,691.93" fill="none" id="MatchScreen-backto-ChessBoardRenderer" style="stroke:#181818;stroke-width:1;"/><polygon fill="#181818" points="2903.8,549.12,2906.9992,555.5826,2914.1951,555.1151,2910.9959,548.6525,2903.8,549.12" style="stroke:#181818;stroke-width:1;"/><text fill="#000000" font-family="sans-serif" font-size="13" lengthAdjust="spacing" textLength="135.5732" x="5000" y="594.0669">chessBoardRenderer</text></g><!--reverse link MatchScreen to OutputWriter--><g class="link" data-entity-1="MatchScreen" data-entity-2="OutputWriter" data-source-line="325" data-uid="lnk82" id="link_MatchScreen_OutputWriter"><path codeLine="325" d="M2891.9965,559.9419 C2907.1265,592.6619 2937.83,659.06 2953,691.86" fill="none" id="MatchScreen-backto-OutputWriter" style="stroke:#181818;stroke-width:1;"/><polygon fill="#181818" points="2886.96,549.05,2885.8476,556.1748,2891.9965,559.9419,2893.1089,552.8171,2886.96,549.05" style="stroke:#181818;stroke-width:1;"/><text fill="#000000" font-family="sans-serif" font-size="13" lengthAdjust="spacing" textLength="38.0288" x="2909" y="594.0669">writer</text></g><!--reverse link MatchScreen to AbstractPlayer--><g class="link" data-entity-1="MatchScreen" data-entity-2="AbstractPlayer" data-source-line="326" data-uid="lnk83" id="link_MatchScreen_AbstractPlayer"><path codeLine="326" d="M2851.2873,555.9879 C2838.9473,564.8079 2831.82,568.16 2815,573 C2771.1,585.62 2448.88,572.52 2404,581 C2382.58,585.05 2379.41,593.93 2358,598 C2318.04,605.6 2030.14,591.87 1992,606 C1944.32,623.66 1901.64,668.11 1881.4,691.72" fill="none" id="MatchScreen-backto-AbstractPlayer" style="stroke:#181818;stroke-width:1;"/><polygon fill="#181818" points="2861.05,549.01,2853.8427,549.2447,2851.2873,555.9879,2858.4946,555.7531,2861.05,549.01" style="stroke:#181818;stroke-width:1;"/><text fill="#000000" font-family="sans-serif" font-size="13" lengthAdjust="spacing" textLength="34.5059" x="2405" y="594.0669">black</text></g><!--reverse link MatchScreen to AbstractPlayer--><g class="link" data-entity-1="MatchScreen" data-entity-2="AbstractPlayer" data-source-line="327" data-uid="lnk84" id="link_MatchScreen_AbstractPlayer"><path codeLine="327" d="M2850.994,556.1491 C2838.674,564.9191 2831.69,568.18 2815,573 C2776.99,583.99 2494.88,564.32 2459,581 C2449.86,585.25 2453.15,593.77 2444,598 C2398.4,619.07 2039.14,588.65 1992,606 C1944.29,623.56 1901.62,668.05 1881.39,691.69" fill="none" id="MatchScreen-backto-AbstractPlayer-1" style="stroke:#181818;stroke-width:1;"/><polygon fill="#181818" points="2860.77,549.19,2853.5623,549.4109,2850.994,556.1491,2858.2017,555.9282,2860.77,549.19" style="stroke:#181818;stroke-width:1;"/><text fill="#000000" font-family="sans-serif" font-size="13" lengthAdjust="spacing" textLength="35.5786" x="2460" y="594.0669">white</text></g><!--link MatchScreen to AbstractPlayer--><g class="link" data-entity-1="MatchScreen" data-entity-2="AbstractPlayer" data-source-line="329" data-uid="lnk86" id="link_MatchScreen_AbstractPlayer"><path codeLine="329" d="M2861.07,549.07 C2848.73,557.9 2831.84,568.25 2815,573 C2771.1,585.39 2036.02,563.26 1994,581 C1939.5,604.01 1899.6807,658.3304 1881.5507,686.5804" fill="none" id="MatchScreen-to-AbstractPlayer" style="stroke:#181818;stroke-width:1;"/><polygon fill="#181818" points="1878.31,691.63,1886.5374,686.2161,1881.0105,687.422,1879.8046,681.8952,1878.31,691.63" style="stroke:#181818;stroke-width:1;"/><text fill="#000000" font-family="sans-serif" font-size="13" lengthAdjust="spacing" textLength="87.8643" x="1995" y="594.0669">currentPlayer</text></g><!--link MatchScreen to ChessBoard--><g class="link" data-entity-1="MatchScreen" data-entity-2="ChessBoard" data-source-line="328" data-uid="lnk85" id="link_MatchScreen_ChessBoard"><path codeLine="328" d="M2903.8,549.12 C2919.18,557.98 2939.99,568.32 2960,573 C3038.5,591.34 4331.43,568.09 4411,581 C4545.15,602.77 4690.6502,661.1047 4756.6202,689.5447" fill="none" id="MatchScreen-to-ChessBoard" style="stroke:#181818;stroke-width:1;"/><polygon fill="#181818" points="4762.13,691.92,4755.4488,684.6838,4757.5385,689.9406,4752.2818,692.0302,4762.13,691.92" style="stroke:#181818;stroke-width:1;"/><text fill="#000000" font-family="sans-serif" font-size="13" lengthAdjust="spacing" textLength="74.6992" x="4487" y="594.0669">chessboard</text></g><!--reverse link AbstractPlayer to PlayerColor--><g class="link" data-entity-1="AbstractPlayer" data-entity-2="PlayerColor" data-source-line="330" data-uid="lnk87" id="link_AbstractPlayer_PlayerColor"><path codeLine="330" d="M1846.6653,732.5757 C1831.4253,747.9257 1813.84,762.29 1786,772 C1766.53,778.79 1435.6,779.19 1415,780 C1023.51,795.47 552.74,827.01 393.08,838.06" fill="none" id="AbstractPlayer-backto-PlayerColor" style="stroke:#181818;stroke-width:1;"/><polygon fill="#181818" points="1855.12,724.06,1848.0541,725.4996,1846.6653,732.5757,1853.7312,731.1361,1855.12,724.06" style="stroke:#181818;stroke-width:1;"/><text fill="#000000" font-family="sans-serif" font-size="13" lengthAdjust="spacing" textLength="74.8071" x="1416" y="793.0669">playerColor</text></g><!--reverse link HumanPlayer to InputReader--><g class="link" data-entity-1="HumanPlayer" data-entity-2="InputReader" data-source-line="331" data-uid="lnk88" id="link_HumanPlayer_InputReader"><path codeLine="331" d="M1946.0491,543.1041 C2015.6891,551.7241 2119.1,565.17 2218,581 C2259.06,587.57 2268.7,593.19 2310,598 C2345.8,602.17 2437.06,597.16 2472,606 C2544.44,624.34 2621.75,668.49 2659.51,691.88" fill="none" id="HumanPlayer-backto-InputReader" style="stroke:#181818;stroke-width:1;"/><polygon fill="#181818" points="1934.14,541.63,1939.6032,546.3368,1946.0491,543.1041,1940.5859,538.3973,1934.14,541.63" style="stroke:#181818;stroke-width:1;"/><text fill="#000000" font-family="sans-serif" font-size="13" lengthAdjust="spacing" textLength="42.9038" x="2311" y="594.0669">reader</text></g><!--link HumanPlayer to AbstractPlayer--><g class="link" data-entity-1="HumanPlayer" data-entity-2="AbstractPlayer" data-source-line="332" data-uid="lnk89" id="link_HumanPlayer_AbstractPlayer"><path codeLine="332" d="M1839.8,549.12 C1827.54,556.83 1814.79,567.46 1808,581 C1788.06,620.75 1814.9298,655.476 1839.2098,679.216" fill="none" id="HumanPlayer-to-AbstractPlayer" style="stroke:#181818;stroke-width:1;"/><polygon fill="none" points="1852.08,691.8,1843.4044,674.9259,1835.0151,683.5061,1852.08,691.8" style="stroke:#181818;stroke-width:1;"/></g><!--reverse link BotAlgorithm to PlayerColor--><g class="link" data-entity-1="BotAlgorithm" data-entity-2="PlayerColor" data-source-line="333" data-uid="lnk90" id="link_BotAlgorithm_PlayerColor"><path codeLine="333" d="M1332.0018,718.2115 C1140.9418,741.9815 575.69,812.3 393.05,835.03" fill="none" id="BotAlgorithm-backto-PlayerColor" style="stroke:#181818;stroke-width:1;"/><polygon fill="#181818" points="1343.91,716.73,1337.4621,713.5014,1332.0018,718.2115,1338.4497,721.4402,1343.91,716.73" style="stroke:#181818;stroke-width:1;"/><text fill="#000000" font-family="sans-serif" font-size="13" lengthAdjust="spacing" textLength="101.2197" x="808" y="793.0669">ownPlayerColor</text></g><!--reverse link BotAlgorithm to EvalStrategy--><g class="link" data-entity-1="BotAlgorithm" data-entity-2="EvalStrategy" data-source-line="334" data-uid="lnk91" id="link_BotAlgorithm_EvalStrategy"><path codeLine="334" d="M1424.38,733.581 C1436.15,748.541 1448.87,761.26 1472,772 C1575.84,820.22 1919.71,835.91 2060.79,840.4" fill="none" id="BotAlgorithm-backto-EvalStrategy" style="stroke:#181818;stroke-width:1;"/><polygon fill="#181818" points="1416.96,724.15,1417.5263,731.3388,1424.38,733.581,1423.8137,726.3922,1416.96,724.15" style="stroke:#181818;stroke-width:1;"/><text fill="#000000" font-family="sans-serif" font-size="13" lengthAdjust="spacing" textLength="82.9702" x="1548" y="793.0669">evalStrategy</text></g><!--reverse link BotPlayer to BotAlgorithm--><g class="link" data-entity-1="BotPlayer" data-entity-2="BotAlgorithm" data-source-line="335" data-uid="lnk92" id="link_BotPlayer_BotAlgorithm"><path codeLine="335" d="M1690.5479,555.9209 C1678.0079,564.6409 1670.84,568 1654,573 C1634.17,578.88 1485.32,569.69 1468,581 C1429.01,606.45 1413.69,664.06 1408.42,691.68" fill="none" id="BotPlayer-backto-BotAlgorithm" style="stroke:#181818;stroke-width:1;"/><polygon fill="#181818" points="1700.4,549.07,1693.1903,549.2114,1690.5479,555.9209,1697.7576,555.7795,1700.4,549.07" style="stroke:#181818;stroke-width:1;"/><text fill="#000000" font-family="sans-serif" font-size="13" lengthAdjust="spacing" textLength="84.9697" x="1469" y="594.0669">botAlgorithm</text></g><!--link BotPlayer to AbstractPlayer--><g class="link" data-entity-1="BotPlayer" data-entity-2="AbstractPlayer" data-source-line="336" data-uid="lnk93" id="link_BotPlayer_AbstractPlayer"><path codeLine="336" d="M1734.41,549.23 C1747.94,563.66 1768.66,586.02 1786,606 C1811.89,635.82 1829.6967,657.6954 1845.6467,677.6654" fill="none" id="BotPlayer-to-AbstractPlayer" style="stroke:#181818;stroke-width:1;"/><polygon fill="none" points="1856.88,691.73,1850.3348,673.921,1840.9585,681.4099,1856.88,691.73" style="stroke:#181818;stroke-width:1;"/></g><!--link MiniMaxAlgo to BotAlgorithm--><g class="link" data-entity-1="MiniMaxAlgo" data-entity-2="BotAlgorithm" data-source-line="337" data-uid="lnk94" id="link_MiniMaxAlgo_BotAlgorithm"><path codeLine="337" d="M1031.67,549.05 C1109.31,581.81 1276.2658,652.2625 1353.8358,684.9925" fill="none" id="MiniMaxAlgo-to-BotAlgorithm" style="stroke:#181818;stroke-width:1;"/><polygon fill="none" points="1370.42,691.99,1356.1684,679.4644,1351.5033,690.5205,1370.42,691.99" style="stroke:#181818;stroke-width:1;"/></g><!--link MiniMaxBotPlayer to BotPlayer--><g class="link" data-entity-1="MiniMaxBotPlayer" data-entity-2="BotPlayer" data-source-line="338" data-uid="lnk95" id="link_MiniMaxBotPlayer_BotPlayer"><path codeLine="338" d="M1364.77,374.16 C1383.16,382.35 1406.96,392 1429,398 C1526.52,424.54 1568.84,376.56 1654,431 C1686.12,451.53 1699.4654,477.1209 1708.2354,499.9109" fill="none" id="MiniMaxBotPlayer-to-BotPlayer" style="stroke:#181818;stroke-width:1;"/><polygon fill="none" points="1714.7,516.71,1713.8351,497.7561,1702.6357,502.0658,1714.7,516.71" style="stroke:#181818;stroke-width:1;"/></g><!--link MiniMaxParallel to MiniMaxAlgo--><g class="link" data-entity-1="MiniMaxParallel" data-entity-2="MiniMaxAlgo" data-source-line="339" data-uid="lnk96" id="link_MiniMaxParallel_MiniMaxAlgo"><path codeLine="339" d="M824.35,374.05 C859.91,406.77 930.6653,471.8707 966.3053,504.6707" fill="none" id="MiniMaxParallel-to-MiniMaxAlgo" style="stroke:#181818;stroke-width:1;"/><polygon fill="none" points="979.55,516.86,970.3684,500.2558,962.2422,509.0856,979.55,516.86" style="stroke:#181818;stroke-width:1;"/></g><!--reverse link MiniMaxRecursiveTask to PlayerColor--><g class="link" data-entity-1="MiniMaxRecursiveTask" data-entity-2="PlayerColor" data-source-line="340" data-uid="lnk97" id="link_MiniMaxRecursiveTask_PlayerColor"><path codeLine="340" d="M1495.9447,378.4725 C1473.9747,387.1825 1455.93,392.97 1429,398 C1381.56,406.86 1260.17,403.07 1212,406 C981.01,420.07 333.24,424.24 190,606 C137.35,672.8 138.2,740.75 202,797 C214.19,807.74 249.47,819.32 280.91,828.04" fill="none" id="MiniMaxRecursiveTask-backto-PlayerColor" style="stroke:#181818;stroke-width:1;"/><polygon fill="#181818" points="1507.1,374.05,1500.0482,372.5428,1495.9447,378.4725,1502.9965,379.9797,1507.1,374.05" style="stroke:#181818;stroke-width:1;"/><text fill="#000000" font-family="sans-serif" font-size="13" lengthAdjust="spacing" textLength="84.6206" x="213" y="594.0669">playerAtTurn</text></g><!--reverse link MiniMaxRecursiveTask to ChessBoard--><g class="link" data-entity-1="MiniMaxRecursiveTask" data-entity-2="ChessBoard" data-source-line="341" data-uid="lnk98" id="link_MiniMaxRecursiveTask_ChessBoard"><path codeLine="341" d="M1649.8596,359.9038 C2168.8396,364.3938 4609.3,387.79 4674,431 C4721.27,462.57 4776.06,638.93 4791.66,691.93" fill="none" id="MiniMaxRecursiveTask-backto-ChessBoard" style="stroke:#181818;stroke-width:1;"/><polygon fill="#181818" points="1637.86,359.8,1643.8252,363.8518,1649.8596,359.9038,1643.8944,355.8521,1637.86,359.8" style="stroke:#181818;stroke-width:1;"/><text fill="#000000" font-family="sans-serif" font-size="13" lengthAdjust="spacing" textLength="75.3657" x="4752" y="537.5669">chessBoard</text></g><!--reverse link MiniMaxRecursiveTask to EvalStrategy--><g class="link" data-entity-1="MiniMaxRecursiveTask" data-entity-2="EvalStrategy" data-source-line="342" data-uid="lnk99" id="link_MiniMaxRecursiveTask_EvalStrategy"><path codeLine="342" d="M1649.4558,369.8321 C1753.2158,381.4221 1899.29,401.8 1952,431 C2030.46,474.46 2054.87,497.26 2087,581 C2089.71,588.05 2092.12,592.44 2087,598 C2072.5,613.75 2005.5,590.25 1991,606 C1941.04,660.29 1953.07,708.72 1991,772 C2007.31,799.2 2038.19,816.43 2065.87,826.98" fill="none" id="MiniMaxRecursiveTask-backto-EvalStrategy" style="stroke:#181818;stroke-width:1;"/><polygon fill="#181818" points="1637.53,368.5,1643.0489,373.1413,1649.4558,369.8321,1643.937,365.1908,1637.53,368.5" style="stroke:#181818;stroke-width:1;"/><text fill="#000000" font-family="sans-serif" font-size="13" lengthAdjust="spacing" textLength="82.9702" x="2091" y="594.0669">evalStrategy</text></g><!--reverse link MiniMaxRecursiveTask to MoveHistoryNode--><g class="link" data-entity-1="MiniMaxRecursiveTask" data-entity-2="MoveHistoryNode" data-source-line="343" data-uid="lnk100" id="link_MiniMaxRecursiveTask_MoveHistoryNode"><path codeLine="343" d="M1504.2737,380.1548 C1481.4137,393.4848 1459,408.25 1434,431 C1404.44,457.91 1376.55,495.89 1362.16,516.77" fill="none" id="MiniMaxRecursiveTask-backto-MoveHistoryNode" style="stroke:#181818;stroke-width:1;"/><polygon fill="#181818" points="1514.64,374.11,1507.4419,373.6769,1504.2737,380.1548,1511.4718,380.5878,1514.64,374.11" style="stroke:#181818;stroke-width:1;"/><text fill="#000000" font-family="sans-serif" font-size="13" lengthAdjust="spacing" textLength="44.7129" x="1465" y="419.0669">history</text></g><!--link MiniMaxSequential to MiniMaxAlgo--><g class="link" data-entity-1="MiniMaxSequential" data-entity-2="MiniMaxAlgo" data-source-line="344" data-uid="lnk101" id="link_MiniMaxSequential_MiniMaxAlgo"><path codeLine="344" d="M996,374.05 C996,406.77 996,466.06 996,498.86" fill="none" id="MiniMaxSequential-to-MiniMaxAlgo" style="stroke:#181818;stroke-width:1;"/><polygon fill="none" points="996,516.86,1002,498.86,990,498.86,996,516.86" style="stroke:#181818;stroke-width:1;"/></g><!--reverse link MoveHistoryNode to MoveHistoryNode--><g class="link" data-entity-1="MoveHistoryNode" data-entity-2="MoveHistoryNode" data-source-line="345" data-uid="lnk102" id="link_MoveHistoryNode_MoveHistoryNode"><path codeLine="345" d="M1442.153,523.0398 C1462.053,523.7198 1465,526.77 1465,533 C1465,539.23 1450.06,542.69 1430.16,543.37" fill="none" id="MoveHistoryNode-backto-MoveHistoryNode" style="stroke:#181818;stroke-width:1;"/><polygon fill="#181818" points="1430.16,522.63,1436.0199,526.8326,1442.153,523.0398,1436.2931,518.8372,1430.16,522.63" style="stroke:#181818;stroke-width:1;"/><text fill="#000000" font-family="sans-serif" font-size="13" lengthAdjust="spacing" textLength="42.8975" x="1471" y="537.5669">parent</text></g><!--reverse link MoveNode to MoveHistoryNode--><g class="link" data-entity-1="MoveNode" data-entity-2="MoveHistoryNode" data-source-line="346" data-uid="lnk103" id="link_MoveNode_MoveHistoryNode"><path codeLine="346" d="M1190.9669,382.2225 C1226.1469,414.9425 1300.46,484.06 1335.72,516.86" fill="none" id="MoveNode-backto-MoveHistoryNode" style="stroke:#181818;stroke-width:1;"/><polygon fill="#181818" points="1182.18,374.05,1183.8493,381.0652,1190.9669,382.2225,1189.2976,375.2073,1182.18,374.05" style="stroke:#181818;stroke-width:1;"/><text fill="#000000" font-family="sans-serif" font-size="13" lengthAdjust="spacing" textLength="44.7129" x="1232" y="419.0669">history</text></g><!--SRC=[xLfRRziu5dvU_mgXyv9EQc6TphvaWGLinucD-hQskjt1F0IqH5jgTV6AKjAWq_djUqXTJ5cKH5sS6GpcnP0bdWlFZHyFgTk844KtLPFOeQeZeZe46-hEzdPxYvZg0bckygttjsyE3apF-AuetqY00al_hlpcq6zNRvLRvScpZDxtNg-dLx3JJ1yZO-xfoFuOM3OfO7tjOuA3BVl7aIXNoX7vo1bJAGEGonwKTz7RRU1Rxk46NaTFIYtDTeXWzHwxLAqYhGuuW15hZrY1vRaZszE_a4IdIEOWA_sN-MVqX5GRkGSrUlrFCUSdP5i62Z2mZydBsDQRrDh2EivCwLhtRC-FN5T5RACNx8_fU9u1_b-8x7Jkgzrdh0TKoUY9ARdpF1iZbwVQupXUnYQGwG7Ey3GHCSUUWQCXbXlm7nqmZcyXU-t11o8S4dY9wTwcvifyVpbYkJbJWsamcjaOkw4ZJS7ClBUmJGMEPjlfQisz-31RFl1_bxE7gSQzM0y_BRc___uucV3_DwlL1tcLJexBAZKVZZzm_pzDPzf4BfWyv1lgsCI4ZEWZppQDvFvM6swqzMexqsQhvUFzPCdx8XxTPwoe8pn7FLY16UxKdKcpn7EjpxwgKncsjLEP7Dw7XhVmdd1fSiXFW6SSfNPHwC3NhMLWBPRUF6yiye0Sl7h2SVO9aiGY2uXre-mxA377XrCz5Df1G6fJ8aeT9n0hJY4KF7LkaQ1648IMEhIF9e8uXApKHvvlOF-UEdU3NNZ4lZ0uhaSFZ-FLVBKHnCHfqBtCe3M4yMIwcjzDDe_ZwN0p76kJ3NCByYl7LtBVJBOJhNp4wjFZLjj0GZ-o31A6ZS-C0K4GEYwpJk8mg5o3g80fme3ZyYdYCN6EmKlCucs9h8ttdCZW8d1GArubLG9HsQMg4u6rOf1bSIRY4cr_YtHCLFjeiQ43YV80REFH2QxWDBrfDIzmD_Rt21PZgRc9S-ha3xGZ0Lr5smLQZalN8LJBewVYB2eaVT2Am2ifBr8i5pbopQZooL9OFdzNnzTo-Id06PbqW4T1SgPc5Qn8oBS0_doSXnPtmmsFBEOCtSZE7mC4LYVm0mh1-dTuAPuwhCPqO8We2YzT0mqltDbOAWIPVBho3fzXSfI_6DyiXlzzN7vSZDXg4_FF8eKBwaOHSAfQSvadsYYZ6F8f8Jl32HovZns04wVLYTpxdfDia4fvrgWERFeRv1gUqy7aPIGU0AH11GwYdBw7iFFybu9T8O3PO1iUZvuVaA5zy7p0iqwYICfZxNjFW20hwYYJUuo74ZL7dLGcjk-zIJV0OhZ7gGYIWYtQO_lbKegzRKLUe3Li_0DyOLCsB_BlKhrIjxylvN1an5170vKdgh1TbYfIGDn4oDghQ5NBjKdUfL3XVGmLuZTyDVwfLCTyySvRzn_rbz0EZDA7-f1QEl7z1WUXxxBz-bNUYKtZAyU0pO5bQ64xwJyMWfe4n4jWrtnNnfHXs8bkBpEG2HODS2rKpLl5ym_gPzjoiPgyLBNuWQ_fnFH2Ya10Jpz833HpZs6mmKZEBjpe919MOG3lFe61S4MYCGxyyABjRAnWsX7Zvl1C2IUkGSsn0BEWG-fgdlEWWIBIpRUS9NYt-D4htYdHAt2wYoE2B6951ltIrPhAb0D8ePjZpzrRX-oYkhEH_gMgpn7du306PhaaRDWaB6q3LlNudaqhmCqKbxPQ9Y9QfThrtWw9AOpWwwDFAt5b5_YSOkWQzn7JkfIssuH6NfwqVV5N7HyfcYCgJT_X3f0LDYR9Mp1v4rOirWjuoUnFPEfzuOubkp9pctB1IdlJUgLzVxcLDfrpoTui7KFNj4oYDhVr6NOhD3HAP6jfip-_01Swfdc_Gu05RtuFB9ZrH8mhSZwGofsJ_HUMQotGLx4RSXlaqKfxN0uNueweX7-wzaciFJMnj4iWHIq7VLKvsdQUwTuRQvYRRMDRN8LoNXdE7rQRcJPT5Flcpr6apboNcEdC5-Krgfb7je1ti1jOw2-VbFlaPAZklKB0OjXLfvw3j-nHRFhnS3v-l9kijMaEO_QZL8qc-YTOieMrY4V-LnAz6sxycQbujUeUZDRrAjE2Soklnn9_3KwdixbCwZEyUjwPR7V0SRxfP9TMPXJV0CoFZf24czDeWtrd4UgeU5oaJtPBCgY_Yv7TAbFB9rX1gNA1M59PU_xaZBXVcHxh36gTqDVTrSQQJaC7kG8rBwbQNMlca1-_azIHhOSsQsdVmKx5p1KfaS57cFoHPfRQloaF4GZxLYSC14nulLudBfhhca0NeQgNSdPpTJTO3trYFM4DaI-PQ3Q48Vo3xZd7KBfRav484rzwHkOWAq9Ast17nUSwgL2qRQpJV3fRDX9MOr06x1WagnXFcdnfQQ0JxCakNZJPgJlNA31Rk_FKpB_9ufNcO2FPHu6bfXQX9s7KO3yrSHf7htJXzKjcGz5fmXQvgpqlZ3uF92wpqPDIDeakSkxCcCNfbhobqeLRZ6YugDbwWVwjKupGha4ATeE6vO0pHcM_k8NDSyQcu5vu4Q2PyHYxA-5H_VNUyaaPn2stl1aPw8zbNgu_EtFP7MWgZ6_FdYmDCEb0- -UBJ21JOI1EvWRqZ_s-8d-HzrQXzuKxvCnLL5ehwFwdWskMglhhlvI6zybwjQ_OLKsqxF8QZVTNLE5S-BwkMC5LDFdfyrHqujp_NgqxI1KYyxs5MmLpV-i9gmgcdBHUdJjBdNFdhWHroLjy-UVDu8tYWJFU_5rLVtoZj3mfkbNIvj_sLLKvw-3VAhHTlvuFVvviAXNXcqOLSIbk6K0cq8FbLv33pe5xxKyugkAgyc9JTstz-ghaUFIwR6c_WZxvPcv5EEIkNDmgqQsAoqZAt0I0e6CFlVgzJDbrHR0aKInt_h9x3LvpjgrAHtVYf2g8G5o_Bu77k1rdx43sldjnHRFJGvzkjkApWRhqzV7kaUlwrshVNY3X1LBw_L_hcx5NlyTRtt3UixkkOxkw8bi0I66xLoxRSbfIZCnTBgafz8Bk4pMX9SNbhioqQrZNazfYZcdVkOP4WPbwxPl8JUlCCD12ttq51GgA-QYYc7SalflSRQE1H6VoLeaxJxsMFVDNZSQpINHXXgYzsMlMSkpI3pqJi7VK3o7HSzJF8xt_0m00]--></g></svg>