<svg xmlns="http://www.w3.org/2000/svg" xmlns:xlink="http://www.w3.org/1999/xlink" contentStyleType="text/css" data-diagram-type="CLASS" height="1070px" preserveAspectRatio="none" style="width:3413px;height:1070px;background:#FFFFFF;" version="1.1" viewBox="0 0 3413 1070" width="3413px" zoomAndPan="magnify"><defs/><g><!--cluster ch--><g class="cluster" data-entity="ch" data-source-line="2" data-uid="ent0003" id="cluster_ch"><path d="M8.5,6 L27.7656,6 A3.75,3.75 0 0 1 30.2656,8.5 L37.2656,28.2969 L3403.5,28.2969 A2.5,2.5 0 0 1 3406,30.7969 L3406,1060.5 A2.5,2.5 0 0 1 3403.5,1063 L8.5,1063 A2.5,2.5 0 0 1 6,1060.5 L6,8.5 A2.5,2.5 0 0 1 8.5,6" fill="none" style="stroke:#000000;stroke-width:1.5;"/><line style="stroke:#000000;stroke-width:1.5;" x1="6" x2="37.2656" y1="28.2969" y2="28.2969"/><text fill="#000000" font-family="sans-serif" font-size="14" font-weight="bold" lengthAdjust="spacing" textLength="18.2656" x="10" y="20.9951">ch</text></g><!--cluster hslu--><g class="cluster" data-entity="hslu" data-source-line="2" data-uid="ent0004" id="cluster_hslu"><path d="M32.5,49 L66.5654,49 A3.75,3.75 0 0 1 69.0654,51.5 L76.0654,71.2969 L3379.5,71.2969 A2.5,2.5 0 0 1 3382,73.7969 L3382,1036.5 A2.5,2.5 0 0 1 3379.5,1039 L32.5,1039 A2.5,2.5 0 0 1 30,1036.5 L30,51.5 A2.5,2.5 0 0 1 32.5,49" fill="none" style="stroke:#000000;stroke-width:1.5;"/><line style="stroke:#000000;stroke-width:1.5;" x1="30" x2="76.0654" y1="71.2969" y2="71.2969"/><text fill="#000000" font-family="sans-serif" font-size="14" font-weight="bold" lengthAdjust="spacing" textLength="33.0654" x="34" y="63.9951">hslu</text></g><!--cluster cas--><g class="cluster" data-entity="cas" data-source-line="2" data-uid="ent0005" id="cluster_cas"><path d="M56.5,92 L83.5791,92 A3.75,3.75 0 0 1 86.0791,94.5 L93.0791,114.2969 L3355.5,114.2969 A2.5,2.5 0 0 1 3358,116.7969 L3358,1012.5 A2.5,2.5 0 0 1 3355.5,1015 L56.5,1015 A2.5,2.5 0 0 1 54,1012.5 L54,94.5 A2.5,2.5 0 0 1 56.5,92" fill="none" style="stroke:#000000;stroke-width:1.5;"/><line style="stroke:#000000;stroke-width:1.5;" x1="54" x2="93.0791" y1="114.2969" y2="114.2969"/><text fill="#000000" font-family="sans-serif" font-size="14" font-weight="bold" lengthAdjust="spacing" textLength="26.0791" x="58" y="106.9951">cas</text></g><!--cluster msed--><g class="cluster" data-entity="msed" data-source-line="2" data-uid="ent0006" id="cluster_msed"><path d="M80.5,135 L123.9375,135 A3.75,3.75 0 0 1 126.4375,137.5 L133.4375,157.2969 L3331.5,157.2969 A2.5,2.5 0 0 1 3334,159.7969 L3334,988.5 A2.5,2.5 0 0 1 3331.5,991 L80.5,991 A2.5,2.5 0 0 1 78,988.5 L78,137.5 A2.5,2.5 0 0 1 80.5,135" fill="none" style="stroke:#000000;stroke-width:1.5;"/><line style="stroke:#000000;stroke-width:1.5;" x1="78" x2="133.4375" y1="157.2969" y2="157.2969"/><text fill="#000000" font-family="sans-serif" font-size="14" font-weight="bold" lengthAdjust="spacing" textLength="42.4375" x="82" y="149.9951">msed</text></g><!--cluster blobfish--><g class="cluster" data-entity="blobfish" data-source-line="2" data-uid="ent0007" id="cluster_blobfish"><path d="M104.5,178 L169.1494,178 A3.75,3.75 0 0 1 171.6494,180.5 L178.6494,200.2969 L3307.5,200.2969 A2.5,2.5 0 0 1 3310,202.7969 L3310,964.5 A2.5,2.5 0 0 1 3307.5,967 L104.5,967 A2.5,2.5 0 0 1 102,964.5 L102,180.5 A2.5,2.5 0 0 1 104.5,178" fill="none" style="stroke:#000000;stroke-width:1.5;"/><line style="stroke:#000000;stroke-width:1.5;" x1="102" x2="178.6494" y1="200.2969" y2="200.2969"/><text fill="#000000" font-family="sans-serif" font-size="14" font-weight="bold" lengthAdjust="spacing" textLength="63.6494" x="106" y="192.9951">blobfish</text></g><!--cluster base--><g class="cluster" data-entity="base" data-source-line="7" data-uid="ent0009" id="cluster_base"><path d="M1289.5,614 L1327.7969,614 A3.75,3.75 0 0 1 1330.2969,616.5 L1337.2969,636.2969 L1567.5,636.2969 A2.5,2.5 0 0 1 1570,638.7969 L1570,805.5 A2.5,2.5 0 0 1 1567.5,808 L1289.5,808 A2.5,2.5 0 0 1 1287,805.5 L1287,616.5 A2.5,2.5 0 0 1 1289.5,614" fill="none" style="stroke:#000000;stroke-width:1.5;"/><line style="stroke:#000000;stroke-width:1.5;" x1="1287" x2="1337.2969" y1="636.2969" y2="636.2969"/><text fill="#000000" font-family="sans-serif" font-size="14" font-weight="bold" lengthAdjust="spacing" textLength="37.2969" x="1291" y="628.9951">base</text></g><!--cluster board--><g class="cluster" data-entity="board" data-source-line="40" data-uid="ent0014" id="cluster_board"><path d="M1596.5,571 L1643.5127,571 A3.75,3.75 0 0 1 1646.0127,573.5 L1653.0127,593.2969 L2131.5,593.2969 A2.5,2.5 0 0 1 2134,595.7969 L2134,940.5 A2.5,2.5 0 0 1 2131.5,943 L1596.5,943 A2.5,2.5 0 0 1 1594,940.5 L1594,573.5 A2.5,2.5 0 0 1 1596.5,571" fill="none" style="stroke:#000000;stroke-width:1.5;"/><line style="stroke:#000000;stroke-width:1.5;" x1="1594" x2="1653.0127" y1="593.2969" y2="593.2969"/><text fill="#000000" font-family="sans-serif" font-size="14" font-weight="bold" lengthAdjust="spacing" textLength="46.0127" x="1598" y="585.9951">board</text></g><!--cluster ui--><g class="cluster" data-entity="ui" data-source-line="51" data-uid="ent0016" id="cluster_ui"><path d="M1620.5,614 L1636.2656,614 A3.75,3.75 0 0 1 1638.7656,616.5 L1645.7656,636.2969 L1980.5,636.2969 A2.5,2.5 0 0 1 1983,638.7969 L1983,916.5 A2.5,2.5 0 0 1 1980.5,919 L1620.5,919 A2.5,2.5 0 0 1 1618,916.5 L1618,616.5 A2.5,2.5 0 0 1 1620.5,614" fill="none" style="stroke:#000000;stroke-width:1.5;"/><line style="stroke:#000000;stroke-width:1.5;" x1="1618" x2="1645.7656" y1="636.2969" y2="636.2969"/><text fill="#000000" font-family="sans-serif" font-size="14" font-weight="bold" lengthAdjust="spacing" textLength="14.7656" x="1622" y="628.9951">ui</text></g><!--cluster eval--><g class="cluster" data-entity="eval" data-source-line="73" data-uid="ent0021" id="cluster_eval"><path d="M2808.5,439 L2842.3672,439 A3.75,3.75 0 0 1 2844.8672,441.5 L2851.8672,461.2969 L3283.5,461.2969 A2.5,2.5 0 0 1 3286,463.7969 L3286,694.5 A2.5,2.5 0 0 1 3283.5,697 L2808.5,697 A2.5,2.5 0 0 1 2806,694.5 L2806,441.5 A2.5,2.5 0 0 1 2808.5,439" fill="none" style="stroke:#000000;stroke-width:1.5;"/><line style="stroke:#000000;stroke-width:1.5;" x1="2806" x2="2851.8672" y1="461.2969" y2="461.2969"/><text fill="#000000" font-family="sans-serif" font-size="14" font-weight="bold" lengthAdjust="spacing" textLength="32.8672" x="2810" y="453.9951">eval</text></g><!--cluster game--><g class="cluster" data-entity="game" data-source-line="96" data-uid="ent0026" id="cluster_game"><path d="M128.5,396 L173.0518,396 A3.75,3.75 0 0 1 175.5518,398.5 L182.5518,418.2969 L1260.5,418.2969 A2.5,2.5 0 0 1 1263,420.7969 L1263,694.5 A2.5,2.5 0 0 1 1260.5,697 L128.5,697 A2.5,2.5 0 0 1 126,694.5 L126,398.5 A2.5,2.5 0 0 1 128.5,396" fill="none" style="stroke:#000000;stroke-width:1.5;"/><line style="stroke:#000000;stroke-width:1.5;" x1="126" x2="182.5518" y1="418.2969" y2="418.2969"/><text fill="#000000" font-family="sans-serif" font-size="14" font-weight="bold" lengthAdjust="spacing" textLength="43.5518" x="130" y="410.9951">game</text></g><!--cluster exceptions--><g class="cluster" data-entity="exceptions" data-source-line="129" data-uid="ent0031" id="cluster_exceptions"><path d="M774.5,439 L861.25,439 A3.75,3.75 0 0 1 863.75,441.5 L870.75,461.2969 L1236.5,461.2969 A2.5,2.5 0 0 1 1239,463.7969 L1239,519.5 A2.5,2.5 0 0 1 1236.5,522 L774.5,522 A2.5,2.5 0 0 1 772,519.5 L772,441.5 A2.5,2.5 0 0 1 774.5,439" fill="none" style="stroke:#000000;stroke-width:1.5;"/><line style="stroke:#000000;stroke-width:1.5;" x1="772" x2="870.75" y1="461.2969" y2="461.2969"/><text fill="#000000" font-family="sans-serif" font-size="14" font-weight="bold" lengthAdjust="spacing" textLength="85.75" x="776" y="453.9951">exceptions</text></g><!--cluster screen--><g class="cluster" data-entity="screen" data-source-line="137" data-uid="ent0034" id="cluster_screen"><path d="M152.5,439 L205.9932,439 A3.75,3.75 0 0 1 208.4932,441.5 L215.4932,461.2969 L460.5,461.2969 A2.5,2.5 0 0 1 463,463.7969 L463,519.5 A2.5,2.5 0 0 1 460.5,522 L152.5,522 A2.5,2.5 0 0 1 150,519.5 L150,441.5 A2.5,2.5 0 0 1 152.5,439" fill="none" style="stroke:#000000;stroke-width:1.5;"/><line style="stroke:#000000;stroke-width:1.5;" x1="150" x2="215.4932" y1="461.2969" y2="461.2969"/><text fill="#000000" font-family="sans-serif" font-size="14" font-weight="bold" lengthAdjust="spacing" textLength="52.4932" x="154" y="453.9951">screen</text></g><!--cluster player--><g class="cluster" data-entity="player" data-source-line="151" data-uid="ent0037" id="cluster_player"><path d="M2160.5,221 L2211.293,221 A3.75,3.75 0 0 1 2213.793,223.5 L2220.793,243.2969 L2633.5,243.2969 A2.5,2.5 0 0 1 2636,245.7969 L2636,694.5 A2.5,2.5 0 0 1 2633.5,697 L2160.5,697 A2.5,2.5 0 0 1 2158,694.5 L2158,223.5 A2.5,2.5 0 0 1 2160.5,221" fill="none" style="stroke:#000000;stroke-width:1.5;"/><line style="stroke:#000000;stroke-width:1.5;" x1="2158" x2="2220.793" y1="243.2969" y2="243.2969"/><text fill="#000000" font-family="sans-serif" font-size="14" font-weight="bold" lengthAdjust="spacing" textLength="49.793" x="2162" y="235.9951">player</text></g><!--cluster bot--><g class="cluster" data-entity="bot" data-source-line="161" data-uid="ent0040" id="cluster_bot"><path d="M2424.5,264 L2451.832,264 A3.75,3.75 0 0 1 2454.332,266.5 L2461.332,286.2969 L2609.5,286.2969 A2.5,2.5 0 0 1 2612,288.7969 L2612,519.5 A2.5,2.5 0 0 1 2609.5,522 L2424.5,522 A2.5,2.5 0 0 1 2422,519.5 L2422,266.5 A2.5,2.5 0 0 1 2424.5,264" fill="none" style="stroke:#000000;stroke-width:1.5;"/><line style="stroke:#000000;stroke-width:1.5;" x1="2422" x2="2461.332" y1="286.2969" y2="286.2969"/><text fill="#000000" font-family="sans-serif" font-size="14" font-weight="bold" lengthAdjust="spacing" textLength="26.332" x="2426" y="278.9951">bot</text></g><!--cluster exceptions--><g class="cluster" data-entity="exceptions" data-source-line="170" data-uid="ent0043" id="cluster_exceptions"><path d="M2184.5,264 L2271.25,264 A3.75,3.75 0 0 1 2273.75,266.5 L2280.75,286.2969 L2395.5,286.2969 A2.5,2.5 0 0 1 2398,288.7969 L2398,344.5 A2.5,2.5 0 0 1 2395.5,347 L2184.5,347 A2.5,2.5 0 0 1 2182,344.5 L2182,266.5 A2.5,2.5 0 0 1 2184.5,264" fill="none" style="stroke:#000000;stroke-width:1.5;"/><line style="stroke:#000000;stroke-width:1.5;" x1="2182" x2="2280.75" y1="286.2969" y2="286.2969"/><text fill="#000000" font-family="sans-serif" font-size="14" font-weight="bold" lengthAdjust="spacing" textLength="85.75" x="2186" y="278.9951">exceptions</text></g><!--cluster searchtree--><g class="cluster" data-entity="searchtree" data-source-line="175" data-uid="ent0045" id="cluster_searchtree"><path d="M2662.5,439 L2748.5322,439 A3.75,3.75 0 0 1 2751.0322,441.5 L2758.0322,461.2969 L2779.5,461.2969 A2.5,2.5 0 0 1 2782,463.7969 L2782,519.5 A2.5,2.5 0 0 1 2779.5,522 L2662.5,522 A2.5,2.5 0 0 1 2660,519.5 L2660,441.5 A2.5,2.5 0 0 1 2662.5,439" fill="none" style="stroke:#000000;stroke-width:1.5;"/><line style="stroke:#000000;stroke-width:1.5;" x1="2660" x2="2758.0322" y1="461.2969" y2="461.2969"/><text fill="#000000" font-family="sans-serif" font-size="14" font-weight="bold" lengthAdjust="spacing" textLength="85.0322" x="2664" y="453.9951">searchtree</text></g><!--class Main--><g class="entity" data-entity="Main" data-source-line="2" data-uid="ent0002" id="entity_Main"><rect fill="#F1F1F1" height="32" rx="2.5" ry="2.5" style="stroke:#181818;stroke-width:0.5;" width="65.4209" x="1097.5" y="299"/><ellipse cx="1112.5" cy="315" fill="#ADD1B2" rx="11" ry="11" style="stroke:#181818;stroke-width:1;"/><path d="M1115.4688,320.6406 Q1114.8906,320.9375 1114.25,321.0781 Q1113.6094,321.2344 1112.9063,321.2344 Q1110.4063,321.2344 1109.0781,319.5938 Q1107.7656,317.9375 1107.7656,314.8125 Q1107.7656,311.6875 1109.0781,310.0313 Q1110.4063,308.375 1112.9063,308.375 Q1113.6094,308.375 1114.25,308.5313 Q1114.9063,308.6875 1115.4688,308.9844 L1115.4688,311.7031 Q1114.8438,311.125 1114.25,310.8594 Q1113.6563,310.5781 1113.0313,310.5781 Q1111.6875,310.5781 1111,311.6563 Q1110.3125,312.7188 1110.3125,314.8125 Q1110.3125,316.9063 1111,317.9844 Q1111.6875,319.0469 1113.0313,319.0469 Q1113.6563,319.0469 1114.25,318.7813 Q1114.8438,318.5 1115.4688,317.9219 L1115.4688,320.6406 Z " fill="#000000"/><text fill="#000000" font-family="sans-serif" font-size="14" lengthAdjust="spacing" textLength="33.4209" x="1126.5" y="319.8467">Main</text></g><!--class FenUtil--><g class="entity" data-entity="FenUtil" data-source-line="7" data-uid="ent0008" id="entity_FenUtil"><rect fill="#F1F1F1" height="32" rx="2.5" ry="2.5" style="stroke:#181818;stroke-width:0.5;" width="81.0547" x="1460.5" y="649"/><ellipse cx="1475.5" cy="665" fill="#ADD1B2" rx="11" ry="11" style="stroke:#181818;stroke-width:1;"/><path d="M1478.4688,670.6406 Q1477.8906,670.9375 1477.25,671.0781 Q1476.6094,671.2344 1475.9063,671.2344 Q1473.4063,671.2344 1472.0781,669.5938 Q1470.7656,667.9375 1470.7656,664.8125 Q1470.7656,661.6875 1472.0781,660.0313 Q1473.4063,658.375 1475.9063,658.375 Q1476.6094,658.375 1477.25,658.5313 Q1477.9063,658.6875 1478.4688,658.9844 L1478.4688,661.7031 Q1477.8438,661.125 1477.25,660.8594 Q1476.6563,660.5781 1476.0313,660.5781 Q1474.6875,660.5781 1474,661.6563 Q1473.3125,662.7188 1473.3125,664.8125 Q1473.3125,666.9063 1474,667.9844 Q1474.6875,669.0469 1476.0313,669.0469 Q1476.6563,669.0469 1477.25,668.7813 Q1477.8438,668.5 1478.4688,667.9219 L1478.4688,670.6406 Z " fill="#000000"/><text fill="#000000" font-family="sans-serif" font-size="14" lengthAdjust="spacing" textLength="49.0547" x="1489.5" y="669.8467">FenUtil</text></g><!--class Piece--><g class="entity" data-entity="Piece" data-source-line="13" data-uid="ent0010" id="entity_Piece"><rect fill="#F1F1F1" height="32" rx="2.5" ry="2.5" style="stroke:#181818;stroke-width:0.5;" width="69.2559" x="1332.5" y="649"/><ellipse cx="1347.5" cy="665" fill="#ADD1B2" rx="11" ry="11" style="stroke:#181818;stroke-width:1;"/><path d="M1350.4688,670.6406 Q1349.8906,670.9375 1349.25,671.0781 Q1348.6094,671.2344 1347.9063,671.2344 Q1345.4063,671.2344 1344.0781,669.5938 Q1342.7656,667.9375 1342.7656,664.8125 Q1342.7656,661.6875 1344.0781,660.0313 Q1345.4063,658.375 1347.9063,658.375 Q1348.6094,658.375 1349.25,658.5313 Q1349.9063,658.6875 1350.4688,658.9844 L1350.4688,661.7031 Q1349.8438,661.125 1349.25,660.8594 Q1348.6563,660.5781 1348.0313,660.5781 Q1346.6875,660.5781 1346,661.6563 Q1345.3125,662.7188 1345.3125,664.8125 Q1345.3125,666.9063 1346,667.9844 Q1346.6875,669.0469 1348.0313,669.0469 Q1348.6563,669.0469 1349.25,668.7813 Q1349.8438,668.5 1350.4688,667.9219 L1350.4688,670.6406 Z " fill="#000000"/><text fill="#000000" font-family="sans-serif" font-size="14" lengthAdjust="spacing" textLength="37.2559" x="1361.5" y="669.8467">Piece</text></g><!--class PieceType--><g class="entity" data-entity="PieceType" data-source-line="24" data-uid="ent0011" id="entity_PieceType"><rect fill="#F1F1F1" height="32" rx="2.5" ry="2.5" style="stroke:#181818;stroke-width:0.5;" width="103.5928" x="1303" y="760"/><ellipse cx="1318" cy="776" fill="#EB937F" rx="11" ry="11" style="stroke:#181818;stroke-width:1;"/><path d="M1322.1094,782 L1314.3906,782 L1314.3906,769.6094 L1322.1094,769.6094 L1322.1094,771.7656 L1316.8438,771.7656 L1316.8438,774.4375 L1321.6094,774.4375 L1321.6094,776.5938 L1316.8438,776.5938 L1316.8438,779.8438 L1322.1094,779.8438 L1322.1094,782 Z " fill="#000000"/><text fill="#000000" font-family="sans-serif" font-size="14" lengthAdjust="spacing" textLength="71.5928" x="1332" y="780.8467">PieceType</text></g><!--class PlayerColor--><g class="entity" data-entity="PlayerColor" data-source-line="34" data-uid="ent0012" id="entity_PlayerColor"><rect fill="#F1F1F1" height="32" rx="2.5" ry="2.5" style="stroke:#181818;stroke-width:0.5;" width="112.1172" x="1442" y="760"/><ellipse cx="1457" cy="776" fill="#EB937F" rx="11" ry="11" style="stroke:#181818;stroke-width:1;"/><path d="M1461.1094,782 L1453.3906,782 L1453.3906,769.6094 L1461.1094,769.6094 L1461.1094,771.7656 L1455.8438,771.7656 L1455.8438,774.4375 L1460.6094,774.4375 L1460.6094,776.5938 L1455.8438,776.5938 L1455.8438,779.8438 L1461.1094,779.8438 L1461.1094,782 Z " fill="#000000"/><text fill="#000000" font-family="sans-serif" font-size="14" lengthAdjust="spacing" textLength="80.1172" x="1471" y="780.8467">PlayerColor</text></g><!--class ChessBoard--><g class="entity" data-entity="ChessBoard" data-source-line="40" data-uid="ent0013" id="entity_ChessBoard"><rect fill="#F1F1F1" height="32" rx="2.5" ry="2.5" style="stroke:#181818;stroke-width:0.5;" width="115.2412" x="2002.5" y="649"/><ellipse cx="2017.5" cy="665" fill="#ADD1B2" rx="11" ry="11" style="stroke:#181818;stroke-width:1;"/><path d="M2020.4688,670.6406 Q2019.8906,670.9375 2019.25,671.0781 Q2018.6094,671.2344 2017.9063,671.2344 Q2015.4063,671.2344 2014.0781,669.5938 Q2012.7656,667.9375 2012.7656,664.8125 Q2012.7656,661.6875 2014.0781,660.0313 Q2015.4063,658.375 2017.9063,658.375 Q2018.6094,658.375 2019.25,658.5313 Q2019.9063,658.6875 2020.4688,658.9844 L2020.4688,661.7031 Q2019.8438,661.125 2019.25,660.8594 Q2018.6563,660.5781 2018.0313,660.5781 Q2016.6875,660.5781 2016,661.6563 Q2015.3125,662.7188 2015.3125,664.8125 Q2015.3125,666.9063 2016,667.9844 Q2016.6875,669.0469 2018.0313,669.0469 Q2018.6563,669.0469 2019.25,668.7813 Q2019.8438,668.5 2020.4688,667.9219 L2020.4688,670.6406 Z " fill="#000000"/><text fill="#000000" font-family="sans-serif" font-size="14" lengthAdjust="spacing" textLength="83.2412" x="2031.5" y="669.8467">ChessBoard</text></g><!--class BoardRenderer--><g class="entity" data-entity="BoardRenderer" data-source-line="51" data-uid="ent0015" id="entity_BoardRenderer"><rect fill="#F1F1F1" height="32" rx="2.5" ry="2.5" style="stroke:#181818;stroke-width:0.5;" width="138.2305" x="1799" y="760"/><ellipse cx="1814" cy="776" fill="#ADD1B2" rx="11" ry="11" style="stroke:#181818;stroke-width:1;"/><path d="M1816.9688,781.6406 Q1816.3906,781.9375 1815.75,782.0781 Q1815.1094,782.2344 1814.4063,782.2344 Q1811.9063,782.2344 1810.5781,780.5938 Q1809.2656,778.9375 1809.2656,775.8125 Q1809.2656,772.6875 1810.5781,771.0313 Q1811.9063,769.375 1814.4063,769.375 Q1815.1094,769.375 1815.75,769.5313 Q1816.4063,769.6875 1816.9688,769.9844 L1816.9688,772.7031 Q1816.3438,772.125 1815.75,771.8594 Q1815.1563,771.5781 1814.5313,771.5781 Q1813.1875,771.5781 1812.5,772.6563 Q1811.8125,773.7188 1811.8125,775.8125 Q1811.8125,777.9063 1812.5,778.9844 Q1813.1875,780.0469 1814.5313,780.0469 Q1815.1563,780.0469 1815.75,779.7813 Q1816.3438,779.5 1816.9688,778.9219 L1816.9688,781.6406 Z " fill="#000000"/><text fill="#000000" font-family="sans-serif" font-size="14" lengthAdjust="spacing" textLength="106.2305" x="1828" y="780.8467">BoardRenderer</text></g><!--class ChessBoardRenderer--><g class="entity" data-entity="ChessBoardRenderer" data-source-line="56" data-uid="ent0017" id="entity_ChessBoardRenderer"><rect fill="#F1F1F1" height="32" rx="2.5" ry="2.5" style="stroke:#181818;stroke-width:0.5;" width="180.0801" x="1787" y="649"/><ellipse cx="1802" cy="665" fill="#ADD1B2" rx="11" ry="11" style="stroke:#181818;stroke-width:1;"/><path d="M1804.9688,670.6406 Q1804.3906,670.9375 1803.75,671.0781 Q1803.1094,671.2344 1802.4063,671.2344 Q1799.9063,671.2344 1798.5781,669.5938 Q1797.2656,667.9375 1797.2656,664.8125 Q1797.2656,661.6875 1798.5781,660.0313 Q1799.9063,658.375 1802.4063,658.375 Q1803.1094,658.375 1803.75,658.5313 Q1804.4063,658.6875 1804.9688,658.9844 L1804.9688,661.7031 Q1804.3438,661.125 1803.75,660.8594 Q1803.1563,660.5781 1802.5313,660.5781 Q1801.1875,660.5781 1800.5,661.6563 Q1799.8125,662.7188 1799.8125,664.8125 Q1799.8125,666.9063 1800.5,667.9844 Q1801.1875,669.0469 1802.5313,669.0469 Q1803.1563,669.0469 1803.75,668.7813 Q1804.3438,668.5 1804.9688,667.9219 L1804.9688,670.6406 Z " fill="#000000"/><text fill="#000000" font-family="sans-serif" font-size="14" lengthAdjust="spacing" textLength="148.0801" x="1816" y="669.8467">ChessBoardRenderer</text></g><!--class FieldRenderer--><g class="entity" data-entity="FieldRenderer" data-source-line="62" data-uid="ent0018" id="entity_FieldRenderer"><rect fill="#F1F1F1" height="32" rx="2.5" ry="2.5" style="stroke:#181818;stroke-width:0.5;" width="130.1709" x="1803" y="871"/><ellipse cx="1818" cy="887" fill="#B4A7E5" rx="11" ry="11" style="stroke:#181818;stroke-width:1;"/><path d="M1813.9219,882.7656 L1813.9219,880.6094 L1821.3125,880.6094 L1821.3125,882.7656 L1818.8438,882.7656 L1818.8438,890.8438 L1821.3125,890.8438 L1821.3125,893 L1813.9219,893 L1813.9219,890.8438 L1816.3906,890.8438 L1816.3906,882.7656 L1813.9219,882.7656 Z " fill="#000000"/><text fill="#000000" font-family="sans-serif" font-size="14" font-style="italic" lengthAdjust="spacing" textLength="98.1709" x="1832" y="891.8467">FieldRenderer</text></g><!--class SquareColor--><g class="entity" data-entity="SquareColor" data-source-line="67" data-uid="ent0019" id="entity_SquareColor"><rect fill="#F1F1F1" height="32" rx="2.5" ry="2.5" style="stroke:#181818;stroke-width:0.5;" width="118.1465" x="1634" y="649"/><ellipse cx="1649" cy="665" fill="#EB937F" rx="11" ry="11" style="stroke:#181818;stroke-width:1;"/><path d="M1653.1094,671 L1645.3906,671 L1645.3906,658.6094 L1653.1094,658.6094 L1653.1094,660.7656 L1647.8438,660.7656 L1647.8438,663.4375 L1652.6094,663.4375 L1652.6094,665.5938 L1647.8438,665.5938 L1647.8438,668.8438 L1653.1094,668.8438 L1653.1094,671 Z " fill="#000000"/><text fill="#000000" font-family="sans-serif" font-size="14" lengthAdjust="spacing" textLength="86.1465" x="1663" y="669.8467">SquareColor</text></g><!--class EvalStrategy--><g class="entity" data-entity="EvalStrategy" data-source-line="73" data-uid="ent0020" id="entity_EvalStrategy"><rect fill="#F1F1F1" height="32" rx="2.5" ry="2.5" style="stroke:#181818;stroke-width:0.5;" width="121.585" x="2974" y="649"/><ellipse cx="2989" cy="665" fill="#B4A7E5" rx="11" ry="11" style="stroke:#181818;stroke-width:1;"/><path d="M2984.9219,660.7656 L2984.9219,658.6094 L2992.3125,658.6094 L2992.3125,660.7656 L2989.8438,660.7656 L2989.8438,668.8438 L2992.3125,668.8438 L2992.3125,671 L2984.9219,671 L2984.9219,668.8438 L2987.3906,668.8438 L2987.3906,660.7656 L2984.9219,660.7656 Z " fill="#000000"/><text fill="#000000" font-family="sans-serif" font-size="14" font-style="italic" lengthAdjust="spacing" textLength="89.585" x="3003" y="669.8467">EvalStrategy</text></g><!--class MateAwareEval--><g class="entity" data-entity="MateAwareEval" data-source-line="78" data-uid="ent0022" id="entity_MateAwareEval"><rect fill="#F1F1F1" height="32" rx="2.5" ry="2.5" style="stroke:#181818;stroke-width:0.5;" width="140.3359" x="3130" y="474"/><ellipse cx="3145" cy="490" fill="#ADD1B2" rx="11" ry="11" style="stroke:#181818;stroke-width:1;"/><path d="M3147.9688,495.6406 Q3147.3906,495.9375 3146.75,496.0781 Q3146.1094,496.2344 3145.4063,496.2344 Q3142.9063,496.2344 3141.5781,494.5938 Q3140.2656,492.9375 3140.2656,489.8125 Q3140.2656,486.6875 3141.5781,485.0313 Q3142.9063,483.375 3145.4063,483.375 Q3146.1094,483.375 3146.75,483.5313 Q3147.4063,483.6875 3147.9688,483.9844 L3147.9688,486.7031 Q3147.3438,486.125 3146.75,485.8594 Q3146.1563,485.5781 3145.5313,485.5781 Q3144.1875,485.5781 3143.5,486.6563 Q3142.8125,487.7188 3142.8125,489.8125 Q3142.8125,491.9063 3143.5,492.9844 Q3144.1875,494.0469 3145.5313,494.0469 Q3146.1563,494.0469 3146.75,493.7813 Q3147.3438,493.5 3147.9688,492.9219 L3147.9688,495.6406 Z " fill="#000000"/><text fill="#000000" font-family="sans-serif" font-size="14" lengthAdjust="spacing" textLength="108.3359" x="3159" y="494.8467">MateAwareEval</text></g><!--class MaterialEval--><g class="entity" data-entity="MaterialEval" data-source-line="84" data-uid="ent0023" id="entity_MaterialEval"><rect fill="#F1F1F1" height="32" rx="2.5" ry="2.5" style="stroke:#181818;stroke-width:0.5;" width="118.4746" x="2822" y="474"/><ellipse cx="2837" cy="490" fill="#ADD1B2" rx="11" ry="11" style="stroke:#181818;stroke-width:1;"/><path d="M2839.9688,495.6406 Q2839.3906,495.9375 2838.75,496.0781 Q2838.1094,496.2344 2837.4063,496.2344 Q2834.9063,496.2344 2833.5781,494.5938 Q2832.2656,492.9375 2832.2656,489.8125 Q2832.2656,486.6875 2833.5781,485.0313 Q2834.9063,483.375 2837.4063,483.375 Q2838.1094,483.375 2838.75,483.5313 Q2839.4063,483.6875 2839.9688,483.9844 L2839.9688,486.7031 Q2839.3438,486.125 2838.75,485.8594 Q2838.1563,485.5781 2837.5313,485.5781 Q2836.1875,485.5781 2835.5,486.6563 Q2834.8125,487.7188 2834.8125,489.8125 Q2834.8125,491.9063 2835.5,492.9844 Q2836.1875,494.0469 2837.5313,494.0469 Q2838.1563,494.0469 2838.75,493.7813 Q2839.3438,493.5 2839.9688,492.9219 L2839.9688,495.6406 Z " fill="#000000"/><text fill="#000000" font-family="sans-serif" font-size="14" lengthAdjust="spacing" textLength="86.4746" x="2851" y="494.8467">MaterialEval</text></g><!--class RandomEval--><g class="entity" data-entity="RandomEval" data-source-line="91" data-uid="ent0024" id="entity_RandomEval"><rect fill="#F1F1F1" height="32" rx="2.5" ry="2.5" style="stroke:#181818;stroke-width:0.5;" width="119.8691" x="2975" y="474"/><ellipse cx="2990" cy="490" fill="#ADD1B2" rx="11" ry="11" style="stroke:#181818;stroke-width:1;"/><path d="M2992.9688,495.6406 Q2992.3906,495.9375 2991.75,496.0781 Q2991.1094,496.2344 2990.4063,496.2344 Q2987.9063,496.2344 2986.5781,494.5938 Q2985.2656,492.9375 2985.2656,489.8125 Q2985.2656,486.6875 2986.5781,485.0313 Q2987.9063,483.375 2990.4063,483.375 Q2991.1094,483.375 2991.75,483.5313 Q2992.4063,483.6875 2992.9688,483.9844 L2992.9688,486.7031 Q2992.3438,486.125 2991.75,485.8594 Q2991.1563,485.5781 2990.5313,485.5781 Q2989.1875,485.5781 2988.5,486.6563 Q2987.8125,487.7188 2987.8125,489.8125 Q2987.8125,491.9063 2988.5,492.9844 Q2989.1875,494.0469 2990.5313,494.0469 Q2991.1563,494.0469 2991.75,493.7813 Q2992.3438,493.5 2992.9688,492.9219 L2992.9688,495.6406 Z " fill="#000000"/><text fill="#000000" font-family="sans-serif" font-size="14" lengthAdjust="spacing" textLength="87.8691" x="3004" y="494.8467">RandomEval</text></g><!--class ChessGame--><g class="entity" data-entity="ChessGame" data-source-line="96" data-uid="ent0025" id="entity_ChessGame"><rect fill="#F1F1F1" height="32" rx="2.5" ry="2.5" style="stroke:#181818;stroke-width:0.5;" width="115.5283" x="482" y="474"/><ellipse cx="497" cy="490" fill="#ADD1B2" rx="11" ry="11" style="stroke:#181818;stroke-width:1;"/><path d="M499.9688,495.6406 Q499.3906,495.9375 498.75,496.0781 Q498.1094,496.2344 497.4063,496.2344 Q494.9063,496.2344 493.5781,494.5938 Q492.2656,492.9375 492.2656,489.8125 Q492.2656,486.6875 493.5781,485.0313 Q494.9063,483.375 497.4063,483.375 Q498.1094,483.375 498.75,483.5313 Q499.4063,483.6875 499.9688,483.9844 L499.9688,486.7031 Q499.3438,486.125 498.75,485.8594 Q498.1563,485.5781 497.5313,485.5781 Q496.1875,485.5781 495.5,486.6563 Q494.8125,487.7188 494.8125,489.8125 Q494.8125,491.9063 495.5,492.9844 Q496.1875,494.0469 497.5313,494.0469 Q498.1563,494.0469 498.75,493.7813 Q499.3438,493.5 499.9688,492.9219 L499.9688,495.6406 Z " fill="#000000"/><text fill="#000000" font-family="sans-serif" font-size="14" lengthAdjust="spacing" textLength="83.5283" x="511" y="494.8467">ChessGame</text></g><!--class InputReader--><g class="entity" data-entity="InputReader" data-source-line="104" data-uid="ent0027" id="entity_InputReader"><rect fill="#F1F1F1" height="32" rx="2.5" ry="2.5" style="stroke:#181818;stroke-width:0.5;" width="118.4268" x="767" y="649"/><ellipse cx="782" cy="665" fill="#ADD1B2" rx="11" ry="11" style="stroke:#181818;stroke-width:1;"/><path d="M784.9688,670.6406 Q784.3906,670.9375 783.75,671.0781 Q783.1094,671.2344 782.4063,671.2344 Q779.9063,671.2344 778.5781,669.5938 Q777.2656,667.9375 777.2656,664.8125 Q777.2656,661.6875 778.5781,660.0313 Q779.9063,658.375 782.4063,658.375 Q783.1094,658.375 783.75,658.5313 Q784.4063,658.6875 784.9688,658.9844 L784.9688,661.7031 Q784.3438,661.125 783.75,660.8594 Q783.1563,660.5781 782.5313,660.5781 Q781.1875,660.5781 780.5,661.6563 Q779.8125,662.7188 779.8125,664.8125 Q779.8125,666.9063 780.5,667.9844 Q781.1875,669.0469 782.5313,669.0469 Q783.1563,669.0469 783.75,668.7813 Q784.3438,668.5 784.9688,667.9219 L784.9688,670.6406 Z " fill="#000000"/><text fill="#000000" font-family="sans-serif" font-size="14" lengthAdjust="spacing" textLength="86.4268" x="796" y="669.8467">InputReader</text></g><!--class MatchConfig--><g class="entity" data-entity="MatchConfig" data-source-line="110" data-uid="ent0028" id="entity_MatchConfig"><rect fill="#F1F1F1" height="32" rx="2.5" ry="2.5" style="stroke:#181818;stroke-width:0.5;" width="119.6367" x="633" y="474"/><ellipse cx="648" cy="490" fill="#ADD1B2" rx="11" ry="11" style="stroke:#181818;stroke-width:1;"/><path d="M650.9688,495.6406 Q650.3906,495.9375 649.75,496.0781 Q649.1094,496.2344 648.4063,496.2344 Q645.9063,496.2344 644.5781,494.5938 Q643.2656,492.9375 643.2656,489.8125 Q643.2656,486.6875 644.5781,485.0313 Q645.9063,483.375 648.4063,483.375 Q649.1094,483.375 649.75,483.5313 Q650.4063,483.6875 650.9688,483.9844 L650.9688,486.7031 Q650.3438,486.125 649.75,485.8594 Q649.1563,485.5781 648.5313,485.5781 Q647.1875,485.5781 646.5,486.6563 Q645.8125,487.7188 645.8125,489.8125 Q645.8125,491.9063 646.5,492.9844 Q647.1875,494.0469 648.5313,494.0469 Q649.1563,494.0469 649.75,493.7813 Q650.3438,493.5 650.9688,492.9219 L650.9688,495.6406 Z " fill="#000000"/><text fill="#000000" font-family="sans-serif" font-size="14" lengthAdjust="spacing" textLength="87.6367" x="662" y="494.8467">MatchConfig</text></g><!--class OutputWriter--><g class="entity" data-entity="OutputWriter" data-source-line="119" data-uid="ent0029" id="entity_OutputWriter"><rect fill="#F1F1F1" height="32" rx="2.5" ry="2.5" style="stroke:#181818;stroke-width:0.5;" width="123.9775" x="244" y="649"/><ellipse cx="259" cy="665" fill="#ADD1B2" rx="11" ry="11" style="stroke:#181818;stroke-width:1;"/><path d="M261.9688,670.6406 Q261.3906,670.9375 260.75,671.0781 Q260.1094,671.2344 259.4063,671.2344 Q256.9063,671.2344 255.5781,669.5938 Q254.2656,667.9375 254.2656,664.8125 Q254.2656,661.6875 255.5781,660.0313 Q256.9063,658.375 259.4063,658.375 Q260.1094,658.375 260.75,658.5313 Q261.4063,658.6875 261.9688,658.9844 L261.9688,661.7031 Q261.3438,661.125 260.75,660.8594 Q260.1563,660.5781 259.5313,660.5781 Q258.1875,660.5781 257.5,661.6563 Q256.8125,662.7188 256.8125,664.8125 Q256.8125,666.9063 257.5,667.9844 Q258.1875,669.0469 259.5313,669.0469 Q260.1563,669.0469 260.75,668.7813 Q261.3438,668.5 261.9688,667.9219 L261.9688,670.6406 Z " fill="#000000"/><text fill="#000000" font-family="sans-serif" font-size="14" lengthAdjust="spacing" textLength="91.9775" x="273" y="669.8467">OutputWriter</text></g><!--class GameAbortedException--><g class="entity" data-entity="GameAbortedException" data-source-line="129" data-uid="ent0030" id="entity_GameAbortedException"><rect fill="#F1F1F1" height="32" rx="2.5" ry="2.5" style="stroke:#181818;stroke-width:0.5;" width="198.5986" x="1023.5" y="474"/><ellipse cx="1038.5" cy="490" fill="#ADD1B2" rx="11" ry="11" style="stroke:#181818;stroke-width:1;"/><path d="M1041.4688,495.6406 Q1040.8906,495.9375 1040.25,496.0781 Q1039.6094,496.2344 1038.9063,496.2344 Q1036.4063,496.2344 1035.0781,494.5938 Q1033.7656,492.9375 1033.7656,489.8125 Q1033.7656,486.6875 1035.0781,485.0313 Q1036.4063,483.375 1038.9063,483.375 Q1039.6094,483.375 1040.25,483.5313 Q1040.9063,483.6875 1041.4688,483.9844 L1041.4688,486.7031 Q1040.8438,486.125 1040.25,485.8594 Q1039.6563,485.5781 1039.0313,485.5781 Q1037.6875,485.5781 1037,486.6563 Q1036.3125,487.7188 1036.3125,489.8125 Q1036.3125,491.9063 1037,492.9844 Q1037.6875,494.0469 1039.0313,494.0469 Q1039.6563,494.0469 1040.25,493.7813 Q1040.8438,493.5 1041.4688,492.9219 L1041.4688,495.6406 Z " fill="#000000"/><text fill="#000000" font-family="sans-serif" font-size="14" lengthAdjust="spacing" textLength="166.5986" x="1052.5" y="494.8467">GameAbortedException</text></g><!--class MatchAbortedException--><g class="entity" data-entity="MatchAbortedException" data-source-line="133" data-uid="ent0032" id="entity_MatchAbortedException"><rect fill="#F1F1F1" height="32" rx="2.5" ry="2.5" style="stroke:#181818;stroke-width:0.5;" width="199.6377" x="788" y="474"/><ellipse cx="803" cy="490" fill="#ADD1B2" rx="11" ry="11" style="stroke:#181818;stroke-width:1;"/><path d="M805.9688,495.6406 Q805.3906,495.9375 804.75,496.0781 Q804.1094,496.2344 803.4063,496.2344 Q800.9063,496.2344 799.5781,494.5938 Q798.2656,492.9375 798.2656,489.8125 Q798.2656,486.6875 799.5781,485.0313 Q800.9063,483.375 803.4063,483.375 Q804.1094,483.375 804.75,483.5313 Q805.4063,483.6875 805.9688,483.9844 L805.9688,486.7031 Q805.3438,486.125 804.75,485.8594 Q804.1563,485.5781 803.5313,485.5781 Q802.1875,485.5781 801.5,486.6563 Q800.8125,487.7188 800.8125,489.8125 Q800.8125,491.9063 801.5,492.9844 Q802.1875,494.0469 803.5313,494.0469 Q804.1563,494.0469 804.75,493.7813 Q805.3438,493.5 805.9688,492.9219 L805.9688,495.6406 Z " fill="#000000"/><text fill="#000000" font-family="sans-serif" font-size="14" lengthAdjust="spacing" textLength="167.6377" x="817" y="494.8467">MatchAbortedException</text></g><!--class HomeScreen--><g class="entity" data-entity="HomeScreen" data-source-line="137" data-uid="ent0033" id="entity_HomeScreen"><rect fill="#F1F1F1" height="32" rx="2.5" ry="2.5" style="stroke:#181818;stroke-width:0.5;" width="121.7832" x="166" y="474"/><ellipse cx="181" cy="490" fill="#ADD1B2" rx="11" ry="11" style="stroke:#181818;stroke-width:1;"/><path d="M183.9688,495.6406 Q183.3906,495.9375 182.75,496.0781 Q182.1094,496.2344 181.4063,496.2344 Q178.9063,496.2344 177.5781,494.5938 Q176.2656,492.9375 176.2656,489.8125 Q176.2656,486.6875 177.5781,485.0313 Q178.9063,483.375 181.4063,483.375 Q182.1094,483.375 182.75,483.5313 Q183.4063,483.6875 183.9688,483.9844 L183.9688,486.7031 Q183.3438,486.125 182.75,485.8594 Q182.1563,485.5781 181.5313,485.5781 Q180.1875,485.5781 179.5,486.6563 Q178.8125,487.7188 178.8125,489.8125 Q178.8125,491.9063 179.5,492.9844 Q180.1875,494.0469 181.5313,494.0469 Q182.1563,494.0469 182.75,493.7813 Q183.3438,493.5 183.9688,492.9219 L183.9688,495.6406 Z " fill="#000000"/><text fill="#000000" font-family="sans-serif" font-size="14" lengthAdjust="spacing" textLength="89.7832" x="195" y="494.8467">HomeScreen</text></g><!--class MatchScreen--><g class="entity" data-entity="MatchScreen" data-source-line="143" data-uid="ent0035" id="entity_MatchScreen"><rect fill="#F1F1F1" height="32" rx="2.5" ry="2.5" style="stroke:#181818;stroke-width:0.5;" width="123.1572" x="323.5" y="474"/><ellipse cx="338.5" cy="490" fill="#ADD1B2" rx="11" ry="11" style="stroke:#181818;stroke-width:1;"/><path d="M341.4688,495.6406 Q340.8906,495.9375 340.25,496.0781 Q339.6094,496.2344 338.9063,496.2344 Q336.4063,496.2344 335.0781,494.5938 Q333.7656,492.9375 333.7656,489.8125 Q333.7656,486.6875 335.0781,485.0313 Q336.4063,483.375 338.9063,483.375 Q339.6094,483.375 340.25,483.5313 Q340.9063,483.6875 341.4688,483.9844 L341.4688,486.7031 Q340.8438,486.125 340.25,485.8594 Q339.6563,485.5781 339.0313,485.5781 Q337.6875,485.5781 337,486.6563 Q336.3125,487.7188 336.3125,489.8125 Q336.3125,491.9063 337,492.9844 Q337.6875,494.0469 339.0313,494.0469 Q339.6563,494.0469 340.25,493.7813 Q340.8438,493.5 341.4688,492.9219 L341.4688,495.6406 Z " fill="#000000"/><text fill="#000000" font-family="sans-serif" font-size="14" lengthAdjust="spacing" textLength="91.1572" x="352.5" y="494.8467">MatchScreen</text></g><!--class AbstractPlayer--><g class="entity" data-entity="AbstractPlayer" data-source-line="151" data-uid="ent0036" id="entity_AbstractPlayer"><rect fill="#F1F1F1" height="32" rx="2.5" ry="2.5" style="stroke:#181818;stroke-width:0.5;" width="134.334" x="2174" y="649"/><ellipse cx="2189" cy="665" fill="#A9DCDF" rx="11" ry="11" style="stroke:#181818;stroke-width:1;"/><path d="M2189.1094,660.3438 L2187.9531,665.4219 L2190.2813,665.4219 L2189.1094,660.3438 Z M2187.625,658.1094 L2190.6094,658.1094 L2193.9688,670.5 L2191.5156,670.5 L2190.75,667.4375 L2187.4688,667.4375 L2186.7188,670.5 L2184.2813,670.5 L2187.625,658.1094 Z " fill="#000000"/><text fill="#000000" font-family="sans-serif" font-size="14" font-style="italic" lengthAdjust="spacing" textLength="102.334" x="2203" y="669.8467">AbstractPlayer</text></g><!--class HumanPlayer--><g class="entity" data-entity="HumanPlayer" data-source-line="156" data-uid="ent0038" id="entity_HumanPlayer"><rect fill="#F1F1F1" height="32" rx="2.5" ry="2.5" style="stroke:#181818;stroke-width:0.5;" width="126.0557" x="2176" y="474"/><ellipse cx="2191" cy="490" fill="#ADD1B2" rx="11" ry="11" style="stroke:#181818;stroke-width:1;"/><path d="M2193.9688,495.6406 Q2193.3906,495.9375 2192.75,496.0781 Q2192.1094,496.2344 2191.4063,496.2344 Q2188.9063,496.2344 2187.5781,494.5938 Q2186.2656,492.9375 2186.2656,489.8125 Q2186.2656,486.6875 2187.5781,485.0313 Q2188.9063,483.375 2191.4063,483.375 Q2192.1094,483.375 2192.75,483.5313 Q2193.4063,483.6875 2193.9688,483.9844 L2193.9688,486.7031 Q2193.3438,486.125 2192.75,485.8594 Q2192.1563,485.5781 2191.5313,485.5781 Q2190.1875,485.5781 2189.5,486.6563 Q2188.8125,487.7188 2188.8125,489.8125 Q2188.8125,491.9063 2189.5,492.9844 Q2190.1875,494.0469 2191.5313,494.0469 Q2192.1563,494.0469 2192.75,493.7813 Q2193.3438,493.5 2193.9688,492.9219 L2193.9688,495.6406 Z " fill="#000000"/><text fill="#000000" font-family="sans-serif" font-size="14" lengthAdjust="spacing" textLength="94.0557" x="2205" y="494.8467">HumanPlayer</text></g><!--class BotPlayer--><g class="entity" data-entity="BotPlayer" data-source-line="161" data-uid="ent0039" id="entity_BotPlayer"><rect fill="#F1F1F1" height="32" rx="2.5" ry="2.5" style="stroke:#181818;stroke-width:0.5;" width="99.2246" x="2452.5" y="474"/><ellipse cx="2467.5" cy="490" fill="#A9DCDF" rx="11" ry="11" style="stroke:#181818;stroke-width:1;"/><path d="M2467.6094,485.3438 L2466.4531,490.4219 L2468.7813,490.4219 L2467.6094,485.3438 Z M2466.125,483.1094 L2469.1094,483.1094 L2472.4688,495.5 L2470.0156,495.5 L2469.25,492.4375 L2465.9688,492.4375 L2465.2188,495.5 L2462.7813,495.5 L2466.125,483.1094 Z " fill="#000000"/><text fill="#000000" font-family="sans-serif" font-size="14" font-style="italic" lengthAdjust="spacing" textLength="67.2246" x="2481.5" y="494.8467">BotPlayer</text></g><!--class MiniMaxBotPlayer--><g class="entity" data-entity="MiniMaxBotPlayer" data-source-line="165" data-uid="ent0041" id="entity_MiniMaxBotPlayer"><rect fill="#F1F1F1" height="32" rx="2.5" ry="2.5" style="stroke:#181818;stroke-width:0.5;" width="156.8994" x="2438.5" y="299"/><ellipse cx="2453.5" cy="315" fill="#ADD1B2" rx="11" ry="11" style="stroke:#181818;stroke-width:1;"/><path d="M2456.4688,320.6406 Q2455.8906,320.9375 2455.25,321.0781 Q2454.6094,321.2344 2453.9063,321.2344 Q2451.4063,321.2344 2450.0781,319.5938 Q2448.7656,317.9375 2448.7656,314.8125 Q2448.7656,311.6875 2450.0781,310.0313 Q2451.4063,308.375 2453.9063,308.375 Q2454.6094,308.375 2455.25,308.5313 Q2455.9063,308.6875 2456.4688,308.9844 L2456.4688,311.7031 Q2455.8438,311.125 2455.25,310.8594 Q2454.6563,310.5781 2454.0313,310.5781 Q2452.6875,310.5781 2452,311.6563 Q2451.3125,312.7188 2451.3125,314.8125 Q2451.3125,316.9063 2452,317.9844 Q2452.6875,319.0469 2454.0313,319.0469 Q2454.6563,319.0469 2455.25,318.7813 Q2455.8438,318.5 2456.4688,317.9219 L2456.4688,320.6406 Z " fill="#000000"/><text fill="#000000" font-family="sans-serif" font-size="14" lengthAdjust="spacing" textLength="124.8994" x="2467.5" y="319.8467">MiniMaxBotPlayer</text></g><!--class InvalidMoveException--><g class="entity" data-entity="InvalidMoveException" data-source-line="170" data-uid="ent0042" id="entity_InvalidMoveException"><rect fill="#F1F1F1" height="32" rx="2.5" ry="2.5" style="stroke:#181818;stroke-width:0.5;" width="185.2207" x="2197.5" y="299"/><ellipse cx="2212.5" cy="315" fill="#ADD1B2" rx="11" ry="11" style="stroke:#181818;stroke-width:1;"/><path d="M2215.4688,320.6406 Q2214.8906,320.9375 2214.25,321.0781 Q2213.6094,321.2344 2212.9063,321.2344 Q2210.4063,321.2344 2209.0781,319.5938 Q2207.7656,317.9375 2207.7656,314.8125 Q2207.7656,311.6875 2209.0781,310.0313 Q2210.4063,308.375 2212.9063,308.375 Q2213.6094,308.375 2214.25,308.5313 Q2214.9063,308.6875 2215.4688,308.9844 L2215.4688,311.7031 Q2214.8438,311.125 2214.25,310.8594 Q2213.6563,310.5781 2213.0313,310.5781 Q2211.6875,310.5781 2211,311.6563 Q2210.3125,312.7188 2210.3125,314.8125 Q2210.3125,316.9063 2211,317.9844 Q2211.6875,319.0469 2213.0313,319.0469 Q2213.6563,319.0469 2214.25,318.7813 Q2214.8438,318.5 2215.4688,317.9219 L2215.4688,320.6406 Z " fill="#000000"/><text fill="#000000" font-family="sans-serif" font-size="14" lengthAdjust="spacing" textLength="153.2207" x="2226.5" y="319.8467">InvalidMoveException</text></g><!--class MiniMax--><g class="entity" data-entity="MiniMax" data-source-line="175" data-uid="ent0044" id="entity_MiniMax"><rect fill="#F1F1F1" height="32" rx="2.5" ry="2.5" style="stroke:#181818;stroke-width:0.5;" width="89.6748" x="2676" y="474"/><ellipse cx="2691" cy="490" fill="#ADD1B2" rx="11" ry="11" style="stroke:#181818;stroke-width:1;"/><path d="M2693.9688,495.6406 Q2693.3906,495.9375 2692.75,496.0781 Q2692.1094,496.2344 2691.4063,496.2344 Q2688.9063,496.2344 2687.5781,494.5938 Q2686.2656,492.9375 2686.2656,489.8125 Q2686.2656,486.6875 2687.5781,485.0313 Q2688.9063,483.375 2691.4063,483.375 Q2692.1094,483.375 2692.75,483.5313 Q2693.4063,483.6875 2693.9688,483.9844 L2693.9688,486.7031 Q2693.3438,486.125 2692.75,485.8594 Q2692.1563,485.5781 2691.5313,485.5781 Q2690.1875,485.5781 2689.5,486.6563 Q2688.8125,487.7188 2688.8125,489.8125 Q2688.8125,491.9063 2689.5,492.9844 Q2690.1875,494.0469 2691.5313,494.0469 Q2692.1563,494.0469 2692.75,493.7813 Q2693.3438,493.5 2693.9688,492.9219 L2693.9688,495.6406 Z " fill="#000000"/><text fill="#000000" font-family="sans-serif" font-size="14" lengthAdjust="spacing" textLength="57.6748" x="2705" y="494.8467">MiniMax</text></g><!--reverse link Piece to PieceType--><g class="link" data-entity-1="Piece" data-entity-2="PieceType" data-source-line="185" data-uid="lnk46" id="link_Piece_PieceType"><path codeLine="185" d="M1357.2839,692.7599 C1354.1739,701.8199 1354.57,702.22 1353,713 C1350.69,728.88 1351.74,747.28 1353.03,759.88" fill="none" id="Piece-backto-PieceType" style="stroke:#181818;stroke-width:1;"/><polygon fill="#181818" points="1361.18,681.41,1355.4487,685.7863,1357.2839,692.7599,1363.0153,688.3836,1361.18,681.41" style="stroke:#181818;stroke-width:1;"/><text fill="#000000" font-family="sans-serif" font-size="13" lengthAdjust="spacing" textLength="29.0405" x="1354" y="726.0669">type</text></g><!--reverse link Piece to PlayerColor--><g class="link" data-entity-1="Piece" data-entity-2="PlayerColor" data-source-line="186" data-uid="lnk47" id="link_Piece_PlayerColor"><path codeLine="186" d="M1385.7405,690.5763 C1396.5205,704.3363 1406.28,715.24 1424,730 C1437.75,741.46 1454.7,751.98 1468.91,759.97" fill="none" id="Piece-backto-PlayerColor" style="stroke:#181818;stroke-width:1;"/><polygon fill="#181818" points="1378.34,681.13,1378.8915,688.32,1385.7405,690.5763,1385.189,683.3863,1378.34,681.13" style="stroke:#181818;stroke-width:1;"/><text fill="#000000" font-family="sans-serif" font-size="13" lengthAdjust="spacing" textLength="32.0112" x="1425" y="726.0669">color</text></g><!--reverse link BoardRenderer to FieldRenderer--><g class="link" data-entity-1="BoardRenderer" data-entity-2="FieldRenderer" data-source-line="187" data-uid="lnk48" id="link_BoardRenderer_FieldRenderer"><path codeLine="187" d="M1868,804.16 C1868,824.98 1868,850.22 1868,870.97" fill="none" id="BoardRenderer-backto-FieldRenderer" style="stroke:#181818;stroke-width:1;"/><polygon fill="#181818" points="1868,792.16,1864,798.16,1868,804.16,1872,798.16,1868,792.16" style="stroke:#181818;stroke-width:1;"/><text fill="#000000" font-family="sans-serif" font-size="13" lengthAdjust="spacing" textLength="43.1768" x="1869" y="837.0669">render</text></g><!--reverse link ChessBoardRenderer to BoardRenderer--><g class="link" data-entity-1="ChessBoardRenderer" data-entity-2="BoardRenderer" data-source-line="188" data-uid="lnk49" id="link_ChessBoardRenderer_BoardRenderer"><path codeLine="188" d="M1874.762,693.1193 C1873.042,713.9393 1870.95,739.22 1869.24,759.97" fill="none" id="ChessBoardRenderer-backto-BoardRenderer" style="stroke:#181818;stroke-width:1;"/><polygon fill="#181818" points="1875.75,681.16,1871.2696,686.8103,1874.762,693.1193,1879.2424,687.469,1875.75,681.16" style="stroke:#181818;stroke-width:1;"/><text fill="#000000" font-family="sans-serif" font-size="13" lengthAdjust="spacing" textLength="97.9761" x="1875" y="726.0669">boardRenderer</text></g><!--reverse link MateAwareEval to EvalStrategy--><g class="link" data-entity-1="MateAwareEval" data-entity-2="EvalStrategy" data-source-line="189" data-uid="lnk50" id="link_MateAwareEval_EvalStrategy"><path codeLine="189" d="M3154.9276,510.9511 C3126.3376,523.6811 3100.7,535.38 3098,538 C3064.97,569.99 3046.48,622.95 3038.98,648.82" fill="none" id="MateAwareEval-backto-EvalStrategy" style="stroke:#181818;stroke-width:1;"/><polygon fill="#181818" points="3165.89,506.07,3158.7817,504.8564,3154.9276,510.9511,3162.0358,512.1647,3165.89,506.07" style="stroke:#181818;stroke-width:1;"/><text fill="#000000" font-family="sans-serif" font-size="13" lengthAdjust="spacing" textLength="82.9702" x="3099" y="551.0669">evalStrategy</text></g><!--link MateAwareEval to EvalStrategy--><g class="link" data-entity-1="MateAwareEval" data-entity-2="EvalStrategy" data-source-line="190" data-uid="lnk51" id="link_MateAwareEval_EvalStrategy"><path codeLine="190" d="M3199.7,506.14 C3198.76,519.91 3195.67,540.26 3186,555 C3157.01,599.2 3119.5523,623.3454 3084.6323,640.8454" fill="none" id="MateAwareEval-to-EvalStrategy" style="stroke:#181818;stroke-width:1;stroke-dasharray:7,7;"/><polygon fill="none" points="3068.54,648.91,3087.3205,646.2095,3081.9441,635.4813,3068.54,648.91" style="stroke:#181818;stroke-width:1;"/></g><!--link MaterialEval to EvalStrategy--><g class="link" data-entity-1="MaterialEval" data-entity-2="EvalStrategy" data-source-line="191" data-uid="lnk52" id="link_MaterialEval_EvalStrategy"><path codeLine="191" d="M2894.4,506.05 C2923.52,538.77 2980.3636,602.6136 3009.5536,635.4136" fill="none" id="MaterialEval-to-EvalStrategy" style="stroke:#181818;stroke-width:1;stroke-dasharray:7,7;"/><polygon fill="none" points="3021.52,648.86,3014.0357,631.4248,3005.0714,639.4025,3021.52,648.86" style="stroke:#181818;stroke-width:1;"/></g><!--link RandomEval to EvalStrategy--><g class="link" data-entity-1="RandomEval" data-entity-2="EvalStrategy" data-source-line="192" data-uid="lnk53" id="link_RandomEval_EvalStrategy"><path codeLine="192" d="M3035,506.05 C3035,538.77 3035,598.06 3035,630.86" fill="none" id="RandomEval-to-EvalStrategy" style="stroke:#181818;stroke-width:1;stroke-dasharray:7,7;"/><polygon fill="none" points="3035,648.86,3041,630.86,3029,630.86,3035,648.86" style="stroke:#181818;stroke-width:1;"/></g><!--reverse link MatchConfig to AbstractPlayer--><g class="link" data-entity-1="MatchConfig" data-entity-2="AbstractPlayer" data-source-line="193" data-uid="lnk54" id="link_MatchConfig_AbstractPlayer"><path codeLine="193" d="M726.8421,512.162 C742.0121,521.022 752.2,525.32 772,530 C841.96,546.56 1995.82,522.42 2066,538 C2083.67,541.92 2085.95,548.94 2103,555 C2116.41,559.77 2121.54,556.12 2134,563 C2174.47,585.35 2211.2,626.59 2229.25,648.83" fill="none" id="MatchConfig-backto-AbstractPlayer" style="stroke:#181818;stroke-width:1;"/><polygon fill="#181818" points="716.48,506.11,719.6437,512.59,726.8421,512.162,723.6784,505.6819,716.48,506.11" style="stroke:#181818;stroke-width:1;"/><text fill="#000000" font-family="sans-serif" font-size="13" lengthAdjust="spacing" textLength="34.5059" x="2104" y="551.0669">black</text></g><!--reverse link MatchConfig to AbstractPlayer--><g class="link" data-entity-1="MatchConfig" data-entity-2="AbstractPlayer" data-source-line="194" data-uid="lnk55" id="link_MatchConfig_AbstractPlayer"><path codeLine="194" d="M726.8439,512.159 C742.0239,521.019 752.2,525.31 772,530 C836.93,545.38 1907.28,526.48 1973,538 C1995.29,541.91 1998.84,550.38 2021,555 C2045.64,560.14 2110.95,552.88 2134,563 C2176.81,581.79 2213.09,625.33 2230.3,648.63" fill="none" id="MatchConfig-backto-AbstractPlayer-1" style="stroke:#181818;stroke-width:1;"/><polygon fill="#181818" points="716.48,506.11,719.6456,512.5891,726.8439,512.159,723.6783,505.6799,716.48,506.11" style="stroke:#181818;stroke-width:1;"/><text fill="#000000" font-family="sans-serif" font-size="13" lengthAdjust="spacing" textLength="35.5786" x="2022" y="551.0669">white</text></g><!--reverse link HomeScreen to InputReader--><g class="link" data-entity-1="HomeScreen" data-entity-2="InputReader" data-source-line="195" data-uid="lnk56" id="link_HomeScreen_InputReader"><path codeLine="195" d="M248.7174,514.8282 C263.2274,530.0582 279.56,544.1 306,555 C338.63,568.45 350.18,557.27 385,563 C525.09,586.04 687.2,626.9 770.4,648.92" fill="none" id="HomeScreen-backto-InputReader" style="stroke:#181818;stroke-width:1;"/><polygon fill="#181818" points="240.44,506.14,241.6827,513.2432,248.7174,514.8282,247.4748,507.7249,240.44,506.14" style="stroke:#181818;stroke-width:1;"/><text fill="#000000" font-family="sans-serif" font-size="13" lengthAdjust="spacing" textLength="42.9038" x="307" y="551.0669">reader</text></g><!--link HomeScreen to OutputWriter--><g class="link" data-entity-1="HomeScreen" data-entity-2="OutputWriter" data-source-line="196" data-uid="lnk57" id="link_HomeScreen_OutputWriter"><path codeLine="196" d="M222.1,506.16 C218.63,519.4 215.48,538.96 221,555 C234.34,593.81 263.4049,625.3047 284.1349,644.6647" fill="none" id="HomeScreen-to-OutputWriter" style="stroke:#181818;stroke-width:1;"/><polygon fill="#181818" points="288.52,648.76,284.6726,639.6937,284.8658,645.3473,279.2122,645.5405,288.52,648.76" style="stroke:#181818;stroke-width:1;"/><text fill="#000000" font-family="sans-serif" font-size="13" lengthAdjust="spacing" textLength="38.0288" x="222" y="551.0669">writer</text></g><!--link MatchScreen to ChessBoard--><g class="link" data-entity-1="MatchScreen" data-entity-2="ChessBoard" data-source-line="197" data-uid="lnk58" id="link_MatchScreen_ChessBoard"><path codeLine="197" d="M403.93,506.07 C416.27,514.91 433.15,525.25 450,530 C474.09,536.79 1326.01,536.56 1351,538 C1422.39,542.1 1439.62,550.61 1511,555 C1537.18,556.61 1959.6,551.17 1983,563 C2019.2,581.31 2040.6614,620.0159 2051.2714,643.4059" fill="none" id="MatchScreen-to-ChessBoard" style="stroke:#181818;stroke-width:1;"/><polygon fill="#181818" points="2053.75,648.87,2053.6749,639.0214,2051.6845,644.3166,2046.3894,642.3262,2053.75,648.87" style="stroke:#181818;stroke-width:1;"/><text fill="#000000" font-family="sans-serif" font-size="13" lengthAdjust="spacing" textLength="74.6992" x="1512" y="551.0669">chessboard</text></g><!--link MatchScreen to ChessBoardRenderer--><g class="link" data-entity-1="MatchScreen" data-entity-2="ChessBoardRenderer" data-source-line="198" data-uid="lnk59" id="link_MatchScreen_ChessBoardRenderer"><path codeLine="198" d="M403.94,506.02 C416.28,514.85 433.17,525.19 450,530 C475.43,537.27 899.57,536.99 926,538 C1052.36,542.84 1083.64,550.32 1210,555 C1225.52,555.58 1754.6,557.19 1769,563 C1812.81,580.66 1845.9165,620.2536 1863.0465,643.8636" fill="none" id="MatchScreen-to-ChessBoardRenderer" style="stroke:#181818;stroke-width:1;"/><polygon fill="#181818" points="1866.57,648.72,1864.5223,639.0864,1863.6337,644.673,1858.0471,643.7844,1866.57,648.72" style="stroke:#181818;stroke-width:1;"/><text fill="#000000" font-family="sans-serif" font-size="13" lengthAdjust="spacing" textLength="135.5732" x="1211" y="551.0669">chessBoardRenderer</text></g><!--link MatchScreen to OutputWriter--><g class="link" data-entity-1="MatchScreen" data-entity-2="OutputWriter" data-source-line="199" data-uid="lnk60" id="link_MatchScreen_OutputWriter"><path codeLine="199" d="M378.13,506.05 C363.19,538.77 330.3826,610.6023 315.4026,643.4023" fill="none" id="MatchScreen-to-OutputWriter" style="stroke:#181818;stroke-width:1;"/><polygon fill="#181818" points="312.91,648.86,320.2874,642.3351,314.9872,644.3119,313.0104,639.0117,312.91,648.86" style="stroke:#181818;stroke-width:1;"/><text fill="#000000" font-family="sans-serif" font-size="13" lengthAdjust="spacing" textLength="38.0288" x="363" y="551.0669">writer</text></g><!--link MatchScreen to AbstractPlayer--><g class="link" data-entity-1="MatchScreen" data-entity-2="AbstractPlayer" data-source-line="200" data-uid="lnk61" id="link_MatchScreen_AbstractPlayer"><path codeLine="200" d="M403.92,506.09 C416.26,514.94 433.15,525.28 450,530 C487.88,540.61 1827.02,532.72 1866,538 C1894.74,541.89 1900.33,550.63 1929,555 C1951.53,558.44 2112.98,554.17 2134,563 C2177.33,581.21 2210.1264,620.5636 2227.1264,643.9936" fill="none" id="MatchScreen-to-AbstractPlayer" style="stroke:#181818;stroke-width:1;"/><polygon fill="#181818" points="2230.65,648.85,2228.6022,639.2164,2227.7137,644.803,2222.127,643.9145,2230.65,648.85" style="stroke:#181818;stroke-width:1;"/><text fill="#000000" font-family="sans-serif" font-size="13" lengthAdjust="spacing" textLength="34.5059" x="1930" y="551.0669">black</text></g><!--link MatchScreen to AbstractPlayer--><g class="link" data-entity-1="MatchScreen" data-entity-2="AbstractPlayer" data-source-line="201" data-uid="lnk62" id="link_MatchScreen_AbstractPlayer"><path codeLine="201" d="M403.93,506.08 C416.26,514.93 433.15,525.27 450,530 C480.52,538.57 1559.43,535.17 1591,538 C1635.03,541.95 1644.99,550.81 1689,555 C1713.62,557.34 2111.1,553.66 2134,563 C2177.52,580.75 2210.2593,620.2871 2227.1993,643.8671" fill="none" id="MatchScreen-to-AbstractPlayer-1" style="stroke:#181818;stroke-width:1;"/><polygon fill="#181818" points="2230.7,648.74,2228.6975,639.0969,2227.7827,644.6793,2222.2003,643.7645,2230.7,648.74" style="stroke:#181818;stroke-width:1;"/><text fill="#000000" font-family="sans-serif" font-size="13" lengthAdjust="spacing" textLength="87.8643" x="1690" y="551.0669">currentPlayer</text></g><!--link MatchScreen to AbstractPlayer--><g class="link" data-entity-1="MatchScreen" data-entity-2="AbstractPlayer" data-source-line="202" data-uid="lnk63" id="link_MatchScreen_AbstractPlayer"><path codeLine="202" d="M403.92,506.09 C416.26,514.94 433.15,525.28 450,530 C521.26,549.97 1709.6,522.68 1782,538 C1800.5,541.91 1802.54,550.9 1821,555 C1854.96,562.53 2101.84,549.74 2134,563 C2177.45,580.92 2210.2117,620.3826 2227.1717,643.9126" fill="none" id="MatchScreen-to-AbstractPlayer-2" style="stroke:#181818;stroke-width:1;"/><polygon fill="#181818" points="2230.68,648.78,2228.6624,639.14,2227.7564,644.7238,2222.1726,643.8178,2230.68,648.78" style="stroke:#181818;stroke-width:1;"/><text fill="#000000" font-family="sans-serif" font-size="13" lengthAdjust="spacing" textLength="35.5786" x="1822" y="551.0669">white</text></g><!--reverse link AbstractPlayer to PlayerColor--><g class="link" data-entity-1="AbstractPlayer" data-entity-2="PlayerColor" data-source-line="203" data-uid="lnk64" id="link_AbstractPlayer_PlayerColor"><path codeLine="203" d="M2197.5044,685.7599 C2176.6844,694.5999 2159.86,700.25 2134,705 C2101.65,710.94 1571.12,697.71 1542,713 C1523.19,722.88 1510.63,744.86 1503.91,759.8" fill="none" id="AbstractPlayer-backto-PlayerColor" style="stroke:#181818;stroke-width:1;"/><polygon fill="#181818" points="2208.55,681.07,2201.4639,679.7331,2197.5044,685.7599,2204.5905,687.0968,2208.55,681.07" style="stroke:#181818;stroke-width:1;"/><text fill="#000000" font-family="sans-serif" font-size="13" lengthAdjust="spacing" textLength="74.8071" x="1543" y="726.0669">playerColor</text></g><!--reverse link HumanPlayer to InputReader--><g class="link" data-entity-1="HumanPlayer" data-entity-2="InputReader" data-source-line="204" data-uid="lnk65" id="link_HumanPlayer_InputReader"><path codeLine="204" d="M2214.8323,514.2176 C2197.7723,529.8876 2177.4,545.31 2147,555 C2101.48,569.51 1334.48,557.64 1287,563 C1136.38,580.02 962.71,625.18 877.95,648.93" fill="none" id="HumanPlayer-backto-InputReader" style="stroke:#181818;stroke-width:1;"/><polygon fill="#181818" points="2223.67,506.1,2216.5453,507.2129,2214.8323,514.2176,2221.957,513.1047,2223.67,506.1" style="stroke:#181818;stroke-width:1;"/><text fill="#000000" font-family="sans-serif" font-size="13" lengthAdjust="spacing" textLength="42.9038" x="2182" y="551.0669">reader</text></g><!--link HumanPlayer to AbstractPlayer--><g class="link" data-entity-1="HumanPlayer" data-entity-2="AbstractPlayer" data-source-line="205" data-uid="lnk66" id="link_HumanPlayer_AbstractPlayer"><path codeLine="205" d="M2239.17,506.05 C2239.55,538.77 2240.247,598.0611 2240.617,630.8611" fill="none" id="HumanPlayer-to-AbstractPlayer" style="stroke:#181818;stroke-width:1;"/><polygon fill="none" points="2240.82,648.86,2246.6166,630.7935,2234.6173,630.9288,2240.82,648.86" style="stroke:#181818;stroke-width:1;"/></g><!--link BotPlayer to AbstractPlayer--><g class="link" data-entity-1="BotPlayer" data-entity-2="AbstractPlayer" data-source-line="206" data-uid="lnk67" id="link_BotPlayer_AbstractPlayer"><path codeLine="206" d="M2481.66,506.06 C2471.62,513.41 2459.26,522.29 2448,530 C2382.81,574.6 2319.3168,614.9426 2280.4168,639.3526" fill="none" id="BotPlayer-to-AbstractPlayer" style="stroke:#181818;stroke-width:1;"/><polygon fill="none" points="2265.17,648.92,2283.6059,644.4348,2277.2276,634.2703,2265.17,648.92" style="stroke:#181818;stroke-width:1;"/></g><!--reverse link MiniMaxBotPlayer to MiniMax--><g class="link" data-entity-1="MiniMaxBotPlayer" data-entity-2="MiniMax" data-source-line="207" data-uid="lnk68" id="link_MiniMaxBotPlayer_MiniMax"><path codeLine="207" d="M2547.9332,338.1965 C2567.4932,352.3865 2587.42,367.39 2612,388 C2646.59,417.01 2684.83,453.56 2705.56,473.78" fill="none" id="MiniMaxBotPlayer-backto-MiniMax" style="stroke:#181818;stroke-width:1;"/><polygon fill="#181818" points="2538.22,331.15,2540.7278,337.911,2547.9332,338.1965,2545.4254,331.4355,2538.22,331.15" style="stroke:#181818;stroke-width:1;"/><text fill="#000000" font-family="sans-serif" font-size="13" lengthAdjust="spacing" textLength="55.0024" x="2603" y="376.0669">miniMax</text></g><!--link MiniMaxBotPlayer to BotPlayer--><g class="link" data-entity-1="MiniMaxBotPlayer" data-entity-2="BotPlayer" data-source-line="208" data-uid="lnk69" id="link_MiniMaxBotPlayer_BotPlayer"><path codeLine="208" d="M2515.7,331.05 C2512.86,363.77 2507.7182,423.1276 2504.8682,455.9276" fill="none" id="MiniMaxBotPlayer-to-BotPlayer" style="stroke:#181818;stroke-width:1;"/><polygon fill="none" points="2503.31,473.86,2510.8456,456.447,2498.8907,455.4082,2503.31,473.86" style="stroke:#181818;stroke-width:1;"/></g><!--reverse link MiniMax to PlayerColor--><g class="link" data-entity-1="MiniMax" data-entity-2="PlayerColor" data-source-line="209" data-uid="lnk70" id="link_MiniMax_PlayerColor"><path codeLine="209" d="M2714.2472,517.856 C2702.8072,562.596 2670.24,680.38 2636,705 C2544.03,771.13 1730.83,749.91 1618,760 C1597.09,761.87 1574.2,764.57 1554.08,767.16" fill="none" id="MiniMax-backto-PlayerColor" style="stroke:#181818;stroke-width:1;"/><polygon fill="#181818" points="2717.22,506.23,2711.8583,511.0521,2714.2472,517.856,2719.6089,513.0339,2717.22,506.23" style="stroke:#181818;stroke-width:1;"/><text fill="#000000" font-family="sans-serif" font-size="13" lengthAdjust="spacing" textLength="101.2197" x="2702" y="669.5669">ownPlayerColor</text></g><!--reverse link MiniMax to EvalStrategy--><g class="link" data-entity-1="MiniMax" data-entity-2="EvalStrategy" data-source-line="210" data-uid="lnk71" id="link_MiniMax_EvalStrategy"><path codeLine="210" d="M2757.8303,512.0912 C2780.6803,525.1412 2804.22,538.5 2834,555 C2895.45,589.06 2968.02,628.13 3006.95,649" fill="none" id="MiniMax-backto-EvalStrategy" style="stroke:#181818;stroke-width:1;"/><polygon fill="#181818" points="2747.41,506.14,2750.6364,512.589,2757.8303,512.0912,2754.6039,505.6422,2747.41,506.14" style="stroke:#181818;stroke-width:1;"/><text fill="#000000" font-family="sans-serif" font-size="13" lengthAdjust="spacing" textLength="82.9702" x="2835" y="551.0669">evalStrategy</text></g><!--SRC=[lLXRR-8u57xU_8eypcmNItJVkj98qD8MJRaiK7MbVHWvYI7k93ORExseq_xszIK11r9YK-WBIepF-SxzaZ21ZFbX36AMv2243AGCHI18Q337B0O3Y8d_ultsaY8Uq-ZLzryOXno7h_vRAl_xyjK_ynyeZhnNp_F21dO1P0XS8dBBSV8EsvC5ukB6c3BCCINTX8O_cV_5Ny8CfbEUOR9e2qZzv4lqVs_kuGC42IGBe8__gkVy01CSGOu4-u9y5ritfSOOXQYYqab84vff0pKH9_0PPUVolia0_PV3PANxABX78PT2wYSbP41fWY0ngUQeyCfvBCX2ZYeyOyZYSneXVGKJRlwP2kDa62PZAlvWjLSuBKttTMMkol_FIsIdipJOJDnMDaOaJwqfb9dd62KIiDkVNe_6ni7t_l3AV1tshwvdni6uSpSqNl- -xVNCzybezDrUfBNZgaBTTCw_6-ztr_rPpowOACmYS1uZnhhoqMIxYkJMTDQPpCQZQN_M7mr_NFQ6fY-Asot5IZg2fc21UPm788Xbbb22xpCGIem41q3Xc3wCw80-e9t9OQ-0oLYdzdkXWzaLJD7e0HL9KnFRc4d9Rj029Zl5go5D996aBk9QrOnSr25mWnbty4sEjSKcY4GeGrabwTyoTLeATulLrRQ5nGJRuhR_XoOsWklKgORuXdsTz5fxhQ9S6L12AYQEh7IHHLwhCrPKfYkgDjfouA7L5nKCPNCeohEDt5BNMjVwBp1WN5RKBHLkiIApThEwlIbcKxqfoQUYAsHek-PST2PcoRbHPSzMVoHw8-Y97o6GQ0ABv_TL5qaiB-PGjkUTMHZHF4YGLGWg_850xZmAvIJ_IkGDEl_y6DuEkht9ccsrhXnH9DaHLnBjZxccrOcaAk4Eieq2PP1dA1Lrh9Sk-REA97QPqRGSc7RoT2WAIlq9915D3w2y3U92L7zTWcGVgFXVE275H4XnvjDi0UuJJ10e3y6iU31jn6AQoqGMBJFZfOHziipv146HkhjpLObYt2vhqYZdukmkmmBxj9c3UVszlbG8k9eu3HqU9M6FHD8S0s4Mk5WrPPDpUmz1h8VRBKkORidqaUaKVIH2bY1DK2tyC9B_72f6bN0YHKCnqf8vNbI3D4XW-BDf5bsglW4wHNtJRUJZG_ZECRjfXdwCXP_s4zpQQfM8C7pwvfng9_CaPt5j19yiXMgyUSlQfEYGw58pTQLCo3uqzdZMzaLF8LhAwiY0JDzEG3EEebvvAao-3oiLwn_XnS8C8GAkQOgcwd6hhflfr122c-bdrYx1oHp9NBTWLuMK53KQIJc6w8dhXQOstLeg23RRfo5CsttwtApakXjTO2QpLW_v1KurVzlkAM_RLwH5oodERp9jFTAkaN1jPAtNUfLeEwsBhYsWaFGwJo6f4VEOehbQCw1SR8vhOpge9qa7cE01V38vV8wUbZ8QPQfFrASsAOnPfTQ30ytmGhOH9QuJ64Cm2sCk4hqqI8Ln29CmJzHOUY5muwtcgsv8Isqc_DxMAaP30NEgqMeMs3_TIqZjbjCLy-mnt5ptkLIMpYaaexa99f_R5j-Kv8825E56C0aFstn8_RtLyks_1vxvyhFZ0JaRlf2woexa_5ce2QZ-YyEPhpyjUFjzhh45hLB91cAyUqvxUWFazfU5CnyPhsvW0FpwveJckIpu1-TkxC-7vBsrzpJueBwT2w_B3UaJSDH2upcFfWreMwkfp1suEtVUGMgrllbE6vFGIJruxkDf0zPMcPOrNRoeysF1rHUJ0hbhMHlsbE0pZVkXH3WSN9XdeigNE_kdmJQbOJsTUyDS6ekSq-H-X8IlGMcrVhcRptCSxuy8ihK8D9YjPcG-yrFzj2UYfNOLatXE4hf77NqaOwl0SqThd66y64V8Lqi8qyzwdcRU_m00]--></g></svg>