<svg xmlns="http://www.w3.org/2000/svg" xmlns:xlink="http://www.w3.org/1999/xlink" contentStyleType="text/css" data-diagram-type="CLASS" height="1121px" preserveAspectRatio="none" style="width:5499px;height:1121px;background:#FFFFFF;" version="1.1" viewBox="0 0 5499 1121" width="5499px" zoomAndPan="magnify"><defs/><g><!--cluster ch--><g class="cluster" data-entity="ch" data-source-line="2" data-uid="ent0003" id="cluster_ch"><path d="M8.5,6 L27.7656,6 A3.75,3.75 0 0 1 30.2656,8.5 L37.2656,28.2969 L5489.5,28.2969 A2.5,2.5 0 0 1 5492,30.7969 L5492,1111.5 A2.5,2.5 0 0 1 5489.5,1114 L8.5,1114 A2.5,2.5 0 0 1 6,1111.5 L6,8.5 A2.5,2.5 0 0 1 8.5,6" fill="none" style="stroke:#000000;stroke-width:1.5;"/><line style="stroke:#000000;stroke-width:1.5;" x1="6" x2="37.2656" y1="28.2969" y2="28.2969"/><text fill="#000000" font-family="sans-serif" font-size="14" font-weight="bold" lengthAdjust="spacing" textLength="18.2656" x="10" y="20.9951">ch</text></g><!--cluster hslu--><g class="cluster" data-entity="hslu" data-source-line="2" data-uid="ent0004" id="cluster_hslu"><path d="M32.5,49 L66.5654,49 A3.75,3.75 0 0 1 69.0654,51.5 L76.0654,71.2969 L5465.5,71.2969 A2.5,2.5 0 0 1 5468,73.7969 L5468,1087.5 A2.5,2.5 0 0 1 5465.5,1090 L32.5,1090 A2.5,2.5 0 0 1 30,1087.5 L30,51.5 A2.5,2.5 0 0 1 32.5,49" fill="none" style="stroke:#000000;stroke-width:1.5;"/><line style="stroke:#000000;stroke-width:1.5;" x1="30" x2="76.0654" y1="71.2969" y2="71.2969"/><text fill="#000000" font-family="sans-serif" font-size="14" font-weight="bold" lengthAdjust="spacing" textLength="33.0654" x="34" y="63.9951">hslu</text></g><!--cluster cas--><g class="cluster" data-entity="cas" data-source-line="2" data-uid="ent0005" id="cluster_cas"><path d="M56.5,92 L83.5791,92 A3.75,3.75 0 0 1 86.0791,94.5 L93.0791,114.2969 L5441.5,114.2969 A2.5,2.5 0 0 1 5444,116.7969 L5444,1063.5 A2.5,2.5 0 0 1 5441.5,1066 L56.5,1066 A2.5,2.5 0 0 1 54,1063.5 L54,94.5 A2.5,2.5 0 0 1 56.5,92" fill="none" style="stroke:#000000;stroke-width:1.5;"/><line style="stroke:#000000;stroke-width:1.5;" x1="54" x2="93.0791" y1="114.2969" y2="114.2969"/><text fill="#000000" font-family="sans-serif" font-size="14" font-weight="bold" lengthAdjust="spacing" textLength="26.0791" x="58" y="106.9951">cas</text></g><!--cluster msed--><g class="cluster" data-entity="msed" data-source-line="2" data-uid="ent0006" id="cluster_msed"><path d="M80.5,135 L123.9375,135 A3.75,3.75 0 0 1 126.4375,137.5 L133.4375,157.2969 L5417.5,157.2969 A2.5,2.5 0 0 1 5420,159.7969 L5420,1039.5 A2.5,2.5 0 0 1 5417.5,1042 L80.5,1042 A2.5,2.5 0 0 1 78,1039.5 L78,137.5 A2.5,2.5 0 0 1 80.5,135" fill="none" style="stroke:#000000;stroke-width:1.5;"/><line style="stroke:#000000;stroke-width:1.5;" x1="78" x2="133.4375" y1="157.2969" y2="157.2969"/><text fill="#000000" font-family="sans-serif" font-size="14" font-weight="bold" lengthAdjust="spacing" textLength="42.4375" x="82" y="149.9951">msed</text></g><!--cluster blobfish--><g class="cluster" data-entity="blobfish" data-source-line="2" data-uid="ent0007" id="cluster_blobfish"><path d="M104.5,178 L169.1494,178 A3.75,3.75 0 0 1 171.6494,180.5 L178.6494,200.2969 L5393.5,200.2969 A2.5,2.5 0 0 1 5396,202.7969 L5396,1015.5 A2.5,2.5 0 0 1 5393.5,1018 L104.5,1018 A2.5,2.5 0 0 1 102,1015.5 L102,180.5 A2.5,2.5 0 0 1 104.5,178" fill="none" style="stroke:#000000;stroke-width:1.5;"/><line style="stroke:#000000;stroke-width:1.5;" x1="102" x2="178.6494" y1="200.2969" y2="200.2969"/><text fill="#000000" font-family="sans-serif" font-size="14" font-weight="bold" lengthAdjust="spacing" textLength="63.6494" x="106" y="192.9951">blobfish</text></g><!--cluster base--><g class="cluster" data-entity="base" data-source-line="12" data-uid="ent0010" id="cluster_base"><path d="M128.5,641 L166.7969,641 A3.75,3.75 0 0 1 169.2969,643.5 L176.2969,663.2969 L406.5,663.2969 A2.5,2.5 0 0 1 409,665.7969 L409,856.5 A2.5,2.5 0 0 1 406.5,859 L128.5,859 A2.5,2.5 0 0 1 126,856.5 L126,643.5 A2.5,2.5 0 0 1 128.5,641" fill="none" style="stroke:#000000;stroke-width:1.5;"/><line style="stroke:#000000;stroke-width:1.5;" x1="126" x2="176.2969" y1="663.2969" y2="663.2969"/><text fill="#000000" font-family="sans-serif" font-size="14" font-weight="bold" lengthAdjust="spacing" textLength="37.2969" x="130" y="655.9951">base</text></g><!--cluster board--><g class="cluster" data-entity="board" data-source-line="45" data-uid="ent0015" id="cluster_board"><path d="M4723.5,598 L4770.5127,598 A3.75,3.75 0 0 1 4773.0127,600.5 L4780.0127,620.2969 L5369.5,620.2969 A2.5,2.5 0 0 1 5372,622.7969 L5372,991.5 A2.5,2.5 0 0 1 5369.5,994 L4723.5,994 A2.5,2.5 0 0 1 4721,991.5 L4721,600.5 A2.5,2.5 0 0 1 4723.5,598" fill="none" style="stroke:#000000;stroke-width:1.5;"/><line style="stroke:#000000;stroke-width:1.5;" x1="4721" x2="4780.0127" y1="620.2969" y2="620.2969"/><text fill="#000000" font-family="sans-serif" font-size="14" font-weight="bold" lengthAdjust="spacing" textLength="46.0127" x="4725" y="612.9951">board</text></g><!--cluster ui--><g class="cluster" data-entity="ui" data-source-line="58" data-uid="ent0017" id="cluster_ui"><path d="M4871.5,641 L4887.2656,641 A3.75,3.75 0 0 1 4889.7656,643.5 L4896.7656,663.2969 L5345.5,663.2969 A2.5,2.5 0 0 1 5348,665.7969 L5348,967.5 A2.5,2.5 0 0 1 5345.5,970 L4871.5,970 A2.5,2.5 0 0 1 4869,967.5 L4869,643.5 A2.5,2.5 0 0 1 4871.5,641" fill="none" style="stroke:#000000;stroke-width:1.5;"/><line style="stroke:#000000;stroke-width:1.5;" x1="4869" x2="4896.7656" y1="663.2969" y2="663.2969"/><text fill="#000000" font-family="sans-serif" font-size="14" font-weight="bold" lengthAdjust="spacing" textLength="14.7656" x="4873" y="655.9951">ui</text></g><!--cluster eval--><g class="cluster" data-entity="eval" data-source-line="100" data-uid="ent0024" id="cluster_eval"><path d="M1993.5,641 L2027.3672,641 A3.75,3.75 0 0 1 2029.8672,643.5 L2036.8672,663.2969 L2468.5,663.2969 A2.5,2.5 0 0 1 2471,665.7969 L2471,856.5 A2.5,2.5 0 0 1 2468.5,859 L1993.5,859 A2.5,2.5 0 0 1 1991,856.5 L1991,643.5 A2.5,2.5 0 0 1 1993.5,641" fill="none" style="stroke:#000000;stroke-width:1.5;"/><line style="stroke:#000000;stroke-width:1.5;" x1="1991" x2="2036.8672" y1="663.2969" y2="663.2969"/><text fill="#000000" font-family="sans-serif" font-size="14" font-weight="bold" lengthAdjust="spacing" textLength="32.8672" x="1995" y="655.9951">eval</text></g><!--cluster game--><g class="cluster" data-entity="game" data-source-line="123" data-uid="ent0029" id="cluster_game"><path d="M2497.5,423 L2542.0518,423 A3.75,3.75 0 0 1 2544.5518,425.5 L2551.5518,445.2969 L4694.5,445.2969 A2.5,2.5 0 0 1 4697,447.7969 L4697,745.5 A2.5,2.5 0 0 1 4694.5,748 L2497.5,748 A2.5,2.5 0 0 1 2495,745.5 L2495,425.5 A2.5,2.5 0 0 1 2497.5,423" fill="none" style="stroke:#000000;stroke-width:1.5;"/><line style="stroke:#000000;stroke-width:1.5;" x1="2495" x2="2551.5518" y1="445.2969" y2="445.2969"/><text fill="#000000" font-family="sans-serif" font-size="14" font-weight="bold" lengthAdjust="spacing" textLength="43.5518" x="2499" y="437.9951">game</text></g><!--cluster exceptions--><g class="cluster" data-entity="exceptions" data-source-line="166" data-uid="ent0035" id="cluster_exceptions"><path d="M4208.5,466 L4295.25,466 A3.75,3.75 0 0 1 4297.75,468.5 L4304.75,488.2969 L4670.5,488.2969 A2.5,2.5 0 0 1 4673,490.7969 L4673,546.5 A2.5,2.5 0 0 1 4670.5,549 L4208.5,549 A2.5,2.5 0 0 1 4206,546.5 L4206,468.5 A2.5,2.5 0 0 1 4208.5,466" fill="none" style="stroke:#000000;stroke-width:1.5;"/><line style="stroke:#000000;stroke-width:1.5;" x1="4206" x2="4304.75" y1="488.2969" y2="488.2969"/><text fill="#000000" font-family="sans-serif" font-size="14" font-weight="bold" lengthAdjust="spacing" textLength="85.75" x="4210" y="480.9951">exceptions</text></g><!--cluster providers--><g class="cluster" data-entity="providers" data-source-line="174" data-uid="ent0038" id="cluster_providers"><path d="M3307.5,466 L3383.7227,466 A3.75,3.75 0 0 1 3386.2227,468.5 L3393.2227,488.2969 L4179.5,488.2969 A2.5,2.5 0 0 1 4182,490.7969 L4182,721.5 A2.5,2.5 0 0 1 4179.5,724 L3307.5,724 A2.5,2.5 0 0 1 3305,721.5 L3305,468.5 A2.5,2.5 0 0 1 3307.5,466" fill="none" style="stroke:#000000;stroke-width:1.5;"/><line style="stroke:#000000;stroke-width:1.5;" x1="3305" x2="3393.2227" y1="488.2969" y2="488.2969"/><text fill="#000000" font-family="sans-serif" font-size="14" font-weight="bold" lengthAdjust="spacing" textLength="75.2227" x="3309" y="480.9951">providers</text></g><!--cluster screen--><g class="cluster" data-entity="screen" data-source-line="209" data-uid="ent0044" id="cluster_screen"><path d="M2803.5,466 L2856.9932,466 A3.75,3.75 0 0 1 2859.4932,468.5 L2866.4932,488.2969 L3111.5,488.2969 A2.5,2.5 0 0 1 3114,490.7969 L3114,546.5 A2.5,2.5 0 0 1 3111.5,549 L2803.5,549 A2.5,2.5 0 0 1 2801,546.5 L2801,468.5 A2.5,2.5 0 0 1 2803.5,466" fill="none" style="stroke:#000000;stroke-width:1.5;"/><line style="stroke:#000000;stroke-width:1.5;" x1="2801" x2="2866.4932" y1="488.2969" y2="488.2969"/><text fill="#000000" font-family="sans-serif" font-size="14" font-weight="bold" lengthAdjust="spacing" textLength="52.4932" x="2805" y="480.9951">screen</text></g><!--cluster player--><g class="cluster" data-entity="player" data-source-line="226" data-uid="ent0047" id="cluster_player"><path d="M435.5,221 L486.293,221 A3.75,3.75 0 0 1 488.793,223.5 L495.793,243.2969 L1948.5,243.2969 A2.5,2.5 0 0 1 1951,245.7969 L1951,745.5 A2.5,2.5 0 0 1 1948.5,748 L435.5,748 A2.5,2.5 0 0 1 433,745.5 L433,223.5 A2.5,2.5 0 0 1 435.5,221" fill="none" style="stroke:#000000;stroke-width:1.5;"/><line style="stroke:#000000;stroke-width:1.5;" x1="433" x2="495.793" y1="243.2969" y2="243.2969"/><text fill="#000000" font-family="sans-serif" font-size="14" font-weight="bold" lengthAdjust="spacing" textLength="49.793" x="437" y="235.9951">player</text></g><!--cluster bot--><g class="cluster" data-entity="bot" data-source-line="236" data-uid="ent0050" id="cluster_bot"><path d="M699.5,264 L726.832,264 A3.75,3.75 0 0 1 729.332,266.5 L736.332,286.2969 L1782.5,286.2969 A2.5,2.5 0 0 1 1785,288.7969 L1785,721.5 A2.5,2.5 0 0 1 1782.5,724 L699.5,724 A2.5,2.5 0 0 1 697,721.5 L697,266.5 A2.5,2.5 0 0 1 699.5,264" fill="none" style="stroke:#000000;stroke-width:1.5;"/><line style="stroke:#000000;stroke-width:1.5;" x1="697" x2="736.332" y1="286.2969" y2="286.2969"/><text fill="#000000" font-family="sans-serif" font-size="14" font-weight="bold" lengthAdjust="spacing" textLength="26.332" x="701" y="278.9951">bot</text></g><!--cluster minimax--><g class="cluster" data-entity="minimax" data-source-line="246" data-uid="ent0053" id="cluster_minimax"><path d="M723.5,307 L791.7178,307 A3.75,3.75 0 0 1 794.2178,309.5 L801.2178,329.2969 L1650.5,329.2969 A2.5,2.5 0 0 1 1653,331.7969 L1653,546.5 A2.5,2.5 0 0 1 1650.5,549 L723.5,549 A2.5,2.5 0 0 1 721,546.5 L721,309.5 A2.5,2.5 0 0 1 723.5,307" fill="none" style="stroke:#000000;stroke-width:1.5;"/><line style="stroke:#000000;stroke-width:1.5;" x1="721" x2="801.2178" y1="329.2969" y2="329.2969"/><text fill="#000000" font-family="sans-serif" font-size="14" font-weight="bold" lengthAdjust="spacing" textLength="67.2178" x="725" y="321.9951">minimax</text></g><!--cluster exceptions--><g class="cluster" data-entity="exceptions" data-source-line="289" data-uid="ent0060" id="cluster_exceptions"><path d="M459.5,307 L546.25,307 A3.75,3.75 0 0 1 548.75,309.5 L555.75,329.2969 L670.5,329.2969 A2.5,2.5 0 0 1 673,331.7969 L673,387.5 A2.5,2.5 0 0 1 670.5,390 L459.5,390 A2.5,2.5 0 0 1 457,387.5 L457,309.5 A2.5,2.5 0 0 1 459.5,307" fill="none" style="stroke:#000000;stroke-width:1.5;"/><line style="stroke:#000000;stroke-width:1.5;" x1="457" x2="555.75" y1="329.2969" y2="329.2969"/><text fill="#000000" font-family="sans-serif" font-size="14" font-weight="bold" lengthAdjust="spacing" textLength="85.75" x="461" y="321.9951">exceptions</text></g><!--class Main--><g class="entity" data-entity="Main" data-source-line="2" data-uid="ent0002" id="entity_Main"><rect fill="#F1F1F1" height="32" rx="2.5" ry="2.5" style="stroke:#181818;stroke-width:0.5;" width="65.4209" x="338.5" y="342"/><ellipse cx="353.5" cy="358" fill="#ADD1B2" rx="11" ry="11" style="stroke:#181818;stroke-width:1;"/><path d="M356.4688,363.6406 Q355.8906,363.9375 355.25,364.0781 Q354.6094,364.2344 353.9063,364.2344 Q351.4063,364.2344 350.0781,362.5938 Q348.7656,360.9375 348.7656,357.8125 Q348.7656,354.6875 350.0781,353.0313 Q351.4063,351.375 353.9063,351.375 Q354.6094,351.375 355.25,351.5313 Q355.9063,351.6875 356.4688,351.9844 L356.4688,354.7031 Q355.8438,354.125 355.25,353.8594 Q354.6563,353.5781 354.0313,353.5781 Q352.6875,353.5781 352,354.6563 Q351.3125,355.7188 351.3125,357.8125 Q351.3125,359.9063 352,360.9844 Q352.6875,362.0469 354.0313,362.0469 Q354.6563,362.0469 355.25,361.7813 Q355.8438,361.5 356.4688,360.9219 L356.4688,363.6406 Z " fill="#000000"/><text fill="#000000" font-family="sans-serif" font-size="14" lengthAdjust="spacing" textLength="33.4209" x="367.5" y="362.8467">Main</text></g><!--class ThreadLocalUtils--><g class="entity" data-entity="ThreadLocalUtils" data-source-line="7" data-uid="ent0008" id="entity_ThreadLocalUtils"><rect fill="#F1F1F1" height="32" rx="2.5" ry="2.5" style="stroke:#181818;stroke-width:0.5;" width="148.6006" x="142.5" y="342"/><ellipse cx="157.5" cy="358" fill="#ADD1B2" rx="11" ry="11" style="stroke:#181818;stroke-width:1;"/><path d="M160.4688,363.6406 Q159.8906,363.9375 159.25,364.0781 Q158.6094,364.2344 157.9063,364.2344 Q155.4063,364.2344 154.0781,362.5938 Q152.7656,360.9375 152.7656,357.8125 Q152.7656,354.6875 154.0781,353.0313 Q155.4063,351.375 157.9063,351.375 Q158.6094,351.375 159.25,351.5313 Q159.9063,351.6875 160.4688,351.9844 L160.4688,354.7031 Q159.8438,354.125 159.25,353.8594 Q158.6563,353.5781 158.0313,353.5781 Q156.6875,353.5781 156,354.6563 Q155.3125,355.7188 155.3125,357.8125 Q155.3125,359.9063 156,360.9844 Q156.6875,362.0469 158.0313,362.0469 Q158.6563,362.0469 159.25,361.7813 Q159.8438,361.5 160.4688,360.9219 L160.4688,363.6406 Z " fill="#000000"/><text fill="#000000" font-family="sans-serif" font-size="14" lengthAdjust="spacing" textLength="116.6006" x="171.5" y="362.8467">ThreadLocalUtils</text></g><!--class FenUtil--><g class="entity" data-entity="FenUtil" data-source-line="12" data-uid="ent0009" id="entity_FenUtil"><rect fill="#F1F1F1" height="32" rx="2.5" ry="2.5" style="stroke:#181818;stroke-width:0.5;" width="81.0547" x="311.5" y="676"/><ellipse cx="326.5" cy="692" fill="#ADD1B2" rx="11" ry="11" style="stroke:#181818;stroke-width:1;"/><path d="M329.4688,697.6406 Q328.8906,697.9375 328.25,698.0781 Q327.6094,698.2344 326.9063,698.2344 Q324.4063,698.2344 323.0781,696.5938 Q321.7656,694.9375 321.7656,691.8125 Q321.7656,688.6875 323.0781,687.0313 Q324.4063,685.375 326.9063,685.375 Q327.6094,685.375 328.25,685.5313 Q328.9063,685.6875 329.4688,685.9844 L329.4688,688.7031 Q328.8438,688.125 328.25,687.8594 Q327.6563,687.5781 327.0313,687.5781 Q325.6875,687.5781 325,688.6563 Q324.3125,689.7188 324.3125,691.8125 Q324.3125,693.9063 325,694.9844 Q325.6875,696.0469 327.0313,696.0469 Q327.6563,696.0469 328.25,695.7813 Q328.8438,695.5 329.4688,694.9219 L329.4688,697.6406 Z " fill="#000000"/><text fill="#000000" font-family="sans-serif" font-size="14" lengthAdjust="spacing" textLength="49.0547" x="340.5" y="696.8467">FenUtil</text></g><!--class Piece--><g class="entity" data-entity="Piece" data-source-line="18" data-uid="ent0011" id="entity_Piece"><rect fill="#F1F1F1" height="32" rx="2.5" ry="2.5" style="stroke:#181818;stroke-width:0.5;" width="69.2559" x="207.5" y="676"/><ellipse cx="222.5" cy="692" fill="#ADD1B2" rx="11" ry="11" style="stroke:#181818;stroke-width:1;"/><path d="M225.4688,697.6406 Q224.8906,697.9375 224.25,698.0781 Q223.6094,698.2344 222.9063,698.2344 Q220.4063,698.2344 219.0781,696.5938 Q217.7656,694.9375 217.7656,691.8125 Q217.7656,688.6875 219.0781,687.0313 Q220.4063,685.375 222.9063,685.375 Q223.6094,685.375 224.25,685.5313 Q224.9063,685.6875 225.4688,685.9844 L225.4688,688.7031 Q224.8438,688.125 224.25,687.8594 Q223.6563,687.5781 223.0313,687.5781 Q221.6875,687.5781 221,688.6563 Q220.3125,689.7188 220.3125,691.8125 Q220.3125,693.9063 221,694.9844 Q221.6875,696.0469 223.0313,696.0469 Q223.6563,696.0469 224.25,695.7813 Q224.8438,695.5 225.4688,694.9219 L225.4688,697.6406 Z " fill="#000000"/><text fill="#000000" font-family="sans-serif" font-size="14" lengthAdjust="spacing" textLength="37.2559" x="236.5" y="696.8467">Piece</text></g><!--class PieceType--><g class="entity" data-entity="PieceType" data-source-line="29" data-uid="ent0012" id="entity_PieceType"><rect fill="#F1F1F1" height="32" rx="2.5" ry="2.5" style="stroke:#181818;stroke-width:0.5;" width="103.5928" x="142" y="811"/><ellipse cx="157" cy="827" fill="#EB937F" rx="11" ry="11" style="stroke:#181818;stroke-width:1;"/><path d="M161.1094,833 L153.3906,833 L153.3906,820.6094 L161.1094,820.6094 L161.1094,822.7656 L155.8438,822.7656 L155.8438,825.4375 L160.6094,825.4375 L160.6094,827.5938 L155.8438,827.5938 L155.8438,830.8438 L161.1094,830.8438 L161.1094,833 Z " fill="#000000"/><text fill="#000000" font-family="sans-serif" font-size="14" lengthAdjust="spacing" textLength="71.5928" x="171" y="831.8467">PieceType</text></g><!--class PlayerColor--><g class="entity" data-entity="PlayerColor" data-source-line="39" data-uid="ent0013" id="entity_PlayerColor"><rect fill="#F1F1F1" height="32" rx="2.5" ry="2.5" style="stroke:#181818;stroke-width:0.5;" width="112.1172" x="281" y="811"/><ellipse cx="296" cy="827" fill="#EB937F" rx="11" ry="11" style="stroke:#181818;stroke-width:1;"/><path d="M300.1094,833 L292.3906,833 L292.3906,820.6094 L300.1094,820.6094 L300.1094,822.7656 L294.8438,822.7656 L294.8438,825.4375 L299.6094,825.4375 L299.6094,827.5938 L294.8438,827.5938 L294.8438,830.8438 L300.1094,830.8438 L300.1094,833 Z " fill="#000000"/><text fill="#000000" font-family="sans-serif" font-size="14" lengthAdjust="spacing" textLength="80.1172" x="310" y="831.8467">PlayerColor</text></g><!--class ChessBoard--><g class="entity" data-entity="ChessBoard" data-source-line="45" data-uid="ent0014" id="entity_ChessBoard"><rect fill="#F1F1F1" height="32" rx="2.5" ry="2.5" style="stroke:#181818;stroke-width:0.5;" width="115.2412" x="4737.5" y="676"/><ellipse cx="4752.5" cy="692" fill="#ADD1B2" rx="11" ry="11" style="stroke:#181818;stroke-width:1;"/><path d="M4755.4688,697.6406 Q4754.8906,697.9375 4754.25,698.0781 Q4753.6094,698.2344 4752.9063,698.2344 Q4750.4063,698.2344 4749.0781,696.5938 Q4747.7656,694.9375 4747.7656,691.8125 Q4747.7656,688.6875 4749.0781,687.0313 Q4750.4063,685.375 4752.9063,685.375 Q4753.6094,685.375 4754.25,685.5313 Q4754.9063,685.6875 4755.4688,685.9844 L4755.4688,688.7031 Q4754.8438,688.125 4754.25,687.8594 Q4753.6563,687.5781 4753.0313,687.5781 Q4751.6875,687.5781 4751,688.6563 Q4750.3125,689.7188 4750.3125,691.8125 Q4750.3125,693.9063 4751,694.9844 Q4751.6875,696.0469 4753.0313,696.0469 Q4753.6563,696.0469 4754.25,695.7813 Q4754.8438,695.5 4755.4688,694.9219 L4755.4688,697.6406 Z " fill="#000000"/><text fill="#000000" font-family="sans-serif" font-size="14" lengthAdjust="spacing" textLength="83.2412" x="4766.5" y="696.8467">ChessBoard</text></g><!--class AlphanumericBorderFieldRenderer--><g class="entity" data-entity="AlphanumericBorderFieldRenderer" data-source-line="58" data-uid="ent0016" id="entity_AlphanumericBorderFieldRenderer"><rect fill="#F1F1F1" height="32" rx="2.5" ry="2.5" style="stroke:#181818;stroke-width:0.5;" width="274.498" x="5058" y="811"/><ellipse cx="5073" cy="827" fill="#ADD1B2" rx="11" ry="11" style="stroke:#181818;stroke-width:1;"/><path d="M5075.9688,832.6406 Q5075.3906,832.9375 5074.75,833.0781 Q5074.1094,833.2344 5073.4063,833.2344 Q5070.9063,833.2344 5069.5781,831.5938 Q5068.2656,829.9375 5068.2656,826.8125 Q5068.2656,823.6875 5069.5781,822.0313 Q5070.9063,820.375 5073.4063,820.375 Q5074.1094,820.375 5074.75,820.5313 Q5075.4063,820.6875 5075.9688,820.9844 L5075.9688,823.7031 Q5075.3438,823.125 5074.75,822.8594 Q5074.1563,822.5781 5073.5313,822.5781 Q5072.1875,822.5781 5071.5,823.6563 Q5070.8125,824.7188 5070.8125,826.8125 Q5070.8125,828.9063 5071.5,829.9844 Q5072.1875,831.0469 5073.5313,831.0469 Q5074.1563,831.0469 5074.75,830.7813 Q5075.3438,830.5 5075.9688,829.9219 L5075.9688,832.6406 Z " fill="#000000"/><text fill="#000000" font-family="sans-serif" font-size="14" lengthAdjust="spacing" textLength="242.498" x="5087" y="831.8467">AlphanumericBorderFieldRenderer</text></g><!--class BoardRenderer--><g class="entity" data-entity="BoardRenderer" data-source-line="72" data-uid="ent0018" id="entity_BoardRenderer"><rect fill="#F1F1F1" height="32" rx="2.5" ry="2.5" style="stroke:#181818;stroke-width:0.5;" width="138.2305" x="4885" y="811"/><ellipse cx="4900" cy="827" fill="#ADD1B2" rx="11" ry="11" style="stroke:#181818;stroke-width:1;"/><path d="M4902.9688,832.6406 Q4902.3906,832.9375 4901.75,833.0781 Q4901.1094,833.2344 4900.4063,833.2344 Q4897.9063,833.2344 4896.5781,831.5938 Q4895.2656,829.9375 4895.2656,826.8125 Q4895.2656,823.6875 4896.5781,822.0313 Q4897.9063,820.375 4900.4063,820.375 Q4901.1094,820.375 4901.75,820.5313 Q4902.4063,820.6875 4902.9688,820.9844 L4902.9688,823.7031 Q4902.3438,823.125 4901.75,822.8594 Q4901.1563,822.5781 4900.5313,822.5781 Q4899.1875,822.5781 4898.5,823.6563 Q4897.8125,824.7188 4897.8125,826.8125 Q4897.8125,828.9063 4898.5,829.9844 Q4899.1875,831.0469 4900.5313,831.0469 Q4901.1563,831.0469 4901.75,830.7813 Q4902.3438,830.5 4902.9688,829.9219 L4902.9688,832.6406 Z " fill="#000000"/><text fill="#000000" font-family="sans-serif" font-size="14" lengthAdjust="spacing" textLength="106.2305" x="4914" y="831.8467">BoardRenderer</text></g><!--class BorderFieldRenderer--><g class="entity" data-entity="BorderFieldRenderer" data-source-line="77" data-uid="ent0019" id="entity_BorderFieldRenderer"><rect fill="#F1F1F1" height="32" rx="2.5" ry="2.5" style="stroke:#181818;stroke-width:0.5;" width="177.3525" x="5078.5" y="922"/><ellipse cx="5093.5" cy="938" fill="#B4A7E5" rx="11" ry="11" style="stroke:#181818;stroke-width:1;"/><path d="M5089.4219,933.7656 L5089.4219,931.6094 L5096.8125,931.6094 L5096.8125,933.7656 L5094.3438,933.7656 L5094.3438,941.8438 L5096.8125,941.8438 L5096.8125,944 L5089.4219,944 L5089.4219,941.8438 L5091.8906,941.8438 L5091.8906,933.7656 L5089.4219,933.7656 Z " fill="#000000"/><text fill="#000000" font-family="sans-serif" font-size="14" font-style="italic" lengthAdjust="spacing" textLength="145.3525" x="5107.5" y="942.8467">BorderFieldRenderer</text></g><!--class ChessBoardRenderer--><g class="entity" data-entity="ChessBoardRenderer" data-source-line="83" data-uid="ent0020" id="entity_ChessBoardRenderer"><rect fill="#F1F1F1" height="32" rx="2.5" ry="2.5" style="stroke:#181818;stroke-width:0.5;" width="180.0801" x="5041" y="676"/><ellipse cx="5056" cy="692" fill="#ADD1B2" rx="11" ry="11" style="stroke:#181818;stroke-width:1;"/><path d="M5058.9688,697.6406 Q5058.3906,697.9375 5057.75,698.0781 Q5057.1094,698.2344 5056.4063,698.2344 Q5053.9063,698.2344 5052.5781,696.5938 Q5051.2656,694.9375 5051.2656,691.8125 Q5051.2656,688.6875 5052.5781,687.0313 Q5053.9063,685.375 5056.4063,685.375 Q5057.1094,685.375 5057.75,685.5313 Q5058.4063,685.6875 5058.9688,685.9844 L5058.9688,688.7031 Q5058.3438,688.125 5057.75,687.8594 Q5057.1563,687.5781 5056.5313,687.5781 Q5055.1875,687.5781 5054.5,688.6563 Q5053.8125,689.7188 5053.8125,691.8125 Q5053.8125,693.9063 5054.5,694.9844 Q5055.1875,696.0469 5056.5313,696.0469 Q5057.1563,696.0469 5057.75,695.7813 Q5058.3438,695.5 5058.9688,694.9219 L5058.9688,697.6406 Z " fill="#000000"/><text fill="#000000" font-family="sans-serif" font-size="14" lengthAdjust="spacing" textLength="148.0801" x="5070" y="696.8467">ChessBoardRenderer</text></g><!--class FieldRenderer--><g class="entity" data-entity="FieldRenderer" data-source-line="89" data-uid="ent0021" id="entity_FieldRenderer"><rect fill="#F1F1F1" height="32" rx="2.5" ry="2.5" style="stroke:#181818;stroke-width:0.5;" width="130.1709" x="4885" y="922"/><ellipse cx="4900" cy="938" fill="#B4A7E5" rx="11" ry="11" style="stroke:#181818;stroke-width:1;"/><path d="M4895.9219,933.7656 L4895.9219,931.6094 L4903.3125,931.6094 L4903.3125,933.7656 L4900.8438,933.7656 L4900.8438,941.8438 L4903.3125,941.8438 L4903.3125,944 L4895.9219,944 L4895.9219,941.8438 L4898.3906,941.8438 L4898.3906,933.7656 L4895.9219,933.7656 Z " fill="#000000"/><text fill="#000000" font-family="sans-serif" font-size="14" font-style="italic" lengthAdjust="spacing" textLength="98.1709" x="4914" y="942.8467">FieldRenderer</text></g><!--class SquareColor--><g class="entity" data-entity="SquareColor" data-source-line="94" data-uid="ent0022" id="entity_SquareColor"><rect fill="#F1F1F1" height="32" rx="2.5" ry="2.5" style="stroke:#181818;stroke-width:0.5;" width="118.1465" x="4888" y="676"/><ellipse cx="4903" cy="692" fill="#EB937F" rx="11" ry="11" style="stroke:#181818;stroke-width:1;"/><path d="M4907.1094,698 L4899.3906,698 L4899.3906,685.6094 L4907.1094,685.6094 L4907.1094,687.7656 L4901.8438,687.7656 L4901.8438,690.4375 L4906.6094,690.4375 L4906.6094,692.5938 L4901.8438,692.5938 L4901.8438,695.8438 L4907.1094,695.8438 L4907.1094,698 Z " fill="#000000"/><text fill="#000000" font-family="sans-serif" font-size="14" lengthAdjust="spacing" textLength="86.1465" x="4917" y="696.8467">SquareColor</text></g><!--class EvalStrategy--><g class="entity" data-entity="EvalStrategy" data-source-line="100" data-uid="ent0023" id="entity_EvalStrategy"><rect fill="#F1F1F1" height="32" rx="2.5" ry="2.5" style="stroke:#181818;stroke-width:0.5;" width="121.585" x="2060" y="811"/><ellipse cx="2075" cy="827" fill="#B4A7E5" rx="11" ry="11" style="stroke:#181818;stroke-width:1;"/><path d="M2070.9219,822.7656 L2070.9219,820.6094 L2078.3125,820.6094 L2078.3125,822.7656 L2075.8438,822.7656 L2075.8438,830.8438 L2078.3125,830.8438 L2078.3125,833 L2070.9219,833 L2070.9219,830.8438 L2073.3906,830.8438 L2073.3906,822.7656 L2070.9219,822.7656 Z " fill="#000000"/><text fill="#000000" font-family="sans-serif" font-size="14" font-style="italic" lengthAdjust="spacing" textLength="89.585" x="2089" y="831.8467">EvalStrategy</text></g><!--class MateAwareEval--><g class="entity" data-entity="MateAwareEval" data-source-line="105" data-uid="ent0025" id="entity_MateAwareEval"><rect fill="#F1F1F1" height="32" rx="2.5" ry="2.5" style="stroke:#181818;stroke-width:0.5;" width="140.3359" x="2315" y="676"/><ellipse cx="2330" cy="692" fill="#ADD1B2" rx="11" ry="11" style="stroke:#181818;stroke-width:1;"/><path d="M2332.9688,697.6406 Q2332.3906,697.9375 2331.75,698.0781 Q2331.1094,698.2344 2330.4063,698.2344 Q2327.9063,698.2344 2326.5781,696.5938 Q2325.2656,694.9375 2325.2656,691.8125 Q2325.2656,688.6875 2326.5781,687.0313 Q2327.9063,685.375 2330.4063,685.375 Q2331.1094,685.375 2331.75,685.5313 Q2332.4063,685.6875 2332.9688,685.9844 L2332.9688,688.7031 Q2332.3438,688.125 2331.75,687.8594 Q2331.1563,687.5781 2330.5313,687.5781 Q2329.1875,687.5781 2328.5,688.6563 Q2327.8125,689.7188 2327.8125,691.8125 Q2327.8125,693.9063 2328.5,694.9844 Q2329.1875,696.0469 2330.5313,696.0469 Q2331.1563,696.0469 2331.75,695.7813 Q2332.3438,695.5 2332.9688,694.9219 L2332.9688,697.6406 Z " fill="#000000"/><text fill="#000000" font-family="sans-serif" font-size="14" lengthAdjust="spacing" textLength="108.3359" x="2344" y="696.8467">MateAwareEval</text></g><!--class MaterialEval--><g class="entity" data-entity="MaterialEval" data-source-line="111" data-uid="ent0026" id="entity_MaterialEval"><rect fill="#F1F1F1" height="32" rx="2.5" ry="2.5" style="stroke:#181818;stroke-width:0.5;" width="118.4746" x="2162" y="676"/><ellipse cx="2177" cy="692" fill="#ADD1B2" rx="11" ry="11" style="stroke:#181818;stroke-width:1;"/><path d="M2179.9688,697.6406 Q2179.3906,697.9375 2178.75,698.0781 Q2178.1094,698.2344 2177.4063,698.2344 Q2174.9063,698.2344 2173.5781,696.5938 Q2172.2656,694.9375 2172.2656,691.8125 Q2172.2656,688.6875 2173.5781,687.0313 Q2174.9063,685.375 2177.4063,685.375 Q2178.1094,685.375 2178.75,685.5313 Q2179.4063,685.6875 2179.9688,685.9844 L2179.9688,688.7031 Q2179.3438,688.125 2178.75,687.8594 Q2178.1563,687.5781 2177.5313,687.5781 Q2176.1875,687.5781 2175.5,688.6563 Q2174.8125,689.7188 2174.8125,691.8125 Q2174.8125,693.9063 2175.5,694.9844 Q2176.1875,696.0469 2177.5313,696.0469 Q2178.1563,696.0469 2178.75,695.7813 Q2179.3438,695.5 2179.9688,694.9219 L2179.9688,697.6406 Z " fill="#000000"/><text fill="#000000" font-family="sans-serif" font-size="14" lengthAdjust="spacing" textLength="86.4746" x="2191" y="696.8467">MaterialEval</text></g><!--class RandomEval--><g class="entity" data-entity="RandomEval" data-source-line="118" data-uid="ent0027" id="entity_RandomEval"><rect fill="#F1F1F1" height="32" rx="2.5" ry="2.5" style="stroke:#181818;stroke-width:0.5;" width="119.8691" x="2007" y="676"/><ellipse cx="2022" cy="692" fill="#ADD1B2" rx="11" ry="11" style="stroke:#181818;stroke-width:1;"/><path d="M2024.9688,697.6406 Q2024.3906,697.9375 2023.75,698.0781 Q2023.1094,698.2344 2022.4063,698.2344 Q2019.9063,698.2344 2018.5781,696.5938 Q2017.2656,694.9375 2017.2656,691.8125 Q2017.2656,688.6875 2018.5781,687.0313 Q2019.9063,685.375 2022.4063,685.375 Q2023.1094,685.375 2023.75,685.5313 Q2024.4063,685.6875 2024.9688,685.9844 L2024.9688,688.7031 Q2024.3438,688.125 2023.75,687.8594 Q2023.1563,687.5781 2022.5313,687.5781 Q2021.1875,687.5781 2020.5,688.6563 Q2019.8125,689.7188 2019.8125,691.8125 Q2019.8125,693.9063 2020.5,694.9844 Q2021.1875,696.0469 2022.5313,696.0469 Q2023.1563,696.0469 2023.75,695.7813 Q2024.3438,695.5 2024.9688,694.9219 L2024.9688,697.6406 Z " fill="#000000"/><text fill="#000000" font-family="sans-serif" font-size="14" lengthAdjust="spacing" textLength="87.8691" x="2036" y="696.8467">RandomEval</text></g><!--class BotPlayerFactory--><g class="entity" data-entity="BotPlayerFactory" data-source-line="123" data-uid="ent0028" id="entity_BotPlayerFactory"><rect fill="#F1F1F1" height="32" rx="2.5" ry="2.5" style="stroke:#181818;stroke-width:0.5;" width="151.6494" x="3133" y="501"/><ellipse cx="3148" cy="517" fill="#ADD1B2" rx="11" ry="11" style="stroke:#181818;stroke-width:1;"/><path d="M3150.9688,522.6406 Q3150.3906,522.9375 3149.75,523.0781 Q3149.1094,523.2344 3148.4063,523.2344 Q3145.9063,523.2344 3144.5781,521.5938 Q3143.2656,519.9375 3143.2656,516.8125 Q3143.2656,513.6875 3144.5781,512.0313 Q3145.9063,510.375 3148.4063,510.375 Q3149.1094,510.375 3149.75,510.5313 Q3150.4063,510.6875 3150.9688,510.9844 L3150.9688,513.7031 Q3150.3438,513.125 3149.75,512.8594 Q3149.1563,512.5781 3148.5313,512.5781 Q3147.1875,512.5781 3146.5,513.6563 Q3145.8125,514.7188 3145.8125,516.8125 Q3145.8125,518.9063 3146.5,519.9844 Q3147.1875,521.0469 3148.5313,521.0469 Q3149.1563,521.0469 3149.75,520.7813 Q3150.3438,520.5 3150.9688,519.9219 L3150.9688,522.6406 Z " fill="#000000"/><text fill="#000000" font-family="sans-serif" font-size="14" lengthAdjust="spacing" textLength="119.6494" x="3162" y="521.8467">BotPlayerFactory</text></g><!--class ChessGame--><g class="entity" data-entity="ChessGame" data-source-line="133" data-uid="ent0030" id="entity_ChessGame"><rect fill="#F1F1F1" height="32" rx="2.5" ry="2.5" style="stroke:#181818;stroke-width:0.5;" width="115.5283" x="2666" y="501"/><ellipse cx="2681" cy="517" fill="#ADD1B2" rx="11" ry="11" style="stroke:#181818;stroke-width:1;"/><path d="M2683.9688,522.6406 Q2683.3906,522.9375 2682.75,523.0781 Q2682.1094,523.2344 2681.4063,523.2344 Q2678.9063,523.2344 2677.5781,521.5938 Q2676.2656,519.9375 2676.2656,516.8125 Q2676.2656,513.6875 2677.5781,512.0313 Q2678.9063,510.375 2681.4063,510.375 Q2682.1094,510.375 2682.75,510.5313 Q2683.4063,510.6875 2683.9688,510.9844 L2683.9688,513.7031 Q2683.3438,513.125 2682.75,512.8594 Q2682.1563,512.5781 2681.5313,512.5781 Q2680.1875,512.5781 2679.5,513.6563 Q2678.8125,514.7188 2678.8125,516.8125 Q2678.8125,518.9063 2679.5,519.9844 Q2680.1875,521.0469 2681.5313,521.0469 Q2682.1563,521.0469 2682.75,520.7813 Q2683.3438,520.5 2683.9688,519.9219 L2683.9688,522.6406 Z " fill="#000000"/><text fill="#000000" font-family="sans-serif" font-size="14" lengthAdjust="spacing" textLength="83.5283" x="2695" y="521.8467">ChessGame</text></g><!--class InputReader--><g class="entity" data-entity="InputReader" data-source-line="141" data-uid="ent0031" id="entity_InputReader"><rect fill="#F1F1F1" height="32" rx="2.5" ry="2.5" style="stroke:#181818;stroke-width:0.5;" width="118.4268" x="2591" y="676"/><ellipse cx="2606" cy="692" fill="#ADD1B2" rx="11" ry="11" style="stroke:#181818;stroke-width:1;"/><path d="M2608.9688,697.6406 Q2608.3906,697.9375 2607.75,698.0781 Q2607.1094,698.2344 2606.4063,698.2344 Q2603.9063,698.2344 2602.5781,696.5938 Q2601.2656,694.9375 2601.2656,691.8125 Q2601.2656,688.6875 2602.5781,687.0313 Q2603.9063,685.375 2606.4063,685.375 Q2607.1094,685.375 2607.75,685.5313 Q2608.4063,685.6875 2608.9688,685.9844 L2608.9688,688.7031 Q2608.3438,688.125 2607.75,687.8594 Q2607.1563,687.5781 2606.5313,687.5781 Q2605.1875,687.5781 2604.5,688.6563 Q2603.8125,689.7188 2603.8125,691.8125 Q2603.8125,693.9063 2604.5,694.9844 Q2605.1875,696.0469 2606.5313,696.0469 Q2607.1563,696.0469 2607.75,695.7813 Q2608.3438,695.5 2608.9688,694.9219 L2608.9688,697.6406 Z " fill="#000000"/><text fill="#000000" font-family="sans-serif" font-size="14" lengthAdjust="spacing" textLength="86.4268" x="2620" y="696.8467">InputReader</text></g><!--class MatchConfig--><g class="entity" data-entity="MatchConfig" data-source-line="147" data-uid="ent0032" id="entity_MatchConfig"><rect fill="#F1F1F1" height="32" rx="2.5" ry="2.5" style="stroke:#181818;stroke-width:0.5;" width="119.6367" x="2511" y="501"/><ellipse cx="2526" cy="517" fill="#ADD1B2" rx="11" ry="11" style="stroke:#181818;stroke-width:1;"/><path d="M2528.9688,522.6406 Q2528.3906,522.9375 2527.75,523.0781 Q2527.1094,523.2344 2526.4063,523.2344 Q2523.9063,523.2344 2522.5781,521.5938 Q2521.2656,519.9375 2521.2656,516.8125 Q2521.2656,513.6875 2522.5781,512.0313 Q2523.9063,510.375 2526.4063,510.375 Q2527.1094,510.375 2527.75,510.5313 Q2528.4063,510.6875 2528.9688,510.9844 L2528.9688,513.7031 Q2528.3438,513.125 2527.75,512.8594 Q2527.1563,512.5781 2526.5313,512.5781 Q2525.1875,512.5781 2524.5,513.6563 Q2523.8125,514.7188 2523.8125,516.8125 Q2523.8125,518.9063 2524.5,519.9844 Q2525.1875,521.0469 2526.5313,521.0469 Q2527.1563,521.0469 2527.75,520.7813 Q2528.3438,520.5 2528.9688,519.9219 L2528.9688,522.6406 Z " fill="#000000"/><text fill="#000000" font-family="sans-serif" font-size="14" lengthAdjust="spacing" textLength="87.6367" x="2540" y="521.8467">MatchConfig</text></g><!--class OutputWriter--><g class="entity" data-entity="OutputWriter" data-source-line="156" data-uid="ent0033" id="entity_OutputWriter"><rect fill="#F1F1F1" height="32" rx="2.5" ry="2.5" style="stroke:#181818;stroke-width:0.5;" width="123.9775" x="2899" y="676"/><ellipse cx="2914" cy="692" fill="#ADD1B2" rx="11" ry="11" style="stroke:#181818;stroke-width:1;"/><path d="M2916.9688,697.6406 Q2916.3906,697.9375 2915.75,698.0781 Q2915.1094,698.2344 2914.4063,698.2344 Q2911.9063,698.2344 2910.5781,696.5938 Q2909.2656,694.9375 2909.2656,691.8125 Q2909.2656,688.6875 2910.5781,687.0313 Q2911.9063,685.375 2914.4063,685.375 Q2915.1094,685.375 2915.75,685.5313 Q2916.4063,685.6875 2916.9688,685.9844 L2916.9688,688.7031 Q2916.3438,688.125 2915.75,687.8594 Q2915.1563,687.5781 2914.5313,687.5781 Q2913.1875,687.5781 2912.5,688.6563 Q2911.8125,689.7188 2911.8125,691.8125 Q2911.8125,693.9063 2912.5,694.9844 Q2913.1875,696.0469 2914.5313,696.0469 Q2915.1563,696.0469 2915.75,695.7813 Q2916.3438,695.5 2916.9688,694.9219 L2916.9688,697.6406 Z " fill="#000000"/><text fill="#000000" font-family="sans-serif" font-size="14" lengthAdjust="spacing" textLength="91.9775" x="2928" y="696.8467">OutputWriter</text></g><!--class GameAbortedException--><g class="entity" data-entity="GameAbortedException" data-source-line="166" data-uid="ent0034" id="entity_GameAbortedException"><rect fill="#F1F1F1" height="32" rx="2.5" ry="2.5" style="stroke:#181818;stroke-width:0.5;" width="198.5986" x="4457.5" y="501"/><ellipse cx="4472.5" cy="517" fill="#ADD1B2" rx="11" ry="11" style="stroke:#181818;stroke-width:1;"/><path d="M4475.4688,522.6406 Q4474.8906,522.9375 4474.25,523.0781 Q4473.6094,523.2344 4472.9063,523.2344 Q4470.4063,523.2344 4469.0781,521.5938 Q4467.7656,519.9375 4467.7656,516.8125 Q4467.7656,513.6875 4469.0781,512.0313 Q4470.4063,510.375 4472.9063,510.375 Q4473.6094,510.375 4474.25,510.5313 Q4474.9063,510.6875 4475.4688,510.9844 L4475.4688,513.7031 Q4474.8438,513.125 4474.25,512.8594 Q4473.6563,512.5781 4473.0313,512.5781 Q4471.6875,512.5781 4471,513.6563 Q4470.3125,514.7188 4470.3125,516.8125 Q4470.3125,518.9063 4471,519.9844 Q4471.6875,521.0469 4473.0313,521.0469 Q4473.6563,521.0469 4474.25,520.7813 Q4474.8438,520.5 4475.4688,519.9219 L4475.4688,522.6406 Z " fill="#000000"/><text fill="#000000" font-family="sans-serif" font-size="14" lengthAdjust="spacing" textLength="166.5986" x="4486.5" y="521.8467">GameAbortedException</text></g><!--class MatchAbortedException--><g class="entity" data-entity="MatchAbortedException" data-source-line="170" data-uid="ent0036" id="entity_MatchAbortedException"><rect fill="#F1F1F1" height="32" rx="2.5" ry="2.5" style="stroke:#181818;stroke-width:0.5;" width="199.6377" x="4222" y="501"/><ellipse cx="4237" cy="517" fill="#ADD1B2" rx="11" ry="11" style="stroke:#181818;stroke-width:1;"/><path d="M4239.9688,522.6406 Q4239.3906,522.9375 4238.75,523.0781 Q4238.1094,523.2344 4237.4063,523.2344 Q4234.9063,523.2344 4233.5781,521.5938 Q4232.2656,519.9375 4232.2656,516.8125 Q4232.2656,513.6875 4233.5781,512.0313 Q4234.9063,510.375 4237.4063,510.375 Q4238.1094,510.375 4238.75,510.5313 Q4239.4063,510.6875 4239.9688,510.9844 L4239.9688,513.7031 Q4239.3438,513.125 4238.75,512.8594 Q4238.1563,512.5781 4237.5313,512.5781 Q4236.1875,512.5781 4235.5,513.6563 Q4234.8125,514.7188 4234.8125,516.8125 Q4234.8125,518.9063 4235.5,519.9844 Q4236.1875,521.0469 4237.5313,521.0469 Q4238.1563,521.0469 4238.75,520.7813 Q4239.3438,520.5 4239.9688,519.9219 L4239.9688,522.6406 Z " fill="#000000"/><text fill="#000000" font-family="sans-serif" font-size="14" lengthAdjust="spacing" textLength="167.6377" x="4251" y="521.8467">MatchAbortedException</text></g><!--class BotAlgorithmProvider--><g class="entity" data-entity="BotAlgorithmProvider" data-source-line="174" data-uid="ent0037" id="entity_BotAlgorithmProvider"><rect fill="#F1F1F1" height="32" rx="2.5" ry="2.5" style="stroke:#181818;stroke-width:0.5;" width="182.418" x="3375" y="676"/><ellipse cx="3390" cy="692" fill="#B4A7E5" rx="11" ry="11" style="stroke:#181818;stroke-width:1;"/><path d="M3385.9219,687.7656 L3385.9219,685.6094 L3393.3125,685.6094 L3393.3125,687.7656 L3390.8438,687.7656 L3390.8438,695.8438 L3393.3125,695.8438 L3393.3125,698 L3385.9219,698 L3385.9219,695.8438 L3388.3906,695.8438 L3388.3906,687.7656 L3385.9219,687.7656 Z " fill="#000000"/><text fill="#000000" font-family="sans-serif" font-size="14" font-style="italic" lengthAdjust="spacing" textLength="150.418" x="3404" y="696.8467">BotAlgorithmProvider</text></g><!--class BotPlayerProvider--><g class="entity" data-entity="BotPlayerProvider" data-source-line="180" data-uid="ent0039" id="entity_BotPlayerProvider"><rect fill="#F1F1F1" height="32" rx="2.5" ry="2.5" style="stroke:#181818;stroke-width:0.5;" width="157.4189" x="3698.5" y="676"/><ellipse cx="3713.5" cy="692" fill="#B4A7E5" rx="11" ry="11" style="stroke:#181818;stroke-width:1;"/><path d="M3709.4219,687.7656 L3709.4219,685.6094 L3716.8125,685.6094 L3716.8125,687.7656 L3714.3438,687.7656 L3714.3438,695.8438 L3716.8125,695.8438 L3716.8125,698 L3709.4219,698 L3709.4219,695.8438 L3711.8906,695.8438 L3711.8906,687.7656 L3709.4219,687.7656 Z " fill="#000000"/><text fill="#000000" font-family="sans-serif" font-size="14" font-style="italic" lengthAdjust="spacing" textLength="125.4189" x="3727.5" y="696.8467">BotPlayerProvider</text></g><!--class MiniMaxBotPlayerProvider--><g class="entity" data-entity="MiniMaxBotPlayerProvider" data-source-line="187" data-uid="ent0040" id="entity_MiniMaxBotPlayerProvider"><rect fill="#F1F1F1" height="32" rx="2.5" ry="2.5" style="stroke:#181818;stroke-width:0.5;" width="215.0938" x="3950.5" y="501"/><ellipse cx="3965.5" cy="517" fill="#ADD1B2" rx="11" ry="11" style="stroke:#181818;stroke-width:1;"/><path d="M3968.4688,522.6406 Q3967.8906,522.9375 3967.25,523.0781 Q3966.6094,523.2344 3965.9063,523.2344 Q3963.4063,523.2344 3962.0781,521.5938 Q3960.7656,519.9375 3960.7656,516.8125 Q3960.7656,513.6875 3962.0781,512.0313 Q3963.4063,510.375 3965.9063,510.375 Q3966.6094,510.375 3967.25,510.5313 Q3967.9063,510.6875 3968.4688,510.9844 L3968.4688,513.7031 Q3967.8438,513.125 3967.25,512.8594 Q3966.6563,512.5781 3966.0313,512.5781 Q3964.6875,512.5781 3964,513.6563 Q3963.3125,514.7188 3963.3125,516.8125 Q3963.3125,518.9063 3964,519.9844 Q3964.6875,521.0469 3966.0313,521.0469 Q3966.6563,521.0469 3967.25,520.7813 Q3967.8438,520.5 3968.4688,519.9219 L3968.4688,522.6406 Z " fill="#000000"/><text fill="#000000" font-family="sans-serif" font-size="14" lengthAdjust="spacing" textLength="183.0938" x="3979.5" y="521.8467">MiniMaxBotPlayerProvider</text></g><!--class MiniMaxParallelAlgorithmProvider--><g class="entity" data-entity="MiniMaxParallelAlgorithmProvider" data-source-line="195" data-uid="ent0041" id="entity_MiniMaxParallelAlgorithmProvider"><rect fill="#F1F1F1" height="32" rx="2.5" ry="2.5" style="stroke:#181818;stroke-width:0.5;" width="268.0723" x="3647" y="501"/><ellipse cx="3662" cy="517" fill="#ADD1B2" rx="11" ry="11" style="stroke:#181818;stroke-width:1;"/><path d="M3664.9688,522.6406 Q3664.3906,522.9375 3663.75,523.0781 Q3663.1094,523.2344 3662.4063,523.2344 Q3659.9063,523.2344 3658.5781,521.5938 Q3657.2656,519.9375 3657.2656,516.8125 Q3657.2656,513.6875 3658.5781,512.0313 Q3659.9063,510.375 3662.4063,510.375 Q3663.1094,510.375 3663.75,510.5313 Q3664.4063,510.6875 3664.9688,510.9844 L3664.9688,513.7031 Q3664.3438,513.125 3663.75,512.8594 Q3663.1563,512.5781 3662.5313,512.5781 Q3661.1875,512.5781 3660.5,513.6563 Q3659.8125,514.7188 3659.8125,516.8125 Q3659.8125,518.9063 3660.5,519.9844 Q3661.1875,521.0469 3662.5313,521.0469 Q3663.1563,521.0469 3663.75,520.7813 Q3664.3438,520.5 3664.9688,519.9219 L3664.9688,522.6406 Z " fill="#000000"/><text fill="#000000" font-family="sans-serif" font-size="14" lengthAdjust="spacing" textLength="236.0723" x="3676" y="521.8467">MiniMaxParallelAlgorithmProvider</text></g><!--class MiniMaxSequentialAlgorithmProvider--><g class="entity" data-entity="MiniMaxSequentialAlgorithmProvider" data-source-line="202" data-uid="ent0042" id="entity_MiniMaxSequentialAlgorithmProvider"><rect fill="#F1F1F1" height="32" rx="2.5" ry="2.5" style="stroke:#181818;stroke-width:0.5;" width="291.0273" x="3320.5" y="501"/><ellipse cx="3335.5" cy="517" fill="#ADD1B2" rx="11" ry="11" style="stroke:#181818;stroke-width:1;"/><path d="M3338.4688,522.6406 Q3337.8906,522.9375 3337.25,523.0781 Q3336.6094,523.2344 3335.9063,523.2344 Q3333.4063,523.2344 3332.0781,521.5938 Q3330.7656,519.9375 3330.7656,516.8125 Q3330.7656,513.6875 3332.0781,512.0313 Q3333.4063,510.375 3335.9063,510.375 Q3336.6094,510.375 3337.25,510.5313 Q3337.9063,510.6875 3338.4688,510.9844 L3338.4688,513.7031 Q3337.8438,513.125 3337.25,512.8594 Q3336.6563,512.5781 3336.0313,512.5781 Q3334.6875,512.5781 3334,513.6563 Q3333.3125,514.7188 3333.3125,516.8125 Q3333.3125,518.9063 3334,519.9844 Q3334.6875,521.0469 3336.0313,521.0469 Q3336.6563,521.0469 3337.25,520.7813 Q3337.8438,520.5 3338.4688,519.9219 L3338.4688,522.6406 Z " fill="#000000"/><text fill="#000000" font-family="sans-serif" font-size="14" lengthAdjust="spacing" textLength="259.0273" x="3349.5" y="521.8467">MiniMaxSequentialAlgorithmProvider</text></g><!--class HomeScreen--><g class="entity" data-entity="HomeScreen" data-source-line="209" data-uid="ent0043" id="entity_HomeScreen"><rect fill="#F1F1F1" height="32" rx="2.5" ry="2.5" style="stroke:#181818;stroke-width:0.5;" width="121.7832" x="2976" y="501"/><ellipse cx="2991" cy="517" fill="#ADD1B2" rx="11" ry="11" style="stroke:#181818;stroke-width:1;"/><path d="M2993.9688,522.6406 Q2993.3906,522.9375 2992.75,523.0781 Q2992.1094,523.2344 2991.4063,523.2344 Q2988.9063,523.2344 2987.5781,521.5938 Q2986.2656,519.9375 2986.2656,516.8125 Q2986.2656,513.6875 2987.5781,512.0313 Q2988.9063,510.375 2991.4063,510.375 Q2992.1094,510.375 2992.75,510.5313 Q2993.4063,510.6875 2993.9688,510.9844 L2993.9688,513.7031 Q2993.3438,513.125 2992.75,512.8594 Q2992.1563,512.5781 2991.5313,512.5781 Q2990.1875,512.5781 2989.5,513.6563 Q2988.8125,514.7188 2988.8125,516.8125 Q2988.8125,518.9063 2989.5,519.9844 Q2990.1875,521.0469 2991.5313,521.0469 Q2992.1563,521.0469 2992.75,520.7813 Q2993.3438,520.5 2993.9688,519.9219 L2993.9688,522.6406 Z " fill="#000000"/><text fill="#000000" font-family="sans-serif" font-size="14" lengthAdjust="spacing" textLength="89.7832" x="3005" y="521.8467">HomeScreen</text></g><!--class MatchScreen--><g class="entity" data-entity="MatchScreen" data-source-line="217" data-uid="ent0045" id="entity_MatchScreen"><rect fill="#F1F1F1" height="32" rx="2.5" ry="2.5" style="stroke:#181818;stroke-width:0.5;" width="123.1572" x="2817.5" y="501"/><ellipse cx="2832.5" cy="517" fill="#ADD1B2" rx="11" ry="11" style="stroke:#181818;stroke-width:1;"/><path d="M2835.4688,522.6406 Q2834.8906,522.9375 2834.25,523.0781 Q2833.6094,523.2344 2832.9063,523.2344 Q2830.4063,523.2344 2829.0781,521.5938 Q2827.7656,519.9375 2827.7656,516.8125 Q2827.7656,513.6875 2829.0781,512.0313 Q2830.4063,510.375 2832.9063,510.375 Q2833.6094,510.375 2834.25,510.5313 Q2834.9063,510.6875 2835.4688,510.9844 L2835.4688,513.7031 Q2834.8438,513.125 2834.25,512.8594 Q2833.6563,512.5781 2833.0313,512.5781 Q2831.6875,512.5781 2831,513.6563 Q2830.3125,514.7188 2830.3125,516.8125 Q2830.3125,518.9063 2831,519.9844 Q2831.6875,521.0469 2833.0313,521.0469 Q2833.6563,521.0469 2834.25,520.7813 Q2834.8438,520.5 2835.4688,519.9219 L2835.4688,522.6406 Z " fill="#000000"/><text fill="#000000" font-family="sans-serif" font-size="14" lengthAdjust="spacing" textLength="91.1572" x="2846.5" y="521.8467">MatchScreen</text></g><!--class AbstractPlayer--><g class="entity" data-entity="AbstractPlayer" data-source-line="226" data-uid="ent0046" id="entity_AbstractPlayer"><rect fill="#F1F1F1" height="32" rx="2.5" ry="2.5" style="stroke:#181818;stroke-width:0.5;" width="134.334" x="1801" y="676"/><ellipse cx="1816" cy="692" fill="#A9DCDF" rx="11" ry="11" style="stroke:#181818;stroke-width:1;"/><path d="M1816.1094,687.3438 L1814.9531,692.4219 L1817.2813,692.4219 L1816.1094,687.3438 Z M1814.625,685.1094 L1817.6094,685.1094 L1820.9688,697.5 L1818.5156,697.5 L1817.75,694.4375 L1814.4688,694.4375 L1813.7188,697.5 L1811.2813,697.5 L1814.625,685.1094 Z " fill="#000000"/><text fill="#000000" font-family="sans-serif" font-size="14" font-style="italic" lengthAdjust="spacing" textLength="102.334" x="1830" y="696.8467">AbstractPlayer</text></g><!--class HumanPlayer--><g class="entity" data-entity="HumanPlayer" data-source-line="231" data-uid="ent0048" id="entity_HumanPlayer"><rect fill="#F1F1F1" height="32" rx="2.5" ry="2.5" style="stroke:#181818;stroke-width:0.5;" width="126.0557" x="1807" y="501"/><ellipse cx="1822" cy="517" fill="#ADD1B2" rx="11" ry="11" style="stroke:#181818;stroke-width:1;"/><path d="M1824.9688,522.6406 Q1824.3906,522.9375 1823.75,523.0781 Q1823.1094,523.2344 1822.4063,523.2344 Q1819.9063,523.2344 1818.5781,521.5938 Q1817.2656,519.9375 1817.2656,516.8125 Q1817.2656,513.6875 1818.5781,512.0313 Q1819.9063,510.375 1822.4063,510.375 Q1823.1094,510.375 1823.75,510.5313 Q1824.4063,510.6875 1824.9688,510.9844 L1824.9688,513.7031 Q1824.3438,513.125 1823.75,512.8594 Q1823.1563,512.5781 1822.5313,512.5781 Q1821.1875,512.5781 1820.5,513.6563 Q1819.8125,514.7188 1819.8125,516.8125 Q1819.8125,518.9063 1820.5,519.9844 Q1821.1875,521.0469 1822.5313,521.0469 Q1823.1563,521.0469 1823.75,520.7813 Q1824.3438,520.5 1824.9688,519.9219 L1824.9688,522.6406 Z " fill="#000000"/><text fill="#000000" font-family="sans-serif" font-size="14" lengthAdjust="spacing" textLength="94.0557" x="1836" y="521.8467">HumanPlayer</text></g><!--class BotAlgorithm--><g class="entity" data-entity="BotAlgorithm" data-source-line="236" data-uid="ent0049" id="entity_BotAlgorithm"><rect fill="#F1F1F1" height="32" rx="2.5" ry="2.5" style="stroke:#181818;stroke-width:0.5;" width="124.2236" x="1331" y="676"/><ellipse cx="1346" cy="692" fill="#A9DCDF" rx="11" ry="11" style="stroke:#181818;stroke-width:1;"/><path d="M1346.1094,687.3438 L1344.9531,692.4219 L1347.2813,692.4219 L1346.1094,687.3438 Z M1344.625,685.1094 L1347.6094,685.1094 L1350.9688,697.5 L1348.5156,697.5 L1347.75,694.4375 L1344.4688,694.4375 L1343.7188,697.5 L1341.2813,697.5 L1344.625,685.1094 Z " fill="#000000"/><text fill="#000000" font-family="sans-serif" font-size="14" font-style="italic" lengthAdjust="spacing" textLength="92.2236" x="1360" y="696.8467">BotAlgorithm</text></g><!--class BotPlayer--><g class="entity" data-entity="BotPlayer" data-source-line="242" data-uid="ent0051" id="entity_BotPlayer"><rect fill="#F1F1F1" height="32" rx="2.5" ry="2.5" style="stroke:#181818;stroke-width:0.5;" width="99.2246" x="1669.5" y="501"/><ellipse cx="1684.5" cy="517" fill="#A9DCDF" rx="11" ry="11" style="stroke:#181818;stroke-width:1;"/><path d="M1684.6094,512.3438 L1683.4531,517.4219 L1685.7813,517.4219 L1684.6094,512.3438 Z M1683.125,510.1094 L1686.1094,510.1094 L1689.4688,522.5 L1687.0156,522.5 L1686.25,519.4375 L1682.9688,519.4375 L1682.2188,522.5 L1679.7813,522.5 L1683.125,510.1094 Z " fill="#000000"/><text fill="#000000" font-family="sans-serif" font-size="14" font-style="italic" lengthAdjust="spacing" textLength="67.2246" x="1698.5" y="521.8467">BotPlayer</text></g><!--class MiniMaxAlgo--><g class="entity" data-entity="MiniMaxAlgo" data-source-line="246" data-uid="ent0052" id="entity_MiniMaxAlgo"><rect fill="#F1F1F1" height="32" rx="2.5" ry="2.5" style="stroke:#181818;stroke-width:0.5;" width="120.5938" x="1087.5" y="501"/><ellipse cx="1102.5" cy="517" fill="#A9DCDF" rx="11" ry="11" style="stroke:#181818;stroke-width:1;"/><path d="M1102.6094,512.3438 L1101.4531,517.4219 L1103.7813,517.4219 L1102.6094,512.3438 Z M1101.125,510.1094 L1104.1094,510.1094 L1107.4688,522.5 L1105.0156,522.5 L1104.25,519.4375 L1100.9688,519.4375 L1100.2188,522.5 L1097.7813,522.5 L1101.125,510.1094 Z " fill="#000000"/><text fill="#000000" font-family="sans-serif" font-size="14" font-style="italic" lengthAdjust="spacing" textLength="88.5938" x="1116.5" y="521.8467">MiniMaxAlgo</text></g><!--class MiniMaxBotPlayer--><g class="entity" data-entity="MiniMaxBotPlayer" data-source-line="250" data-uid="ent0054" id="entity_MiniMaxBotPlayer"><rect fill="#F1F1F1" height="32" rx="2.5" ry="2.5" style="stroke:#181818;stroke-width:0.5;" width="156.8994" x="1253.5" y="342"/><ellipse cx="1268.5" cy="358" fill="#ADD1B2" rx="11" ry="11" style="stroke:#181818;stroke-width:1;"/><path d="M1271.4688,363.6406 Q1270.8906,363.9375 1270.25,364.0781 Q1269.6094,364.2344 1268.9063,364.2344 Q1266.4063,364.2344 1265.0781,362.5938 Q1263.7656,360.9375 1263.7656,357.8125 Q1263.7656,354.6875 1265.0781,353.0313 Q1266.4063,351.375 1268.9063,351.375 Q1269.6094,351.375 1270.25,351.5313 Q1270.9063,351.6875 1271.4688,351.9844 L1271.4688,354.7031 Q1270.8438,354.125 1270.25,353.8594 Q1269.6563,353.5781 1269.0313,353.5781 Q1267.6875,353.5781 1267,354.6563 Q1266.3125,355.7188 1266.3125,357.8125 Q1266.3125,359.9063 1267,360.9844 Q1267.6875,362.0469 1269.0313,362.0469 Q1269.6563,362.0469 1270.25,361.7813 Q1270.8438,361.5 1271.4688,360.9219 L1271.4688,363.6406 Z " fill="#000000"/><text fill="#000000" font-family="sans-serif" font-size="14" lengthAdjust="spacing" textLength="124.8994" x="1282.5" y="362.8467">MiniMaxBotPlayer</text></g><!--class MiniMaxParallel--><g class="entity" data-entity="MiniMaxParallel" data-source-line="255" data-uid="ent0055" id="entity_MiniMaxParallel"><rect fill="#F1F1F1" height="32" rx="2.5" ry="2.5" style="stroke:#181818;stroke-width:0.5;" width="141.3135" x="1077.5" y="342"/><ellipse cx="1092.5" cy="358" fill="#ADD1B2" rx="11" ry="11" style="stroke:#181818;stroke-width:1;"/><path d="M1095.4688,363.6406 Q1094.8906,363.9375 1094.25,364.0781 Q1093.6094,364.2344 1092.9063,364.2344 Q1090.4063,364.2344 1089.0781,362.5938 Q1087.7656,360.9375 1087.7656,357.8125 Q1087.7656,354.6875 1089.0781,353.0313 Q1090.4063,351.375 1092.9063,351.375 Q1093.6094,351.375 1094.25,351.5313 Q1094.9063,351.6875 1095.4688,351.9844 L1095.4688,354.7031 Q1094.8438,354.125 1094.25,353.8594 Q1093.6563,353.5781 1093.0313,353.5781 Q1091.6875,353.5781 1091,354.6563 Q1090.3125,355.7188 1090.3125,357.8125 Q1090.3125,359.9063 1091,360.9844 Q1091.6875,362.0469 1093.0313,362.0469 Q1093.6563,362.0469 1094.25,361.7813 Q1094.8438,361.5 1095.4688,360.9219 L1095.4688,363.6406 Z " fill="#000000"/><text fill="#000000" font-family="sans-serif" font-size="14" lengthAdjust="spacing" textLength="109.3135" x="1106.5" y="362.8467">MiniMaxParallel</text></g><!--class MiniMaxRecursiveTask--><g class="entity" data-entity="MiniMaxRecursiveTask" data-source-line="260" data-uid="ent0056" id="entity_MiniMaxRecursiveTask"><rect fill="#F1F1F1" height="32" rx="2.5" ry="2.5" style="stroke:#181818;stroke-width:0.5;" width="190.9561" x="1445.5" y="342"/><ellipse cx="1460.5" cy="358" fill="#ADD1B2" rx="11" ry="11" style="stroke:#181818;stroke-width:1;"/><path d="M1463.4688,363.6406 Q1462.8906,363.9375 1462.25,364.0781 Q1461.6094,364.2344 1460.9063,364.2344 Q1458.4063,364.2344 1457.0781,362.5938 Q1455.7656,360.9375 1455.7656,357.8125 Q1455.7656,354.6875 1457.0781,353.0313 Q1458.4063,351.375 1460.9063,351.375 Q1461.6094,351.375 1462.25,351.5313 Q1462.9063,351.6875 1463.4688,351.9844 L1463.4688,354.7031 Q1462.8438,354.125 1462.25,353.8594 Q1461.6563,353.5781 1461.0313,353.5781 Q1459.6875,353.5781 1459,354.6563 Q1458.3125,355.7188 1458.3125,357.8125 Q1458.3125,359.9063 1459,360.9844 Q1459.6875,362.0469 1461.0313,362.0469 Q1461.6563,362.0469 1462.25,361.7813 Q1462.8438,361.5 1463.4688,360.9219 L1463.4688,363.6406 Z " fill="#000000"/><text fill="#000000" font-family="sans-serif" font-size="14" lengthAdjust="spacing" textLength="158.9561" x="1474.5" y="362.8467">MiniMaxRecursiveTask</text></g><!--class MiniMaxSequential--><g class="entity" data-entity="MiniMaxSequential" data-source-line="270" data-uid="ent0057" id="entity_MiniMaxSequential"><rect fill="#F1F1F1" height="32" rx="2.5" ry="2.5" style="stroke:#181818;stroke-width:0.5;" width="164.2686" x="878" y="342"/><ellipse cx="893" cy="358" fill="#ADD1B2" rx="11" ry="11" style="stroke:#181818;stroke-width:1;"/><path d="M895.9688,363.6406 Q895.3906,363.9375 894.75,364.0781 Q894.1094,364.2344 893.4063,364.2344 Q890.9063,364.2344 889.5781,362.5938 Q888.2656,360.9375 888.2656,357.8125 Q888.2656,354.6875 889.5781,353.0313 Q890.9063,351.375 893.4063,351.375 Q894.1094,351.375 894.75,351.5313 Q895.4063,351.6875 895.9688,351.9844 L895.9688,354.7031 Q895.3438,354.125 894.75,353.8594 Q894.1563,353.5781 893.5313,353.5781 Q892.1875,353.5781 891.5,354.6563 Q890.8125,355.7188 890.8125,357.8125 Q890.8125,359.9063 891.5,360.9844 Q892.1875,362.0469 893.5313,362.0469 Q894.1563,362.0469 894.75,361.7813 Q895.3438,361.5 895.9688,360.9219 L895.9688,363.6406 Z " fill="#000000"/><text fill="#000000" font-family="sans-serif" font-size="14" lengthAdjust="spacing" textLength="132.2686" x="907" y="362.8467">MiniMaxSequential</text></g><!--class MoveNode--><g class="entity" data-entity="MoveNode" data-source-line="278" data-uid="ent0058" id="entity_MoveNode"><rect fill="#F1F1F1" height="32" rx="2.5" ry="2.5" style="stroke:#181818;stroke-width:0.5;" width="106.0811" x="737" y="342"/><ellipse cx="752" cy="358" fill="#ADD1B2" rx="11" ry="11" style="stroke:#181818;stroke-width:1;"/><path d="M754.9688,363.6406 Q754.3906,363.9375 753.75,364.0781 Q753.1094,364.2344 752.4063,364.2344 Q749.9063,364.2344 748.5781,362.5938 Q747.2656,360.9375 747.2656,357.8125 Q747.2656,354.6875 748.5781,353.0313 Q749.9063,351.375 752.4063,351.375 Q753.1094,351.375 753.75,351.5313 Q754.4063,351.6875 754.9688,351.9844 L754.9688,354.7031 Q754.3438,354.125 753.75,353.8594 Q753.1563,353.5781 752.5313,353.5781 Q751.1875,353.5781 750.5,354.6563 Q749.8125,355.7188 749.8125,357.8125 Q749.8125,359.9063 750.5,360.9844 Q751.1875,362.0469 752.5313,362.0469 Q753.1563,362.0469 753.75,361.7813 Q754.3438,361.5 754.9688,360.9219 L754.9688,363.6406 Z " fill="#000000"/><text fill="#000000" font-family="sans-serif" font-size="14" lengthAdjust="spacing" textLength="74.0811" x="766" y="362.8467">MoveNode</text></g><!--class InvalidMoveException--><g class="entity" data-entity="InvalidMoveException" data-source-line="289" data-uid="ent0059" id="entity_InvalidMoveException"><rect fill="#F1F1F1" height="32" rx="2.5" ry="2.5" style="stroke:#181818;stroke-width:0.5;" width="185.2207" x="472.5" y="342"/><ellipse cx="487.5" cy="358" fill="#ADD1B2" rx="11" ry="11" style="stroke:#181818;stroke-width:1;"/><path d="M490.4688,363.6406 Q489.8906,363.9375 489.25,364.0781 Q488.6094,364.2344 487.9063,364.2344 Q485.4063,364.2344 484.0781,362.5938 Q482.7656,360.9375 482.7656,357.8125 Q482.7656,354.6875 484.0781,353.0313 Q485.4063,351.375 487.9063,351.375 Q488.6094,351.375 489.25,351.5313 Q489.9063,351.6875 490.4688,351.9844 L490.4688,354.7031 Q489.8438,354.125 489.25,353.8594 Q488.6563,353.5781 488.0313,353.5781 Q486.6875,353.5781 486,354.6563 Q485.3125,355.7188 485.3125,357.8125 Q485.3125,359.9063 486,360.9844 Q486.6875,362.0469 488.0313,362.0469 Q488.6563,362.0469 489.25,361.7813 Q489.8438,361.5 490.4688,360.9219 L490.4688,363.6406 Z " fill="#000000"/><text fill="#000000" font-family="sans-serif" font-size="14" lengthAdjust="spacing" textLength="153.2207" x="501.5" y="362.8467">InvalidMoveException</text></g><!--reverse link Piece to PieceType--><g class="link" data-entity-1="Piece" data-entity-2="PieceType" data-source-line="296" data-uid="lnk61" id="link_Piece_PieceType"><path codeLine="296" d="M232.4152,719.547 C223.1552,745.197 208.66,785.39 199.44,810.92" fill="none" id="Piece-backto-PieceType" style="stroke:#181818;stroke-width:1;"/><polygon fill="#181818" points="236.49,708.26,230.6903,712.5452,232.4152,719.547,238.215,715.2618,236.49,708.26" style="stroke:#181818;stroke-width:1;"/><text fill="#000000" font-family="sans-serif" font-size="13" lengthAdjust="spacing" textLength="29.0405" x="216" y="777.0669">type</text></g><!--reverse link Piece to PlayerColor--><g class="link" data-entity-1="Piece" data-entity-2="PlayerColor" data-source-line="297" data-uid="lnk62" id="link_Piece_PlayerColor"><path codeLine="297" d="M259.8745,718.0251 C278.1945,743.6751 307.99,785.39 326.23,810.92" fill="none" id="Piece-backto-PlayerColor" style="stroke:#181818;stroke-width:1;"/><polygon fill="#181818" points="252.9,708.26,253.1322,715.4674,259.8745,718.0251,259.6423,710.8177,252.9,708.26" style="stroke:#181818;stroke-width:1;"/><text fill="#000000" font-family="sans-serif" font-size="13" lengthAdjust="spacing" textLength="32.0112" x="304" y="777.0669">color</text></g><!--link AlphanumericBorderFieldRenderer to BorderFieldRenderer--><g class="link" data-entity-1="AlphanumericBorderFieldRenderer" data-entity-2="BorderFieldRenderer" data-source-line="298" data-uid="lnk63" id="link_AlphanumericBorderFieldRenderer_BorderFieldRenderer"><path codeLine="298" d="M5200.68,843.15 C5204.76,856.39 5208.63,875.94 5203,892 C5199.03,903.33 5203.1674,900.7756 5195.6174,908.8456" fill="none" id="AlphanumericBorderFieldRenderer-to-BorderFieldRenderer" style="stroke:#181818;stroke-width:1;stroke-dasharray:7,7;"/><polygon fill="none" points="5183.32,921.99,5199.9988,912.9448,5191.2359,904.7465,5183.32,921.99" style="stroke:#181818;stroke-width:1;"/></g><!--reverse link BoardRenderer to BorderFieldRenderer--><g class="link" data-entity-1="BoardRenderer" data-entity-2="BorderFieldRenderer" data-source-line="299" data-uid="lnk64" id="link_BoardRenderer_BorderFieldRenderer"><path codeLine="299" d="M4986.4061,849.5885 C5007.2761,863.2685 5029.51,876.98 5059,892 C5080.9,903.16 5106.23,913.82 5126.85,921.96" fill="none" id="BoardRenderer-backto-BorderFieldRenderer" style="stroke:#181818;stroke-width:1;"/><polygon fill="#181818" points="4976.37,843.01,4979.1952,849.6446,4986.4061,849.5885,4983.5809,842.9539,4976.37,843.01" style="stroke:#181818;stroke-width:1;"/><text fill="#000000" font-family="sans-serif" font-size="13" lengthAdjust="spacing" textLength="134.3037" x="5060" y="888.0669">borderFieldRenderer</text></g><!--reverse link BoardRenderer to FieldRenderer--><g class="link" data-entity-1="BoardRenderer" data-entity-2="FieldRenderer" data-source-line="300" data-uid="lnk65" id="link_BoardRenderer_FieldRenderer"><path codeLine="300" d="M4939.7575,853.7585 C4935.1075,862.7085 4935.39,863.81 4933,875 C4929.55,891.16 4935.78,909.35 4941.64,921.83" fill="none" id="BoardRenderer-backto-FieldRenderer" style="stroke:#181818;stroke-width:1;"/><polygon fill="#181818" points="4945.29,843.11,4938.9742,846.5901,4939.7575,853.7585,4946.0733,850.2784,4945.29,843.11" style="stroke:#181818;stroke-width:1;"/><text fill="#000000" font-family="sans-serif" font-size="13" lengthAdjust="spacing" textLength="88.2578" x="4934" y="888.0669">fieldRenderer</text></g><!--reverse link ChessBoardRenderer to BoardRenderer--><g class="link" data-entity-1="ChessBoardRenderer" data-entity-2="BoardRenderer" data-source-line="301" data-uid="lnk66" id="link_ChessBoardRenderer_BoardRenderer"><path codeLine="301" d="M5101.1051,715.4667 C5066.9551,741.1167 5008.05,785.39 4974.07,810.92" fill="none" id="ChessBoardRenderer-backto-BoardRenderer" style="stroke:#181818;stroke-width:1;"/><polygon fill="#181818" points="5110.7,708.26,5103.5003,708.6651,5101.1051,715.4667,5108.3048,715.0617,5110.7,708.26" style="stroke:#181818;stroke-width:1;"/><text fill="#000000" font-family="sans-serif" font-size="13" lengthAdjust="spacing" textLength="97.9761" x="5032" y="777.0669">boardRenderer</text></g><!--reverse link MateAwareEval to EvalStrategy--><g class="link" data-entity-1="MateAwareEval" data-entity-2="EvalStrategy" data-source-line="302" data-uid="lnk67" id="link_MateAwareEval_EvalStrategy"><path codeLine="302" d="M2357.5599,715.7364 C2340.5599,729.4864 2323.34,742.1 2298,756 C2297.19,756.44 2210.98,790.49 2159.19,810.93" fill="none" id="MateAwareEval-backto-EvalStrategy" style="stroke:#181818;stroke-width:1;"/><polygon fill="#181818" points="2366.89,708.19,2359.7095,708.8532,2357.5599,715.7364,2364.7404,715.0733,2366.89,708.19" style="stroke:#181818;stroke-width:1;"/><text fill="#000000" font-family="sans-serif" font-size="13" lengthAdjust="spacing" textLength="82.9702" x="2276" y="777.0669">evalStrategy</text></g><!--link MateAwareEval to EvalStrategy--><g class="link" data-entity-1="MateAwareEval" data-entity-2="EvalStrategy" data-source-line="303" data-uid="lnk68" id="link_MateAwareEval_EvalStrategy"><path codeLine="303" d="M2386.4,708.14 C2387.31,727.83 2385.64,761.96 2366,781 C2340.38,805.83 2263.954,815.931 2200.094,820.981" fill="none" id="MateAwareEval-to-EvalStrategy" style="stroke:#181818;stroke-width:1;stroke-dasharray:7,7;"/><polygon fill="none" points="2182.15,822.4,2200.567,826.9623,2199.621,814.9997,2182.15,822.4" style="stroke:#181818;stroke-width:1;"/></g><!--link MaterialEval to EvalStrategy--><g class="link" data-entity-1="MaterialEval" data-entity-2="EvalStrategy" data-source-line="304" data-uid="lnk69" id="link_MaterialEval_EvalStrategy"><path codeLine="304" d="M2209.53,708.26 C2190.24,733.91 2162.3589,771.0042 2143.1589,796.5342" fill="none" id="MaterialEval-to-EvalStrategy" style="stroke:#181818;stroke-width:1;stroke-dasharray:7,7;"/><polygon fill="none" points="2132.34,810.92,2147.9542,800.1405,2138.3637,792.9279,2132.34,810.92" style="stroke:#181818;stroke-width:1;"/></g><!--link RandomEval to EvalStrategy--><g class="link" data-entity-1="RandomEval" data-entity-2="EvalStrategy" data-source-line="305" data-uid="lnk70" id="link_RandomEval_EvalStrategy"><path codeLine="305" d="M2073.19,708.26 C2083.61,733.91 2097.7361,768.7132 2108.1061,794.2432" fill="none" id="RandomEval-to-EvalStrategy" style="stroke:#181818;stroke-width:1;stroke-dasharray:7,7;"/><polygon fill="none" points="2114.88,810.92,2113.665,791.9853,2102.5472,796.5012,2114.88,810.92" style="stroke:#181818;stroke-width:1;"/></g><!--reverse link BotPlayerFactory to BotAlgorithmProvider--><g class="link" data-entity-1="BotPlayerFactory" data-entity-2="BotAlgorithmProvider" data-source-line="306" data-uid="lnk71" id="link_BotPlayerFactory_BotAlgorithmProvider"><path codeLine="306" d="M3209.468,545.1046 C3210.228,560.0846 3213.36,570.43 3228,582 C3252.97,601.74 3342.15,576.56 3371,590 C3411.15,608.7 3442.66,652.7 3457.21,675.96" fill="none" id="BotPlayerFactory-backto-BotAlgorithmProvider" style="stroke:#181818;stroke-width:1;"/><polygon fill="none" points="3208.86,533.12,3205.1692,539.315,3209.468,545.1046,3213.1589,538.9096,3208.86,533.12" style="stroke:#181818;stroke-width:1;"/><text fill="#000000" font-family="sans-serif" font-size="13" lengthAdjust="spacing" textLength="86.4932" x="3229" y="578.0669">ALGORITHMS</text><text fill="#000000" font-family="sans-serif" font-size="13" lengthAdjust="spacing" textLength="8.271" x="3199.5916" y="553.033">1</text><text fill="#000000" font-family="sans-serif" font-size="13" lengthAdjust="spacing" textLength="23.0356" x="3427.1696" y="664.9578">0..*</text></g><!--reverse link BotPlayerFactory to BotPlayerProvider--><g class="link" data-entity-1="BotPlayerFactory" data-entity-2="BotPlayerProvider" data-source-line="307" data-uid="lnk72" id="link_BotPlayerFactory_BotPlayerProvider"><path codeLine="307" d="M3251.2194,538.0925 C3269.6494,546.4025 3282.71,551.22 3305,557 C3422.02,587.35 3459.25,555.13 3575,590 C3643.51,610.64 3717,653.18 3753.55,675.91" fill="none" id="BotPlayerFactory-backto-BotPlayerProvider" style="stroke:#181818;stroke-width:1;"/><polygon fill="none" points="3240.28,533.16,3244.1055,539.2727,3251.2194,538.0925,3247.3939,531.9798,3240.28,533.16" style="stroke:#181818;stroke-width:1;"/><text fill="#000000" font-family="sans-serif" font-size="13" lengthAdjust="spacing" textLength="91.0063" x="3543" y="578.0669">BOT_PLAYERS</text><text fill="#000000" font-family="sans-serif" font-size="13" lengthAdjust="spacing" textLength="8.271" x="3241.4194" y="553.0863">1</text><text fill="#000000" font-family="sans-serif" font-size="13" lengthAdjust="spacing" textLength="23.0356" x="3718.4701" y="664.8907">0..*</text></g><!--reverse link MatchConfig to AbstractPlayer--><g class="link" data-entity-1="MatchConfig" data-entity-2="AbstractPlayer" data-source-line="308" data-uid="lnk73" id="link_MatchConfig_AbstractPlayer"><path codeLine="308" d="M2498.9203,527.4185 C2403.8603,539.7885 2224.98,562.8 2063,582 C2031.03,585.79 2020.67,577.49 1991,590 C1944.41,609.65 1901.58,652.82 1880.94,675.84" fill="none" id="MatchConfig-backto-AbstractPlayer" style="stroke:#181818;stroke-width:1;"/><polygon fill="#181818" points="2510.82,525.87,2504.354,522.6777,2498.9203,527.4185,2505.3863,530.6108,2510.82,525.87" style="stroke:#181818;stroke-width:1;"/><text fill="#000000" font-family="sans-serif" font-size="13" lengthAdjust="spacing" textLength="34.5059" x="2203" y="578.0669">black</text></g><!--reverse link MatchConfig to AbstractPlayer--><g class="link" data-entity-1="MatchConfig" data-entity-2="AbstractPlayer" data-source-line="309" data-uid="lnk74" id="link_MatchConfig_AbstractPlayer"><path codeLine="309" d="M2499.2828,535.6445 C2434.4028,551.0045 2339.43,571.41 2246,582 C2217.83,585.19 2017.54,580.03 1991,590 C1943.41,607.88 1900.69,652.24 1880.42,675.77" fill="none" id="MatchConfig-backto-AbstractPlayer-1" style="stroke:#181818;stroke-width:1;"/><polygon fill="#181818" points="2510.96,532.88,2504.1999,530.3699,2499.2828,535.6445,2506.0429,538.1547,2510.96,532.88" style="stroke:#181818;stroke-width:1;"/><text fill="#000000" font-family="sans-serif" font-size="13" lengthAdjust="spacing" textLength="35.5786" x="2355" y="578.0669">white</text></g><!--link MiniMaxBotPlayerProvider to BotPlayerProvider--><g class="link" data-entity-1="MiniMaxBotPlayerProvider" data-entity-2="BotPlayerProvider" data-source-line="310" data-uid="lnk75" id="link_MiniMaxBotPlayerProvider_BotPlayerProvider"><path codeLine="310" d="M4033.55,533.05 C3980.41,565.77 3870.1875,633.6224 3816.9175,666.4224" fill="none" id="MiniMaxBotPlayerProvider-to-BotPlayerProvider" style="stroke:#181818;stroke-width:1;stroke-dasharray:7,7;"/><polygon fill="none" points="3801.59,675.86,3820.0633,671.5316,3813.7716,661.3132,3801.59,675.86" style="stroke:#181818;stroke-width:1;"/></g><!--link MiniMaxParallelAlgorithmProvider to BotAlgorithmProvider--><g class="link" data-entity-1="MiniMaxParallelAlgorithmProvider" data-entity-2="BotAlgorithmProvider" data-source-line="311" data-uid="lnk76" id="link_MiniMaxParallelAlgorithmProvider_BotAlgorithmProvider"><path codeLine="311" d="M3753.6,533.05 C3694.02,565.77 3569.057,634.3948 3509.337,667.1948" fill="none" id="MiniMaxParallelAlgorithmProvider-to-BotAlgorithmProvider" style="stroke:#181818;stroke-width:1;stroke-dasharray:7,7;"/><polygon fill="none" points="3493.56,675.86,3512.2254,672.4538,3506.4486,661.9358,3493.56,675.86" style="stroke:#181818;stroke-width:1;"/></g><!--link MiniMaxSequentialAlgorithmProvider to BotAlgorithmProvider--><g class="link" data-entity-1="MiniMaxSequentialAlgorithmProvider" data-entity-2="BotAlgorithmProvider" data-source-line="312" data-uid="lnk77" id="link_MiniMaxSequentialAlgorithmProvider_BotAlgorithmProvider"><path codeLine="312" d="M3466,533.05 C3466,565.77 3466,625.06 3466,657.86" fill="none" id="MiniMaxSequentialAlgorithmProvider-to-BotAlgorithmProvider" style="stroke:#181818;stroke-width:1;stroke-dasharray:7,7;"/><polygon fill="none" points="3466,675.86,3472,657.86,3460,657.86,3466,675.86" style="stroke:#181818;stroke-width:1;"/></g><!--reverse link HomeScreen to InputReader--><g class="link" data-entity-1="HomeScreen" data-entity-2="InputReader" data-source-line="313" data-uid="lnk78" id="link_HomeScreen_InputReader"><path codeLine="313" d="M3002.8283,539.4735 C2979.2283,553.8835 2951.95,568.95 2917,582 C2902.05,587.58 2897.16,585.02 2882,590 C2807.09,614.63 2723.17,654.38 2679.7,675.93" fill="none" id="HomeScreen-backto-InputReader" style="stroke:#181818;stroke-width:1;"/><polygon fill="#181818" points="3013.07,533.22,3005.8646,532.9329,3002.8283,539.4735,3010.0336,539.7607,3013.07,533.22" style="stroke:#181818;stroke-width:1;"/><text fill="#000000" font-family="sans-serif" font-size="13" lengthAdjust="spacing" textLength="42.9038" x="2955" y="578.0669">reader</text></g><!--reverse link HomeScreen to OutputWriter--><g class="link" data-entity-1="HomeScreen" data-entity-2="OutputWriter" data-source-line="314" data-uid="lnk79" id="link_HomeScreen_OutputWriter"><path codeLine="314" d="M3025.5647,544.0371 C3011.1947,576.7571 2982.06,643.06 2967.65,675.86" fill="none" id="HomeScreen-backto-OutputWriter" style="stroke:#181818;stroke-width:1;"/><polygon fill="#181818" points="3030.39,533.05,3024.315,536.9351,3025.5647,544.0371,3031.6397,540.152,3030.39,533.05" style="stroke:#181818;stroke-width:1;"/><text fill="#000000" font-family="sans-serif" font-size="13" lengthAdjust="spacing" textLength="38.0288" x="3015" y="578.0669">writer</text></g><!--reverse link MatchScreen to ChessBoardRenderer--><g class="link" data-entity-1="MatchScreen" data-entity-2="ChessBoardRenderer" data-source-line="315" data-uid="lnk80" id="link_MatchScreen_ChessBoardRenderer"><path codeLine="315" d="M2913.1981,539.11 C2928.5781,547.97 2938.99,552.33 2959,557 C3000.63,566.72 4455.26,563.87 4498,565 C4614.98,568.08 4916.31,544.21 5024,590 C5067.26,608.39 5103.61,652.52 5120.63,675.89" fill="none" id="MatchScreen-backto-ChessBoardRenderer" style="stroke:#181818;stroke-width:1;"/><polygon fill="#181818" points="2902.8,533.12,2906.0023,539.581,2913.1981,539.11,2909.9957,532.649,2902.8,533.12" style="stroke:#181818;stroke-width:1;"/><text fill="#000000" font-family="sans-serif" font-size="13" lengthAdjust="spacing" textLength="135.5732" x="4995" y="578.0669">chessBoardRenderer</text></g><!--reverse link MatchScreen to OutputWriter--><g class="link" data-entity-1="MatchScreen" data-entity-2="OutputWriter" data-source-line="316" data-uid="lnk81" id="link_MatchScreen_OutputWriter"><path codeLine="316" d="M2870.9589,544.7877 C2867.4389,558.0377 2867.35,566.01 2873,582 C2886.85,621.21 2921.46,656.67 2942.92,675.9" fill="none" id="MatchScreen-backto-OutputWriter" style="stroke:#181818;stroke-width:1;"/><polygon fill="#181818" points="2874.04,533.19,2868.6336,537.9618,2870.9589,544.7877,2876.3654,540.0159,2874.04,533.19" style="stroke:#181818;stroke-width:1;"/><text fill="#000000" font-family="sans-serif" font-size="13" lengthAdjust="spacing" textLength="38.0288" x="2874" y="578.0669">writer</text></g><!--reverse link MatchScreen to AbstractPlayer--><g class="link" data-entity-1="MatchScreen" data-entity-2="AbstractPlayer" data-source-line="317" data-uid="lnk82" id="link_MatchScreen_AbstractPlayer"><path codeLine="317" d="M2849.9638,540.0748 C2837.6338,548.8248 2830.66,552.09 2814,557 C2787.55,564.79 2593.51,563.16 2566,565 C2491.56,569.98 2473.47,577.49 2399,582 C2376.37,583.37 2012.27,582.15 1991,590 C1943.3,607.6 1900.63,652.08 1880.4,675.7" fill="none" id="MatchScreen-backto-AbstractPlayer" style="stroke:#181818;stroke-width:1;"/><polygon fill="#181818" points="2859.75,533.13,2852.542,533.3403,2849.9638,540.0748,2857.1718,539.8645,2859.75,533.13" style="stroke:#181818;stroke-width:1;"/><text fill="#000000" font-family="sans-serif" font-size="13" lengthAdjust="spacing" textLength="34.5059" x="2567" y="578.0669">black</text></g><!--reverse link MatchScreen to AbstractPlayer--><g class="link" data-entity-1="MatchScreen" data-entity-2="AbstractPlayer" data-source-line="318" data-uid="lnk83" id="link_MatchScreen_AbstractPlayer"><path codeLine="318" d="M2849.9162,539.9499 C2837.5762,548.6599 2830.62,551.95 2814,557 C2779.73,567.42 2688.12,557.94 2653,565 C2631.22,569.38 2627.85,578.02 2606,582 C2572.38,588.12 2023.09,578.28 1991,590 C1943.25,607.45 1900.6,651.99 1880.38,675.67" fill="none" id="MatchScreen-backto-AbstractPlayer-1" style="stroke:#181818;stroke-width:1;"/><polygon fill="#181818" points="2859.72,533.03,2852.5115,533.222,2849.9162,539.9499,2857.1247,539.7579,2859.72,533.03" style="stroke:#181818;stroke-width:1;"/><text fill="#000000" font-family="sans-serif" font-size="13" lengthAdjust="spacing" textLength="35.5786" x="2654" y="578.0669">white</text></g><!--link MatchScreen to AbstractPlayer--><g class="link" data-entity-1="MatchScreen" data-entity-2="AbstractPlayer" data-source-line="320" data-uid="lnk85" id="link_MatchScreen_AbstractPlayer"><path codeLine="320" d="M2859.07,533.14 C2846.75,541.65 2830.24,551.63 2814,557 C2779.65,568.36 2768.01,555.88 2733,565 C2714.7,569.77 2712.49,578.04 2694,582 C2655.81,590.19 2027.7,576.63 1991,590 C1943.23,607.41 1904.4841,647.4054 1884.2741,671.0954" fill="none" id="MatchScreen-to-AbstractPlayer" style="stroke:#181818;stroke-width:1;"/><polygon fill="#181818" points="1880.38,675.66,1889.2643,671.4091,1883.6251,671.8561,1883.1781,666.217,1880.38,675.66" style="stroke:#181818;stroke-width:1;"/><text fill="#000000" font-family="sans-serif" font-size="13" lengthAdjust="spacing" textLength="87.8643" x="2734" y="578.0669">currentPlayer</text></g><!--link MatchScreen to ChessBoard--><g class="link" data-entity-1="MatchScreen" data-entity-2="ChessBoard" data-source-line="319" data-uid="lnk84" id="link_MatchScreen_ChessBoard"><path codeLine="319" d="M2902.8,533.12 C2918.18,541.98 2938.99,552.32 2959,557 C3032.73,574.24 4246.95,554.95 4322,565 C4484.77,586.79 4665.6737,645.5168 4747.3437,673.9568" fill="none" id="MatchScreen-to-ChessBoard" style="stroke:#181818;stroke-width:1;"/><polygon fill="#181818" points="4753.01,675.93,4745.826,669.1927,4748.2881,674.2857,4743.1952,676.7478,4753.01,675.93" style="stroke:#181818;stroke-width:1;"/><text fill="#000000" font-family="sans-serif" font-size="13" lengthAdjust="spacing" textLength="74.6992" x="4415" y="578.0669">chessboard</text></g><!--reverse link AbstractPlayer to PlayerColor--><g class="link" data-entity-1="AbstractPlayer" data-entity-2="PlayerColor" data-source-line="321" data-uid="lnk86" id="link_AbstractPlayer_PlayerColor"><path codeLine="321" d="M1844.253,716.387 C1828.673,731.127 1811.63,744.65 1785,756 C1719.6,783.89 1697.77,774.19 1627,781 C1151.31,826.76 572.99,827.51 393.11,826.48" fill="none" id="AbstractPlayer-backto-PlayerColor" style="stroke:#181818;stroke-width:1;"/><polygon fill="#181818" points="1852.97,708.14,1845.8625,709.3578,1844.253,716.387,1851.3605,715.1692,1852.97,708.14" style="stroke:#181818;stroke-width:1;"/><text fill="#000000" font-family="sans-serif" font-size="13" lengthAdjust="spacing" textLength="74.8071" x="1764" y="777.0669">playerColor</text></g><!--reverse link HumanPlayer to InputReader--><g class="link" data-entity-1="HumanPlayer" data-entity-2="InputReader" data-source-line="322" data-uid="lnk87" id="link_HumanPlayer_InputReader"><path codeLine="322" d="M1868.0414,545.1116 C1867.4814,560.0816 1869.81,570.42 1884,582 C1896.63,592.31 2455.26,585.75 2471,590 C2534.73,607.2 2599.83,652.29 2631.04,675.97" fill="none" id="HumanPlayer-backto-InputReader" style="stroke:#181818;stroke-width:1;"/><polygon fill="#181818" points="1868.49,533.12,1864.2685,538.9663,1868.0414,545.1116,1872.2629,539.2653,1868.49,533.12" style="stroke:#181818;stroke-width:1;"/><text fill="#000000" font-family="sans-serif" font-size="13" lengthAdjust="spacing" textLength="42.9038" x="1885" y="578.0669">reader</text></g><!--link HumanPlayer to AbstractPlayer--><g class="link" data-entity-1="HumanPlayer" data-entity-2="AbstractPlayer" data-source-line="323" data-uid="lnk88" id="link_HumanPlayer_AbstractPlayer"><path codeLine="323" d="M1862.11,533.21 C1857.9,542.19 1853.15,553.94 1851,565 C1843.29,604.65 1849.8956,634.8273 1857.3656,658.6073" fill="none" id="HumanPlayer-to-AbstractPlayer" style="stroke:#181818;stroke-width:1;"/><polygon fill="none" points="1862.76,675.78,1863.0898,656.8092,1851.6413,660.4055,1862.76,675.78" style="stroke:#181818;stroke-width:1;"/></g><!--reverse link BotAlgorithm to PlayerColor--><g class="link" data-entity-1="BotAlgorithm" data-entity-2="PlayerColor" data-source-line="324" data-uid="lnk89" id="link_BotAlgorithm_PlayerColor"><path codeLine="324" d="M1318.9741,702.32 C1129.7541,726.16 574.28,796.12 393.2,818.92" fill="none" id="BotAlgorithm-backto-PlayerColor" style="stroke:#181818;stroke-width:1;"/><polygon fill="#181818" points="1330.88,700.82,1324.4271,697.6014,1318.9741,702.32,1325.4271,705.5386,1330.88,700.82" style="stroke:#181818;stroke-width:1;"/><text fill="#000000" font-family="sans-serif" font-size="13" lengthAdjust="spacing" textLength="101.2197" x="802" y="777.0669">ownPlayerColor</text></g><!--reverse link BotAlgorithm to EvalStrategy--><g class="link" data-entity-1="BotAlgorithm" data-entity-2="EvalStrategy" data-source-line="325" data-uid="lnk90" id="link_BotAlgorithm_EvalStrategy"><path codeLine="325" d="M1411.393,717.5586 C1423.163,732.5086 1435.89,745.21 1459,756 C1564.97,805.46 1917.1,820.46 2059.98,824.58" fill="none" id="BotAlgorithm-backto-EvalStrategy" style="stroke:#181818;stroke-width:1;"/><polygon fill="#181818" points="1403.97,708.13,1404.5387,715.3186,1411.393,717.5586,1410.8244,710.3699,1403.97,708.13" style="stroke:#181818;stroke-width:1;"/><text fill="#000000" font-family="sans-serif" font-size="13" lengthAdjust="spacing" textLength="82.9702" x="1536" y="777.0669">evalStrategy</text></g><!--reverse link BotPlayer to BotAlgorithm--><g class="link" data-entity-1="BotPlayer" data-entity-2="BotAlgorithm" data-source-line="326" data-uid="lnk91" id="link_BotPlayer_BotAlgorithm"><path codeLine="326" d="M1689.5815,540.0105 C1677.0515,548.7605 1669.87,552.11 1653,557 C1639.07,561.04 1402.1,554.59 1392,565 C1363.22,594.68 1377.48,649.21 1386.92,675.72" fill="none" id="BotPlayer-backto-BotAlgorithm" style="stroke:#181818;stroke-width:1;"/><polygon fill="#181818" points="1699.42,533.14,1692.2106,533.2957,1689.5815,540.0105,1696.7909,539.8547,1699.42,533.14" style="stroke:#181818;stroke-width:1;"/><text fill="#000000" font-family="sans-serif" font-size="13" lengthAdjust="spacing" textLength="84.9697" x="1393" y="578.0669">botAlgorithm</text></g><!--link BotPlayer to AbstractPlayer--><g class="link" data-entity-1="BotPlayer" data-entity-2="AbstractPlayer" data-source-line="327" data-uid="lnk92" id="link_BotPlayer_AbstractPlayer"><path codeLine="327" d="M1733.41,533.23 C1746.94,547.66 1767.66,570.02 1785,590 C1810.89,619.82 1828.6967,641.6954 1844.6467,661.6654" fill="none" id="BotPlayer-to-AbstractPlayer" style="stroke:#181818;stroke-width:1;"/><polygon fill="none" points="1855.88,675.73,1849.3348,657.921,1839.9585,665.4099,1855.88,675.73" style="stroke:#181818;stroke-width:1;"/></g><!--link MiniMaxAlgo to BotAlgorithm--><g class="link" data-entity-1="MiniMaxAlgo" data-entity-2="BotAlgorithm" data-source-line="328" data-uid="lnk93" id="link_MiniMaxAlgo_BotAlgorithm"><path codeLine="328" d="M1169.31,533.05 C1215.65,565.77 1310.4063,632.6772 1356.8563,665.4772" fill="none" id="MiniMaxAlgo-to-BotAlgorithm" style="stroke:#181818;stroke-width:1;"/><polygon fill="none" points="1371.56,675.86,1360.3173,660.576,1353.3954,670.3784,1371.56,675.86" style="stroke:#181818;stroke-width:1;"/></g><!--link MiniMaxBotPlayer to BotPlayer--><g class="link" data-entity-1="MiniMaxBotPlayer" data-entity-2="BotPlayer" data-source-line="329" data-uid="lnk94" id="link_MiniMaxBotPlayer_BotPlayer"><path codeLine="329" d="M1362.33,374.16 C1380.83,382.68 1405.23,392.65 1428,398 C1476.81,409.46 1609.83,389.49 1653,415 C1686,434.5 1699.3528,460.8305 1707.8128,483.9005" fill="none" id="MiniMaxBotPlayer-to-BotPlayer" style="stroke:#181818;stroke-width:1;"/><polygon fill="none" points="1714.01,500.8,1713.4459,481.8347,1702.1796,485.9662,1714.01,500.8" style="stroke:#181818;stroke-width:1;"/></g><!--link MiniMaxParallel to MiniMaxAlgo--><g class="link" data-entity-1="MiniMaxParallel" data-entity-2="MiniMaxAlgo" data-source-line="330" data-uid="lnk95" id="link_MiniMaxParallel_MiniMaxAlgo"><path codeLine="330" d="M1148,374.05 C1148,403.99 1148,452.68 1148,482.76" fill="none" id="MiniMaxParallel-to-MiniMaxAlgo" style="stroke:#181818;stroke-width:1;"/><polygon fill="none" points="1148,500.76,1154,482.76,1142,482.76,1148,500.76" style="stroke:#181818;stroke-width:1;"/></g><!--reverse link MiniMaxRecursiveTask to PlayerColor--><g class="link" data-entity-1="MiniMaxRecursiveTask" data-entity-2="PlayerColor" data-source-line="331" data-uid="lnk96" id="link_MiniMaxRecursiveTask_PlayerColor"><path codeLine="331" d="M1494.6656,378.4496 C1472.7156,387.0996 1454.8,392.85 1428,398 C1271.57,428.07 1228.11,395.63 1070,415 C674.19,463.48 442.98,281.75 190,590 C136.04,655.75 138.2,724.75 202,781 C214.19,791.74 249.47,803.32 280.91,812.04" fill="none" id="MiniMaxRecursiveTask-backto-PlayerColor" style="stroke:#181818;stroke-width:1;"/><polygon fill="#181818" points="1505.83,374.05,1498.7813,372.5284,1494.6656,378.4496,1501.7144,379.9713,1505.83,374.05" style="stroke:#181818;stroke-width:1;"/><text fill="#000000" font-family="sans-serif" font-size="13" lengthAdjust="spacing" textLength="84.6206" x="208" y="578.0669">playerAtTurn</text></g><!--reverse link MiniMaxRecursiveTask to ChessBoard--><g class="link" data-entity-1="MiniMaxRecursiveTask" data-entity-2="ChessBoard" data-source-line="332" data-uid="lnk97" id="link_MiniMaxRecursiveTask_ChessBoard"><path codeLine="332" d="M1648.7598,359.5209 C2167.2198,362.1509 4605.37,376.56 4673,415 C4770.7,470.53 4790.33,626.77 4794.12,675.97" fill="none" id="MiniMaxRecursiveTask-backto-ChessBoard" style="stroke:#181818;stroke-width:1;"/><polygon fill="#181818" points="1636.76,359.46,1642.7396,363.4904,1648.7598,359.5209,1642.7802,355.4905,1636.76,359.46" style="stroke:#181818;stroke-width:1;"/><text fill="#000000" font-family="sans-serif" font-size="13" lengthAdjust="spacing" textLength="75.3657" x="4771" y="521.5669">chessBoard</text></g><!--reverse link MiniMaxRecursiveTask to EvalStrategy--><g class="link" data-entity-1="MiniMaxRecursiveTask" data-entity-2="EvalStrategy" data-source-line="333" data-uid="lnk98" id="link_MiniMaxRecursiveTask_EvalStrategy"><path codeLine="333" d="M1648.6376,359.2204 C1755.9476,361.3704 1908.61,371.67 1951,415 C1957.67,421.81 1984.64,748.11 1990,756 C2008.26,782.87 2040.28,800.25 2068.09,810.97" fill="none" id="MiniMaxRecursiveTask-backto-EvalStrategy" style="stroke:#181818;stroke-width:1;"/><polygon fill="#181818" points="1636.64,358.98,1642.5587,363.0994,1648.6376,359.2204,1642.7189,355.101,1636.64,358.98" style="stroke:#181818;stroke-width:1;"/><text fill="#000000" font-family="sans-serif" font-size="13" lengthAdjust="spacing" textLength="82.9702" x="1971" y="578.0669">evalStrategy</text></g><!--link MiniMaxSequential to MiniMaxAlgo--><g class="link" data-entity-1="MiniMaxSequential" data-entity-2="MiniMaxAlgo" data-source-line="334" data-uid="lnk99" id="link_MiniMaxSequential_MiniMaxAlgo"><path codeLine="334" d="M978.03,374.05 C1013.96,404.06 1080.3237,459.4827 1116.2137,489.4527" fill="none" id="MiniMaxSequential-to-MiniMaxAlgo" style="stroke:#181818;stroke-width:1;"/><polygon fill="none" points="1130.03,500.99,1120.0595,484.8472,1112.3679,494.0581,1130.03,500.99" style="stroke:#181818;stroke-width:1;"/></g><!--SRC=[xLfBZziu4ZwlVuMGlNIcOs7TcRtq00l8RdVRY5zhAvjTxA51IxIbH1OzUdIdaSdyzYbI3rCMPP6otBC8zcB84glgOxrOBDBoK1XgbgCxeHVh5WhrNOXjVUsHzSOD7NsAN5_xrldBjnsE769_rxHlOOGYr_gk_RwZtwxUQhVQ4t7jplTEfsFLi3ET02DxGYpaVOnSBwnWVHtW44ShzeyZqQwqFGhGRa2bz40kUz3U9MzNKU3wsnjudJnfIiZMACJwFVOfh2fKMnp1Y0K9tSWbVjyZrfSmmvJ8x1Mb_tVo6JqXtKF-LazU_oBc_8GyrqOH1lOf-IcsQfDQkDZ2XIbTMyGZGMAwEc8FlU1WGCVp3F2lCVBokS_Ndx4LKP394mEv9iJ3oEUfDZZrbu43P5Q42pmT53e3OkDaYEj7_CSTA2TmaRSWy24K3eb8fhgtkReAtr_sM6xEL64cZ6OwndwyawPWQjwusAC2- -FLQBxWNdmOpnxulxFnmyZaNYoCJpFkxpy_3eVy_-Ly_a4Uqi5mHL0JO_21-_zfD3Q7Siv4K63h0mU7OPy-ycnpJ-wkJ6DfBkQhiJcUpnxlXpFU5kdeBcD53K5s-jQDd7YjhnqQ9SHtFmUwHMLuxbfdSdWRscHAdl39u92V0Cyu2Uqgru6lAzV6PYgzUTouuGFQuVaJJgDF42HkE0LVjqzz1n0Jl3taGw4U1AGU9QBKQG2nv1H3mjCdRXWfE47iweQtTn3u8KIbrIU1ZODxQjmbzk4H1qBdkEu_F0xca_bIu1E7GVSoWnRWniFHV78tN3uEHiRI69Z39JCB2ch7rt9V3bT3y_I8-QV7bRc4W7va4IHqcu0f0vmWtlbCEvd187FraWIc2HsEYwU4nt2tZrvI5czFo5gIvqm6vu4z9N-LX0IYYajLAmALV915SS7ZChI_9nWpQ1zTDhGdaHw0RJewgoiuf3TdpGlCZOCDWiLOQcxYc3hO0wt3YAwYvpbQYKlRBgHaqKDo5YMIBg0AuPMK5MajbnXomQZAmLAPFlzKmokP_E3WZ4pQmHCdEO9PLrPav2ie_W9SBYtkZ2LVMKnOTICxVmmbi3w47m04wz_sfNhgi1hJWJ6YLVZ9DT0cyTh3KYx8vDELrtY6oL7-ulfcQlpxSVPnscUhJSg_M2bS41kjW7DepMKUQ9E8OfNF2RAZEe4Z3_0Eoed3wXJU1sINRP1EybJ83cpwI-JRPDV2v6KaRg58WmmS9J5z3sv7WfUANI4Kiz4gtkz948M6joK1rBEx34ZEOn6G9wWWQ_8eaxjFXuPwYJhBJ6pVUvDlWCNb7WSH94KhjC7UowM0lJsBl08rRFmZV65LDa_oxt9SkTdVd-ImPyIGHoET9whHNP4g0I1k8XJrLRMgbTeax_9IuNrQAgHl-6pyyqcCvUHTrkxVrPVG5fJIXVoGQpgp_H97SU2p_VfLsOXD_Ql4WCs1HMXbE-bVBeAS1CGpODTyLyR0iDg9RYyB9HCi6c1Qo9gt6Wcs-cVFzR6UlTJDz87FwQ53Obg10CuWoXGqzlTnjCH8JY_SwCmJvd44xpw1Wd1De34E_F2gxMmACE-8SNDufeH3twRgc89Qq3OtDS-vrm28TFEjf0dUB47oYZTAyWgCxkE4e5Yn8fj-QMjDPU2WfB2S0V4txhQugAuzP7sfwtEaCMYaXLaf21is2K-s0UjwVC-E6-5cmAMrLl28iqBjUkF5eIFquEjzG3DnRHVucCBmxVk4gIgbvpUXaPSdhL_yrS9xMis5EWrVOmsL5RQ7sLjGUHDMpDShUCdiJsJoVUMEfRWoSvjomKfxS_PA-_voAsq-vnDxitmCNTCAWTfSrqUrMwMYKIRRp9lzvGMuqZ3D-ns2Ml3cpwW5YvP8wugI3QHYvw3_gUkxK_HLR8RI1ha_DnzdnbJS4PMmJzisIT5J5KkR14BKtQ6lEaTxdcNQjyO2vkPvs1DdeP9LZCd3V3asHzDgs_mOIUh8T9cQZcnnEaSriyWAwXtiHoxwlqrEs-IWgFQj4eB6iA-Fo0wlsADOzGDZCdYy6oxCKQd6x2QXcapq1rYoXRc8h_ol97ettFWZLV6mL0z6LQtAK71cvN7CyDVeS3fRYgGkgrUFEvFd7N0SRphPfPKnhM-Wp4-Ea8IRqsI3VUU6r53fk0HFSKlIKz_5o6wLgUQpMa6hCu5Oqgds_C4OQRyoFzRfAPtGg-vgKwIZU8Ty0SnBGbFLPgdoutUI5lAis6CjxJlOgJYb92LIU1-7_qipo_NVb8Ue2FkcuWO29Zokr_6BvbYpqaK8zLB6RWvtYQqu2DqdRABmIy6RxO8BPsyTDsIdAiM6f_y5sqU7J7-ro6uVIxTr2j10GpDY5qwyBB9_CNpRi6sJZ58CgH8FudiLiF9D1J2-aRZ0H4_768hIEPfWekc1nofUKnMMki6my7ZOeZdXQEdBPZa0FG6uA5k9UTBiovb6FfHknGMO9YpgaWiKEMUxvE50ugPOSpKlcDuT6_ZdAWF_u3vsoVnHTVwoGlvymmkZpptbcPsPfL8p5J8JBStvOt7btDImnytaNWbFv4_tlpDWLpAc5ZRB5TJ7TK_7FhkXJ9N8DqyF6eCYPakxsynQ1M4WJkP-ya_ThYP_pVPMexTvM-JCvGhgbtHtqi8bI5t_xHzQmzjU7UKBS7KJFNMrZBhfAq8u5hvH5IkuA2O_VPwAJfpxtr6w8LGZihpplzKmzrTDM9qpbQHrL6uKjSwTkx3J9c_nrPmtlJSQ0MEy-Pkk__H6E_CSvrRBMtEhLuLor5-_rMWpVJ4n_ZDSrWBXMperVYdUq4Caq6FVLv33Jcaxvvy_rFbLxRMZzfhkwb1AF3fjDfnV0K-vrLhZ3gKB4RTQSkVXCf8Av_JWTEoXezvfb5rN14iIhQIFNxQFu3LdUrRgQ4-SL0OHYEjs9UenRdUJ6f2zRrzSrUoiE0WWiDFElIgzUhsxvthoIitL2mIyG4gt-vkw6Zlg7LXrnP5dVw6YErMHPnIGmcQiNBILKD8QcRlweIZqWkOJjOWbnPKkj9pNJbQJUiOSywwmWaI1cZhdjtYRvXaZCkF0VmK05ScyNvFCMnBVJknMzr_Fj7_7WHelsNU7oNFIDmexVm00]--></g></svg>