<svg xmlns="http://www.w3.org/2000/svg" xmlns:xlink="http://www.w3.org/1999/xlink" contentStyleType="text/css" data-diagram-type="CLASS" height="895px" preserveAspectRatio="none" style="width:2981px;height:895px;background:#FFFFFF;" version="1.1" viewBox="0 0 2981 895" width="2981px" zoomAndPan="magnify"><defs/><g><!--cluster ch--><g class="cluster" data-entity="ch" data-source-line="2" data-uid="ent0003" id="cluster_ch"><path d="M8.5,6 L27.7656,6 A3.75,3.75 0 0 1 30.2656,8.5 L37.2656,28.2969 L2971.5,28.2969 A2.5,2.5 0 0 1 2974,30.7969 L2974,885.5 A2.5,2.5 0 0 1 2971.5,888 L8.5,888 A2.5,2.5 0 0 1 6,885.5 L6,8.5 A2.5,2.5 0 0 1 8.5,6" fill="none" style="stroke:#000000;stroke-width:1.5;"/><line style="stroke:#000000;stroke-width:1.5;" x1="6" x2="37.2656" y1="28.2969" y2="28.2969"/><text fill="#000000" font-family="sans-serif" font-size="14" font-weight="bold" lengthAdjust="spacing" textLength="18.2656" x="10" y="20.9951">ch</text></g><!--cluster hslu--><g class="cluster" data-entity="hslu" data-source-line="2" data-uid="ent0004" id="cluster_hslu"><path d="M32.5,49 L66.5654,49 A3.75,3.75 0 0 1 69.0654,51.5 L76.0654,71.2969 L2947.5,71.2969 A2.5,2.5 0 0 1 2950,73.7969 L2950,861.5 A2.5,2.5 0 0 1 2947.5,864 L32.5,864 A2.5,2.5 0 0 1 30,861.5 L30,51.5 A2.5,2.5 0 0 1 32.5,49" fill="none" style="stroke:#000000;stroke-width:1.5;"/><line style="stroke:#000000;stroke-width:1.5;" x1="30" x2="76.0654" y1="71.2969" y2="71.2969"/><text fill="#000000" font-family="sans-serif" font-size="14" font-weight="bold" lengthAdjust="spacing" textLength="33.0654" x="34" y="63.9951">hslu</text></g><!--cluster cas--><g class="cluster" data-entity="cas" data-source-line="2" data-uid="ent0005" id="cluster_cas"><path d="M56.5,92 L83.5791,92 A3.75,3.75 0 0 1 86.0791,94.5 L93.0791,114.2969 L2923.5,114.2969 A2.5,2.5 0 0 1 2926,116.7969 L2926,837.5 A2.5,2.5 0 0 1 2923.5,840 L56.5,840 A2.5,2.5 0 0 1 54,837.5 L54,94.5 A2.5,2.5 0 0 1 56.5,92" fill="none" style="stroke:#000000;stroke-width:1.5;"/><line style="stroke:#000000;stroke-width:1.5;" x1="54" x2="93.0791" y1="114.2969" y2="114.2969"/><text fill="#000000" font-family="sans-serif" font-size="14" font-weight="bold" lengthAdjust="spacing" textLength="26.0791" x="58" y="106.9951">cas</text></g><!--cluster msed--><g class="cluster" data-entity="msed" data-source-line="2" data-uid="ent0006" id="cluster_msed"><path d="M80.5,135 L123.9375,135 A3.75,3.75 0 0 1 126.4375,137.5 L133.4375,157.2969 L2899.5,157.2969 A2.5,2.5 0 0 1 2902,159.7969 L2902,813.5 A2.5,2.5 0 0 1 2899.5,816 L80.5,816 A2.5,2.5 0 0 1 78,813.5 L78,137.5 A2.5,2.5 0 0 1 80.5,135" fill="none" style="stroke:#000000;stroke-width:1.5;"/><line style="stroke:#000000;stroke-width:1.5;" x1="78" x2="133.4375" y1="157.2969" y2="157.2969"/><text fill="#000000" font-family="sans-serif" font-size="14" font-weight="bold" lengthAdjust="spacing" textLength="42.4375" x="82" y="149.9951">msed</text></g><!--cluster blobfish--><g class="cluster" data-entity="blobfish" data-source-line="2" data-uid="ent0007" id="cluster_blobfish"><path d="M104.5,178 L169.1494,178 A3.75,3.75 0 0 1 171.6494,180.5 L178.6494,200.2969 L2875.5,200.2969 A2.5,2.5 0 0 1 2878,202.7969 L2878,789.5 A2.5,2.5 0 0 1 2875.5,792 L104.5,792 A2.5,2.5 0 0 1 102,789.5 L102,180.5 A2.5,2.5 0 0 1 104.5,178" fill="none" style="stroke:#000000;stroke-width:1.5;"/><line style="stroke:#000000;stroke-width:1.5;" x1="102" x2="178.6494" y1="200.2969" y2="200.2969"/><text fill="#000000" font-family="sans-serif" font-size="14" font-weight="bold" lengthAdjust="spacing" textLength="63.6494" x="106" y="192.9951">blobfish</text></g><!--cluster base--><g class="cluster" data-entity="base" data-source-line="7" data-uid="ent0009" id="cluster_base"><path d="M522.5,439 L560.7969,439 A3.75,3.75 0 0 1 563.2969,441.5 L570.2969,461.2969 L800.5,461.2969 A2.5,2.5 0 0 1 803,463.7969 L803,630.5 A2.5,2.5 0 0 1 800.5,633 L522.5,633 A2.5,2.5 0 0 1 520,630.5 L520,441.5 A2.5,2.5 0 0 1 522.5,439" fill="none" style="stroke:#000000;stroke-width:1.5;"/><line style="stroke:#000000;stroke-width:1.5;" x1="520" x2="570.2969" y1="461.2969" y2="461.2969"/><text fill="#000000" font-family="sans-serif" font-size="14" font-weight="bold" lengthAdjust="spacing" textLength="37.2969" x="524" y="453.9951">base</text></g><!--cluster board--><g class="cluster" data-entity="board" data-source-line="40" data-uid="ent0014" id="cluster_board"><path d="M1987.5,396 L2034.5127,396 A3.75,3.75 0 0 1 2037.0127,398.5 L2044.0127,418.2969 L2522.5,418.2969 A2.5,2.5 0 0 1 2525,420.7969 L2525,765.5 A2.5,2.5 0 0 1 2522.5,768 L1987.5,768 A2.5,2.5 0 0 1 1985,765.5 L1985,398.5 A2.5,2.5 0 0 1 1987.5,396" fill="none" style="stroke:#000000;stroke-width:1.5;"/><line style="stroke:#000000;stroke-width:1.5;" x1="1985" x2="2044.0127" y1="418.2969" y2="418.2969"/><text fill="#000000" font-family="sans-serif" font-size="14" font-weight="bold" lengthAdjust="spacing" textLength="46.0127" x="1989" y="410.9951">board</text></g><!--cluster ui--><g class="cluster" data-entity="ui" data-source-line="49" data-uid="ent0016" id="cluster_ui"><path d="M2138.5,439 L2154.2656,439 A3.75,3.75 0 0 1 2156.7656,441.5 L2163.7656,461.2969 L2498.5,461.2969 A2.5,2.5 0 0 1 2501,463.7969 L2501,741.5 A2.5,2.5 0 0 1 2498.5,744 L2138.5,744 A2.5,2.5 0 0 1 2136,741.5 L2136,441.5 A2.5,2.5 0 0 1 2138.5,439" fill="none" style="stroke:#000000;stroke-width:1.5;"/><line style="stroke:#000000;stroke-width:1.5;" x1="2136" x2="2163.7656" y1="461.2969" y2="461.2969"/><text fill="#000000" font-family="sans-serif" font-size="14" font-weight="bold" lengthAdjust="spacing" textLength="14.7656" x="2140" y="453.9951">ui</text></g><!--cluster eval--><g class="cluster" data-entity="eval" data-source-line="71" data-uid="ent0021" id="cluster_eval"><path d="M2551.5,264 L2585.3672,264 A3.75,3.75 0 0 1 2587.8672,266.5 L2594.8672,286.2969 L2851.5,286.2969 A2.5,2.5 0 0 1 2854,288.7969 L2854,519.5 A2.5,2.5 0 0 1 2851.5,522 L2551.5,522 A2.5,2.5 0 0 1 2549,519.5 L2549,266.5 A2.5,2.5 0 0 1 2551.5,264" fill="none" style="stroke:#000000;stroke-width:1.5;"/><line style="stroke:#000000;stroke-width:1.5;" x1="2549" x2="2594.8672" y1="286.2969" y2="286.2969"/><text fill="#000000" font-family="sans-serif" font-size="14" font-weight="bold" lengthAdjust="spacing" textLength="32.8672" x="2553" y="278.9951">eval</text></g><!--cluster game--><g class="cluster" data-entity="game" data-source-line="88" data-uid="ent0025" id="cluster_game"><path d="M829.5,221 L874.0518,221 A3.75,3.75 0 0 1 876.5518,223.5 L883.5518,243.2969 L1958.5,243.2969 A2.5,2.5 0 0 1 1961,245.7969 L1961,519.5 A2.5,2.5 0 0 1 1958.5,522 L829.5,522 A2.5,2.5 0 0 1 827,519.5 L827,223.5 A2.5,2.5 0 0 1 829.5,221" fill="none" style="stroke:#000000;stroke-width:1.5;"/><line style="stroke:#000000;stroke-width:1.5;" x1="827" x2="883.5518" y1="243.2969" y2="243.2969"/><text fill="#000000" font-family="sans-serif" font-size="14" font-weight="bold" lengthAdjust="spacing" textLength="43.5518" x="831" y="235.9951">game</text></g><!--cluster exceptions--><g class="cluster" data-entity="exceptions" data-source-line="121" data-uid="ent0030" id="cluster_exceptions"><path d="M1472.5,264 L1559.25,264 A3.75,3.75 0 0 1 1561.75,266.5 L1568.75,286.2969 L1934.5,286.2969 A2.5,2.5 0 0 1 1937,288.7969 L1937,344.5 A2.5,2.5 0 0 1 1934.5,347 L1472.5,347 A2.5,2.5 0 0 1 1470,344.5 L1470,266.5 A2.5,2.5 0 0 1 1472.5,264" fill="none" style="stroke:#000000;stroke-width:1.5;"/><line style="stroke:#000000;stroke-width:1.5;" x1="1470" x2="1568.75" y1="286.2969" y2="286.2969"/><text fill="#000000" font-family="sans-serif" font-size="14" font-weight="bold" lengthAdjust="spacing" textLength="85.75" x="1474" y="278.9951">exceptions</text></g><!--cluster screen--><g class="cluster" data-entity="screen" data-source-line="129" data-uid="ent0033" id="cluster_screen"><path d="M1135.5,264 L1188.9932,264 A3.75,3.75 0 0 1 1191.4932,266.5 L1198.4932,286.2969 L1443.5,286.2969 A2.5,2.5 0 0 1 1446,288.7969 L1446,344.5 A2.5,2.5 0 0 1 1443.5,347 L1135.5,347 A2.5,2.5 0 0 1 1133,344.5 L1133,266.5 A2.5,2.5 0 0 1 1135.5,264" fill="none" style="stroke:#000000;stroke-width:1.5;"/><line style="stroke:#000000;stroke-width:1.5;" x1="1133" x2="1198.4932" y1="286.2969" y2="286.2969"/><text fill="#000000" font-family="sans-serif" font-size="14" font-weight="bold" lengthAdjust="spacing" textLength="52.4932" x="1137" y="278.9951">screen</text></g><!--cluster player--><g class="cluster" data-entity="player" data-source-line="141" data-uid="ent0036" id="cluster_player"><path d="M205.5,264 L256.293,264 A3.75,3.75 0 0 1 258.793,266.5 L265.793,286.2969 L493.5,286.2969 A2.5,2.5 0 0 1 496,288.7969 L496,519.5 A2.5,2.5 0 0 1 493.5,522 L205.5,522 A2.5,2.5 0 0 1 203,519.5 L203,266.5 A2.5,2.5 0 0 1 205.5,264" fill="none" style="stroke:#000000;stroke-width:1.5;"/><line style="stroke:#000000;stroke-width:1.5;" x1="203" x2="265.793" y1="286.2969" y2="286.2969"/><text fill="#000000" font-family="sans-serif" font-size="14" font-weight="bold" lengthAdjust="spacing" textLength="49.793" x="207" y="278.9951">player</text></g><!--class Main--><g class="entity" data-entity="Main" data-source-line="2" data-uid="ent0002" id="entity_Main"><rect fill="#F1F1F1" height="32" rx="2.5" ry="2.5" style="stroke:#181818;stroke-width:0.5;" width="65.4209" x="118.5" y="299"/><ellipse cx="133.5" cy="315" fill="#ADD1B2" rx="11" ry="11" style="stroke:#181818;stroke-width:1;"/><path d="M136.4688,320.6406 Q135.8906,320.9375 135.25,321.0781 Q134.6094,321.2344 133.9063,321.2344 Q131.4063,321.2344 130.0781,319.5938 Q128.7656,317.9375 128.7656,314.8125 Q128.7656,311.6875 130.0781,310.0313 Q131.4063,308.375 133.9063,308.375 Q134.6094,308.375 135.25,308.5313 Q135.9063,308.6875 136.4688,308.9844 L136.4688,311.7031 Q135.8438,311.125 135.25,310.8594 Q134.6563,310.5781 134.0313,310.5781 Q132.6875,310.5781 132,311.6563 Q131.3125,312.7188 131.3125,314.8125 Q131.3125,316.9063 132,317.9844 Q132.6875,319.0469 134.0313,319.0469 Q134.6563,319.0469 135.25,318.7813 Q135.8438,318.5 136.4688,317.9219 L136.4688,320.6406 Z " fill="#000000"/><text fill="#000000" font-family="sans-serif" font-size="14" lengthAdjust="spacing" textLength="33.4209" x="147.5" y="319.8467">Main</text></g><!--class FenUtil--><g class="entity" data-entity="FenUtil" data-source-line="7" data-uid="ent0008" id="entity_FenUtil"><rect fill="#F1F1F1" height="32" rx="2.5" ry="2.5" style="stroke:#181818;stroke-width:0.5;" width="81.0547" x="699.5" y="474"/><ellipse cx="714.5" cy="490" fill="#ADD1B2" rx="11" ry="11" style="stroke:#181818;stroke-width:1;"/><path d="M717.4688,495.6406 Q716.8906,495.9375 716.25,496.0781 Q715.6094,496.2344 714.9063,496.2344 Q712.4063,496.2344 711.0781,494.5938 Q709.7656,492.9375 709.7656,489.8125 Q709.7656,486.6875 711.0781,485.0313 Q712.4063,483.375 714.9063,483.375 Q715.6094,483.375 716.25,483.5313 Q716.9063,483.6875 717.4688,483.9844 L717.4688,486.7031 Q716.8438,486.125 716.25,485.8594 Q715.6563,485.5781 715.0313,485.5781 Q713.6875,485.5781 713,486.6563 Q712.3125,487.7188 712.3125,489.8125 Q712.3125,491.9063 713,492.9844 Q713.6875,494.0469 715.0313,494.0469 Q715.6563,494.0469 716.25,493.7813 Q716.8438,493.5 717.4688,492.9219 L717.4688,495.6406 Z " fill="#000000"/><text fill="#000000" font-family="sans-serif" font-size="14" lengthAdjust="spacing" textLength="49.0547" x="728.5" y="494.8467">FenUtil</text></g><!--class Piece--><g class="entity" data-entity="Piece" data-source-line="13" data-uid="ent0010" id="entity_Piece"><rect fill="#F1F1F1" height="32" rx="2.5" ry="2.5" style="stroke:#181818;stroke-width:0.5;" width="69.2559" x="573.5" y="474"/><ellipse cx="588.5" cy="490" fill="#ADD1B2" rx="11" ry="11" style="stroke:#181818;stroke-width:1;"/><path d="M591.4688,495.6406 Q590.8906,495.9375 590.25,496.0781 Q589.6094,496.2344 588.9063,496.2344 Q586.4063,496.2344 585.0781,494.5938 Q583.7656,492.9375 583.7656,489.8125 Q583.7656,486.6875 585.0781,485.0313 Q586.4063,483.375 588.9063,483.375 Q589.6094,483.375 590.25,483.5313 Q590.9063,483.6875 591.4688,483.9844 L591.4688,486.7031 Q590.8438,486.125 590.25,485.8594 Q589.6563,485.5781 589.0313,485.5781 Q587.6875,485.5781 587,486.6563 Q586.3125,487.7188 586.3125,489.8125 Q586.3125,491.9063 587,492.9844 Q587.6875,494.0469 589.0313,494.0469 Q589.6563,494.0469 590.25,493.7813 Q590.8438,493.5 591.4688,492.9219 L591.4688,495.6406 Z " fill="#000000"/><text fill="#000000" font-family="sans-serif" font-size="14" lengthAdjust="spacing" textLength="37.2559" x="602.5" y="494.8467">Piece</text></g><!--class PieceType--><g class="entity" data-entity="PieceType" data-source-line="24" data-uid="ent0011" id="entity_PieceType"><rect fill="#F1F1F1" height="32" rx="2.5" ry="2.5" style="stroke:#181818;stroke-width:0.5;" width="103.5928" x="683" y="585"/><ellipse cx="698" cy="601" fill="#EB937F" rx="11" ry="11" style="stroke:#181818;stroke-width:1;"/><path d="M702.1094,607 L694.3906,607 L694.3906,594.6094 L702.1094,594.6094 L702.1094,596.7656 L696.8438,596.7656 L696.8438,599.4375 L701.6094,599.4375 L701.6094,601.5938 L696.8438,601.5938 L696.8438,604.8438 L702.1094,604.8438 L702.1094,607 Z " fill="#000000"/><text fill="#000000" font-family="sans-serif" font-size="14" lengthAdjust="spacing" textLength="71.5928" x="712" y="605.8467">PieceType</text></g><!--class PlayerColor--><g class="entity" data-entity="PlayerColor" data-source-line="34" data-uid="ent0012" id="entity_PlayerColor"><rect fill="#F1F1F1" height="32" rx="2.5" ry="2.5" style="stroke:#181818;stroke-width:0.5;" width="112.1172" x="536" y="585"/><ellipse cx="551" cy="601" fill="#EB937F" rx="11" ry="11" style="stroke:#181818;stroke-width:1;"/><path d="M555.1094,607 L547.3906,607 L547.3906,594.6094 L555.1094,594.6094 L555.1094,596.7656 L549.8438,596.7656 L549.8438,599.4375 L554.6094,599.4375 L554.6094,601.5938 L549.8438,601.5938 L549.8438,604.8438 L555.1094,604.8438 L555.1094,607 Z " fill="#000000"/><text fill="#000000" font-family="sans-serif" font-size="14" lengthAdjust="spacing" textLength="80.1172" x="565" y="605.8467">PlayerColor</text></g><!--class ChessBoard--><g class="entity" data-entity="ChessBoard" data-source-line="40" data-uid="ent0013" id="entity_ChessBoard"><rect fill="#F1F1F1" height="32" rx="2.5" ry="2.5" style="stroke:#181818;stroke-width:0.5;" width="115.2412" x="2001.5" y="474"/><ellipse cx="2016.5" cy="490" fill="#ADD1B2" rx="11" ry="11" style="stroke:#181818;stroke-width:1;"/><path d="M2019.4688,495.6406 Q2018.8906,495.9375 2018.25,496.0781 Q2017.6094,496.2344 2016.9063,496.2344 Q2014.4063,496.2344 2013.0781,494.5938 Q2011.7656,492.9375 2011.7656,489.8125 Q2011.7656,486.6875 2013.0781,485.0313 Q2014.4063,483.375 2016.9063,483.375 Q2017.6094,483.375 2018.25,483.5313 Q2018.9063,483.6875 2019.4688,483.9844 L2019.4688,486.7031 Q2018.8438,486.125 2018.25,485.8594 Q2017.6563,485.5781 2017.0313,485.5781 Q2015.6875,485.5781 2015,486.6563 Q2014.3125,487.7188 2014.3125,489.8125 Q2014.3125,491.9063 2015,492.9844 Q2015.6875,494.0469 2017.0313,494.0469 Q2017.6563,494.0469 2018.25,493.7813 Q2018.8438,493.5 2019.4688,492.9219 L2019.4688,495.6406 Z " fill="#000000"/><text fill="#000000" font-family="sans-serif" font-size="14" lengthAdjust="spacing" textLength="83.2412" x="2030.5" y="494.8467">ChessBoard</text></g><!--class BoardRenderer--><g class="entity" data-entity="BoardRenderer" data-source-line="49" data-uid="ent0015" id="entity_BoardRenderer"><rect fill="#F1F1F1" height="32" rx="2.5" ry="2.5" style="stroke:#181818;stroke-width:0.5;" width="138.2305" x="2317" y="585"/><ellipse cx="2332" cy="601" fill="#ADD1B2" rx="11" ry="11" style="stroke:#181818;stroke-width:1;"/><path d="M2334.9688,606.6406 Q2334.3906,606.9375 2333.75,607.0781 Q2333.1094,607.2344 2332.4063,607.2344 Q2329.9063,607.2344 2328.5781,605.5938 Q2327.2656,603.9375 2327.2656,600.8125 Q2327.2656,597.6875 2328.5781,596.0313 Q2329.9063,594.375 2332.4063,594.375 Q2333.1094,594.375 2333.75,594.5313 Q2334.4063,594.6875 2334.9688,594.9844 L2334.9688,597.7031 Q2334.3438,597.125 2333.75,596.8594 Q2333.1563,596.5781 2332.5313,596.5781 Q2331.1875,596.5781 2330.5,597.6563 Q2329.8125,598.7188 2329.8125,600.8125 Q2329.8125,602.9063 2330.5,603.9844 Q2331.1875,605.0469 2332.5313,605.0469 Q2333.1563,605.0469 2333.75,604.7813 Q2334.3438,604.5 2334.9688,603.9219 L2334.9688,606.6406 Z " fill="#000000"/><text fill="#000000" font-family="sans-serif" font-size="14" lengthAdjust="spacing" textLength="106.2305" x="2346" y="605.8467">BoardRenderer</text></g><!--class ChessBoardRenderer--><g class="entity" data-entity="ChessBoardRenderer" data-source-line="54" data-uid="ent0017" id="entity_ChessBoardRenderer"><rect fill="#F1F1F1" height="32" rx="2.5" ry="2.5" style="stroke:#181818;stroke-width:0.5;" width="180.0801" x="2305" y="474"/><ellipse cx="2320" cy="490" fill="#ADD1B2" rx="11" ry="11" style="stroke:#181818;stroke-width:1;"/><path d="M2322.9688,495.6406 Q2322.3906,495.9375 2321.75,496.0781 Q2321.1094,496.2344 2320.4063,496.2344 Q2317.9063,496.2344 2316.5781,494.5938 Q2315.2656,492.9375 2315.2656,489.8125 Q2315.2656,486.6875 2316.5781,485.0313 Q2317.9063,483.375 2320.4063,483.375 Q2321.1094,483.375 2321.75,483.5313 Q2322.4063,483.6875 2322.9688,483.9844 L2322.9688,486.7031 Q2322.3438,486.125 2321.75,485.8594 Q2321.1563,485.5781 2320.5313,485.5781 Q2319.1875,485.5781 2318.5,486.6563 Q2317.8125,487.7188 2317.8125,489.8125 Q2317.8125,491.9063 2318.5,492.9844 Q2319.1875,494.0469 2320.5313,494.0469 Q2321.1563,494.0469 2321.75,493.7813 Q2322.3438,493.5 2322.9688,492.9219 L2322.9688,495.6406 Z " fill="#000000"/><text fill="#000000" font-family="sans-serif" font-size="14" lengthAdjust="spacing" textLength="148.0801" x="2334" y="494.8467">ChessBoardRenderer</text></g><!--class FieldRenderer--><g class="entity" data-entity="FieldRenderer" data-source-line="60" data-uid="ent0018" id="entity_FieldRenderer"><rect fill="#F1F1F1" height="32" rx="2.5" ry="2.5" style="stroke:#181818;stroke-width:0.5;" width="130.1709" x="2321" y="696"/><ellipse cx="2336" cy="712" fill="#B4A7E5" rx="11" ry="11" style="stroke:#181818;stroke-width:1;"/><path d="M2331.9219,707.7656 L2331.9219,705.6094 L2339.3125,705.6094 L2339.3125,707.7656 L2336.8438,707.7656 L2336.8438,715.8438 L2339.3125,715.8438 L2339.3125,718 L2331.9219,718 L2331.9219,715.8438 L2334.3906,715.8438 L2334.3906,707.7656 L2331.9219,707.7656 Z " fill="#000000"/><text fill="#000000" font-family="sans-serif" font-size="14" font-style="italic" lengthAdjust="spacing" textLength="98.1709" x="2350" y="716.8467">FieldRenderer</text></g><!--class SquareColor--><g class="entity" data-entity="SquareColor" data-source-line="65" data-uid="ent0019" id="entity_SquareColor"><rect fill="#F1F1F1" height="32" rx="2.5" ry="2.5" style="stroke:#181818;stroke-width:0.5;" width="118.1465" x="2152" y="474"/><ellipse cx="2167" cy="490" fill="#EB937F" rx="11" ry="11" style="stroke:#181818;stroke-width:1;"/><path d="M2171.1094,496 L2163.3906,496 L2163.3906,483.6094 L2171.1094,483.6094 L2171.1094,485.7656 L2165.8438,485.7656 L2165.8438,488.4375 L2170.6094,488.4375 L2170.6094,490.5938 L2165.8438,490.5938 L2165.8438,493.8438 L2171.1094,493.8438 L2171.1094,496 Z " fill="#000000"/><text fill="#000000" font-family="sans-serif" font-size="14" lengthAdjust="spacing" textLength="86.1465" x="2181" y="494.8467">SquareColor</text></g><!--class EvalStrategy--><g class="entity" data-entity="EvalStrategy" data-source-line="71" data-uid="ent0020" id="entity_EvalStrategy"><rect fill="#F1F1F1" height="32" rx="2.5" ry="2.5" style="stroke:#181818;stroke-width:0.5;" width="121.585" x="2641" y="474"/><ellipse cx="2656" cy="490" fill="#B4A7E5" rx="11" ry="11" style="stroke:#181818;stroke-width:1;"/><path d="M2651.9219,485.7656 L2651.9219,483.6094 L2659.3125,483.6094 L2659.3125,485.7656 L2656.8438,485.7656 L2656.8438,493.8438 L2659.3125,493.8438 L2659.3125,496 L2651.9219,496 L2651.9219,493.8438 L2654.3906,493.8438 L2654.3906,485.7656 L2651.9219,485.7656 Z " fill="#000000"/><text fill="#000000" font-family="sans-serif" font-size="14" font-style="italic" lengthAdjust="spacing" textLength="89.585" x="2670" y="494.8467">EvalStrategy</text></g><!--class MaterialEval--><g class="entity" data-entity="MaterialEval" data-source-line="76" data-uid="ent0022" id="entity_MaterialEval"><rect fill="#F1F1F1" height="32" rx="2.5" ry="2.5" style="stroke:#181818;stroke-width:0.5;" width="118.4746" x="2720" y="299"/><ellipse cx="2735" cy="315" fill="#ADD1B2" rx="11" ry="11" style="stroke:#181818;stroke-width:1;"/><path d="M2737.9688,320.6406 Q2737.3906,320.9375 2736.75,321.0781 Q2736.1094,321.2344 2735.4063,321.2344 Q2732.9063,321.2344 2731.5781,319.5938 Q2730.2656,317.9375 2730.2656,314.8125 Q2730.2656,311.6875 2731.5781,310.0313 Q2732.9063,308.375 2735.4063,308.375 Q2736.1094,308.375 2736.75,308.5313 Q2737.4063,308.6875 2737.9688,308.9844 L2737.9688,311.7031 Q2737.3438,311.125 2736.75,310.8594 Q2736.1563,310.5781 2735.5313,310.5781 Q2734.1875,310.5781 2733.5,311.6563 Q2732.8125,312.7188 2732.8125,314.8125 Q2732.8125,316.9063 2733.5,317.9844 Q2734.1875,319.0469 2735.5313,319.0469 Q2736.1563,319.0469 2736.75,318.7813 Q2737.3438,318.5 2737.9688,317.9219 L2737.9688,320.6406 Z " fill="#000000"/><text fill="#000000" font-family="sans-serif" font-size="14" lengthAdjust="spacing" textLength="86.4746" x="2749" y="319.8467">MaterialEval</text></g><!--class RandomEval--><g class="entity" data-entity="RandomEval" data-source-line="83" data-uid="ent0023" id="entity_RandomEval"><rect fill="#F1F1F1" height="32" rx="2.5" ry="2.5" style="stroke:#181818;stroke-width:0.5;" width="119.8691" x="2565" y="299"/><ellipse cx="2580" cy="315" fill="#ADD1B2" rx="11" ry="11" style="stroke:#181818;stroke-width:1;"/><path d="M2582.9688,320.6406 Q2582.3906,320.9375 2581.75,321.0781 Q2581.1094,321.2344 2580.4063,321.2344 Q2577.9063,321.2344 2576.5781,319.5938 Q2575.2656,317.9375 2575.2656,314.8125 Q2575.2656,311.6875 2576.5781,310.0313 Q2577.9063,308.375 2580.4063,308.375 Q2581.1094,308.375 2581.75,308.5313 Q2582.4063,308.6875 2582.9688,308.9844 L2582.9688,311.7031 Q2582.3438,311.125 2581.75,310.8594 Q2581.1563,310.5781 2580.5313,310.5781 Q2579.1875,310.5781 2578.5,311.6563 Q2577.8125,312.7188 2577.8125,314.8125 Q2577.8125,316.9063 2578.5,317.9844 Q2579.1875,319.0469 2580.5313,319.0469 Q2581.1563,319.0469 2581.75,318.7813 Q2582.3438,318.5 2582.9688,317.9219 L2582.9688,320.6406 Z " fill="#000000"/><text fill="#000000" font-family="sans-serif" font-size="14" lengthAdjust="spacing" textLength="87.8691" x="2594" y="319.8467">RandomEval</text></g><!--class ChessGame--><g class="entity" data-entity="ChessGame" data-source-line="88" data-uid="ent0024" id="entity_ChessGame"><rect fill="#F1F1F1" height="32" rx="2.5" ry="2.5" style="stroke:#181818;stroke-width:0.5;" width="115.5283" x="998" y="299"/><ellipse cx="1013" cy="315" fill="#ADD1B2" rx="11" ry="11" style="stroke:#181818;stroke-width:1;"/><path d="M1015.9688,320.6406 Q1015.3906,320.9375 1014.75,321.0781 Q1014.1094,321.2344 1013.4063,321.2344 Q1010.9063,321.2344 1009.5781,319.5938 Q1008.2656,317.9375 1008.2656,314.8125 Q1008.2656,311.6875 1009.5781,310.0313 Q1010.9063,308.375 1013.4063,308.375 Q1014.1094,308.375 1014.75,308.5313 Q1015.4063,308.6875 1015.9688,308.9844 L1015.9688,311.7031 Q1015.3438,311.125 1014.75,310.8594 Q1014.1563,310.5781 1013.5313,310.5781 Q1012.1875,310.5781 1011.5,311.6563 Q1010.8125,312.7188 1010.8125,314.8125 Q1010.8125,316.9063 1011.5,317.9844 Q1012.1875,319.0469 1013.5313,319.0469 Q1014.1563,319.0469 1014.75,318.7813 Q1015.3438,318.5 1015.9688,317.9219 L1015.9688,320.6406 Z " fill="#000000"/><text fill="#000000" font-family="sans-serif" font-size="14" lengthAdjust="spacing" textLength="83.5283" x="1027" y="319.8467">ChessGame</text></g><!--class InputReader--><g class="entity" data-entity="InputReader" data-source-line="96" data-uid="ent0026" id="entity_InputReader"><rect fill="#F1F1F1" height="32" rx="2.5" ry="2.5" style="stroke:#181818;stroke-width:0.5;" width="118.4268" x="1312" y="474"/><ellipse cx="1327" cy="490" fill="#ADD1B2" rx="11" ry="11" style="stroke:#181818;stroke-width:1;"/><path d="M1329.9688,495.6406 Q1329.3906,495.9375 1328.75,496.0781 Q1328.1094,496.2344 1327.4063,496.2344 Q1324.9063,496.2344 1323.5781,494.5938 Q1322.2656,492.9375 1322.2656,489.8125 Q1322.2656,486.6875 1323.5781,485.0313 Q1324.9063,483.375 1327.4063,483.375 Q1328.1094,483.375 1328.75,483.5313 Q1329.4063,483.6875 1329.9688,483.9844 L1329.9688,486.7031 Q1329.3438,486.125 1328.75,485.8594 Q1328.1563,485.5781 1327.5313,485.5781 Q1326.1875,485.5781 1325.5,486.6563 Q1324.8125,487.7188 1324.8125,489.8125 Q1324.8125,491.9063 1325.5,492.9844 Q1326.1875,494.0469 1327.5313,494.0469 Q1328.1563,494.0469 1328.75,493.7813 Q1329.3438,493.5 1329.9688,492.9219 L1329.9688,495.6406 Z " fill="#000000"/><text fill="#000000" font-family="sans-serif" font-size="14" lengthAdjust="spacing" textLength="86.4268" x="1341" y="494.8467">InputReader</text></g><!--class MatchConfig--><g class="entity" data-entity="MatchConfig" data-source-line="102" data-uid="ent0027" id="entity_MatchConfig"><rect fill="#F1F1F1" height="32" rx="2.5" ry="2.5" style="stroke:#181818;stroke-width:0.5;" width="119.6367" x="843" y="299"/><ellipse cx="858" cy="315" fill="#ADD1B2" rx="11" ry="11" style="stroke:#181818;stroke-width:1;"/><path d="M860.9688,320.6406 Q860.3906,320.9375 859.75,321.0781 Q859.1094,321.2344 858.4063,321.2344 Q855.9063,321.2344 854.5781,319.5938 Q853.2656,317.9375 853.2656,314.8125 Q853.2656,311.6875 854.5781,310.0313 Q855.9063,308.375 858.4063,308.375 Q859.1094,308.375 859.75,308.5313 Q860.4063,308.6875 860.9688,308.9844 L860.9688,311.7031 Q860.3438,311.125 859.75,310.8594 Q859.1563,310.5781 858.5313,310.5781 Q857.1875,310.5781 856.5,311.6563 Q855.8125,312.7188 855.8125,314.8125 Q855.8125,316.9063 856.5,317.9844 Q857.1875,319.0469 858.5313,319.0469 Q859.1563,319.0469 859.75,318.7813 Q860.3438,318.5 860.9688,317.9219 L860.9688,320.6406 Z " fill="#000000"/><text fill="#000000" font-family="sans-serif" font-size="14" lengthAdjust="spacing" textLength="87.6367" x="872" y="319.8467">MatchConfig</text></g><!--class OutputWriter--><g class="entity" data-entity="OutputWriter" data-source-line="111" data-uid="ent0028" id="entity_OutputWriter"><rect fill="#F1F1F1" height="32" rx="2.5" ry="2.5" style="stroke:#181818;stroke-width:0.5;" width="123.9775" x="1151" y="474"/><ellipse cx="1166" cy="490" fill="#ADD1B2" rx="11" ry="11" style="stroke:#181818;stroke-width:1;"/><path d="M1168.9688,495.6406 Q1168.3906,495.9375 1167.75,496.0781 Q1167.1094,496.2344 1166.4063,496.2344 Q1163.9063,496.2344 1162.5781,494.5938 Q1161.2656,492.9375 1161.2656,489.8125 Q1161.2656,486.6875 1162.5781,485.0313 Q1163.9063,483.375 1166.4063,483.375 Q1167.1094,483.375 1167.75,483.5313 Q1168.4063,483.6875 1168.9688,483.9844 L1168.9688,486.7031 Q1168.3438,486.125 1167.75,485.8594 Q1167.1563,485.5781 1166.5313,485.5781 Q1165.1875,485.5781 1164.5,486.6563 Q1163.8125,487.7188 1163.8125,489.8125 Q1163.8125,491.9063 1164.5,492.9844 Q1165.1875,494.0469 1166.5313,494.0469 Q1167.1563,494.0469 1167.75,493.7813 Q1168.3438,493.5 1168.9688,492.9219 L1168.9688,495.6406 Z " fill="#000000"/><text fill="#000000" font-family="sans-serif" font-size="14" lengthAdjust="spacing" textLength="91.9775" x="1180" y="494.8467">OutputWriter</text></g><!--class GameAbortedException--><g class="entity" data-entity="GameAbortedException" data-source-line="121" data-uid="ent0029" id="entity_GameAbortedException"><rect fill="#F1F1F1" height="32" rx="2.5" ry="2.5" style="stroke:#181818;stroke-width:0.5;" width="198.5986" x="1721.5" y="299"/><ellipse cx="1736.5" cy="315" fill="#ADD1B2" rx="11" ry="11" style="stroke:#181818;stroke-width:1;"/><path d="M1739.4688,320.6406 Q1738.8906,320.9375 1738.25,321.0781 Q1737.6094,321.2344 1736.9063,321.2344 Q1734.4063,321.2344 1733.0781,319.5938 Q1731.7656,317.9375 1731.7656,314.8125 Q1731.7656,311.6875 1733.0781,310.0313 Q1734.4063,308.375 1736.9063,308.375 Q1737.6094,308.375 1738.25,308.5313 Q1738.9063,308.6875 1739.4688,308.9844 L1739.4688,311.7031 Q1738.8438,311.125 1738.25,310.8594 Q1737.6563,310.5781 1737.0313,310.5781 Q1735.6875,310.5781 1735,311.6563 Q1734.3125,312.7188 1734.3125,314.8125 Q1734.3125,316.9063 1735,317.9844 Q1735.6875,319.0469 1737.0313,319.0469 Q1737.6563,319.0469 1738.25,318.7813 Q1738.8438,318.5 1739.4688,317.9219 L1739.4688,320.6406 Z " fill="#000000"/><text fill="#000000" font-family="sans-serif" font-size="14" lengthAdjust="spacing" textLength="166.5986" x="1750.5" y="319.8467">GameAbortedException</text></g><!--class MatchAbortedException--><g class="entity" data-entity="MatchAbortedException" data-source-line="125" data-uid="ent0031" id="entity_MatchAbortedException"><rect fill="#F1F1F1" height="32" rx="2.5" ry="2.5" style="stroke:#181818;stroke-width:0.5;" width="199.6377" x="1486" y="299"/><ellipse cx="1501" cy="315" fill="#ADD1B2" rx="11" ry="11" style="stroke:#181818;stroke-width:1;"/><path d="M1503.9688,320.6406 Q1503.3906,320.9375 1502.75,321.0781 Q1502.1094,321.2344 1501.4063,321.2344 Q1498.9063,321.2344 1497.5781,319.5938 Q1496.2656,317.9375 1496.2656,314.8125 Q1496.2656,311.6875 1497.5781,310.0313 Q1498.9063,308.375 1501.4063,308.375 Q1502.1094,308.375 1502.75,308.5313 Q1503.4063,308.6875 1503.9688,308.9844 L1503.9688,311.7031 Q1503.3438,311.125 1502.75,310.8594 Q1502.1563,310.5781 1501.5313,310.5781 Q1500.1875,310.5781 1499.5,311.6563 Q1498.8125,312.7188 1498.8125,314.8125 Q1498.8125,316.9063 1499.5,317.9844 Q1500.1875,319.0469 1501.5313,319.0469 Q1502.1563,319.0469 1502.75,318.7813 Q1503.3438,318.5 1503.9688,317.9219 L1503.9688,320.6406 Z " fill="#000000"/><text fill="#000000" font-family="sans-serif" font-size="14" lengthAdjust="spacing" textLength="167.6377" x="1515" y="319.8467">MatchAbortedException</text></g><!--class HomeScreen--><g class="entity" data-entity="HomeScreen" data-source-line="129" data-uid="ent0032" id="entity_HomeScreen"><rect fill="#F1F1F1" height="32" rx="2.5" ry="2.5" style="stroke:#181818;stroke-width:0.5;" width="121.7832" x="1308" y="299"/><ellipse cx="1323" cy="315" fill="#ADD1B2" rx="11" ry="11" style="stroke:#181818;stroke-width:1;"/><path d="M1325.9688,320.6406 Q1325.3906,320.9375 1324.75,321.0781 Q1324.1094,321.2344 1323.4063,321.2344 Q1320.9063,321.2344 1319.5781,319.5938 Q1318.2656,317.9375 1318.2656,314.8125 Q1318.2656,311.6875 1319.5781,310.0313 Q1320.9063,308.375 1323.4063,308.375 Q1324.1094,308.375 1324.75,308.5313 Q1325.4063,308.6875 1325.9688,308.9844 L1325.9688,311.7031 Q1325.3438,311.125 1324.75,310.8594 Q1324.1563,310.5781 1323.5313,310.5781 Q1322.1875,310.5781 1321.5,311.6563 Q1320.8125,312.7188 1320.8125,314.8125 Q1320.8125,316.9063 1321.5,317.9844 Q1322.1875,319.0469 1323.5313,319.0469 Q1324.1563,319.0469 1324.75,318.7813 Q1325.3438,318.5 1325.9688,317.9219 L1325.9688,320.6406 Z " fill="#000000"/><text fill="#000000" font-family="sans-serif" font-size="14" lengthAdjust="spacing" textLength="89.7832" x="1337" y="319.8467">HomeScreen</text></g><!--class MatchScreen--><g class="entity" data-entity="MatchScreen" data-source-line="135" data-uid="ent0034" id="entity_MatchScreen"><rect fill="#F1F1F1" height="32" rx="2.5" ry="2.5" style="stroke:#181818;stroke-width:0.5;" width="123.1572" x="1149.5" y="299"/><ellipse cx="1164.5" cy="315" fill="#ADD1B2" rx="11" ry="11" style="stroke:#181818;stroke-width:1;"/><path d="M1167.4688,320.6406 Q1166.8906,320.9375 1166.25,321.0781 Q1165.6094,321.2344 1164.9063,321.2344 Q1162.4063,321.2344 1161.0781,319.5938 Q1159.7656,317.9375 1159.7656,314.8125 Q1159.7656,311.6875 1161.0781,310.0313 Q1162.4063,308.375 1164.9063,308.375 Q1165.6094,308.375 1166.25,308.5313 Q1166.9063,308.6875 1167.4688,308.9844 L1167.4688,311.7031 Q1166.8438,311.125 1166.25,310.8594 Q1165.6563,310.5781 1165.0313,310.5781 Q1163.6875,310.5781 1163,311.6563 Q1162.3125,312.7188 1162.3125,314.8125 Q1162.3125,316.9063 1163,317.9844 Q1163.6875,319.0469 1165.0313,319.0469 Q1165.6563,319.0469 1166.25,318.7813 Q1166.8438,318.5 1167.4688,317.9219 L1167.4688,320.6406 Z " fill="#000000"/><text fill="#000000" font-family="sans-serif" font-size="14" lengthAdjust="spacing" textLength="91.1572" x="1178.5" y="319.8467">MatchScreen</text></g><!--class AbstractPlayer--><g class="entity" data-entity="AbstractPlayer" data-source-line="141" data-uid="ent0035" id="entity_AbstractPlayer"><rect fill="#F1F1F1" height="32" rx="2.5" ry="2.5" style="stroke:#181818;stroke-width:0.5;" width="134.334" x="346" y="474"/><ellipse cx="361" cy="490" fill="#A9DCDF" rx="11" ry="11" style="stroke:#181818;stroke-width:1;"/><path d="M361.1094,485.3438 L359.9531,490.4219 L362.2813,490.4219 L361.1094,485.3438 Z M359.625,483.1094 L362.6094,483.1094 L365.9688,495.5 L363.5156,495.5 L362.75,492.4375 L359.4688,492.4375 L358.7188,495.5 L356.2813,495.5 L359.625,483.1094 Z " fill="#000000"/><text fill="#000000" font-family="sans-serif" font-size="14" font-style="italic" lengthAdjust="spacing" textLength="102.334" x="375" y="494.8467">AbstractPlayer</text></g><!--class BotPlayer--><g class="entity" data-entity="BotPlayer" data-source-line="146" data-uid="ent0037" id="entity_BotPlayer"><rect fill="#F1F1F1" height="32" rx="2.5" ry="2.5" style="stroke:#181818;stroke-width:0.5;" width="99.2246" x="380.5" y="299"/><ellipse cx="395.5" cy="315" fill="#ADD1B2" rx="11" ry="11" style="stroke:#181818;stroke-width:1;"/><path d="M398.4688,320.6406 Q397.8906,320.9375 397.25,321.0781 Q396.6094,321.2344 395.9063,321.2344 Q393.4063,321.2344 392.0781,319.5938 Q390.7656,317.9375 390.7656,314.8125 Q390.7656,311.6875 392.0781,310.0313 Q393.4063,308.375 395.9063,308.375 Q396.6094,308.375 397.25,308.5313 Q397.9063,308.6875 398.4688,308.9844 L398.4688,311.7031 Q397.8438,311.125 397.25,310.8594 Q396.6563,310.5781 396.0313,310.5781 Q394.6875,310.5781 394,311.6563 Q393.3125,312.7188 393.3125,314.8125 Q393.3125,316.9063 394,317.9844 Q394.6875,319.0469 396.0313,319.0469 Q396.6563,319.0469 397.25,318.7813 Q397.8438,318.5 398.4688,317.9219 L398.4688,320.6406 Z " fill="#000000"/><text fill="#000000" font-family="sans-serif" font-size="14" lengthAdjust="spacing" textLength="67.2246" x="409.5" y="319.8467">BotPlayer</text></g><!--class HumanPlayer--><g class="entity" data-entity="HumanPlayer" data-source-line="151" data-uid="ent0038" id="entity_HumanPlayer"><rect fill="#F1F1F1" height="32" rx="2.5" ry="2.5" style="stroke:#181818;stroke-width:0.5;" width="126.0557" x="219" y="299"/><ellipse cx="234" cy="315" fill="#ADD1B2" rx="11" ry="11" style="stroke:#181818;stroke-width:1;"/><path d="M236.9688,320.6406 Q236.3906,320.9375 235.75,321.0781 Q235.1094,321.2344 234.4063,321.2344 Q231.9063,321.2344 230.5781,319.5938 Q229.2656,317.9375 229.2656,314.8125 Q229.2656,311.6875 230.5781,310.0313 Q231.9063,308.375 234.4063,308.375 Q235.1094,308.375 235.75,308.5313 Q236.4063,308.6875 236.9688,308.9844 L236.9688,311.7031 Q236.3438,311.125 235.75,310.8594 Q235.1563,310.5781 234.5313,310.5781 Q233.1875,310.5781 232.5,311.6563 Q231.8125,312.7188 231.8125,314.8125 Q231.8125,316.9063 232.5,317.9844 Q233.1875,319.0469 234.5313,319.0469 Q235.1563,319.0469 235.75,318.7813 Q236.3438,318.5 236.9688,317.9219 L236.9688,320.6406 Z " fill="#000000"/><text fill="#000000" font-family="sans-serif" font-size="14" lengthAdjust="spacing" textLength="94.0557" x="248" y="319.8467">HumanPlayer</text></g><!--reverse link Piece to PieceType--><g class="link" data-entity-1="Piece" data-entity-2="PieceType" data-source-line="158" data-uid="lnk39" id="link_Piece_PieceType"><path codeLine="158" d="M634.7663,513.9751 C659.0263,534.7951 693.31,564.22 717.49,584.97" fill="none" id="Piece-backto-PieceType" style="stroke:#181818;stroke-width:1;"/><polygon fill="#181818" points="625.66,506.16,627.6081,513.103,634.7663,513.9751,632.8182,507.0321,625.66,506.16" style="stroke:#181818;stroke-width:1;"/><text fill="#000000" font-family="sans-serif" font-size="13" lengthAdjust="spacing" textLength="29.0405" x="680" y="551.0669">type</text></g><!--reverse link Piece to PlayerColor--><g class="link" data-entity-1="Piece" data-entity-2="PlayerColor" data-source-line="159" data-uid="lnk40" id="link_Piece_PlayerColor"><path codeLine="159" d="M604.0351,518.0325 C600.9751,538.8525 597.25,564.22 594.21,584.97" fill="none" id="Piece-backto-PlayerColor" style="stroke:#181818;stroke-width:1;"/><polygon fill="#181818" points="605.78,506.16,600.95,511.5146,604.0351,518.0325,608.865,512.6779,605.78,506.16" style="stroke:#181818;stroke-width:1;"/><text fill="#000000" font-family="sans-serif" font-size="13" lengthAdjust="spacing" textLength="32.0112" x="601" y="551.0669">color</text></g><!--reverse link BoardRenderer to FieldRenderer--><g class="link" data-entity-1="BoardRenderer" data-entity-2="FieldRenderer" data-source-line="160" data-uid="lnk41" id="link_BoardRenderer_FieldRenderer"><path codeLine="160" d="M2386,629.16 C2386,649.98 2386,675.22 2386,695.97" fill="none" id="BoardRenderer-backto-FieldRenderer" style="stroke:#181818;stroke-width:1;"/><polygon fill="#181818" points="2386,617.16,2382,623.16,2386,629.16,2390,623.16,2386,617.16" style="stroke:#181818;stroke-width:1;"/><text fill="#000000" font-family="sans-serif" font-size="13" lengthAdjust="spacing" textLength="43.1768" x="2387" y="662.0669">render</text></g><!--reverse link ChessBoardRenderer to BoardRenderer--><g class="link" data-entity-1="ChessBoardRenderer" data-entity-2="BoardRenderer" data-source-line="161" data-uid="lnk42" id="link_ChessBoardRenderer_BoardRenderer"><path codeLine="161" d="M2392.762,518.1193 C2391.042,538.9393 2388.95,564.22 2387.24,584.97" fill="none" id="ChessBoardRenderer-backto-BoardRenderer" style="stroke:#181818;stroke-width:1;"/><polygon fill="#181818" points="2393.75,506.16,2389.2696,511.8103,2392.762,518.1193,2397.2424,512.469,2393.75,506.16" style="stroke:#181818;stroke-width:1;"/><text fill="#000000" font-family="sans-serif" font-size="13" lengthAdjust="spacing" textLength="97.9761" x="2392" y="551.0669">boardRenderer</text></g><!--link MaterialEval to EvalStrategy--><g class="link" data-entity-1="MaterialEval" data-entity-2="EvalStrategy" data-source-line="162" data-uid="lnk43" id="link_MaterialEval_EvalStrategy"><path codeLine="162" d="M2772.3,331.05 C2757.74,363.77 2730.6598,424.6155 2716.0598,457.4155" fill="none" id="MaterialEval-to-EvalStrategy" style="stroke:#181818;stroke-width:1;stroke-dasharray:7,7;"/><polygon fill="none" points="2708.74,473.86,2721.5413,459.8555,2710.5783,454.9756,2708.74,473.86" style="stroke:#181818;stroke-width:1;"/></g><!--link RandomEval to EvalStrategy--><g class="link" data-entity-1="RandomEval" data-entity-2="EvalStrategy" data-source-line="163" data-uid="lnk44" id="link_RandomEval_EvalStrategy"><path codeLine="163" d="M2631.7,331.05 C2646.26,363.77 2673.3402,424.6155 2687.9402,457.4155" fill="none" id="RandomEval-to-EvalStrategy" style="stroke:#181818;stroke-width:1;stroke-dasharray:7,7;"/><polygon fill="none" points="2695.26,473.86,2693.4217,454.9756,2682.4587,459.8555,2695.26,473.86" style="stroke:#181818;stroke-width:1;"/></g><!--reverse link MatchConfig to AbstractPlayer--><g class="link" data-entity-1="MatchConfig" data-entity-2="AbstractPlayer" data-source-line="164" data-uid="lnk45" id="link_MatchConfig_AbstractPlayer"><path codeLine="164" d="M830.9219,317.4954 C752.5519,320.9954 625.05,334.48 520,388 C478.57,409.1 441.97,451.25 424.27,473.85" fill="none" id="MatchConfig-backto-AbstractPlayer" style="stroke:#181818;stroke-width:1;"/><polygon fill="#181818" points="842.91,316.96,836.7375,313.2317,830.9219,317.4954,837.0944,321.2237,842.91,316.96" style="stroke:#181818;stroke-width:1;"/><text fill="#000000" font-family="sans-serif" font-size="13" lengthAdjust="spacing" textLength="34.5059" x="579" y="376.0669">black</text></g><!--reverse link MatchConfig to AbstractPlayer--><g class="link" data-entity-1="MatchConfig" data-entity-2="AbstractPlayer" data-source-line="165" data-uid="lnk46" id="link_MatchConfig_AbstractPlayer"><path codeLine="165" d="M836.4034,334.0774 C780.0734,348.8674 701.39,367.91 622,380 C599.52,383.42 540.78,378.78 520,388 C477.27,406.95 440.95,450.42 423.72,473.67" fill="none" id="MatchConfig-backto-AbstractPlayer-1" style="stroke:#181818;stroke-width:1;"/><polygon fill="#181818" points="848.01,331.03,841.1909,328.6848,836.4034,334.0774,843.2225,336.4226,848.01,331.03" style="stroke:#181818;stroke-width:1;"/><text fill="#000000" font-family="sans-serif" font-size="13" lengthAdjust="spacing" textLength="35.5786" x="708" y="376.0669">white</text></g><!--reverse link HomeScreen to InputReader--><g class="link" data-entity-1="HomeScreen" data-entity-2="InputReader" data-source-line="166" data-uid="lnk47" id="link_HomeScreen_InputReader"><path codeLine="166" d="M1369.3094,343.0492 C1369.6894,375.7692 1370.45,441.06 1370.82,473.86" fill="none" id="HomeScreen-backto-InputReader" style="stroke:#181818;stroke-width:1;"/><polygon fill="#181818" points="1369.17,331.05,1365.2399,337.096,1369.3094,343.0492,1373.2394,337.0031,1369.17,331.05" style="stroke:#181818;stroke-width:1;"/><text fill="#000000" font-family="sans-serif" font-size="13" lengthAdjust="spacing" textLength="42.9038" x="1370" y="376.0669">reader</text></g><!--link HomeScreen to OutputWriter--><g class="link" data-entity-1="HomeScreen" data-entity-2="OutputWriter" data-source-line="167" data-uid="lnk48" id="link_HomeScreen_OutputWriter"><path codeLine="167" d="M1352.29,331.2 C1336.92,345.42 1313.74,367.49 1295,388 C1268.33,417.17 1243.4496,448.89 1228.0596,469.06" fill="none" id="HomeScreen-to-OutputWriter" style="stroke:#181818;stroke-width:1;"/><polygon fill="#181818" points="1224.42,473.83,1233.0594,469.1013,1227.453,469.855,1226.6994,464.2485,1224.42,473.83" style="stroke:#181818;stroke-width:1;"/><text fill="#000000" font-family="sans-serif" font-size="13" lengthAdjust="spacing" textLength="38.0288" x="1319" y="376.0669">writer</text></g><!--link MatchScreen to ChessBoard--><g class="link" data-entity-1="MatchScreen" data-entity-2="ChessBoard" data-source-line="168" data-uid="lnk49" id="link_MatchScreen_ChessBoard"><path codeLine="168" d="M1234.82,331.03 C1250.21,339.85 1271.02,350.19 1291,355 C1337.14,366.1 1670.63,360.12 1718,363 C1826.37,369.58 1863.31,340.63 1961,388 C2001.23,407.51 2030.6833,445.7534 2046.1133,468.8134" fill="none" id="MatchScreen-to-ChessBoard" style="stroke:#181818;stroke-width:1;"/><polygon fill="#181818" points="2049.45,473.8,2047.7694,464.0956,2046.6694,469.6445,2041.1206,468.5445,2049.45,473.8" style="stroke:#181818;stroke-width:1;"/><text fill="#000000" font-family="sans-serif" font-size="13" lengthAdjust="spacing" textLength="74.6992" x="1939" y="376.0669">chessboard</text></g><!--link MatchScreen to ChessBoardRenderer--><g class="link" data-entity-1="MatchScreen" data-entity-2="ChessBoardRenderer" data-source-line="169" data-uid="lnk50" id="link_MatchScreen_ChessBoardRenderer"><path codeLine="169" d="M1234.81,331.08 C1250.19,339.93 1271,350.27 1291,355 C1330.52,364.35 1981.44,360.88 2022,363 C2140.58,369.21 2179.83,339.03 2288,388 C2330.59,407.28 2363.3686,445.8035 2380.6586,468.9435" fill="none" id="MatchScreen-to-ChessBoardRenderer" style="stroke:#181818;stroke-width:1;"/><polygon fill="#181818" points="2384.25,473.75,2382.0673,464.1461,2381.2572,469.7446,2375.6587,468.9345,2384.25,473.75" style="stroke:#181818;stroke-width:1;"/><text fill="#000000" font-family="sans-serif" font-size="13" lengthAdjust="spacing" textLength="135.5732" x="2264" y="376.0669">chessBoardRenderer</text></g><!--link MatchScreen to OutputWriter--><g class="link" data-entity-1="MatchScreen" data-entity-2="OutputWriter" data-source-line="170" data-uid="lnk51" id="link_MatchScreen_OutputWriter"><path codeLine="170" d="M1209.78,331.23 C1209.11,340.42 1208.34,352.38 1208,363 C1206.72,403.04 1209.3571,444.2387 1211.2271,467.8887" fill="none" id="MatchScreen-to-OutputWriter" style="stroke:#181818;stroke-width:1;"/><polygon fill="#181818" points="1211.7,473.87,1214.9781,464.5827,1211.3059,468.8856,1207.003,465.2133,1211.7,473.87" style="stroke:#181818;stroke-width:1;"/><text fill="#000000" font-family="sans-serif" font-size="13" lengthAdjust="spacing" textLength="38.0288" x="1209" y="376.0669">writer</text></g><!--link MatchScreen to AbstractPlayer--><g class="link" data-entity-1="MatchScreen" data-entity-2="AbstractPlayer" data-source-line="171" data-uid="lnk52" id="link_MatchScreen_AbstractPlayer"><path codeLine="171" d="M1190.31,331.02 C1178,339.28 1161.75,349.03 1146,355 C1127.82,361.89 1120.06,353.68 1103,363 C1093.89,367.97 1096.5,375.82 1087,380 C1058.17,392.7 549.19,376.16 520,388 C476.44,405.67 443.7164,445.234 426.7864,468.844" fill="none" id="MatchScreen-to-AbstractPlayer" style="stroke:#181818;stroke-width:1;"/><polygon fill="#181818" points="423.29,473.72,431.7853,468.737,426.2037,469.6567,425.284,464.0751,423.29,473.72" style="stroke:#181818;stroke-width:1;"/><text fill="#000000" font-family="sans-serif" font-size="13" lengthAdjust="spacing" textLength="34.5059" x="1104" y="376.0669">black</text></g><!--link MatchScreen to AbstractPlayer--><g class="link" data-entity-1="MatchScreen" data-entity-2="AbstractPlayer" data-source-line="172" data-uid="lnk53" id="link_MatchScreen_AbstractPlayer"><path codeLine="172" d="M1191.75,331.12 C1179.42,339.86 1162.66,350.08 1146,355 C1120.84,362.43 936.17,361.15 910,363 C839.55,367.98 822.45,375 752,380 C726.27,381.83 543.8,378.06 520,388 C476.63,406.11 443.8493,445.5005 426.8593,468.9605" fill="none" id="MatchScreen-to-AbstractPlayer-1" style="stroke:#181818;stroke-width:1;"/><polygon fill="#181818" points="423.34,473.82,431.8586,468.877,426.2727,469.7704,425.3793,464.1846,423.34,473.82" style="stroke:#181818;stroke-width:1;"/><text fill="#000000" font-family="sans-serif" font-size="13" lengthAdjust="spacing" textLength="87.8643" x="911" y="376.0669">currentPlayer</text></g><!--link MatchScreen to AbstractPlayer--><g class="link" data-entity-1="MatchScreen" data-entity-2="AbstractPlayer" data-source-line="173" data-uid="lnk54" id="link_MatchScreen_AbstractPlayer"><path codeLine="173" d="M1191.39,331.07 C1179.06,339.67 1162.43,349.76 1146,355 C1101.83,369.08 1086.99,351.8 1042,363 C1023.65,367.57 1021.48,375.99 1003,380 C976.77,385.69 544.86,377.88 520,388 C476.47,405.72 443.7397,445.2664 426.7997,468.8564" fill="none" id="MatchScreen-to-AbstractPlayer-2" style="stroke:#181818;stroke-width:1;"/><polygon fill="#181818" points="423.3,473.73,431.7987,468.7528,426.2164,469.6687,425.3005,464.0865,423.3,473.73" style="stroke:#181818;stroke-width:1;"/><text fill="#000000" font-family="sans-serif" font-size="13" lengthAdjust="spacing" textLength="35.5786" x="1043" y="376.0669">white</text></g><!--reverse link AbstractPlayer to PlayerColor--><g class="link" data-entity-1="AbstractPlayer" data-entity-2="PlayerColor" data-source-line="174" data-uid="lnk55" id="link_AbstractPlayer_PlayerColor"><path codeLine="174" d="M446.9009,512.6573 C467.4809,525.7673 488,538.65 515,555 C531.82,565.19 550.9,576.34 565.86,585" fill="none" id="AbstractPlayer-backto-PlayerColor" style="stroke:#181818;stroke-width:1;"/><polygon fill="#181818" points="436.78,506.21,439.6914,512.8073,446.9009,512.6573,443.9895,506.06,436.78,506.21" style="stroke:#181818;stroke-width:1;"/><text fill="#000000" font-family="sans-serif" font-size="13" lengthAdjust="spacing" textLength="74.8071" x="516" y="551.0669">playerColor</text></g><!--link BotPlayer to AbstractPlayer--><g class="link" data-entity-1="BotPlayer" data-entity-2="AbstractPlayer" data-source-line="175" data-uid="lnk56" id="link_BotPlayer_AbstractPlayer"><path codeLine="175" d="M428.52,331.05 C425.31,363.77 419.4686,423.1461 416.2486,455.9461" fill="none" id="BotPlayer-to-AbstractPlayer" style="stroke:#181818;stroke-width:1;"/><polygon fill="none" points="414.49,473.86,422.2199,456.5323,410.2773,455.3599,414.49,473.86" style="stroke:#181818;stroke-width:1;"/></g><!--link HumanPlayer to AbstractPlayer--><g class="link" data-entity-1="HumanPlayer" data-entity-2="AbstractPlayer" data-source-line="176" data-uid="lnk57" id="link_HumanPlayer_AbstractPlayer"><path codeLine="176" d="M293.4,331.05 C318.17,363.77 365.8329,426.7106 390.6729,459.5106" fill="none" id="HumanPlayer-to-AbstractPlayer" style="stroke:#181818;stroke-width:1;"/><polygon fill="none" points="401.54,473.86,395.4561,455.8882,385.8898,463.1329,401.54,473.86" style="stroke:#181818;stroke-width:1;"/></g><!--SRC=[pLXDS-8s63xNlqB7tQRMJFQOpkmCIKbWaW05CZdqq95jWPMr9Ih9x6QooM-l9Dk930PBX6PwOMnPx_Vxl7f4d24XG9p2L6G5Z960kS09Z38MBOX8uIqY53m5lppbMAOiUGRWIKWaIVmCNdBzxTDdS0RMZ2J1Sn04SOUw20aCBp6zaoJReVPaYQNQCM62ICBeUSRYRm9y0Yl4KJwJdD3bgJ9PFW5j_Q-R1xH6C4Dq2Slbtzirhr564YInKb-9xrFh5zI4u1WtGZg9MSPucQ0kuGmzOdwXzziAy3y5obvZ7qSFE9RQoVB9E1anbc54RQa5hgfoaIgnMEA6pXI9z88bkDn2gBG_vYevdA1imjG7qRf5iZfrdr_JrVZ-kC9kCUk4pTLkasDCYznPmgHvGN2c3PuFPuFnn5gu7ewkxDVHy6emjnOclVkHzVhdNRzllq_7usjtbzuArtJgfdTnRRtV3uRplbipCSGJU95Y8SxrewtsjPF3sRmtdK_6i-5yE1xzVTaVsRMeTeT6bIu4o-6IoBI8O9Hgb31A7ZYCjOsCHD3OiMkOi5ksnjtWi4HAqEvg2YAkK8x7Qrp1eUvQzuGKf7HpYcc2EUODfBrmirexV4VCrjFzFLYhhNQ3tqfXgw9Vl80BhD2zudghTIEukehAAw6Md6BHaxKCPsAax1eqSxHLr6E7hyO6vWkaPgABtphMrjA29nG9gSVOLWXtn8WvbzditdIp2-Ir-4oDOewtWVv7RshZ_CRC6jVuiJgGO5_zA8VKv5q-xWvTuKjlB90-4_SYCs55b66d5ZJsRwkPhzKtpozlcs-oPTUQYR17p1pRXQ82y8O8-vG9ESxL1EhdA_beoYOkESjhIh1NfmS2JVXJH1EM7o5u5ujBDGLBlEjvs82vAa9EgFBY332-X0yPeHZMYt1UFTWv4YahD6hKeS1bxU6GhWevnKZXP3ymZ2lMxde0Z0kfrkuvKRQ_T6kmj-yY99M3BST6-5qBzccYqt6hqeAMhyUEhVdq04USwTjM9kooy7B9Bagvf5gMubAWEMLHehySgqUDSmgYiI9jT46MpIQDCXH_ws9RApEaOQyQ9kNCVZ_Dt4iakrZYzrJLwJ37dRFMw0YhfY_UK3jPP8L8MpluPAL2arvKoKZqQ79PAlMLpEWXCkxsdFEBVyHufQUZW1g-lOXnYPD-lQfIVeWgq-llqILYZZ650vRZcNdSckisd3fQS1D-zknIccp-utlFymt8UD4IKMWgl7asMfPE_NdSPXDjJd3jUqrEG5SGhJ3UotH6-8UqRo1l3Dc5x5bt9yzXMtbwpjgS_1yuDYXoH3_ODUMSonyVluOXSB-_dm7zDy4HDLlzg- -x6b_UDyekG-sNbJDGtag2msvwhaQRKlf0jju37ueFuS-lmETI4hWpw6Fgtc8-7Qbg7pCgKveZVO0TGsa2xyEfmzeMETNzXlRtsmvBOVWLU74c5PDv2FmFg0vRMqD7JoZrOjR_AtFj0AmidplYwK0FFZAvxmB2ySp51LUJiMRj7sQs2uRjSlw7pCgYSXwC8Wn_-eSLU363mqm4AL5tEND54kLpoIv4y2y0]--></g></svg>