<svg xmlns="http://www.w3.org/2000/svg" xmlns:xlink="http://www.w3.org/1999/xlink" contentStyleType="text/css" data-diagram-type="CLASS" height="1137px" preserveAspectRatio="none" style="width:4697px;height:1137px;background:#FFFFFF;" version="1.1" viewBox="0 0 4697 1137" width="4697px" zoomAndPan="magnify"><defs/><g><!--cluster ch--><g class="cluster" data-entity="ch" data-source-line="2" data-uid="ent0003" id="cluster_ch"><path d="M8.5,6 L27.7656,6 A3.75,3.75 0 0 1 30.2656,8.5 L37.2656,28.2969 L4687.5,28.2969 A2.5,2.5 0 0 1 4690,30.7969 L4690,1127.5 A2.5,2.5 0 0 1 4687.5,1130 L8.5,1130 A2.5,2.5 0 0 1 6,1127.5 L6,8.5 A2.5,2.5 0 0 1 8.5,6" fill="none" style="stroke:#000000;stroke-width:1.5;"/><line style="stroke:#000000;stroke-width:1.5;" x1="6" x2="37.2656" y1="28.2969" y2="28.2969"/><text fill="#000000" font-family="sans-serif" font-size="14" font-weight="bold" lengthAdjust="spacing" textLength="18.2656" x="10" y="20.9951">ch</text></g><!--cluster hslu--><g class="cluster" data-entity="hslu" data-source-line="2" data-uid="ent0004" id="cluster_hslu"><path d="M32.5,49 L66.5654,49 A3.75,3.75 0 0 1 69.0654,51.5 L76.0654,71.2969 L4663.5,71.2969 A2.5,2.5 0 0 1 4666,73.7969 L4666,1103.5 A2.5,2.5 0 0 1 4663.5,1106 L32.5,1106 A2.5,2.5 0 0 1 30,1103.5 L30,51.5 A2.5,2.5 0 0 1 32.5,49" fill="none" style="stroke:#000000;stroke-width:1.5;"/><line style="stroke:#000000;stroke-width:1.5;" x1="30" x2="76.0654" y1="71.2969" y2="71.2969"/><text fill="#000000" font-family="sans-serif" font-size="14" font-weight="bold" lengthAdjust="spacing" textLength="33.0654" x="34" y="63.9951">hslu</text></g><!--cluster cas--><g class="cluster" data-entity="cas" data-source-line="2" data-uid="ent0005" id="cluster_cas"><path d="M56.5,92 L83.5791,92 A3.75,3.75 0 0 1 86.0791,94.5 L93.0791,114.2969 L4639.5,114.2969 A2.5,2.5 0 0 1 4642,116.7969 L4642,1079.5 A2.5,2.5 0 0 1 4639.5,1082 L56.5,1082 A2.5,2.5 0 0 1 54,1079.5 L54,94.5 A2.5,2.5 0 0 1 56.5,92" fill="none" style="stroke:#000000;stroke-width:1.5;"/><line style="stroke:#000000;stroke-width:1.5;" x1="54" x2="93.0791" y1="114.2969" y2="114.2969"/><text fill="#000000" font-family="sans-serif" font-size="14" font-weight="bold" lengthAdjust="spacing" textLength="26.0791" x="58" y="106.9951">cas</text></g><!--cluster msed--><g class="cluster" data-entity="msed" data-source-line="2" data-uid="ent0006" id="cluster_msed"><path d="M80.5,135 L123.9375,135 A3.75,3.75 0 0 1 126.4375,137.5 L133.4375,157.2969 L4615.5,157.2969 A2.5,2.5 0 0 1 4618,159.7969 L4618,1055.5 A2.5,2.5 0 0 1 4615.5,1058 L80.5,1058 A2.5,2.5 0 0 1 78,1055.5 L78,137.5 A2.5,2.5 0 0 1 80.5,135" fill="none" style="stroke:#000000;stroke-width:1.5;"/><line style="stroke:#000000;stroke-width:1.5;" x1="78" x2="133.4375" y1="157.2969" y2="157.2969"/><text fill="#000000" font-family="sans-serif" font-size="14" font-weight="bold" lengthAdjust="spacing" textLength="42.4375" x="82" y="149.9951">msed</text></g><!--cluster blobfish--><g class="cluster" data-entity="blobfish" data-source-line="2" data-uid="ent0007" id="cluster_blobfish"><path d="M104.5,178 L169.1494,178 A3.75,3.75 0 0 1 171.6494,180.5 L178.6494,200.2969 L4591.5,200.2969 A2.5,2.5 0 0 1 4594,202.7969 L4594,1031.5 A2.5,2.5 0 0 1 4591.5,1034 L104.5,1034 A2.5,2.5 0 0 1 102,1031.5 L102,180.5 A2.5,2.5 0 0 1 104.5,178" fill="none" style="stroke:#000000;stroke-width:1.5;"/><line style="stroke:#000000;stroke-width:1.5;" x1="102" x2="178.6494" y1="200.2969" y2="200.2969"/><text fill="#000000" font-family="sans-serif" font-size="14" font-weight="bold" lengthAdjust="spacing" textLength="63.6494" x="106" y="192.9951">blobfish</text></g><!--cluster base--><g class="cluster" data-entity="base" data-source-line="7" data-uid="ent0009" id="cluster_base"><path d="M3493.5,681 L3531.7969,681 A3.75,3.75 0 0 1 3534.2969,683.5 L3541.2969,703.2969 L3771.5,703.2969 A2.5,2.5 0 0 1 3774,705.7969 L3774,872.5 A2.5,2.5 0 0 1 3771.5,875 L3493.5,875 A2.5,2.5 0 0 1 3491,872.5 L3491,683.5 A2.5,2.5 0 0 1 3493.5,681" fill="none" style="stroke:#000000;stroke-width:1.5;"/><line style="stroke:#000000;stroke-width:1.5;" x1="3491" x2="3541.2969" y1="703.2969" y2="703.2969"/><text fill="#000000" font-family="sans-serif" font-size="14" font-weight="bold" lengthAdjust="spacing" textLength="37.2969" x="3495" y="695.9951">base</text></g><!--cluster board--><g class="cluster" data-entity="board" data-source-line="40" data-uid="ent0014" id="cluster_board"><path d="M3921.5,638 L3968.5127,638 A3.75,3.75 0 0 1 3971.0127,640.5 L3978.0127,660.2969 L4567.5,660.2969 A2.5,2.5 0 0 1 4570,662.7969 L4570,1007.5 A2.5,2.5 0 0 1 4567.5,1010 L3921.5,1010 A2.5,2.5 0 0 1 3919,1007.5 L3919,640.5 A2.5,2.5 0 0 1 3921.5,638" fill="none" style="stroke:#000000;stroke-width:1.5;"/><line style="stroke:#000000;stroke-width:1.5;" x1="3919" x2="3978.0127" y1="660.2969" y2="660.2969"/><text fill="#000000" font-family="sans-serif" font-size="14" font-weight="bold" lengthAdjust="spacing" textLength="46.0127" x="3923" y="652.9951">board</text></g><!--cluster ui--><g class="cluster" data-entity="ui" data-source-line="53" data-uid="ent0016" id="cluster_ui"><path d="M3945.5,681 L3961.2656,681 A3.75,3.75 0 0 1 3963.7656,683.5 L3970.7656,703.2969 L4419.5,703.2969 A2.5,2.5 0 0 1 4422,705.7969 L4422,983.5 A2.5,2.5 0 0 1 4419.5,986 L3945.5,986 A2.5,2.5 0 0 1 3943,983.5 L3943,683.5 A2.5,2.5 0 0 1 3945.5,681" fill="none" style="stroke:#000000;stroke-width:1.5;"/><line style="stroke:#000000;stroke-width:1.5;" x1="3943" x2="3970.7656" y1="703.2969" y2="703.2969"/><text fill="#000000" font-family="sans-serif" font-size="14" font-weight="bold" lengthAdjust="spacing" textLength="14.7656" x="3947" y="695.9951">ui</text></g><!--cluster eval--><g class="cluster" data-entity="eval" data-source-line="95" data-uid="ent0023" id="cluster_eval"><path d="M258.5,482 L292.3672,482 A3.75,3.75 0 0 1 294.8672,484.5 L301.8672,504.2969 L733.5,504.2969 A2.5,2.5 0 0 1 736,506.7969 L736,761.5 A2.5,2.5 0 0 1 733.5,764 L258.5,764 A2.5,2.5 0 0 1 256,761.5 L256,484.5 A2.5,2.5 0 0 1 258.5,482" fill="none" style="stroke:#000000;stroke-width:1.5;"/><line style="stroke:#000000;stroke-width:1.5;" x1="256" x2="301.8672" y1="504.2969" y2="504.2969"/><text fill="#000000" font-family="sans-serif" font-size="14" font-weight="bold" lengthAdjust="spacing" textLength="32.8672" x="260" y="496.9951">eval</text></g><!--cluster game--><g class="cluster" data-entity="game" data-source-line="118" data-uid="ent0028" id="cluster_game"><path d="M762.5,439 L807.0518,439 A3.75,3.75 0 0 1 809.5518,441.5 L816.5518,461.2969 L1894.5,461.2969 A2.5,2.5 0 0 1 1897,463.7969 L1897,761.5 A2.5,2.5 0 0 1 1894.5,764 L762.5,764 A2.5,2.5 0 0 1 760,761.5 L760,441.5 A2.5,2.5 0 0 1 762.5,439" fill="none" style="stroke:#000000;stroke-width:1.5;"/><line style="stroke:#000000;stroke-width:1.5;" x1="760" x2="816.5518" y1="461.2969" y2="461.2969"/><text fill="#000000" font-family="sans-serif" font-size="14" font-weight="bold" lengthAdjust="spacing" textLength="43.5518" x="764" y="453.9951">game</text></g><!--cluster exceptions--><g class="cluster" data-entity="exceptions" data-source-line="151" data-uid="ent0033" id="cluster_exceptions"><path d="M1408.5,482 L1495.25,482 A3.75,3.75 0 0 1 1497.75,484.5 L1504.75,504.2969 L1870.5,504.2969 A2.5,2.5 0 0 1 1873,506.7969 L1873,562.5 A2.5,2.5 0 0 1 1870.5,565 L1408.5,565 A2.5,2.5 0 0 1 1406,562.5 L1406,484.5 A2.5,2.5 0 0 1 1408.5,482" fill="none" style="stroke:#000000;stroke-width:1.5;"/><line style="stroke:#000000;stroke-width:1.5;" x1="1406" x2="1504.75" y1="504.2969" y2="504.2969"/><text fill="#000000" font-family="sans-serif" font-size="14" font-weight="bold" lengthAdjust="spacing" textLength="85.75" x="1410" y="496.9951">exceptions</text></g><!--cluster screen--><g class="cluster" data-entity="screen" data-source-line="159" data-uid="ent0036" id="cluster_screen"><path d="M786.5,482 L839.9932,482 A3.75,3.75 0 0 1 842.4932,484.5 L849.4932,504.2969 L1094.5,504.2969 A2.5,2.5 0 0 1 1097,506.7969 L1097,562.5 A2.5,2.5 0 0 1 1094.5,565 L786.5,565 A2.5,2.5 0 0 1 784,562.5 L784,484.5 A2.5,2.5 0 0 1 786.5,482" fill="none" style="stroke:#000000;stroke-width:1.5;"/><line style="stroke:#000000;stroke-width:1.5;" x1="784" x2="849.4932" y1="504.2969" y2="504.2969"/><text fill="#000000" font-family="sans-serif" font-size="14" font-weight="bold" lengthAdjust="spacing" textLength="52.4932" x="788" y="496.9951">screen</text></g><!--cluster player--><g class="cluster" data-entity="player" data-source-line="173" data-uid="ent0039" id="cluster_player"><path d="M1923.5,221 L1974.293,221 A3.75,3.75 0 0 1 1976.793,223.5 L1983.793,243.2969 L3464.5,243.2969 A2.5,2.5 0 0 1 3467,245.7969 L3467,761.5 A2.5,2.5 0 0 1 3464.5,764 L1923.5,764 A2.5,2.5 0 0 1 1921,761.5 L1921,223.5 A2.5,2.5 0 0 1 1923.5,221" fill="none" style="stroke:#000000;stroke-width:1.5;"/><line style="stroke:#000000;stroke-width:1.5;" x1="1921" x2="1983.793" y1="243.2969" y2="243.2969"/><text fill="#000000" font-family="sans-serif" font-size="14" font-weight="bold" lengthAdjust="spacing" textLength="49.793" x="1925" y="235.9951">player</text></g><!--cluster bot--><g class="cluster" data-entity="bot" data-source-line="187" data-uid="ent0043" id="cluster_bot"><path d="M2357.5,264 L2384.832,264 A3.75,3.75 0 0 1 2387.332,266.5 L2394.332,286.2969 L3440.5,286.2969 A2.5,2.5 0 0 1 3443,288.7969 L3443,586.5 A2.5,2.5 0 0 1 3440.5,589 L2357.5,589 A2.5,2.5 0 0 1 2355,586.5 L2355,266.5 A2.5,2.5 0 0 1 2357.5,264" fill="none" style="stroke:#000000;stroke-width:1.5;"/><line style="stroke:#000000;stroke-width:1.5;" x1="2355" x2="2394.332" y1="286.2969" y2="286.2969"/><text fill="#000000" font-family="sans-serif" font-size="14" font-weight="bold" lengthAdjust="spacing" textLength="26.332" x="2359" y="278.9951">bot</text></g><!--cluster minimax--><g class="cluster" data-entity="minimax" data-source-line="191" data-uid="ent0045" id="cluster_minimax"><path d="M2381.5,307 L2449.7178,307 A3.75,3.75 0 0 1 2452.2178,309.5 L2459.2178,329.2969 L3308.5,329.2969 A2.5,2.5 0 0 1 3311,331.7969 L3311,562.5 A2.5,2.5 0 0 1 3308.5,565 L2381.5,565 A2.5,2.5 0 0 1 2379,562.5 L2379,309.5 A2.5,2.5 0 0 1 2381.5,307" fill="none" style="stroke:#000000;stroke-width:1.5;"/><line style="stroke:#000000;stroke-width:1.5;" x1="2379" x2="2459.2178" y1="329.2969" y2="329.2969"/><text fill="#000000" font-family="sans-serif" font-size="14" font-weight="bold" lengthAdjust="spacing" textLength="67.2178" x="2383" y="321.9951">minimax</text></g><!--cluster exceptions--><g class="cluster" data-entity="exceptions" data-source-line="236" data-uid="ent0052" id="cluster_exceptions"><path d="M2117.5,307 L2204.25,307 A3.75,3.75 0 0 1 2206.75,309.5 L2213.75,329.2969 L2328.5,329.2969 A2.5,2.5 0 0 1 2331,331.7969 L2331,387.5 A2.5,2.5 0 0 1 2328.5,390 L2117.5,390 A2.5,2.5 0 0 1 2115,387.5 L2115,309.5 A2.5,2.5 0 0 1 2117.5,307" fill="none" style="stroke:#000000;stroke-width:1.5;"/><line style="stroke:#000000;stroke-width:1.5;" x1="2115" x2="2213.75" y1="329.2969" y2="329.2969"/><text fill="#000000" font-family="sans-serif" font-size="14" font-weight="bold" lengthAdjust="spacing" textLength="85.75" x="2119" y="321.9951">exceptions</text></g><!--class Main--><g class="entity" data-entity="Main" data-source-line="2" data-uid="ent0002" id="entity_Main"><rect fill="#F1F1F1" height="32" rx="2.5" ry="2.5" style="stroke:#181818;stroke-width:0.5;" width="65.4209" x="977.5" y="342"/><ellipse cx="992.5" cy="358" fill="#ADD1B2" rx="11" ry="11" style="stroke:#181818;stroke-width:1;"/><path d="M995.4688,363.6406 Q994.8906,363.9375 994.25,364.0781 Q993.6094,364.2344 992.9063,364.2344 Q990.4063,364.2344 989.0781,362.5938 Q987.7656,360.9375 987.7656,357.8125 Q987.7656,354.6875 989.0781,353.0313 Q990.4063,351.375 992.9063,351.375 Q993.6094,351.375 994.25,351.5313 Q994.9063,351.6875 995.4688,351.9844 L995.4688,354.7031 Q994.8438,354.125 994.25,353.8594 Q993.6563,353.5781 993.0313,353.5781 Q991.6875,353.5781 991,354.6563 Q990.3125,355.7188 990.3125,357.8125 Q990.3125,359.9063 991,360.9844 Q991.6875,362.0469 993.0313,362.0469 Q993.6563,362.0469 994.25,361.7813 Q994.8438,361.5 995.4688,360.9219 L995.4688,363.6406 Z " fill="#000000"/><text fill="#000000" font-family="sans-serif" font-size="14" lengthAdjust="spacing" textLength="33.4209" x="1006.5" y="362.8467">Main</text></g><!--class FenUtil--><g class="entity" data-entity="FenUtil" data-source-line="7" data-uid="ent0008" id="entity_FenUtil"><rect fill="#F1F1F1" height="32" rx="2.5" ry="2.5" style="stroke:#181818;stroke-width:0.5;" width="81.0547" x="3611.5" y="716"/><ellipse cx="3626.5" cy="732" fill="#ADD1B2" rx="11" ry="11" style="stroke:#181818;stroke-width:1;"/><path d="M3629.4688,737.6406 Q3628.8906,737.9375 3628.25,738.0781 Q3627.6094,738.2344 3626.9063,738.2344 Q3624.4063,738.2344 3623.0781,736.5938 Q3621.7656,734.9375 3621.7656,731.8125 Q3621.7656,728.6875 3623.0781,727.0313 Q3624.4063,725.375 3626.9063,725.375 Q3627.6094,725.375 3628.25,725.5313 Q3628.9063,725.6875 3629.4688,725.9844 L3629.4688,728.7031 Q3628.8438,728.125 3628.25,727.8594 Q3627.6563,727.5781 3627.0313,727.5781 Q3625.6875,727.5781 3625,728.6563 Q3624.3125,729.7188 3624.3125,731.8125 Q3624.3125,733.9063 3625,734.9844 Q3625.6875,736.0469 3627.0313,736.0469 Q3627.6563,736.0469 3628.25,735.7813 Q3628.8438,735.5 3629.4688,734.9219 L3629.4688,737.6406 Z " fill="#000000"/><text fill="#000000" font-family="sans-serif" font-size="14" lengthAdjust="spacing" textLength="49.0547" x="3640.5" y="736.8467">FenUtil</text></g><!--class Piece--><g class="entity" data-entity="Piece" data-source-line="13" data-uid="ent0010" id="entity_Piece"><rect fill="#F1F1F1" height="32" rx="2.5" ry="2.5" style="stroke:#181818;stroke-width:0.5;" width="69.2559" x="3507.5" y="716"/><ellipse cx="3522.5" cy="732" fill="#ADD1B2" rx="11" ry="11" style="stroke:#181818;stroke-width:1;"/><path d="M3525.4688,737.6406 Q3524.8906,737.9375 3524.25,738.0781 Q3523.6094,738.2344 3522.9063,738.2344 Q3520.4063,738.2344 3519.0781,736.5938 Q3517.7656,734.9375 3517.7656,731.8125 Q3517.7656,728.6875 3519.0781,727.0313 Q3520.4063,725.375 3522.9063,725.375 Q3523.6094,725.375 3524.25,725.5313 Q3524.9063,725.6875 3525.4688,725.9844 L3525.4688,728.7031 Q3524.8438,728.125 3524.25,727.8594 Q3523.6563,727.5781 3523.0313,727.5781 Q3521.6875,727.5781 3521,728.6563 Q3520.3125,729.7188 3520.3125,731.8125 Q3520.3125,733.9063 3521,734.9844 Q3521.6875,736.0469 3523.0313,736.0469 Q3523.6563,736.0469 3524.25,735.7813 Q3524.8438,735.5 3525.4688,734.9219 L3525.4688,737.6406 Z " fill="#000000"/><text fill="#000000" font-family="sans-serif" font-size="14" lengthAdjust="spacing" textLength="37.2559" x="3536.5" y="736.8467">Piece</text></g><!--class PieceType--><g class="entity" data-entity="PieceType" data-source-line="24" data-uid="ent0011" id="entity_PieceType"><rect fill="#F1F1F1" height="32" rx="2.5" ry="2.5" style="stroke:#181818;stroke-width:0.5;" width="103.5928" x="3507" y="827"/><ellipse cx="3522" cy="843" fill="#EB937F" rx="11" ry="11" style="stroke:#181818;stroke-width:1;"/><path d="M3526.1094,849 L3518.3906,849 L3518.3906,836.6094 L3526.1094,836.6094 L3526.1094,838.7656 L3520.8438,838.7656 L3520.8438,841.4375 L3525.6094,841.4375 L3525.6094,843.5938 L3520.8438,843.5938 L3520.8438,846.8438 L3526.1094,846.8438 L3526.1094,849 Z " fill="#000000"/><text fill="#000000" font-family="sans-serif" font-size="14" lengthAdjust="spacing" textLength="71.5928" x="3536" y="847.8467">PieceType</text></g><!--class PlayerColor--><g class="entity" data-entity="PlayerColor" data-source-line="34" data-uid="ent0012" id="entity_PlayerColor"><rect fill="#F1F1F1" height="32" rx="2.5" ry="2.5" style="stroke:#181818;stroke-width:0.5;" width="112.1172" x="3646" y="827"/><ellipse cx="3661" cy="843" fill="#EB937F" rx="11" ry="11" style="stroke:#181818;stroke-width:1;"/><path d="M3665.1094,849 L3657.3906,849 L3657.3906,836.6094 L3665.1094,836.6094 L3665.1094,838.7656 L3659.8438,838.7656 L3659.8438,841.4375 L3664.6094,841.4375 L3664.6094,843.5938 L3659.8438,843.5938 L3659.8438,846.8438 L3665.1094,846.8438 L3665.1094,849 Z " fill="#000000"/><text fill="#000000" font-family="sans-serif" font-size="14" lengthAdjust="spacing" textLength="80.1172" x="3675" y="847.8467">PlayerColor</text></g><!--class ChessBoard--><g class="entity" data-entity="ChessBoard" data-source-line="40" data-uid="ent0013" id="entity_ChessBoard"><rect fill="#F1F1F1" height="32" rx="2.5" ry="2.5" style="stroke:#181818;stroke-width:0.5;" width="115.2412" x="4438.5" y="716"/><ellipse cx="4453.5" cy="732" fill="#ADD1B2" rx="11" ry="11" style="stroke:#181818;stroke-width:1;"/><path d="M4456.4688,737.6406 Q4455.8906,737.9375 4455.25,738.0781 Q4454.6094,738.2344 4453.9063,738.2344 Q4451.4063,738.2344 4450.0781,736.5938 Q4448.7656,734.9375 4448.7656,731.8125 Q4448.7656,728.6875 4450.0781,727.0313 Q4451.4063,725.375 4453.9063,725.375 Q4454.6094,725.375 4455.25,725.5313 Q4455.9063,725.6875 4456.4688,725.9844 L4456.4688,728.7031 Q4455.8438,728.125 4455.25,727.8594 Q4454.6563,727.5781 4454.0313,727.5781 Q4452.6875,727.5781 4452,728.6563 Q4451.3125,729.7188 4451.3125,731.8125 Q4451.3125,733.9063 4452,734.9844 Q4452.6875,736.0469 4454.0313,736.0469 Q4454.6563,736.0469 4455.25,735.7813 Q4455.8438,735.5 4456.4688,734.9219 L4456.4688,737.6406 Z " fill="#000000"/><text fill="#000000" font-family="sans-serif" font-size="14" lengthAdjust="spacing" textLength="83.2412" x="4467.5" y="736.8467">ChessBoard</text></g><!--class AlphanumericBorderFieldRenderer--><g class="entity" data-entity="AlphanumericBorderFieldRenderer" data-source-line="53" data-uid="ent0015" id="entity_AlphanumericBorderFieldRenderer"><rect fill="#F1F1F1" height="32" rx="2.5" ry="2.5" style="stroke:#181818;stroke-width:0.5;" width="274.498" x="4132" y="827"/><ellipse cx="4147" cy="843" fill="#ADD1B2" rx="11" ry="11" style="stroke:#181818;stroke-width:1;"/><path d="M4149.9688,848.6406 Q4149.3906,848.9375 4148.75,849.0781 Q4148.1094,849.2344 4147.4063,849.2344 Q4144.9063,849.2344 4143.5781,847.5938 Q4142.2656,845.9375 4142.2656,842.8125 Q4142.2656,839.6875 4143.5781,838.0313 Q4144.9063,836.375 4147.4063,836.375 Q4148.1094,836.375 4148.75,836.5313 Q4149.4063,836.6875 4149.9688,836.9844 L4149.9688,839.7031 Q4149.3438,839.125 4148.75,838.8594 Q4148.1563,838.5781 4147.5313,838.5781 Q4146.1875,838.5781 4145.5,839.6563 Q4144.8125,840.7188 4144.8125,842.8125 Q4144.8125,844.9063 4145.5,845.9844 Q4146.1875,847.0469 4147.5313,847.0469 Q4148.1563,847.0469 4148.75,846.7813 Q4149.3438,846.5 4149.9688,845.9219 L4149.9688,848.6406 Z " fill="#000000"/><text fill="#000000" font-family="sans-serif" font-size="14" lengthAdjust="spacing" textLength="242.498" x="4161" y="847.8467">AlphanumericBorderFieldRenderer</text></g><!--class BoardRenderer--><g class="entity" data-entity="BoardRenderer" data-source-line="67" data-uid="ent0017" id="entity_BoardRenderer"><rect fill="#F1F1F1" height="32" rx="2.5" ry="2.5" style="stroke:#181818;stroke-width:0.5;" width="138.2305" x="3959" y="827"/><ellipse cx="3974" cy="843" fill="#ADD1B2" rx="11" ry="11" style="stroke:#181818;stroke-width:1;"/><path d="M3976.9688,848.6406 Q3976.3906,848.9375 3975.75,849.0781 Q3975.1094,849.2344 3974.4063,849.2344 Q3971.9063,849.2344 3970.5781,847.5938 Q3969.2656,845.9375 3969.2656,842.8125 Q3969.2656,839.6875 3970.5781,838.0313 Q3971.9063,836.375 3974.4063,836.375 Q3975.1094,836.375 3975.75,836.5313 Q3976.4063,836.6875 3976.9688,836.9844 L3976.9688,839.7031 Q3976.3438,839.125 3975.75,838.8594 Q3975.1563,838.5781 3974.5313,838.5781 Q3973.1875,838.5781 3972.5,839.6563 Q3971.8125,840.7188 3971.8125,842.8125 Q3971.8125,844.9063 3972.5,845.9844 Q3973.1875,847.0469 3974.5313,847.0469 Q3975.1563,847.0469 3975.75,846.7813 Q3976.3438,846.5 3976.9688,845.9219 L3976.9688,848.6406 Z " fill="#000000"/><text fill="#000000" font-family="sans-serif" font-size="14" lengthAdjust="spacing" textLength="106.2305" x="3988" y="847.8467">BoardRenderer</text></g><!--class BorderFieldRenderer--><g class="entity" data-entity="BorderFieldRenderer" data-source-line="72" data-uid="ent0018" id="entity_BorderFieldRenderer"><rect fill="#F1F1F1" height="32" rx="2.5" ry="2.5" style="stroke:#181818;stroke-width:0.5;" width="177.3525" x="4152.5" y="938"/><ellipse cx="4167.5" cy="954" fill="#B4A7E5" rx="11" ry="11" style="stroke:#181818;stroke-width:1;"/><path d="M4163.4219,949.7656 L4163.4219,947.6094 L4170.8125,947.6094 L4170.8125,949.7656 L4168.3438,949.7656 L4168.3438,957.8438 L4170.8125,957.8438 L4170.8125,960 L4163.4219,960 L4163.4219,957.8438 L4165.8906,957.8438 L4165.8906,949.7656 L4163.4219,949.7656 Z " fill="#000000"/><text fill="#000000" font-family="sans-serif" font-size="14" font-style="italic" lengthAdjust="spacing" textLength="145.3525" x="4181.5" y="958.8467">BorderFieldRenderer</text></g><!--class ChessBoardRenderer--><g class="entity" data-entity="ChessBoardRenderer" data-source-line="78" data-uid="ent0019" id="entity_ChessBoardRenderer"><rect fill="#F1F1F1" height="32" rx="2.5" ry="2.5" style="stroke:#181818;stroke-width:0.5;" width="180.0801" x="4112" y="716"/><ellipse cx="4127" cy="732" fill="#ADD1B2" rx="11" ry="11" style="stroke:#181818;stroke-width:1;"/><path d="M4129.9688,737.6406 Q4129.3906,737.9375 4128.75,738.0781 Q4128.1094,738.2344 4127.4063,738.2344 Q4124.9063,738.2344 4123.5781,736.5938 Q4122.2656,734.9375 4122.2656,731.8125 Q4122.2656,728.6875 4123.5781,727.0313 Q4124.9063,725.375 4127.4063,725.375 Q4128.1094,725.375 4128.75,725.5313 Q4129.4063,725.6875 4129.9688,725.9844 L4129.9688,728.7031 Q4129.3438,728.125 4128.75,727.8594 Q4128.1563,727.5781 4127.5313,727.5781 Q4126.1875,727.5781 4125.5,728.6563 Q4124.8125,729.7188 4124.8125,731.8125 Q4124.8125,733.9063 4125.5,734.9844 Q4126.1875,736.0469 4127.5313,736.0469 Q4128.1563,736.0469 4128.75,735.7813 Q4129.3438,735.5 4129.9688,734.9219 L4129.9688,737.6406 Z " fill="#000000"/><text fill="#000000" font-family="sans-serif" font-size="14" lengthAdjust="spacing" textLength="148.0801" x="4141" y="736.8467">ChessBoardRenderer</text></g><!--class FieldRenderer--><g class="entity" data-entity="FieldRenderer" data-source-line="84" data-uid="ent0020" id="entity_FieldRenderer"><rect fill="#F1F1F1" height="32" rx="2.5" ry="2.5" style="stroke:#181818;stroke-width:0.5;" width="130.1709" x="3959" y="938"/><ellipse cx="3974" cy="954" fill="#B4A7E5" rx="11" ry="11" style="stroke:#181818;stroke-width:1;"/><path d="M3969.9219,949.7656 L3969.9219,947.6094 L3977.3125,947.6094 L3977.3125,949.7656 L3974.8438,949.7656 L3974.8438,957.8438 L3977.3125,957.8438 L3977.3125,960 L3969.9219,960 L3969.9219,957.8438 L3972.3906,957.8438 L3972.3906,949.7656 L3969.9219,949.7656 Z " fill="#000000"/><text fill="#000000" font-family="sans-serif" font-size="14" font-style="italic" lengthAdjust="spacing" textLength="98.1709" x="3988" y="958.8467">FieldRenderer</text></g><!--class SquareColor--><g class="entity" data-entity="SquareColor" data-source-line="89" data-uid="ent0021" id="entity_SquareColor"><rect fill="#F1F1F1" height="32" rx="2.5" ry="2.5" style="stroke:#181818;stroke-width:0.5;" width="118.1465" x="3959" y="716"/><ellipse cx="3974" cy="732" fill="#EB937F" rx="11" ry="11" style="stroke:#181818;stroke-width:1;"/><path d="M3978.1094,738 L3970.3906,738 L3970.3906,725.6094 L3978.1094,725.6094 L3978.1094,727.7656 L3972.8438,727.7656 L3972.8438,730.4375 L3977.6094,730.4375 L3977.6094,732.5938 L3972.8438,732.5938 L3972.8438,735.8438 L3978.1094,735.8438 L3978.1094,738 Z " fill="#000000"/><text fill="#000000" font-family="sans-serif" font-size="14" lengthAdjust="spacing" textLength="86.1465" x="3988" y="736.8467">SquareColor</text></g><!--class EvalStrategy--><g class="entity" data-entity="EvalStrategy" data-source-line="95" data-uid="ent0022" id="entity_EvalStrategy"><rect fill="#F1F1F1" height="32" rx="2.5" ry="2.5" style="stroke:#181818;stroke-width:0.5;" width="121.585" x="458" y="716"/><ellipse cx="473" cy="732" fill="#B4A7E5" rx="11" ry="11" style="stroke:#181818;stroke-width:1;"/><path d="M468.9219,727.7656 L468.9219,725.6094 L476.3125,725.6094 L476.3125,727.7656 L473.8438,727.7656 L473.8438,735.8438 L476.3125,735.8438 L476.3125,738 L468.9219,738 L468.9219,735.8438 L471.3906,735.8438 L471.3906,727.7656 L468.9219,727.7656 Z " fill="#000000"/><text fill="#000000" font-family="sans-serif" font-size="14" font-style="italic" lengthAdjust="spacing" textLength="89.585" x="487" y="736.8467">EvalStrategy</text></g><!--class MateAwareEval--><g class="entity" data-entity="MateAwareEval" data-source-line="100" data-uid="ent0024" id="entity_MateAwareEval"><rect fill="#F1F1F1" height="32" rx="2.5" ry="2.5" style="stroke:#181818;stroke-width:0.5;" width="140.3359" x="580" y="517"/><ellipse cx="595" cy="533" fill="#ADD1B2" rx="11" ry="11" style="stroke:#181818;stroke-width:1;"/><path d="M597.9688,538.6406 Q597.3906,538.9375 596.75,539.0781 Q596.1094,539.2344 595.4063,539.2344 Q592.9063,539.2344 591.5781,537.5938 Q590.2656,535.9375 590.2656,532.8125 Q590.2656,529.6875 591.5781,528.0313 Q592.9063,526.375 595.4063,526.375 Q596.1094,526.375 596.75,526.5313 Q597.4063,526.6875 597.9688,526.9844 L597.9688,529.7031 Q597.3438,529.125 596.75,528.8594 Q596.1563,528.5781 595.5313,528.5781 Q594.1875,528.5781 593.5,529.6563 Q592.8125,530.7188 592.8125,532.8125 Q592.8125,534.9063 593.5,535.9844 Q594.1875,537.0469 595.5313,537.0469 Q596.1563,537.0469 596.75,536.7813 Q597.3438,536.5 597.9688,535.9219 L597.9688,538.6406 Z " fill="#000000"/><text fill="#000000" font-family="sans-serif" font-size="14" lengthAdjust="spacing" textLength="108.3359" x="609" y="537.8467">MateAwareEval</text></g><!--class MaterialEval--><g class="entity" data-entity="MaterialEval" data-source-line="106" data-uid="ent0025" id="entity_MaterialEval"><rect fill="#F1F1F1" height="32" rx="2.5" ry="2.5" style="stroke:#181818;stroke-width:0.5;" width="118.4746" x="427" y="517"/><ellipse cx="442" cy="533" fill="#ADD1B2" rx="11" ry="11" style="stroke:#181818;stroke-width:1;"/><path d="M444.9688,538.6406 Q444.3906,538.9375 443.75,539.0781 Q443.1094,539.2344 442.4063,539.2344 Q439.9063,539.2344 438.5781,537.5938 Q437.2656,535.9375 437.2656,532.8125 Q437.2656,529.6875 438.5781,528.0313 Q439.9063,526.375 442.4063,526.375 Q443.1094,526.375 443.75,526.5313 Q444.4063,526.6875 444.9688,526.9844 L444.9688,529.7031 Q444.3438,529.125 443.75,528.8594 Q443.1563,528.5781 442.5313,528.5781 Q441.1875,528.5781 440.5,529.6563 Q439.8125,530.7188 439.8125,532.8125 Q439.8125,534.9063 440.5,535.9844 Q441.1875,537.0469 442.5313,537.0469 Q443.1563,537.0469 443.75,536.7813 Q444.3438,536.5 444.9688,535.9219 L444.9688,538.6406 Z " fill="#000000"/><text fill="#000000" font-family="sans-serif" font-size="14" lengthAdjust="spacing" textLength="86.4746" x="456" y="537.8467">MaterialEval</text></g><!--class RandomEval--><g class="entity" data-entity="RandomEval" data-source-line="113" data-uid="ent0026" id="entity_RandomEval"><rect fill="#F1F1F1" height="32" rx="2.5" ry="2.5" style="stroke:#181818;stroke-width:0.5;" width="119.8691" x="272" y="517"/><ellipse cx="287" cy="533" fill="#ADD1B2" rx="11" ry="11" style="stroke:#181818;stroke-width:1;"/><path d="M289.9688,538.6406 Q289.3906,538.9375 288.75,539.0781 Q288.1094,539.2344 287.4063,539.2344 Q284.9063,539.2344 283.5781,537.5938 Q282.2656,535.9375 282.2656,532.8125 Q282.2656,529.6875 283.5781,528.0313 Q284.9063,526.375 287.4063,526.375 Q288.1094,526.375 288.75,526.5313 Q289.4063,526.6875 289.9688,526.9844 L289.9688,529.7031 Q289.3438,529.125 288.75,528.8594 Q288.1563,528.5781 287.5313,528.5781 Q286.1875,528.5781 285.5,529.6563 Q284.8125,530.7188 284.8125,532.8125 Q284.8125,534.9063 285.5,535.9844 Q286.1875,537.0469 287.5313,537.0469 Q288.1563,537.0469 288.75,536.7813 Q289.3438,536.5 289.9688,535.9219 L289.9688,538.6406 Z " fill="#000000"/><text fill="#000000" font-family="sans-serif" font-size="14" lengthAdjust="spacing" textLength="87.8691" x="301" y="537.8467">RandomEval</text></g><!--class ChessGame--><g class="entity" data-entity="ChessGame" data-source-line="118" data-uid="ent0027" id="entity_ChessGame"><rect fill="#F1F1F1" height="32" rx="2.5" ry="2.5" style="stroke:#181818;stroke-width:0.5;" width="115.5283" x="1116" y="517"/><ellipse cx="1131" cy="533" fill="#ADD1B2" rx="11" ry="11" style="stroke:#181818;stroke-width:1;"/><path d="M1133.9688,538.6406 Q1133.3906,538.9375 1132.75,539.0781 Q1132.1094,539.2344 1131.4063,539.2344 Q1128.9063,539.2344 1127.5781,537.5938 Q1126.2656,535.9375 1126.2656,532.8125 Q1126.2656,529.6875 1127.5781,528.0313 Q1128.9063,526.375 1131.4063,526.375 Q1132.1094,526.375 1132.75,526.5313 Q1133.4063,526.6875 1133.9688,526.9844 L1133.9688,529.7031 Q1133.3438,529.125 1132.75,528.8594 Q1132.1563,528.5781 1131.5313,528.5781 Q1130.1875,528.5781 1129.5,529.6563 Q1128.8125,530.7188 1128.8125,532.8125 Q1128.8125,534.9063 1129.5,535.9844 Q1130.1875,537.0469 1131.5313,537.0469 Q1132.1563,537.0469 1132.75,536.7813 Q1133.3438,536.5 1133.9688,535.9219 L1133.9688,538.6406 Z " fill="#000000"/><text fill="#000000" font-family="sans-serif" font-size="14" lengthAdjust="spacing" textLength="83.5283" x="1145" y="537.8467">ChessGame</text></g><!--class InputReader--><g class="entity" data-entity="InputReader" data-source-line="126" data-uid="ent0029" id="entity_InputReader"><rect fill="#F1F1F1" height="32" rx="2.5" ry="2.5" style="stroke:#181818;stroke-width:0.5;" width="118.4268" x="1103" y="716"/><ellipse cx="1118" cy="732" fill="#ADD1B2" rx="11" ry="11" style="stroke:#181818;stroke-width:1;"/><path d="M1120.9688,737.6406 Q1120.3906,737.9375 1119.75,738.0781 Q1119.1094,738.2344 1118.4063,738.2344 Q1115.9063,738.2344 1114.5781,736.5938 Q1113.2656,734.9375 1113.2656,731.8125 Q1113.2656,728.6875 1114.5781,727.0313 Q1115.9063,725.375 1118.4063,725.375 Q1119.1094,725.375 1119.75,725.5313 Q1120.4063,725.6875 1120.9688,725.9844 L1120.9688,728.7031 Q1120.3438,728.125 1119.75,727.8594 Q1119.1563,727.5781 1118.5313,727.5781 Q1117.1875,727.5781 1116.5,728.6563 Q1115.8125,729.7188 1115.8125,731.8125 Q1115.8125,733.9063 1116.5,734.9844 Q1117.1875,736.0469 1118.5313,736.0469 Q1119.1563,736.0469 1119.75,735.7813 Q1120.3438,735.5 1120.9688,734.9219 L1120.9688,737.6406 Z " fill="#000000"/><text fill="#000000" font-family="sans-serif" font-size="14" lengthAdjust="spacing" textLength="86.4268" x="1132" y="736.8467">InputReader</text></g><!--class MatchConfig--><g class="entity" data-entity="MatchConfig" data-source-line="132" data-uid="ent0030" id="entity_MatchConfig"><rect fill="#F1F1F1" height="32" rx="2.5" ry="2.5" style="stroke:#181818;stroke-width:0.5;" width="119.6367" x="1267" y="517"/><ellipse cx="1282" cy="533" fill="#ADD1B2" rx="11" ry="11" style="stroke:#181818;stroke-width:1;"/><path d="M1284.9688,538.6406 Q1284.3906,538.9375 1283.75,539.0781 Q1283.1094,539.2344 1282.4063,539.2344 Q1279.9063,539.2344 1278.5781,537.5938 Q1277.2656,535.9375 1277.2656,532.8125 Q1277.2656,529.6875 1278.5781,528.0313 Q1279.9063,526.375 1282.4063,526.375 Q1283.1094,526.375 1283.75,526.5313 Q1284.4063,526.6875 1284.9688,526.9844 L1284.9688,529.7031 Q1284.3438,529.125 1283.75,528.8594 Q1283.1563,528.5781 1282.5313,528.5781 Q1281.1875,528.5781 1280.5,529.6563 Q1279.8125,530.7188 1279.8125,532.8125 Q1279.8125,534.9063 1280.5,535.9844 Q1281.1875,537.0469 1282.5313,537.0469 Q1283.1563,537.0469 1283.75,536.7813 Q1284.3438,536.5 1284.9688,535.9219 L1284.9688,538.6406 Z " fill="#000000"/><text fill="#000000" font-family="sans-serif" font-size="14" lengthAdjust="spacing" textLength="87.6367" x="1296" y="537.8467">MatchConfig</text></g><!--class OutputWriter--><g class="entity" data-entity="OutputWriter" data-source-line="141" data-uid="ent0031" id="entity_OutputWriter"><rect fill="#F1F1F1" height="32" rx="2.5" ry="2.5" style="stroke:#181818;stroke-width:0.5;" width="123.9775" x="840" y="716"/><ellipse cx="855" cy="732" fill="#ADD1B2" rx="11" ry="11" style="stroke:#181818;stroke-width:1;"/><path d="M857.9688,737.6406 Q857.3906,737.9375 856.75,738.0781 Q856.1094,738.2344 855.4063,738.2344 Q852.9063,738.2344 851.5781,736.5938 Q850.2656,734.9375 850.2656,731.8125 Q850.2656,728.6875 851.5781,727.0313 Q852.9063,725.375 855.4063,725.375 Q856.1094,725.375 856.75,725.5313 Q857.4063,725.6875 857.9688,725.9844 L857.9688,728.7031 Q857.3438,728.125 856.75,727.8594 Q856.1563,727.5781 855.5313,727.5781 Q854.1875,727.5781 853.5,728.6563 Q852.8125,729.7188 852.8125,731.8125 Q852.8125,733.9063 853.5,734.9844 Q854.1875,736.0469 855.5313,736.0469 Q856.1563,736.0469 856.75,735.7813 Q857.3438,735.5 857.9688,734.9219 L857.9688,737.6406 Z " fill="#000000"/><text fill="#000000" font-family="sans-serif" font-size="14" lengthAdjust="spacing" textLength="91.9775" x="869" y="736.8467">OutputWriter</text></g><!--class GameAbortedException--><g class="entity" data-entity="GameAbortedException" data-source-line="151" data-uid="ent0032" id="entity_GameAbortedException"><rect fill="#F1F1F1" height="32" rx="2.5" ry="2.5" style="stroke:#181818;stroke-width:0.5;" width="198.5986" x="1657.5" y="517"/><ellipse cx="1672.5" cy="533" fill="#ADD1B2" rx="11" ry="11" style="stroke:#181818;stroke-width:1;"/><path d="M1675.4688,538.6406 Q1674.8906,538.9375 1674.25,539.0781 Q1673.6094,539.2344 1672.9063,539.2344 Q1670.4063,539.2344 1669.0781,537.5938 Q1667.7656,535.9375 1667.7656,532.8125 Q1667.7656,529.6875 1669.0781,528.0313 Q1670.4063,526.375 1672.9063,526.375 Q1673.6094,526.375 1674.25,526.5313 Q1674.9063,526.6875 1675.4688,526.9844 L1675.4688,529.7031 Q1674.8438,529.125 1674.25,528.8594 Q1673.6563,528.5781 1673.0313,528.5781 Q1671.6875,528.5781 1671,529.6563 Q1670.3125,530.7188 1670.3125,532.8125 Q1670.3125,534.9063 1671,535.9844 Q1671.6875,537.0469 1673.0313,537.0469 Q1673.6563,537.0469 1674.25,536.7813 Q1674.8438,536.5 1675.4688,535.9219 L1675.4688,538.6406 Z " fill="#000000"/><text fill="#000000" font-family="sans-serif" font-size="14" lengthAdjust="spacing" textLength="166.5986" x="1686.5" y="537.8467">GameAbortedException</text></g><!--class MatchAbortedException--><g class="entity" data-entity="MatchAbortedException" data-source-line="155" data-uid="ent0034" id="entity_MatchAbortedException"><rect fill="#F1F1F1" height="32" rx="2.5" ry="2.5" style="stroke:#181818;stroke-width:0.5;" width="199.6377" x="1422" y="517"/><ellipse cx="1437" cy="533" fill="#ADD1B2" rx="11" ry="11" style="stroke:#181818;stroke-width:1;"/><path d="M1439.9688,538.6406 Q1439.3906,538.9375 1438.75,539.0781 Q1438.1094,539.2344 1437.4063,539.2344 Q1434.9063,539.2344 1433.5781,537.5938 Q1432.2656,535.9375 1432.2656,532.8125 Q1432.2656,529.6875 1433.5781,528.0313 Q1434.9063,526.375 1437.4063,526.375 Q1438.1094,526.375 1438.75,526.5313 Q1439.4063,526.6875 1439.9688,526.9844 L1439.9688,529.7031 Q1439.3438,529.125 1438.75,528.8594 Q1438.1563,528.5781 1437.5313,528.5781 Q1436.1875,528.5781 1435.5,529.6563 Q1434.8125,530.7188 1434.8125,532.8125 Q1434.8125,534.9063 1435.5,535.9844 Q1436.1875,537.0469 1437.5313,537.0469 Q1438.1563,537.0469 1438.75,536.7813 Q1439.3438,536.5 1439.9688,535.9219 L1439.9688,538.6406 Z " fill="#000000"/><text fill="#000000" font-family="sans-serif" font-size="14" lengthAdjust="spacing" textLength="167.6377" x="1451" y="537.8467">MatchAbortedException</text></g><!--class HomeScreen--><g class="entity" data-entity="HomeScreen" data-source-line="159" data-uid="ent0035" id="entity_HomeScreen"><rect fill="#F1F1F1" height="32" rx="2.5" ry="2.5" style="stroke:#181818;stroke-width:0.5;" width="121.7832" x="800" y="517"/><ellipse cx="815" cy="533" fill="#ADD1B2" rx="11" ry="11" style="stroke:#181818;stroke-width:1;"/><path d="M817.9688,538.6406 Q817.3906,538.9375 816.75,539.0781 Q816.1094,539.2344 815.4063,539.2344 Q812.9063,539.2344 811.5781,537.5938 Q810.2656,535.9375 810.2656,532.8125 Q810.2656,529.6875 811.5781,528.0313 Q812.9063,526.375 815.4063,526.375 Q816.1094,526.375 816.75,526.5313 Q817.4063,526.6875 817.9688,526.9844 L817.9688,529.7031 Q817.3438,529.125 816.75,528.8594 Q816.1563,528.5781 815.5313,528.5781 Q814.1875,528.5781 813.5,529.6563 Q812.8125,530.7188 812.8125,532.8125 Q812.8125,534.9063 813.5,535.9844 Q814.1875,537.0469 815.5313,537.0469 Q816.1563,537.0469 816.75,536.7813 Q817.3438,536.5 817.9688,535.9219 L817.9688,538.6406 Z " fill="#000000"/><text fill="#000000" font-family="sans-serif" font-size="14" lengthAdjust="spacing" textLength="89.7832" x="829" y="537.8467">HomeScreen</text></g><!--class MatchScreen--><g class="entity" data-entity="MatchScreen" data-source-line="165" data-uid="ent0037" id="entity_MatchScreen"><rect fill="#F1F1F1" height="32" rx="2.5" ry="2.5" style="stroke:#181818;stroke-width:0.5;" width="123.1572" x="957.5" y="517"/><ellipse cx="972.5" cy="533" fill="#ADD1B2" rx="11" ry="11" style="stroke:#181818;stroke-width:1;"/><path d="M975.4688,538.6406 Q974.8906,538.9375 974.25,539.0781 Q973.6094,539.2344 972.9063,539.2344 Q970.4063,539.2344 969.0781,537.5938 Q967.7656,535.9375 967.7656,532.8125 Q967.7656,529.6875 969.0781,528.0313 Q970.4063,526.375 972.9063,526.375 Q973.6094,526.375 974.25,526.5313 Q974.9063,526.6875 975.4688,526.9844 L975.4688,529.7031 Q974.8438,529.125 974.25,528.8594 Q973.6563,528.5781 973.0313,528.5781 Q971.6875,528.5781 971,529.6563 Q970.3125,530.7188 970.3125,532.8125 Q970.3125,534.9063 971,535.9844 Q971.6875,537.0469 973.0313,537.0469 Q973.6563,537.0469 974.25,536.7813 Q974.8438,536.5 975.4688,535.9219 L975.4688,538.6406 Z " fill="#000000"/><text fill="#000000" font-family="sans-serif" font-size="14" lengthAdjust="spacing" textLength="91.1572" x="986.5" y="537.8467">MatchScreen</text></g><!--class AbstractPlayer--><g class="entity" data-entity="AbstractPlayer" data-source-line="173" data-uid="ent0038" id="entity_AbstractPlayer"><rect fill="#F1F1F1" height="32" rx="2.5" ry="2.5" style="stroke:#181818;stroke-width:0.5;" width="134.334" x="1937" y="716"/><ellipse cx="1952" cy="732" fill="#A9DCDF" rx="11" ry="11" style="stroke:#181818;stroke-width:1;"/><path d="M1952.1094,727.3438 L1950.9531,732.4219 L1953.2813,732.4219 L1952.1094,727.3438 Z M1950.625,725.1094 L1953.6094,725.1094 L1956.9688,737.5 L1954.5156,737.5 L1953.75,734.4375 L1950.4688,734.4375 L1949.7188,737.5 L1947.2813,737.5 L1950.625,725.1094 Z " fill="#000000"/><text fill="#000000" font-family="sans-serif" font-size="14" font-style="italic" lengthAdjust="spacing" textLength="102.334" x="1966" y="736.8467">AbstractPlayer</text></g><!--class HumanPlayer--><g class="entity" data-entity="HumanPlayer" data-source-line="178" data-uid="ent0040" id="entity_HumanPlayer"><rect fill="#F1F1F1" height="32" rx="2.5" ry="2.5" style="stroke:#181818;stroke-width:0.5;" width="126.0557" x="1953" y="517"/><ellipse cx="1968" cy="533" fill="#ADD1B2" rx="11" ry="11" style="stroke:#181818;stroke-width:1;"/><path d="M1970.9688,538.6406 Q1970.3906,538.9375 1969.75,539.0781 Q1969.1094,539.2344 1968.4063,539.2344 Q1965.9063,539.2344 1964.5781,537.5938 Q1963.2656,535.9375 1963.2656,532.8125 Q1963.2656,529.6875 1964.5781,528.0313 Q1965.9063,526.375 1968.4063,526.375 Q1969.1094,526.375 1969.75,526.5313 Q1970.4063,526.6875 1970.9688,526.9844 L1970.9688,529.7031 Q1970.3438,529.125 1969.75,528.8594 Q1969.1563,528.5781 1968.5313,528.5781 Q1967.1875,528.5781 1966.5,529.6563 Q1965.8125,530.7188 1965.8125,532.8125 Q1965.8125,534.9063 1966.5,535.9844 Q1967.1875,537.0469 1968.5313,537.0469 Q1969.1563,537.0469 1969.75,536.7813 Q1970.3438,536.5 1970.9688,535.9219 L1970.9688,538.6406 Z " fill="#000000"/><text fill="#000000" font-family="sans-serif" font-size="14" lengthAdjust="spacing" textLength="94.0557" x="1982" y="537.8467">HumanPlayer</text></g><!--class NewTestJavaClass--><g class="entity" data-entity="NewTestJavaClass" data-source-line="183" data-uid="ent0041" id="entity_NewTestJavaClass"><rect fill="#F1F1F1" height="32" rx="2.5" ry="2.5" style="stroke:#181818;stroke-width:0.5;" width="158.8887" x="1936.5" y="342"/><ellipse cx="1951.5" cy="358" fill="#ADD1B2" rx="11" ry="11" style="stroke:#181818;stroke-width:1;"/><path d="M1954.4688,363.6406 Q1953.8906,363.9375 1953.25,364.0781 Q1952.6094,364.2344 1951.9063,364.2344 Q1949.4063,364.2344 1948.0781,362.5938 Q1946.7656,360.9375 1946.7656,357.8125 Q1946.7656,354.6875 1948.0781,353.0313 Q1949.4063,351.375 1951.9063,351.375 Q1952.6094,351.375 1953.25,351.5313 Q1953.9063,351.6875 1954.4688,351.9844 L1954.4688,354.7031 Q1953.8438,354.125 1953.25,353.8594 Q1952.6563,353.5781 1952.0313,353.5781 Q1950.6875,353.5781 1950,354.6563 Q1949.3125,355.7188 1949.3125,357.8125 Q1949.3125,359.9063 1950,360.9844 Q1950.6875,362.0469 1952.0313,362.0469 Q1952.6563,362.0469 1953.25,361.7813 Q1953.8438,361.5 1954.4688,360.9219 L1954.4688,363.6406 Z " fill="#000000"/><text fill="#000000" font-family="sans-serif" font-size="14" lengthAdjust="spacing" textLength="126.8887" x="1965.5" y="362.8467">NewTestJavaClass</text></g><!--class BotPlayer--><g class="entity" data-entity="BotPlayer" data-source-line="187" data-uid="ent0042" id="entity_BotPlayer"><rect fill="#F1F1F1" height="32" rx="2.5" ry="2.5" style="stroke:#181818;stroke-width:0.5;" width="99.2246" x="3327.5" y="517"/><ellipse cx="3342.5" cy="533" fill="#A9DCDF" rx="11" ry="11" style="stroke:#181818;stroke-width:1;"/><path d="M3342.6094,528.3438 L3341.4531,533.4219 L3343.7813,533.4219 L3342.6094,528.3438 Z M3341.125,526.1094 L3344.1094,526.1094 L3347.4688,538.5 L3345.0156,538.5 L3344.25,535.4375 L3340.9688,535.4375 L3340.2188,538.5 L3337.7813,538.5 L3341.125,526.1094 Z " fill="#000000"/><text fill="#000000" font-family="sans-serif" font-size="14" font-style="italic" lengthAdjust="spacing" textLength="67.2246" x="3356.5" y="537.8467">BotPlayer</text></g><!--class MiniMaxAlgo--><g class="entity" data-entity="MiniMaxAlgo" data-source-line="191" data-uid="ent0044" id="entity_MiniMaxAlgo"><rect fill="#F1F1F1" height="32" rx="2.5" ry="2.5" style="stroke:#181818;stroke-width:0.5;" width="120.5938" x="2745.5" y="517"/><ellipse cx="2760.5" cy="533" fill="#A9DCDF" rx="11" ry="11" style="stroke:#181818;stroke-width:1;"/><path d="M2760.6094,528.3438 L2759.4531,533.4219 L2761.7813,533.4219 L2760.6094,528.3438 Z M2759.125,526.1094 L2762.1094,526.1094 L2765.4688,538.5 L2763.0156,538.5 L2762.25,535.4375 L2758.9688,535.4375 L2758.2188,538.5 L2755.7813,538.5 L2759.125,526.1094 Z " fill="#000000"/><text fill="#000000" font-family="sans-serif" font-size="14" font-style="italic" lengthAdjust="spacing" textLength="88.5938" x="2774.5" y="537.8467">MiniMaxAlgo</text></g><!--class MiniMaxBotPlayer--><g class="entity" data-entity="MiniMaxBotPlayer" data-source-line="197" data-uid="ent0046" id="entity_MiniMaxBotPlayer"><rect fill="#F1F1F1" height="32" rx="2.5" ry="2.5" style="stroke:#181818;stroke-width:0.5;" width="156.8994" x="2911.5" y="342"/><ellipse cx="2926.5" cy="358" fill="#ADD1B2" rx="11" ry="11" style="stroke:#181818;stroke-width:1;"/><path d="M2929.4688,363.6406 Q2928.8906,363.9375 2928.25,364.0781 Q2927.6094,364.2344 2926.9063,364.2344 Q2924.4063,364.2344 2923.0781,362.5938 Q2921.7656,360.9375 2921.7656,357.8125 Q2921.7656,354.6875 2923.0781,353.0313 Q2924.4063,351.375 2926.9063,351.375 Q2927.6094,351.375 2928.25,351.5313 Q2928.9063,351.6875 2929.4688,351.9844 L2929.4688,354.7031 Q2928.8438,354.125 2928.25,353.8594 Q2927.6563,353.5781 2927.0313,353.5781 Q2925.6875,353.5781 2925,354.6563 Q2924.3125,355.7188 2924.3125,357.8125 Q2924.3125,359.9063 2925,360.9844 Q2925.6875,362.0469 2927.0313,362.0469 Q2927.6563,362.0469 2928.25,361.7813 Q2928.8438,361.5 2929.4688,360.9219 L2929.4688,363.6406 Z " fill="#000000"/><text fill="#000000" font-family="sans-serif" font-size="14" lengthAdjust="spacing" textLength="124.8994" x="2940.5" y="362.8467">MiniMaxBotPlayer</text></g><!--class MiniMaxParallel--><g class="entity" data-entity="MiniMaxParallel" data-source-line="202" data-uid="ent0047" id="entity_MiniMaxParallel"><rect fill="#F1F1F1" height="32" rx="2.5" ry="2.5" style="stroke:#181818;stroke-width:0.5;" width="141.3135" x="2735.5" y="342"/><ellipse cx="2750.5" cy="358" fill="#ADD1B2" rx="11" ry="11" style="stroke:#181818;stroke-width:1;"/><path d="M2753.4688,363.6406 Q2752.8906,363.9375 2752.25,364.0781 Q2751.6094,364.2344 2750.9063,364.2344 Q2748.4063,364.2344 2747.0781,362.5938 Q2745.7656,360.9375 2745.7656,357.8125 Q2745.7656,354.6875 2747.0781,353.0313 Q2748.4063,351.375 2750.9063,351.375 Q2751.6094,351.375 2752.25,351.5313 Q2752.9063,351.6875 2753.4688,351.9844 L2753.4688,354.7031 Q2752.8438,354.125 2752.25,353.8594 Q2751.6563,353.5781 2751.0313,353.5781 Q2749.6875,353.5781 2749,354.6563 Q2748.3125,355.7188 2748.3125,357.8125 Q2748.3125,359.9063 2749,360.9844 Q2749.6875,362.0469 2751.0313,362.0469 Q2751.6563,362.0469 2752.25,361.7813 Q2752.8438,361.5 2753.4688,360.9219 L2753.4688,363.6406 Z " fill="#000000"/><text fill="#000000" font-family="sans-serif" font-size="14" lengthAdjust="spacing" textLength="109.3135" x="2764.5" y="362.8467">MiniMaxParallel</text></g><!--class MiniMaxRecursiveTask--><g class="entity" data-entity="MiniMaxRecursiveTask" data-source-line="207" data-uid="ent0048" id="entity_MiniMaxRecursiveTask"><rect fill="#F1F1F1" height="32" rx="2.5" ry="2.5" style="stroke:#181818;stroke-width:0.5;" width="190.9561" x="3103.5" y="342"/><ellipse cx="3118.5" cy="358" fill="#ADD1B2" rx="11" ry="11" style="stroke:#181818;stroke-width:1;"/><path d="M3121.4688,363.6406 Q3120.8906,363.9375 3120.25,364.0781 Q3119.6094,364.2344 3118.9063,364.2344 Q3116.4063,364.2344 3115.0781,362.5938 Q3113.7656,360.9375 3113.7656,357.8125 Q3113.7656,354.6875 3115.0781,353.0313 Q3116.4063,351.375 3118.9063,351.375 Q3119.6094,351.375 3120.25,351.5313 Q3120.9063,351.6875 3121.4688,351.9844 L3121.4688,354.7031 Q3120.8438,354.125 3120.25,353.8594 Q3119.6563,353.5781 3119.0313,353.5781 Q3117.6875,353.5781 3117,354.6563 Q3116.3125,355.7188 3116.3125,357.8125 Q3116.3125,359.9063 3117,360.9844 Q3117.6875,362.0469 3119.0313,362.0469 Q3119.6563,362.0469 3120.25,361.7813 Q3120.8438,361.5 3121.4688,360.9219 L3121.4688,363.6406 Z " fill="#000000"/><text fill="#000000" font-family="sans-serif" font-size="14" lengthAdjust="spacing" textLength="158.9561" x="3132.5" y="362.8467">MiniMaxRecursiveTask</text></g><!--class MiniMaxSequential--><g class="entity" data-entity="MiniMaxSequential" data-source-line="217" data-uid="ent0049" id="entity_MiniMaxSequential"><rect fill="#F1F1F1" height="32" rx="2.5" ry="2.5" style="stroke:#181818;stroke-width:0.5;" width="164.2686" x="2536" y="342"/><ellipse cx="2551" cy="358" fill="#ADD1B2" rx="11" ry="11" style="stroke:#181818;stroke-width:1;"/><path d="M2553.9688,363.6406 Q2553.3906,363.9375 2552.75,364.0781 Q2552.1094,364.2344 2551.4063,364.2344 Q2548.9063,364.2344 2547.5781,362.5938 Q2546.2656,360.9375 2546.2656,357.8125 Q2546.2656,354.6875 2547.5781,353.0313 Q2548.9063,351.375 2551.4063,351.375 Q2552.1094,351.375 2552.75,351.5313 Q2553.4063,351.6875 2553.9688,351.9844 L2553.9688,354.7031 Q2553.3438,354.125 2552.75,353.8594 Q2552.1563,353.5781 2551.5313,353.5781 Q2550.1875,353.5781 2549.5,354.6563 Q2548.8125,355.7188 2548.8125,357.8125 Q2548.8125,359.9063 2549.5,360.9844 Q2550.1875,362.0469 2551.5313,362.0469 Q2552.1563,362.0469 2552.75,361.7813 Q2553.3438,361.5 2553.9688,360.9219 L2553.9688,363.6406 Z " fill="#000000"/><text fill="#000000" font-family="sans-serif" font-size="14" lengthAdjust="spacing" textLength="132.2686" x="2565" y="362.8467">MiniMaxSequential</text></g><!--class MoveNode--><g class="entity" data-entity="MoveNode" data-source-line="225" data-uid="ent0050" id="entity_MoveNode"><rect fill="#F1F1F1" height="32" rx="2.5" ry="2.5" style="stroke:#181818;stroke-width:0.5;" width="106.0811" x="2395" y="342"/><ellipse cx="2410" cy="358" fill="#ADD1B2" rx="11" ry="11" style="stroke:#181818;stroke-width:1;"/><path d="M2412.9688,363.6406 Q2412.3906,363.9375 2411.75,364.0781 Q2411.1094,364.2344 2410.4063,364.2344 Q2407.9063,364.2344 2406.5781,362.5938 Q2405.2656,360.9375 2405.2656,357.8125 Q2405.2656,354.6875 2406.5781,353.0313 Q2407.9063,351.375 2410.4063,351.375 Q2411.1094,351.375 2411.75,351.5313 Q2412.4063,351.6875 2412.9688,351.9844 L2412.9688,354.7031 Q2412.3438,354.125 2411.75,353.8594 Q2411.1563,353.5781 2410.5313,353.5781 Q2409.1875,353.5781 2408.5,354.6563 Q2407.8125,355.7188 2407.8125,357.8125 Q2407.8125,359.9063 2408.5,360.9844 Q2409.1875,362.0469 2410.5313,362.0469 Q2411.1563,362.0469 2411.75,361.7813 Q2412.3438,361.5 2412.9688,360.9219 L2412.9688,363.6406 Z " fill="#000000"/><text fill="#000000" font-family="sans-serif" font-size="14" lengthAdjust="spacing" textLength="74.0811" x="2424" y="362.8467">MoveNode</text></g><!--class InvalidMoveException--><g class="entity" data-entity="InvalidMoveException" data-source-line="236" data-uid="ent0051" id="entity_InvalidMoveException"><rect fill="#F1F1F1" height="32" rx="2.5" ry="2.5" style="stroke:#181818;stroke-width:0.5;" width="185.2207" x="2130.5" y="342"/><ellipse cx="2145.5" cy="358" fill="#ADD1B2" rx="11" ry="11" style="stroke:#181818;stroke-width:1;"/><path d="M2148.4688,363.6406 Q2147.8906,363.9375 2147.25,364.0781 Q2146.6094,364.2344 2145.9063,364.2344 Q2143.4063,364.2344 2142.0781,362.5938 Q2140.7656,360.9375 2140.7656,357.8125 Q2140.7656,354.6875 2142.0781,353.0313 Q2143.4063,351.375 2145.9063,351.375 Q2146.6094,351.375 2147.25,351.5313 Q2147.9063,351.6875 2148.4688,351.9844 L2148.4688,354.7031 Q2147.8438,354.125 2147.25,353.8594 Q2146.6563,353.5781 2146.0313,353.5781 Q2144.6875,353.5781 2144,354.6563 Q2143.3125,355.7188 2143.3125,357.8125 Q2143.3125,359.9063 2144,360.9844 Q2144.6875,362.0469 2146.0313,362.0469 Q2146.6563,362.0469 2147.25,361.7813 Q2147.8438,361.5 2148.4688,360.9219 L2148.4688,363.6406 Z " fill="#000000"/><text fill="#000000" font-family="sans-serif" font-size="14" lengthAdjust="spacing" textLength="153.2207" x="2159.5" y="362.8467">InvalidMoveException</text></g><!--reverse link Piece to PieceType--><g class="link" data-entity-1="Piece" data-entity-2="PieceType" data-source-line="243" data-uid="lnk53" id="link_Piece_PieceType"><path codeLine="243" d="M3546.2108,760.0164 C3549.4608,780.8364 3553.42,806.22 3556.66,826.97" fill="none" id="Piece-backto-PieceType" style="stroke:#181818;stroke-width:1;"/><polygon fill="#181818" points="3544.36,748.16,3541.3333,754.7051,3546.2108,760.0164,3549.2375,753.4713,3544.36,748.16" style="stroke:#181818;stroke-width:1;"/><text fill="#000000" font-family="sans-serif" font-size="13" lengthAdjust="spacing" textLength="29.0405" x="3552" y="793.0669">type</text></g><!--reverse link Piece to PlayerColor--><g class="link" data-entity-1="Piece" data-entity-2="PlayerColor" data-source-line="244" data-uid="lnk54" id="link_Piece_PlayerColor"><path codeLine="244" d="M3571.0652,755.4125 C3580.7252,762.7725 3583.08,764.38 3594,772 C3622.22,791.69 3655.57,813.02 3677.67,826.9" fill="none" id="Piece-backto-PlayerColor" style="stroke:#181818;stroke-width:1;"/><polygon fill="#181818" points="3561.52,748.14,3563.8684,754.958,3571.0652,755.4125,3568.7168,748.5945,3561.52,748.14" style="stroke:#181818;stroke-width:1;"/><text fill="#000000" font-family="sans-serif" font-size="13" lengthAdjust="spacing" textLength="32.0112" x="3630" y="793.0669">color</text></g><!--link AlphanumericBorderFieldRenderer to BorderFieldRenderer--><g class="link" data-entity-1="AlphanumericBorderFieldRenderer" data-entity-2="BorderFieldRenderer" data-source-line="245" data-uid="lnk55" id="link_AlphanumericBorderFieldRenderer_BorderFieldRenderer"><path codeLine="245" d="M4274.68,859.15 C4278.76,872.39 4282.63,891.94 4277,908 C4273.03,919.33 4277.1674,916.7756 4269.6174,924.8456" fill="none" id="AlphanumericBorderFieldRenderer-to-BorderFieldRenderer" style="stroke:#181818;stroke-width:1;stroke-dasharray:7,7;"/><polygon fill="none" points="4257.32,937.99,4273.9988,928.9448,4265.2359,920.7465,4257.32,937.99" style="stroke:#181818;stroke-width:1;"/></g><!--reverse link BoardRenderer to BorderFieldRenderer--><g class="link" data-entity-1="BoardRenderer" data-entity-2="BorderFieldRenderer" data-source-line="246" data-uid="lnk56" id="link_BoardRenderer_BorderFieldRenderer"><path codeLine="246" d="M4060.4061,865.5885 C4081.2761,879.2685 4103.51,892.98 4133,908 C4154.9,919.16 4180.23,929.82 4200.85,937.96" fill="none" id="BoardRenderer-backto-BorderFieldRenderer" style="stroke:#181818;stroke-width:1;"/><polygon fill="#181818" points="4050.37,859.01,4053.1952,865.6446,4060.4061,865.5885,4057.5809,858.9539,4050.37,859.01" style="stroke:#181818;stroke-width:1;"/><text fill="#000000" font-family="sans-serif" font-size="13" lengthAdjust="spacing" textLength="134.3037" x="4134" y="904.0669">borderFieldRenderer</text></g><!--reverse link BoardRenderer to FieldRenderer--><g class="link" data-entity-1="BoardRenderer" data-entity-2="FieldRenderer" data-source-line="247" data-uid="lnk57" id="link_BoardRenderer_FieldRenderer"><path codeLine="247" d="M4013.7575,869.7585 C4009.1075,878.7085 4009.39,879.81 4007,891 C4003.55,907.16 4009.78,925.35 4015.64,937.83" fill="none" id="BoardRenderer-backto-FieldRenderer" style="stroke:#181818;stroke-width:1;"/><polygon fill="#181818" points="4019.29,859.11,4012.9742,862.5901,4013.7575,869.7585,4020.0733,866.2784,4019.29,859.11" style="stroke:#181818;stroke-width:1;"/><text fill="#000000" font-family="sans-serif" font-size="13" lengthAdjust="spacing" textLength="88.2578" x="4008" y="904.0669">fieldRenderer</text></g><!--reverse link ChessBoardRenderer to BoardRenderer--><g class="link" data-entity-1="ChessBoardRenderer" data-entity-2="BoardRenderer" data-source-line="248" data-uid="lnk58" id="link_ChessBoardRenderer_BoardRenderer"><path codeLine="248" d="M4167.6394,754.5285 C4134.3894,775.3485 4085.12,806.22 4051.99,826.97" fill="none" id="ChessBoardRenderer-backto-BoardRenderer" style="stroke:#181818;stroke-width:1;"/><polygon fill="#181818" points="4177.81,748.16,4170.6018,747.954,4167.6394,754.5285,4174.8475,754.7345,4177.81,748.16" style="stroke:#181818;stroke-width:1;"/><text fill="#000000" font-family="sans-serif" font-size="13" lengthAdjust="spacing" textLength="97.9761" x="4126" y="793.0669">boardRenderer</text></g><!--reverse link MateAwareEval to EvalStrategy--><g class="link" data-entity-1="MateAwareEval" data-entity-2="EvalStrategy" data-source-line="249" data-uid="lnk59" id="link_MateAwareEval_EvalStrategy"><path codeLine="249" d="M618.8496,556.1871 C590.4096,576.4671 553.32,603.07 552,605 C528.25,639.71 521.59,690.5 519.73,715.68" fill="none" id="MateAwareEval-backto-EvalStrategy" style="stroke:#181818;stroke-width:1;"/><polygon fill="#181818" points="628.62,549.22,621.4125,549.4467,618.8496,556.1871,626.0572,555.9603,628.62,549.22" style="stroke:#181818;stroke-width:1;"/><text fill="#000000" font-family="sans-serif" font-size="13" lengthAdjust="spacing" textLength="82.9702" x="553" y="618.0669">evalStrategy</text></g><!--link MateAwareEval to EvalStrategy--><g class="link" data-entity-1="MateAwareEval" data-entity-2="EvalStrategy" data-source-line="250" data-uid="lnk60" id="link_MateAwareEval_EvalStrategy"><path codeLine="250" d="M651.42,549.25 C652.45,567.58 651.96,598.76 640,622 C618.39,663.98 588.6482,687.8885 560.0382,706.1685" fill="none" id="MateAwareEval-to-EvalStrategy" style="stroke:#181818;stroke-width:1;stroke-dasharray:7,7;"/><polygon fill="none" points="544.87,715.86,563.2687,711.2245,556.8077,701.1124,544.87,715.86" style="stroke:#181818;stroke-width:1;"/></g><!--link MaterialEval to EvalStrategy--><g class="link" data-entity-1="MaterialEval" data-entity-2="EvalStrategy" data-source-line="251" data-uid="lnk61" id="link_MaterialEval_EvalStrategy"><path codeLine="251" d="M488.53,549.13 C494.68,585.8 507.3375,661.3371 513.4875,698.0671" fill="none" id="MaterialEval-to-EvalStrategy" style="stroke:#181818;stroke-width:1;stroke-dasharray:7,7;"/><polygon fill="none" points="516.46,715.82,519.4051,697.0763,507.5699,699.058,516.46,715.82" style="stroke:#181818;stroke-width:1;"/></g><!--link RandomEval to EvalStrategy--><g class="link" data-entity-1="RandomEval" data-entity-2="EvalStrategy" data-source-line="252" data-uid="lnk62" id="link_RandomEval_EvalStrategy"><path codeLine="252" d="M346.36,549.13 C381.17,585.8 457.3388,666.0341 492.1988,702.7641" fill="none" id="RandomEval-to-EvalStrategy" style="stroke:#181818;stroke-width:1;stroke-dasharray:7,7;"/><polygon fill="none" points="504.59,715.82,496.5507,698.6337,487.8468,706.8945,504.59,715.82" style="stroke:#181818;stroke-width:1;"/></g><!--reverse link MatchConfig to AbstractPlayer--><g class="link" data-entity-1="MatchConfig" data-entity-2="AbstractPlayer" data-source-line="253" data-uid="lnk63" id="link_MatchConfig_AbstractPlayer"><path codeLine="253" d="M1348.2728,557.7893 C1362.6628,573.1193 1379.12,587.24 1406,597 C1441.41,609.86 1708.05,597.66 1745,605 C1765.56,609.09 1768.55,617.4 1789,622 C1812.48,627.28 1874.98,620.29 1897,630 C1939.77,648.86 1976.07,692.37 1993.29,715.65" fill="none" id="MatchConfig-backto-AbstractPlayer" style="stroke:#181818;stroke-width:1;"/><polygon fill="#181818" points="1340.06,549.04,1341.25,556.1522,1348.2728,557.7893,1347.0828,550.677,1340.06,549.04" style="stroke:#181818;stroke-width:1;"/><text fill="#000000" font-family="sans-serif" font-size="13" lengthAdjust="spacing" textLength="34.5059" x="1790" y="618.0669">black</text></g><!--reverse link MatchConfig to AbstractPlayer--><g class="link" data-entity-1="MatchConfig" data-entity-2="AbstractPlayer" data-source-line="254" data-uid="lnk64" id="link_MatchConfig_AbstractPlayer"><path codeLine="254" d="M1348.2541,557.8175 C1362.6341,573.1675 1379.1,587.3 1406,597 C1450.22,612.94 1783.07,594.97 1829,605 C1847.47,609.03 1850.17,615.69 1868,622 C1880.6,626.46 1885.35,623.44 1897,630 C1937.29,652.69 1974.09,693.78 1992.2,715.91" fill="none" id="MatchConfig-backto-AbstractPlayer-1" style="stroke:#181818;stroke-width:1;"/><polygon fill="#181818" points="1340.05,549.06,1341.2329,556.1734,1348.2541,557.8175,1347.0712,550.704,1340.05,549.06" style="stroke:#181818;stroke-width:1;"/><text fill="#000000" font-family="sans-serif" font-size="13" lengthAdjust="spacing" textLength="35.5786" x="1869" y="618.0669">white</text></g><!--reverse link HomeScreen to InputReader--><g class="link" data-entity-1="HomeScreen" data-entity-2="InputReader" data-source-line="255" data-uid="lnk65" id="link_HomeScreen_InputReader"><path codeLine="255" d="M874.2014,559.9106 C885.0314,580.1506 901.33,604.67 931,622 C950.43,633.35 959.74,622.63 981,630 C1042.88,651.46 1108.26,693.45 1140.88,715.94" fill="none" id="HomeScreen-backto-InputReader" style="stroke:#181818;stroke-width:1;"/><polygon fill="#181818" points="868.54,549.33,867.8439,556.5074,874.2014,559.9106,874.8976,552.7331,868.54,549.33" style="stroke:#181818;stroke-width:1;"/><text fill="#000000" font-family="sans-serif" font-size="13" lengthAdjust="spacing" textLength="42.9038" x="932" y="618.0669">reader</text></g><!--reverse link HomeScreen to OutputWriter--><g class="link" data-entity-1="HomeScreen" data-entity-2="OutputWriter" data-source-line="256" data-uid="lnk66" id="link_HomeScreen_OutputWriter"><path codeLine="256" d="M855.182,560.88 C851.672,578.55 849.8,596.8 855,622 C862.29,657.32 881.58,695.29 893.05,715.78" fill="none" id="HomeScreen-backto-OutputWriter" style="stroke:#181818;stroke-width:1;"/><polygon fill="#181818" points="857.52,549.11,852.4276,554.2157,855.182,560.88,860.2743,555.7744,857.52,549.11" style="stroke:#181818;stroke-width:1;"/><text fill="#000000" font-family="sans-serif" font-size="13" lengthAdjust="spacing" textLength="38.0288" x="856" y="618.0669">writer</text></g><!--reverse link MatchScreen to ChessBoardRenderer--><g class="link" data-entity-1="MatchScreen" data-entity-2="ChessBoardRenderer" data-source-line="257" data-uid="lnk67" id="link_MatchScreen_ChessBoardRenderer"><path codeLine="257" d="M1036.2382,558.7108 C1047.5482,574.0608 1060.3,587.28 1084,597 C1096.29,602.04 2026.72,604.86 2040,605 C2047.14,605.07 4088.38,627.32 4095,630 C4138.57,647.62 4174.79,692.09 4191.71,715.71" fill="none" id="MatchScreen-backto-ChessBoardRenderer" style="stroke:#181818;stroke-width:1;"/><polygon fill="#181818" points="1029.12,549.05,1029.4588,556.2531,1036.2382,558.7108,1035.8994,551.5077,1029.12,549.05" style="stroke:#181818;stroke-width:1;"/><text fill="#000000" font-family="sans-serif" font-size="13" lengthAdjust="spacing" textLength="135.5732" x="3487" y="618.0669">chessBoardRenderer</text></g><!--reverse link MatchScreen to OutputWriter--><g class="link" data-entity-1="MatchScreen" data-entity-2="OutputWriter" data-source-line="258" data-uid="lnk68" id="link_MatchScreen_OutputWriter"><path codeLine="258" d="M1010.2503,560.5257 C1004.1603,578.5057 996.71,597.7 983,622 C962.73,657.93 932.32,695.68 915.11,715.96" fill="none" id="MatchScreen-backto-OutputWriter" style="stroke:#181818;stroke-width:1;"/><polygon fill="#181818" points="1014.1,549.16,1008.3866,553.5596,1010.2503,560.5257,1015.9637,556.1261,1014.1,549.16" style="stroke:#181818;stroke-width:1;"/><text fill="#000000" font-family="sans-serif" font-size="13" lengthAdjust="spacing" textLength="38.0288" x="993" y="618.0669">writer</text></g><!--reverse link MatchScreen to AbstractPlayer--><g class="link" data-entity-1="MatchScreen" data-entity-2="AbstractPlayer" data-source-line="259" data-uid="lnk69" id="link_MatchScreen_AbstractPlayer"><path codeLine="259" d="M1036.2613,558.6812 C1047.5813,574.0012 1060.33,587.21 1084,597 C1112.96,608.97 1617.95,596.1 1648,605 C1661.6,609.03 1661.45,617.82 1675,622 C1722.18,636.54 1851.46,610.95 1897,630 C1940.36,648.14 1976.67,692.38 1993.66,715.83" fill="none" id="MatchScreen-backto-AbstractPlayer" style="stroke:#181818;stroke-width:1;"/><polygon fill="#181818" points="1029.13,549.03,1029.4786,556.2327,1036.2613,558.6812,1035.9127,551.4785,1029.13,549.03" style="stroke:#181818;stroke-width:1;"/><text fill="#000000" font-family="sans-serif" font-size="13" lengthAdjust="spacing" textLength="34.5059" x="1676" y="618.0669">black</text></g><!--reverse link MatchScreen to AbstractPlayer--><g class="link" data-entity-1="MatchScreen" data-entity-2="AbstractPlayer" data-source-line="260" data-uid="lnk70" id="link_MatchScreen_AbstractPlayer"><path codeLine="260" d="M1036.5267,558.8849 C1047.8967,574.1549 1060.53,587.14 1084,597 C1115.77,610.35 1359.8,600.82 1394,605 C1428.79,609.25 1436.2,617.87 1471,622 C1494.51,624.79 1875.09,621.05 1897,630 C1940.51,647.77 1976.75,692.17 1993.7,715.74" fill="none" id="MatchScreen-backto-AbstractPlayer-1" style="stroke:#181818;stroke-width:1;"/><polygon fill="#181818" points="1029.36,549.26,1029.735,556.4613,1036.5267,558.8849,1036.1516,551.6836,1029.36,549.26" style="stroke:#181818;stroke-width:1;"/><text fill="#000000" font-family="sans-serif" font-size="13" lengthAdjust="spacing" textLength="35.5786" x="1472" y="618.0669">white</text></g><!--link MatchScreen to AbstractPlayer--><g class="link" data-entity-1="MatchScreen" data-entity-2="AbstractPlayer" data-source-line="262" data-uid="lnk72" id="link_MatchScreen_AbstractPlayer"><path codeLine="262" d="M1029.14,549.01 C1040.46,564.31 1060.35,587.16 1084,597 C1127.92,615.27 1465.53,594.86 1512,605 C1530.47,609.03 1532.54,617.93 1551,622 C1588.55,630.28 1861.43,615.39 1897,630 C1940.48,647.86 1973.2236,687.3512 1990.1836,710.9012" fill="none" id="MatchScreen-to-AbstractPlayer" style="stroke:#181818;stroke-width:1;"/><polygon fill="#181818" points="1993.69,715.77,1991.6763,706.1292,1990.768,711.7127,1985.1846,710.8044,1993.69,715.77" style="stroke:#181818;stroke-width:1;"/><text fill="#000000" font-family="sans-serif" font-size="13" lengthAdjust="spacing" textLength="87.8643" x="1552" y="618.0669">currentPlayer</text></g><!--link MatchScreen to ChessBoard--><g class="link" data-entity-1="MatchScreen" data-entity-2="ChessBoard" data-source-line="261" data-uid="lnk71" id="link_MatchScreen_ChessBoard"><path codeLine="261" d="M1029.11,549.08 C1040.41,564.44 1060.27,587.35 1084,597 C1100.38,603.67 3613.34,603.99 3631,605 C3698.87,608.89 3715.15,617.79 3783,622 C3800.72,623.1 4406.22,621.87 4422,630 C4457.56,648.31 4477.8833,686.958 4487.8233,710.348" fill="none" id="MatchScreen-to-ChessBoard" style="stroke:#181818;stroke-width:1;"/><polygon fill="#181818" points="4490.17,715.87,4490.3313,706.0225,4488.2144,711.2683,4482.9686,709.1514,4490.17,715.87" style="stroke:#181818;stroke-width:1;"/><text fill="#000000" font-family="sans-serif" font-size="13" lengthAdjust="spacing" textLength="74.6992" x="3784" y="618.0669">chessboard</text></g><!--reverse link AbstractPlayer to PlayerColor--><g class="link" data-entity-1="AbstractPlayer" data-entity-2="PlayerColor" data-source-line="263" data-uid="lnk73" id="link_AbstractPlayer_PlayerColor"><path codeLine="263" d="M2083.2695,733.5225 C2306.1395,735.6125 3028.33,748.34 3629,827 C3634.52,827.72 3640.24,828.63 3645.94,829.63" fill="none" id="AbstractPlayer-backto-PlayerColor" style="stroke:#181818;stroke-width:1;"/><polygon fill="#181818" points="2071.27,733.41,2077.2322,737.4661,2083.2695,733.5225,2077.3072,729.4664,2071.27,733.41" style="stroke:#181818;stroke-width:1;"/><text fill="#000000" font-family="sans-serif" font-size="13" lengthAdjust="spacing" textLength="74.8071" x="3320" y="793.0669">playerColor</text></g><!--reverse link HumanPlayer to InputReader--><g class="link" data-entity-1="HumanPlayer" data-entity-2="InputReader" data-source-line="264" data-uid="lnk74" id="link_HumanPlayer_InputReader"><path codeLine="264" d="M1979.9685,554.8448 C1952.1585,570.2848 1916.33,587.53 1873,597 C1815.79,609.5 1401.81,587.26 1346,605 C1274.79,627.64 1206.37,687.76 1177.01,715.98" fill="none" id="HumanPlayer-backto-InputReader" style="stroke:#181818;stroke-width:1;"/><polygon fill="#181818" points="1990.46,549.02,1983.2726,548.4353,1979.9685,554.8448,1987.1559,555.4296,1990.46,549.02" style="stroke:#181818;stroke-width:1;"/><text fill="#000000" font-family="sans-serif" font-size="13" lengthAdjust="spacing" textLength="42.9038" x="1347" y="618.0669">reader</text></g><!--link HumanPlayer to AbstractPlayer--><g class="link" data-entity-1="HumanPlayer" data-entity-2="AbstractPlayer" data-source-line="265" data-uid="lnk75" id="link_HumanPlayer_AbstractPlayer"><path codeLine="265" d="M2020.69,549.05 C2024.88,563.29 2030.68,585.36 2033,605 C2037.79,645.57 2028.1742,675.5841 2018.1342,699.1141" fill="none" id="HumanPlayer-to-AbstractPlayer" style="stroke:#181818;stroke-width:1;"/><polygon fill="none" points="2011.07,715.67,2023.6528,701.4689,2012.6156,696.7594,2011.07,715.67" style="stroke:#181818;stroke-width:1;"/></g><!--link NewTestJavaClass to HumanPlayer--><g class="link" data-entity-1="NewTestJavaClass" data-entity-2="HumanPlayer" data-source-line="266" data-uid="lnk76" id="link_NewTestJavaClass_HumanPlayer"><path codeLine="266" d="M2016,374.05 C2016,406.77 2016,478.06 2016,510.86" fill="none" id="NewTestJavaClass-to-HumanPlayer" style="stroke:#181818;stroke-width:1;"/><polygon fill="#181818" points="2016,516.86,2020,507.86,2016,511.86,2012,507.86,2016,516.86" style="stroke:#181818;stroke-width:1;"/><text fill="#000000" font-family="sans-serif" font-size="13" lengthAdjust="spacing" textLength="85.8013" x="2017" y="419.0669">humanPlayer</text></g><!--link BotPlayer to AbstractPlayer--><g class="link" data-entity-1="BotPlayer" data-entity-2="AbstractPlayer" data-source-line="267" data-uid="lnk77" id="link_BotPlayer_AbstractPlayer"><path codeLine="267" d="M3366.05,549.18 C3354.29,564.15 3334.16,586.32 3311,597 C3086.65,700.48 2324.1159,724.3945 2089.3259,729.4245" fill="none" id="BotPlayer-to-AbstractPlayer" style="stroke:#181818;stroke-width:1;"/><polygon fill="none" points="2071.33,729.81,2089.4544,735.4231,2089.1974,723.4258,2071.33,729.81" style="stroke:#181818;stroke-width:1;"/></g><!--reverse link MiniMaxAlgo to PlayerColor--><g class="link" data-entity-1="MiniMaxAlgo" data-entity-2="PlayerColor" data-source-line="268" data-uid="lnk78" id="link_MiniMaxAlgo_PlayerColor"><path codeLine="268" d="M2823.2583,558.6834 C2834.5783,574.0134 2847.32,587.22 2871,597 C2901.61,609.64 3434.01,602.15 3467,605 C3514.54,609.11 3525.57,616.82 3573,622 C3588.16,623.65 3699.54,618.91 3710,630 C3761.94,685.06 3725.34,788.33 3708.87,826.93" fill="none" id="MiniMaxAlgo-backto-PlayerColor" style="stroke:#181818;stroke-width:1;"/><polygon fill="#181818" points="2816.13,549.03,2816.4763,556.2328,2823.2583,558.6834,2822.9119,551.4806,2816.13,549.03" style="stroke:#181818;stroke-width:1;"/><text fill="#000000" font-family="sans-serif" font-size="13" lengthAdjust="spacing" textLength="101.2197" x="3737" y="736.5669">ownPlayerColor</text></g><!--reverse link MiniMaxAlgo to EvalStrategy--><g class="link" data-entity-1="MiniMaxAlgo" data-entity-2="EvalStrategy" data-source-line="269" data-uid="lnk79" id="link_MiniMaxAlgo_EvalStrategy"><path codeLine="269" d="M2789.0565,558.7626 C2777.9665,574.0926 2765.47,587.25 2742,597 C2721.63,605.46 1969.75,601.36 1948,605 C1924.44,608.95 1920.57,618.09 1897,622 C1834.68,632.34 821.88,617.33 760,630 C677.78,646.83 588.53,692.08 545.36,715.89" fill="none" id="MiniMaxAlgo-backto-EvalStrategy" style="stroke:#181818;stroke-width:1;"/><polygon fill="#181818" points="2796.09,549.04,2789.3324,551.5568,2789.0565,558.7626,2795.8141,556.2458,2796.09,549.04" style="stroke:#181818;stroke-width:1;"/><text fill="#000000" font-family="sans-serif" font-size="13" lengthAdjust="spacing" textLength="82.9702" x="1949" y="618.0669">evalStrategy</text></g><!--reverse link MiniMaxBotPlayer to MiniMaxAlgo--><g class="link" data-entity-1="MiniMaxBotPlayer" data-entity-2="MiniMaxAlgo" data-source-line="270" data-uid="lnk80" id="link_MiniMaxBotPlayer_MiniMaxAlgo"><path codeLine="270" d="M2946.2028,378.7992 C2927.8928,386.7492 2915.5,391.43 2894,398 C2877.49,403.05 2869.2,394.88 2856,406 C2821.81,434.82 2810.83,490.26 2807.44,516.94" fill="none" id="MiniMaxBotPlayer-backto-MiniMaxAlgo" style="stroke:#181818;stroke-width:1;"/><polygon fill="#181818" points="2957.21,374.02,2950.1133,372.7405,2946.2028,378.7992,2953.2995,380.0787,2957.21,374.02" style="stroke:#181818;stroke-width:1;"/><text fill="#000000" font-family="sans-serif" font-size="13" lengthAdjust="spacing" textLength="83.7129" x="2857" y="419.0669">miniMaxAlgo</text></g><!--link MiniMaxBotPlayer to BotPlayer--><g class="link" data-entity-1="MiniMaxBotPlayer" data-entity-2="BotPlayer" data-source-line="271" data-uid="lnk81" id="link_MiniMaxBotPlayer_BotPlayer"><path codeLine="271" d="M3021.77,374.16 C3040.16,382.35 3063.96,392 3086,398 C3183.52,424.54 3225.84,376.56 3311,431 C3343.12,451.53 3356.4654,477.1209 3365.2354,499.9109" fill="none" id="MiniMaxBotPlayer-to-BotPlayer" style="stroke:#181818;stroke-width:1;"/><polygon fill="none" points="3371.7,516.71,3370.8351,497.7561,3359.6357,502.0658,3371.7,516.71" style="stroke:#181818;stroke-width:1;"/></g><!--link MiniMaxParallel to MiniMaxAlgo--><g class="link" data-entity-1="MiniMaxParallel" data-entity-2="MiniMaxAlgo" data-source-line="272" data-uid="lnk82" id="link_MiniMaxParallel_MiniMaxAlgo"><path codeLine="272" d="M2806,374.05 C2806,406.77 2806,466.06 2806,498.86" fill="none" id="MiniMaxParallel-to-MiniMaxAlgo" style="stroke:#181818;stroke-width:1;"/><polygon fill="none" points="2806,516.86,2812,498.86,2800,498.86,2806,516.86" style="stroke:#181818;stroke-width:1;"/></g><!--reverse link MiniMaxRecursiveTask to PlayerColor--><g class="link" data-entity-1="MiniMaxRecursiveTask" data-entity-2="PlayerColor" data-source-line="273" data-uid="lnk83" id="link_MiniMaxRecursiveTask_PlayerColor"><path codeLine="273" d="M3306.5699,361.5447 C3459.1799,370.3947 3741.06,412.29 3863,605 C3886.29,641.8 4031.52,510.04 3847,772 C3826.23,801.48 3789.58,819.03 3758.32,829.18" fill="none" id="MiniMaxRecursiveTask-backto-PlayerColor" style="stroke:#181818;stroke-width:1;"/><polygon fill="#181818" points="3294.59,360.85,3300.3484,365.1907,3306.5699,361.5447,3300.8115,357.2041,3294.59,360.85" style="stroke:#181818;stroke-width:1;"/><text fill="#000000" font-family="sans-serif" font-size="13" lengthAdjust="spacing" textLength="84.6206" x="3940" y="618.0669">playerAtTurn</text></g><!--reverse link MiniMaxRecursiveTask to ChessBoard--><g class="link" data-entity-1="MiniMaxRecursiveTask" data-entity-2="ChessBoard" data-source-line="274" data-uid="lnk84" id="link_MiniMaxRecursiveTask_ChessBoard"><path codeLine="274" d="M3306.7555,361.5472 C3473.1755,366.0872 3796.9,378.14 3911,406 C4151.89,464.83 4228.53,474.89 4422,630 C4452.36,654.34 4476.44,694.02 4488.18,715.69" fill="none" id="MiniMaxRecursiveTask-backto-ChessBoard" style="stroke:#181818;stroke-width:1;"/><polygon fill="#181818" points="3294.76,361.22,3300.6487,365.3821,3306.7555,361.5472,3300.8668,357.3851,3294.76,361.22" style="stroke:#181818;stroke-width:1;"/><text fill="#000000" font-family="sans-serif" font-size="13" lengthAdjust="spacing" textLength="75.3657" x="4379" y="537.5669">chessBoard</text></g><!--reverse link MiniMaxRecursiveTask to EvalStrategy--><g class="link" data-entity-1="MiniMaxRecursiveTask" data-entity-2="EvalStrategy" data-source-line="275" data-uid="lnk85" id="link_MiniMaxRecursiveTask_EvalStrategy"><path codeLine="275" d="M3153.5198,378.6154 C3131.5098,387.4854 3113.21,393.34 3086,398 C3054.1,403.46 1953.36,405.66 1921,406 C1872.36,406.51 204.15,396.36 170,431 C118.2,483.54 128.21,536.2 170,597 C234.88,691.41 376.19,719.33 457.7,727.57" fill="none" id="MiniMaxRecursiveTask-backto-EvalStrategy" style="stroke:#181818;stroke-width:1;"/><polygon fill="#181818" points="3164.65,374.13,3157.5898,372.6627,3153.5198,378.6154,3160.5801,380.0828,3164.65,374.13" style="stroke:#181818;stroke-width:1;"/><text fill="#000000" font-family="sans-serif" font-size="13" lengthAdjust="spacing" textLength="82.9702" x="171" y="537.5669">evalStrategy</text></g><!--link MiniMaxSequential to MiniMaxAlgo--><g class="link" data-entity-1="MiniMaxSequential" data-entity-2="MiniMaxAlgo" data-source-line="276" data-uid="lnk86" id="link_MiniMaxSequential_MiniMaxAlgo"><path codeLine="276" d="M2654.76,374.08 C2681.4,386.39 2716.98,405.85 2742,431 C2768.06,457.2 2780.9643,479.5947 2791.1943,500.6847" fill="none" id="MiniMaxSequential-to-MiniMaxAlgo" style="stroke:#181818;stroke-width:1;"/><polygon fill="none" points="2799.05,516.88,2796.5927,498.0661,2785.7958,503.3033,2799.05,516.88" style="stroke:#181818;stroke-width:1;"/></g><!--SRC=[tHdRRgD6zBby1L9ViiqQoTi-fL8bx3Ynk_6bDb4gzI4QmzXC0epB9HTbTx-zPmO8Wy5cnZZPLLyI6C-vtm-sXw98jrt3ZRp4i55a-15sZAL7boiIkSOOaK1_qNvwyN7iKkUhhhz4COg9_LN_vhFVJZxeP_e39OxsLTCqkm7T4aNOkC31TKoy7MXFrpY66pCQaPZGeETH-pxIJ_GD2f6_Y4CIhBj0CdtI6VL_hkxG0p8y5AoDzFZtUimFo2CEYZ6Wpy3teLKJQaQmZKiYdThKes6ge2PW3ptZiC_kYmZmlmdoNcMVBk-m7JCcqoVEv99I3wD0X5hXp2fz5y3i69TmkYXo-zJ1wHKInEAFFYWd9CYRKVWXghqIqrnr7rxLLVhzUOFbP6OAi-0srp4E4byQWgjvHR372FP6Y-5q9Xny7aqknTV9w79e2GSpysOYlFvrFHY8x_FfzBCyIuNXoanTcVtFmllDS6GDv9o9ej0n-YwEeXvx5D6-Ud9dOPbpQpPTZApHT79xCPY8jiXkTpWgPWZg6siIkydIMBeiIcX0xaB3PZGyiZGu7T663XtJ1xmtEEG5416deRtBTU3N1N6mbL4_F6v8T8byF7t0MVJL10c9nk3hphxVWOahl4RUNZtKW7eCY45d0SIJKm89pxWYKQpW10anJ6_Z8l13Y4gxHqC7XnVCk7CSm2CEQvtZj7TvsvzUJUSrFb5Skf2vD0Ct7WodL-U3-Mr_QCxDlZMOSxEWiF5-8_RvO36mzj-Otjmkh3a4z2sFe5gt2Raom0aIF-3QoGq6cQkR9Z2zrk64U4fn3FnD_9oX-B27rfm-vZG43-mg-QiaIq2gNAgEGb391taKbpmkv_PRocFEsZNXLxiIwG7GPhVrZnMvFhMI2yoDmnM2OYmbMtrC5VP0ooXcLRITerMm7Dk5b2nQ9EUwHD81hY8uah8Yw-LIGyuuL3LOTgRFxsfu9PCN3ix1f1qyTP8jDflQYXny0SrVYAkjnRav5pkBAzxToCgFeGKs1l0768BwjtxUBJfKOtOnGQmBtri37PeiFIpbWfm-gxpc8mZ7yDVtDsFpxzl9zRZ7gqs6lzmfl25lh0D-PUrmcWLi6b6yyza3jjKd2E0Xzg6TAAfJT15IFn-Gzk9Ko0vS_3aA7EeVGNWPYcjeqj9SnDgrKWe28q1M1IxET1gkZJkF1DZ83mqhUn1r5BaqOH4DBXJ6EOUZO9F4SumWXlS7BMT5k9qdfsaImzbDI83sfsOCulLTxM76uEk4ASZmo007WSFKCGQreFLh4ovYxXx0YFGmMz64Q9OmFHADaXw1omOu1IXN0EImNuxbevmv254RHjXWHTPb9rrwoBvlcXisl80OPfReqdhIVkZUErOtpSoFBjZfCCQbjLRoY5QXThhoaiYjzU3JJSYQeCQjoZQ46JWNAL9LI2yu14QUdhH-yPEDDomxHWOBNtD9GvWl1_afgFmGLDpNs-2Ax13Zm1XI7o_uOoMlY-7Ku8BRuIVcBi0azcQgqxkgG9oB6eaO7nFy51ShX4guTRWJR9VFTbtuTYPFgz4vYLZKfdDEHgSSlrtra9UjAqoZUJkdDwcsdjA-th1GSYfNCLDqbTP3gYKWutIO-2YeOVC7O6s27oreG_w4TgxF8LuEiiMInZ2U5gOu50UaR-AZ9sCC_yVeoVJMj9J_RUJPYSSRktF8BswbVDLPlWS2VaSLryWbgkg7SeSQNc5KHfw7lLfMVppLph6TX15vm1QAxak-uvGS9ZzrONoXuVFMI1FSOsThiFdPfZuq9RAjJuarqD04-YqnwTfqymoLtNGSYmup7Z8b5kIxEzZAEtw6-9F4qfnDP9oBoknM8sW72XKCbejaoLHOsGj37V6WjuG8tAfakPHzq1Cm5-U5LGJDVsbfv0NqlJY8oTRanzC3SyaPYjtMBldnTL_sATkNLPT0lwfLtu_R1lvjbu7_vpxsblcZTa7DFjUWOBeIYR7dhh9aBRDKPgPIPcBR374LevoR3fm3ETsJsYtG_XanP-n4njIr0wM2-eG9OnJmh-9CYUA0KMYCXcJD9a1khH8n82VpJVoNJaUN_xHxfhClo4V4BEGAvfTis3Z2XpV3-FA7Vk0N1atveqkJeFi-Pp0tVKSMjeclLCdMV9oG5r-4Oe8BxvhILhg1P7MFVgPZuLMDM9CpLQXfAbliesCNbiJ7n5rPxZNOe7vc1QkpDU0xqE5REqrv_z90hR9_FTFJ5UlRK2gj1K4c_g2fxs1aGxGckbbJidruV0xUKzfMddaySYeEAfBhT2HAcz0ePWRavySdjqiwc4b365YoFRWgl7hhi16sbKhhgJS8-1egdSuNTJLgwiiiEMk9d9tfRl6cAUwztaYiNOinTRUWZy5CnJCEfDoYuP3PcSbbc5syd-b-yTQI4qc3bxn4QxM4Kw1O8xpMVgDsQ2uoOoi9WtTWO4V2xpKa_2EHVnFN5zPTBUslkGH6UZxcHEbpEgP7sdy0]--></g></svg>