<svg xmlns="http://www.w3.org/2000/svg" xmlns:xlink="http://www.w3.org/1999/xlink" contentStyleType="text/css" data-diagram-type="CLASS" height="1113px" preserveAspectRatio="none" style="width:3719px;height:1113px;background:#FFFFFF;" version="1.1" viewBox="0 0 3719 1113" width="3719px" zoomAndPan="magnify"><defs/><g><!--cluster ch--><g class="cluster" data-entity="ch" data-source-line="2" data-uid="ent0003" id="cluster_ch"><path d="M8.5,6 L27.7656,6 A3.75,3.75 0 0 1 30.2656,8.5 L37.2656,28.2969 L3709.5,28.2969 A2.5,2.5 0 0 1 3712,30.7969 L3712,1103.5 A2.5,2.5 0 0 1 3709.5,1106 L8.5,1106 A2.5,2.5 0 0 1 6,1103.5 L6,8.5 A2.5,2.5 0 0 1 8.5,6" fill="none" style="stroke:#000000;stroke-width:1.5;"/><line style="stroke:#000000;stroke-width:1.5;" x1="6" x2="37.2656" y1="28.2969" y2="28.2969"/><text fill="#000000" font-family="sans-serif" font-size="14" font-weight="bold" lengthAdjust="spacing" textLength="18.2656" x="10" y="20.9951">ch</text></g><!--cluster hslu--><g class="cluster" data-entity="hslu" data-source-line="2" data-uid="ent0004" id="cluster_hslu"><path d="M32.5,49 L66.5654,49 A3.75,3.75 0 0 1 69.0654,51.5 L76.0654,71.2969 L3685.5,71.2969 A2.5,2.5 0 0 1 3688,73.7969 L3688,1079.5 A2.5,2.5 0 0 1 3685.5,1082 L32.5,1082 A2.5,2.5 0 0 1 30,1079.5 L30,51.5 A2.5,2.5 0 0 1 32.5,49" fill="none" style="stroke:#000000;stroke-width:1.5;"/><line style="stroke:#000000;stroke-width:1.5;" x1="30" x2="76.0654" y1="71.2969" y2="71.2969"/><text fill="#000000" font-family="sans-serif" font-size="14" font-weight="bold" lengthAdjust="spacing" textLength="33.0654" x="34" y="63.9951">hslu</text></g><!--cluster cas--><g class="cluster" data-entity="cas" data-source-line="2" data-uid="ent0005" id="cluster_cas"><path d="M56.5,92 L83.5791,92 A3.75,3.75 0 0 1 86.0791,94.5 L93.0791,114.2969 L3661.5,114.2969 A2.5,2.5 0 0 1 3664,116.7969 L3664,1055.5 A2.5,2.5 0 0 1 3661.5,1058 L56.5,1058 A2.5,2.5 0 0 1 54,1055.5 L54,94.5 A2.5,2.5 0 0 1 56.5,92" fill="none" style="stroke:#000000;stroke-width:1.5;"/><line style="stroke:#000000;stroke-width:1.5;" x1="54" x2="93.0791" y1="114.2969" y2="114.2969"/><text fill="#000000" font-family="sans-serif" font-size="14" font-weight="bold" lengthAdjust="spacing" textLength="26.0791" x="58" y="106.9951">cas</text></g><!--cluster msed--><g class="cluster" data-entity="msed" data-source-line="2" data-uid="ent0006" id="cluster_msed"><path d="M80.5,135 L123.9375,135 A3.75,3.75 0 0 1 126.4375,137.5 L133.4375,157.2969 L3637.5,157.2969 A2.5,2.5 0 0 1 3640,159.7969 L3640,1031.5 A2.5,2.5 0 0 1 3637.5,1034 L80.5,1034 A2.5,2.5 0 0 1 78,1031.5 L78,137.5 A2.5,2.5 0 0 1 80.5,135" fill="none" style="stroke:#000000;stroke-width:1.5;"/><line style="stroke:#000000;stroke-width:1.5;" x1="78" x2="133.4375" y1="157.2969" y2="157.2969"/><text fill="#000000" font-family="sans-serif" font-size="14" font-weight="bold" lengthAdjust="spacing" textLength="42.4375" x="82" y="149.9951">msed</text></g><!--cluster blobfish--><g class="cluster" data-entity="blobfish" data-source-line="2" data-uid="ent0007" id="cluster_blobfish"><path d="M104.5,178 L169.1494,178 A3.75,3.75 0 0 1 171.6494,180.5 L178.6494,200.2969 L3613.5,200.2969 A2.5,2.5 0 0 1 3616,202.7969 L3616,1007.5 A2.5,2.5 0 0 1 3613.5,1010 L104.5,1010 A2.5,2.5 0 0 1 102,1007.5 L102,180.5 A2.5,2.5 0 0 1 104.5,178" fill="none" style="stroke:#000000;stroke-width:1.5;"/><line style="stroke:#000000;stroke-width:1.5;" x1="102" x2="178.6494" y1="200.2969" y2="200.2969"/><text fill="#000000" font-family="sans-serif" font-size="14" font-weight="bold" lengthAdjust="spacing" textLength="63.6494" x="106" y="192.9951">blobfish</text></g><!--cluster base--><g class="cluster" data-entity="base" data-source-line="7" data-uid="ent0009" id="cluster_base"><path d="M2747.5,657 L2785.7969,657 A3.75,3.75 0 0 1 2788.2969,659.5 L2795.2969,679.2969 L3025.5,679.2969 A2.5,2.5 0 0 1 3028,681.7969 L3028,848.5 A2.5,2.5 0 0 1 3025.5,851 L2747.5,851 A2.5,2.5 0 0 1 2745,848.5 L2745,659.5 A2.5,2.5 0 0 1 2747.5,657" fill="none" style="stroke:#000000;stroke-width:1.5;"/><line style="stroke:#000000;stroke-width:1.5;" x1="2745" x2="2795.2969" y1="679.2969" y2="679.2969"/><text fill="#000000" font-family="sans-serif" font-size="14" font-weight="bold" lengthAdjust="spacing" textLength="37.2969" x="2749" y="671.9951">base</text></g><!--cluster board--><g class="cluster" data-entity="board" data-source-line="40" data-uid="ent0014" id="cluster_board"><path d="M3054.5,614 L3101.5127,614 A3.75,3.75 0 0 1 3104.0127,616.5 L3111.0127,636.2969 L3589.5,636.2969 A2.5,2.5 0 0 1 3592,638.7969 L3592,983.5 A2.5,2.5 0 0 1 3589.5,986 L3054.5,986 A2.5,2.5 0 0 1 3052,983.5 L3052,616.5 A2.5,2.5 0 0 1 3054.5,614" fill="none" style="stroke:#000000;stroke-width:1.5;"/><line style="stroke:#000000;stroke-width:1.5;" x1="3052" x2="3111.0127" y1="636.2969" y2="636.2969"/><text fill="#000000" font-family="sans-serif" font-size="14" font-weight="bold" lengthAdjust="spacing" textLength="46.0127" x="3056" y="628.9951">board</text></g><!--cluster ui--><g class="cluster" data-entity="ui" data-source-line="51" data-uid="ent0016" id="cluster_ui"><path d="M3078.5,657 L3094.2656,657 A3.75,3.75 0 0 1 3096.7656,659.5 L3103.7656,679.2969 L3438.5,679.2969 A2.5,2.5 0 0 1 3441,681.7969 L3441,959.5 A2.5,2.5 0 0 1 3438.5,962 L3078.5,962 A2.5,2.5 0 0 1 3076,959.5 L3076,659.5 A2.5,2.5 0 0 1 3078.5,657" fill="none" style="stroke:#000000;stroke-width:1.5;"/><line style="stroke:#000000;stroke-width:1.5;" x1="3076" x2="3103.7656" y1="679.2969" y2="679.2969"/><text fill="#000000" font-family="sans-serif" font-size="14" font-weight="bold" lengthAdjust="spacing" textLength="14.7656" x="3080" y="671.9951">ui</text></g><!--cluster eval--><g class="cluster" data-entity="eval" data-source-line="73" data-uid="ent0021" id="cluster_eval"><path d="M2243.5,482 L2277.3672,482 A3.75,3.75 0 0 1 2279.8672,484.5 L2286.8672,504.2969 L2718.5,504.2969 A2.5,2.5 0 0 1 2721,506.7969 L2721,737.5 A2.5,2.5 0 0 1 2718.5,740 L2243.5,740 A2.5,2.5 0 0 1 2241,737.5 L2241,484.5 A2.5,2.5 0 0 1 2243.5,482" fill="none" style="stroke:#000000;stroke-width:1.5;"/><line style="stroke:#000000;stroke-width:1.5;" x1="2241" x2="2286.8672" y1="504.2969" y2="504.2969"/><text fill="#000000" font-family="sans-serif" font-size="14" font-weight="bold" lengthAdjust="spacing" textLength="32.8672" x="2245" y="496.9951">eval</text></g><!--cluster game--><g class="cluster" data-entity="game" data-source-line="96" data-uid="ent0026" id="cluster_game"><path d="M1085.5,439 L1130.0518,439 A3.75,3.75 0 0 1 1132.5518,441.5 L1139.5518,461.2969 L2214.5,461.2969 A2.5,2.5 0 0 1 2217,463.7969 L2217,737.5 A2.5,2.5 0 0 1 2214.5,740 L1085.5,740 A2.5,2.5 0 0 1 1083,737.5 L1083,441.5 A2.5,2.5 0 0 1 1085.5,439" fill="none" style="stroke:#000000;stroke-width:1.5;"/><line style="stroke:#000000;stroke-width:1.5;" x1="1083" x2="1139.5518" y1="461.2969" y2="461.2969"/><text fill="#000000" font-family="sans-serif" font-size="14" font-weight="bold" lengthAdjust="spacing" textLength="43.5518" x="1087" y="453.9951">game</text></g><!--cluster exceptions--><g class="cluster" data-entity="exceptions" data-source-line="129" data-uid="ent0031" id="cluster_exceptions"><path d="M1728.5,482 L1815.25,482 A3.75,3.75 0 0 1 1817.75,484.5 L1824.75,504.2969 L2190.5,504.2969 A2.5,2.5 0 0 1 2193,506.7969 L2193,562.5 A2.5,2.5 0 0 1 2190.5,565 L1728.5,565 A2.5,2.5 0 0 1 1726,562.5 L1726,484.5 A2.5,2.5 0 0 1 1728.5,482" fill="none" style="stroke:#000000;stroke-width:1.5;"/><line style="stroke:#000000;stroke-width:1.5;" x1="1726" x2="1824.75" y1="504.2969" y2="504.2969"/><text fill="#000000" font-family="sans-serif" font-size="14" font-weight="bold" lengthAdjust="spacing" textLength="85.75" x="1730" y="496.9951">exceptions</text></g><!--cluster screen--><g class="cluster" data-entity="screen" data-source-line="137" data-uid="ent0034" id="cluster_screen"><path d="M1391.5,482 L1444.9932,482 A3.75,3.75 0 0 1 1447.4932,484.5 L1454.4932,504.2969 L1699.5,504.2969 A2.5,2.5 0 0 1 1702,506.7969 L1702,562.5 A2.5,2.5 0 0 1 1699.5,565 L1391.5,565 A2.5,2.5 0 0 1 1389,562.5 L1389,484.5 A2.5,2.5 0 0 1 1391.5,482" fill="none" style="stroke:#000000;stroke-width:1.5;"/><line style="stroke:#000000;stroke-width:1.5;" x1="1389" x2="1454.4932" y1="504.2969" y2="504.2969"/><text fill="#000000" font-family="sans-serif" font-size="14" font-weight="bold" lengthAdjust="spacing" textLength="52.4932" x="1393" y="496.9951">screen</text></g><!--cluster player--><g class="cluster" data-entity="player" data-source-line="151" data-uid="ent0037" id="cluster_player"><path d="M202.5,221 L253.293,221 A3.75,3.75 0 0 1 255.793,223.5 L262.793,243.2969 L1056.5,243.2969 A2.5,2.5 0 0 1 1059,245.7969 L1059,737.5 A2.5,2.5 0 0 1 1056.5,740 L202.5,740 A2.5,2.5 0 0 1 200,737.5 L200,223.5 A2.5,2.5 0 0 1 202.5,221" fill="none" style="stroke:#000000;stroke-width:1.5;"/><line style="stroke:#000000;stroke-width:1.5;" x1="200" x2="262.793" y1="243.2969" y2="243.2969"/><text fill="#000000" font-family="sans-serif" font-size="14" font-weight="bold" lengthAdjust="spacing" textLength="49.793" x="204" y="235.9951">player</text></g><!--cluster bot--><g class="cluster" data-entity="bot" data-source-line="161" data-uid="ent0040" id="cluster_bot"><path d="M466.5,264 L493.832,264 A3.75,3.75 0 0 1 496.332,266.5 L503.332,286.2969 L898.5,286.2969 A2.5,2.5 0 0 1 901,288.7969 L901,562.5 A2.5,2.5 0 0 1 898.5,565 L466.5,565 A2.5,2.5 0 0 1 464,562.5 L464,266.5 A2.5,2.5 0 0 1 466.5,264" fill="none" style="stroke:#000000;stroke-width:1.5;"/><line style="stroke:#000000;stroke-width:1.5;" x1="464" x2="503.332" y1="286.2969" y2="286.2969"/><text fill="#000000" font-family="sans-serif" font-size="14" font-weight="bold" lengthAdjust="spacing" textLength="26.332" x="468" y="278.9951">bot</text></g><!--cluster minimax--><g class="cluster" data-entity="minimax" data-source-line="171" data-uid="ent0043" id="cluster_minimax"><path d="M490.5,307 L558.7178,307 A3.75,3.75 0 0 1 561.2178,309.5 L568.2178,329.2969 L874.5,329.2969 A2.5,2.5 0 0 1 877,331.7969 L877,387.5 A2.5,2.5 0 0 1 874.5,390 L490.5,390 A2.5,2.5 0 0 1 488,387.5 L488,309.5 A2.5,2.5 0 0 1 490.5,307" fill="none" style="stroke:#000000;stroke-width:1.5;"/><line style="stroke:#000000;stroke-width:1.5;" x1="488" x2="568.2178" y1="329.2969" y2="329.2969"/><text fill="#000000" font-family="sans-serif" font-size="14" font-weight="bold" lengthAdjust="spacing" textLength="67.2178" x="492" y="321.9951">minimax</text></g><!--cluster exceptions--><g class="cluster" data-entity="exceptions" data-source-line="184" data-uid="ent0046" id="cluster_exceptions"><path d="M226.5,307 L313.25,307 A3.75,3.75 0 0 1 315.75,309.5 L322.75,329.2969 L437.5,329.2969 A2.5,2.5 0 0 1 440,331.7969 L440,387.5 A2.5,2.5 0 0 1 437.5,390 L226.5,390 A2.5,2.5 0 0 1 224,387.5 L224,309.5 A2.5,2.5 0 0 1 226.5,307" fill="none" style="stroke:#000000;stroke-width:1.5;"/><line style="stroke:#000000;stroke-width:1.5;" x1="224" x2="322.75" y1="329.2969" y2="329.2969"/><text fill="#000000" font-family="sans-serif" font-size="14" font-weight="bold" lengthAdjust="spacing" textLength="85.75" x="228" y="321.9951">exceptions</text></g><!--class Main--><g class="entity" data-entity="Main" data-source-line="2" data-uid="ent0002" id="entity_Main"><rect fill="#F1F1F1" height="32" rx="2.5" ry="2.5" style="stroke:#181818;stroke-width:0.5;" width="65.4209" x="118.5" y="342"/><ellipse cx="133.5" cy="358" fill="#ADD1B2" rx="11" ry="11" style="stroke:#181818;stroke-width:1;"/><path d="M136.4688,363.6406 Q135.8906,363.9375 135.25,364.0781 Q134.6094,364.2344 133.9063,364.2344 Q131.4063,364.2344 130.0781,362.5938 Q128.7656,360.9375 128.7656,357.8125 Q128.7656,354.6875 130.0781,353.0313 Q131.4063,351.375 133.9063,351.375 Q134.6094,351.375 135.25,351.5313 Q135.9063,351.6875 136.4688,351.9844 L136.4688,354.7031 Q135.8438,354.125 135.25,353.8594 Q134.6563,353.5781 134.0313,353.5781 Q132.6875,353.5781 132,354.6563 Q131.3125,355.7188 131.3125,357.8125 Q131.3125,359.9063 132,360.9844 Q132.6875,362.0469 134.0313,362.0469 Q134.6563,362.0469 135.25,361.7813 Q135.8438,361.5 136.4688,360.9219 L136.4688,363.6406 Z " fill="#000000"/><text fill="#000000" font-family="sans-serif" font-size="14" lengthAdjust="spacing" textLength="33.4209" x="147.5" y="362.8467">Main</text></g><!--class FenUtil--><g class="entity" data-entity="FenUtil" data-source-line="7" data-uid="ent0008" id="entity_FenUtil"><rect fill="#F1F1F1" height="32" rx="2.5" ry="2.5" style="stroke:#181818;stroke-width:0.5;" width="81.0547" x="2924.5" y="692"/><ellipse cx="2939.5" cy="708" fill="#ADD1B2" rx="11" ry="11" style="stroke:#181818;stroke-width:1;"/><path d="M2942.4688,713.6406 Q2941.8906,713.9375 2941.25,714.0781 Q2940.6094,714.2344 2939.9063,714.2344 Q2937.4063,714.2344 2936.0781,712.5938 Q2934.7656,710.9375 2934.7656,707.8125 Q2934.7656,704.6875 2936.0781,703.0313 Q2937.4063,701.375 2939.9063,701.375 Q2940.6094,701.375 2941.25,701.5313 Q2941.9063,701.6875 2942.4688,701.9844 L2942.4688,704.7031 Q2941.8438,704.125 2941.25,703.8594 Q2940.6563,703.5781 2940.0313,703.5781 Q2938.6875,703.5781 2938,704.6563 Q2937.3125,705.7188 2937.3125,707.8125 Q2937.3125,709.9063 2938,710.9844 Q2938.6875,712.0469 2940.0313,712.0469 Q2940.6563,712.0469 2941.25,711.7813 Q2941.8438,711.5 2942.4688,710.9219 L2942.4688,713.6406 Z " fill="#000000"/><text fill="#000000" font-family="sans-serif" font-size="14" lengthAdjust="spacing" textLength="49.0547" x="2953.5" y="712.8467">FenUtil</text></g><!--class Piece--><g class="entity" data-entity="Piece" data-source-line="13" data-uid="ent0010" id="entity_Piece"><rect fill="#F1F1F1" height="32" rx="2.5" ry="2.5" style="stroke:#181818;stroke-width:0.5;" width="69.2559" x="2798.5" y="692"/><ellipse cx="2813.5" cy="708" fill="#ADD1B2" rx="11" ry="11" style="stroke:#181818;stroke-width:1;"/><path d="M2816.4688,713.6406 Q2815.8906,713.9375 2815.25,714.0781 Q2814.6094,714.2344 2813.9063,714.2344 Q2811.4063,714.2344 2810.0781,712.5938 Q2808.7656,710.9375 2808.7656,707.8125 Q2808.7656,704.6875 2810.0781,703.0313 Q2811.4063,701.375 2813.9063,701.375 Q2814.6094,701.375 2815.25,701.5313 Q2815.9063,701.6875 2816.4688,701.9844 L2816.4688,704.7031 Q2815.8438,704.125 2815.25,703.8594 Q2814.6563,703.5781 2814.0313,703.5781 Q2812.6875,703.5781 2812,704.6563 Q2811.3125,705.7188 2811.3125,707.8125 Q2811.3125,709.9063 2812,710.9844 Q2812.6875,712.0469 2814.0313,712.0469 Q2814.6563,712.0469 2815.25,711.7813 Q2815.8438,711.5 2816.4688,710.9219 L2816.4688,713.6406 Z " fill="#000000"/><text fill="#000000" font-family="sans-serif" font-size="14" lengthAdjust="spacing" textLength="37.2559" x="2827.5" y="712.8467">Piece</text></g><!--class PieceType--><g class="entity" data-entity="PieceType" data-source-line="24" data-uid="ent0011" id="entity_PieceType"><rect fill="#F1F1F1" height="32" rx="2.5" ry="2.5" style="stroke:#181818;stroke-width:0.5;" width="103.5928" x="2908" y="803"/><ellipse cx="2923" cy="819" fill="#EB937F" rx="11" ry="11" style="stroke:#181818;stroke-width:1;"/><path d="M2927.1094,825 L2919.3906,825 L2919.3906,812.6094 L2927.1094,812.6094 L2927.1094,814.7656 L2921.8438,814.7656 L2921.8438,817.4375 L2926.6094,817.4375 L2926.6094,819.5938 L2921.8438,819.5938 L2921.8438,822.8438 L2927.1094,822.8438 L2927.1094,825 Z " fill="#000000"/><text fill="#000000" font-family="sans-serif" font-size="14" lengthAdjust="spacing" textLength="71.5928" x="2937" y="823.8467">PieceType</text></g><!--class PlayerColor--><g class="entity" data-entity="PlayerColor" data-source-line="34" data-uid="ent0012" id="entity_PlayerColor"><rect fill="#F1F1F1" height="32" rx="2.5" ry="2.5" style="stroke:#181818;stroke-width:0.5;" width="112.1172" x="2761" y="803"/><ellipse cx="2776" cy="819" fill="#EB937F" rx="11" ry="11" style="stroke:#181818;stroke-width:1;"/><path d="M2780.1094,825 L2772.3906,825 L2772.3906,812.6094 L2780.1094,812.6094 L2780.1094,814.7656 L2774.8438,814.7656 L2774.8438,817.4375 L2779.6094,817.4375 L2779.6094,819.5938 L2774.8438,819.5938 L2774.8438,822.8438 L2780.1094,822.8438 L2780.1094,825 Z " fill="#000000"/><text fill="#000000" font-family="sans-serif" font-size="14" lengthAdjust="spacing" textLength="80.1172" x="2790" y="823.8467">PlayerColor</text></g><!--class ChessBoard--><g class="entity" data-entity="ChessBoard" data-source-line="40" data-uid="ent0013" id="entity_ChessBoard"><rect fill="#F1F1F1" height="32" rx="2.5" ry="2.5" style="stroke:#181818;stroke-width:0.5;" width="115.2412" x="3460.5" y="692"/><ellipse cx="3475.5" cy="708" fill="#ADD1B2" rx="11" ry="11" style="stroke:#181818;stroke-width:1;"/><path d="M3478.4688,713.6406 Q3477.8906,713.9375 3477.25,714.0781 Q3476.6094,714.2344 3475.9063,714.2344 Q3473.4063,714.2344 3472.0781,712.5938 Q3470.7656,710.9375 3470.7656,707.8125 Q3470.7656,704.6875 3472.0781,703.0313 Q3473.4063,701.375 3475.9063,701.375 Q3476.6094,701.375 3477.25,701.5313 Q3477.9063,701.6875 3478.4688,701.9844 L3478.4688,704.7031 Q3477.8438,704.125 3477.25,703.8594 Q3476.6563,703.5781 3476.0313,703.5781 Q3474.6875,703.5781 3474,704.6563 Q3473.3125,705.7188 3473.3125,707.8125 Q3473.3125,709.9063 3474,710.9844 Q3474.6875,712.0469 3476.0313,712.0469 Q3476.6563,712.0469 3477.25,711.7813 Q3477.8438,711.5 3478.4688,710.9219 L3478.4688,713.6406 Z " fill="#000000"/><text fill="#000000" font-family="sans-serif" font-size="14" lengthAdjust="spacing" textLength="83.2412" x="3489.5" y="712.8467">ChessBoard</text></g><!--class BoardRenderer--><g class="entity" data-entity="BoardRenderer" data-source-line="51" data-uid="ent0015" id="entity_BoardRenderer"><rect fill="#F1F1F1" height="32" rx="2.5" ry="2.5" style="stroke:#181818;stroke-width:0.5;" width="138.2305" x="3257" y="803"/><ellipse cx="3272" cy="819" fill="#ADD1B2" rx="11" ry="11" style="stroke:#181818;stroke-width:1;"/><path d="M3274.9688,824.6406 Q3274.3906,824.9375 3273.75,825.0781 Q3273.1094,825.2344 3272.4063,825.2344 Q3269.9063,825.2344 3268.5781,823.5938 Q3267.2656,821.9375 3267.2656,818.8125 Q3267.2656,815.6875 3268.5781,814.0313 Q3269.9063,812.375 3272.4063,812.375 Q3273.1094,812.375 3273.75,812.5313 Q3274.4063,812.6875 3274.9688,812.9844 L3274.9688,815.7031 Q3274.3438,815.125 3273.75,814.8594 Q3273.1563,814.5781 3272.5313,814.5781 Q3271.1875,814.5781 3270.5,815.6563 Q3269.8125,816.7188 3269.8125,818.8125 Q3269.8125,820.9063 3270.5,821.9844 Q3271.1875,823.0469 3272.5313,823.0469 Q3273.1563,823.0469 3273.75,822.7813 Q3274.3438,822.5 3274.9688,821.9219 L3274.9688,824.6406 Z " fill="#000000"/><text fill="#000000" font-family="sans-serif" font-size="14" lengthAdjust="spacing" textLength="106.2305" x="3286" y="823.8467">BoardRenderer</text></g><!--class ChessBoardRenderer--><g class="entity" data-entity="ChessBoardRenderer" data-source-line="56" data-uid="ent0017" id="entity_ChessBoardRenderer"><rect fill="#F1F1F1" height="32" rx="2.5" ry="2.5" style="stroke:#181818;stroke-width:0.5;" width="180.0801" x="3245" y="692"/><ellipse cx="3260" cy="708" fill="#ADD1B2" rx="11" ry="11" style="stroke:#181818;stroke-width:1;"/><path d="M3262.9688,713.6406 Q3262.3906,713.9375 3261.75,714.0781 Q3261.1094,714.2344 3260.4063,714.2344 Q3257.9063,714.2344 3256.5781,712.5938 Q3255.2656,710.9375 3255.2656,707.8125 Q3255.2656,704.6875 3256.5781,703.0313 Q3257.9063,701.375 3260.4063,701.375 Q3261.1094,701.375 3261.75,701.5313 Q3262.4063,701.6875 3262.9688,701.9844 L3262.9688,704.7031 Q3262.3438,704.125 3261.75,703.8594 Q3261.1563,703.5781 3260.5313,703.5781 Q3259.1875,703.5781 3258.5,704.6563 Q3257.8125,705.7188 3257.8125,707.8125 Q3257.8125,709.9063 3258.5,710.9844 Q3259.1875,712.0469 3260.5313,712.0469 Q3261.1563,712.0469 3261.75,711.7813 Q3262.3438,711.5 3262.9688,710.9219 L3262.9688,713.6406 Z " fill="#000000"/><text fill="#000000" font-family="sans-serif" font-size="14" lengthAdjust="spacing" textLength="148.0801" x="3274" y="712.8467">ChessBoardRenderer</text></g><!--class FieldRenderer--><g class="entity" data-entity="FieldRenderer" data-source-line="62" data-uid="ent0018" id="entity_FieldRenderer"><rect fill="#F1F1F1" height="32" rx="2.5" ry="2.5" style="stroke:#181818;stroke-width:0.5;" width="130.1709" x="3261" y="914"/><ellipse cx="3276" cy="930" fill="#B4A7E5" rx="11" ry="11" style="stroke:#181818;stroke-width:1;"/><path d="M3271.9219,925.7656 L3271.9219,923.6094 L3279.3125,923.6094 L3279.3125,925.7656 L3276.8438,925.7656 L3276.8438,933.8438 L3279.3125,933.8438 L3279.3125,936 L3271.9219,936 L3271.9219,933.8438 L3274.3906,933.8438 L3274.3906,925.7656 L3271.9219,925.7656 Z " fill="#000000"/><text fill="#000000" font-family="sans-serif" font-size="14" font-style="italic" lengthAdjust="spacing" textLength="98.1709" x="3290" y="934.8467">FieldRenderer</text></g><!--class SquareColor--><g class="entity" data-entity="SquareColor" data-source-line="67" data-uid="ent0019" id="entity_SquareColor"><rect fill="#F1F1F1" height="32" rx="2.5" ry="2.5" style="stroke:#181818;stroke-width:0.5;" width="118.1465" x="3092" y="692"/><ellipse cx="3107" cy="708" fill="#EB937F" rx="11" ry="11" style="stroke:#181818;stroke-width:1;"/><path d="M3111.1094,714 L3103.3906,714 L3103.3906,701.6094 L3111.1094,701.6094 L3111.1094,703.7656 L3105.8438,703.7656 L3105.8438,706.4375 L3110.6094,706.4375 L3110.6094,708.5938 L3105.8438,708.5938 L3105.8438,711.8438 L3111.1094,711.8438 L3111.1094,714 Z " fill="#000000"/><text fill="#000000" font-family="sans-serif" font-size="14" lengthAdjust="spacing" textLength="86.1465" x="3121" y="712.8467">SquareColor</text></g><!--class EvalStrategy--><g class="entity" data-entity="EvalStrategy" data-source-line="73" data-uid="ent0020" id="entity_EvalStrategy"><rect fill="#F1F1F1" height="32" rx="2.5" ry="2.5" style="stroke:#181818;stroke-width:0.5;" width="121.585" x="2410" y="692"/><ellipse cx="2425" cy="708" fill="#B4A7E5" rx="11" ry="11" style="stroke:#181818;stroke-width:1;"/><path d="M2420.9219,703.7656 L2420.9219,701.6094 L2428.3125,701.6094 L2428.3125,703.7656 L2425.8438,703.7656 L2425.8438,711.8438 L2428.3125,711.8438 L2428.3125,714 L2420.9219,714 L2420.9219,711.8438 L2423.3906,711.8438 L2423.3906,703.7656 L2420.9219,703.7656 Z " fill="#000000"/><text fill="#000000" font-family="sans-serif" font-size="14" font-style="italic" lengthAdjust="spacing" textLength="89.585" x="2439" y="712.8467">EvalStrategy</text></g><!--class MateAwareEval--><g class="entity" data-entity="MateAwareEval" data-source-line="78" data-uid="ent0022" id="entity_MateAwareEval"><rect fill="#F1F1F1" height="32" rx="2.5" ry="2.5" style="stroke:#181818;stroke-width:0.5;" width="140.3359" x="2565" y="517"/><ellipse cx="2580" cy="533" fill="#ADD1B2" rx="11" ry="11" style="stroke:#181818;stroke-width:1;"/><path d="M2582.9688,538.6406 Q2582.3906,538.9375 2581.75,539.0781 Q2581.1094,539.2344 2580.4063,539.2344 Q2577.9063,539.2344 2576.5781,537.5938 Q2575.2656,535.9375 2575.2656,532.8125 Q2575.2656,529.6875 2576.5781,528.0313 Q2577.9063,526.375 2580.4063,526.375 Q2581.1094,526.375 2581.75,526.5313 Q2582.4063,526.6875 2582.9688,526.9844 L2582.9688,529.7031 Q2582.3438,529.125 2581.75,528.8594 Q2581.1563,528.5781 2580.5313,528.5781 Q2579.1875,528.5781 2578.5,529.6563 Q2577.8125,530.7188 2577.8125,532.8125 Q2577.8125,534.9063 2578.5,535.9844 Q2579.1875,537.0469 2580.5313,537.0469 Q2581.1563,537.0469 2581.75,536.7813 Q2582.3438,536.5 2582.9688,535.9219 L2582.9688,538.6406 Z " fill="#000000"/><text fill="#000000" font-family="sans-serif" font-size="14" lengthAdjust="spacing" textLength="108.3359" x="2594" y="537.8467">MateAwareEval</text></g><!--class MaterialEval--><g class="entity" data-entity="MaterialEval" data-source-line="84" data-uid="ent0023" id="entity_MaterialEval"><rect fill="#F1F1F1" height="32" rx="2.5" ry="2.5" style="stroke:#181818;stroke-width:0.5;" width="118.4746" x="2412" y="517"/><ellipse cx="2427" cy="533" fill="#ADD1B2" rx="11" ry="11" style="stroke:#181818;stroke-width:1;"/><path d="M2429.9688,538.6406 Q2429.3906,538.9375 2428.75,539.0781 Q2428.1094,539.2344 2427.4063,539.2344 Q2424.9063,539.2344 2423.5781,537.5938 Q2422.2656,535.9375 2422.2656,532.8125 Q2422.2656,529.6875 2423.5781,528.0313 Q2424.9063,526.375 2427.4063,526.375 Q2428.1094,526.375 2428.75,526.5313 Q2429.4063,526.6875 2429.9688,526.9844 L2429.9688,529.7031 Q2429.3438,529.125 2428.75,528.8594 Q2428.1563,528.5781 2427.5313,528.5781 Q2426.1875,528.5781 2425.5,529.6563 Q2424.8125,530.7188 2424.8125,532.8125 Q2424.8125,534.9063 2425.5,535.9844 Q2426.1875,537.0469 2427.5313,537.0469 Q2428.1563,537.0469 2428.75,536.7813 Q2429.3438,536.5 2429.9688,535.9219 L2429.9688,538.6406 Z " fill="#000000"/><text fill="#000000" font-family="sans-serif" font-size="14" lengthAdjust="spacing" textLength="86.4746" x="2441" y="537.8467">MaterialEval</text></g><!--class RandomEval--><g class="entity" data-entity="RandomEval" data-source-line="91" data-uid="ent0024" id="entity_RandomEval"><rect fill="#F1F1F1" height="32" rx="2.5" ry="2.5" style="stroke:#181818;stroke-width:0.5;" width="119.8691" x="2257" y="517"/><ellipse cx="2272" cy="533" fill="#ADD1B2" rx="11" ry="11" style="stroke:#181818;stroke-width:1;"/><path d="M2274.9688,538.6406 Q2274.3906,538.9375 2273.75,539.0781 Q2273.1094,539.2344 2272.4063,539.2344 Q2269.9063,539.2344 2268.5781,537.5938 Q2267.2656,535.9375 2267.2656,532.8125 Q2267.2656,529.6875 2268.5781,528.0313 Q2269.9063,526.375 2272.4063,526.375 Q2273.1094,526.375 2273.75,526.5313 Q2274.4063,526.6875 2274.9688,526.9844 L2274.9688,529.7031 Q2274.3438,529.125 2273.75,528.8594 Q2273.1563,528.5781 2272.5313,528.5781 Q2271.1875,528.5781 2270.5,529.6563 Q2269.8125,530.7188 2269.8125,532.8125 Q2269.8125,534.9063 2270.5,535.9844 Q2271.1875,537.0469 2272.5313,537.0469 Q2273.1563,537.0469 2273.75,536.7813 Q2274.3438,536.5 2274.9688,535.9219 L2274.9688,538.6406 Z " fill="#000000"/><text fill="#000000" font-family="sans-serif" font-size="14" lengthAdjust="spacing" textLength="87.8691" x="2286" y="537.8467">RandomEval</text></g><!--class ChessGame--><g class="entity" data-entity="ChessGame" data-source-line="96" data-uid="ent0025" id="entity_ChessGame"><rect fill="#F1F1F1" height="32" rx="2.5" ry="2.5" style="stroke:#181818;stroke-width:0.5;" width="115.5283" x="1254" y="517"/><ellipse cx="1269" cy="533" fill="#ADD1B2" rx="11" ry="11" style="stroke:#181818;stroke-width:1;"/><path d="M1271.9688,538.6406 Q1271.3906,538.9375 1270.75,539.0781 Q1270.1094,539.2344 1269.4063,539.2344 Q1266.9063,539.2344 1265.5781,537.5938 Q1264.2656,535.9375 1264.2656,532.8125 Q1264.2656,529.6875 1265.5781,528.0313 Q1266.9063,526.375 1269.4063,526.375 Q1270.1094,526.375 1270.75,526.5313 Q1271.4063,526.6875 1271.9688,526.9844 L1271.9688,529.7031 Q1271.3438,529.125 1270.75,528.8594 Q1270.1563,528.5781 1269.5313,528.5781 Q1268.1875,528.5781 1267.5,529.6563 Q1266.8125,530.7188 1266.8125,532.8125 Q1266.8125,534.9063 1267.5,535.9844 Q1268.1875,537.0469 1269.5313,537.0469 Q1270.1563,537.0469 1270.75,536.7813 Q1271.3438,536.5 1271.9688,535.9219 L1271.9688,538.6406 Z " fill="#000000"/><text fill="#000000" font-family="sans-serif" font-size="14" lengthAdjust="spacing" textLength="83.5283" x="1283" y="537.8467">ChessGame</text></g><!--class InputReader--><g class="entity" data-entity="InputReader" data-source-line="104" data-uid="ent0027" id="entity_InputReader"><rect fill="#F1F1F1" height="32" rx="2.5" ry="2.5" style="stroke:#181818;stroke-width:0.5;" width="118.4268" x="1211" y="692"/><ellipse cx="1226" cy="708" fill="#ADD1B2" rx="11" ry="11" style="stroke:#181818;stroke-width:1;"/><path d="M1228.9688,713.6406 Q1228.3906,713.9375 1227.75,714.0781 Q1227.1094,714.2344 1226.4063,714.2344 Q1223.9063,714.2344 1222.5781,712.5938 Q1221.2656,710.9375 1221.2656,707.8125 Q1221.2656,704.6875 1222.5781,703.0313 Q1223.9063,701.375 1226.4063,701.375 Q1227.1094,701.375 1227.75,701.5313 Q1228.4063,701.6875 1228.9688,701.9844 L1228.9688,704.7031 Q1228.3438,704.125 1227.75,703.8594 Q1227.1563,703.5781 1226.5313,703.5781 Q1225.1875,703.5781 1224.5,704.6563 Q1223.8125,705.7188 1223.8125,707.8125 Q1223.8125,709.9063 1224.5,710.9844 Q1225.1875,712.0469 1226.5313,712.0469 Q1227.1563,712.0469 1227.75,711.7813 Q1228.3438,711.5 1228.9688,710.9219 L1228.9688,713.6406 Z " fill="#000000"/><text fill="#000000" font-family="sans-serif" font-size="14" lengthAdjust="spacing" textLength="86.4268" x="1240" y="712.8467">InputReader</text></g><!--class MatchConfig--><g class="entity" data-entity="MatchConfig" data-source-line="110" data-uid="ent0028" id="entity_MatchConfig"><rect fill="#F1F1F1" height="32" rx="2.5" ry="2.5" style="stroke:#181818;stroke-width:0.5;" width="119.6367" x="1099" y="517"/><ellipse cx="1114" cy="533" fill="#ADD1B2" rx="11" ry="11" style="stroke:#181818;stroke-width:1;"/><path d="M1116.9688,538.6406 Q1116.3906,538.9375 1115.75,539.0781 Q1115.1094,539.2344 1114.4063,539.2344 Q1111.9063,539.2344 1110.5781,537.5938 Q1109.2656,535.9375 1109.2656,532.8125 Q1109.2656,529.6875 1110.5781,528.0313 Q1111.9063,526.375 1114.4063,526.375 Q1115.1094,526.375 1115.75,526.5313 Q1116.4063,526.6875 1116.9688,526.9844 L1116.9688,529.7031 Q1116.3438,529.125 1115.75,528.8594 Q1115.1563,528.5781 1114.5313,528.5781 Q1113.1875,528.5781 1112.5,529.6563 Q1111.8125,530.7188 1111.8125,532.8125 Q1111.8125,534.9063 1112.5,535.9844 Q1113.1875,537.0469 1114.5313,537.0469 Q1115.1563,537.0469 1115.75,536.7813 Q1116.3438,536.5 1116.9688,535.9219 L1116.9688,538.6406 Z " fill="#000000"/><text fill="#000000" font-family="sans-serif" font-size="14" lengthAdjust="spacing" textLength="87.6367" x="1128" y="537.8467">MatchConfig</text></g><!--class OutputWriter--><g class="entity" data-entity="OutputWriter" data-source-line="119" data-uid="ent0029" id="entity_OutputWriter"><rect fill="#F1F1F1" height="32" rx="2.5" ry="2.5" style="stroke:#181818;stroke-width:0.5;" width="123.9775" x="1484" y="692"/><ellipse cx="1499" cy="708" fill="#ADD1B2" rx="11" ry="11" style="stroke:#181818;stroke-width:1;"/><path d="M1501.9688,713.6406 Q1501.3906,713.9375 1500.75,714.0781 Q1500.1094,714.2344 1499.4063,714.2344 Q1496.9063,714.2344 1495.5781,712.5938 Q1494.2656,710.9375 1494.2656,707.8125 Q1494.2656,704.6875 1495.5781,703.0313 Q1496.9063,701.375 1499.4063,701.375 Q1500.1094,701.375 1500.75,701.5313 Q1501.4063,701.6875 1501.9688,701.9844 L1501.9688,704.7031 Q1501.3438,704.125 1500.75,703.8594 Q1500.1563,703.5781 1499.5313,703.5781 Q1498.1875,703.5781 1497.5,704.6563 Q1496.8125,705.7188 1496.8125,707.8125 Q1496.8125,709.9063 1497.5,710.9844 Q1498.1875,712.0469 1499.5313,712.0469 Q1500.1563,712.0469 1500.75,711.7813 Q1501.3438,711.5 1501.9688,710.9219 L1501.9688,713.6406 Z " fill="#000000"/><text fill="#000000" font-family="sans-serif" font-size="14" lengthAdjust="spacing" textLength="91.9775" x="1513" y="712.8467">OutputWriter</text></g><!--class GameAbortedException--><g class="entity" data-entity="GameAbortedException" data-source-line="129" data-uid="ent0030" id="entity_GameAbortedException"><rect fill="#F1F1F1" height="32" rx="2.5" ry="2.5" style="stroke:#181818;stroke-width:0.5;" width="198.5986" x="1977.5" y="517"/><ellipse cx="1992.5" cy="533" fill="#ADD1B2" rx="11" ry="11" style="stroke:#181818;stroke-width:1;"/><path d="M1995.4688,538.6406 Q1994.8906,538.9375 1994.25,539.0781 Q1993.6094,539.2344 1992.9063,539.2344 Q1990.4063,539.2344 1989.0781,537.5938 Q1987.7656,535.9375 1987.7656,532.8125 Q1987.7656,529.6875 1989.0781,528.0313 Q1990.4063,526.375 1992.9063,526.375 Q1993.6094,526.375 1994.25,526.5313 Q1994.9063,526.6875 1995.4688,526.9844 L1995.4688,529.7031 Q1994.8438,529.125 1994.25,528.8594 Q1993.6563,528.5781 1993.0313,528.5781 Q1991.6875,528.5781 1991,529.6563 Q1990.3125,530.7188 1990.3125,532.8125 Q1990.3125,534.9063 1991,535.9844 Q1991.6875,537.0469 1993.0313,537.0469 Q1993.6563,537.0469 1994.25,536.7813 Q1994.8438,536.5 1995.4688,535.9219 L1995.4688,538.6406 Z " fill="#000000"/><text fill="#000000" font-family="sans-serif" font-size="14" lengthAdjust="spacing" textLength="166.5986" x="2006.5" y="537.8467">GameAbortedException</text></g><!--class MatchAbortedException--><g class="entity" data-entity="MatchAbortedException" data-source-line="133" data-uid="ent0032" id="entity_MatchAbortedException"><rect fill="#F1F1F1" height="32" rx="2.5" ry="2.5" style="stroke:#181818;stroke-width:0.5;" width="199.6377" x="1742" y="517"/><ellipse cx="1757" cy="533" fill="#ADD1B2" rx="11" ry="11" style="stroke:#181818;stroke-width:1;"/><path d="M1759.9688,538.6406 Q1759.3906,538.9375 1758.75,539.0781 Q1758.1094,539.2344 1757.4063,539.2344 Q1754.9063,539.2344 1753.5781,537.5938 Q1752.2656,535.9375 1752.2656,532.8125 Q1752.2656,529.6875 1753.5781,528.0313 Q1754.9063,526.375 1757.4063,526.375 Q1758.1094,526.375 1758.75,526.5313 Q1759.4063,526.6875 1759.9688,526.9844 L1759.9688,529.7031 Q1759.3438,529.125 1758.75,528.8594 Q1758.1563,528.5781 1757.5313,528.5781 Q1756.1875,528.5781 1755.5,529.6563 Q1754.8125,530.7188 1754.8125,532.8125 Q1754.8125,534.9063 1755.5,535.9844 Q1756.1875,537.0469 1757.5313,537.0469 Q1758.1563,537.0469 1758.75,536.7813 Q1759.3438,536.5 1759.9688,535.9219 L1759.9688,538.6406 Z " fill="#000000"/><text fill="#000000" font-family="sans-serif" font-size="14" lengthAdjust="spacing" textLength="167.6377" x="1771" y="537.8467">MatchAbortedException</text></g><!--class HomeScreen--><g class="entity" data-entity="HomeScreen" data-source-line="137" data-uid="ent0033" id="entity_HomeScreen"><rect fill="#F1F1F1" height="32" rx="2.5" ry="2.5" style="stroke:#181818;stroke-width:0.5;" width="121.7832" x="1564" y="517"/><ellipse cx="1579" cy="533" fill="#ADD1B2" rx="11" ry="11" style="stroke:#181818;stroke-width:1;"/><path d="M1581.9688,538.6406 Q1581.3906,538.9375 1580.75,539.0781 Q1580.1094,539.2344 1579.4063,539.2344 Q1576.9063,539.2344 1575.5781,537.5938 Q1574.2656,535.9375 1574.2656,532.8125 Q1574.2656,529.6875 1575.5781,528.0313 Q1576.9063,526.375 1579.4063,526.375 Q1580.1094,526.375 1580.75,526.5313 Q1581.4063,526.6875 1581.9688,526.9844 L1581.9688,529.7031 Q1581.3438,529.125 1580.75,528.8594 Q1580.1563,528.5781 1579.5313,528.5781 Q1578.1875,528.5781 1577.5,529.6563 Q1576.8125,530.7188 1576.8125,532.8125 Q1576.8125,534.9063 1577.5,535.9844 Q1578.1875,537.0469 1579.5313,537.0469 Q1580.1563,537.0469 1580.75,536.7813 Q1581.3438,536.5 1581.9688,535.9219 L1581.9688,538.6406 Z " fill="#000000"/><text fill="#000000" font-family="sans-serif" font-size="14" lengthAdjust="spacing" textLength="89.7832" x="1593" y="537.8467">HomeScreen</text></g><!--class MatchScreen--><g class="entity" data-entity="MatchScreen" data-source-line="143" data-uid="ent0035" id="entity_MatchScreen"><rect fill="#F1F1F1" height="32" rx="2.5" ry="2.5" style="stroke:#181818;stroke-width:0.5;" width="123.1572" x="1405.5" y="517"/><ellipse cx="1420.5" cy="533" fill="#ADD1B2" rx="11" ry="11" style="stroke:#181818;stroke-width:1;"/><path d="M1423.4688,538.6406 Q1422.8906,538.9375 1422.25,539.0781 Q1421.6094,539.2344 1420.9063,539.2344 Q1418.4063,539.2344 1417.0781,537.5938 Q1415.7656,535.9375 1415.7656,532.8125 Q1415.7656,529.6875 1417.0781,528.0313 Q1418.4063,526.375 1420.9063,526.375 Q1421.6094,526.375 1422.25,526.5313 Q1422.9063,526.6875 1423.4688,526.9844 L1423.4688,529.7031 Q1422.8438,529.125 1422.25,528.8594 Q1421.6563,528.5781 1421.0313,528.5781 Q1419.6875,528.5781 1419,529.6563 Q1418.3125,530.7188 1418.3125,532.8125 Q1418.3125,534.9063 1419,535.9844 Q1419.6875,537.0469 1421.0313,537.0469 Q1421.6563,537.0469 1422.25,536.7813 Q1422.8438,536.5 1423.4688,535.9219 L1423.4688,538.6406 Z " fill="#000000"/><text fill="#000000" font-family="sans-serif" font-size="14" lengthAdjust="spacing" textLength="91.1572" x="1434.5" y="537.8467">MatchScreen</text></g><!--class AbstractPlayer--><g class="entity" data-entity="AbstractPlayer" data-source-line="151" data-uid="ent0036" id="entity_AbstractPlayer"><rect fill="#F1F1F1" height="32" rx="2.5" ry="2.5" style="stroke:#181818;stroke-width:0.5;" width="134.334" x="548" y="692"/><ellipse cx="563" cy="708" fill="#A9DCDF" rx="11" ry="11" style="stroke:#181818;stroke-width:1;"/><path d="M563.1094,703.3438 L561.9531,708.4219 L564.2813,708.4219 L563.1094,703.3438 Z M561.625,701.1094 L564.6094,701.1094 L567.9688,713.5 L565.5156,713.5 L564.75,710.4375 L561.4688,710.4375 L560.7188,713.5 L558.2813,713.5 L561.625,701.1094 Z " fill="#000000"/><text fill="#000000" font-family="sans-serif" font-size="14" font-style="italic" lengthAdjust="spacing" textLength="102.334" x="577" y="712.8467">AbstractPlayer</text></g><!--class HumanPlayer--><g class="entity" data-entity="HumanPlayer" data-source-line="156" data-uid="ent0038" id="entity_HumanPlayer"><rect fill="#F1F1F1" height="32" rx="2.5" ry="2.5" style="stroke:#181818;stroke-width:0.5;" width="126.0557" x="917" y="517"/><ellipse cx="932" cy="533" fill="#ADD1B2" rx="11" ry="11" style="stroke:#181818;stroke-width:1;"/><path d="M934.9688,538.6406 Q934.3906,538.9375 933.75,539.0781 Q933.1094,539.2344 932.4063,539.2344 Q929.9063,539.2344 928.5781,537.5938 Q927.2656,535.9375 927.2656,532.8125 Q927.2656,529.6875 928.5781,528.0313 Q929.9063,526.375 932.4063,526.375 Q933.1094,526.375 933.75,526.5313 Q934.4063,526.6875 934.9688,526.9844 L934.9688,529.7031 Q934.3438,529.125 933.75,528.8594 Q933.1563,528.5781 932.5313,528.5781 Q931.1875,528.5781 930.5,529.6563 Q929.8125,530.7188 929.8125,532.8125 Q929.8125,534.9063 930.5,535.9844 Q931.1875,537.0469 932.5313,537.0469 Q933.1563,537.0469 933.75,536.7813 Q934.3438,536.5 934.9688,535.9219 L934.9688,538.6406 Z " fill="#000000"/><text fill="#000000" font-family="sans-serif" font-size="14" lengthAdjust="spacing" textLength="94.0557" x="946" y="537.8467">HumanPlayer</text></g><!--class BotPlayer--><g class="entity" data-entity="BotPlayer" data-source-line="161" data-uid="ent0039" id="entity_BotPlayer"><rect fill="#F1F1F1" height="32" rx="2.5" ry="2.5" style="stroke:#181818;stroke-width:0.5;" width="99.2246" x="486.5" y="517"/><ellipse cx="501.5" cy="533" fill="#A9DCDF" rx="11" ry="11" style="stroke:#181818;stroke-width:1;"/><path d="M501.6094,528.3438 L500.4531,533.4219 L502.7813,533.4219 L501.6094,528.3438 Z M500.125,526.1094 L503.1094,526.1094 L506.4688,538.5 L504.0156,538.5 L503.25,535.4375 L499.9688,535.4375 L499.2188,538.5 L496.7813,538.5 L500.125,526.1094 Z " fill="#000000"/><text fill="#000000" font-family="sans-serif" font-size="14" font-style="italic" lengthAdjust="spacing" textLength="67.2246" x="515.5" y="537.8467">BotPlayer</text></g><!--class MiniMaxAlgo--><g class="entity" data-entity="MiniMaxAlgo" data-source-line="165" data-uid="ent0041" id="entity_MiniMaxAlgo"><rect fill="#F1F1F1" height="32" rx="2.5" ry="2.5" style="stroke:#181818;stroke-width:0.5;" width="120.5938" x="669.5" y="517"/><ellipse cx="684.5" cy="533" fill="#A9DCDF" rx="11" ry="11" style="stroke:#181818;stroke-width:1;"/><path d="M684.6094,528.3438 L683.4531,533.4219 L685.7813,533.4219 L684.6094,528.3438 Z M683.125,526.1094 L686.1094,526.1094 L689.4688,538.5 L687.0156,538.5 L686.25,535.4375 L682.9688,535.4375 L682.2188,538.5 L679.7813,538.5 L683.125,526.1094 Z " fill="#000000"/><text fill="#000000" font-family="sans-serif" font-size="14" font-style="italic" lengthAdjust="spacing" textLength="88.5938" x="698.5" y="537.8467">MiniMaxAlgo</text></g><!--class MiniMaxBotPlayer--><g class="entity" data-entity="MiniMaxBotPlayer" data-source-line="171" data-uid="ent0042" id="entity_MiniMaxBotPlayer"><rect fill="#F1F1F1" height="32" rx="2.5" ry="2.5" style="stroke:#181818;stroke-width:0.5;" width="156.8994" x="504.5" y="342"/><ellipse cx="519.5" cy="358" fill="#ADD1B2" rx="11" ry="11" style="stroke:#181818;stroke-width:1;"/><path d="M522.4688,363.6406 Q521.8906,363.9375 521.25,364.0781 Q520.6094,364.2344 519.9063,364.2344 Q517.4063,364.2344 516.0781,362.5938 Q514.7656,360.9375 514.7656,357.8125 Q514.7656,354.6875 516.0781,353.0313 Q517.4063,351.375 519.9063,351.375 Q520.6094,351.375 521.25,351.5313 Q521.9063,351.6875 522.4688,351.9844 L522.4688,354.7031 Q521.8438,354.125 521.25,353.8594 Q520.6563,353.5781 520.0313,353.5781 Q518.6875,353.5781 518,354.6563 Q517.3125,355.7188 517.3125,357.8125 Q517.3125,359.9063 518,360.9844 Q518.6875,362.0469 520.0313,362.0469 Q520.6563,362.0469 521.25,361.7813 Q521.8438,361.5 522.4688,360.9219 L522.4688,363.6406 Z " fill="#000000"/><text fill="#000000" font-family="sans-serif" font-size="14" lengthAdjust="spacing" textLength="124.8994" x="533.5" y="362.8467">MiniMaxBotPlayer</text></g><!--class MiniMaxSequential--><g class="entity" data-entity="MiniMaxSequential" data-source-line="176" data-uid="ent0044" id="entity_MiniMaxSequential"><rect fill="#F1F1F1" height="32" rx="2.5" ry="2.5" style="stroke:#181818;stroke-width:0.5;" width="164.2686" x="697" y="342"/><ellipse cx="712" cy="358" fill="#ADD1B2" rx="11" ry="11" style="stroke:#181818;stroke-width:1;"/><path d="M714.9688,363.6406 Q714.3906,363.9375 713.75,364.0781 Q713.1094,364.2344 712.4063,364.2344 Q709.9063,364.2344 708.5781,362.5938 Q707.2656,360.9375 707.2656,357.8125 Q707.2656,354.6875 708.5781,353.0313 Q709.9063,351.375 712.4063,351.375 Q713.1094,351.375 713.75,351.5313 Q714.4063,351.6875 714.9688,351.9844 L714.9688,354.7031 Q714.3438,354.125 713.75,353.8594 Q713.1563,353.5781 712.5313,353.5781 Q711.1875,353.5781 710.5,354.6563 Q709.8125,355.7188 709.8125,357.8125 Q709.8125,359.9063 710.5,360.9844 Q711.1875,362.0469 712.5313,362.0469 Q713.1563,362.0469 713.75,361.7813 Q714.3438,361.5 714.9688,360.9219 L714.9688,363.6406 Z " fill="#000000"/><text fill="#000000" font-family="sans-serif" font-size="14" lengthAdjust="spacing" textLength="132.2686" x="726" y="362.8467">MiniMaxSequential</text></g><!--class InvalidMoveException--><g class="entity" data-entity="InvalidMoveException" data-source-line="184" data-uid="ent0045" id="entity_InvalidMoveException"><rect fill="#F1F1F1" height="32" rx="2.5" ry="2.5" style="stroke:#181818;stroke-width:0.5;" width="185.2207" x="239.5" y="342"/><ellipse cx="254.5" cy="358" fill="#ADD1B2" rx="11" ry="11" style="stroke:#181818;stroke-width:1;"/><path d="M257.4688,363.6406 Q256.8906,363.9375 256.25,364.0781 Q255.6094,364.2344 254.9063,364.2344 Q252.4063,364.2344 251.0781,362.5938 Q249.7656,360.9375 249.7656,357.8125 Q249.7656,354.6875 251.0781,353.0313 Q252.4063,351.375 254.9063,351.375 Q255.6094,351.375 256.25,351.5313 Q256.9063,351.6875 257.4688,351.9844 L257.4688,354.7031 Q256.8438,354.125 256.25,353.8594 Q255.6563,353.5781 255.0313,353.5781 Q253.6875,353.5781 253,354.6563 Q252.3125,355.7188 252.3125,357.8125 Q252.3125,359.9063 253,360.9844 Q253.6875,362.0469 255.0313,362.0469 Q255.6563,362.0469 256.25,361.7813 Q256.8438,361.5 257.4688,360.9219 L257.4688,363.6406 Z " fill="#000000"/><text fill="#000000" font-family="sans-serif" font-size="14" lengthAdjust="spacing" textLength="153.2207" x="268.5" y="362.8467">InvalidMoveException</text></g><!--reverse link Piece to PieceType--><g class="link" data-entity-1="Piece" data-entity-2="PieceType" data-source-line="191" data-uid="lnk47" id="link_Piece_PieceType"><path codeLine="191" d="M2859.7663,731.9751 C2884.0263,752.7951 2918.31,782.22 2942.49,802.97" fill="none" id="Piece-backto-PieceType" style="stroke:#181818;stroke-width:1;"/><polygon fill="#181818" points="2850.66,724.16,2852.6081,731.103,2859.7663,731.9751,2857.8182,725.0321,2850.66,724.16" style="stroke:#181818;stroke-width:1;"/><text fill="#000000" font-family="sans-serif" font-size="13" lengthAdjust="spacing" textLength="29.0405" x="2905" y="769.0669">type</text></g><!--reverse link Piece to PlayerColor--><g class="link" data-entity-1="Piece" data-entity-2="PlayerColor" data-source-line="192" data-uid="lnk48" id="link_Piece_PlayerColor"><path codeLine="192" d="M2829.0351,736.0325 C2825.9751,756.8525 2822.25,782.22 2819.21,802.97" fill="none" id="Piece-backto-PlayerColor" style="stroke:#181818;stroke-width:1;"/><polygon fill="#181818" points="2830.78,724.16,2825.95,729.5146,2829.0351,736.0325,2833.865,730.6779,2830.78,724.16" style="stroke:#181818;stroke-width:1;"/><text fill="#000000" font-family="sans-serif" font-size="13" lengthAdjust="spacing" textLength="32.0112" x="2826" y="769.0669">color</text></g><!--reverse link BoardRenderer to FieldRenderer--><g class="link" data-entity-1="BoardRenderer" data-entity-2="FieldRenderer" data-source-line="193" data-uid="lnk49" id="link_BoardRenderer_FieldRenderer"><path codeLine="193" d="M3326,847.16 C3326,867.98 3326,893.22 3326,913.97" fill="none" id="BoardRenderer-backto-FieldRenderer" style="stroke:#181818;stroke-width:1;"/><polygon fill="#181818" points="3326,835.16,3322,841.16,3326,847.16,3330,841.16,3326,835.16" style="stroke:#181818;stroke-width:1;"/><text fill="#000000" font-family="sans-serif" font-size="13" lengthAdjust="spacing" textLength="43.1768" x="3327" y="880.0669">render</text></g><!--reverse link ChessBoardRenderer to BoardRenderer--><g class="link" data-entity-1="ChessBoardRenderer" data-entity-2="BoardRenderer" data-source-line="194" data-uid="lnk50" id="link_ChessBoardRenderer_BoardRenderer"><path codeLine="194" d="M3332.762,736.1193 C3331.042,756.9393 3328.95,782.22 3327.24,802.97" fill="none" id="ChessBoardRenderer-backto-BoardRenderer" style="stroke:#181818;stroke-width:1;"/><polygon fill="#181818" points="3333.75,724.16,3329.2696,729.8103,3332.762,736.1193,3337.2424,730.469,3333.75,724.16" style="stroke:#181818;stroke-width:1;"/><text fill="#000000" font-family="sans-serif" font-size="13" lengthAdjust="spacing" textLength="97.9761" x="3332" y="769.0669">boardRenderer</text></g><!--reverse link MateAwareEval to EvalStrategy--><g class="link" data-entity-1="MateAwareEval" data-entity-2="EvalStrategy" data-source-line="195" data-uid="lnk51" id="link_MateAwareEval_EvalStrategy"><path codeLine="195" d="M2589.9176,553.9511 C2561.3276,566.6811 2535.7,578.37 2533,581 C2500.18,612.99 2482.13,665.95 2474.85,691.82" fill="none" id="MateAwareEval-backto-EvalStrategy" style="stroke:#181818;stroke-width:1;"/><polygon fill="#181818" points="2600.88,549.07,2593.7717,547.8564,2589.9176,553.9511,2597.0258,555.1647,2600.88,549.07" style="stroke:#181818;stroke-width:1;"/><text fill="#000000" font-family="sans-serif" font-size="13" lengthAdjust="spacing" textLength="82.9702" x="2534" y="594.0669">evalStrategy</text></g><!--link MateAwareEval to EvalStrategy--><g class="link" data-entity-1="MateAwareEval" data-entity-2="EvalStrategy" data-source-line="196" data-uid="lnk52" id="link_MateAwareEval_EvalStrategy"><path codeLine="196" d="M2634.69,549.13 C2633.74,562.89 2630.64,583.24 2621,598 C2592.21,642.06 2555.0715,666.1743 2520.3815,683.7243" fill="none" id="MateAwareEval-to-EvalStrategy" style="stroke:#181818;stroke-width:1;stroke-dasharray:7,7;"/><polygon fill="none" points="2504.32,691.85,2523.0901,689.0782,2517.673,678.3705,2504.32,691.85" style="stroke:#181818;stroke-width:1;"/></g><!--link MaterialEval to EvalStrategy--><g class="link" data-entity-1="MaterialEval" data-entity-2="EvalStrategy" data-source-line="197" data-uid="lnk53" id="link_MaterialEval_EvalStrategy"><path codeLine="197" d="M2471,549.05 C2471,581.77 2471,641.06 2471,673.86" fill="none" id="MaterialEval-to-EvalStrategy" style="stroke:#181818;stroke-width:1;stroke-dasharray:7,7;"/><polygon fill="none" points="2471,691.86,2477,673.86,2465,673.86,2471,691.86" style="stroke:#181818;stroke-width:1;"/></g><!--link RandomEval to EvalStrategy--><g class="link" data-entity-1="RandomEval" data-entity-2="EvalStrategy" data-source-line="198" data-uid="lnk54" id="link_RandomEval_EvalStrategy"><path codeLine="198" d="M2330.4,549.05 C2359.52,581.77 2416.3636,645.6136 2445.5536,678.4136" fill="none" id="RandomEval-to-EvalStrategy" style="stroke:#181818;stroke-width:1;stroke-dasharray:7,7;"/><polygon fill="none" points="2457.52,691.86,2450.0357,674.4248,2441.0714,682.4025,2457.52,691.86" style="stroke:#181818;stroke-width:1;"/></g><!--reverse link MatchConfig to AbstractPlayer--><g class="link" data-entity-1="MatchConfig" data-entity-2="AbstractPlayer" data-source-line="199" data-uid="lnk55" id="link_MatchConfig_AbstractPlayer"><path codeLine="199" d="M1117.8471,554.029 C1098.4371,562.859 1083.32,568.23 1059,573 C1044.8,575.78 548.16,570.69 538,581 C504.36,615.16 560.95,666.64 593.9,691.92" fill="none" id="MatchConfig-backto-AbstractPlayer" style="stroke:#181818;stroke-width:1;"/><polygon fill="#181818" points="1128.77,549.06,1121.6522,547.9036,1117.8471,554.029,1124.9649,555.1855,1128.77,549.06" style="stroke:#181818;stroke-width:1;"/><text fill="#000000" font-family="sans-serif" font-size="13" lengthAdjust="spacing" textLength="34.5059" x="539" y="594.0669">black</text></g><!--reverse link MatchConfig to AbstractPlayer--><g class="link" data-entity-1="MatchConfig" data-entity-2="AbstractPlayer" data-source-line="200" data-uid="lnk56" id="link_MatchConfig_AbstractPlayer"><path codeLine="200" d="M1117.8502,554.0458 C1098.4502,562.8858 1083.32,568.25 1059,573 C1043.32,576.06 495.22,569.63 484,581 C453.74,611.69 509.72,600.15 520,606 C558.08,627.67 590.03,669.58 605.32,691.99" fill="none" id="MatchConfig-backto-AbstractPlayer-1" style="stroke:#181818;stroke-width:1;"/><polygon fill="#181818" points="1128.77,549.07,1121.6515,547.918,1117.8502,554.0458,1124.9687,555.1978,1128.77,549.07" style="stroke:#181818;stroke-width:1;"/><text fill="#000000" font-family="sans-serif" font-size="13" lengthAdjust="spacing" textLength="35.5786" x="485" y="594.0669">white</text></g><!--reverse link HomeScreen to InputReader--><g class="link" data-entity-1="HomeScreen" data-entity-2="InputReader" data-source-line="201" data-uid="lnk57" id="link_HomeScreen_InputReader"><path codeLine="201" d="M1590.2825,554.961 C1575.1225,563.561 1565.33,567.73 1546,573 C1499.56,585.66 1483.07,564.1 1438,581 C1372.46,605.58 1310.73,664.16 1283.96,691.92" fill="none" id="HomeScreen-backto-InputReader" style="stroke:#181818;stroke-width:1;"/><polygon fill="#181818" points="1600.72,549.04,1593.5276,548.5213,1590.2825,554.961,1597.4749,555.4797,1600.72,549.04" style="stroke:#181818;stroke-width:1;"/><text fill="#000000" font-family="sans-serif" font-size="13" lengthAdjust="spacing" textLength="42.9038" x="1439" y="594.0669">reader</text></g><!--link HomeScreen to OutputWriter--><g class="link" data-entity-1="HomeScreen" data-entity-2="OutputWriter" data-source-line="202" data-uid="lnk58" id="link_HomeScreen_OutputWriter"><path codeLine="202" d="M1618.13,549.05 C1603.19,581.77 1570.3826,653.6023 1555.4026,686.4023" fill="none" id="HomeScreen-to-OutputWriter" style="stroke:#181818;stroke-width:1;"/><polygon fill="#181818" points="1552.91,691.86,1560.2874,685.3351,1554.9872,687.3119,1553.0104,682.0117,1552.91,691.86" style="stroke:#181818;stroke-width:1;"/><text fill="#000000" font-family="sans-serif" font-size="13" lengthAdjust="spacing" textLength="38.0288" x="1602" y="594.0669">writer</text></g><!--link MatchScreen to ChessBoard--><g class="link" data-entity-1="MatchScreen" data-entity-2="ChessBoard" data-source-line="203" data-uid="lnk59" id="link_MatchScreen_ChessBoard"><path codeLine="203" d="M1490.82,549.05 C1506.2,557.88 1527.01,568.22 1547,573 C1601.58,586.05 1996.07,576.37 2052,581 C2102.61,585.19 2114.37,594.05 2165,598 C2182.67,599.38 3425.14,598.09 3441,606 C3477.3,624.11 3498.7344,662.9 3509.3044,686.35" fill="none" id="MatchScreen-to-ChessBoard" style="stroke:#181818;stroke-width:1;"/><polygon fill="#181818" points="3511.77,691.82,3511.7183,681.9713,3509.7153,687.2617,3504.425,685.2587,3511.77,691.82" style="stroke:#181818;stroke-width:1;"/><text fill="#000000" font-family="sans-serif" font-size="13" lengthAdjust="spacing" textLength="74.6992" x="2166" y="594.0669">chessboard</text></g><!--link MatchScreen to ChessBoardRenderer--><g class="link" data-entity-1="MatchScreen" data-entity-2="ChessBoardRenderer" data-source-line="204" data-uid="lnk60" id="link_MatchScreen_ChessBoardRenderer"><path codeLine="204" d="M1491.19,549.14 C1506.55,557.88 1527.2,568.1 1547,573 C1601.39,586.46 1743.2,575.9 1799,581 C1849.14,585.58 1860.81,594.06 1911,598 C1929.24,599.43 3211.02,599.19 3228,606 C3271.63,623.49 3304.3326,663.1376 3321.2326,686.7976" fill="none" id="MatchScreen-to-ChessBoardRenderer" style="stroke:#181818;stroke-width:1;"/><polygon fill="#181818" points="3324.72,691.68,3322.7438,682.0314,3321.8138,687.6113,3316.2339,686.6814,3324.72,691.68" style="stroke:#181818;stroke-width:1;"/><text fill="#000000" font-family="sans-serif" font-size="13" lengthAdjust="spacing" textLength="135.5732" x="1912" y="594.0669">chessBoardRenderer</text></g><!--link MatchScreen to OutputWriter--><g class="link" data-entity-1="MatchScreen" data-entity-2="OutputWriter" data-source-line="205" data-uid="lnk61" id="link_MatchScreen_OutputWriter"><path codeLine="205" d="M1473.87,549.05 C1488.81,581.77 1521.6174,653.6023 1536.5974,686.4023" fill="none" id="MatchScreen-to-OutputWriter" style="stroke:#181818;stroke-width:1;"/><polygon fill="#181818" points="1539.09,691.86,1538.9896,682.0117,1537.0128,687.3119,1531.7126,685.3351,1539.09,691.86" style="stroke:#181818;stroke-width:1;"/><text fill="#000000" font-family="sans-serif" font-size="13" lengthAdjust="spacing" textLength="38.0288" x="1495" y="594.0669">writer</text></g><!--link MatchScreen to AbstractPlayer--><g class="link" data-entity-1="MatchScreen" data-entity-2="AbstractPlayer" data-source-line="206" data-uid="lnk62" id="link_MatchScreen_AbstractPlayer"><path codeLine="206" d="M1448.06,549.04 C1435.72,557.87 1418.83,568.21 1402,573 C1342.79,589.86 907.57,565.47 848,581 C762.12,603.4 678.1359,660.0884 639.6159,688.3784" fill="none" id="MatchScreen-to-AbstractPlayer" style="stroke:#181818;stroke-width:1;"/><polygon fill="#181818" points="634.78,691.93,644.4016,689.8265,638.8099,688.9703,639.6661,683.3786,634.78,691.93" style="stroke:#181818;stroke-width:1;"/><text fill="#000000" font-family="sans-serif" font-size="13" lengthAdjust="spacing" textLength="34.5059" x="849" y="594.0669">black</text></g><!--link MatchScreen to AbstractPlayer--><g class="link" data-entity-1="MatchScreen" data-entity-2="AbstractPlayer" data-source-line="207" data-uid="lnk63" id="link_MatchScreen_AbstractPlayer"><path codeLine="207" d="M1448.07,549.06 C1435.73,557.9 1418.84,568.24 1402,573 C1380.93,578.95 629.4,565.44 614,581 C584.91,610.38 597.2963,659.4116 606.8263,686.0116" fill="none" id="MatchScreen-to-AbstractPlayer-1" style="stroke:#181818;stroke-width:1;"/><polygon fill="#181818" points="608.85,691.66,609.5801,681.8382,607.1636,686.953,602.0489,684.5365,608.85,691.66" style="stroke:#181818;stroke-width:1;"/><text fill="#000000" font-family="sans-serif" font-size="13" lengthAdjust="spacing" textLength="87.8643" x="615" y="594.0669">currentPlayer</text></g><!--link MatchScreen to AbstractPlayer--><g class="link" data-entity-1="MatchScreen" data-entity-2="AbstractPlayer" data-source-line="208" data-uid="lnk64" id="link_MatchScreen_AbstractPlayer"><path codeLine="208" d="M1448.06,549.05 C1435.73,557.88 1418.84,568.22 1402,573 C1367.42,582.81 788.48,567.91 755,581 C696.52,603.86 650.5964,658.4898 629.4964,686.7898" fill="none" id="MatchScreen-to-AbstractPlayer-2" style="stroke:#181818;stroke-width:1;"/><polygon fill="#181818" points="625.91,691.6,634.4964,686.7757,628.8987,687.5915,628.0828,681.9938,625.91,691.6" style="stroke:#181818;stroke-width:1;"/><text fill="#000000" font-family="sans-serif" font-size="13" lengthAdjust="spacing" textLength="35.5786" x="756" y="594.0669">white</text></g><!--reverse link AbstractPlayer to PlayerColor--><g class="link" data-entity-1="AbstractPlayer" data-entity-2="PlayerColor" data-source-line="209" data-uid="lnk65" id="link_AbstractPlayer_PlayerColor"><path codeLine="209" d="M694.3066,716.6506 C785.1766,725.2506 940.18,739.17 1083,748 C1742.31,788.76 2544.18,811.05 2760.82,816.61" fill="none" id="AbstractPlayer-backto-PlayerColor" style="stroke:#181818;stroke-width:1;"/><polygon fill="#181818" points="682.36,715.52,687.9564,720.0675,694.3066,716.6506,688.7102,712.1031,682.36,715.52" style="stroke:#181818;stroke-width:1;"/><text fill="#000000" font-family="sans-serif" font-size="13" lengthAdjust="spacing" textLength="74.8071" x="1511" y="769.0669">playerColor</text></g><!--reverse link HumanPlayer to InputReader--><g class="link" data-entity-1="HumanPlayer" data-entity-2="InputReader" data-source-line="210" data-uid="lnk66" id="link_HumanPlayer_InputReader"><path codeLine="210" d="M923.0863,554.3145 C908.3463,561.5445 904.45,566.58 896,581 C892.18,587.52 890.79,592.53 896,598 C908.5,611.13 1041.42,601.55 1059,606 C1131.45,624.32 1208.75,668.48 1246.51,691.87" fill="none" id="HumanPlayer-backto-InputReader" style="stroke:#181818;stroke-width:1;"/><polygon fill="#181818" points="933.86,549.03,926.7116,548.081,923.0863,554.3145,930.2346,555.2635,933.86,549.03" style="stroke:#181818;stroke-width:1;"/><text fill="#000000" font-family="sans-serif" font-size="13" lengthAdjust="spacing" textLength="42.9038" x="897" y="594.0669">reader</text></g><!--link HumanPlayer to AbstractPlayer--><g class="link" data-entity-1="HumanPlayer" data-entity-2="AbstractPlayer" data-source-line="211" data-uid="lnk67" id="link_HumanPlayer_AbstractPlayer"><path codeLine="211" d="M956.51,549.04 C941.32,557.87 920.77,568.21 901,573 C888.23,576.09 437.21,571.63 428,581 C422.7,586.39 422.89,592.43 428,598 C441.87,613.13 501.53,597.05 520,606 C559.64,625.22 581.4807,653.3876 596.2307,676.5476" fill="none" id="HumanPlayer-to-AbstractPlayer" style="stroke:#181818;stroke-width:1;"/><polygon fill="none" points="605.9,691.73,601.2915,673.3245,591.1699,679.7707,605.9,691.73" style="stroke:#181818;stroke-width:1;"/></g><!--link BotPlayer to AbstractPlayer--><g class="link" data-entity-1="BotPlayer" data-entity-2="AbstractPlayer" data-source-line="212" data-uid="lnk68" id="link_BotPlayer_AbstractPlayer"><path codeLine="212" d="M486.4,543.58 C445.13,553.65 396.75,571.72 421,598 C435.97,614.22 500.11,596.43 520,606 C559.7,625.09 581.5419,653.3041 596.2719,676.5041" fill="none" id="BotPlayer-to-AbstractPlayer" style="stroke:#181818;stroke-width:1;"/><polygon fill="none" points="605.92,691.7,601.3372,673.2881,591.2066,679.7201,605.92,691.7" style="stroke:#181818;stroke-width:1;"/></g><!--reverse link MiniMaxAlgo to PlayerColor--><g class="link" data-entity-1="MiniMaxAlgo" data-entity-2="PlayerColor" data-source-line="213" data-uid="lnk69" id="link_MiniMaxAlgo_PlayerColor"><path codeLine="213" d="M678.9834,553.0234 C654.2634,561.6734 632.89,567.86 603,573 C539.73,583.87 355.39,555.3 316,606 C277.28,655.84 272,702.75 316,748 C360.09,793.34 2394.62,814.12 2760.84,817.5" fill="none" id="MiniMaxAlgo-backto-PlayerColor" style="stroke:#181818;stroke-width:1;"/><polygon fill="#181818" points="690.31,549.06,683.3256,547.2662,678.9834,553.0234,685.9678,554.8172,690.31,549.06" style="stroke:#181818;stroke-width:1;"/><text fill="#000000" font-family="sans-serif" font-size="13" lengthAdjust="spacing" textLength="101.2197" x="317" y="712.5669">ownPlayerColor</text></g><!--reverse link MiniMaxAlgo to EvalStrategy--><g class="link" data-entity-1="MiniMaxAlgo" data-entity-2="EvalStrategy" data-source-line="214" data-uid="lnk70" id="link_MiniMaxAlgo_EvalStrategy"><path codeLine="214" d="M759.0976,555.9246 C771.4376,564.6246 778.39,567.92 795,573 C826.71,582.7 911.36,575.17 944,581 C969.19,585.5 973.71,594.1 999,598 C1065.88,608.32 2150.58,593.05 2217,606 C2303.17,622.8 2397.44,668.06 2443.11,691.88" fill="none" id="MiniMaxAlgo-backto-EvalStrategy" style="stroke:#181818;stroke-width:1;"/><polygon fill="#181818" points="749.29,549.01,751.8889,555.7365,759.0976,555.9246,756.4986,549.1981,749.29,549.01" style="stroke:#181818;stroke-width:1;"/><text fill="#000000" font-family="sans-serif" font-size="13" lengthAdjust="spacing" textLength="82.9702" x="1000" y="594.0669">evalStrategy</text></g><!--reverse link MiniMaxBotPlayer to MiniMaxAlgo--><g class="link" data-entity-1="MiniMaxBotPlayer" data-entity-2="MiniMaxAlgo" data-source-line="215" data-uid="lnk71" id="link_MiniMaxBotPlayer_MiniMaxAlgo"><path codeLine="215" d="M603.5598,383.1949 C631.3598,415.9149 689.27,484.06 717.14,516.86" fill="none" id="MiniMaxBotPlayer-backto-MiniMaxAlgo" style="stroke:#181818;stroke-width:1;"/><polygon fill="#181818" points="595.79,374.05,596.6266,381.2124,603.5598,383.1949,602.7232,376.0325,595.79,374.05" style="stroke:#181818;stroke-width:1;"/><text fill="#000000" font-family="sans-serif" font-size="13" lengthAdjust="spacing" textLength="83.7129" x="636" y="419.0669">miniMaxAlgo</text></g><!--link MiniMaxBotPlayer to BotPlayer--><g class="link" data-entity-1="MiniMaxBotPlayer" data-entity-2="BotPlayer" data-source-line="216" data-uid="lnk72" id="link_MiniMaxBotPlayer_BotPlayer"><path codeLine="216" d="M577.9,374.17 C574.88,383.34 571.06,395.3 568,406 C556.63,445.71 549.3133,475.5133 543.6933,499.2733" fill="none" id="MiniMaxBotPlayer-to-BotPlayer" style="stroke:#181818;stroke-width:1;"/><polygon fill="none" points="539.55,516.79,549.5321,500.6544,537.8544,497.8923,539.55,516.79" style="stroke:#181818;stroke-width:1;"/></g><!--link MiniMaxSequential to MiniMaxAlgo--><g class="link" data-entity-1="MiniMaxSequential" data-entity-2="MiniMaxAlgo" data-source-line="217" data-uid="lnk73" id="link_MiniMaxSequential_MiniMaxAlgo"><path codeLine="217" d="M774.74,374.05 C765.47,406.77 748.4852,466.7413 739.1952,499.5413" fill="none" id="MiniMaxSequential-to-MiniMaxAlgo" style="stroke:#181818;stroke-width:1;"/><polygon fill="none" points="734.29,516.86,744.9681,501.1763,733.4223,497.9062,734.29,516.86" style="stroke:#181818;stroke-width:1;"/></g><!--SRC=[nHXBR-8u-Bpv5JdiOMQxHAAxfwuq4hIqHLCU0rIpqXv6JcA8EudDnauVwdH- -tvsak9083RGxWKvnj_x_GKnujmD8Y_YSUO5Y7i9nw7dnyoV4nvv0qIe- -pyyfnW4R7mnNMVkK2212_kpqJ-z-6ZU-RUCn8wBuxZ10teVCInTudfhI3n5hGd2opWnPXn8WYZtPW5txdxmLsY52LJaHAwQ0F9_EHAwl_StA5xvCM8Bhpy-gzwpFSe9Y4I6D0NuBlGsWar9ZZ05P5E0XQpD5TG4t2Cdd1wBj_h2F2_6OfVPH_vTpWGaidyf9Zq6OineZhK71TMEOy0B12uWZD2F3fd8SwV42hqFnDGJafGF6Rm1wzz8bYfke-lwghy_xJ4PZ9BXStWjT8nfbbY3A7KF2SubWIx_UdrQAnTVEuFh_JFOV_gUgPTZ3jVXzhdbzjUJ_-UZ4QVpLbQ6QxAr4td_BFs_VMwF-kPEHD3QUYTHvZphZpgQ5yzkJMTTIQpyMZQd_L7ms-NlQ5kY-9rIw6IXc29jo0YodpFZsIKC4hkKY-GD6BYUugERiEG3TWztXaSvWBeYFFGtkOwX5-X18_kSH4qDRvDkEJi1YzGl9Ez6j1O0ademgzLpiWW3tatX0iBssGarzW4qn2dEAq4_SzKtPRCtHBrj6sWCK1Rl7P_pu4rvpgroY6kfbyhkLPMgmXNEXHmnU7AI1QPv7DnnWfADqLLHni6FBRuaC5mEaUGdatubhBMcjPzHZuNCgDkY71B59YncTNhTJQRyaq9FeMgaEBDd7FHcUWfvqQbFLFvCTH6hmS_m10KWSNJTj4XYEN33Cdol3CAGvRvCJPoGKL_09Gx3o2Sn5_nl47dxs_3sq6tDrcXhUQLDsH9LiHNZlQdkOBD0qbbmXrWQmbA0qzn0dcibop5a_8aVfcof6oOTkAqI0fA_0cY8KkE8Bm9nGLa_pm5oJfGiJyO8I4Kk3XpMRhmxc92iLTUUhFYeEk8HooJWGmbCnKbXtswpCG48mZTtR6gMD5Ubpbfb0cu-veIe7tQZ45_lgqk5Go-TfoQ30yIi4T3gOu1g0KjNekoZhcz1oF6pUs69dIpfFcLRfJy2boMuXoWclXHAFyvbeygvY140sXfwPmigaxgnoZutjIBBbNTy3f5VilBoE5D-Cuskwc7VeZ0JlinRgorYaTeDlrf7MedypZZKQq7don1DD4yPQr3T6XucIErXOpfFZ3cz8prYny3l9JPaNioV3i-ImKEU-Kjg7mVLChN3y75WnHZwbsp14_LSIElw-7Ku8BhuQVdBi2ajsIsKx2jG8gB6eaa7qFyAFA1fZRSMie9rikdnapRlljSp-HvDReWN4PjtkGNTAhnsxOFUTEw8ZLQTd5kashhAUrg2LTApkLQZH9jgt7HjWGKd5vd2Q8rRBubQxRQz9c0oN6bp7rn30Wb0_JOYHUiKeq350TPh5go2yWCqKRXMRTP5xgZ_zbkKXueA2H1ZwLSkehUnv3xypg5xW1JGTRwOsKAgTqn4j71t1Qz9zZoD3TfpOJyXrsEAX10B_OTXtAy-7Dju2ZlNQCcPATcVkrcGh1a2DrGHKLi-GHrjnE6CtODb5ZwL6fgHRwzZQr20EaDfmOhBZalUSfrFcx1kEPgRnKQTNjfMQEcY8xcEZ5vRbjBPk_KMdFHfsf1Bf7flSKgmR2KB6JpfyXLY04va_NuRwsMQxxbFNFbClc8cBK0a8gLVORrig-9KFqUwSpD5qREVaiuKw9LADaMQD-ErVQbWUJclkZCnTgd7J7F-_79YffZixOvEdPjAt9Ct1lJR8CDwfiqiBgSUz-1ZXfJ7Uk1eu7Qni91nWxQ7JjRABLQdrohEHXaKWV7VkXeeBLH4sG1WGzr_rRawfD9GRbhc1lsvE0zbNjG81oFN92baENBJSoxaMqAmteu-uAvrCPpgtdi3GA-XaghzSDUVOxbqFQ6HFIfpjuux86ERUnZIV60Scyow9aLe7MUpznazNKW1uQ6hNY3S-34Q45J4zjn8X9YL_NaF3_d8mLt_WC0]--></g></svg>