<svg xmlns="http://www.w3.org/2000/svg" xmlns:xlink="http://www.w3.org/1999/xlink" contentStyleType="text/css" data-diagram-type="CLASS" height="895px" preserveAspectRatio="none" style="width:3370px;height:895px;background:#FFFFFF;" version="1.1" viewBox="0 0 3370 895" width="3370px" zoomAndPan="magnify"><defs/><g><!--cluster ch--><g class="cluster" data-entity="ch" data-source-line="2" data-uid="ent0003" id="cluster_ch"><path d="M8.5,6 L27.7656,6 A3.75,3.75 0 0 1 30.2656,8.5 L37.2656,28.2969 L3360.5,28.2969 A2.5,2.5 0 0 1 3363,30.7969 L3363,885.5 A2.5,2.5 0 0 1 3360.5,888 L8.5,888 A2.5,2.5 0 0 1 6,885.5 L6,8.5 A2.5,2.5 0 0 1 8.5,6" fill="none" style="stroke:#000000;stroke-width:1.5;"/><line style="stroke:#000000;stroke-width:1.5;" x1="6" x2="37.2656" y1="28.2969" y2="28.2969"/><text fill="#000000" font-family="sans-serif" font-size="14" font-weight="bold" lengthAdjust="spacing" textLength="18.2656" x="10" y="20.9951">ch</text></g><!--cluster hslu--><g class="cluster" data-entity="hslu" data-source-line="2" data-uid="ent0004" id="cluster_hslu"><path d="M32.5,49 L66.5654,49 A3.75,3.75 0 0 1 69.0654,51.5 L76.0654,71.2969 L3336.5,71.2969 A2.5,2.5 0 0 1 3339,73.7969 L3339,861.5 A2.5,2.5 0 0 1 3336.5,864 L32.5,864 A2.5,2.5 0 0 1 30,861.5 L30,51.5 A2.5,2.5 0 0 1 32.5,49" fill="none" style="stroke:#000000;stroke-width:1.5;"/><line style="stroke:#000000;stroke-width:1.5;" x1="30" x2="76.0654" y1="71.2969" y2="71.2969"/><text fill="#000000" font-family="sans-serif" font-size="14" font-weight="bold" lengthAdjust="spacing" textLength="33.0654" x="34" y="63.9951">hslu</text></g><!--cluster cas--><g class="cluster" data-entity="cas" data-source-line="2" data-uid="ent0005" id="cluster_cas"><path d="M56.5,92 L83.5791,92 A3.75,3.75 0 0 1 86.0791,94.5 L93.0791,114.2969 L3312.5,114.2969 A2.5,2.5 0 0 1 3315,116.7969 L3315,837.5 A2.5,2.5 0 0 1 3312.5,840 L56.5,840 A2.5,2.5 0 0 1 54,837.5 L54,94.5 A2.5,2.5 0 0 1 56.5,92" fill="none" style="stroke:#000000;stroke-width:1.5;"/><line style="stroke:#000000;stroke-width:1.5;" x1="54" x2="93.0791" y1="114.2969" y2="114.2969"/><text fill="#000000" font-family="sans-serif" font-size="14" font-weight="bold" lengthAdjust="spacing" textLength="26.0791" x="58" y="106.9951">cas</text></g><!--cluster msed--><g class="cluster" data-entity="msed" data-source-line="2" data-uid="ent0006" id="cluster_msed"><path d="M80.5,135 L123.9375,135 A3.75,3.75 0 0 1 126.4375,137.5 L133.4375,157.2969 L3288.5,157.2969 A2.5,2.5 0 0 1 3291,159.7969 L3291,813.5 A2.5,2.5 0 0 1 3288.5,816 L80.5,816 A2.5,2.5 0 0 1 78,813.5 L78,137.5 A2.5,2.5 0 0 1 80.5,135" fill="none" style="stroke:#000000;stroke-width:1.5;"/><line style="stroke:#000000;stroke-width:1.5;" x1="78" x2="133.4375" y1="157.2969" y2="157.2969"/><text fill="#000000" font-family="sans-serif" font-size="14" font-weight="bold" lengthAdjust="spacing" textLength="42.4375" x="82" y="149.9951">msed</text></g><!--cluster blobfish--><g class="cluster" data-entity="blobfish" data-source-line="2" data-uid="ent0007" id="cluster_blobfish"><path d="M104.5,178 L169.1494,178 A3.75,3.75 0 0 1 171.6494,180.5 L178.6494,200.2969 L3264.5,200.2969 A2.5,2.5 0 0 1 3267,202.7969 L3267,789.5 A2.5,2.5 0 0 1 3264.5,792 L104.5,792 A2.5,2.5 0 0 1 102,789.5 L102,180.5 A2.5,2.5 0 0 1 104.5,178" fill="none" style="stroke:#000000;stroke-width:1.5;"/><line style="stroke:#000000;stroke-width:1.5;" x1="102" x2="178.6494" y1="200.2969" y2="200.2969"/><text fill="#000000" font-family="sans-serif" font-size="14" font-weight="bold" lengthAdjust="spacing" textLength="63.6494" x="106" y="192.9951">blobfish</text></g><!--cluster base--><g class="cluster" data-entity="base" data-source-line="7" data-uid="ent0009" id="cluster_base"><path d="M765.5,439 L803.7969,439 A3.75,3.75 0 0 1 806.2969,441.5 L813.2969,461.2969 L1043.5,461.2969 A2.5,2.5 0 0 1 1046,463.7969 L1046,630.5 A2.5,2.5 0 0 1 1043.5,633 L765.5,633 A2.5,2.5 0 0 1 763,630.5 L763,441.5 A2.5,2.5 0 0 1 765.5,439" fill="none" style="stroke:#000000;stroke-width:1.5;"/><line style="stroke:#000000;stroke-width:1.5;" x1="763" x2="813.2969" y1="461.2969" y2="461.2969"/><text fill="#000000" font-family="sans-serif" font-size="14" font-weight="bold" lengthAdjust="spacing" textLength="37.2969" x="767" y="453.9951">base</text></g><!--cluster board--><g class="cluster" data-entity="board" data-source-line="40" data-uid="ent0014" id="cluster_board"><path d="M1547.5,396 L1594.5127,396 A3.75,3.75 0 0 1 1597.0127,398.5 L1604.0127,418.2969 L2082.5,418.2969 A2.5,2.5 0 0 1 2085,420.7969 L2085,765.5 A2.5,2.5 0 0 1 2082.5,768 L1547.5,768 A2.5,2.5 0 0 1 1545,765.5 L1545,398.5 A2.5,2.5 0 0 1 1547.5,396" fill="none" style="stroke:#000000;stroke-width:1.5;"/><line style="stroke:#000000;stroke-width:1.5;" x1="1545" x2="1604.0127" y1="418.2969" y2="418.2969"/><text fill="#000000" font-family="sans-serif" font-size="14" font-weight="bold" lengthAdjust="spacing" textLength="46.0127" x="1549" y="410.9951">board</text></g><!--cluster ui--><g class="cluster" data-entity="ui" data-source-line="52" data-uid="ent0016" id="cluster_ui"><path d="M1571.5,439 L1587.2656,439 A3.75,3.75 0 0 1 1589.7656,441.5 L1596.7656,461.2969 L1931.5,461.2969 A2.5,2.5 0 0 1 1934,463.7969 L1934,741.5 A2.5,2.5 0 0 1 1931.5,744 L1571.5,744 A2.5,2.5 0 0 1 1569,741.5 L1569,441.5 A2.5,2.5 0 0 1 1571.5,439" fill="none" style="stroke:#000000;stroke-width:1.5;"/><line style="stroke:#000000;stroke-width:1.5;" x1="1569" x2="1596.7656" y1="461.2969" y2="461.2969"/><text fill="#000000" font-family="sans-serif" font-size="14" font-weight="bold" lengthAdjust="spacing" textLength="14.7656" x="1573" y="453.9951">ui</text></g><!--cluster eval--><g class="cluster" data-entity="eval" data-source-line="74" data-uid="ent0021" id="cluster_eval"><path d="M1218.5,439 L1252.3672,439 A3.75,3.75 0 0 1 1254.8672,441.5 L1261.8672,461.2969 L1518.5,461.2969 A2.5,2.5 0 0 1 1521,463.7969 L1521,630.5 A2.5,2.5 0 0 1 1518.5,633 L1218.5,633 A2.5,2.5 0 0 1 1216,630.5 L1216,441.5 A2.5,2.5 0 0 1 1218.5,439" fill="none" style="stroke:#000000;stroke-width:1.5;"/><line style="stroke:#000000;stroke-width:1.5;" x1="1216" x2="1261.8672" y1="461.2969" y2="461.2969"/><text fill="#000000" font-family="sans-serif" font-size="14" font-weight="bold" lengthAdjust="spacing" textLength="32.8672" x="1220" y="453.9951">eval</text></g><!--cluster game--><g class="cluster" data-entity="game" data-source-line="91" data-uid="ent0025" id="cluster_game"><path d="M2111.5,221 L2156.0518,221 A3.75,3.75 0 0 1 2158.5518,223.5 L2165.5518,243.2969 L3240.5,243.2969 A2.5,2.5 0 0 1 3243,245.7969 L3243,519.5 A2.5,2.5 0 0 1 3240.5,522 L2111.5,522 A2.5,2.5 0 0 1 2109,519.5 L2109,223.5 A2.5,2.5 0 0 1 2111.5,221" fill="none" style="stroke:#000000;stroke-width:1.5;"/><line style="stroke:#000000;stroke-width:1.5;" x1="2109" x2="2165.5518" y1="243.2969" y2="243.2969"/><text fill="#000000" font-family="sans-serif" font-size="14" font-weight="bold" lengthAdjust="spacing" textLength="43.5518" x="2113" y="235.9951">game</text></g><!--cluster exceptions--><g class="cluster" data-entity="exceptions" data-source-line="124" data-uid="ent0030" id="cluster_exceptions"><path d="M2754.5,264 L2841.25,264 A3.75,3.75 0 0 1 2843.75,266.5 L2850.75,286.2969 L3216.5,286.2969 A2.5,2.5 0 0 1 3219,288.7969 L3219,344.5 A2.5,2.5 0 0 1 3216.5,347 L2754.5,347 A2.5,2.5 0 0 1 2752,344.5 L2752,266.5 A2.5,2.5 0 0 1 2754.5,264" fill="none" style="stroke:#000000;stroke-width:1.5;"/><line style="stroke:#000000;stroke-width:1.5;" x1="2752" x2="2850.75" y1="286.2969" y2="286.2969"/><text fill="#000000" font-family="sans-serif" font-size="14" font-weight="bold" lengthAdjust="spacing" textLength="85.75" x="2756" y="278.9951">exceptions</text></g><!--cluster screen--><g class="cluster" data-entity="screen" data-source-line="132" data-uid="ent0033" id="cluster_screen"><path d="M2417.5,264 L2470.9932,264 A3.75,3.75 0 0 1 2473.4932,266.5 L2480.4932,286.2969 L2725.5,286.2969 A2.5,2.5 0 0 1 2728,288.7969 L2728,344.5 A2.5,2.5 0 0 1 2725.5,347 L2417.5,347 A2.5,2.5 0 0 1 2415,344.5 L2415,266.5 A2.5,2.5 0 0 1 2417.5,264" fill="none" style="stroke:#000000;stroke-width:1.5;"/><line style="stroke:#000000;stroke-width:1.5;" x1="2415" x2="2480.4932" y1="286.2969" y2="286.2969"/><text fill="#000000" font-family="sans-serif" font-size="14" font-weight="bold" lengthAdjust="spacing" textLength="52.4932" x="2419" y="278.9951">screen</text></g><!--cluster player--><g class="cluster" data-entity="player" data-source-line="146" data-uid="ent0036" id="cluster_player"><path d="M204.5,221 L255.293,221 A3.75,3.75 0 0 1 257.793,223.5 L264.793,243.2969 L736.5,243.2969 A2.5,2.5 0 0 1 739,245.7969 L739,519.5 A2.5,2.5 0 0 1 736.5,522 L204.5,522 A2.5,2.5 0 0 1 202,519.5 L202,223.5 A2.5,2.5 0 0 1 204.5,221" fill="none" style="stroke:#000000;stroke-width:1.5;"/><line style="stroke:#000000;stroke-width:1.5;" x1="202" x2="264.793" y1="243.2969" y2="243.2969"/><text fill="#000000" font-family="sans-serif" font-size="14" font-weight="bold" lengthAdjust="spacing" textLength="49.793" x="206" y="235.9951">player</text></g><!--cluster exceptions--><g class="cluster" data-entity="exceptions" data-source-line="161" data-uid="ent0040" id="cluster_exceptions"><path d="M501.5,264 L588.25,264 A3.75,3.75 0 0 1 590.75,266.5 L597.75,286.2969 L712.5,286.2969 A2.5,2.5 0 0 1 715,288.7969 L715,344.5 A2.5,2.5 0 0 1 712.5,347 L501.5,347 A2.5,2.5 0 0 1 499,344.5 L499,266.5 A2.5,2.5 0 0 1 501.5,264" fill="none" style="stroke:#000000;stroke-width:1.5;"/><line style="stroke:#000000;stroke-width:1.5;" x1="499" x2="597.75" y1="286.2969" y2="286.2969"/><text fill="#000000" font-family="sans-serif" font-size="14" font-weight="bold" lengthAdjust="spacing" textLength="85.75" x="503" y="278.9951">exceptions</text></g><!--cluster searchtree--><g class="cluster" data-entity="searchtree" data-source-line="166" data-uid="ent0042" id="cluster_searchtree"><path d="M1072.5,439 L1158.5322,439 A3.75,3.75 0 0 1 1161.0322,441.5 L1168.0322,461.2969 L1189.5,461.2969 A2.5,2.5 0 0 1 1192,463.7969 L1192,519.5 A2.5,2.5 0 0 1 1189.5,522 L1072.5,522 A2.5,2.5 0 0 1 1070,519.5 L1070,441.5 A2.5,2.5 0 0 1 1072.5,439" fill="none" style="stroke:#000000;stroke-width:1.5;"/><line style="stroke:#000000;stroke-width:1.5;" x1="1070" x2="1168.0322" y1="461.2969" y2="461.2969"/><text fill="#000000" font-family="sans-serif" font-size="14" font-weight="bold" lengthAdjust="spacing" textLength="85.0322" x="1074" y="453.9951">searchtree</text></g><!--class Main--><g class="entity" data-entity="Main" data-source-line="2" data-uid="ent0002" id="entity_Main"><rect fill="#F1F1F1" height="32" rx="2.5" ry="2.5" style="stroke:#181818;stroke-width:0.5;" width="65.4209" x="118.5" y="299"/><ellipse cx="133.5" cy="315" fill="#ADD1B2" rx="11" ry="11" style="stroke:#181818;stroke-width:1;"/><path d="M136.4688,320.6406 Q135.8906,320.9375 135.25,321.0781 Q134.6094,321.2344 133.9063,321.2344 Q131.4063,321.2344 130.0781,319.5938 Q128.7656,317.9375 128.7656,314.8125 Q128.7656,311.6875 130.0781,310.0313 Q131.4063,308.375 133.9063,308.375 Q134.6094,308.375 135.25,308.5313 Q135.9063,308.6875 136.4688,308.9844 L136.4688,311.7031 Q135.8438,311.125 135.25,310.8594 Q134.6563,310.5781 134.0313,310.5781 Q132.6875,310.5781 132,311.6563 Q131.3125,312.7188 131.3125,314.8125 Q131.3125,316.9063 132,317.9844 Q132.6875,319.0469 134.0313,319.0469 Q134.6563,319.0469 135.25,318.7813 Q135.8438,318.5 136.4688,317.9219 L136.4688,320.6406 Z " fill="#000000"/><text fill="#000000" font-family="sans-serif" font-size="14" lengthAdjust="spacing" textLength="33.4209" x="147.5" y="319.8467">Main</text></g><!--class FenUtil--><g class="entity" data-entity="FenUtil" data-source-line="7" data-uid="ent0008" id="entity_FenUtil"><rect fill="#F1F1F1" height="32" rx="2.5" ry="2.5" style="stroke:#181818;stroke-width:0.5;" width="81.0547" x="942.5" y="474"/><ellipse cx="957.5" cy="490" fill="#ADD1B2" rx="11" ry="11" style="stroke:#181818;stroke-width:1;"/><path d="M960.4688,495.6406 Q959.8906,495.9375 959.25,496.0781 Q958.6094,496.2344 957.9063,496.2344 Q955.4063,496.2344 954.0781,494.5938 Q952.7656,492.9375 952.7656,489.8125 Q952.7656,486.6875 954.0781,485.0313 Q955.4063,483.375 957.9063,483.375 Q958.6094,483.375 959.25,483.5313 Q959.9063,483.6875 960.4688,483.9844 L960.4688,486.7031 Q959.8438,486.125 959.25,485.8594 Q958.6563,485.5781 958.0313,485.5781 Q956.6875,485.5781 956,486.6563 Q955.3125,487.7188 955.3125,489.8125 Q955.3125,491.9063 956,492.9844 Q956.6875,494.0469 958.0313,494.0469 Q958.6563,494.0469 959.25,493.7813 Q959.8438,493.5 960.4688,492.9219 L960.4688,495.6406 Z " fill="#000000"/><text fill="#000000" font-family="sans-serif" font-size="14" lengthAdjust="spacing" textLength="49.0547" x="971.5" y="494.8467">FenUtil</text></g><!--class Piece--><g class="entity" data-entity="Piece" data-source-line="13" data-uid="ent0010" id="entity_Piece"><rect fill="#F1F1F1" height="32" rx="2.5" ry="2.5" style="stroke:#181818;stroke-width:0.5;" width="69.2559" x="814.5" y="474"/><ellipse cx="829.5" cy="490" fill="#ADD1B2" rx="11" ry="11" style="stroke:#181818;stroke-width:1;"/><path d="M832.4688,495.6406 Q831.8906,495.9375 831.25,496.0781 Q830.6094,496.2344 829.9063,496.2344 Q827.4063,496.2344 826.0781,494.5938 Q824.7656,492.9375 824.7656,489.8125 Q824.7656,486.6875 826.0781,485.0313 Q827.4063,483.375 829.9063,483.375 Q830.6094,483.375 831.25,483.5313 Q831.9063,483.6875 832.4688,483.9844 L832.4688,486.7031 Q831.8438,486.125 831.25,485.8594 Q830.6563,485.5781 830.0313,485.5781 Q828.6875,485.5781 828,486.6563 Q827.3125,487.7188 827.3125,489.8125 Q827.3125,491.9063 828,492.9844 Q828.6875,494.0469 830.0313,494.0469 Q830.6563,494.0469 831.25,493.7813 Q831.8438,493.5 832.4688,492.9219 L832.4688,495.6406 Z " fill="#000000"/><text fill="#000000" font-family="sans-serif" font-size="14" lengthAdjust="spacing" textLength="37.2559" x="843.5" y="494.8467">Piece</text></g><!--class PieceType--><g class="entity" data-entity="PieceType" data-source-line="24" data-uid="ent0011" id="entity_PieceType"><rect fill="#F1F1F1" height="32" rx="2.5" ry="2.5" style="stroke:#181818;stroke-width:0.5;" width="103.5928" x="779" y="585"/><ellipse cx="794" cy="601" fill="#EB937F" rx="11" ry="11" style="stroke:#181818;stroke-width:1;"/><path d="M798.1094,607 L790.3906,607 L790.3906,594.6094 L798.1094,594.6094 L798.1094,596.7656 L792.8438,596.7656 L792.8438,599.4375 L797.6094,599.4375 L797.6094,601.5938 L792.8438,601.5938 L792.8438,604.8438 L798.1094,604.8438 L798.1094,607 Z " fill="#000000"/><text fill="#000000" font-family="sans-serif" font-size="14" lengthAdjust="spacing" textLength="71.5928" x="808" y="605.8467">PieceType</text></g><!--class PlayerColor--><g class="entity" data-entity="PlayerColor" data-source-line="34" data-uid="ent0012" id="entity_PlayerColor"><rect fill="#F1F1F1" height="32" rx="2.5" ry="2.5" style="stroke:#181818;stroke-width:0.5;" width="112.1172" x="918" y="585"/><ellipse cx="933" cy="601" fill="#EB937F" rx="11" ry="11" style="stroke:#181818;stroke-width:1;"/><path d="M937.1094,607 L929.3906,607 L929.3906,594.6094 L937.1094,594.6094 L937.1094,596.7656 L931.8438,596.7656 L931.8438,599.4375 L936.6094,599.4375 L936.6094,601.5938 L931.8438,601.5938 L931.8438,604.8438 L937.1094,604.8438 L937.1094,607 Z " fill="#000000"/><text fill="#000000" font-family="sans-serif" font-size="14" lengthAdjust="spacing" textLength="80.1172" x="947" y="605.8467">PlayerColor</text></g><!--class ChessBoard--><g class="entity" data-entity="ChessBoard" data-source-line="40" data-uid="ent0013" id="entity_ChessBoard"><rect fill="#F1F1F1" height="32" rx="2.5" ry="2.5" style="stroke:#181818;stroke-width:0.5;" width="115.2412" x="1953.5" y="474"/><ellipse cx="1968.5" cy="490" fill="#ADD1B2" rx="11" ry="11" style="stroke:#181818;stroke-width:1;"/><path d="M1971.4688,495.6406 Q1970.8906,495.9375 1970.25,496.0781 Q1969.6094,496.2344 1968.9063,496.2344 Q1966.4063,496.2344 1965.0781,494.5938 Q1963.7656,492.9375 1963.7656,489.8125 Q1963.7656,486.6875 1965.0781,485.0313 Q1966.4063,483.375 1968.9063,483.375 Q1969.6094,483.375 1970.25,483.5313 Q1970.9063,483.6875 1971.4688,483.9844 L1971.4688,486.7031 Q1970.8438,486.125 1970.25,485.8594 Q1969.6563,485.5781 1969.0313,485.5781 Q1967.6875,485.5781 1967,486.6563 Q1966.3125,487.7188 1966.3125,489.8125 Q1966.3125,491.9063 1967,492.9844 Q1967.6875,494.0469 1969.0313,494.0469 Q1969.6563,494.0469 1970.25,493.7813 Q1970.8438,493.5 1971.4688,492.9219 L1971.4688,495.6406 Z " fill="#000000"/><text fill="#000000" font-family="sans-serif" font-size="14" lengthAdjust="spacing" textLength="83.2412" x="1982.5" y="494.8467">ChessBoard</text></g><!--class BoardRenderer--><g class="entity" data-entity="BoardRenderer" data-source-line="52" data-uid="ent0015" id="entity_BoardRenderer"><rect fill="#F1F1F1" height="32" rx="2.5" ry="2.5" style="stroke:#181818;stroke-width:0.5;" width="138.2305" x="1750" y="585"/><ellipse cx="1765" cy="601" fill="#ADD1B2" rx="11" ry="11" style="stroke:#181818;stroke-width:1;"/><path d="M1767.9688,606.6406 Q1767.3906,606.9375 1766.75,607.0781 Q1766.1094,607.2344 1765.4063,607.2344 Q1762.9063,607.2344 1761.5781,605.5938 Q1760.2656,603.9375 1760.2656,600.8125 Q1760.2656,597.6875 1761.5781,596.0313 Q1762.9063,594.375 1765.4063,594.375 Q1766.1094,594.375 1766.75,594.5313 Q1767.4063,594.6875 1767.9688,594.9844 L1767.9688,597.7031 Q1767.3438,597.125 1766.75,596.8594 Q1766.1563,596.5781 1765.5313,596.5781 Q1764.1875,596.5781 1763.5,597.6563 Q1762.8125,598.7188 1762.8125,600.8125 Q1762.8125,602.9063 1763.5,603.9844 Q1764.1875,605.0469 1765.5313,605.0469 Q1766.1563,605.0469 1766.75,604.7813 Q1767.3438,604.5 1767.9688,603.9219 L1767.9688,606.6406 Z " fill="#000000"/><text fill="#000000" font-family="sans-serif" font-size="14" lengthAdjust="spacing" textLength="106.2305" x="1779" y="605.8467">BoardRenderer</text></g><!--class ChessBoardRenderer--><g class="entity" data-entity="ChessBoardRenderer" data-source-line="57" data-uid="ent0017" id="entity_ChessBoardRenderer"><rect fill="#F1F1F1" height="32" rx="2.5" ry="2.5" style="stroke:#181818;stroke-width:0.5;" width="180.0801" x="1738" y="474"/><ellipse cx="1753" cy="490" fill="#ADD1B2" rx="11" ry="11" style="stroke:#181818;stroke-width:1;"/><path d="M1755.9688,495.6406 Q1755.3906,495.9375 1754.75,496.0781 Q1754.1094,496.2344 1753.4063,496.2344 Q1750.9063,496.2344 1749.5781,494.5938 Q1748.2656,492.9375 1748.2656,489.8125 Q1748.2656,486.6875 1749.5781,485.0313 Q1750.9063,483.375 1753.4063,483.375 Q1754.1094,483.375 1754.75,483.5313 Q1755.4063,483.6875 1755.9688,483.9844 L1755.9688,486.7031 Q1755.3438,486.125 1754.75,485.8594 Q1754.1563,485.5781 1753.5313,485.5781 Q1752.1875,485.5781 1751.5,486.6563 Q1750.8125,487.7188 1750.8125,489.8125 Q1750.8125,491.9063 1751.5,492.9844 Q1752.1875,494.0469 1753.5313,494.0469 Q1754.1563,494.0469 1754.75,493.7813 Q1755.3438,493.5 1755.9688,492.9219 L1755.9688,495.6406 Z " fill="#000000"/><text fill="#000000" font-family="sans-serif" font-size="14" lengthAdjust="spacing" textLength="148.0801" x="1767" y="494.8467">ChessBoardRenderer</text></g><!--class FieldRenderer--><g class="entity" data-entity="FieldRenderer" data-source-line="63" data-uid="ent0018" id="entity_FieldRenderer"><rect fill="#F1F1F1" height="32" rx="2.5" ry="2.5" style="stroke:#181818;stroke-width:0.5;" width="130.1709" x="1754" y="696"/><ellipse cx="1769" cy="712" fill="#B4A7E5" rx="11" ry="11" style="stroke:#181818;stroke-width:1;"/><path d="M1764.9219,707.7656 L1764.9219,705.6094 L1772.3125,705.6094 L1772.3125,707.7656 L1769.8438,707.7656 L1769.8438,715.8438 L1772.3125,715.8438 L1772.3125,718 L1764.9219,718 L1764.9219,715.8438 L1767.3906,715.8438 L1767.3906,707.7656 L1764.9219,707.7656 Z " fill="#000000"/><text fill="#000000" font-family="sans-serif" font-size="14" font-style="italic" lengthAdjust="spacing" textLength="98.1709" x="1783" y="716.8467">FieldRenderer</text></g><!--class SquareColor--><g class="entity" data-entity="SquareColor" data-source-line="68" data-uid="ent0019" id="entity_SquareColor"><rect fill="#F1F1F1" height="32" rx="2.5" ry="2.5" style="stroke:#181818;stroke-width:0.5;" width="118.1465" x="1585" y="474"/><ellipse cx="1600" cy="490" fill="#EB937F" rx="11" ry="11" style="stroke:#181818;stroke-width:1;"/><path d="M1604.1094,496 L1596.3906,496 L1596.3906,483.6094 L1604.1094,483.6094 L1604.1094,485.7656 L1598.8438,485.7656 L1598.8438,488.4375 L1603.6094,488.4375 L1603.6094,490.5938 L1598.8438,490.5938 L1598.8438,493.8438 L1604.1094,493.8438 L1604.1094,496 Z " fill="#000000"/><text fill="#000000" font-family="sans-serif" font-size="14" lengthAdjust="spacing" textLength="86.1465" x="1614" y="494.8467">SquareColor</text></g><!--class EvalStrategy--><g class="entity" data-entity="EvalStrategy" data-source-line="74" data-uid="ent0020" id="entity_EvalStrategy"><rect fill="#F1F1F1" height="32" rx="2.5" ry="2.5" style="stroke:#181818;stroke-width:0.5;" width="121.585" x="1232" y="585"/><ellipse cx="1247" cy="601" fill="#B4A7E5" rx="11" ry="11" style="stroke:#181818;stroke-width:1;"/><path d="M1242.9219,596.7656 L1242.9219,594.6094 L1250.3125,594.6094 L1250.3125,596.7656 L1247.8438,596.7656 L1247.8438,604.8438 L1250.3125,604.8438 L1250.3125,607 L1242.9219,607 L1242.9219,604.8438 L1245.3906,604.8438 L1245.3906,596.7656 L1242.9219,596.7656 Z " fill="#000000"/><text fill="#000000" font-family="sans-serif" font-size="14" font-style="italic" lengthAdjust="spacing" textLength="89.585" x="1261" y="605.8467">EvalStrategy</text></g><!--class MaterialEval--><g class="entity" data-entity="MaterialEval" data-source-line="79" data-uid="ent0022" id="entity_MaterialEval"><rect fill="#F1F1F1" height="32" rx="2.5" ry="2.5" style="stroke:#181818;stroke-width:0.5;" width="118.4746" x="1387" y="474"/><ellipse cx="1402" cy="490" fill="#ADD1B2" rx="11" ry="11" style="stroke:#181818;stroke-width:1;"/><path d="M1404.9688,495.6406 Q1404.3906,495.9375 1403.75,496.0781 Q1403.1094,496.2344 1402.4063,496.2344 Q1399.9063,496.2344 1398.5781,494.5938 Q1397.2656,492.9375 1397.2656,489.8125 Q1397.2656,486.6875 1398.5781,485.0313 Q1399.9063,483.375 1402.4063,483.375 Q1403.1094,483.375 1403.75,483.5313 Q1404.4063,483.6875 1404.9688,483.9844 L1404.9688,486.7031 Q1404.3438,486.125 1403.75,485.8594 Q1403.1563,485.5781 1402.5313,485.5781 Q1401.1875,485.5781 1400.5,486.6563 Q1399.8125,487.7188 1399.8125,489.8125 Q1399.8125,491.9063 1400.5,492.9844 Q1401.1875,494.0469 1402.5313,494.0469 Q1403.1563,494.0469 1403.75,493.7813 Q1404.3438,493.5 1404.9688,492.9219 L1404.9688,495.6406 Z " fill="#000000"/><text fill="#000000" font-family="sans-serif" font-size="14" lengthAdjust="spacing" textLength="86.4746" x="1416" y="494.8467">MaterialEval</text></g><!--class RandomEval--><g class="entity" data-entity="RandomEval" data-source-line="86" data-uid="ent0023" id="entity_RandomEval"><rect fill="#F1F1F1" height="32" rx="2.5" ry="2.5" style="stroke:#181818;stroke-width:0.5;" width="119.8691" x="1232" y="474"/><ellipse cx="1247" cy="490" fill="#ADD1B2" rx="11" ry="11" style="stroke:#181818;stroke-width:1;"/><path d="M1249.9688,495.6406 Q1249.3906,495.9375 1248.75,496.0781 Q1248.1094,496.2344 1247.4063,496.2344 Q1244.9063,496.2344 1243.5781,494.5938 Q1242.2656,492.9375 1242.2656,489.8125 Q1242.2656,486.6875 1243.5781,485.0313 Q1244.9063,483.375 1247.4063,483.375 Q1248.1094,483.375 1248.75,483.5313 Q1249.4063,483.6875 1249.9688,483.9844 L1249.9688,486.7031 Q1249.3438,486.125 1248.75,485.8594 Q1248.1563,485.5781 1247.5313,485.5781 Q1246.1875,485.5781 1245.5,486.6563 Q1244.8125,487.7188 1244.8125,489.8125 Q1244.8125,491.9063 1245.5,492.9844 Q1246.1875,494.0469 1247.5313,494.0469 Q1248.1563,494.0469 1248.75,493.7813 Q1249.3438,493.5 1249.9688,492.9219 L1249.9688,495.6406 Z " fill="#000000"/><text fill="#000000" font-family="sans-serif" font-size="14" lengthAdjust="spacing" textLength="87.8691" x="1261" y="494.8467">RandomEval</text></g><!--class ChessGame--><g class="entity" data-entity="ChessGame" data-source-line="91" data-uid="ent0024" id="entity_ChessGame"><rect fill="#F1F1F1" height="32" rx="2.5" ry="2.5" style="stroke:#181818;stroke-width:0.5;" width="115.5283" x="2280" y="299"/><ellipse cx="2295" cy="315" fill="#ADD1B2" rx="11" ry="11" style="stroke:#181818;stroke-width:1;"/><path d="M2297.9688,320.6406 Q2297.3906,320.9375 2296.75,321.0781 Q2296.1094,321.2344 2295.4063,321.2344 Q2292.9063,321.2344 2291.5781,319.5938 Q2290.2656,317.9375 2290.2656,314.8125 Q2290.2656,311.6875 2291.5781,310.0313 Q2292.9063,308.375 2295.4063,308.375 Q2296.1094,308.375 2296.75,308.5313 Q2297.4063,308.6875 2297.9688,308.9844 L2297.9688,311.7031 Q2297.3438,311.125 2296.75,310.8594 Q2296.1563,310.5781 2295.5313,310.5781 Q2294.1875,310.5781 2293.5,311.6563 Q2292.8125,312.7188 2292.8125,314.8125 Q2292.8125,316.9063 2293.5,317.9844 Q2294.1875,319.0469 2295.5313,319.0469 Q2296.1563,319.0469 2296.75,318.7813 Q2297.3438,318.5 2297.9688,317.9219 L2297.9688,320.6406 Z " fill="#000000"/><text fill="#000000" font-family="sans-serif" font-size="14" lengthAdjust="spacing" textLength="83.5283" x="2309" y="319.8467">ChessGame</text></g><!--class InputReader--><g class="entity" data-entity="InputReader" data-source-line="99" data-uid="ent0026" id="entity_InputReader"><rect fill="#F1F1F1" height="32" rx="2.5" ry="2.5" style="stroke:#181818;stroke-width:0.5;" width="118.4268" x="2205" y="474"/><ellipse cx="2220" cy="490" fill="#ADD1B2" rx="11" ry="11" style="stroke:#181818;stroke-width:1;"/><path d="M2222.9688,495.6406 Q2222.3906,495.9375 2221.75,496.0781 Q2221.1094,496.2344 2220.4063,496.2344 Q2217.9063,496.2344 2216.5781,494.5938 Q2215.2656,492.9375 2215.2656,489.8125 Q2215.2656,486.6875 2216.5781,485.0313 Q2217.9063,483.375 2220.4063,483.375 Q2221.1094,483.375 2221.75,483.5313 Q2222.4063,483.6875 2222.9688,483.9844 L2222.9688,486.7031 Q2222.3438,486.125 2221.75,485.8594 Q2221.1563,485.5781 2220.5313,485.5781 Q2219.1875,485.5781 2218.5,486.6563 Q2217.8125,487.7188 2217.8125,489.8125 Q2217.8125,491.9063 2218.5,492.9844 Q2219.1875,494.0469 2220.5313,494.0469 Q2221.1563,494.0469 2221.75,493.7813 Q2222.3438,493.5 2222.9688,492.9219 L2222.9688,495.6406 Z " fill="#000000"/><text fill="#000000" font-family="sans-serif" font-size="14" lengthAdjust="spacing" textLength="86.4268" x="2234" y="494.8467">InputReader</text></g><!--class MatchConfig--><g class="entity" data-entity="MatchConfig" data-source-line="105" data-uid="ent0027" id="entity_MatchConfig"><rect fill="#F1F1F1" height="32" rx="2.5" ry="2.5" style="stroke:#181818;stroke-width:0.5;" width="119.6367" x="2125" y="299"/><ellipse cx="2140" cy="315" fill="#ADD1B2" rx="11" ry="11" style="stroke:#181818;stroke-width:1;"/><path d="M2142.9688,320.6406 Q2142.3906,320.9375 2141.75,321.0781 Q2141.1094,321.2344 2140.4063,321.2344 Q2137.9063,321.2344 2136.5781,319.5938 Q2135.2656,317.9375 2135.2656,314.8125 Q2135.2656,311.6875 2136.5781,310.0313 Q2137.9063,308.375 2140.4063,308.375 Q2141.1094,308.375 2141.75,308.5313 Q2142.4063,308.6875 2142.9688,308.9844 L2142.9688,311.7031 Q2142.3438,311.125 2141.75,310.8594 Q2141.1563,310.5781 2140.5313,310.5781 Q2139.1875,310.5781 2138.5,311.6563 Q2137.8125,312.7188 2137.8125,314.8125 Q2137.8125,316.9063 2138.5,317.9844 Q2139.1875,319.0469 2140.5313,319.0469 Q2141.1563,319.0469 2141.75,318.7813 Q2142.3438,318.5 2142.9688,317.9219 L2142.9688,320.6406 Z " fill="#000000"/><text fill="#000000" font-family="sans-serif" font-size="14" lengthAdjust="spacing" textLength="87.6367" x="2154" y="319.8467">MatchConfig</text></g><!--class OutputWriter--><g class="entity" data-entity="OutputWriter" data-source-line="114" data-uid="ent0028" id="entity_OutputWriter"><rect fill="#F1F1F1" height="32" rx="2.5" ry="2.5" style="stroke:#181818;stroke-width:0.5;" width="123.9775" x="2513" y="474"/><ellipse cx="2528" cy="490" fill="#ADD1B2" rx="11" ry="11" style="stroke:#181818;stroke-width:1;"/><path d="M2530.9688,495.6406 Q2530.3906,495.9375 2529.75,496.0781 Q2529.1094,496.2344 2528.4063,496.2344 Q2525.9063,496.2344 2524.5781,494.5938 Q2523.2656,492.9375 2523.2656,489.8125 Q2523.2656,486.6875 2524.5781,485.0313 Q2525.9063,483.375 2528.4063,483.375 Q2529.1094,483.375 2529.75,483.5313 Q2530.4063,483.6875 2530.9688,483.9844 L2530.9688,486.7031 Q2530.3438,486.125 2529.75,485.8594 Q2529.1563,485.5781 2528.5313,485.5781 Q2527.1875,485.5781 2526.5,486.6563 Q2525.8125,487.7188 2525.8125,489.8125 Q2525.8125,491.9063 2526.5,492.9844 Q2527.1875,494.0469 2528.5313,494.0469 Q2529.1563,494.0469 2529.75,493.7813 Q2530.3438,493.5 2530.9688,492.9219 L2530.9688,495.6406 Z " fill="#000000"/><text fill="#000000" font-family="sans-serif" font-size="14" lengthAdjust="spacing" textLength="91.9775" x="2542" y="494.8467">OutputWriter</text></g><!--class GameAbortedException--><g class="entity" data-entity="GameAbortedException" data-source-line="124" data-uid="ent0029" id="entity_GameAbortedException"><rect fill="#F1F1F1" height="32" rx="2.5" ry="2.5" style="stroke:#181818;stroke-width:0.5;" width="198.5986" x="3003.5" y="299"/><ellipse cx="3018.5" cy="315" fill="#ADD1B2" rx="11" ry="11" style="stroke:#181818;stroke-width:1;"/><path d="M3021.4688,320.6406 Q3020.8906,320.9375 3020.25,321.0781 Q3019.6094,321.2344 3018.9063,321.2344 Q3016.4063,321.2344 3015.0781,319.5938 Q3013.7656,317.9375 3013.7656,314.8125 Q3013.7656,311.6875 3015.0781,310.0313 Q3016.4063,308.375 3018.9063,308.375 Q3019.6094,308.375 3020.25,308.5313 Q3020.9063,308.6875 3021.4688,308.9844 L3021.4688,311.7031 Q3020.8438,311.125 3020.25,310.8594 Q3019.6563,310.5781 3019.0313,310.5781 Q3017.6875,310.5781 3017,311.6563 Q3016.3125,312.7188 3016.3125,314.8125 Q3016.3125,316.9063 3017,317.9844 Q3017.6875,319.0469 3019.0313,319.0469 Q3019.6563,319.0469 3020.25,318.7813 Q3020.8438,318.5 3021.4688,317.9219 L3021.4688,320.6406 Z " fill="#000000"/><text fill="#000000" font-family="sans-serif" font-size="14" lengthAdjust="spacing" textLength="166.5986" x="3032.5" y="319.8467">GameAbortedException</text></g><!--class MatchAbortedException--><g class="entity" data-entity="MatchAbortedException" data-source-line="128" data-uid="ent0031" id="entity_MatchAbortedException"><rect fill="#F1F1F1" height="32" rx="2.5" ry="2.5" style="stroke:#181818;stroke-width:0.5;" width="199.6377" x="2768" y="299"/><ellipse cx="2783" cy="315" fill="#ADD1B2" rx="11" ry="11" style="stroke:#181818;stroke-width:1;"/><path d="M2785.9688,320.6406 Q2785.3906,320.9375 2784.75,321.0781 Q2784.1094,321.2344 2783.4063,321.2344 Q2780.9063,321.2344 2779.5781,319.5938 Q2778.2656,317.9375 2778.2656,314.8125 Q2778.2656,311.6875 2779.5781,310.0313 Q2780.9063,308.375 2783.4063,308.375 Q2784.1094,308.375 2784.75,308.5313 Q2785.4063,308.6875 2785.9688,308.9844 L2785.9688,311.7031 Q2785.3438,311.125 2784.75,310.8594 Q2784.1563,310.5781 2783.5313,310.5781 Q2782.1875,310.5781 2781.5,311.6563 Q2780.8125,312.7188 2780.8125,314.8125 Q2780.8125,316.9063 2781.5,317.9844 Q2782.1875,319.0469 2783.5313,319.0469 Q2784.1563,319.0469 2784.75,318.7813 Q2785.3438,318.5 2785.9688,317.9219 L2785.9688,320.6406 Z " fill="#000000"/><text fill="#000000" font-family="sans-serif" font-size="14" lengthAdjust="spacing" textLength="167.6377" x="2797" y="319.8467">MatchAbortedException</text></g><!--class HomeScreen--><g class="entity" data-entity="HomeScreen" data-source-line="132" data-uid="ent0032" id="entity_HomeScreen"><rect fill="#F1F1F1" height="32" rx="2.5" ry="2.5" style="stroke:#181818;stroke-width:0.5;" width="121.7832" x="2590" y="299"/><ellipse cx="2605" cy="315" fill="#ADD1B2" rx="11" ry="11" style="stroke:#181818;stroke-width:1;"/><path d="M2607.9688,320.6406 Q2607.3906,320.9375 2606.75,321.0781 Q2606.1094,321.2344 2605.4063,321.2344 Q2602.9063,321.2344 2601.5781,319.5938 Q2600.2656,317.9375 2600.2656,314.8125 Q2600.2656,311.6875 2601.5781,310.0313 Q2602.9063,308.375 2605.4063,308.375 Q2606.1094,308.375 2606.75,308.5313 Q2607.4063,308.6875 2607.9688,308.9844 L2607.9688,311.7031 Q2607.3438,311.125 2606.75,310.8594 Q2606.1563,310.5781 2605.5313,310.5781 Q2604.1875,310.5781 2603.5,311.6563 Q2602.8125,312.7188 2602.8125,314.8125 Q2602.8125,316.9063 2603.5,317.9844 Q2604.1875,319.0469 2605.5313,319.0469 Q2606.1563,319.0469 2606.75,318.7813 Q2607.3438,318.5 2607.9688,317.9219 L2607.9688,320.6406 Z " fill="#000000"/><text fill="#000000" font-family="sans-serif" font-size="14" lengthAdjust="spacing" textLength="89.7832" x="2619" y="319.8467">HomeScreen</text></g><!--class MatchScreen--><g class="entity" data-entity="MatchScreen" data-source-line="138" data-uid="ent0034" id="entity_MatchScreen"><rect fill="#F1F1F1" height="32" rx="2.5" ry="2.5" style="stroke:#181818;stroke-width:0.5;" width="123.1572" x="2431.5" y="299"/><ellipse cx="2446.5" cy="315" fill="#ADD1B2" rx="11" ry="11" style="stroke:#181818;stroke-width:1;"/><path d="M2449.4688,320.6406 Q2448.8906,320.9375 2448.25,321.0781 Q2447.6094,321.2344 2446.9063,321.2344 Q2444.4063,321.2344 2443.0781,319.5938 Q2441.7656,317.9375 2441.7656,314.8125 Q2441.7656,311.6875 2443.0781,310.0313 Q2444.4063,308.375 2446.9063,308.375 Q2447.6094,308.375 2448.25,308.5313 Q2448.9063,308.6875 2449.4688,308.9844 L2449.4688,311.7031 Q2448.8438,311.125 2448.25,310.8594 Q2447.6563,310.5781 2447.0313,310.5781 Q2445.6875,310.5781 2445,311.6563 Q2444.3125,312.7188 2444.3125,314.8125 Q2444.3125,316.9063 2445,317.9844 Q2445.6875,319.0469 2447.0313,319.0469 Q2447.6563,319.0469 2448.25,318.7813 Q2448.8438,318.5 2449.4688,317.9219 L2449.4688,320.6406 Z " fill="#000000"/><text fill="#000000" font-family="sans-serif" font-size="14" lengthAdjust="spacing" textLength="91.1572" x="2460.5" y="319.8467">MatchScreen</text></g><!--class AbstractPlayer--><g class="entity" data-entity="AbstractPlayer" data-source-line="146" data-uid="ent0035" id="entity_AbstractPlayer"><rect fill="#F1F1F1" height="32" rx="2.5" ry="2.5" style="stroke:#181818;stroke-width:0.5;" width="134.334" x="589" y="474"/><ellipse cx="604" cy="490" fill="#A9DCDF" rx="11" ry="11" style="stroke:#181818;stroke-width:1;"/><path d="M604.1094,485.3438 L602.9531,490.4219 L605.2813,490.4219 L604.1094,485.3438 Z M602.625,483.1094 L605.6094,483.1094 L608.9688,495.5 L606.5156,495.5 L605.75,492.4375 L602.4688,492.4375 L601.7188,495.5 L599.2813,495.5 L602.625,483.1094 Z " fill="#000000"/><text fill="#000000" font-family="sans-serif" font-size="14" font-style="italic" lengthAdjust="spacing" textLength="102.334" x="618" y="494.8467">AbstractPlayer</text></g><!--class BotPlayer--><g class="entity" data-entity="BotPlayer" data-source-line="151" data-uid="ent0037" id="entity_BotPlayer"><rect fill="#F1F1F1" height="32" rx="2.5" ry="2.5" style="stroke:#181818;stroke-width:0.5;" width="99.2246" x="218.5" y="299"/><ellipse cx="233.5" cy="315" fill="#ADD1B2" rx="11" ry="11" style="stroke:#181818;stroke-width:1;"/><path d="M236.4688,320.6406 Q235.8906,320.9375 235.25,321.0781 Q234.6094,321.2344 233.9063,321.2344 Q231.4063,321.2344 230.0781,319.5938 Q228.7656,317.9375 228.7656,314.8125 Q228.7656,311.6875 230.0781,310.0313 Q231.4063,308.375 233.9063,308.375 Q234.6094,308.375 235.25,308.5313 Q235.9063,308.6875 236.4688,308.9844 L236.4688,311.7031 Q235.8438,311.125 235.25,310.8594 Q234.6563,310.5781 234.0313,310.5781 Q232.6875,310.5781 232,311.6563 Q231.3125,312.7188 231.3125,314.8125 Q231.3125,316.9063 232,317.9844 Q232.6875,319.0469 234.0313,319.0469 Q234.6563,319.0469 235.25,318.7813 Q235.8438,318.5 236.4688,317.9219 L236.4688,320.6406 Z " fill="#000000"/><text fill="#000000" font-family="sans-serif" font-size="14" lengthAdjust="spacing" textLength="67.2246" x="247.5" y="319.8467">BotPlayer</text></g><!--class HumanPlayer--><g class="entity" data-entity="HumanPlayer" data-source-line="156" data-uid="ent0038" id="entity_HumanPlayer"><rect fill="#F1F1F1" height="32" rx="2.5" ry="2.5" style="stroke:#181818;stroke-width:0.5;" width="126.0557" x="353" y="299"/><ellipse cx="368" cy="315" fill="#ADD1B2" rx="11" ry="11" style="stroke:#181818;stroke-width:1;"/><path d="M370.9688,320.6406 Q370.3906,320.9375 369.75,321.0781 Q369.1094,321.2344 368.4063,321.2344 Q365.9063,321.2344 364.5781,319.5938 Q363.2656,317.9375 363.2656,314.8125 Q363.2656,311.6875 364.5781,310.0313 Q365.9063,308.375 368.4063,308.375 Q369.1094,308.375 369.75,308.5313 Q370.4063,308.6875 370.9688,308.9844 L370.9688,311.7031 Q370.3438,311.125 369.75,310.8594 Q369.1563,310.5781 368.5313,310.5781 Q367.1875,310.5781 366.5,311.6563 Q365.8125,312.7188 365.8125,314.8125 Q365.8125,316.9063 366.5,317.9844 Q367.1875,319.0469 368.5313,319.0469 Q369.1563,319.0469 369.75,318.7813 Q370.3438,318.5 370.9688,317.9219 L370.9688,320.6406 Z " fill="#000000"/><text fill="#000000" font-family="sans-serif" font-size="14" lengthAdjust="spacing" textLength="94.0557" x="382" y="319.8467">HumanPlayer</text></g><!--class InvalidMoveException--><g class="entity" data-entity="InvalidMoveException" data-source-line="161" data-uid="ent0039" id="entity_InvalidMoveException"><rect fill="#F1F1F1" height="32" rx="2.5" ry="2.5" style="stroke:#181818;stroke-width:0.5;" width="185.2207" x="514.5" y="299"/><ellipse cx="529.5" cy="315" fill="#ADD1B2" rx="11" ry="11" style="stroke:#181818;stroke-width:1;"/><path d="M532.4688,320.6406 Q531.8906,320.9375 531.25,321.0781 Q530.6094,321.2344 529.9063,321.2344 Q527.4063,321.2344 526.0781,319.5938 Q524.7656,317.9375 524.7656,314.8125 Q524.7656,311.6875 526.0781,310.0313 Q527.4063,308.375 529.9063,308.375 Q530.6094,308.375 531.25,308.5313 Q531.9063,308.6875 532.4688,308.9844 L532.4688,311.7031 Q531.8438,311.125 531.25,310.8594 Q530.6563,310.5781 530.0313,310.5781 Q528.6875,310.5781 528,311.6563 Q527.3125,312.7188 527.3125,314.8125 Q527.3125,316.9063 528,317.9844 Q528.6875,319.0469 530.0313,319.0469 Q530.6563,319.0469 531.25,318.7813 Q531.8438,318.5 532.4688,317.9219 L532.4688,320.6406 Z " fill="#000000"/><text fill="#000000" font-family="sans-serif" font-size="14" lengthAdjust="spacing" textLength="153.2207" x="543.5" y="319.8467">InvalidMoveException</text></g><!--class MiniMax--><g class="entity" data-entity="MiniMax" data-source-line="166" data-uid="ent0041" id="entity_MiniMax"><rect fill="#F1F1F1" height="32" rx="2.5" ry="2.5" style="stroke:#181818;stroke-width:0.5;" width="89.6748" x="1086" y="474"/><ellipse cx="1101" cy="490" fill="#ADD1B2" rx="11" ry="11" style="stroke:#181818;stroke-width:1;"/><path d="M1103.9688,495.6406 Q1103.3906,495.9375 1102.75,496.0781 Q1102.1094,496.2344 1101.4063,496.2344 Q1098.9063,496.2344 1097.5781,494.5938 Q1096.2656,492.9375 1096.2656,489.8125 Q1096.2656,486.6875 1097.5781,485.0313 Q1098.9063,483.375 1101.4063,483.375 Q1102.1094,483.375 1102.75,483.5313 Q1103.4063,483.6875 1103.9688,483.9844 L1103.9688,486.7031 Q1103.3438,486.125 1102.75,485.8594 Q1102.1563,485.5781 1101.5313,485.5781 Q1100.1875,485.5781 1099.5,486.6563 Q1098.8125,487.7188 1098.8125,489.8125 Q1098.8125,491.9063 1099.5,492.9844 Q1100.1875,494.0469 1101.5313,494.0469 Q1102.1563,494.0469 1102.75,493.7813 Q1103.3438,493.5 1103.9688,492.9219 L1103.9688,495.6406 Z " fill="#000000"/><text fill="#000000" font-family="sans-serif" font-size="14" lengthAdjust="spacing" textLength="57.6748" x="1115" y="494.8467">MiniMax</text></g><!--reverse link Piece to PieceType--><g class="link" data-entity-1="Piece" data-entity-2="PieceType" data-source-line="176" data-uid="lnk43" id="link_Piece_PieceType"><path codeLine="176" d="M844.5438,517.9995 C841.1038,538.8195 836.91,564.22 833.48,584.97" fill="none" id="Piece-backto-PieceType" style="stroke:#181818;stroke-width:1;"/><polygon fill="#181818" points="846.5,506.16,841.5754,511.4277,844.5438,517.9995,849.4684,512.7318,846.5,506.16" style="stroke:#181818;stroke-width:1;"/><text fill="#000000" font-family="sans-serif" font-size="13" lengthAdjust="spacing" textLength="29.0405" x="842" y="551.0669">type</text></g><!--reverse link Piece to PlayerColor--><g class="link" data-entity-1="Piece" data-entity-2="PlayerColor" data-source-line="177" data-uid="lnk44" id="link_Piece_PlayerColor"><path codeLine="177" d="M875.425,514.046 C899.305,534.866 932.96,564.22 956.77,584.97" fill="none" id="Piece-backto-PlayerColor" style="stroke:#181818;stroke-width:1;"/><polygon fill="#181818" points="866.38,506.16,868.2738,513.118,875.425,514.046,873.5311,507.088,866.38,506.16" style="stroke:#181818;stroke-width:1;"/><text fill="#000000" font-family="sans-serif" font-size="13" lengthAdjust="spacing" textLength="32.0112" x="919" y="551.0669">color</text></g><!--reverse link BoardRenderer to FieldRenderer--><g class="link" data-entity-1="BoardRenderer" data-entity-2="FieldRenderer" data-source-line="178" data-uid="lnk45" id="link_BoardRenderer_FieldRenderer"><path codeLine="178" d="M1819,629.16 C1819,649.98 1819,675.22 1819,695.97" fill="none" id="BoardRenderer-backto-FieldRenderer" style="stroke:#181818;stroke-width:1;"/><polygon fill="#181818" points="1819,617.16,1815,623.16,1819,629.16,1823,623.16,1819,617.16" style="stroke:#181818;stroke-width:1;"/><text fill="#000000" font-family="sans-serif" font-size="13" lengthAdjust="spacing" textLength="43.1768" x="1820" y="662.0669">render</text></g><!--reverse link ChessBoardRenderer to BoardRenderer--><g class="link" data-entity-1="ChessBoardRenderer" data-entity-2="BoardRenderer" data-source-line="179" data-uid="lnk46" id="link_ChessBoardRenderer_BoardRenderer"><path codeLine="179" d="M1825.762,518.1193 C1824.042,538.9393 1821.95,564.22 1820.24,584.97" fill="none" id="ChessBoardRenderer-backto-BoardRenderer" style="stroke:#181818;stroke-width:1;"/><polygon fill="#181818" points="1826.75,506.16,1822.2696,511.8103,1825.762,518.1193,1830.2424,512.469,1826.75,506.16" style="stroke:#181818;stroke-width:1;"/><text fill="#000000" font-family="sans-serif" font-size="13" lengthAdjust="spacing" textLength="97.9761" x="1825" y="551.0669">boardRenderer</text></g><!--link MaterialEval to EvalStrategy--><g class="link" data-entity-1="MaterialEval" data-entity-2="EvalStrategy" data-source-line="180" data-uid="lnk47" id="link_MaterialEval_EvalStrategy"><path codeLine="180" d="M1424.73,506.16 C1395.49,526.98 1357.8925,553.7791 1328.7525,574.5291" fill="none" id="MaterialEval-to-EvalStrategy" style="stroke:#181818;stroke-width:1;stroke-dasharray:7,7;"/><polygon fill="none" points="1314.09,584.97,1332.2328,579.4166,1325.2722,569.6416,1314.09,584.97" style="stroke:#181818;stroke-width:1;"/></g><!--link RandomEval to EvalStrategy--><g class="link" data-entity-1="RandomEval" data-entity-2="EvalStrategy" data-source-line="181" data-uid="lnk48" id="link_RandomEval_EvalStrategy"><path codeLine="181" d="M1292.14,506.16 C1292.33,526.98 1292.5052,546.2208 1292.6952,566.9708" fill="none" id="RandomEval-to-EvalStrategy" style="stroke:#181818;stroke-width:1;stroke-dasharray:7,7;"/><polygon fill="none" points="1292.86,584.97,1298.6949,566.9158,1286.6954,567.0257,1292.86,584.97" style="stroke:#181818;stroke-width:1;"/></g><!--reverse link MatchConfig to AbstractPlayer--><g class="link" data-entity-1="MatchConfig" data-entity-2="AbstractPlayer" data-source-line="182" data-uid="lnk49" id="link_MatchConfig_AbstractPlayer"><path codeLine="182" d="M2112.7634,319.316 C1983.9934,325.396 1684.48,340.68 1424,363 C1354.95,368.92 1338.17,375.67 1269,380 C1240.94,381.76 789.04,377.41 763,388 C719.46,405.7 683.23,450.14 666.3,473.73" fill="none" id="MatchConfig-backto-AbstractPlayer" style="stroke:#181818;stroke-width:1;"/><polygon fill="#181818" points="2124.75,318.75,2118.568,315.0374,2112.7634,319.316,2118.9453,323.0285,2124.75,318.75" style="stroke:#181818;stroke-width:1;"/><text fill="#000000" font-family="sans-serif" font-size="13" lengthAdjust="spacing" textLength="34.5059" x="1425" y="376.0669">black</text></g><!--reverse link MatchConfig to AbstractPlayer--><g class="link" data-entity-1="MatchConfig" data-entity-2="AbstractPlayer" data-source-line="183" data-uid="lnk50" id="link_MatchConfig_AbstractPlayer"><path codeLine="183" d="M2112.8084,318.6398 C1961.3784,324.3198 1564.42,340.22 1224,363 C1134.99,368.96 1113.06,374.85 1024,380 C995.03,381.67 789.8,376.87 763,388 C719.59,406.03 683.31,450.32 666.33,473.8" fill="none" id="MatchConfig-backto-AbstractPlayer-1" style="stroke:#181818;stroke-width:1;"/><polygon fill="#181818" points="2124.8,318.19,2118.6543,314.4177,2112.8084,318.6398,2118.9541,322.4121,2124.8,318.19" style="stroke:#181818;stroke-width:1;"/><text fill="#000000" font-family="sans-serif" font-size="13" lengthAdjust="spacing" textLength="35.5786" x="1225" y="376.0669">white</text></g><!--reverse link HomeScreen to InputReader--><g class="link" data-entity-1="HomeScreen" data-entity-2="InputReader" data-source-line="184" data-uid="lnk51" id="link_HomeScreen_InputReader"><path codeLine="184" d="M2616.8283,337.4735 C2593.2283,351.8835 2565.95,366.95 2531,380 C2516.05,385.58 2511.16,383.02 2496,388 C2421.09,412.63 2337.17,452.38 2293.7,473.93" fill="none" id="HomeScreen-backto-InputReader" style="stroke:#181818;stroke-width:1;"/><polygon fill="#181818" points="2627.07,331.22,2619.8646,330.9329,2616.8283,337.4735,2624.0336,337.7607,2627.07,331.22" style="stroke:#181818;stroke-width:1;"/><text fill="#000000" font-family="sans-serif" font-size="13" lengthAdjust="spacing" textLength="42.9038" x="2569" y="376.0669">reader</text></g><!--link HomeScreen to OutputWriter--><g class="link" data-entity-1="HomeScreen" data-entity-2="OutputWriter" data-source-line="185" data-uid="lnk52" id="link_HomeScreen_OutputWriter"><path codeLine="185" d="M2644.39,331.05 C2630.02,363.77 2598.4733,435.5668 2584.0633,468.3668" fill="none" id="HomeScreen-to-OutputWriter" style="stroke:#181818;stroke-width:1;"/><polygon fill="#181818" points="2581.65,473.86,2588.9322,467.229,2583.6611,469.2823,2581.6079,464.0112,2581.65,473.86" style="stroke:#181818;stroke-width:1;"/><text fill="#000000" font-family="sans-serif" font-size="13" lengthAdjust="spacing" textLength="38.0288" x="2629" y="376.0669">writer</text></g><!--link MatchScreen to ChessBoard--><g class="link" data-entity-1="MatchScreen" data-entity-2="ChessBoard" data-source-line="186" data-uid="lnk53" id="link_MatchScreen_ChessBoard"><path codeLine="186" d="M2473.76,331.17 C2461.44,339.92 2444.68,350.14 2428,355 C2395.77,364.39 2156.53,349.05 2126,363 C2074.28,386.64 2038.448,440.4927 2022.268,468.5427" fill="none" id="MatchScreen-to-ChessBoard" style="stroke:#181818;stroke-width:1;"/><polygon fill="#181818" points="2019.27,473.74,2027.2318,467.9426,2021.7683,469.4089,2020.3021,463.9454,2019.27,473.74" style="stroke:#181818;stroke-width:1;"/><text fill="#000000" font-family="sans-serif" font-size="13" lengthAdjust="spacing" textLength="74.6992" x="2127" y="376.0669">chessboard</text></g><!--link MatchScreen to ChessBoardRenderer--><g class="link" data-entity-1="MatchScreen" data-entity-2="ChessBoardRenderer" data-source-line="187" data-uid="lnk54" id="link_MatchScreen_ChessBoardRenderer"><path codeLine="187" d="M2474.06,331.02 C2461.71,339.85 2444.83,350.19 2428,355 C2377.25,369.52 2002.63,345.01 1953,363 C1896.8,383.37 1857.0998,440.0988 1839.6698,468.8588" fill="none" id="MatchScreen-to-ChessBoardRenderer" style="stroke:#181818;stroke-width:1;"/><polygon fill="#181818" points="1836.56,473.99,1844.6455,468.3664,1839.1515,469.714,1837.8038,464.22,1836.56,473.99" style="stroke:#181818;stroke-width:1;"/><text fill="#000000" font-family="sans-serif" font-size="13" lengthAdjust="spacing" textLength="135.5732" x="1954" y="376.0669">chessBoardRenderer</text></g><!--link MatchScreen to OutputWriter--><g class="link" data-entity-1="MatchScreen" data-entity-2="OutputWriter" data-source-line="188" data-uid="lnk55" id="link_MatchScreen_OutputWriter"><path codeLine="188" d="M2488.04,331.19 C2484.52,344.44 2481.35,364.01 2487,380 C2500.85,419.21 2530.9915,450.6659 2552.4515,469.8959" fill="none" id="MatchScreen-to-OutputWriter" style="stroke:#181818;stroke-width:1;"/><polygon fill="#181818" points="2556.92,473.9,2552.8867,464.9149,2553.1963,470.5632,2547.5479,470.8728,2556.92,473.9" style="stroke:#181818;stroke-width:1;"/><text fill="#000000" font-family="sans-serif" font-size="13" lengthAdjust="spacing" textLength="38.0288" x="2488" y="376.0669">writer</text></g><!--link MatchScreen to AbstractPlayer--><g class="link" data-entity-1="MatchScreen" data-entity-2="AbstractPlayer" data-source-line="189" data-uid="lnk56" id="link_MatchScreen_AbstractPlayer"><path codeLine="189" d="M2474.07,331.07 C2461.73,339.91 2444.85,350.25 2428,355 C2379.5,368.67 1570.83,355.5 1521,363 C1494.86,366.93 1490.14,376.03 1464,380 C1425.49,385.84 799.11,373.41 763,388 C719.42,405.61 686.7041,445.2023 669.7841,468.8223" fill="none" id="MatchScreen-to-AbstractPlayer" style="stroke:#181818;stroke-width:1;"/><polygon fill="#181818" points="666.29,473.7,674.7829,468.7129,669.2017,469.6353,668.2793,464.0541,666.29,473.7" style="stroke:#181818;stroke-width:1;"/><text fill="#000000" font-family="sans-serif" font-size="13" lengthAdjust="spacing" textLength="34.5059" x="1522" y="376.0669">black</text></g><!--link MatchScreen to AbstractPlayer--><g class="link" data-entity-1="MatchScreen" data-entity-2="AbstractPlayer" data-source-line="190" data-uid="lnk57" id="link_MatchScreen_AbstractPlayer"><path codeLine="190" d="M2474.07,331.07 C2461.73,339.9 2444.84,350.25 2428,355 C2384.16,367.37 1652.83,354.92 1608,363 C1586.14,366.94 1582.86,376.05 1561,380 C1517.37,387.87 804.12,371.42 763,388 C719.41,405.58 686.6907,445.18 669.7807,468.82" fill="none" id="MatchScreen-to-AbstractPlayer-1" style="stroke:#181818;stroke-width:1;"/><polygon fill="#181818" points="666.29,473.7,674.7795,468.7071,669.199,469.6333,668.2728,464.0528,666.29,473.7" style="stroke:#181818;stroke-width:1;"/><text fill="#000000" font-family="sans-serif" font-size="13" lengthAdjust="spacing" textLength="87.8643" x="1609" y="376.0669">currentPlayer</text></g><!--link MatchScreen to AbstractPlayer--><g class="link" data-entity-1="MatchScreen" data-entity-2="AbstractPlayer" data-source-line="191" data-uid="lnk58" id="link_MatchScreen_AbstractPlayer"><path codeLine="191" d="M2474.06,331.04 C2461.72,339.87 2444.83,350.21 2428,355 C2398.61,363.37 1908.51,361.32 1878,363 C1799.09,367.36 1779.92,375.88 1701,380 C1674.98,381.36 787.17,378.27 763,388 C719.39,405.55 686.6921,445.1709 669.7721,468.8109" fill="none" id="MatchScreen-to-AbstractPlayer-2" style="stroke:#181818;stroke-width:1;"/><polygon fill="#181818" points="666.28,473.69,674.7709,468.6995,669.1901,469.6241,668.2655,464.0433,666.28,473.69" style="stroke:#181818;stroke-width:1;"/><text fill="#000000" font-family="sans-serif" font-size="13" lengthAdjust="spacing" textLength="35.5786" x="1879" y="376.0669">white</text></g><!--reverse link AbstractPlayer to PlayerColor--><g class="link" data-entity-1="AbstractPlayer" data-entity-2="PlayerColor" data-source-line="192" data-uid="lnk59" id="link_AbstractPlayer_PlayerColor"><path codeLine="192" d="M683.7833,513.4188 C702.6233,528.1088 723.93,542.64 754,555 C815.67,580.35 835.68,571.62 901,585 C906.45,586.12 912.13,587.28 917.81,588.45" fill="none" id="AbstractPlayer-backto-PlayerColor" style="stroke:#181818;stroke-width:1;"/><polygon fill="#181818" points="674.32,506.04,676.5921,512.8838,683.7833,513.4188,681.5112,506.5749,674.32,506.04" style="stroke:#181818;stroke-width:1;"/><text fill="#000000" font-family="sans-serif" font-size="13" lengthAdjust="spacing" textLength="74.8071" x="755" y="551.0669">playerColor</text></g><!--link BotPlayer to AbstractPlayer--><g class="link" data-entity-1="BotPlayer" data-entity-2="AbstractPlayer" data-source-line="193" data-uid="lnk60" id="link_BotPlayer_AbstractPlayer"><path codeLine="193" d="M292.47,331.02 C305.24,338.6 321.23,347.71 336,355 C434.15,403.47 537.4001,444.2761 598.8001,467.5661" fill="none" id="BotPlayer-to-AbstractPlayer" style="stroke:#181818;stroke-width:1;"/><polygon fill="none" points="615.63,473.95,600.928,461.9562,596.6721,473.1761,615.63,473.95" style="stroke:#181818;stroke-width:1;"/></g><!--reverse link HumanPlayer to InputReader--><g class="link" data-entity-1="HumanPlayer" data-entity-2="InputReader" data-source-line="194" data-uid="lnk61" id="link_HumanPlayer_InputReader"><path codeLine="194" d="M452.1171,336.9035 C468.0571,345.5535 478.77,349.92 499,355 C703.18,406.27 761.58,373.69 972,380 C1002.9,380.93 2055.13,380.04 2085,388 C2148.79,405 2213.86,450.17 2245.05,473.93" fill="none" id="HumanPlayer-backto-InputReader" style="stroke:#181818;stroke-width:1;"/><polygon fill="#181818" points="441.57,331.18,444.9357,337.5575,452.1171,336.9035,448.7514,330.526,441.57,331.18" style="stroke:#181818;stroke-width:1;"/><text fill="#000000" font-family="sans-serif" font-size="13" lengthAdjust="spacing" textLength="42.9038" x="973" y="376.0669">reader</text></g><!--link HumanPlayer to AbstractPlayer--><g class="link" data-entity-1="HumanPlayer" data-entity-2="AbstractPlayer" data-source-line="195" data-uid="lnk62" id="link_HumanPlayer_AbstractPlayer"><path codeLine="195" d="M436.88,331.05 C482.27,363.77 574.8985,430.5341 620.3985,463.3341" fill="none" id="HumanPlayer-to-AbstractPlayer" style="stroke:#181818;stroke-width:1;"/><polygon fill="none" points="635,473.86,623.9071,458.4669,616.8898,468.2012,635,473.86" style="stroke:#181818;stroke-width:1;"/></g><!--reverse link MiniMax to PlayerColor--><g class="link" data-entity-1="MiniMax" data-entity-2="PlayerColor" data-source-line="196" data-uid="lnk63" id="link_MiniMax_PlayerColor"><path codeLine="196" d="M1091.3199,511.3019 C1075.1399,519.2519 1065.2,523.41 1046,530 C1031.32,535.04 1024.58,528.9 1012,538 C995.84,549.69 985.15,570.57 979.34,584.84" fill="none" id="MiniMax-backto-PlayerColor" style="stroke:#181818;stroke-width:1;"/><polygon fill="#181818" points="1102.09,506.01,1094.941,505.0659,1091.3199,511.3019,1098.4689,512.246,1102.09,506.01" style="stroke:#181818;stroke-width:1;"/><text fill="#000000" font-family="sans-serif" font-size="13" lengthAdjust="spacing" textLength="109.4907" x="1013" y="551.0669">colorToMaximize</text></g><!--reverse link MiniMax to EvalStrategy--><g class="link" data-entity-1="MiniMax" data-entity-2="EvalStrategy" data-source-line="197" data-uid="lnk64" id="link_MiniMax_EvalStrategy"><path codeLine="197" d="M1152.9902,514.7945 C1166.1902,528.7045 1178.95,540.62 1200,555 C1217.18,566.74 1237.89,577.07 1255.4,584.87" fill="none" id="MiniMax-backto-EvalStrategy" style="stroke:#181818;stroke-width:1;"/><polygon fill="#181818" points="1144.73,506.09,1145.9586,513.1957,1152.9902,514.7945,1151.7616,507.6889,1144.73,506.09" style="stroke:#181818;stroke-width:1;"/><text fill="#000000" font-family="sans-serif" font-size="13" lengthAdjust="spacing" textLength="82.9702" x="1201" y="551.0669">evalStrategy</text></g><!--SRC=[pLXBK-Cu43wlVuMFCyj6LU78LarL0W5I499DGd7OmvPiTs8njfMLR0QMWT- -UjX4ZftO2e6QYykMrU_khrlo8yovwuSev566VCnHp250NaIz1U4X6c6IkC_ERyynf24DNbptcQSu9VwB-nhBVr- -kYVk0oM1y-8uZj_0piCSq3aajoc9jh0zMa8gTame9ocXIJ-Y_dVkVd5NcE5ubZAIBBj2f7vpfVI_h-_n0qOHJfP8B_zPp_a1HoJ0AGZsEVakjdP6JGZuK3BfoASHPTf1JSGHVW9sAlUR3E3V34Tlje-zU_1JgQH-Kqfwb4Q04vDg0NbKJaD1vgTGuXbY7fxI0FGMagJcprWuXn4SJQZumMktfBHmtTStTvN-FwsWdStIONEnM_aOaYnkJQ7Sl20GIO7zuUnoF34MheOt5-RdpV3YScuiJ7ftDyRdNxU3WVaz7O-lsgkq3bnPgUlUwPNnVNSvd0_Q9HF5B42d8N3UbwycsxTCxipclUbyCfuDvyFnpJ_dWnip5ldkZc8b0q5Zj2Hfc7d82sMLq8JSC-HB6H7na99ZnZ2W8_e0EukZlG4cOrtQsr97_9sH0EQvzFthXl0B7CFu0VBggoaImgMGQrZYQAUTDQIH99BKUO4eyCa4eA5hmbEB86T4ktuAIG0CM0azNfbQBPIx9MfhjuNh1Tjyj_k79ZRST6pbLDS8b9LTw_2NZ2ioKsZ5nL8hMsItqEPC59KPYhAFAW4yjFa22e4jiC3vDdfBMsj3wpvZZwSIcYict195rZhCQlUccat0LP3FH7jXK0MlizxKnAvhXPzjxGVHPD50F8H2efiidxQRBkfTRiomxFCxgp2WcHT1gnHKyaTv7vFioptPMkQQLcUjmgyTP1jeO90pY0Le3E9L-gJ2niyPZOinPoTFYmfKvazn4j3u0CQtaRWKKAlhNO9kgSn546AI22rENCgMw3uY2Q1Y4Stp5zD7FAIPh1hHw5XQQ3XCLbaw1IpgP7TXA5MCtGK0ZBDKhDqn8cGVDtCmjszh0hc2RtEYOSCFIJX80kcEaN0BNhwrKfDpTmz5Me-a5K-OOM5woGoANX8fcu0cAACi3kIVG-MeKawKg2y6qMH1bkKazIBiVs_g_Yi5qgYNWud6xFUFpZk7uwR9zqSeuhIVugszLie88wQlrgLsj8Wo7jPcyD5Ac9OsduqsANf9SAwPsb96oJuqxUMrzYyy-h2IwCYHBD-UHraAmQ1O5IxVXvNAzVVmuZu3ID0bZM6cNYkuRfPJGmfkbf-9NOAJEV_Opk2s1YajQYoIUjp0Oxe-25JAhQEIOBDz6ifqxKUzJIJNtUYCS5crUgBEvPJhjsjVyctxYlHeCJAvJQwjbxHh_bexMTkrdjkxLeSysnQGQzgdTKh-0efTPZ5EVatL35mP9kf6IofZmigwqrD6bXBtbRfMmZXWveUfg4mq8WaPuSSIOnz7VXQfEV9Co0qhtLBjA2ZVwwXyZ1CIZhMWBGCwwE4MpYaJOabC_bkVhDuLfOeecGTzCQL-L2w80BMvRlozqt7RtvgTkF9oxe2S3VYKjqoo0rZVUJG9gZzEdxZwtEpiTnVHLcYPIWAsyUtO748H-ldDjJasE-tFU8VaNPdD6rnLttA4f-GK_mborD3jM8zF3T8gnoUPRtXtlcsHrEbySwscUc6JUd7iHwW6MHNGaGWbFjJwHuchBy1SShzbFUsfmMSwzrs5S3XnViO4CXRdoayJsrI6zNJsJMPb73OifijEvwUzMOxLbFW1Y58ZvT26r8nvUtR-EIr6heEAgruddxXWjZ8d906uQYxb-btFQDpv7m00]--></g></svg>