<svg xmlns="http://www.w3.org/2000/svg" xmlns:xlink="http://www.w3.org/1999/xlink" contentStyleType="text/css" data-diagram-type="CLASS" height="1137px" preserveAspectRatio="none" style="width:3938px;height:1137px;background:#FFFFFF;" version="1.1" viewBox="0 0 3938 1137" width="3938px" zoomAndPan="magnify"><defs/><g><!--cluster ch--><g class="cluster" data-entity="ch" data-source-line="2" data-uid="ent0003" id="cluster_ch"><path d="M8.5,6 L27.7656,6 A3.75,3.75 0 0 1 30.2656,8.5 L37.2656,28.2969 L3928.5,28.2969 A2.5,2.5 0 0 1 3931,30.7969 L3931,1127.5 A2.5,2.5 0 0 1 3928.5,1130 L8.5,1130 A2.5,2.5 0 0 1 6,1127.5 L6,8.5 A2.5,2.5 0 0 1 8.5,6" fill="none" style="stroke:#000000;stroke-width:1.5;"/><line style="stroke:#000000;stroke-width:1.5;" x1="6" x2="37.2656" y1="28.2969" y2="28.2969"/><text fill="#000000" font-family="sans-serif" font-size="14" font-weight="bold" lengthAdjust="spacing" textLength="18.2656" x="10" y="20.9951">ch</text></g><!--cluster hslu--><g class="cluster" data-entity="hslu" data-source-line="2" data-uid="ent0004" id="cluster_hslu"><path d="M32.5,49 L66.5654,49 A3.75,3.75 0 0 1 69.0654,51.5 L76.0654,71.2969 L3904.5,71.2969 A2.5,2.5 0 0 1 3907,73.7969 L3907,1103.5 A2.5,2.5 0 0 1 3904.5,1106 L32.5,1106 A2.5,2.5 0 0 1 30,1103.5 L30,51.5 A2.5,2.5 0 0 1 32.5,49" fill="none" style="stroke:#000000;stroke-width:1.5;"/><line style="stroke:#000000;stroke-width:1.5;" x1="30" x2="76.0654" y1="71.2969" y2="71.2969"/><text fill="#000000" font-family="sans-serif" font-size="14" font-weight="bold" lengthAdjust="spacing" textLength="33.0654" x="34" y="63.9951">hslu</text></g><!--cluster cas--><g class="cluster" data-entity="cas" data-source-line="2" data-uid="ent0005" id="cluster_cas"><path d="M56.5,92 L83.5791,92 A3.75,3.75 0 0 1 86.0791,94.5 L93.0791,114.2969 L3880.5,114.2969 A2.5,2.5 0 0 1 3883,116.7969 L3883,1079.5 A2.5,2.5 0 0 1 3880.5,1082 L56.5,1082 A2.5,2.5 0 0 1 54,1079.5 L54,94.5 A2.5,2.5 0 0 1 56.5,92" fill="none" style="stroke:#000000;stroke-width:1.5;"/><line style="stroke:#000000;stroke-width:1.5;" x1="54" x2="93.0791" y1="114.2969" y2="114.2969"/><text fill="#000000" font-family="sans-serif" font-size="14" font-weight="bold" lengthAdjust="spacing" textLength="26.0791" x="58" y="106.9951">cas</text></g><!--cluster msed--><g class="cluster" data-entity="msed" data-source-line="2" data-uid="ent0006" id="cluster_msed"><path d="M80.5,135 L123.9375,135 A3.75,3.75 0 0 1 126.4375,137.5 L133.4375,157.2969 L3856.5,157.2969 A2.5,2.5 0 0 1 3859,159.7969 L3859,1055.5 A2.5,2.5 0 0 1 3856.5,1058 L80.5,1058 A2.5,2.5 0 0 1 78,1055.5 L78,137.5 A2.5,2.5 0 0 1 80.5,135" fill="none" style="stroke:#000000;stroke-width:1.5;"/><line style="stroke:#000000;stroke-width:1.5;" x1="78" x2="133.4375" y1="157.2969" y2="157.2969"/><text fill="#000000" font-family="sans-serif" font-size="14" font-weight="bold" lengthAdjust="spacing" textLength="42.4375" x="82" y="149.9951">msed</text></g><!--cluster blobfish--><g class="cluster" data-entity="blobfish" data-source-line="2" data-uid="ent0007" id="cluster_blobfish"><path d="M104.5,178 L169.1494,178 A3.75,3.75 0 0 1 171.6494,180.5 L178.6494,200.2969 L3832.5,200.2969 A2.5,2.5 0 0 1 3835,202.7969 L3835,1031.5 A2.5,2.5 0 0 1 3832.5,1034 L104.5,1034 A2.5,2.5 0 0 1 102,1031.5 L102,180.5 A2.5,2.5 0 0 1 104.5,178" fill="none" style="stroke:#000000;stroke-width:1.5;"/><line style="stroke:#000000;stroke-width:1.5;" x1="102" x2="178.6494" y1="200.2969" y2="200.2969"/><text fill="#000000" font-family="sans-serif" font-size="14" font-weight="bold" lengthAdjust="spacing" textLength="63.6494" x="106" y="192.9951">blobfish</text></g><!--cluster base--><g class="cluster" data-entity="base" data-source-line="7" data-uid="ent0009" id="cluster_base"><path d="M2855.5,681 L2893.7969,681 A3.75,3.75 0 0 1 2896.2969,683.5 L2903.2969,703.2969 L3133.5,703.2969 A2.5,2.5 0 0 1 3136,705.7969 L3136,872.5 A2.5,2.5 0 0 1 3133.5,875 L2855.5,875 A2.5,2.5 0 0 1 2853,872.5 L2853,683.5 A2.5,2.5 0 0 1 2855.5,681" fill="none" style="stroke:#000000;stroke-width:1.5;"/><line style="stroke:#000000;stroke-width:1.5;" x1="2853" x2="2903.2969" y1="703.2969" y2="703.2969"/><text fill="#000000" font-family="sans-serif" font-size="14" font-weight="bold" lengthAdjust="spacing" textLength="37.2969" x="2857" y="695.9951">base</text></g><!--cluster board--><g class="cluster" data-entity="board" data-source-line="40" data-uid="ent0014" id="cluster_board"><path d="M3162.5,638 L3209.5127,638 A3.75,3.75 0 0 1 3212.0127,640.5 L3219.0127,660.2969 L3808.5,660.2969 A2.5,2.5 0 0 1 3811,662.7969 L3811,1007.5 A2.5,2.5 0 0 1 3808.5,1010 L3162.5,1010 A2.5,2.5 0 0 1 3160,1007.5 L3160,640.5 A2.5,2.5 0 0 1 3162.5,638" fill="none" style="stroke:#000000;stroke-width:1.5;"/><line style="stroke:#000000;stroke-width:1.5;" x1="3160" x2="3219.0127" y1="660.2969" y2="660.2969"/><text fill="#000000" font-family="sans-serif" font-size="14" font-weight="bold" lengthAdjust="spacing" textLength="46.0127" x="3164" y="652.9951">board</text></g><!--cluster ui--><g class="cluster" data-entity="ui" data-source-line="53" data-uid="ent0016" id="cluster_ui"><path d="M3186.5,681 L3202.2656,681 A3.75,3.75 0 0 1 3204.7656,683.5 L3211.7656,703.2969 L3660.5,703.2969 A2.5,2.5 0 0 1 3663,705.7969 L3663,983.5 A2.5,2.5 0 0 1 3660.5,986 L3186.5,986 A2.5,2.5 0 0 1 3184,983.5 L3184,683.5 A2.5,2.5 0 0 1 3186.5,681" fill="none" style="stroke:#000000;stroke-width:1.5;"/><line style="stroke:#000000;stroke-width:1.5;" x1="3184" x2="3211.7656" y1="703.2969" y2="703.2969"/><text fill="#000000" font-family="sans-serif" font-size="14" font-weight="bold" lengthAdjust="spacing" textLength="14.7656" x="3188" y="695.9951">ui</text></g><!--cluster eval--><g class="cluster" data-entity="eval" data-source-line="95" data-uid="ent0023" id="cluster_eval"><path d="M2351.5,482 L2385.3672,482 A3.75,3.75 0 0 1 2387.8672,484.5 L2394.8672,504.2969 L2826.5,504.2969 A2.5,2.5 0 0 1 2829,506.7969 L2829,761.5 A2.5,2.5 0 0 1 2826.5,764 L2351.5,764 A2.5,2.5 0 0 1 2349,761.5 L2349,484.5 A2.5,2.5 0 0 1 2351.5,482" fill="none" style="stroke:#000000;stroke-width:1.5;"/><line style="stroke:#000000;stroke-width:1.5;" x1="2349" x2="2394.8672" y1="504.2969" y2="504.2969"/><text fill="#000000" font-family="sans-serif" font-size="14" font-weight="bold" lengthAdjust="spacing" textLength="32.8672" x="2353" y="496.9951">eval</text></g><!--cluster game--><g class="cluster" data-entity="game" data-source-line="118" data-uid="ent0028" id="cluster_game"><path d="M1193.5,439 L1238.0518,439 A3.75,3.75 0 0 1 1240.5518,441.5 L1247.5518,461.2969 L2322.5,461.2969 A2.5,2.5 0 0 1 2325,463.7969 L2325,761.5 A2.5,2.5 0 0 1 2322.5,764 L1193.5,764 A2.5,2.5 0 0 1 1191,761.5 L1191,441.5 A2.5,2.5 0 0 1 1193.5,439" fill="none" style="stroke:#000000;stroke-width:1.5;"/><line style="stroke:#000000;stroke-width:1.5;" x1="1191" x2="1247.5518" y1="461.2969" y2="461.2969"/><text fill="#000000" font-family="sans-serif" font-size="14" font-weight="bold" lengthAdjust="spacing" textLength="43.5518" x="1195" y="453.9951">game</text></g><!--cluster exceptions--><g class="cluster" data-entity="exceptions" data-source-line="151" data-uid="ent0033" id="cluster_exceptions"><path d="M1836.5,482 L1923.25,482 A3.75,3.75 0 0 1 1925.75,484.5 L1932.75,504.2969 L2298.5,504.2969 A2.5,2.5 0 0 1 2301,506.7969 L2301,562.5 A2.5,2.5 0 0 1 2298.5,565 L1836.5,565 A2.5,2.5 0 0 1 1834,562.5 L1834,484.5 A2.5,2.5 0 0 1 1836.5,482" fill="none" style="stroke:#000000;stroke-width:1.5;"/><line style="stroke:#000000;stroke-width:1.5;" x1="1834" x2="1932.75" y1="504.2969" y2="504.2969"/><text fill="#000000" font-family="sans-serif" font-size="14" font-weight="bold" lengthAdjust="spacing" textLength="85.75" x="1838" y="496.9951">exceptions</text></g><!--cluster screen--><g class="cluster" data-entity="screen" data-source-line="159" data-uid="ent0036" id="cluster_screen"><path d="M1499.5,482 L1552.9932,482 A3.75,3.75 0 0 1 1555.4932,484.5 L1562.4932,504.2969 L1807.5,504.2969 A2.5,2.5 0 0 1 1810,506.7969 L1810,562.5 A2.5,2.5 0 0 1 1807.5,565 L1499.5,565 A2.5,2.5 0 0 1 1497,562.5 L1497,484.5 A2.5,2.5 0 0 1 1499.5,482" fill="none" style="stroke:#000000;stroke-width:1.5;"/><line style="stroke:#000000;stroke-width:1.5;" x1="1497" x2="1562.4932" y1="504.2969" y2="504.2969"/><text fill="#000000" font-family="sans-serif" font-size="14" font-weight="bold" lengthAdjust="spacing" textLength="52.4932" x="1501" y="496.9951">screen</text></g><!--cluster player--><g class="cluster" data-entity="player" data-source-line="173" data-uid="ent0039" id="cluster_player"><path d="M202.5,221 L253.293,221 A3.75,3.75 0 0 1 255.793,223.5 L262.793,243.2969 L1164.5,243.2969 A2.5,2.5 0 0 1 1167,245.7969 L1167,761.5 A2.5,2.5 0 0 1 1164.5,764 L202.5,764 A2.5,2.5 0 0 1 200,761.5 L200,223.5 A2.5,2.5 0 0 1 202.5,221" fill="none" style="stroke:#000000;stroke-width:1.5;"/><line style="stroke:#000000;stroke-width:1.5;" x1="200" x2="262.793" y1="243.2969" y2="243.2969"/><text fill="#000000" font-family="sans-serif" font-size="14" font-weight="bold" lengthAdjust="spacing" textLength="49.793" x="204" y="235.9951">player</text></g><!--cluster bot--><g class="cluster" data-entity="bot" data-source-line="183" data-uid="ent0042" id="cluster_bot"><path d="M466.5,264 L493.832,264 A3.75,3.75 0 0 1 496.332,266.5 L503.332,286.2969 L1006.5,286.2969 A2.5,2.5 0 0 1 1009,288.7969 L1009,586.5 A2.5,2.5 0 0 1 1006.5,589 L466.5,589 A2.5,2.5 0 0 1 464,586.5 L464,266.5 A2.5,2.5 0 0 1 466.5,264" fill="none" style="stroke:#000000;stroke-width:1.5;"/><line style="stroke:#000000;stroke-width:1.5;" x1="464" x2="503.332" y1="286.2969" y2="286.2969"/><text fill="#000000" font-family="sans-serif" font-size="14" font-weight="bold" lengthAdjust="spacing" textLength="26.332" x="468" y="278.9951">bot</text></g><!--cluster minimax--><g class="cluster" data-entity="minimax" data-source-line="187" data-uid="ent0044" id="cluster_minimax"><path d="M598.5,307 L666.7178,307 A3.75,3.75 0 0 1 669.2178,309.5 L676.2178,329.2969 L982.5,329.2969 A2.5,2.5 0 0 1 985,331.7969 L985,562.5 A2.5,2.5 0 0 1 982.5,565 L598.5,565 A2.5,2.5 0 0 1 596,562.5 L596,309.5 A2.5,2.5 0 0 1 598.5,307" fill="none" style="stroke:#000000;stroke-width:1.5;"/><line style="stroke:#000000;stroke-width:1.5;" x1="596" x2="676.2178" y1="329.2969" y2="329.2969"/><text fill="#000000" font-family="sans-serif" font-size="14" font-weight="bold" lengthAdjust="spacing" textLength="67.2178" x="600" y="321.9951">minimax</text></g><!--cluster exceptions--><g class="cluster" data-entity="exceptions" data-source-line="206" data-uid="ent0048" id="cluster_exceptions"><path d="M226.5,307 L313.25,307 A3.75,3.75 0 0 1 315.75,309.5 L322.75,329.2969 L437.5,329.2969 A2.5,2.5 0 0 1 440,331.7969 L440,387.5 A2.5,2.5 0 0 1 437.5,390 L226.5,390 A2.5,2.5 0 0 1 224,387.5 L224,309.5 A2.5,2.5 0 0 1 226.5,307" fill="none" style="stroke:#000000;stroke-width:1.5;"/><line style="stroke:#000000;stroke-width:1.5;" x1="224" x2="322.75" y1="329.2969" y2="329.2969"/><text fill="#000000" font-family="sans-serif" font-size="14" font-weight="bold" lengthAdjust="spacing" textLength="85.75" x="228" y="321.9951">exceptions</text></g><!--class Main--><g class="entity" data-entity="Main" data-source-line="2" data-uid="ent0002" id="entity_Main"><rect fill="#F1F1F1" height="32" rx="2.5" ry="2.5" style="stroke:#181818;stroke-width:0.5;" width="65.4209" x="118.5" y="342"/><ellipse cx="133.5" cy="358" fill="#ADD1B2" rx="11" ry="11" style="stroke:#181818;stroke-width:1;"/><path d="M136.4688,363.6406 Q135.8906,363.9375 135.25,364.0781 Q134.6094,364.2344 133.9063,364.2344 Q131.4063,364.2344 130.0781,362.5938 Q128.7656,360.9375 128.7656,357.8125 Q128.7656,354.6875 130.0781,353.0313 Q131.4063,351.375 133.9063,351.375 Q134.6094,351.375 135.25,351.5313 Q135.9063,351.6875 136.4688,351.9844 L136.4688,354.7031 Q135.8438,354.125 135.25,353.8594 Q134.6563,353.5781 134.0313,353.5781 Q132.6875,353.5781 132,354.6563 Q131.3125,355.7188 131.3125,357.8125 Q131.3125,359.9063 132,360.9844 Q132.6875,362.0469 134.0313,362.0469 Q134.6563,362.0469 135.25,361.7813 Q135.8438,361.5 136.4688,360.9219 L136.4688,363.6406 Z " fill="#000000"/><text fill="#000000" font-family="sans-serif" font-size="14" lengthAdjust="spacing" textLength="33.4209" x="147.5" y="362.8467">Main</text></g><!--class FenUtil--><g class="entity" data-entity="FenUtil" data-source-line="7" data-uid="ent0008" id="entity_FenUtil"><rect fill="#F1F1F1" height="32" rx="2.5" ry="2.5" style="stroke:#181818;stroke-width:0.5;" width="81.0547" x="3032.5" y="716"/><ellipse cx="3047.5" cy="732" fill="#ADD1B2" rx="11" ry="11" style="stroke:#181818;stroke-width:1;"/><path d="M3050.4688,737.6406 Q3049.8906,737.9375 3049.25,738.0781 Q3048.6094,738.2344 3047.9063,738.2344 Q3045.4063,738.2344 3044.0781,736.5938 Q3042.7656,734.9375 3042.7656,731.8125 Q3042.7656,728.6875 3044.0781,727.0313 Q3045.4063,725.375 3047.9063,725.375 Q3048.6094,725.375 3049.25,725.5313 Q3049.9063,725.6875 3050.4688,725.9844 L3050.4688,728.7031 Q3049.8438,728.125 3049.25,727.8594 Q3048.6563,727.5781 3048.0313,727.5781 Q3046.6875,727.5781 3046,728.6563 Q3045.3125,729.7188 3045.3125,731.8125 Q3045.3125,733.9063 3046,734.9844 Q3046.6875,736.0469 3048.0313,736.0469 Q3048.6563,736.0469 3049.25,735.7813 Q3049.8438,735.5 3050.4688,734.9219 L3050.4688,737.6406 Z " fill="#000000"/><text fill="#000000" font-family="sans-serif" font-size="14" lengthAdjust="spacing" textLength="49.0547" x="3061.5" y="736.8467">FenUtil</text></g><!--class Piece--><g class="entity" data-entity="Piece" data-source-line="13" data-uid="ent0010" id="entity_Piece"><rect fill="#F1F1F1" height="32" rx="2.5" ry="2.5" style="stroke:#181818;stroke-width:0.5;" width="69.2559" x="2906.5" y="716"/><ellipse cx="2921.5" cy="732" fill="#ADD1B2" rx="11" ry="11" style="stroke:#181818;stroke-width:1;"/><path d="M2924.4688,737.6406 Q2923.8906,737.9375 2923.25,738.0781 Q2922.6094,738.2344 2921.9063,738.2344 Q2919.4063,738.2344 2918.0781,736.5938 Q2916.7656,734.9375 2916.7656,731.8125 Q2916.7656,728.6875 2918.0781,727.0313 Q2919.4063,725.375 2921.9063,725.375 Q2922.6094,725.375 2923.25,725.5313 Q2923.9063,725.6875 2924.4688,725.9844 L2924.4688,728.7031 Q2923.8438,728.125 2923.25,727.8594 Q2922.6563,727.5781 2922.0313,727.5781 Q2920.6875,727.5781 2920,728.6563 Q2919.3125,729.7188 2919.3125,731.8125 Q2919.3125,733.9063 2920,734.9844 Q2920.6875,736.0469 2922.0313,736.0469 Q2922.6563,736.0469 2923.25,735.7813 Q2923.8438,735.5 2924.4688,734.9219 L2924.4688,737.6406 Z " fill="#000000"/><text fill="#000000" font-family="sans-serif" font-size="14" lengthAdjust="spacing" textLength="37.2559" x="2935.5" y="736.8467">Piece</text></g><!--class PieceType--><g class="entity" data-entity="PieceType" data-source-line="24" data-uid="ent0011" id="entity_PieceType"><rect fill="#F1F1F1" height="32" rx="2.5" ry="2.5" style="stroke:#181818;stroke-width:0.5;" width="103.5928" x="3016" y="827"/><ellipse cx="3031" cy="843" fill="#EB937F" rx="11" ry="11" style="stroke:#181818;stroke-width:1;"/><path d="M3035.1094,849 L3027.3906,849 L3027.3906,836.6094 L3035.1094,836.6094 L3035.1094,838.7656 L3029.8438,838.7656 L3029.8438,841.4375 L3034.6094,841.4375 L3034.6094,843.5938 L3029.8438,843.5938 L3029.8438,846.8438 L3035.1094,846.8438 L3035.1094,849 Z " fill="#000000"/><text fill="#000000" font-family="sans-serif" font-size="14" lengthAdjust="spacing" textLength="71.5928" x="3045" y="847.8467">PieceType</text></g><!--class PlayerColor--><g class="entity" data-entity="PlayerColor" data-source-line="34" data-uid="ent0012" id="entity_PlayerColor"><rect fill="#F1F1F1" height="32" rx="2.5" ry="2.5" style="stroke:#181818;stroke-width:0.5;" width="112.1172" x="2869" y="827"/><ellipse cx="2884" cy="843" fill="#EB937F" rx="11" ry="11" style="stroke:#181818;stroke-width:1;"/><path d="M2888.1094,849 L2880.3906,849 L2880.3906,836.6094 L2888.1094,836.6094 L2888.1094,838.7656 L2882.8438,838.7656 L2882.8438,841.4375 L2887.6094,841.4375 L2887.6094,843.5938 L2882.8438,843.5938 L2882.8438,846.8438 L2888.1094,846.8438 L2888.1094,849 Z " fill="#000000"/><text fill="#000000" font-family="sans-serif" font-size="14" lengthAdjust="spacing" textLength="80.1172" x="2898" y="847.8467">PlayerColor</text></g><!--class ChessBoard--><g class="entity" data-entity="ChessBoard" data-source-line="40" data-uid="ent0013" id="entity_ChessBoard"><rect fill="#F1F1F1" height="32" rx="2.5" ry="2.5" style="stroke:#181818;stroke-width:0.5;" width="115.2412" x="3679.5" y="716"/><ellipse cx="3694.5" cy="732" fill="#ADD1B2" rx="11" ry="11" style="stroke:#181818;stroke-width:1;"/><path d="M3697.4688,737.6406 Q3696.8906,737.9375 3696.25,738.0781 Q3695.6094,738.2344 3694.9063,738.2344 Q3692.4063,738.2344 3691.0781,736.5938 Q3689.7656,734.9375 3689.7656,731.8125 Q3689.7656,728.6875 3691.0781,727.0313 Q3692.4063,725.375 3694.9063,725.375 Q3695.6094,725.375 3696.25,725.5313 Q3696.9063,725.6875 3697.4688,725.9844 L3697.4688,728.7031 Q3696.8438,728.125 3696.25,727.8594 Q3695.6563,727.5781 3695.0313,727.5781 Q3693.6875,727.5781 3693,728.6563 Q3692.3125,729.7188 3692.3125,731.8125 Q3692.3125,733.9063 3693,734.9844 Q3693.6875,736.0469 3695.0313,736.0469 Q3695.6563,736.0469 3696.25,735.7813 Q3696.8438,735.5 3697.4688,734.9219 L3697.4688,737.6406 Z " fill="#000000"/><text fill="#000000" font-family="sans-serif" font-size="14" lengthAdjust="spacing" textLength="83.2412" x="3708.5" y="736.8467">ChessBoard</text></g><!--class AlphanumericBorderFieldRenderer--><g class="entity" data-entity="AlphanumericBorderFieldRenderer" data-source-line="53" data-uid="ent0015" id="entity_AlphanumericBorderFieldRenderer"><rect fill="#F1F1F1" height="32" rx="2.5" ry="2.5" style="stroke:#181818;stroke-width:0.5;" width="274.498" x="3373" y="827"/><ellipse cx="3388" cy="843" fill="#ADD1B2" rx="11" ry="11" style="stroke:#181818;stroke-width:1;"/><path d="M3390.9688,848.6406 Q3390.3906,848.9375 3389.75,849.0781 Q3389.1094,849.2344 3388.4063,849.2344 Q3385.9063,849.2344 3384.5781,847.5938 Q3383.2656,845.9375 3383.2656,842.8125 Q3383.2656,839.6875 3384.5781,838.0313 Q3385.9063,836.375 3388.4063,836.375 Q3389.1094,836.375 3389.75,836.5313 Q3390.4063,836.6875 3390.9688,836.9844 L3390.9688,839.7031 Q3390.3438,839.125 3389.75,838.8594 Q3389.1563,838.5781 3388.5313,838.5781 Q3387.1875,838.5781 3386.5,839.6563 Q3385.8125,840.7188 3385.8125,842.8125 Q3385.8125,844.9063 3386.5,845.9844 Q3387.1875,847.0469 3388.5313,847.0469 Q3389.1563,847.0469 3389.75,846.7813 Q3390.3438,846.5 3390.9688,845.9219 L3390.9688,848.6406 Z " fill="#000000"/><text fill="#000000" font-family="sans-serif" font-size="14" lengthAdjust="spacing" textLength="242.498" x="3402" y="847.8467">AlphanumericBorderFieldRenderer</text></g><!--class BoardRenderer--><g class="entity" data-entity="BoardRenderer" data-source-line="67" data-uid="ent0017" id="entity_BoardRenderer"><rect fill="#F1F1F1" height="32" rx="2.5" ry="2.5" style="stroke:#181818;stroke-width:0.5;" width="138.2305" x="3200" y="827"/><ellipse cx="3215" cy="843" fill="#ADD1B2" rx="11" ry="11" style="stroke:#181818;stroke-width:1;"/><path d="M3217.9688,848.6406 Q3217.3906,848.9375 3216.75,849.0781 Q3216.1094,849.2344 3215.4063,849.2344 Q3212.9063,849.2344 3211.5781,847.5938 Q3210.2656,845.9375 3210.2656,842.8125 Q3210.2656,839.6875 3211.5781,838.0313 Q3212.9063,836.375 3215.4063,836.375 Q3216.1094,836.375 3216.75,836.5313 Q3217.4063,836.6875 3217.9688,836.9844 L3217.9688,839.7031 Q3217.3438,839.125 3216.75,838.8594 Q3216.1563,838.5781 3215.5313,838.5781 Q3214.1875,838.5781 3213.5,839.6563 Q3212.8125,840.7188 3212.8125,842.8125 Q3212.8125,844.9063 3213.5,845.9844 Q3214.1875,847.0469 3215.5313,847.0469 Q3216.1563,847.0469 3216.75,846.7813 Q3217.3438,846.5 3217.9688,845.9219 L3217.9688,848.6406 Z " fill="#000000"/><text fill="#000000" font-family="sans-serif" font-size="14" lengthAdjust="spacing" textLength="106.2305" x="3229" y="847.8467">BoardRenderer</text></g><!--class BorderFieldRenderer--><g class="entity" data-entity="BorderFieldRenderer" data-source-line="72" data-uid="ent0018" id="entity_BorderFieldRenderer"><rect fill="#F1F1F1" height="32" rx="2.5" ry="2.5" style="stroke:#181818;stroke-width:0.5;" width="177.3525" x="3393.5" y="938"/><ellipse cx="3408.5" cy="954" fill="#B4A7E5" rx="11" ry="11" style="stroke:#181818;stroke-width:1;"/><path d="M3404.4219,949.7656 L3404.4219,947.6094 L3411.8125,947.6094 L3411.8125,949.7656 L3409.3438,949.7656 L3409.3438,957.8438 L3411.8125,957.8438 L3411.8125,960 L3404.4219,960 L3404.4219,957.8438 L3406.8906,957.8438 L3406.8906,949.7656 L3404.4219,949.7656 Z " fill="#000000"/><text fill="#000000" font-family="sans-serif" font-size="14" font-style="italic" lengthAdjust="spacing" textLength="145.3525" x="3422.5" y="958.8467">BorderFieldRenderer</text></g><!--class ChessBoardRenderer--><g class="entity" data-entity="ChessBoardRenderer" data-source-line="78" data-uid="ent0019" id="entity_ChessBoardRenderer"><rect fill="#F1F1F1" height="32" rx="2.5" ry="2.5" style="stroke:#181818;stroke-width:0.5;" width="180.0801" x="3353" y="716"/><ellipse cx="3368" cy="732" fill="#ADD1B2" rx="11" ry="11" style="stroke:#181818;stroke-width:1;"/><path d="M3370.9688,737.6406 Q3370.3906,737.9375 3369.75,738.0781 Q3369.1094,738.2344 3368.4063,738.2344 Q3365.9063,738.2344 3364.5781,736.5938 Q3363.2656,734.9375 3363.2656,731.8125 Q3363.2656,728.6875 3364.5781,727.0313 Q3365.9063,725.375 3368.4063,725.375 Q3369.1094,725.375 3369.75,725.5313 Q3370.4063,725.6875 3370.9688,725.9844 L3370.9688,728.7031 Q3370.3438,728.125 3369.75,727.8594 Q3369.1563,727.5781 3368.5313,727.5781 Q3367.1875,727.5781 3366.5,728.6563 Q3365.8125,729.7188 3365.8125,731.8125 Q3365.8125,733.9063 3366.5,734.9844 Q3367.1875,736.0469 3368.5313,736.0469 Q3369.1563,736.0469 3369.75,735.7813 Q3370.3438,735.5 3370.9688,734.9219 L3370.9688,737.6406 Z " fill="#000000"/><text fill="#000000" font-family="sans-serif" font-size="14" lengthAdjust="spacing" textLength="148.0801" x="3382" y="736.8467">ChessBoardRenderer</text></g><!--class FieldRenderer--><g class="entity" data-entity="FieldRenderer" data-source-line="84" data-uid="ent0020" id="entity_FieldRenderer"><rect fill="#F1F1F1" height="32" rx="2.5" ry="2.5" style="stroke:#181818;stroke-width:0.5;" width="130.1709" x="3200" y="938"/><ellipse cx="3215" cy="954" fill="#B4A7E5" rx="11" ry="11" style="stroke:#181818;stroke-width:1;"/><path d="M3210.9219,949.7656 L3210.9219,947.6094 L3218.3125,947.6094 L3218.3125,949.7656 L3215.8438,949.7656 L3215.8438,957.8438 L3218.3125,957.8438 L3218.3125,960 L3210.9219,960 L3210.9219,957.8438 L3213.3906,957.8438 L3213.3906,949.7656 L3210.9219,949.7656 Z " fill="#000000"/><text fill="#000000" font-family="sans-serif" font-size="14" font-style="italic" lengthAdjust="spacing" textLength="98.1709" x="3229" y="958.8467">FieldRenderer</text></g><!--class SquareColor--><g class="entity" data-entity="SquareColor" data-source-line="89" data-uid="ent0021" id="entity_SquareColor"><rect fill="#F1F1F1" height="32" rx="2.5" ry="2.5" style="stroke:#181818;stroke-width:0.5;" width="118.1465" x="3200" y="716"/><ellipse cx="3215" cy="732" fill="#EB937F" rx="11" ry="11" style="stroke:#181818;stroke-width:1;"/><path d="M3219.1094,738 L3211.3906,738 L3211.3906,725.6094 L3219.1094,725.6094 L3219.1094,727.7656 L3213.8438,727.7656 L3213.8438,730.4375 L3218.6094,730.4375 L3218.6094,732.5938 L3213.8438,732.5938 L3213.8438,735.8438 L3219.1094,735.8438 L3219.1094,738 Z " fill="#000000"/><text fill="#000000" font-family="sans-serif" font-size="14" lengthAdjust="spacing" textLength="86.1465" x="3229" y="736.8467">SquareColor</text></g><!--class EvalStrategy--><g class="entity" data-entity="EvalStrategy" data-source-line="95" data-uid="ent0022" id="entity_EvalStrategy"><rect fill="#F1F1F1" height="32" rx="2.5" ry="2.5" style="stroke:#181818;stroke-width:0.5;" width="121.585" x="2518" y="716"/><ellipse cx="2533" cy="732" fill="#B4A7E5" rx="11" ry="11" style="stroke:#181818;stroke-width:1;"/><path d="M2528.9219,727.7656 L2528.9219,725.6094 L2536.3125,725.6094 L2536.3125,727.7656 L2533.8438,727.7656 L2533.8438,735.8438 L2536.3125,735.8438 L2536.3125,738 L2528.9219,738 L2528.9219,735.8438 L2531.3906,735.8438 L2531.3906,727.7656 L2528.9219,727.7656 Z " fill="#000000"/><text fill="#000000" font-family="sans-serif" font-size="14" font-style="italic" lengthAdjust="spacing" textLength="89.585" x="2547" y="736.8467">EvalStrategy</text></g><!--class MateAwareEval--><g class="entity" data-entity="MateAwareEval" data-source-line="100" data-uid="ent0024" id="entity_MateAwareEval"><rect fill="#F1F1F1" height="32" rx="2.5" ry="2.5" style="stroke:#181818;stroke-width:0.5;" width="140.3359" x="2673" y="517"/><ellipse cx="2688" cy="533" fill="#ADD1B2" rx="11" ry="11" style="stroke:#181818;stroke-width:1;"/><path d="M2690.9688,538.6406 Q2690.3906,538.9375 2689.75,539.0781 Q2689.1094,539.2344 2688.4063,539.2344 Q2685.9063,539.2344 2684.5781,537.5938 Q2683.2656,535.9375 2683.2656,532.8125 Q2683.2656,529.6875 2684.5781,528.0313 Q2685.9063,526.375 2688.4063,526.375 Q2689.1094,526.375 2689.75,526.5313 Q2690.4063,526.6875 2690.9688,526.9844 L2690.9688,529.7031 Q2690.3438,529.125 2689.75,528.8594 Q2689.1563,528.5781 2688.5313,528.5781 Q2687.1875,528.5781 2686.5,529.6563 Q2685.8125,530.7188 2685.8125,532.8125 Q2685.8125,534.9063 2686.5,535.9844 Q2687.1875,537.0469 2688.5313,537.0469 Q2689.1563,537.0469 2689.75,536.7813 Q2690.3438,536.5 2690.9688,535.9219 L2690.9688,538.6406 Z " fill="#000000"/><text fill="#000000" font-family="sans-serif" font-size="14" lengthAdjust="spacing" textLength="108.3359" x="2702" y="537.8467">MateAwareEval</text></g><!--class MaterialEval--><g class="entity" data-entity="MaterialEval" data-source-line="106" data-uid="ent0025" id="entity_MaterialEval"><rect fill="#F1F1F1" height="32" rx="2.5" ry="2.5" style="stroke:#181818;stroke-width:0.5;" width="118.4746" x="2520" y="517"/><ellipse cx="2535" cy="533" fill="#ADD1B2" rx="11" ry="11" style="stroke:#181818;stroke-width:1;"/><path d="M2537.9688,538.6406 Q2537.3906,538.9375 2536.75,539.0781 Q2536.1094,539.2344 2535.4063,539.2344 Q2532.9063,539.2344 2531.5781,537.5938 Q2530.2656,535.9375 2530.2656,532.8125 Q2530.2656,529.6875 2531.5781,528.0313 Q2532.9063,526.375 2535.4063,526.375 Q2536.1094,526.375 2536.75,526.5313 Q2537.4063,526.6875 2537.9688,526.9844 L2537.9688,529.7031 Q2537.3438,529.125 2536.75,528.8594 Q2536.1563,528.5781 2535.5313,528.5781 Q2534.1875,528.5781 2533.5,529.6563 Q2532.8125,530.7188 2532.8125,532.8125 Q2532.8125,534.9063 2533.5,535.9844 Q2534.1875,537.0469 2535.5313,537.0469 Q2536.1563,537.0469 2536.75,536.7813 Q2537.3438,536.5 2537.9688,535.9219 L2537.9688,538.6406 Z " fill="#000000"/><text fill="#000000" font-family="sans-serif" font-size="14" lengthAdjust="spacing" textLength="86.4746" x="2549" y="537.8467">MaterialEval</text></g><!--class RandomEval--><g class="entity" data-entity="RandomEval" data-source-line="113" data-uid="ent0026" id="entity_RandomEval"><rect fill="#F1F1F1" height="32" rx="2.5" ry="2.5" style="stroke:#181818;stroke-width:0.5;" width="119.8691" x="2365" y="517"/><ellipse cx="2380" cy="533" fill="#ADD1B2" rx="11" ry="11" style="stroke:#181818;stroke-width:1;"/><path d="M2382.9688,538.6406 Q2382.3906,538.9375 2381.75,539.0781 Q2381.1094,539.2344 2380.4063,539.2344 Q2377.9063,539.2344 2376.5781,537.5938 Q2375.2656,535.9375 2375.2656,532.8125 Q2375.2656,529.6875 2376.5781,528.0313 Q2377.9063,526.375 2380.4063,526.375 Q2381.1094,526.375 2381.75,526.5313 Q2382.4063,526.6875 2382.9688,526.9844 L2382.9688,529.7031 Q2382.3438,529.125 2381.75,528.8594 Q2381.1563,528.5781 2380.5313,528.5781 Q2379.1875,528.5781 2378.5,529.6563 Q2377.8125,530.7188 2377.8125,532.8125 Q2377.8125,534.9063 2378.5,535.9844 Q2379.1875,537.0469 2380.5313,537.0469 Q2381.1563,537.0469 2381.75,536.7813 Q2382.3438,536.5 2382.9688,535.9219 L2382.9688,538.6406 Z " fill="#000000"/><text fill="#000000" font-family="sans-serif" font-size="14" lengthAdjust="spacing" textLength="87.8691" x="2394" y="537.8467">RandomEval</text></g><!--class ChessGame--><g class="entity" data-entity="ChessGame" data-source-line="118" data-uid="ent0027" id="entity_ChessGame"><rect fill="#F1F1F1" height="32" rx="2.5" ry="2.5" style="stroke:#181818;stroke-width:0.5;" width="115.5283" x="1362" y="517"/><ellipse cx="1377" cy="533" fill="#ADD1B2" rx="11" ry="11" style="stroke:#181818;stroke-width:1;"/><path d="M1379.9688,538.6406 Q1379.3906,538.9375 1378.75,539.0781 Q1378.1094,539.2344 1377.4063,539.2344 Q1374.9063,539.2344 1373.5781,537.5938 Q1372.2656,535.9375 1372.2656,532.8125 Q1372.2656,529.6875 1373.5781,528.0313 Q1374.9063,526.375 1377.4063,526.375 Q1378.1094,526.375 1378.75,526.5313 Q1379.4063,526.6875 1379.9688,526.9844 L1379.9688,529.7031 Q1379.3438,529.125 1378.75,528.8594 Q1378.1563,528.5781 1377.5313,528.5781 Q1376.1875,528.5781 1375.5,529.6563 Q1374.8125,530.7188 1374.8125,532.8125 Q1374.8125,534.9063 1375.5,535.9844 Q1376.1875,537.0469 1377.5313,537.0469 Q1378.1563,537.0469 1378.75,536.7813 Q1379.3438,536.5 1379.9688,535.9219 L1379.9688,538.6406 Z " fill="#000000"/><text fill="#000000" font-family="sans-serif" font-size="14" lengthAdjust="spacing" textLength="83.5283" x="1391" y="537.8467">ChessGame</text></g><!--class InputReader--><g class="entity" data-entity="InputReader" data-source-line="126" data-uid="ent0029" id="entity_InputReader"><rect fill="#F1F1F1" height="32" rx="2.5" ry="2.5" style="stroke:#181818;stroke-width:0.5;" width="118.4268" x="1319" y="716"/><ellipse cx="1334" cy="732" fill="#ADD1B2" rx="11" ry="11" style="stroke:#181818;stroke-width:1;"/><path d="M1336.9688,737.6406 Q1336.3906,737.9375 1335.75,738.0781 Q1335.1094,738.2344 1334.4063,738.2344 Q1331.9063,738.2344 1330.5781,736.5938 Q1329.2656,734.9375 1329.2656,731.8125 Q1329.2656,728.6875 1330.5781,727.0313 Q1331.9063,725.375 1334.4063,725.375 Q1335.1094,725.375 1335.75,725.5313 Q1336.4063,725.6875 1336.9688,725.9844 L1336.9688,728.7031 Q1336.3438,728.125 1335.75,727.8594 Q1335.1563,727.5781 1334.5313,727.5781 Q1333.1875,727.5781 1332.5,728.6563 Q1331.8125,729.7188 1331.8125,731.8125 Q1331.8125,733.9063 1332.5,734.9844 Q1333.1875,736.0469 1334.5313,736.0469 Q1335.1563,736.0469 1335.75,735.7813 Q1336.3438,735.5 1336.9688,734.9219 L1336.9688,737.6406 Z " fill="#000000"/><text fill="#000000" font-family="sans-serif" font-size="14" lengthAdjust="spacing" textLength="86.4268" x="1348" y="736.8467">InputReader</text></g><!--class MatchConfig--><g class="entity" data-entity="MatchConfig" data-source-line="132" data-uid="ent0030" id="entity_MatchConfig"><rect fill="#F1F1F1" height="32" rx="2.5" ry="2.5" style="stroke:#181818;stroke-width:0.5;" width="119.6367" x="1207" y="517"/><ellipse cx="1222" cy="533" fill="#ADD1B2" rx="11" ry="11" style="stroke:#181818;stroke-width:1;"/><path d="M1224.9688,538.6406 Q1224.3906,538.9375 1223.75,539.0781 Q1223.1094,539.2344 1222.4063,539.2344 Q1219.9063,539.2344 1218.5781,537.5938 Q1217.2656,535.9375 1217.2656,532.8125 Q1217.2656,529.6875 1218.5781,528.0313 Q1219.9063,526.375 1222.4063,526.375 Q1223.1094,526.375 1223.75,526.5313 Q1224.4063,526.6875 1224.9688,526.9844 L1224.9688,529.7031 Q1224.3438,529.125 1223.75,528.8594 Q1223.1563,528.5781 1222.5313,528.5781 Q1221.1875,528.5781 1220.5,529.6563 Q1219.8125,530.7188 1219.8125,532.8125 Q1219.8125,534.9063 1220.5,535.9844 Q1221.1875,537.0469 1222.5313,537.0469 Q1223.1563,537.0469 1223.75,536.7813 Q1224.3438,536.5 1224.9688,535.9219 L1224.9688,538.6406 Z " fill="#000000"/><text fill="#000000" font-family="sans-serif" font-size="14" lengthAdjust="spacing" textLength="87.6367" x="1236" y="537.8467">MatchConfig</text></g><!--class OutputWriter--><g class="entity" data-entity="OutputWriter" data-source-line="141" data-uid="ent0031" id="entity_OutputWriter"><rect fill="#F1F1F1" height="32" rx="2.5" ry="2.5" style="stroke:#181818;stroke-width:0.5;" width="123.9775" x="1592" y="716"/><ellipse cx="1607" cy="732" fill="#ADD1B2" rx="11" ry="11" style="stroke:#181818;stroke-width:1;"/><path d="M1609.9688,737.6406 Q1609.3906,737.9375 1608.75,738.0781 Q1608.1094,738.2344 1607.4063,738.2344 Q1604.9063,738.2344 1603.5781,736.5938 Q1602.2656,734.9375 1602.2656,731.8125 Q1602.2656,728.6875 1603.5781,727.0313 Q1604.9063,725.375 1607.4063,725.375 Q1608.1094,725.375 1608.75,725.5313 Q1609.4063,725.6875 1609.9688,725.9844 L1609.9688,728.7031 Q1609.3438,728.125 1608.75,727.8594 Q1608.1563,727.5781 1607.5313,727.5781 Q1606.1875,727.5781 1605.5,728.6563 Q1604.8125,729.7188 1604.8125,731.8125 Q1604.8125,733.9063 1605.5,734.9844 Q1606.1875,736.0469 1607.5313,736.0469 Q1608.1563,736.0469 1608.75,735.7813 Q1609.3438,735.5 1609.9688,734.9219 L1609.9688,737.6406 Z " fill="#000000"/><text fill="#000000" font-family="sans-serif" font-size="14" lengthAdjust="spacing" textLength="91.9775" x="1621" y="736.8467">OutputWriter</text></g><!--class GameAbortedException--><g class="entity" data-entity="GameAbortedException" data-source-line="151" data-uid="ent0032" id="entity_GameAbortedException"><rect fill="#F1F1F1" height="32" rx="2.5" ry="2.5" style="stroke:#181818;stroke-width:0.5;" width="198.5986" x="2085.5" y="517"/><ellipse cx="2100.5" cy="533" fill="#ADD1B2" rx="11" ry="11" style="stroke:#181818;stroke-width:1;"/><path d="M2103.4688,538.6406 Q2102.8906,538.9375 2102.25,539.0781 Q2101.6094,539.2344 2100.9063,539.2344 Q2098.4063,539.2344 2097.0781,537.5938 Q2095.7656,535.9375 2095.7656,532.8125 Q2095.7656,529.6875 2097.0781,528.0313 Q2098.4063,526.375 2100.9063,526.375 Q2101.6094,526.375 2102.25,526.5313 Q2102.9063,526.6875 2103.4688,526.9844 L2103.4688,529.7031 Q2102.8438,529.125 2102.25,528.8594 Q2101.6563,528.5781 2101.0313,528.5781 Q2099.6875,528.5781 2099,529.6563 Q2098.3125,530.7188 2098.3125,532.8125 Q2098.3125,534.9063 2099,535.9844 Q2099.6875,537.0469 2101.0313,537.0469 Q2101.6563,537.0469 2102.25,536.7813 Q2102.8438,536.5 2103.4688,535.9219 L2103.4688,538.6406 Z " fill="#000000"/><text fill="#000000" font-family="sans-serif" font-size="14" lengthAdjust="spacing" textLength="166.5986" x="2114.5" y="537.8467">GameAbortedException</text></g><!--class MatchAbortedException--><g class="entity" data-entity="MatchAbortedException" data-source-line="155" data-uid="ent0034" id="entity_MatchAbortedException"><rect fill="#F1F1F1" height="32" rx="2.5" ry="2.5" style="stroke:#181818;stroke-width:0.5;" width="199.6377" x="1850" y="517"/><ellipse cx="1865" cy="533" fill="#ADD1B2" rx="11" ry="11" style="stroke:#181818;stroke-width:1;"/><path d="M1867.9688,538.6406 Q1867.3906,538.9375 1866.75,539.0781 Q1866.1094,539.2344 1865.4063,539.2344 Q1862.9063,539.2344 1861.5781,537.5938 Q1860.2656,535.9375 1860.2656,532.8125 Q1860.2656,529.6875 1861.5781,528.0313 Q1862.9063,526.375 1865.4063,526.375 Q1866.1094,526.375 1866.75,526.5313 Q1867.4063,526.6875 1867.9688,526.9844 L1867.9688,529.7031 Q1867.3438,529.125 1866.75,528.8594 Q1866.1563,528.5781 1865.5313,528.5781 Q1864.1875,528.5781 1863.5,529.6563 Q1862.8125,530.7188 1862.8125,532.8125 Q1862.8125,534.9063 1863.5,535.9844 Q1864.1875,537.0469 1865.5313,537.0469 Q1866.1563,537.0469 1866.75,536.7813 Q1867.3438,536.5 1867.9688,535.9219 L1867.9688,538.6406 Z " fill="#000000"/><text fill="#000000" font-family="sans-serif" font-size="14" lengthAdjust="spacing" textLength="167.6377" x="1879" y="537.8467">MatchAbortedException</text></g><!--class HomeScreen--><g class="entity" data-entity="HomeScreen" data-source-line="159" data-uid="ent0035" id="entity_HomeScreen"><rect fill="#F1F1F1" height="32" rx="2.5" ry="2.5" style="stroke:#181818;stroke-width:0.5;" width="121.7832" x="1672" y="517"/><ellipse cx="1687" cy="533" fill="#ADD1B2" rx="11" ry="11" style="stroke:#181818;stroke-width:1;"/><path d="M1689.9688,538.6406 Q1689.3906,538.9375 1688.75,539.0781 Q1688.1094,539.2344 1687.4063,539.2344 Q1684.9063,539.2344 1683.5781,537.5938 Q1682.2656,535.9375 1682.2656,532.8125 Q1682.2656,529.6875 1683.5781,528.0313 Q1684.9063,526.375 1687.4063,526.375 Q1688.1094,526.375 1688.75,526.5313 Q1689.4063,526.6875 1689.9688,526.9844 L1689.9688,529.7031 Q1689.3438,529.125 1688.75,528.8594 Q1688.1563,528.5781 1687.5313,528.5781 Q1686.1875,528.5781 1685.5,529.6563 Q1684.8125,530.7188 1684.8125,532.8125 Q1684.8125,534.9063 1685.5,535.9844 Q1686.1875,537.0469 1687.5313,537.0469 Q1688.1563,537.0469 1688.75,536.7813 Q1689.3438,536.5 1689.9688,535.9219 L1689.9688,538.6406 Z " fill="#000000"/><text fill="#000000" font-family="sans-serif" font-size="14" lengthAdjust="spacing" textLength="89.7832" x="1701" y="537.8467">HomeScreen</text></g><!--class MatchScreen--><g class="entity" data-entity="MatchScreen" data-source-line="165" data-uid="ent0037" id="entity_MatchScreen"><rect fill="#F1F1F1" height="32" rx="2.5" ry="2.5" style="stroke:#181818;stroke-width:0.5;" width="123.1572" x="1513.5" y="517"/><ellipse cx="1528.5" cy="533" fill="#ADD1B2" rx="11" ry="11" style="stroke:#181818;stroke-width:1;"/><path d="M1531.4688,538.6406 Q1530.8906,538.9375 1530.25,539.0781 Q1529.6094,539.2344 1528.9063,539.2344 Q1526.4063,539.2344 1525.0781,537.5938 Q1523.7656,535.9375 1523.7656,532.8125 Q1523.7656,529.6875 1525.0781,528.0313 Q1526.4063,526.375 1528.9063,526.375 Q1529.6094,526.375 1530.25,526.5313 Q1530.9063,526.6875 1531.4688,526.9844 L1531.4688,529.7031 Q1530.8438,529.125 1530.25,528.8594 Q1529.6563,528.5781 1529.0313,528.5781 Q1527.6875,528.5781 1527,529.6563 Q1526.3125,530.7188 1526.3125,532.8125 Q1526.3125,534.9063 1527,535.9844 Q1527.6875,537.0469 1529.0313,537.0469 Q1529.6563,537.0469 1530.25,536.7813 Q1530.8438,536.5 1531.4688,535.9219 L1531.4688,538.6406 Z " fill="#000000"/><text fill="#000000" font-family="sans-serif" font-size="14" lengthAdjust="spacing" textLength="91.1572" x="1542.5" y="537.8467">MatchScreen</text></g><!--class AbstractPlayer--><g class="entity" data-entity="AbstractPlayer" data-source-line="173" data-uid="ent0038" id="entity_AbstractPlayer"><rect fill="#F1F1F1" height="32" rx="2.5" ry="2.5" style="stroke:#181818;stroke-width:0.5;" width="134.334" x="656" y="716"/><ellipse cx="671" cy="732" fill="#A9DCDF" rx="11" ry="11" style="stroke:#181818;stroke-width:1;"/><path d="M671.1094,727.3438 L669.9531,732.4219 L672.2813,732.4219 L671.1094,727.3438 Z M669.625,725.1094 L672.6094,725.1094 L675.9688,737.5 L673.5156,737.5 L672.75,734.4375 L669.4688,734.4375 L668.7188,737.5 L666.2813,737.5 L669.625,725.1094 Z " fill="#000000"/><text fill="#000000" font-family="sans-serif" font-size="14" font-style="italic" lengthAdjust="spacing" textLength="102.334" x="685" y="736.8467">AbstractPlayer</text></g><!--class HumanPlayer--><g class="entity" data-entity="HumanPlayer" data-source-line="178" data-uid="ent0040" id="entity_HumanPlayer"><rect fill="#F1F1F1" height="32" rx="2.5" ry="2.5" style="stroke:#181818;stroke-width:0.5;" width="126.0557" x="1025" y="517"/><ellipse cx="1040" cy="533" fill="#ADD1B2" rx="11" ry="11" style="stroke:#181818;stroke-width:1;"/><path d="M1042.9688,538.6406 Q1042.3906,538.9375 1041.75,539.0781 Q1041.1094,539.2344 1040.4063,539.2344 Q1037.9063,539.2344 1036.5781,537.5938 Q1035.2656,535.9375 1035.2656,532.8125 Q1035.2656,529.6875 1036.5781,528.0313 Q1037.9063,526.375 1040.4063,526.375 Q1041.1094,526.375 1041.75,526.5313 Q1042.4063,526.6875 1042.9688,526.9844 L1042.9688,529.7031 Q1042.3438,529.125 1041.75,528.8594 Q1041.1563,528.5781 1040.5313,528.5781 Q1039.1875,528.5781 1038.5,529.6563 Q1037.8125,530.7188 1037.8125,532.8125 Q1037.8125,534.9063 1038.5,535.9844 Q1039.1875,537.0469 1040.5313,537.0469 Q1041.1563,537.0469 1041.75,536.7813 Q1042.3438,536.5 1042.9688,535.9219 L1042.9688,538.6406 Z " fill="#000000"/><text fill="#000000" font-family="sans-serif" font-size="14" lengthAdjust="spacing" textLength="94.0557" x="1054" y="537.8467">HumanPlayer</text></g><!--class BotPlayer--><g class="entity" data-entity="BotPlayer" data-source-line="183" data-uid="ent0041" id="entity_BotPlayer"><rect fill="#F1F1F1" height="32" rx="2.5" ry="2.5" style="stroke:#181818;stroke-width:0.5;" width="99.2246" x="480.5" y="517"/><ellipse cx="495.5" cy="533" fill="#A9DCDF" rx="11" ry="11" style="stroke:#181818;stroke-width:1;"/><path d="M495.6094,528.3438 L494.4531,533.4219 L496.7813,533.4219 L495.6094,528.3438 Z M494.125,526.1094 L497.1094,526.1094 L500.4688,538.5 L498.0156,538.5 L497.25,535.4375 L493.9688,535.4375 L493.2188,538.5 L490.7813,538.5 L494.125,526.1094 Z " fill="#000000"/><text fill="#000000" font-family="sans-serif" font-size="14" font-style="italic" lengthAdjust="spacing" textLength="67.2246" x="509.5" y="537.8467">BotPlayer</text></g><!--class MiniMaxAlgo--><g class="entity" data-entity="MiniMaxAlgo" data-source-line="187" data-uid="ent0043" id="entity_MiniMaxAlgo"><rect fill="#F1F1F1" height="32" rx="2.5" ry="2.5" style="stroke:#181818;stroke-width:0.5;" width="120.5938" x="701.5" y="517"/><ellipse cx="716.5" cy="533" fill="#A9DCDF" rx="11" ry="11" style="stroke:#181818;stroke-width:1;"/><path d="M716.6094,528.3438 L715.4531,533.4219 L717.7813,533.4219 L716.6094,528.3438 Z M715.125,526.1094 L718.1094,526.1094 L721.4688,538.5 L719.0156,538.5 L718.25,535.4375 L714.9688,535.4375 L714.2188,538.5 L711.7813,538.5 L715.125,526.1094 Z " fill="#000000"/><text fill="#000000" font-family="sans-serif" font-size="14" font-style="italic" lengthAdjust="spacing" textLength="88.5938" x="730.5" y="537.8467">MiniMaxAlgo</text></g><!--class MiniMaxBotPlayer--><g class="entity" data-entity="MiniMaxBotPlayer" data-source-line="193" data-uid="ent0045" id="entity_MiniMaxBotPlayer"><rect fill="#F1F1F1" height="32" rx="2.5" ry="2.5" style="stroke:#181818;stroke-width:0.5;" width="156.8994" x="612.5" y="342"/><ellipse cx="627.5" cy="358" fill="#ADD1B2" rx="11" ry="11" style="stroke:#181818;stroke-width:1;"/><path d="M630.4688,363.6406 Q629.8906,363.9375 629.25,364.0781 Q628.6094,364.2344 627.9063,364.2344 Q625.4063,364.2344 624.0781,362.5938 Q622.7656,360.9375 622.7656,357.8125 Q622.7656,354.6875 624.0781,353.0313 Q625.4063,351.375 627.9063,351.375 Q628.6094,351.375 629.25,351.5313 Q629.9063,351.6875 630.4688,351.9844 L630.4688,354.7031 Q629.8438,354.125 629.25,353.8594 Q628.6563,353.5781 628.0313,353.5781 Q626.6875,353.5781 626,354.6563 Q625.3125,355.7188 625.3125,357.8125 Q625.3125,359.9063 626,360.9844 Q626.6875,362.0469 628.0313,362.0469 Q628.6563,362.0469 629.25,361.7813 Q629.8438,361.5 630.4688,360.9219 L630.4688,363.6406 Z " fill="#000000"/><text fill="#000000" font-family="sans-serif" font-size="14" lengthAdjust="spacing" textLength="124.8994" x="641.5" y="362.8467">MiniMaxBotPlayer</text></g><!--class MiniMaxSequential--><g class="entity" data-entity="MiniMaxSequential" data-source-line="198" data-uid="ent0046" id="entity_MiniMaxSequential"><rect fill="#F1F1F1" height="32" rx="2.5" ry="2.5" style="stroke:#181818;stroke-width:0.5;" width="164.2686" x="805" y="342"/><ellipse cx="820" cy="358" fill="#ADD1B2" rx="11" ry="11" style="stroke:#181818;stroke-width:1;"/><path d="M822.9688,363.6406 Q822.3906,363.9375 821.75,364.0781 Q821.1094,364.2344 820.4063,364.2344 Q817.9063,364.2344 816.5781,362.5938 Q815.2656,360.9375 815.2656,357.8125 Q815.2656,354.6875 816.5781,353.0313 Q817.9063,351.375 820.4063,351.375 Q821.1094,351.375 821.75,351.5313 Q822.4063,351.6875 822.9688,351.9844 L822.9688,354.7031 Q822.3438,354.125 821.75,353.8594 Q821.1563,353.5781 820.5313,353.5781 Q819.1875,353.5781 818.5,354.6563 Q817.8125,355.7188 817.8125,357.8125 Q817.8125,359.9063 818.5,360.9844 Q819.1875,362.0469 820.5313,362.0469 Q821.1563,362.0469 821.75,361.7813 Q822.3438,361.5 822.9688,360.9219 L822.9688,363.6406 Z " fill="#000000"/><text fill="#000000" font-family="sans-serif" font-size="14" lengthAdjust="spacing" textLength="132.2686" x="834" y="362.8467">MiniMaxSequential</text></g><!--class InvalidMoveException--><g class="entity" data-entity="InvalidMoveException" data-source-line="206" data-uid="ent0047" id="entity_InvalidMoveException"><rect fill="#F1F1F1" height="32" rx="2.5" ry="2.5" style="stroke:#181818;stroke-width:0.5;" width="185.2207" x="239.5" y="342"/><ellipse cx="254.5" cy="358" fill="#ADD1B2" rx="11" ry="11" style="stroke:#181818;stroke-width:1;"/><path d="M257.4688,363.6406 Q256.8906,363.9375 256.25,364.0781 Q255.6094,364.2344 254.9063,364.2344 Q252.4063,364.2344 251.0781,362.5938 Q249.7656,360.9375 249.7656,357.8125 Q249.7656,354.6875 251.0781,353.0313 Q252.4063,351.375 254.9063,351.375 Q255.6094,351.375 256.25,351.5313 Q256.9063,351.6875 257.4688,351.9844 L257.4688,354.7031 Q256.8438,354.125 256.25,353.8594 Q255.6563,353.5781 255.0313,353.5781 Q253.6875,353.5781 253,354.6563 Q252.3125,355.7188 252.3125,357.8125 Q252.3125,359.9063 253,360.9844 Q253.6875,362.0469 255.0313,362.0469 Q255.6563,362.0469 256.25,361.7813 Q256.8438,361.5 257.4688,360.9219 L257.4688,363.6406 Z " fill="#000000"/><text fill="#000000" font-family="sans-serif" font-size="14" lengthAdjust="spacing" textLength="153.2207" x="268.5" y="362.8467">InvalidMoveException</text></g><!--reverse link Piece to PieceType--><g class="link" data-entity-1="Piece" data-entity-2="PieceType" data-source-line="213" data-uid="lnk49" id="link_Piece_PieceType"><path codeLine="213" d="M2967.7663,755.9751 C2992.0263,776.7951 3026.31,806.22 3050.49,826.97" fill="none" id="Piece-backto-PieceType" style="stroke:#181818;stroke-width:1;"/><polygon fill="#181818" points="2958.66,748.16,2960.6081,755.103,2967.7663,755.9751,2965.8182,749.0321,2958.66,748.16" style="stroke:#181818;stroke-width:1;"/><text fill="#000000" font-family="sans-serif" font-size="13" lengthAdjust="spacing" textLength="29.0405" x="3013" y="793.0669">type</text></g><!--reverse link Piece to PlayerColor--><g class="link" data-entity-1="Piece" data-entity-2="PlayerColor" data-source-line="214" data-uid="lnk50" id="link_Piece_PlayerColor"><path codeLine="214" d="M2937.0351,760.0325 C2933.9751,780.8525 2930.25,806.22 2927.21,826.97" fill="none" id="Piece-backto-PlayerColor" style="stroke:#181818;stroke-width:1;"/><polygon fill="#181818" points="2938.78,748.16,2933.95,753.5146,2937.0351,760.0325,2941.865,754.6779,2938.78,748.16" style="stroke:#181818;stroke-width:1;"/><text fill="#000000" font-family="sans-serif" font-size="13" lengthAdjust="spacing" textLength="32.0112" x="2934" y="793.0669">color</text></g><!--link AlphanumericBorderFieldRenderer to BorderFieldRenderer--><g class="link" data-entity-1="AlphanumericBorderFieldRenderer" data-entity-2="BorderFieldRenderer" data-source-line="215" data-uid="lnk51" id="link_AlphanumericBorderFieldRenderer_BorderFieldRenderer"><path codeLine="215" d="M3515.68,859.15 C3519.76,872.39 3523.63,891.94 3518,908 C3514.03,919.33 3518.1674,916.7756 3510.6174,924.8456" fill="none" id="AlphanumericBorderFieldRenderer-to-BorderFieldRenderer" style="stroke:#181818;stroke-width:1;stroke-dasharray:7,7;"/><polygon fill="none" points="3498.32,937.99,3514.9988,928.9448,3506.2359,920.7465,3498.32,937.99" style="stroke:#181818;stroke-width:1;"/></g><!--reverse link BoardRenderer to BorderFieldRenderer--><g class="link" data-entity-1="BoardRenderer" data-entity-2="BorderFieldRenderer" data-source-line="216" data-uid="lnk52" id="link_BoardRenderer_BorderFieldRenderer"><path codeLine="216" d="M3301.4061,865.5885 C3322.2761,879.2685 3344.51,892.98 3374,908 C3395.9,919.16 3421.23,929.82 3441.85,937.96" fill="none" id="BoardRenderer-backto-BorderFieldRenderer" style="stroke:#181818;stroke-width:1;"/><polygon fill="#181818" points="3291.37,859.01,3294.1952,865.6446,3301.4061,865.5885,3298.5809,858.9539,3291.37,859.01" style="stroke:#181818;stroke-width:1;"/><text fill="#000000" font-family="sans-serif" font-size="13" lengthAdjust="spacing" textLength="134.3037" x="3375" y="904.0669">borderFieldRenderer</text></g><!--reverse link BoardRenderer to FieldRenderer--><g class="link" data-entity-1="BoardRenderer" data-entity-2="FieldRenderer" data-source-line="217" data-uid="lnk53" id="link_BoardRenderer_FieldRenderer"><path codeLine="217" d="M3254.7575,869.7585 C3250.1075,878.7085 3250.39,879.81 3248,891 C3244.55,907.16 3250.78,925.35 3256.64,937.83" fill="none" id="BoardRenderer-backto-FieldRenderer" style="stroke:#181818;stroke-width:1;"/><polygon fill="#181818" points="3260.29,859.11,3253.9742,862.5901,3254.7575,869.7585,3261.0733,866.2784,3260.29,859.11" style="stroke:#181818;stroke-width:1;"/><text fill="#000000" font-family="sans-serif" font-size="13" lengthAdjust="spacing" textLength="88.2578" x="3249" y="904.0669">fieldRenderer</text></g><!--reverse link ChessBoardRenderer to BoardRenderer--><g class="link" data-entity-1="ChessBoardRenderer" data-entity-2="BoardRenderer" data-source-line="218" data-uid="lnk54" id="link_ChessBoardRenderer_BoardRenderer"><path codeLine="218" d="M3408.6394,754.5285 C3375.3894,775.3485 3326.12,806.22 3292.99,826.97" fill="none" id="ChessBoardRenderer-backto-BoardRenderer" style="stroke:#181818;stroke-width:1;"/><polygon fill="#181818" points="3418.81,748.16,3411.6018,747.954,3408.6394,754.5285,3415.8475,754.7345,3418.81,748.16" style="stroke:#181818;stroke-width:1;"/><text fill="#000000" font-family="sans-serif" font-size="13" lengthAdjust="spacing" textLength="97.9761" x="3367" y="793.0669">boardRenderer</text></g><!--reverse link MateAwareEval to EvalStrategy--><g class="link" data-entity-1="MateAwareEval" data-entity-2="EvalStrategy" data-source-line="219" data-uid="lnk55" id="link_MateAwareEval_EvalStrategy"><path codeLine="219" d="M2714.3152,556.3623 C2697.0352,569.6423 2680.2,581.88 2656,597 C2649.59,601 2646.25,599.57 2641,605 C2609.29,637.76 2590.83,689.89 2583.17,715.61" fill="none" id="MateAwareEval-backto-EvalStrategy" style="stroke:#181818;stroke-width:1;"/><polygon fill="#181818" points="2723.83,549.05,2716.6352,549.5345,2714.3152,556.3623,2721.51,555.8777,2723.83,549.05" style="stroke:#181818;stroke-width:1;"/><text fill="#000000" font-family="sans-serif" font-size="13" lengthAdjust="spacing" textLength="82.9702" x="2642" y="618.0669">evalStrategy</text></g><!--link MateAwareEval to EvalStrategy--><g class="link" data-entity-1="MateAwareEval" data-entity-2="EvalStrategy" data-source-line="220" data-uid="lnk56" id="link_MateAwareEval_EvalStrategy"><path codeLine="220" d="M2743.97,549.2 C2744.43,567.76 2742.83,599.45 2729,622 C2701.65,666.59 2664.7263,690.5138 2629.6063,707.8738" fill="none" id="MateAwareEval-to-EvalStrategy" style="stroke:#181818;stroke-width:1;stroke-dasharray:7,7;"/><polygon fill="none" points="2613.47,715.85,2632.265,713.2525,2626.9475,702.495,2613.47,715.85" style="stroke:#181818;stroke-width:1;"/></g><!--link MaterialEval to EvalStrategy--><g class="link" data-entity-1="MaterialEval" data-entity-2="EvalStrategy" data-source-line="221" data-uid="lnk57" id="link_MaterialEval_EvalStrategy"><path codeLine="221" d="M2579,549.13 C2579,585.8 2579,661.09 2579,697.82" fill="none" id="MaterialEval-to-EvalStrategy" style="stroke:#181818;stroke-width:1;stroke-dasharray:7,7;"/><polygon fill="none" points="2579,715.82,2585,697.82,2573,697.82,2579,715.82" style="stroke:#181818;stroke-width:1;"/></g><!--link RandomEval to EvalStrategy--><g class="link" data-entity-1="RandomEval" data-entity-2="EvalStrategy" data-source-line="222" data-uid="lnk58" id="link_RandomEval_EvalStrategy"><path codeLine="222" d="M2436.83,549.13 C2465.49,585.8 2527.3349,664.9083 2556.0449,701.6383" fill="none" id="RandomEval-to-EvalStrategy" style="stroke:#181818;stroke-width:1;stroke-dasharray:7,7;"/><polygon fill="none" points="2567.13,715.82,2560.7721,697.9433,2551.3177,705.3334,2567.13,715.82" style="stroke:#181818;stroke-width:1;"/></g><!--reverse link MatchConfig to AbstractPlayer--><g class="link" data-entity-1="MatchConfig" data-entity-2="AbstractPlayer" data-source-line="223" data-uid="lnk59" id="link_MatchConfig_AbstractPlayer"><path codeLine="223" d="M1240.3994,556.7251 C1221.5494,572.1351 1199.06,587.48 1167,597 C1153.13,601.12 656.16,594.69 646,605 C612.36,639.16 668.95,690.64 701.9,715.92" fill="none" id="MatchConfig-backto-AbstractPlayer" style="stroke:#181818;stroke-width:1;"/><polygon fill="#181818" points="1249.69,549.13,1242.513,549.8307,1240.3994,556.7251,1247.5764,556.0244,1249.69,549.13" style="stroke:#181818;stroke-width:1;"/><text fill="#000000" font-family="sans-serif" font-size="13" lengthAdjust="spacing" textLength="34.5059" x="647" y="618.0669">black</text></g><!--reverse link MatchConfig to AbstractPlayer--><g class="link" data-entity-1="MatchConfig" data-entity-2="AbstractPlayer" data-source-line="224" data-uid="lnk60" id="link_MatchConfig_AbstractPlayer"><path codeLine="224" d="M1240.4019,556.738 C1221.5519,572.158 1199.07,587.5 1167,597 C1151.68,601.54 603.22,593.63 592,605 C561.74,635.69 617.72,624.15 628,630 C666.08,651.67 698.03,693.58 713.32,715.99" fill="none" id="MatchConfig-backto-AbstractPlayer-1" style="stroke:#181818;stroke-width:1;"/><polygon fill="#181818" points="1249.69,549.14,1242.5132,549.843,1240.4019,556.738,1247.5786,556.0351,1249.69,549.14" style="stroke:#181818;stroke-width:1;"/><text fill="#000000" font-family="sans-serif" font-size="13" lengthAdjust="spacing" textLength="35.5786" x="593" y="618.0669">white</text></g><!--reverse link HomeScreen to InputReader--><g class="link" data-entity-1="HomeScreen" data-entity-2="InputReader" data-source-line="225" data-uid="lnk61" id="link_HomeScreen_InputReader"><path codeLine="225" d="M1711.2426,557.6699 C1696.7326,572.7599 1680.43,586.56 1654,597 C1612.12,613.54 1595.28,589.49 1553,605 C1485.52,629.75 1420.82,688.25 1392.69,715.95" fill="none" id="HomeScreen-backto-InputReader" style="stroke:#181818;stroke-width:1;"/><polygon fill="#181818" points="1719.56,549.02,1712.518,550.5725,1711.2426,557.6699,1718.2846,556.1174,1719.56,549.02" style="stroke:#181818;stroke-width:1;"/><text fill="#000000" font-family="sans-serif" font-size="13" lengthAdjust="spacing" textLength="42.9038" x="1554" y="618.0669">reader</text></g><!--link HomeScreen to OutputWriter--><g class="link" data-entity-1="HomeScreen" data-entity-2="OutputWriter" data-source-line="226" data-uid="lnk62" id="link_HomeScreen_OutputWriter"><path codeLine="226" d="M1726.93,549.13 C1712.23,585.8 1677.042,673.5206 1662.322,710.2506" fill="none" id="HomeScreen-to-OutputWriter" style="stroke:#181818;stroke-width:1;"/><polygon fill="#181818" points="1660.09,715.82,1667.1509,708.9539,1661.95,711.1788,1659.7251,705.9779,1660.09,715.82" style="stroke:#181818;stroke-width:1;"/><text fill="#000000" font-family="sans-serif" font-size="13" lengthAdjust="spacing" textLength="38.0288" x="1703" y="618.0669">writer</text></g><!--link MatchScreen to ChessBoard--><g class="link" data-entity-1="MatchScreen" data-entity-2="ChessBoard" data-source-line="227" data-uid="lnk63" id="link_MatchScreen_ChessBoard"><path codeLine="227" d="M1588.25,549.08 C1602.84,564.45 1627.85,587.35 1655,597 C1681.44,606.4 2132.04,602.69 2160,605 C2210.61,609.19 2222.37,618.07 2273,622 C2292.25,623.5 3645.81,621.22 3663,630 C3698.62,648.19 3718.9307,686.8848 3728.8507,710.3148" fill="none" id="MatchScreen-to-ChessBoard" style="stroke:#181818;stroke-width:1;"/><polygon fill="#181818" points="3731.19,715.84,3731.3645,705.9927,3729.2406,711.2357,3723.9976,709.1118,3731.19,715.84" style="stroke:#181818;stroke-width:1;"/><text fill="#000000" font-family="sans-serif" font-size="13" lengthAdjust="spacing" textLength="74.6992" x="2274" y="618.0669">chessboard</text></g><!--link MatchScreen to ChessBoardRenderer--><g class="link" data-entity-1="MatchScreen" data-entity-2="ChessBoardRenderer" data-source-line="228" data-uid="lnk64" id="link_MatchScreen_ChessBoardRenderer"><path codeLine="228" d="M1588.55,549.28 C1603.2,564.57 1628.09,587.2 1655,597 C1681.32,606.59 1879.1,602.45 1907,605 C1957.14,609.58 1968.81,618.06 2019,622 C2037.24,623.43 3319.02,623.19 3336,630 C3379.63,647.49 3412.3326,687.1376 3429.2326,710.7976" fill="none" id="MatchScreen-to-ChessBoardRenderer" style="stroke:#181818;stroke-width:1;"/><polygon fill="#181818" points="3432.72,715.68,3430.7438,706.0314,3429.8138,711.6113,3424.2339,710.6814,3432.72,715.68" style="stroke:#181818;stroke-width:1;"/><text fill="#000000" font-family="sans-serif" font-size="13" lengthAdjust="spacing" textLength="135.5732" x="2020" y="618.0669">chessBoardRenderer</text></g><!--link MatchScreen to OutputWriter--><g class="link" data-entity-1="MatchScreen" data-entity-2="OutputWriter" data-source-line="229" data-uid="lnk65" id="link_MatchScreen_OutputWriter"><path codeLine="229" d="M1581.07,549.13 C1595.77,585.8 1630.958,673.5206 1645.678,710.2506" fill="none" id="MatchScreen-to-OutputWriter" style="stroke:#181818;stroke-width:1;"/><polygon fill="#181818" points="1647.91,715.82,1648.2749,705.9779,1646.05,711.1788,1640.8491,708.9539,1647.91,715.82" style="stroke:#181818;stroke-width:1;"/><text fill="#000000" font-family="sans-serif" font-size="13" lengthAdjust="spacing" textLength="38.0288" x="1610" y="618.0669">writer</text></g><!--link MatchScreen to AbstractPlayer--><g class="link" data-entity-1="MatchScreen" data-entity-2="AbstractPlayer" data-source-line="230" data-uid="lnk66" id="link_MatchScreen_AbstractPlayer"><path codeLine="230" d="M1564.87,549.03 C1553.55,564.35 1533.67,587.21 1510,597 C1481.35,608.85 981.97,597.07 952,605 C867.33,627.4 784.9723,684.0431 747.2023,712.3331" fill="none" id="MatchScreen-to-AbstractPlayer" style="stroke:#181818;stroke-width:1;"/><polygon fill="#181818" points="742.4,715.93,752.0014,713.7361,746.4019,712.9325,747.2055,707.3331,742.4,715.93" style="stroke:#181818;stroke-width:1;"/><text fill="#000000" font-family="sans-serif" font-size="13" lengthAdjust="spacing" textLength="34.5059" x="953" y="618.0669">black</text></g><!--link MatchScreen to AbstractPlayer--><g class="link" data-entity-1="MatchScreen" data-entity-2="AbstractPlayer" data-source-line="231" data-uid="lnk67" id="link_MatchScreen_AbstractPlayer"><path codeLine="231" d="M1564.88,549.05 C1553.57,564.38 1533.69,587.26 1510,597 C1489.75,605.32 737.4,589.44 722,605 C692.91,634.38 705.2963,683.4116 714.8263,710.0116" fill="none" id="MatchScreen-to-AbstractPlayer-1" style="stroke:#181818;stroke-width:1;"/><polygon fill="#181818" points="716.85,715.66,717.5801,705.8382,715.1636,710.953,710.0489,708.5365,716.85,715.66" style="stroke:#181818;stroke-width:1;"/><text fill="#000000" font-family="sans-serif" font-size="13" lengthAdjust="spacing" textLength="87.8643" x="723" y="618.0669">currentPlayer</text></g><!--link MatchScreen to AbstractPlayer--><g class="link" data-entity-1="MatchScreen" data-entity-2="AbstractPlayer" data-source-line="232" data-uid="lnk68" id="link_MatchScreen_AbstractPlayer"><path codeLine="232" d="M1564.87,549.04 C1553.56,564.37 1533.68,587.24 1510,597 C1476.56,610.79 892.59,591.59 859,605 C801.6,627.91 757.3,682.4566 736.99,710.7366" fill="none" id="MatchScreen-to-AbstractPlayer-2" style="stroke:#181818;stroke-width:1;"/><polygon fill="#181818" points="733.49,715.61,741.9889,710.6332,736.4066,711.5488,735.491,705.9666,733.49,715.61" style="stroke:#181818;stroke-width:1;"/><text fill="#000000" font-family="sans-serif" font-size="13" lengthAdjust="spacing" textLength="35.5786" x="860" y="618.0669">white</text></g><!--reverse link AbstractPlayer to PlayerColor--><g class="link" data-entity-1="AbstractPlayer" data-entity-2="PlayerColor" data-source-line="233" data-uid="lnk69" id="link_AbstractPlayer_PlayerColor"><path codeLine="233" d="M802.3066,740.6506 C893.1766,749.2506 1048.18,763.17 1191,772 C1850.31,812.76 2652.18,835.05 2868.82,840.61" fill="none" id="AbstractPlayer-backto-PlayerColor" style="stroke:#181818;stroke-width:1;"/><polygon fill="#181818" points="790.36,739.52,795.9564,744.0675,802.3066,740.6506,796.7102,736.1031,790.36,739.52" style="stroke:#181818;stroke-width:1;"/><text fill="#000000" font-family="sans-serif" font-size="13" lengthAdjust="spacing" textLength="74.8071" x="1619" y="793.0669">playerColor</text></g><!--reverse link HumanPlayer to InputReader--><g class="link" data-entity-1="HumanPlayer" data-entity-2="InputReader" data-source-line="234" data-uid="lnk70" id="link_HumanPlayer_InputReader"><path codeLine="234" d="M1045.4818,554.7184 C1012.4918,572.2384 979.61,596.38 1004,622 C1016.5,635.13 1149.42,625.55 1167,630 C1239.45,648.32 1316.75,692.48 1354.51,715.87" fill="none" id="HumanPlayer-backto-InputReader" style="stroke:#181818;stroke-width:1;"/><polygon fill="#181818" points="1056.08,549.09,1048.9048,548.3715,1045.4818,554.7184,1052.657,555.4369,1056.08,549.09" style="stroke:#181818;stroke-width:1;"/><text fill="#000000" font-family="sans-serif" font-size="13" lengthAdjust="spacing" textLength="42.9038" x="1005" y="618.0669">reader</text></g><!--link HumanPlayer to AbstractPlayer--><g class="link" data-entity-1="HumanPlayer" data-entity-2="AbstractPlayer" data-source-line="235" data-uid="lnk71" id="link_HumanPlayer_AbstractPlayer"><path codeLine="235" d="M1070.08,549.12 C1050.59,564.52 1017.8,587.45 985,597 C973.02,600.49 544.74,596.1 536,605 C530.71,610.39 530.89,616.43 536,622 C549.87,637.13 609.53,621.05 628,630 C667.64,649.22 689.4807,677.3876 704.2307,700.5476" fill="none" id="HumanPlayer-to-AbstractPlayer" style="stroke:#181818;stroke-width:1;"/><polygon fill="none" points="713.9,715.73,709.2915,697.3245,699.1699,703.7707,713.9,715.73" style="stroke:#181818;stroke-width:1;"/></g><!--link BotPlayer to AbstractPlayer--><g class="link" data-entity-1="BotPlayer" data-entity-2="AbstractPlayer" data-source-line="236" data-uid="lnk72" id="link_BotPlayer_AbstractPlayer"><path codeLine="236" d="M524.21,549.29 C517.91,568.83 510.97,602.46 529,622 C543.97,638.22 608.11,620.43 628,630 C667.7,649.09 689.5419,677.3041 704.2719,700.5041" fill="none" id="BotPlayer-to-AbstractPlayer" style="stroke:#181818;stroke-width:1;"/><polygon fill="none" points="713.92,715.7,709.3372,697.2881,699.2066,703.7201,713.92,715.7" style="stroke:#181818;stroke-width:1;"/></g><!--reverse link MiniMaxAlgo to PlayerColor--><g class="link" data-entity-1="MiniMaxAlgo" data-entity-2="PlayerColor" data-source-line="237" data-uid="lnk73" id="link_MiniMaxAlgo_PlayerColor"><path codeLine="237" d="M744.6968,558.8245 C733.5168,574.0145 721.15,586.9 698,597 C662.12,612.66 560.73,599.24 522,605 C477.54,611.61 451.58,594.5 424,630 C385.28,679.84 380,726.75 424,772 C468.09,817.34 2502.62,838.12 2868.84,841.5" fill="none" id="MiniMaxAlgo-backto-PlayerColor" style="stroke:#181818;stroke-width:1;"/><polygon fill="#181818" points="751.81,549.16,745.0319,551.6212,744.6968,558.8245,751.4749,556.3633,751.81,549.16" style="stroke:#181818;stroke-width:1;"/><text fill="#000000" font-family="sans-serif" font-size="13" lengthAdjust="spacing" textLength="101.2197" x="425" y="736.5669">ownPlayerColor</text></g><!--reverse link MiniMaxAlgo to EvalStrategy--><g class="link" data-entity-1="MiniMaxAlgo" data-entity-2="EvalStrategy" data-source-line="238" data-uid="lnk74" id="link_MiniMaxAlgo_EvalStrategy"><path codeLine="238" d="M779.5638,558.8221 C790.9538,574.0621 803.58,587.02 827,597 C850.02,606.8 1027.33,600.83 1052,605 C1077.23,609.27 1081.71,618.1 1107,622 C1173.88,632.32 2258.58,617.05 2325,630 C2411.17,646.8 2505.44,692.06 2551.11,715.88" fill="none" id="MiniMaxAlgo-backto-EvalStrategy" style="stroke:#181818;stroke-width:1;"/><polygon fill="#181818" points="772.38,549.21,772.7679,556.4107,779.5638,558.8221,779.176,551.6214,772.38,549.21" style="stroke:#181818;stroke-width:1;"/><text fill="#000000" font-family="sans-serif" font-size="13" lengthAdjust="spacing" textLength="82.9702" x="1108" y="618.0669">evalStrategy</text></g><!--reverse link MiniMaxBotPlayer to MiniMaxAlgo--><g class="link" data-entity-1="MiniMaxBotPlayer" data-entity-2="MiniMaxAlgo" data-source-line="239" data-uid="lnk75" id="link_MiniMaxBotPlayer_MiniMaxAlgo"><path codeLine="239" d="M701.7336,385.1525 C715.1536,417.8725 742.33,484.06 755.79,516.86" fill="none" id="MiniMaxBotPlayer-backto-MiniMaxAlgo" style="stroke:#181818;stroke-width:1;"/><polygon fill="#181818" points="697.18,374.05,695.756,381.1191,701.7336,385.1525,703.1576,378.0833,697.18,374.05" style="stroke:#181818;stroke-width:1;"/><text fill="#000000" font-family="sans-serif" font-size="13" lengthAdjust="spacing" textLength="83.7129" x="716" y="419.0669">miniMaxAlgo</text></g><!--link MiniMaxBotPlayer to BotPlayer--><g class="link" data-entity-1="MiniMaxBotPlayer" data-entity-2="BotPlayer" data-source-line="240" data-uid="lnk76" id="link_MiniMaxBotPlayer_BotPlayer"><path codeLine="240" d="M666.51,374.13 C646.15,387.48 617.17,408.3 596,431 C570.71,458.11 557.3054,480.1349 546.2154,500.9449" fill="none" id="MiniMaxBotPlayer-to-BotPlayer" style="stroke:#181818;stroke-width:1;"/><polygon fill="none" points="537.75,516.83,551.5105,503.7667,540.9204,498.1231,537.75,516.83" style="stroke:#181818;stroke-width:1;"/></g><!--link MiniMaxSequential to MiniMaxAlgo--><g class="link" data-entity-1="MiniMaxSequential" data-entity-2="MiniMaxAlgo" data-source-line="241" data-uid="lnk77" id="link_MiniMaxSequential_MiniMaxAlgo"><path codeLine="241" d="M873.56,374.01 C861.02,388.28 842.02,410.54 827,431 C805.4,460.42 792.213,481.3704 780.173,501.4604" fill="none" id="MiniMaxSequential-to-MiniMaxAlgo" style="stroke:#181818;stroke-width:1;"/><polygon fill="none" points="770.92,516.9,785.3196,504.5447,775.0265,498.376,770.92,516.9" style="stroke:#181818;stroke-width:1;"/></g><!--SRC=[nHbBRwCu-Bpy2Wvxc6udIEdkgIkDHDAqYIQlIL9rfJrK3ZZ1BU0iZpuqC_tj-zb0C860dQITIml6t_lznN9H6EgMOpYX6niM2WqlnBQnTEboHKB7627Ywz-rtxvxE7Ae_LFNluSHYeZrKt_psBTFP_gb_aI9hVtKDCrgGBT48JQkiNyR4NSFslCrZk36b8Oa8jJlkDHw3FLF-WO5o9j70V7NRI2PFEcC-h_31_I431VvQoCv_hiQynDoYOqY3EXJy3gqQa9D2RPmGQHpYxeqI1JK1EoYLnnqsNqH0VulHkvMzido0LiHOp9vuamkANKnyaMe5KwjqdK0p8fm0QU3GgTBRPnS8NuaVlH0EG51xfJ2Xx3oIaGprPrjrLNu_hh1SZ8pXItWDjSnzcDF6eAhUKMmomXs1lF-P2eSV1sCRyJNyU2cln0EfkRTM7ZzTjlhYU-poUIhF4kvuOfC3StkL-7zhZzOzEISYQB0DheE3iCEUnJHRZsvDL-OiyLqCXyi1fFn_NLlBDeYlTtYg9WXg6UiIUJ4IsFfi2YXFda838lHSCdIu7H46zfqH9zmRN382o0YJa9xd-l0rpcnyIAbVdZSaF06UNZoXDFegmWI4ex0r-swxy344A-HMwk72b2N0J7eD81uSeeXuHb34aOAJX0JmtGt3W8_XAYqEZImSN3DZ3l3FZpYeD8vpZitzzt9S3Ahy8dyqhNCfIcuSQy_6LxrPlVTlZapkulUZ9i51Ott6x7FUlFUelx6vEv-lfX1GD_p2Afqcu0h0vmWzdokdSnWaBdQIGBJAnrEYAS4Hy_RHAyfYhCQMZFwdD4GFB2jvA-IB06fOgaw2K4b7-HHNF2uZDktXCUCjLl2hxObqWEWJM_hdqjoNHmb5vWR1oi4nLXAjkgOoks1bc74gkXnZbR2SceNKh9edfoh4aaBk0hXICgAh9TB33dbKELWsPi-VwdXbKoUEpW7atRmn4bss6ngApBmEJH_0Iwt5bVcJEmiXhoxaPKVGmjizE0FC0JrR_swNtIenknYZ5WNNbi3RHelNIpbWfm-gxpcCmZ7y5VtDoFpd_lnxQZ3gqsAlzWfl2Dlh0FUidOupHmsYIZU-TI0xVG90dY0FMWdykeKNWVKomQaMfmAsO6BFqE-JRqJ22z3SGrDMfABMBjMI45W1CYgmCMbJeEryU0I7nlPeR587qGTXGwDMKI32mLHnk70tyJH32E8uVgWvQm8jxFaD8aZEBiB2D2-QCOWNj_N7gOCRYTCGOPd1jZpRQQE4QW5hRTDk8YvVG0ZqiDiIHEYMOBaI3HASWGkw-C4e5W1aCs-dCf7ENCGeXQCiFwAh8jEkdIHzTWqDsnu0J7CDD4bzUJueRjsh6wQcPyTiDDXZ4jhhU0HWatVb4FjVEN6eLFfmUURW3L1ZLkLNGZJjwyJfAgGhdy8Z3mzQVtY5mjlM7OC3HQ-vf86C5_sibDG-I6ekAyVWokq0enzeqyzFEUFfRmkXbE32-w6dvYx09FOcwbExwe2SIug969yZF5BbAyGIk7MuawmMpwFwy9tCtbIZQv8oA8scNDIEiNuRQk7l6nTOHhDsZczIRNLbEfwmrp9YLpvJD5MMW-fbe2Kqtxi8R-2pVTaJLMRInh1W9ahyr0Sa829XrwC4VmVeHVJNTD2LRQGQyKkRysk84CufG9KPRiET4g_q7uLSecg-XY37ixh7Be4x4Tafq_cfc2QdQB8EPhRpzljmaMwNIYFp7-gvQeK0VHaZzXcOyPVEuD7TgvBDIErclaT31fHRmnTKK55TFCAzTUqxGNj0oKQl6QQoictzx6L2i2yuK9YjStc9eExpjaUZ1MkzXwXKRdYOmjlv4zM8Z7st5QMJDsfXIPZuFCVnXWoiSV84mmDo9erWPnSWHYGa_bPx8zMIvV_TUTIPpyYdH2p401CiQpVEC7ktJ1-VD4FN39godlN9a7hDfgiN_X05dQ9hrJ9LkmdvSKNePZWmhkcj9Xg85bUfLtgM7XL8zRaJ2LgcieYw-JOXJtHAN6Nvli66rIthM1rjWdu03fySDUKHx06QgKLpAMUR5dKARLQNtIbpG38n1yqzJ6iWLQfEh9I2Y_y_Bt8LIUJb797CZSSoC57AlUeG3WTEIiE0cZ-qjtKXv5j2iDgEFNMOICiB9Gcr7S8-0eghTOFTVLfYcFiEnAfcdFLZKIV_QcAdGwaV4Jvbnc1vGhIFjulTIz_Ev8JIOCNl4GxSgPMe5aXlgOvnCP9snacpydm5Mh_0m00]--></g></svg>