<svg xmlns="http://www.w3.org/2000/svg" xmlns:xlink="http://www.w3.org/1999/xlink" contentStyleType="text/css" data-diagram-type="CLASS" height="916px" preserveAspectRatio="none" style="width:2997px;height:916px;background:#FFFFFF;" version="1.1" viewBox="0 0 2997 916" width="2997px" zoomAndPan="magnify"><defs/><g><!--cluster ch--><g class="cluster" data-entity="ch" data-source-line="2" data-uid="ent0003" id="cluster_ch"><path d="M8.5,6 L27.7656,6 A3.75,3.75 0 0 1 30.2656,8.5 L37.2656,28.2969 L2987.5,28.2969 A2.5,2.5 0 0 1 2990,30.7969 L2990,906.5 A2.5,2.5 0 0 1 2987.5,909 L8.5,909 A2.5,2.5 0 0 1 6,906.5 L6,8.5 A2.5,2.5 0 0 1 8.5,6" fill="none" style="stroke:#000000;stroke-width:1.5;"/><line style="stroke:#000000;stroke-width:1.5;" x1="6" x2="37.2656" y1="28.2969" y2="28.2969"/><text fill="#000000" font-family="sans-serif" font-size="14" font-weight="bold" lengthAdjust="spacing" textLength="18.2656" x="10" y="20.9951">ch</text></g><!--cluster hslu--><g class="cluster" data-entity="hslu" data-source-line="2" data-uid="ent0004" id="cluster_hslu"><path d="M32.5,49 L66.5654,49 A3.75,3.75 0 0 1 69.0654,51.5 L76.0654,71.2969 L2963.5,71.2969 A2.5,2.5 0 0 1 2966,73.7969 L2966,882.5 A2.5,2.5 0 0 1 2963.5,885 L32.5,885 A2.5,2.5 0 0 1 30,882.5 L30,51.5 A2.5,2.5 0 0 1 32.5,49" fill="none" style="stroke:#000000;stroke-width:1.5;"/><line style="stroke:#000000;stroke-width:1.5;" x1="30" x2="76.0654" y1="71.2969" y2="71.2969"/><text fill="#000000" font-family="sans-serif" font-size="14" font-weight="bold" lengthAdjust="spacing" textLength="33.0654" x="34" y="63.9951">hslu</text></g><!--cluster cas--><g class="cluster" data-entity="cas" data-source-line="2" data-uid="ent0005" id="cluster_cas"><path d="M56.5,92 L83.5791,92 A3.75,3.75 0 0 1 86.0791,94.5 L93.0791,114.2969 L2939.5,114.2969 A2.5,2.5 0 0 1 2942,116.7969 L2942,858.5 A2.5,2.5 0 0 1 2939.5,861 L56.5,861 A2.5,2.5 0 0 1 54,858.5 L54,94.5 A2.5,2.5 0 0 1 56.5,92" fill="none" style="stroke:#000000;stroke-width:1.5;"/><line style="stroke:#000000;stroke-width:1.5;" x1="54" x2="93.0791" y1="114.2969" y2="114.2969"/><text fill="#000000" font-family="sans-serif" font-size="14" font-weight="bold" lengthAdjust="spacing" textLength="26.0791" x="58" y="106.9951">cas</text></g><!--cluster msed--><g class="cluster" data-entity="msed" data-source-line="2" data-uid="ent0006" id="cluster_msed"><path d="M80.5,135 L123.9375,135 A3.75,3.75 0 0 1 126.4375,137.5 L133.4375,157.2969 L2915.5,157.2969 A2.5,2.5 0 0 1 2918,159.7969 L2918,834.5 A2.5,2.5 0 0 1 2915.5,837 L80.5,837 A2.5,2.5 0 0 1 78,834.5 L78,137.5 A2.5,2.5 0 0 1 80.5,135" fill="none" style="stroke:#000000;stroke-width:1.5;"/><line style="stroke:#000000;stroke-width:1.5;" x1="78" x2="133.4375" y1="157.2969" y2="157.2969"/><text fill="#000000" font-family="sans-serif" font-size="14" font-weight="bold" lengthAdjust="spacing" textLength="42.4375" x="82" y="149.9951">msed</text></g><!--cluster blobfish--><g class="cluster" data-entity="blobfish" data-source-line="2" data-uid="ent0007" id="cluster_blobfish"><path d="M104.5,178 L169.1494,178 A3.75,3.75 0 0 1 171.6494,180.5 L178.6494,200.2969 L2891.5,200.2969 A2.5,2.5 0 0 1 2894,202.7969 L2894,810.5 A2.5,2.5 0 0 1 2891.5,813 L104.5,813 A2.5,2.5 0 0 1 102,810.5 L102,180.5 A2.5,2.5 0 0 1 104.5,178" fill="none" style="stroke:#000000;stroke-width:1.5;"/><line style="stroke:#000000;stroke-width:1.5;" x1="102" x2="178.6494" y1="200.2969" y2="200.2969"/><text fill="#000000" font-family="sans-serif" font-size="14" font-weight="bold" lengthAdjust="spacing" textLength="63.6494" x="106" y="192.9951">blobfish</text></g><!--cluster base--><g class="cluster" data-entity="base" data-source-line="7" data-uid="ent0009" id="cluster_base"><path d="M306.5,439 L344.7969,439 A3.75,3.75 0 0 1 347.2969,441.5 L354.2969,461.2969 L584.5,461.2969 A2.5,2.5 0 0 1 587,463.7969 L587,651.5 A2.5,2.5 0 0 1 584.5,654 L306.5,654 A2.5,2.5 0 0 1 304,651.5 L304,441.5 A2.5,2.5 0 0 1 306.5,439" fill="none" style="stroke:#000000;stroke-width:1.5;"/><line style="stroke:#000000;stroke-width:1.5;" x1="304" x2="354.2969" y1="461.2969" y2="461.2969"/><text fill="#000000" font-family="sans-serif" font-size="14" font-weight="bold" lengthAdjust="spacing" textLength="37.2969" x="308" y="453.9951">base</text></g><!--cluster board--><g class="cluster" data-entity="board" data-source-line="33" data-uid="ent0013" id="cluster_board"><path d="M2332.5,396 L2379.5127,396 A3.75,3.75 0 0 1 2382.0127,398.5 L2389.0127,418.2969 L2867.5,418.2969 A2.5,2.5 0 0 1 2870,420.7969 L2870,786.5 A2.5,2.5 0 0 1 2867.5,789 L2332.5,789 A2.5,2.5 0 0 1 2330,786.5 L2330,398.5 A2.5,2.5 0 0 1 2332.5,396" fill="none" style="stroke:#000000;stroke-width:1.5;"/><line style="stroke:#000000;stroke-width:1.5;" x1="2330" x2="2389.0127" y1="418.2969" y2="418.2969"/><text fill="#000000" font-family="sans-serif" font-size="14" font-weight="bold" lengthAdjust="spacing" textLength="46.0127" x="2334" y="410.9951">board</text></g><!--cluster ui--><g class="cluster" data-entity="ui" data-source-line="46" data-uid="ent0015" id="cluster_ui"><path d="M2483.5,439 L2499.2656,439 A3.75,3.75 0 0 1 2501.7656,441.5 L2508.7656,461.2969 L2843.5,461.2969 A2.5,2.5 0 0 1 2846,463.7969 L2846,762.5 A2.5,2.5 0 0 1 2843.5,765 L2483.5,765 A2.5,2.5 0 0 1 2481,762.5 L2481,441.5 A2.5,2.5 0 0 1 2483.5,439" fill="none" style="stroke:#000000;stroke-width:1.5;"/><line style="stroke:#000000;stroke-width:1.5;" x1="2481" x2="2508.7656" y1="461.2969" y2="461.2969"/><text fill="#000000" font-family="sans-serif" font-size="14" font-weight="bold" lengthAdjust="spacing" textLength="14.7656" x="2485" y="453.9951">ui</text></g><!--cluster eval--><g class="cluster" data-entity="eval" data-source-line="68" data-uid="ent0020" id="cluster_eval"><path d="M128.5,571 L162.3672,571 A3.75,3.75 0 0 1 164.8672,573.5 L171.8672,593.2969 L277.5,593.2969 A2.5,2.5 0 0 1 280,595.7969 L280,651.5 A2.5,2.5 0 0 1 277.5,654 L128.5,654 A2.5,2.5 0 0 1 126,651.5 L126,573.5 A2.5,2.5 0 0 1 128.5,571" fill="none" style="stroke:#000000;stroke-width:1.5;"/><line style="stroke:#000000;stroke-width:1.5;" x1="126" x2="171.8672" y1="593.2969" y2="593.2969"/><text fill="#000000" font-family="sans-serif" font-size="14" font-weight="bold" lengthAdjust="spacing" textLength="32.8672" x="130" y="585.9951">eval</text></g><!--cluster game--><g class="cluster" data-entity="game" data-source-line="73" data-uid="ent0022" id="cluster_game"><path d="M1174.5,221 L1219.0518,221 A3.75,3.75 0 0 1 1221.5518,223.5 L1228.5518,243.2969 L2303.5,243.2969 A2.5,2.5 0 0 1 2306,245.7969 L2306,519.5 A2.5,2.5 0 0 1 2303.5,522 L1174.5,522 A2.5,2.5 0 0 1 1172,519.5 L1172,223.5 A2.5,2.5 0 0 1 1174.5,221" fill="none" style="stroke:#000000;stroke-width:1.5;"/><line style="stroke:#000000;stroke-width:1.5;" x1="1172" x2="1228.5518" y1="243.2969" y2="243.2969"/><text fill="#000000" font-family="sans-serif" font-size="14" font-weight="bold" lengthAdjust="spacing" textLength="43.5518" x="1176" y="235.9951">game</text></g><!--cluster exceptions--><g class="cluster" data-entity="exceptions" data-source-line="106" data-uid="ent0027" id="cluster_exceptions"><path d="M1817.5,264 L1904.25,264 A3.75,3.75 0 0 1 1906.75,266.5 L1913.75,286.2969 L2279.5,286.2969 A2.5,2.5 0 0 1 2282,288.7969 L2282,344.5 A2.5,2.5 0 0 1 2279.5,347 L1817.5,347 A2.5,2.5 0 0 1 1815,344.5 L1815,266.5 A2.5,2.5 0 0 1 1817.5,264" fill="none" style="stroke:#000000;stroke-width:1.5;"/><line style="stroke:#000000;stroke-width:1.5;" x1="1815" x2="1913.75" y1="286.2969" y2="286.2969"/><text fill="#000000" font-family="sans-serif" font-size="14" font-weight="bold" lengthAdjust="spacing" textLength="85.75" x="1819" y="278.9951">exceptions</text></g><!--cluster screen--><g class="cluster" data-entity="screen" data-source-line="114" data-uid="ent0030" id="cluster_screen"><path d="M1480.5,264 L1533.9932,264 A3.75,3.75 0 0 1 1536.4932,266.5 L1543.4932,286.2969 L1788.5,286.2969 A2.5,2.5 0 0 1 1791,288.7969 L1791,344.5 A2.5,2.5 0 0 1 1788.5,347 L1480.5,347 A2.5,2.5 0 0 1 1478,344.5 L1478,266.5 A2.5,2.5 0 0 1 1480.5,264" fill="none" style="stroke:#000000;stroke-width:1.5;"/><line style="stroke:#000000;stroke-width:1.5;" x1="1478" x2="1543.4932" y1="286.2969" y2="286.2969"/><text fill="#000000" font-family="sans-serif" font-size="14" font-weight="bold" lengthAdjust="spacing" textLength="52.4932" x="1482" y="278.9951">screen</text></g><!--cluster player--><g class="cluster" data-entity="player" data-source-line="128" data-uid="ent0033" id="cluster_player"><path d="M613.5,221 L664.293,221 A3.75,3.75 0 0 1 666.793,223.5 L673.793,243.2969 L1145.5,243.2969 A2.5,2.5 0 0 1 1148,245.7969 L1148,519.5 A2.5,2.5 0 0 1 1145.5,522 L613.5,522 A2.5,2.5 0 0 1 611,519.5 L611,223.5 A2.5,2.5 0 0 1 613.5,221" fill="none" style="stroke:#000000;stroke-width:1.5;"/><line style="stroke:#000000;stroke-width:1.5;" x1="611" x2="673.793" y1="243.2969" y2="243.2969"/><text fill="#000000" font-family="sans-serif" font-size="14" font-weight="bold" lengthAdjust="spacing" textLength="49.793" x="615" y="235.9951">player</text></g><!--cluster exceptions--><g class="cluster" data-entity="exceptions" data-source-line="143" data-uid="ent0037" id="cluster_exceptions"><path d="M910.5,264 L997.25,264 A3.75,3.75 0 0 1 999.75,266.5 L1006.75,286.2969 L1121.5,286.2969 A2.5,2.5 0 0 1 1124,288.7969 L1124,344.5 A2.5,2.5 0 0 1 1121.5,347 L910.5,347 A2.5,2.5 0 0 1 908,344.5 L908,266.5 A2.5,2.5 0 0 1 910.5,264" fill="none" style="stroke:#000000;stroke-width:1.5;"/><line style="stroke:#000000;stroke-width:1.5;" x1="908" x2="1006.75" y1="286.2969" y2="286.2969"/><text fill="#000000" font-family="sans-serif" font-size="14" font-weight="bold" lengthAdjust="spacing" textLength="85.75" x="912" y="278.9951">exceptions</text></g><!--cluster searchtree--><g class="cluster" data-entity="searchtree" data-source-line="148" data-uid="ent0039" id="cluster_searchtree"><path d="M144.5,439 L230.5322,439 A3.75,3.75 0 0 1 233.0322,441.5 L240.0322,461.2969 L261.5,461.2969 A2.5,2.5 0 0 1 264,463.7969 L264,519.5 A2.5,2.5 0 0 1 261.5,522 L144.5,522 A2.5,2.5 0 0 1 142,519.5 L142,441.5 A2.5,2.5 0 0 1 144.5,439" fill="none" style="stroke:#000000;stroke-width:1.5;"/><line style="stroke:#000000;stroke-width:1.5;" x1="142" x2="240.0322" y1="461.2969" y2="461.2969"/><text fill="#000000" font-family="sans-serif" font-size="14" font-weight="bold" lengthAdjust="spacing" textLength="85.0322" x="146" y="453.9951">searchtree</text></g><!--class Main--><g class="entity" data-entity="Main" data-source-line="2" data-uid="ent0002" id="entity_Main"><rect fill="#F1F1F1" height="32" rx="2.5" ry="2.5" style="stroke:#181818;stroke-width:0.5;" width="65.4209" x="322.5" y="299"/><ellipse cx="337.5" cy="315" fill="#ADD1B2" rx="11" ry="11" style="stroke:#181818;stroke-width:1;"/><path d="M340.4688,320.6406 Q339.8906,320.9375 339.25,321.0781 Q338.6094,321.2344 337.9063,321.2344 Q335.4063,321.2344 334.0781,319.5938 Q332.7656,317.9375 332.7656,314.8125 Q332.7656,311.6875 334.0781,310.0313 Q335.4063,308.375 337.9063,308.375 Q338.6094,308.375 339.25,308.5313 Q339.9063,308.6875 340.4688,308.9844 L340.4688,311.7031 Q339.8438,311.125 339.25,310.8594 Q338.6563,310.5781 338.0313,310.5781 Q336.6875,310.5781 336,311.6563 Q335.3125,312.7188 335.3125,314.8125 Q335.3125,316.9063 336,317.9844 Q336.6875,319.0469 338.0313,319.0469 Q338.6563,319.0469 339.25,318.7813 Q339.8438,318.5 340.4688,317.9219 L340.4688,320.6406 Z " fill="#000000"/><text fill="#000000" font-family="sans-serif" font-size="14" lengthAdjust="spacing" textLength="33.4209" x="351.5" y="319.8467">Main</text></g><!--class Piece--><g class="entity" data-entity="Piece" data-source-line="7" data-uid="ent0008" id="entity_Piece"><rect fill="#F1F1F1" height="32" rx="2.5" ry="2.5" style="stroke:#181818;stroke-width:0.5;" width="69.2559" x="455.5" y="474"/><ellipse cx="470.5" cy="490" fill="#ADD1B2" rx="11" ry="11" style="stroke:#181818;stroke-width:1;"/><path d="M473.4688,495.6406 Q472.8906,495.9375 472.25,496.0781 Q471.6094,496.2344 470.9063,496.2344 Q468.4063,496.2344 467.0781,494.5938 Q465.7656,492.9375 465.7656,489.8125 Q465.7656,486.6875 467.0781,485.0313 Q468.4063,483.375 470.9063,483.375 Q471.6094,483.375 472.25,483.5313 Q472.9063,483.6875 473.4688,483.9844 L473.4688,486.7031 Q472.8438,486.125 472.25,485.8594 Q471.6563,485.5781 471.0313,485.5781 Q469.6875,485.5781 469,486.6563 Q468.3125,487.7188 468.3125,489.8125 Q468.3125,491.9063 469,492.9844 Q469.6875,494.0469 471.0313,494.0469 Q471.6563,494.0469 472.25,493.7813 Q472.8438,493.5 473.4688,492.9219 L473.4688,495.6406 Z " fill="#000000"/><text fill="#000000" font-family="sans-serif" font-size="14" lengthAdjust="spacing" textLength="37.2559" x="484.5" y="494.8467">Piece</text></g><!--class PieceType--><g class="entity" data-entity="PieceType" data-source-line="17" data-uid="ent0010" id="entity_PieceType"><rect fill="#F1F1F1" height="32" rx="2.5" ry="2.5" style="stroke:#181818;stroke-width:0.5;" width="103.5928" x="320" y="606"/><ellipse cx="335" cy="622" fill="#EB937F" rx="11" ry="11" style="stroke:#181818;stroke-width:1;"/><path d="M339.1094,628 L331.3906,628 L331.3906,615.6094 L339.1094,615.6094 L339.1094,617.7656 L333.8438,617.7656 L333.8438,620.4375 L338.6094,620.4375 L338.6094,622.5938 L333.8438,622.5938 L333.8438,625.8438 L339.1094,625.8438 L339.1094,628 Z " fill="#000000"/><text fill="#000000" font-family="sans-serif" font-size="14" lengthAdjust="spacing" textLength="71.5928" x="349" y="626.8467">PieceType</text></g><!--class PlayerColor--><g class="entity" data-entity="PlayerColor" data-source-line="27" data-uid="ent0011" id="entity_PlayerColor"><rect fill="#F1F1F1" height="32" rx="2.5" ry="2.5" style="stroke:#181818;stroke-width:0.5;" width="112.1172" x="459" y="606"/><ellipse cx="474" cy="622" fill="#EB937F" rx="11" ry="11" style="stroke:#181818;stroke-width:1;"/><path d="M478.1094,628 L470.3906,628 L470.3906,615.6094 L478.1094,615.6094 L478.1094,617.7656 L472.8438,617.7656 L472.8438,620.4375 L477.6094,620.4375 L477.6094,622.5938 L472.8438,622.5938 L472.8438,625.8438 L478.1094,625.8438 L478.1094,628 Z " fill="#000000"/><text fill="#000000" font-family="sans-serif" font-size="14" lengthAdjust="spacing" textLength="80.1172" x="488" y="626.8467">PlayerColor</text></g><!--class ChessBoard--><g class="entity" data-entity="ChessBoard" data-source-line="33" data-uid="ent0012" id="entity_ChessBoard"><rect fill="#F1F1F1" height="32" rx="2.5" ry="2.5" style="stroke:#181818;stroke-width:0.5;" width="115.2412" x="2346.5" y="474"/><ellipse cx="2361.5" cy="490" fill="#ADD1B2" rx="11" ry="11" style="stroke:#181818;stroke-width:1;"/><path d="M2364.4688,495.6406 Q2363.8906,495.9375 2363.25,496.0781 Q2362.6094,496.2344 2361.9063,496.2344 Q2359.4063,496.2344 2358.0781,494.5938 Q2356.7656,492.9375 2356.7656,489.8125 Q2356.7656,486.6875 2358.0781,485.0313 Q2359.4063,483.375 2361.9063,483.375 Q2362.6094,483.375 2363.25,483.5313 Q2363.9063,483.6875 2364.4688,483.9844 L2364.4688,486.7031 Q2363.8438,486.125 2363.25,485.8594 Q2362.6563,485.5781 2362.0313,485.5781 Q2360.6875,485.5781 2360,486.6563 Q2359.3125,487.7188 2359.3125,489.8125 Q2359.3125,491.9063 2360,492.9844 Q2360.6875,494.0469 2362.0313,494.0469 Q2362.6563,494.0469 2363.25,493.7813 Q2363.8438,493.5 2364.4688,492.9219 L2364.4688,495.6406 Z " fill="#000000"/><text fill="#000000" font-family="sans-serif" font-size="14" lengthAdjust="spacing" textLength="83.2412" x="2375.5" y="494.8467">ChessBoard</text></g><!--class BoardRenderer--><g class="entity" data-entity="BoardRenderer" data-source-line="46" data-uid="ent0014" id="entity_BoardRenderer"><rect fill="#F1F1F1" height="32" rx="2.5" ry="2.5" style="stroke:#181818;stroke-width:0.5;" width="138.2305" x="2662" y="606"/><ellipse cx="2677" cy="622" fill="#ADD1B2" rx="11" ry="11" style="stroke:#181818;stroke-width:1;"/><path d="M2679.9688,627.6406 Q2679.3906,627.9375 2678.75,628.0781 Q2678.1094,628.2344 2677.4063,628.2344 Q2674.9063,628.2344 2673.5781,626.5938 Q2672.2656,624.9375 2672.2656,621.8125 Q2672.2656,618.6875 2673.5781,617.0313 Q2674.9063,615.375 2677.4063,615.375 Q2678.1094,615.375 2678.75,615.5313 Q2679.4063,615.6875 2679.9688,615.9844 L2679.9688,618.7031 Q2679.3438,618.125 2678.75,617.8594 Q2678.1563,617.5781 2677.5313,617.5781 Q2676.1875,617.5781 2675.5,618.6563 Q2674.8125,619.7188 2674.8125,621.8125 Q2674.8125,623.9063 2675.5,624.9844 Q2676.1875,626.0469 2677.5313,626.0469 Q2678.1563,626.0469 2678.75,625.7813 Q2679.3438,625.5 2679.9688,624.9219 L2679.9688,627.6406 Z " fill="#000000"/><text fill="#000000" font-family="sans-serif" font-size="14" lengthAdjust="spacing" textLength="106.2305" x="2691" y="626.8467">BoardRenderer</text></g><!--class ChessBoardRenderer--><g class="entity" data-entity="ChessBoardRenderer" data-source-line="51" data-uid="ent0016" id="entity_ChessBoardRenderer"><rect fill="#F1F1F1" height="32" rx="2.5" ry="2.5" style="stroke:#181818;stroke-width:0.5;" width="180.0801" x="2650" y="474"/><ellipse cx="2665" cy="490" fill="#ADD1B2" rx="11" ry="11" style="stroke:#181818;stroke-width:1;"/><path d="M2667.9688,495.6406 Q2667.3906,495.9375 2666.75,496.0781 Q2666.1094,496.2344 2665.4063,496.2344 Q2662.9063,496.2344 2661.5781,494.5938 Q2660.2656,492.9375 2660.2656,489.8125 Q2660.2656,486.6875 2661.5781,485.0313 Q2662.9063,483.375 2665.4063,483.375 Q2666.1094,483.375 2666.75,483.5313 Q2667.4063,483.6875 2667.9688,483.9844 L2667.9688,486.7031 Q2667.3438,486.125 2666.75,485.8594 Q2666.1563,485.5781 2665.5313,485.5781 Q2664.1875,485.5781 2663.5,486.6563 Q2662.8125,487.7188 2662.8125,489.8125 Q2662.8125,491.9063 2663.5,492.9844 Q2664.1875,494.0469 2665.5313,494.0469 Q2666.1563,494.0469 2666.75,493.7813 Q2667.3438,493.5 2667.9688,492.9219 L2667.9688,495.6406 Z " fill="#000000"/><text fill="#000000" font-family="sans-serif" font-size="14" lengthAdjust="spacing" textLength="148.0801" x="2679" y="494.8467">ChessBoardRenderer</text></g><!--class FieldRenderer--><g class="entity" data-entity="FieldRenderer" data-source-line="57" data-uid="ent0017" id="entity_FieldRenderer"><rect fill="#F1F1F1" height="32" rx="2.5" ry="2.5" style="stroke:#181818;stroke-width:0.5;" width="130.1709" x="2666" y="717"/><ellipse cx="2681" cy="733" fill="#B4A7E5" rx="11" ry="11" style="stroke:#181818;stroke-width:1;"/><path d="M2676.9219,728.7656 L2676.9219,726.6094 L2684.3125,726.6094 L2684.3125,728.7656 L2681.8438,728.7656 L2681.8438,736.8438 L2684.3125,736.8438 L2684.3125,739 L2676.9219,739 L2676.9219,736.8438 L2679.3906,736.8438 L2679.3906,728.7656 L2676.9219,728.7656 Z " fill="#000000"/><text fill="#000000" font-family="sans-serif" font-size="14" font-style="italic" lengthAdjust="spacing" textLength="98.1709" x="2695" y="737.8467">FieldRenderer</text></g><!--class SquareColor--><g class="entity" data-entity="SquareColor" data-source-line="62" data-uid="ent0018" id="entity_SquareColor"><rect fill="#F1F1F1" height="32" rx="2.5" ry="2.5" style="stroke:#181818;stroke-width:0.5;" width="118.1465" x="2497" y="474"/><ellipse cx="2512" cy="490" fill="#EB937F" rx="11" ry="11" style="stroke:#181818;stroke-width:1;"/><path d="M2516.1094,496 L2508.3906,496 L2508.3906,483.6094 L2516.1094,483.6094 L2516.1094,485.7656 L2510.8438,485.7656 L2510.8438,488.4375 L2515.6094,488.4375 L2515.6094,490.5938 L2510.8438,490.5938 L2510.8438,493.8438 L2516.1094,493.8438 L2516.1094,496 Z " fill="#000000"/><text fill="#000000" font-family="sans-serif" font-size="14" lengthAdjust="spacing" textLength="86.1465" x="2526" y="494.8467">SquareColor</text></g><!--class EvalStrategy--><g class="entity" data-entity="EvalStrategy" data-source-line="68" data-uid="ent0019" id="entity_EvalStrategy"><rect fill="#F1F1F1" height="32" rx="2.5" ry="2.5" style="stroke:#181818;stroke-width:0.5;" width="121.585" x="142" y="606"/><ellipse cx="157" cy="622" fill="#B4A7E5" rx="11" ry="11" style="stroke:#181818;stroke-width:1;"/><path d="M152.9219,617.7656 L152.9219,615.6094 L160.3125,615.6094 L160.3125,617.7656 L157.8438,617.7656 L157.8438,625.8438 L160.3125,625.8438 L160.3125,628 L152.9219,628 L152.9219,625.8438 L155.3906,625.8438 L155.3906,617.7656 L152.9219,617.7656 Z " fill="#000000"/><text fill="#000000" font-family="sans-serif" font-size="14" font-style="italic" lengthAdjust="spacing" textLength="89.585" x="171" y="626.8467">EvalStrategy</text></g><!--class ChessGame--><g class="entity" data-entity="ChessGame" data-source-line="73" data-uid="ent0021" id="entity_ChessGame"><rect fill="#F1F1F1" height="32" rx="2.5" ry="2.5" style="stroke:#181818;stroke-width:0.5;" width="115.5283" x="1343" y="299"/><ellipse cx="1358" cy="315" fill="#ADD1B2" rx="11" ry="11" style="stroke:#181818;stroke-width:1;"/><path d="M1360.9688,320.6406 Q1360.3906,320.9375 1359.75,321.0781 Q1359.1094,321.2344 1358.4063,321.2344 Q1355.9063,321.2344 1354.5781,319.5938 Q1353.2656,317.9375 1353.2656,314.8125 Q1353.2656,311.6875 1354.5781,310.0313 Q1355.9063,308.375 1358.4063,308.375 Q1359.1094,308.375 1359.75,308.5313 Q1360.4063,308.6875 1360.9688,308.9844 L1360.9688,311.7031 Q1360.3438,311.125 1359.75,310.8594 Q1359.1563,310.5781 1358.5313,310.5781 Q1357.1875,310.5781 1356.5,311.6563 Q1355.8125,312.7188 1355.8125,314.8125 Q1355.8125,316.9063 1356.5,317.9844 Q1357.1875,319.0469 1358.5313,319.0469 Q1359.1563,319.0469 1359.75,318.7813 Q1360.3438,318.5 1360.9688,317.9219 L1360.9688,320.6406 Z " fill="#000000"/><text fill="#000000" font-family="sans-serif" font-size="14" lengthAdjust="spacing" textLength="83.5283" x="1372" y="319.8467">ChessGame</text></g><!--class InputReader--><g class="entity" data-entity="InputReader" data-source-line="81" data-uid="ent0023" id="entity_InputReader"><rect fill="#F1F1F1" height="32" rx="2.5" ry="2.5" style="stroke:#181818;stroke-width:0.5;" width="118.4268" x="1268" y="474"/><ellipse cx="1283" cy="490" fill="#ADD1B2" rx="11" ry="11" style="stroke:#181818;stroke-width:1;"/><path d="M1285.9688,495.6406 Q1285.3906,495.9375 1284.75,496.0781 Q1284.1094,496.2344 1283.4063,496.2344 Q1280.9063,496.2344 1279.5781,494.5938 Q1278.2656,492.9375 1278.2656,489.8125 Q1278.2656,486.6875 1279.5781,485.0313 Q1280.9063,483.375 1283.4063,483.375 Q1284.1094,483.375 1284.75,483.5313 Q1285.4063,483.6875 1285.9688,483.9844 L1285.9688,486.7031 Q1285.3438,486.125 1284.75,485.8594 Q1284.1563,485.5781 1283.5313,485.5781 Q1282.1875,485.5781 1281.5,486.6563 Q1280.8125,487.7188 1280.8125,489.8125 Q1280.8125,491.9063 1281.5,492.9844 Q1282.1875,494.0469 1283.5313,494.0469 Q1284.1563,494.0469 1284.75,493.7813 Q1285.3438,493.5 1285.9688,492.9219 L1285.9688,495.6406 Z " fill="#000000"/><text fill="#000000" font-family="sans-serif" font-size="14" lengthAdjust="spacing" textLength="86.4268" x="1297" y="494.8467">InputReader</text></g><!--class MatchConfig--><g class="entity" data-entity="MatchConfig" data-source-line="87" data-uid="ent0024" id="entity_MatchConfig"><rect fill="#F1F1F1" height="32" rx="2.5" ry="2.5" style="stroke:#181818;stroke-width:0.5;" width="119.6367" x="1188" y="299"/><ellipse cx="1203" cy="315" fill="#ADD1B2" rx="11" ry="11" style="stroke:#181818;stroke-width:1;"/><path d="M1205.9688,320.6406 Q1205.3906,320.9375 1204.75,321.0781 Q1204.1094,321.2344 1203.4063,321.2344 Q1200.9063,321.2344 1199.5781,319.5938 Q1198.2656,317.9375 1198.2656,314.8125 Q1198.2656,311.6875 1199.5781,310.0313 Q1200.9063,308.375 1203.4063,308.375 Q1204.1094,308.375 1204.75,308.5313 Q1205.4063,308.6875 1205.9688,308.9844 L1205.9688,311.7031 Q1205.3438,311.125 1204.75,310.8594 Q1204.1563,310.5781 1203.5313,310.5781 Q1202.1875,310.5781 1201.5,311.6563 Q1200.8125,312.7188 1200.8125,314.8125 Q1200.8125,316.9063 1201.5,317.9844 Q1202.1875,319.0469 1203.5313,319.0469 Q1204.1563,319.0469 1204.75,318.7813 Q1205.3438,318.5 1205.9688,317.9219 L1205.9688,320.6406 Z " fill="#000000"/><text fill="#000000" font-family="sans-serif" font-size="14" lengthAdjust="spacing" textLength="87.6367" x="1217" y="319.8467">MatchConfig</text></g><!--class OutputWriter--><g class="entity" data-entity="OutputWriter" data-source-line="96" data-uid="ent0025" id="entity_OutputWriter"><rect fill="#F1F1F1" height="32" rx="2.5" ry="2.5" style="stroke:#181818;stroke-width:0.5;" width="123.9775" x="1576" y="474"/><ellipse cx="1591" cy="490" fill="#ADD1B2" rx="11" ry="11" style="stroke:#181818;stroke-width:1;"/><path d="M1593.9688,495.6406 Q1593.3906,495.9375 1592.75,496.0781 Q1592.1094,496.2344 1591.4063,496.2344 Q1588.9063,496.2344 1587.5781,494.5938 Q1586.2656,492.9375 1586.2656,489.8125 Q1586.2656,486.6875 1587.5781,485.0313 Q1588.9063,483.375 1591.4063,483.375 Q1592.1094,483.375 1592.75,483.5313 Q1593.4063,483.6875 1593.9688,483.9844 L1593.9688,486.7031 Q1593.3438,486.125 1592.75,485.8594 Q1592.1563,485.5781 1591.5313,485.5781 Q1590.1875,485.5781 1589.5,486.6563 Q1588.8125,487.7188 1588.8125,489.8125 Q1588.8125,491.9063 1589.5,492.9844 Q1590.1875,494.0469 1591.5313,494.0469 Q1592.1563,494.0469 1592.75,493.7813 Q1593.3438,493.5 1593.9688,492.9219 L1593.9688,495.6406 Z " fill="#000000"/><text fill="#000000" font-family="sans-serif" font-size="14" lengthAdjust="spacing" textLength="91.9775" x="1605" y="494.8467">OutputWriter</text></g><!--class GameAbortedException--><g class="entity" data-entity="GameAbortedException" data-source-line="106" data-uid="ent0026" id="entity_GameAbortedException"><rect fill="#F1F1F1" height="32" rx="2.5" ry="2.5" style="stroke:#181818;stroke-width:0.5;" width="198.5986" x="2066.5" y="299"/><ellipse cx="2081.5" cy="315" fill="#ADD1B2" rx="11" ry="11" style="stroke:#181818;stroke-width:1;"/><path d="M2084.4688,320.6406 Q2083.8906,320.9375 2083.25,321.0781 Q2082.6094,321.2344 2081.9063,321.2344 Q2079.4063,321.2344 2078.0781,319.5938 Q2076.7656,317.9375 2076.7656,314.8125 Q2076.7656,311.6875 2078.0781,310.0313 Q2079.4063,308.375 2081.9063,308.375 Q2082.6094,308.375 2083.25,308.5313 Q2083.9063,308.6875 2084.4688,308.9844 L2084.4688,311.7031 Q2083.8438,311.125 2083.25,310.8594 Q2082.6563,310.5781 2082.0313,310.5781 Q2080.6875,310.5781 2080,311.6563 Q2079.3125,312.7188 2079.3125,314.8125 Q2079.3125,316.9063 2080,317.9844 Q2080.6875,319.0469 2082.0313,319.0469 Q2082.6563,319.0469 2083.25,318.7813 Q2083.8438,318.5 2084.4688,317.9219 L2084.4688,320.6406 Z " fill="#000000"/><text fill="#000000" font-family="sans-serif" font-size="14" lengthAdjust="spacing" textLength="166.5986" x="2095.5" y="319.8467">GameAbortedException</text></g><!--class MatchAbortedException--><g class="entity" data-entity="MatchAbortedException" data-source-line="110" data-uid="ent0028" id="entity_MatchAbortedException"><rect fill="#F1F1F1" height="32" rx="2.5" ry="2.5" style="stroke:#181818;stroke-width:0.5;" width="199.6377" x="1831" y="299"/><ellipse cx="1846" cy="315" fill="#ADD1B2" rx="11" ry="11" style="stroke:#181818;stroke-width:1;"/><path d="M1848.9688,320.6406 Q1848.3906,320.9375 1847.75,321.0781 Q1847.1094,321.2344 1846.4063,321.2344 Q1843.9063,321.2344 1842.5781,319.5938 Q1841.2656,317.9375 1841.2656,314.8125 Q1841.2656,311.6875 1842.5781,310.0313 Q1843.9063,308.375 1846.4063,308.375 Q1847.1094,308.375 1847.75,308.5313 Q1848.4063,308.6875 1848.9688,308.9844 L1848.9688,311.7031 Q1848.3438,311.125 1847.75,310.8594 Q1847.1563,310.5781 1846.5313,310.5781 Q1845.1875,310.5781 1844.5,311.6563 Q1843.8125,312.7188 1843.8125,314.8125 Q1843.8125,316.9063 1844.5,317.9844 Q1845.1875,319.0469 1846.5313,319.0469 Q1847.1563,319.0469 1847.75,318.7813 Q1848.3438,318.5 1848.9688,317.9219 L1848.9688,320.6406 Z " fill="#000000"/><text fill="#000000" font-family="sans-serif" font-size="14" lengthAdjust="spacing" textLength="167.6377" x="1860" y="319.8467">MatchAbortedException</text></g><!--class HomeScreen--><g class="entity" data-entity="HomeScreen" data-source-line="114" data-uid="ent0029" id="entity_HomeScreen"><rect fill="#F1F1F1" height="32" rx="2.5" ry="2.5" style="stroke:#181818;stroke-width:0.5;" width="121.7832" x="1653" y="299"/><ellipse cx="1668" cy="315" fill="#ADD1B2" rx="11" ry="11" style="stroke:#181818;stroke-width:1;"/><path d="M1670.9688,320.6406 Q1670.3906,320.9375 1669.75,321.0781 Q1669.1094,321.2344 1668.4063,321.2344 Q1665.9063,321.2344 1664.5781,319.5938 Q1663.2656,317.9375 1663.2656,314.8125 Q1663.2656,311.6875 1664.5781,310.0313 Q1665.9063,308.375 1668.4063,308.375 Q1669.1094,308.375 1669.75,308.5313 Q1670.4063,308.6875 1670.9688,308.9844 L1670.9688,311.7031 Q1670.3438,311.125 1669.75,310.8594 Q1669.1563,310.5781 1668.5313,310.5781 Q1667.1875,310.5781 1666.5,311.6563 Q1665.8125,312.7188 1665.8125,314.8125 Q1665.8125,316.9063 1666.5,317.9844 Q1667.1875,319.0469 1668.5313,319.0469 Q1669.1563,319.0469 1669.75,318.7813 Q1670.3438,318.5 1670.9688,317.9219 L1670.9688,320.6406 Z " fill="#000000"/><text fill="#000000" font-family="sans-serif" font-size="14" lengthAdjust="spacing" textLength="89.7832" x="1682" y="319.8467">HomeScreen</text></g><!--class MatchScreen--><g class="entity" data-entity="MatchScreen" data-source-line="120" data-uid="ent0031" id="entity_MatchScreen"><rect fill="#F1F1F1" height="32" rx="2.5" ry="2.5" style="stroke:#181818;stroke-width:0.5;" width="123.1572" x="1494.5" y="299"/><ellipse cx="1509.5" cy="315" fill="#ADD1B2" rx="11" ry="11" style="stroke:#181818;stroke-width:1;"/><path d="M1512.4688,320.6406 Q1511.8906,320.9375 1511.25,321.0781 Q1510.6094,321.2344 1509.9063,321.2344 Q1507.4063,321.2344 1506.0781,319.5938 Q1504.7656,317.9375 1504.7656,314.8125 Q1504.7656,311.6875 1506.0781,310.0313 Q1507.4063,308.375 1509.9063,308.375 Q1510.6094,308.375 1511.25,308.5313 Q1511.9063,308.6875 1512.4688,308.9844 L1512.4688,311.7031 Q1511.8438,311.125 1511.25,310.8594 Q1510.6563,310.5781 1510.0313,310.5781 Q1508.6875,310.5781 1508,311.6563 Q1507.3125,312.7188 1507.3125,314.8125 Q1507.3125,316.9063 1508,317.9844 Q1508.6875,319.0469 1510.0313,319.0469 Q1510.6563,319.0469 1511.25,318.7813 Q1511.8438,318.5 1512.4688,317.9219 L1512.4688,320.6406 Z " fill="#000000"/><text fill="#000000" font-family="sans-serif" font-size="14" lengthAdjust="spacing" textLength="91.1572" x="1523.5" y="319.8467">MatchScreen</text></g><!--class AbstractPlayer--><g class="entity" data-entity="AbstractPlayer" data-source-line="128" data-uid="ent0032" id="entity_AbstractPlayer"><rect fill="#F1F1F1" height="32" rx="2.5" ry="2.5" style="stroke:#181818;stroke-width:0.5;" width="134.334" x="998" y="474"/><ellipse cx="1013" cy="490" fill="#A9DCDF" rx="11" ry="11" style="stroke:#181818;stroke-width:1;"/><path d="M1013.1094,485.3438 L1011.9531,490.4219 L1014.2813,490.4219 L1013.1094,485.3438 Z M1011.625,483.1094 L1014.6094,483.1094 L1017.9688,495.5 L1015.5156,495.5 L1014.75,492.4375 L1011.4688,492.4375 L1010.7188,495.5 L1008.2813,495.5 L1011.625,483.1094 Z " fill="#000000"/><text fill="#000000" font-family="sans-serif" font-size="14" font-style="italic" lengthAdjust="spacing" textLength="102.334" x="1027" y="494.8467">AbstractPlayer</text></g><!--class BotPlayer--><g class="entity" data-entity="BotPlayer" data-source-line="133" data-uid="ent0034" id="entity_BotPlayer"><rect fill="#F1F1F1" height="32" rx="2.5" ry="2.5" style="stroke:#181818;stroke-width:0.5;" width="99.2246" x="627.5" y="299"/><ellipse cx="642.5" cy="315" fill="#ADD1B2" rx="11" ry="11" style="stroke:#181818;stroke-width:1;"/><path d="M645.4688,320.6406 Q644.8906,320.9375 644.25,321.0781 Q643.6094,321.2344 642.9063,321.2344 Q640.4063,321.2344 639.0781,319.5938 Q637.7656,317.9375 637.7656,314.8125 Q637.7656,311.6875 639.0781,310.0313 Q640.4063,308.375 642.9063,308.375 Q643.6094,308.375 644.25,308.5313 Q644.9063,308.6875 645.4688,308.9844 L645.4688,311.7031 Q644.8438,311.125 644.25,310.8594 Q643.6563,310.5781 643.0313,310.5781 Q641.6875,310.5781 641,311.6563 Q640.3125,312.7188 640.3125,314.8125 Q640.3125,316.9063 641,317.9844 Q641.6875,319.0469 643.0313,319.0469 Q643.6563,319.0469 644.25,318.7813 Q644.8438,318.5 645.4688,317.9219 L645.4688,320.6406 Z " fill="#000000"/><text fill="#000000" font-family="sans-serif" font-size="14" lengthAdjust="spacing" textLength="67.2246" x="656.5" y="319.8467">BotPlayer</text></g><!--class HumanPlayer--><g class="entity" data-entity="HumanPlayer" data-source-line="138" data-uid="ent0035" id="entity_HumanPlayer"><rect fill="#F1F1F1" height="32" rx="2.5" ry="2.5" style="stroke:#181818;stroke-width:0.5;" width="126.0557" x="762" y="299"/><ellipse cx="777" cy="315" fill="#ADD1B2" rx="11" ry="11" style="stroke:#181818;stroke-width:1;"/><path d="M779.9688,320.6406 Q779.3906,320.9375 778.75,321.0781 Q778.1094,321.2344 777.4063,321.2344 Q774.9063,321.2344 773.5781,319.5938 Q772.2656,317.9375 772.2656,314.8125 Q772.2656,311.6875 773.5781,310.0313 Q774.9063,308.375 777.4063,308.375 Q778.1094,308.375 778.75,308.5313 Q779.4063,308.6875 779.9688,308.9844 L779.9688,311.7031 Q779.3438,311.125 778.75,310.8594 Q778.1563,310.5781 777.5313,310.5781 Q776.1875,310.5781 775.5,311.6563 Q774.8125,312.7188 774.8125,314.8125 Q774.8125,316.9063 775.5,317.9844 Q776.1875,319.0469 777.5313,319.0469 Q778.1563,319.0469 778.75,318.7813 Q779.3438,318.5 779.9688,317.9219 L779.9688,320.6406 Z " fill="#000000"/><text fill="#000000" font-family="sans-serif" font-size="14" lengthAdjust="spacing" textLength="94.0557" x="791" y="319.8467">HumanPlayer</text></g><!--class InvalidMoveException--><g class="entity" data-entity="InvalidMoveException" data-source-line="143" data-uid="ent0036" id="entity_InvalidMoveException"><rect fill="#F1F1F1" height="32" rx="2.5" ry="2.5" style="stroke:#181818;stroke-width:0.5;" width="185.2207" x="923.5" y="299"/><ellipse cx="938.5" cy="315" fill="#ADD1B2" rx="11" ry="11" style="stroke:#181818;stroke-width:1;"/><path d="M941.4688,320.6406 Q940.8906,320.9375 940.25,321.0781 Q939.6094,321.2344 938.9063,321.2344 Q936.4063,321.2344 935.0781,319.5938 Q933.7656,317.9375 933.7656,314.8125 Q933.7656,311.6875 935.0781,310.0313 Q936.4063,308.375 938.9063,308.375 Q939.6094,308.375 940.25,308.5313 Q940.9063,308.6875 941.4688,308.9844 L941.4688,311.7031 Q940.8438,311.125 940.25,310.8594 Q939.6563,310.5781 939.0313,310.5781 Q937.6875,310.5781 937,311.6563 Q936.3125,312.7188 936.3125,314.8125 Q936.3125,316.9063 937,317.9844 Q937.6875,319.0469 939.0313,319.0469 Q939.6563,319.0469 940.25,318.7813 Q940.8438,318.5 941.4688,317.9219 L941.4688,320.6406 Z " fill="#000000"/><text fill="#000000" font-family="sans-serif" font-size="14" lengthAdjust="spacing" textLength="153.2207" x="952.5" y="319.8467">InvalidMoveException</text></g><!--class MiniMax--><g class="entity" data-entity="MiniMax" data-source-line="148" data-uid="ent0038" id="entity_MiniMax"><rect fill="#F1F1F1" height="32" rx="2.5" ry="2.5" style="stroke:#181818;stroke-width:0.5;" width="89.6748" x="158" y="474"/><ellipse cx="173" cy="490" fill="#ADD1B2" rx="11" ry="11" style="stroke:#181818;stroke-width:1;"/><path d="M175.9688,495.6406 Q175.3906,495.9375 174.75,496.0781 Q174.1094,496.2344 173.4063,496.2344 Q170.9063,496.2344 169.5781,494.5938 Q168.2656,492.9375 168.2656,489.8125 Q168.2656,486.6875 169.5781,485.0313 Q170.9063,483.375 173.4063,483.375 Q174.1094,483.375 174.75,483.5313 Q175.4063,483.6875 175.9688,483.9844 L175.9688,486.7031 Q175.3438,486.125 174.75,485.8594 Q174.1563,485.5781 173.5313,485.5781 Q172.1875,485.5781 171.5,486.6563 Q170.8125,487.7188 170.8125,489.8125 Q170.8125,491.9063 171.5,492.9844 Q172.1875,494.0469 173.5313,494.0469 Q174.1563,494.0469 174.75,493.7813 Q175.3438,493.5 175.9688,492.9219 L175.9688,495.6406 Z " fill="#000000"/><text fill="#000000" font-family="sans-serif" font-size="14" lengthAdjust="spacing" textLength="57.6748" x="187" y="494.8467">MiniMax</text></g><!--reverse link Piece to PieceType--><g class="link" data-entity-1="Piece" data-entity-2="PieceType" data-source-line="158" data-uid="lnk40" id="link_Piece_PieceType"><path codeLine="158" d="M468.1662,515.0568 C445.4362,540.1068 408.36,580.94 385.68,605.93" fill="none" id="Piece-backto-PieceType" style="stroke:#181818;stroke-width:1;"/><polygon fill="#181818" points="476.23,506.17,469.2358,507.9255,468.1662,515.0568,475.1604,513.3013,476.23,506.17" style="stroke:#181818;stroke-width:1;"/><text fill="#000000" font-family="sans-serif" font-size="13" lengthAdjust="spacing" textLength="29.0405" x="447" y="551.0669">type</text></g><!--reverse link Piece to PlayerColor--><g class="link" data-entity-1="Piece" data-entity-2="PlayerColor" data-source-line="159" data-uid="lnk41" id="link_Piece_PlayerColor"><path codeLine="159" d="M495.1829,517.9547 C499.9929,543.0047 507.3,580.94 512.1,605.93" fill="none" id="Piece-backto-PlayerColor" style="stroke:#181818;stroke-width:1;"/><polygon fill="#181818" points="492.92,506.17,490.1232,512.8166,495.1829,517.9547,497.9797,511.3081,492.92,506.17" style="stroke:#181818;stroke-width:1;"/><text fill="#000000" font-family="sans-serif" font-size="13" lengthAdjust="spacing" textLength="32.0112" x="503" y="551.0669">color</text></g><!--reverse link BoardRenderer to FieldRenderer--><g class="link" data-entity-1="BoardRenderer" data-entity-2="FieldRenderer" data-source-line="160" data-uid="lnk42" id="link_BoardRenderer_FieldRenderer"><path codeLine="160" d="M2731,650.16 C2731,670.98 2731,696.22 2731,716.97" fill="none" id="BoardRenderer-backto-FieldRenderer" style="stroke:#181818;stroke-width:1;"/><polygon fill="#181818" points="2731,638.16,2727,644.16,2731,650.16,2735,644.16,2731,638.16" style="stroke:#181818;stroke-width:1;"/><text fill="#000000" font-family="sans-serif" font-size="13" lengthAdjust="spacing" textLength="43.1768" x="2732" y="683.0669">render</text></g><!--reverse link ChessBoardRenderer to BoardRenderer--><g class="link" data-entity-1="ChessBoardRenderer" data-entity-2="BoardRenderer" data-source-line="161" data-uid="lnk43" id="link_ChessBoardRenderer_BoardRenderer"><path codeLine="161" d="M2738.1232,518.1415 C2736.3932,543.1915 2733.77,580.94 2732.04,605.93" fill="none" id="ChessBoardRenderer-backto-BoardRenderer" style="stroke:#181818;stroke-width:1;"/><polygon fill="#181818" points="2738.95,506.17,2734.5461,511.8802,2738.1232,518.1415,2742.5271,512.4313,2738.95,506.17" style="stroke:#181818;stroke-width:1;"/><text fill="#000000" font-family="sans-serif" font-size="13" lengthAdjust="spacing" textLength="97.9761" x="2737" y="551.0669">boardRenderer</text></g><!--reverse link MatchConfig to AbstractPlayer--><g class="link" data-entity-1="MatchConfig" data-entity-2="AbstractPlayer" data-source-line="162" data-uid="lnk44" id="link_MatchConfig_AbstractPlayer"><path codeLine="162" d="M1202.0701,336.352 C1185.6101,344.402 1177.13,350.06 1162,363 C1122.76,396.55 1089.09,448.32 1073.79,473.79" fill="none" id="MatchConfig-backto-AbstractPlayer" style="stroke:#181818;stroke-width:1;"/><polygon fill="#181818" points="1212.85,331.08,1205.7027,330.1227,1202.0701,336.352,1209.2174,337.3093,1212.85,331.08" style="stroke:#181818;stroke-width:1;"/><text fill="#000000" font-family="sans-serif" font-size="13" lengthAdjust="spacing" textLength="34.5059" x="1163" y="376.0669">black</text></g><!--reverse link MatchConfig to AbstractPlayer--><g class="link" data-entity-1="MatchConfig" data-entity-2="AbstractPlayer" data-source-line="163" data-uid="lnk45" id="link_MatchConfig_AbstractPlayer"><path codeLine="163" d="M1188.4234,334.702 C1145.9034,348.082 1101.92,362.05 1101,363 C1071.07,393.87 1065.71,447.84 1064.96,473.97" fill="none" id="MatchConfig-backto-AbstractPlayer-1" style="stroke:#181818;stroke-width:1;"/><polygon fill="#181818" points="1199.87,331.1,1192.946,329.0854,1188.4234,334.702,1195.3473,336.7165,1199.87,331.1" style="stroke:#181818;stroke-width:1;"/><text fill="#000000" font-family="sans-serif" font-size="13" lengthAdjust="spacing" textLength="35.5786" x="1102" y="376.0669">white</text></g><!--reverse link HomeScreen to InputReader--><g class="link" data-entity-1="HomeScreen" data-entity-2="InputReader" data-source-line="164" data-uid="lnk46" id="link_HomeScreen_InputReader"><path codeLine="164" d="M1679.8283,337.4735 C1656.2283,351.8835 1628.95,366.95 1594,380 C1579.05,385.58 1574.16,383.02 1559,388 C1484.09,412.63 1400.17,452.38 1356.7,473.93" fill="none" id="HomeScreen-backto-InputReader" style="stroke:#181818;stroke-width:1;"/><polygon fill="#181818" points="1690.07,331.22,1682.8646,330.9329,1679.8283,337.4735,1687.0336,337.7607,1690.07,331.22" style="stroke:#181818;stroke-width:1;"/><text fill="#000000" font-family="sans-serif" font-size="13" lengthAdjust="spacing" textLength="42.9038" x="1632" y="376.0669">reader</text></g><!--link HomeScreen to OutputWriter--><g class="link" data-entity-1="HomeScreen" data-entity-2="OutputWriter" data-source-line="165" data-uid="lnk47" id="link_HomeScreen_OutputWriter"><path codeLine="165" d="M1707.39,331.05 C1693.02,363.77 1661.4733,435.5668 1647.0633,468.3668" fill="none" id="HomeScreen-to-OutputWriter" style="stroke:#181818;stroke-width:1;"/><polygon fill="#181818" points="1644.65,473.86,1651.9322,467.229,1646.6611,469.2823,1644.6079,464.0112,1644.65,473.86" style="stroke:#181818;stroke-width:1;"/><text fill="#000000" font-family="sans-serif" font-size="13" lengthAdjust="spacing" textLength="38.0288" x="1692" y="376.0669">writer</text></g><!--link MatchScreen to ChessBoard--><g class="link" data-entity-1="MatchScreen" data-entity-2="ChessBoard" data-source-line="166" data-uid="lnk48" id="link_MatchScreen_ChessBoard"><path codeLine="166" d="M1579.82,331.03 C1595.21,339.85 1616.02,350.19 1636,355 C1682.14,366.1 2015.63,360.12 2063,363 C2171.37,369.58 2208.31,340.63 2306,388 C2346.23,407.51 2375.6833,445.7534 2391.1133,468.8134" fill="none" id="MatchScreen-to-ChessBoard" style="stroke:#181818;stroke-width:1;"/><polygon fill="#181818" points="2394.45,473.8,2392.7694,464.0956,2391.6694,469.6445,2386.1206,468.5445,2394.45,473.8" style="stroke:#181818;stroke-width:1;"/><text fill="#000000" font-family="sans-serif" font-size="13" lengthAdjust="spacing" textLength="74.6992" x="2284" y="376.0669">chessboard</text></g><!--link MatchScreen to ChessBoardRenderer--><g class="link" data-entity-1="MatchScreen" data-entity-2="ChessBoardRenderer" data-source-line="167" data-uid="lnk49" id="link_MatchScreen_ChessBoardRenderer"><path codeLine="167" d="M1579.81,331.08 C1595.19,339.93 1616,350.27 1636,355 C1675.52,364.35 2326.44,360.88 2367,363 C2485.58,369.21 2524.83,339.03 2633,388 C2675.59,407.28 2708.3686,445.8035 2725.6586,468.9435" fill="none" id="MatchScreen-to-ChessBoardRenderer" style="stroke:#181818;stroke-width:1;"/><polygon fill="#181818" points="2729.25,473.75,2727.0673,464.1461,2726.2572,469.7446,2720.6587,468.9345,2729.25,473.75" style="stroke:#181818;stroke-width:1;"/><text fill="#000000" font-family="sans-serif" font-size="13" lengthAdjust="spacing" textLength="135.5732" x="2609" y="376.0669">chessBoardRenderer</text></g><!--link MatchScreen to OutputWriter--><g class="link" data-entity-1="MatchScreen" data-entity-2="OutputWriter" data-source-line="168" data-uid="lnk50" id="link_MatchScreen_OutputWriter"><path codeLine="168" d="M1551.04,331.19 C1547.52,344.44 1544.35,364.01 1550,380 C1563.85,419.21 1593.9915,450.6659 1615.4515,469.8959" fill="none" id="MatchScreen-to-OutputWriter" style="stroke:#181818;stroke-width:1;"/><polygon fill="#181818" points="1619.92,473.9,1615.8867,464.9149,1616.1963,470.5632,1610.5479,470.8728,1619.92,473.9" style="stroke:#181818;stroke-width:1;"/><text fill="#000000" font-family="sans-serif" font-size="13" lengthAdjust="spacing" textLength="38.0288" x="1551" y="376.0669">writer</text></g><!--link MatchScreen to AbstractPlayer--><g class="link" data-entity-1="MatchScreen" data-entity-2="AbstractPlayer" data-source-line="169" data-uid="lnk51" id="link_MatchScreen_AbstractPlayer"><path codeLine="169" d="M1536.75,331.13 C1524.43,339.88 1507.66,350.1 1491,355 C1437.68,370.69 1295.23,350.79 1241,363 C1222.55,367.15 1219.85,373.77 1202,380 C1188.97,384.55 1184.05,381.28 1172,388 C1131.62,410.51 1098.6399,447.0285 1080.5599,469.2185" fill="none" id="MatchScreen-to-AbstractPlayer" style="stroke:#181818;stroke-width:1;"/><polygon fill="#181818" points="1076.77,473.87,1085.5559,469.4194,1079.9283,469.9938,1079.3539,464.3661,1076.77,473.87" style="stroke:#181818;stroke-width:1;"/><text fill="#000000" font-family="sans-serif" font-size="13" lengthAdjust="spacing" textLength="34.5059" x="1242" y="376.0669">black</text></g><!--link MatchScreen to AbstractPlayer--><g class="link" data-entity-1="MatchScreen" data-entity-2="AbstractPlayer" data-source-line="170" data-uid="lnk52" id="link_MatchScreen_AbstractPlayer"><path codeLine="170" d="M1536.73,331.05 C1524.39,339.76 1507.63,349.98 1491,355 C1454.37,366.07 1356.22,354.14 1319,363 C1301,367.28 1298.94,375.48 1281,380 C1257.45,385.94 1194.23,378.21 1172,388 C1129.22,406.84 1096.4881,445.5362 1079.2681,468.8162" fill="none" id="MatchScreen-to-AbstractPlayer-1" style="stroke:#181818;stroke-width:1;"/><polygon fill="#181818" points="1075.7,473.64,1084.268,468.7831,1078.6734,469.6202,1077.8363,464.0256,1075.7,473.64" style="stroke:#181818;stroke-width:1;"/><text fill="#000000" font-family="sans-serif" font-size="13" lengthAdjust="spacing" textLength="87.8643" x="1320" y="376.0669">currentPlayer</text></g><!--link MatchScreen to AbstractPlayer--><g class="link" data-entity-1="MatchScreen" data-entity-2="AbstractPlayer" data-source-line="171" data-uid="lnk53" id="link_MatchScreen_AbstractPlayer"><path codeLine="171" d="M1536.03,331.02 C1523.7,339.49 1507.19,349.46 1491,355 C1462.63,364.71 1449.76,347.65 1424,363 C1416.06,367.73 1420.14,375.61 1412,380 C1388.52,392.67 1196.63,377.73 1172,388 C1128.62,406.08 1095.837,445.4888 1078.857,468.9588" fill="none" id="MatchScreen-to-AbstractPlayer-2" style="stroke:#181818;stroke-width:1;"/><polygon fill="#181818" points="1075.34,473.82,1083.8562,468.8729,1078.2708,469.769,1077.3746,464.1836,1075.34,473.82" style="stroke:#181818;stroke-width:1;"/><text fill="#000000" font-family="sans-serif" font-size="13" lengthAdjust="spacing" textLength="35.5786" x="1425" y="376.0669">white</text></g><!--reverse link AbstractPlayer to PlayerColor--><g class="link" data-entity-1="AbstractPlayer" data-entity-2="PlayerColor" data-source-line="172" data-uid="lnk54" id="link_AbstractPlayer_PlayerColor"><path codeLine="172" d="M989.6918,508.8002 C881.2518,534.4302 674.07,583.4 571.04,607.75" fill="none" id="AbstractPlayer-backto-PlayerColor" style="stroke:#181818;stroke-width:1;"/><polygon fill="#181818" points="1001.37,506.04,994.6108,503.5273,989.6918,508.8002,996.4509,511.3128,1001.37,506.04" style="stroke:#181818;stroke-width:1;"/><text fill="#000000" font-family="sans-serif" font-size="13" lengthAdjust="spacing" textLength="74.8071" x="856" y="551.0669">playerColor</text></g><!--link BotPlayer to AbstractPlayer--><g class="link" data-entity-1="BotPlayer" data-entity-2="AbstractPlayer" data-source-line="173" data-uid="lnk55" id="link_BotPlayer_AbstractPlayer"><path codeLine="173" d="M701.47,331.02 C714.24,338.6 730.23,347.71 745,355 C843.15,403.47 946.4001,444.2761 1007.8001,467.5661" fill="none" id="BotPlayer-to-AbstractPlayer" style="stroke:#181818;stroke-width:1;"/><polygon fill="none" points="1024.63,473.95,1009.928,461.9562,1005.6721,473.1761,1024.63,473.95" style="stroke:#181818;stroke-width:1;"/></g><!--reverse link HumanPlayer to InputReader--><g class="link" data-entity-1="HumanPlayer" data-entity-2="InputReader" data-source-line="174" data-uid="lnk56" id="link_HumanPlayer_InputReader"><path codeLine="174" d="M863.4027,336.5963 C879.2127,344.6863 888.93,348.76 908,355 C963.09,373.02 978.54,372.37 1036,380 C1085.47,386.57 1100.22,373.61 1148,388 C1210.7,406.88 1275.48,450.59 1307.15,473.83" fill="none" id="HumanPlayer-backto-InputReader" style="stroke:#181818;stroke-width:1;"/><polygon fill="#181818" points="852.72,331.13,856.2392,337.4241,863.4027,336.5963,859.8834,330.3023,852.72,331.13" style="stroke:#181818;stroke-width:1;"/><text fill="#000000" font-family="sans-serif" font-size="13" lengthAdjust="spacing" textLength="42.9038" x="1037" y="376.0669">reader</text></g><!--link HumanPlayer to AbstractPlayer--><g class="link" data-entity-1="HumanPlayer" data-entity-2="AbstractPlayer" data-source-line="175" data-uid="lnk57" id="link_HumanPlayer_AbstractPlayer"><path codeLine="175" d="M843.91,331.02 C860.61,344.16 885.68,363.66 908,380 C955.12,414.49 996.7401,443.0104 1027.4701,463.7504" fill="none" id="HumanPlayer-to-AbstractPlayer" style="stroke:#181818;stroke-width:1;"/><polygon fill="none" points="1042.39,473.82,1030.8266,458.7771,1024.1136,468.7237,1042.39,473.82" style="stroke:#181818;stroke-width:1;"/></g><!--reverse link MiniMax to PlayerColor--><g class="link" data-entity-1="MiniMax" data-entity-2="PlayerColor" data-source-line="176" data-uid="lnk58" id="link_MiniMax_PlayerColor"><path codeLine="176" d="M232.7413,513.0018 C254.3813,528.3818 280.78,544.5 316,555 C369.35,570.9 388.99,543.16 441,563 C464.95,572.13 487.35,591.88 501.1,605.78" fill="none" id="MiniMax-backto-PlayerColor" style="stroke:#181818;stroke-width:1;"/><polygon fill="#181818" points="222.96,506.05,225.5334,512.7863,232.7413,513.0018,230.1679,506.2655,222.96,506.05" style="stroke:#181818;stroke-width:1;"/><text fill="#000000" font-family="sans-serif" font-size="13" lengthAdjust="spacing" textLength="109.4907" x="317" y="551.0669">colorToMaximize</text></g><!--reverse link MiniMax to EvalStrategy--><g class="link" data-entity-1="MiniMax" data-entity-2="EvalStrategy" data-source-line="177" data-uid="lnk59" id="link_MiniMax_EvalStrategy"><path codeLine="177" d="M185.4595,516.3304 C179.7695,525.1404 179.94,526.62 177,538 C170.81,561.98 183.22,589.3 192.94,605.84" fill="none" id="MiniMax-backto-EvalStrategy" style="stroke:#181818;stroke-width:1;"/><polygon fill="#181818" points="191.97,506.25,185.3546,509.12,185.4595,516.3304,192.0749,513.4603,191.97,506.25" style="stroke:#181818;stroke-width:1;"/><text fill="#000000" font-family="sans-serif" font-size="13" lengthAdjust="spacing" textLength="82.9702" x="178" y="551.0669">evalStrategy</text></g><!--SRC=[pLXBK-is55xNlqBBsr9x9YnPT2P0W0paKHA6PKUsJsnHsqejcGkbyDkhXqtas3Us4c3kpfPrtkTy-kGWmOoX8FPYbXHUW9cNCWWzFw7-Yh3Ocs2IeHVdbvSKU4p3LuHU6CUS1A_eBPNVllsAJj0Z9Q7pwZXEqA7EnmoyEO40QagF0fhGNElg4axmC-HdSh-f0FufSCBGDxJ6EKvd_WC4V22qwISa5VkK9e0pKse5PG1diH0BEDHqnfZ5PpG4lOLatFp8wOBd98lqH_rS-_wyXdu1oMminMwLGCYAjBU4ok6AG28DdeuNLxEviN0zdbwQhzFnvTNIM9WFxwV6wvztev7vVZkRNVTtQLELkbCtmxDhu_t-QhmSzUiKYlFGEuk1iLFvQAfzRq5tiHpUBkUpnNWvdat_kXXDpLgKkrsbIXQ2fbv4U5pudXydE8jeHXvoBv0s4k9xoevPmv1Ew2DKJQNr3juje8xYRWLWAew0ZnvnKeWeQDc18Ity1BOsNLJzsUmlyNL1GbYMBku_EOHTuXHcZr3ENykO42QDt424avt9Q15Df92KPbhx0tx4Ni59ujqGnYqweI2wFhUGXP13NiEFjrojLixT4RLrqAC-Gcsv6_skXOqq7Lib5Hc5iefhqoEruAhs5LuniTGh5j4mIj5SoPY5g6UeKRwF3bwW9UGhB72-ZzSoqjR2eXViCowXkH727L5YlOkiTc-xsOLjbVX272yvDF7jV7XhmjkDWjY-yOE004_YW708SuYUVnpw5c3icC4IH_eqO2JcNZUVH81QpmddKvA9SJz1D8-yXuHau5MBth9yCBnrMKmBMKG1pJclF1ndwuBV0XPbsrqdvOgnk-h7MS75sdrEXEtZRWtczXyXKkdWEsqnOlWk1KTPADCn4Md1qJlucve7UpZIco4rCc6M9TTBPb7qaa3J3BH0VUXnAB_ix1WBo5BEJJ0F12_ALYIgapW_mS7VNKVHMc66DonxMqF8uKpk8AxsFHPrsi_ntbchTOHHqpVhKJjQ9GMBMpluQ2r2upkhtIenpC8BhTHMCidsaUblhtT-uIc0jKH7vidn7Veqvn2EgbMHydrKgLu_H1SBSe3Ckw8fBDHZVMG4hflZrD62s-DdOfVGP1x7jeJGDY3bHKj4qeyfFF4DAssCcwkQO4uPCGypmvc1FVFOHd9z6fqJ9gTMqxlIJdr-1_OZt_TSaHcjJd3KbTfsIxlem2R9EguDYHnONKjiZu3IqrFQvkHFuDXLaUBivtJDm9Ln9jWS2QKp9gniJdgQaqZYldBNoXW3d0Sn5vFfJKX69lYffZZ0IL0aYaUU2xjnuxHKEoh9GnDLqZXXuLWRGgrtNHSqkOKBcWkp92N_ReZ-GLLglLQV2fRwMRqW2jJdxzTlhelw_-SvGV9tqWTgDk1J_XUH9u3r1RpBKFljxWJfQvoptyMuhz6wb0HiuzsnOBWT1jk1MzYJNFWBx2ZgwbYJa0vhZKk8h1eEkpFNjEIwVo0hRYnYKW-EFH7fiDKONJdduaMjVvQvzZOkBP_QTAMz1r-Pt8C6uUFC1KKkyAMwdNsPsQunR9UpX-grGTajE9hh_cSVbcF5jJu1KLgiV7GWBMHfp_DpIIlYyg7ccly8Jn0OhuuJan2GOdTCFskcmvp_0G00]--></g></svg>