<svg xmlns="http://www.w3.org/2000/svg" xmlns:xlink="http://www.w3.org/1999/xlink" contentStyleType="text/css" data-diagram-type="CLASS" height="895px" preserveAspectRatio="none" style="width:3042px;height:895px;background:#FFFFFF;" version="1.1" viewBox="0 0 3042 895" width="3042px" zoomAndPan="magnify"><defs/><g><!--cluster ch--><g class="cluster" data-entity="ch" data-source-line="2" data-uid="ent0003" id="cluster_ch"><path d="M8.5,6 L27.7656,6 A3.75,3.75 0 0 1 30.2656,8.5 L37.2656,28.2969 L3032.5,28.2969 A2.5,2.5 0 0 1 3035,30.7969 L3035,885.5 A2.5,2.5 0 0 1 3032.5,888 L8.5,888 A2.5,2.5 0 0 1 6,885.5 L6,8.5 A2.5,2.5 0 0 1 8.5,6" fill="none" style="stroke:#000000;stroke-width:1.5;"/><line style="stroke:#000000;stroke-width:1.5;" x1="6" x2="37.2656" y1="28.2969" y2="28.2969"/><text fill="#000000" font-family="sans-serif" font-size="14" font-weight="bold" lengthAdjust="spacing" textLength="18.2656" x="10" y="20.9951">ch</text></g><!--cluster hslu--><g class="cluster" data-entity="hslu" data-source-line="2" data-uid="ent0004" id="cluster_hslu"><path d="M32.5,49 L66.5654,49 A3.75,3.75 0 0 1 69.0654,51.5 L76.0654,71.2969 L3008.5,71.2969 A2.5,2.5 0 0 1 3011,73.7969 L3011,861.5 A2.5,2.5 0 0 1 3008.5,864 L32.5,864 A2.5,2.5 0 0 1 30,861.5 L30,51.5 A2.5,2.5 0 0 1 32.5,49" fill="none" style="stroke:#000000;stroke-width:1.5;"/><line style="stroke:#000000;stroke-width:1.5;" x1="30" x2="76.0654" y1="71.2969" y2="71.2969"/><text fill="#000000" font-family="sans-serif" font-size="14" font-weight="bold" lengthAdjust="spacing" textLength="33.0654" x="34" y="63.9951">hslu</text></g><!--cluster cas--><g class="cluster" data-entity="cas" data-source-line="2" data-uid="ent0005" id="cluster_cas"><path d="M56.5,92 L83.5791,92 A3.75,3.75 0 0 1 86.0791,94.5 L93.0791,114.2969 L2984.5,114.2969 A2.5,2.5 0 0 1 2987,116.7969 L2987,837.5 A2.5,2.5 0 0 1 2984.5,840 L56.5,840 A2.5,2.5 0 0 1 54,837.5 L54,94.5 A2.5,2.5 0 0 1 56.5,92" fill="none" style="stroke:#000000;stroke-width:1.5;"/><line style="stroke:#000000;stroke-width:1.5;" x1="54" x2="93.0791" y1="114.2969" y2="114.2969"/><text fill="#000000" font-family="sans-serif" font-size="14" font-weight="bold" lengthAdjust="spacing" textLength="26.0791" x="58" y="106.9951">cas</text></g><!--cluster msed--><g class="cluster" data-entity="msed" data-source-line="2" data-uid="ent0006" id="cluster_msed"><path d="M80.5,135 L123.9375,135 A3.75,3.75 0 0 1 126.4375,137.5 L133.4375,157.2969 L2960.5,157.2969 A2.5,2.5 0 0 1 2963,159.7969 L2963,813.5 A2.5,2.5 0 0 1 2960.5,816 L80.5,816 A2.5,2.5 0 0 1 78,813.5 L78,137.5 A2.5,2.5 0 0 1 80.5,135" fill="none" style="stroke:#000000;stroke-width:1.5;"/><line style="stroke:#000000;stroke-width:1.5;" x1="78" x2="133.4375" y1="157.2969" y2="157.2969"/><text fill="#000000" font-family="sans-serif" font-size="14" font-weight="bold" lengthAdjust="spacing" textLength="42.4375" x="82" y="149.9951">msed</text></g><!--cluster blobfish--><g class="cluster" data-entity="blobfish" data-source-line="2" data-uid="ent0007" id="cluster_blobfish"><path d="M104.5,178 L169.1494,178 A3.75,3.75 0 0 1 171.6494,180.5 L178.6494,200.2969 L2936.5,200.2969 A2.5,2.5 0 0 1 2939,202.7969 L2939,789.5 A2.5,2.5 0 0 1 2936.5,792 L104.5,792 A2.5,2.5 0 0 1 102,789.5 L102,180.5 A2.5,2.5 0 0 1 104.5,178" fill="none" style="stroke:#000000;stroke-width:1.5;"/><line style="stroke:#000000;stroke-width:1.5;" x1="102" x2="178.6494" y1="200.2969" y2="200.2969"/><text fill="#000000" font-family="sans-serif" font-size="14" font-weight="bold" lengthAdjust="spacing" textLength="63.6494" x="106" y="192.9951">blobfish</text></g><!--cluster base--><g class="cluster" data-entity="base" data-source-line="7" data-uid="ent0009" id="cluster_base"><path d="M2070.5,439 L2108.7969,439 A3.75,3.75 0 0 1 2111.2969,441.5 L2118.2969,461.2969 L2348.5,461.2969 A2.5,2.5 0 0 1 2351,463.7969 L2351,630.5 A2.5,2.5 0 0 1 2348.5,633 L2070.5,633 A2.5,2.5 0 0 1 2068,630.5 L2068,441.5 A2.5,2.5 0 0 1 2070.5,439" fill="none" style="stroke:#000000;stroke-width:1.5;"/><line style="stroke:#000000;stroke-width:1.5;" x1="2068" x2="2118.2969" y1="461.2969" y2="461.2969"/><text fill="#000000" font-family="sans-serif" font-size="14" font-weight="bold" lengthAdjust="spacing" textLength="37.2969" x="2072" y="453.9951">base</text></g><!--cluster board--><g class="cluster" data-entity="board" data-source-line="33" data-uid="ent0013" id="cluster_board"><path d="M2377.5,396 L2424.5127,396 A3.75,3.75 0 0 1 2427.0127,398.5 L2434.0127,418.2969 L2912.5,418.2969 A2.5,2.5 0 0 1 2915,420.7969 L2915,765.5 A2.5,2.5 0 0 1 2912.5,768 L2377.5,768 A2.5,2.5 0 0 1 2375,765.5 L2375,398.5 A2.5,2.5 0 0 1 2377.5,396" fill="none" style="stroke:#000000;stroke-width:1.5;"/><line style="stroke:#000000;stroke-width:1.5;" x1="2375" x2="2434.0127" y1="418.2969" y2="418.2969"/><text fill="#000000" font-family="sans-serif" font-size="14" font-weight="bold" lengthAdjust="spacing" textLength="46.0127" x="2379" y="410.9951">board</text></g><!--cluster ui--><g class="cluster" data-entity="ui" data-source-line="45" data-uid="ent0015" id="cluster_ui"><path d="M2528.5,439 L2544.2656,439 A3.75,3.75 0 0 1 2546.7656,441.5 L2553.7656,461.2969 L2888.5,461.2969 A2.5,2.5 0 0 1 2891,463.7969 L2891,741.5 A2.5,2.5 0 0 1 2888.5,744 L2528.5,744 A2.5,2.5 0 0 1 2526,741.5 L2526,441.5 A2.5,2.5 0 0 1 2528.5,439" fill="none" style="stroke:#000000;stroke-width:1.5;"/><line style="stroke:#000000;stroke-width:1.5;" x1="2526" x2="2553.7656" y1="461.2969" y2="461.2969"/><text fill="#000000" font-family="sans-serif" font-size="14" font-weight="bold" lengthAdjust="spacing" textLength="14.7656" x="2530" y="453.9951">ui</text></g><!--cluster eval--><g class="cluster" data-entity="eval" data-source-line="67" data-uid="ent0020" id="cluster_eval"><path d="M173.5,439 L207.3672,439 A3.75,3.75 0 0 1 209.8672,441.5 L216.8672,461.2969 L322.5,461.2969 A2.5,2.5 0 0 1 325,463.7969 L325,519.5 A2.5,2.5 0 0 1 322.5,522 L173.5,522 A2.5,2.5 0 0 1 171,519.5 L171,441.5 A2.5,2.5 0 0 1 173.5,439" fill="none" style="stroke:#000000;stroke-width:1.5;"/><line style="stroke:#000000;stroke-width:1.5;" x1="171" x2="216.8672" y1="461.2969" y2="461.2969"/><text fill="#000000" font-family="sans-serif" font-size="14" font-weight="bold" lengthAdjust="spacing" textLength="32.8672" x="175" y="453.9951">eval</text></g><!--cluster game--><g class="cluster" data-entity="game" data-source-line="72" data-uid="ent0022" id="cluster_game"><path d="M912.5,221 L957.0518,221 A3.75,3.75 0 0 1 959.5518,223.5 L966.5518,243.2969 L2041.5,243.2969 A2.5,2.5 0 0 1 2044,245.7969 L2044,519.5 A2.5,2.5 0 0 1 2041.5,522 L912.5,522 A2.5,2.5 0 0 1 910,519.5 L910,223.5 A2.5,2.5 0 0 1 912.5,221" fill="none" style="stroke:#000000;stroke-width:1.5;"/><line style="stroke:#000000;stroke-width:1.5;" x1="910" x2="966.5518" y1="243.2969" y2="243.2969"/><text fill="#000000" font-family="sans-serif" font-size="14" font-weight="bold" lengthAdjust="spacing" textLength="43.5518" x="914" y="235.9951">game</text></g><!--cluster exceptions--><g class="cluster" data-entity="exceptions" data-source-line="105" data-uid="ent0027" id="cluster_exceptions"><path d="M1555.5,264 L1642.25,264 A3.75,3.75 0 0 1 1644.75,266.5 L1651.75,286.2969 L2017.5,286.2969 A2.5,2.5 0 0 1 2020,288.7969 L2020,344.5 A2.5,2.5 0 0 1 2017.5,347 L1555.5,347 A2.5,2.5 0 0 1 1553,344.5 L1553,266.5 A2.5,2.5 0 0 1 1555.5,264" fill="none" style="stroke:#000000;stroke-width:1.5;"/><line style="stroke:#000000;stroke-width:1.5;" x1="1553" x2="1651.75" y1="286.2969" y2="286.2969"/><text fill="#000000" font-family="sans-serif" font-size="14" font-weight="bold" lengthAdjust="spacing" textLength="85.75" x="1557" y="278.9951">exceptions</text></g><!--cluster screen--><g class="cluster" data-entity="screen" data-source-line="113" data-uid="ent0030" id="cluster_screen"><path d="M1218.5,264 L1271.9932,264 A3.75,3.75 0 0 1 1274.4932,266.5 L1281.4932,286.2969 L1526.5,286.2969 A2.5,2.5 0 0 1 1529,288.7969 L1529,344.5 A2.5,2.5 0 0 1 1526.5,347 L1218.5,347 A2.5,2.5 0 0 1 1216,344.5 L1216,266.5 A2.5,2.5 0 0 1 1218.5,264" fill="none" style="stroke:#000000;stroke-width:1.5;"/><line style="stroke:#000000;stroke-width:1.5;" x1="1216" x2="1281.4932" y1="286.2969" y2="286.2969"/><text fill="#000000" font-family="sans-serif" font-size="14" font-weight="bold" lengthAdjust="spacing" textLength="52.4932" x="1220" y="278.9951">screen</text></g><!--cluster player--><g class="cluster" data-entity="player" data-source-line="127" data-uid="ent0033" id="cluster_player"><path d="M351.5,221 L402.293,221 A3.75,3.75 0 0 1 404.793,223.5 L411.793,243.2969 L883.5,243.2969 A2.5,2.5 0 0 1 886,245.7969 L886,519.5 A2.5,2.5 0 0 1 883.5,522 L351.5,522 A2.5,2.5 0 0 1 349,519.5 L349,223.5 A2.5,2.5 0 0 1 351.5,221" fill="none" style="stroke:#000000;stroke-width:1.5;"/><line style="stroke:#000000;stroke-width:1.5;" x1="349" x2="411.793" y1="243.2969" y2="243.2969"/><text fill="#000000" font-family="sans-serif" font-size="14" font-weight="bold" lengthAdjust="spacing" textLength="49.793" x="353" y="235.9951">player</text></g><!--cluster exceptions--><g class="cluster" data-entity="exceptions" data-source-line="142" data-uid="ent0037" id="cluster_exceptions"><path d="M648.5,264 L735.25,264 A3.75,3.75 0 0 1 737.75,266.5 L744.75,286.2969 L859.5,286.2969 A2.5,2.5 0 0 1 862,288.7969 L862,344.5 A2.5,2.5 0 0 1 859.5,347 L648.5,347 A2.5,2.5 0 0 1 646,344.5 L646,266.5 A2.5,2.5 0 0 1 648.5,264" fill="none" style="stroke:#000000;stroke-width:1.5;"/><line style="stroke:#000000;stroke-width:1.5;" x1="646" x2="744.75" y1="286.2969" y2="286.2969"/><text fill="#000000" font-family="sans-serif" font-size="14" font-weight="bold" lengthAdjust="spacing" textLength="85.75" x="650" y="278.9951">exceptions</text></g><!--cluster searchtree--><g class="cluster" data-entity="searchtree" data-source-line="147" data-uid="ent0039" id="cluster_searchtree"><path d="M205.5,264 L291.5322,264 A3.75,3.75 0 0 1 294.0322,266.5 L301.0322,286.2969 L322.5,286.2969 A2.5,2.5 0 0 1 325,288.7969 L325,344.5 A2.5,2.5 0 0 1 322.5,347 L205.5,347 A2.5,2.5 0 0 1 203,344.5 L203,266.5 A2.5,2.5 0 0 1 205.5,264" fill="none" style="stroke:#000000;stroke-width:1.5;"/><line style="stroke:#000000;stroke-width:1.5;" x1="203" x2="301.0322" y1="286.2969" y2="286.2969"/><text fill="#000000" font-family="sans-serif" font-size="14" font-weight="bold" lengthAdjust="spacing" textLength="85.0322" x="207" y="278.9951">searchtree</text></g><!--class Main--><g class="entity" data-entity="Main" data-source-line="2" data-uid="ent0002" id="entity_Main"><rect fill="#F1F1F1" height="32" rx="2.5" ry="2.5" style="stroke:#181818;stroke-width:0.5;" width="65.4209" x="118.5" y="299"/><ellipse cx="133.5" cy="315" fill="#ADD1B2" rx="11" ry="11" style="stroke:#181818;stroke-width:1;"/><path d="M136.4688,320.6406 Q135.8906,320.9375 135.25,321.0781 Q134.6094,321.2344 133.9063,321.2344 Q131.4063,321.2344 130.0781,319.5938 Q128.7656,317.9375 128.7656,314.8125 Q128.7656,311.6875 130.0781,310.0313 Q131.4063,308.375 133.9063,308.375 Q134.6094,308.375 135.25,308.5313 Q135.9063,308.6875 136.4688,308.9844 L136.4688,311.7031 Q135.8438,311.125 135.25,310.8594 Q134.6563,310.5781 134.0313,310.5781 Q132.6875,310.5781 132,311.6563 Q131.3125,312.7188 131.3125,314.8125 Q131.3125,316.9063 132,317.9844 Q132.6875,319.0469 134.0313,319.0469 Q134.6563,319.0469 135.25,318.7813 Q135.8438,318.5 136.4688,317.9219 L136.4688,320.6406 Z " fill="#000000"/><text fill="#000000" font-family="sans-serif" font-size="14" lengthAdjust="spacing" textLength="33.4209" x="147.5" y="319.8467">Main</text></g><!--class Piece--><g class="entity" data-entity="Piece" data-source-line="7" data-uid="ent0008" id="entity_Piece"><rect fill="#F1F1F1" height="32" rx="2.5" ry="2.5" style="stroke:#181818;stroke-width:0.5;" width="69.2559" x="2176.5" y="474"/><ellipse cx="2191.5" cy="490" fill="#ADD1B2" rx="11" ry="11" style="stroke:#181818;stroke-width:1;"/><path d="M2194.4688,495.6406 Q2193.8906,495.9375 2193.25,496.0781 Q2192.6094,496.2344 2191.9063,496.2344 Q2189.4063,496.2344 2188.0781,494.5938 Q2186.7656,492.9375 2186.7656,489.8125 Q2186.7656,486.6875 2188.0781,485.0313 Q2189.4063,483.375 2191.9063,483.375 Q2192.6094,483.375 2193.25,483.5313 Q2193.9063,483.6875 2194.4688,483.9844 L2194.4688,486.7031 Q2193.8438,486.125 2193.25,485.8594 Q2192.6563,485.5781 2192.0313,485.5781 Q2190.6875,485.5781 2190,486.6563 Q2189.3125,487.7188 2189.3125,489.8125 Q2189.3125,491.9063 2190,492.9844 Q2190.6875,494.0469 2192.0313,494.0469 Q2192.6563,494.0469 2193.25,493.7813 Q2193.8438,493.5 2194.4688,492.9219 L2194.4688,495.6406 Z " fill="#000000"/><text fill="#000000" font-family="sans-serif" font-size="14" lengthAdjust="spacing" textLength="37.2559" x="2205.5" y="494.8467">Piece</text></g><!--class PieceType--><g class="entity" data-entity="PieceType" data-source-line="17" data-uid="ent0010" id="entity_PieceType"><rect fill="#F1F1F1" height="32" rx="2.5" ry="2.5" style="stroke:#181818;stroke-width:0.5;" width="103.5928" x="2231" y="585"/><ellipse cx="2246" cy="601" fill="#EB937F" rx="11" ry="11" style="stroke:#181818;stroke-width:1;"/><path d="M2250.1094,607 L2242.3906,607 L2242.3906,594.6094 L2250.1094,594.6094 L2250.1094,596.7656 L2244.8438,596.7656 L2244.8438,599.4375 L2249.6094,599.4375 L2249.6094,601.5938 L2244.8438,601.5938 L2244.8438,604.8438 L2250.1094,604.8438 L2250.1094,607 Z " fill="#000000"/><text fill="#000000" font-family="sans-serif" font-size="14" lengthAdjust="spacing" textLength="71.5928" x="2260" y="605.8467">PieceType</text></g><!--class PlayerColor--><g class="entity" data-entity="PlayerColor" data-source-line="27" data-uid="ent0011" id="entity_PlayerColor"><rect fill="#F1F1F1" height="32" rx="2.5" ry="2.5" style="stroke:#181818;stroke-width:0.5;" width="112.1172" x="2084" y="585"/><ellipse cx="2099" cy="601" fill="#EB937F" rx="11" ry="11" style="stroke:#181818;stroke-width:1;"/><path d="M2103.1094,607 L2095.3906,607 L2095.3906,594.6094 L2103.1094,594.6094 L2103.1094,596.7656 L2097.8438,596.7656 L2097.8438,599.4375 L2102.6094,599.4375 L2102.6094,601.5938 L2097.8438,601.5938 L2097.8438,604.8438 L2103.1094,604.8438 L2103.1094,607 Z " fill="#000000"/><text fill="#000000" font-family="sans-serif" font-size="14" lengthAdjust="spacing" textLength="80.1172" x="2113" y="605.8467">PlayerColor</text></g><!--class ChessBoard--><g class="entity" data-entity="ChessBoard" data-source-line="33" data-uid="ent0012" id="entity_ChessBoard"><rect fill="#F1F1F1" height="32" rx="2.5" ry="2.5" style="stroke:#181818;stroke-width:0.5;" width="115.2412" x="2391.5" y="474"/><ellipse cx="2406.5" cy="490" fill="#ADD1B2" rx="11" ry="11" style="stroke:#181818;stroke-width:1;"/><path d="M2409.4688,495.6406 Q2408.8906,495.9375 2408.25,496.0781 Q2407.6094,496.2344 2406.9063,496.2344 Q2404.4063,496.2344 2403.0781,494.5938 Q2401.7656,492.9375 2401.7656,489.8125 Q2401.7656,486.6875 2403.0781,485.0313 Q2404.4063,483.375 2406.9063,483.375 Q2407.6094,483.375 2408.25,483.5313 Q2408.9063,483.6875 2409.4688,483.9844 L2409.4688,486.7031 Q2408.8438,486.125 2408.25,485.8594 Q2407.6563,485.5781 2407.0313,485.5781 Q2405.6875,485.5781 2405,486.6563 Q2404.3125,487.7188 2404.3125,489.8125 Q2404.3125,491.9063 2405,492.9844 Q2405.6875,494.0469 2407.0313,494.0469 Q2407.6563,494.0469 2408.25,493.7813 Q2408.8438,493.5 2409.4688,492.9219 L2409.4688,495.6406 Z " fill="#000000"/><text fill="#000000" font-family="sans-serif" font-size="14" lengthAdjust="spacing" textLength="83.2412" x="2420.5" y="494.8467">ChessBoard</text></g><!--class BoardRenderer--><g class="entity" data-entity="BoardRenderer" data-source-line="45" data-uid="ent0014" id="entity_BoardRenderer"><rect fill="#F1F1F1" height="32" rx="2.5" ry="2.5" style="stroke:#181818;stroke-width:0.5;" width="138.2305" x="2707" y="585"/><ellipse cx="2722" cy="601" fill="#ADD1B2" rx="11" ry="11" style="stroke:#181818;stroke-width:1;"/><path d="M2724.9688,606.6406 Q2724.3906,606.9375 2723.75,607.0781 Q2723.1094,607.2344 2722.4063,607.2344 Q2719.9063,607.2344 2718.5781,605.5938 Q2717.2656,603.9375 2717.2656,600.8125 Q2717.2656,597.6875 2718.5781,596.0313 Q2719.9063,594.375 2722.4063,594.375 Q2723.1094,594.375 2723.75,594.5313 Q2724.4063,594.6875 2724.9688,594.9844 L2724.9688,597.7031 Q2724.3438,597.125 2723.75,596.8594 Q2723.1563,596.5781 2722.5313,596.5781 Q2721.1875,596.5781 2720.5,597.6563 Q2719.8125,598.7188 2719.8125,600.8125 Q2719.8125,602.9063 2720.5,603.9844 Q2721.1875,605.0469 2722.5313,605.0469 Q2723.1563,605.0469 2723.75,604.7813 Q2724.3438,604.5 2724.9688,603.9219 L2724.9688,606.6406 Z " fill="#000000"/><text fill="#000000" font-family="sans-serif" font-size="14" lengthAdjust="spacing" textLength="106.2305" x="2736" y="605.8467">BoardRenderer</text></g><!--class ChessBoardRenderer--><g class="entity" data-entity="ChessBoardRenderer" data-source-line="50" data-uid="ent0016" id="entity_ChessBoardRenderer"><rect fill="#F1F1F1" height="32" rx="2.5" ry="2.5" style="stroke:#181818;stroke-width:0.5;" width="180.0801" x="2695" y="474"/><ellipse cx="2710" cy="490" fill="#ADD1B2" rx="11" ry="11" style="stroke:#181818;stroke-width:1;"/><path d="M2712.9688,495.6406 Q2712.3906,495.9375 2711.75,496.0781 Q2711.1094,496.2344 2710.4063,496.2344 Q2707.9063,496.2344 2706.5781,494.5938 Q2705.2656,492.9375 2705.2656,489.8125 Q2705.2656,486.6875 2706.5781,485.0313 Q2707.9063,483.375 2710.4063,483.375 Q2711.1094,483.375 2711.75,483.5313 Q2712.4063,483.6875 2712.9688,483.9844 L2712.9688,486.7031 Q2712.3438,486.125 2711.75,485.8594 Q2711.1563,485.5781 2710.5313,485.5781 Q2709.1875,485.5781 2708.5,486.6563 Q2707.8125,487.7188 2707.8125,489.8125 Q2707.8125,491.9063 2708.5,492.9844 Q2709.1875,494.0469 2710.5313,494.0469 Q2711.1563,494.0469 2711.75,493.7813 Q2712.3438,493.5 2712.9688,492.9219 L2712.9688,495.6406 Z " fill="#000000"/><text fill="#000000" font-family="sans-serif" font-size="14" lengthAdjust="spacing" textLength="148.0801" x="2724" y="494.8467">ChessBoardRenderer</text></g><!--class FieldRenderer--><g class="entity" data-entity="FieldRenderer" data-source-line="56" data-uid="ent0017" id="entity_FieldRenderer"><rect fill="#F1F1F1" height="32" rx="2.5" ry="2.5" style="stroke:#181818;stroke-width:0.5;" width="130.1709" x="2711" y="696"/><ellipse cx="2726" cy="712" fill="#B4A7E5" rx="11" ry="11" style="stroke:#181818;stroke-width:1;"/><path d="M2721.9219,707.7656 L2721.9219,705.6094 L2729.3125,705.6094 L2729.3125,707.7656 L2726.8438,707.7656 L2726.8438,715.8438 L2729.3125,715.8438 L2729.3125,718 L2721.9219,718 L2721.9219,715.8438 L2724.3906,715.8438 L2724.3906,707.7656 L2721.9219,707.7656 Z " fill="#000000"/><text fill="#000000" font-family="sans-serif" font-size="14" font-style="italic" lengthAdjust="spacing" textLength="98.1709" x="2740" y="716.8467">FieldRenderer</text></g><!--class SquareColor--><g class="entity" data-entity="SquareColor" data-source-line="61" data-uid="ent0018" id="entity_SquareColor"><rect fill="#F1F1F1" height="32" rx="2.5" ry="2.5" style="stroke:#181818;stroke-width:0.5;" width="118.1465" x="2542" y="474"/><ellipse cx="2557" cy="490" fill="#EB937F" rx="11" ry="11" style="stroke:#181818;stroke-width:1;"/><path d="M2561.1094,496 L2553.3906,496 L2553.3906,483.6094 L2561.1094,483.6094 L2561.1094,485.7656 L2555.8438,485.7656 L2555.8438,488.4375 L2560.6094,488.4375 L2560.6094,490.5938 L2555.8438,490.5938 L2555.8438,493.8438 L2561.1094,493.8438 L2561.1094,496 Z " fill="#000000"/><text fill="#000000" font-family="sans-serif" font-size="14" lengthAdjust="spacing" textLength="86.1465" x="2571" y="494.8467">SquareColor</text></g><!--class EvalStrategy--><g class="entity" data-entity="EvalStrategy" data-source-line="67" data-uid="ent0019" id="entity_EvalStrategy"><rect fill="#F1F1F1" height="32" rx="2.5" ry="2.5" style="stroke:#181818;stroke-width:0.5;" width="121.585" x="187" y="474"/><ellipse cx="202" cy="490" fill="#B4A7E5" rx="11" ry="11" style="stroke:#181818;stroke-width:1;"/><path d="M197.9219,485.7656 L197.9219,483.6094 L205.3125,483.6094 L205.3125,485.7656 L202.8438,485.7656 L202.8438,493.8438 L205.3125,493.8438 L205.3125,496 L197.9219,496 L197.9219,493.8438 L200.3906,493.8438 L200.3906,485.7656 L197.9219,485.7656 Z " fill="#000000"/><text fill="#000000" font-family="sans-serif" font-size="14" font-style="italic" lengthAdjust="spacing" textLength="89.585" x="216" y="494.8467">EvalStrategy</text></g><!--class ChessGame--><g class="entity" data-entity="ChessGame" data-source-line="72" data-uid="ent0021" id="entity_ChessGame"><rect fill="#F1F1F1" height="32" rx="2.5" ry="2.5" style="stroke:#181818;stroke-width:0.5;" width="115.5283" x="1081" y="299"/><ellipse cx="1096" cy="315" fill="#ADD1B2" rx="11" ry="11" style="stroke:#181818;stroke-width:1;"/><path d="M1098.9688,320.6406 Q1098.3906,320.9375 1097.75,321.0781 Q1097.1094,321.2344 1096.4063,321.2344 Q1093.9063,321.2344 1092.5781,319.5938 Q1091.2656,317.9375 1091.2656,314.8125 Q1091.2656,311.6875 1092.5781,310.0313 Q1093.9063,308.375 1096.4063,308.375 Q1097.1094,308.375 1097.75,308.5313 Q1098.4063,308.6875 1098.9688,308.9844 L1098.9688,311.7031 Q1098.3438,311.125 1097.75,310.8594 Q1097.1563,310.5781 1096.5313,310.5781 Q1095.1875,310.5781 1094.5,311.6563 Q1093.8125,312.7188 1093.8125,314.8125 Q1093.8125,316.9063 1094.5,317.9844 Q1095.1875,319.0469 1096.5313,319.0469 Q1097.1563,319.0469 1097.75,318.7813 Q1098.3438,318.5 1098.9688,317.9219 L1098.9688,320.6406 Z " fill="#000000"/><text fill="#000000" font-family="sans-serif" font-size="14" lengthAdjust="spacing" textLength="83.5283" x="1110" y="319.8467">ChessGame</text></g><!--class InputReader--><g class="entity" data-entity="InputReader" data-source-line="80" data-uid="ent0023" id="entity_InputReader"><rect fill="#F1F1F1" height="32" rx="2.5" ry="2.5" style="stroke:#181818;stroke-width:0.5;" width="118.4268" x="1204" y="474"/><ellipse cx="1219" cy="490" fill="#ADD1B2" rx="11" ry="11" style="stroke:#181818;stroke-width:1;"/><path d="M1221.9688,495.6406 Q1221.3906,495.9375 1220.75,496.0781 Q1220.1094,496.2344 1219.4063,496.2344 Q1216.9063,496.2344 1215.5781,494.5938 Q1214.2656,492.9375 1214.2656,489.8125 Q1214.2656,486.6875 1215.5781,485.0313 Q1216.9063,483.375 1219.4063,483.375 Q1220.1094,483.375 1220.75,483.5313 Q1221.4063,483.6875 1221.9688,483.9844 L1221.9688,486.7031 Q1221.3438,486.125 1220.75,485.8594 Q1220.1563,485.5781 1219.5313,485.5781 Q1218.1875,485.5781 1217.5,486.6563 Q1216.8125,487.7188 1216.8125,489.8125 Q1216.8125,491.9063 1217.5,492.9844 Q1218.1875,494.0469 1219.5313,494.0469 Q1220.1563,494.0469 1220.75,493.7813 Q1221.3438,493.5 1221.9688,492.9219 L1221.9688,495.6406 Z " fill="#000000"/><text fill="#000000" font-family="sans-serif" font-size="14" lengthAdjust="spacing" textLength="86.4268" x="1233" y="494.8467">InputReader</text></g><!--class MatchConfig--><g class="entity" data-entity="MatchConfig" data-source-line="86" data-uid="ent0024" id="entity_MatchConfig"><rect fill="#F1F1F1" height="32" rx="2.5" ry="2.5" style="stroke:#181818;stroke-width:0.5;" width="119.6367" x="926" y="299"/><ellipse cx="941" cy="315" fill="#ADD1B2" rx="11" ry="11" style="stroke:#181818;stroke-width:1;"/><path d="M943.9688,320.6406 Q943.3906,320.9375 942.75,321.0781 Q942.1094,321.2344 941.4063,321.2344 Q938.9063,321.2344 937.5781,319.5938 Q936.2656,317.9375 936.2656,314.8125 Q936.2656,311.6875 937.5781,310.0313 Q938.9063,308.375 941.4063,308.375 Q942.1094,308.375 942.75,308.5313 Q943.4063,308.6875 943.9688,308.9844 L943.9688,311.7031 Q943.3438,311.125 942.75,310.8594 Q942.1563,310.5781 941.5313,310.5781 Q940.1875,310.5781 939.5,311.6563 Q938.8125,312.7188 938.8125,314.8125 Q938.8125,316.9063 939.5,317.9844 Q940.1875,319.0469 941.5313,319.0469 Q942.1563,319.0469 942.75,318.7813 Q943.3438,318.5 943.9688,317.9219 L943.9688,320.6406 Z " fill="#000000"/><text fill="#000000" font-family="sans-serif" font-size="14" lengthAdjust="spacing" textLength="87.6367" x="955" y="319.8467">MatchConfig</text></g><!--class OutputWriter--><g class="entity" data-entity="OutputWriter" data-source-line="95" data-uid="ent0025" id="entity_OutputWriter"><rect fill="#F1F1F1" height="32" rx="2.5" ry="2.5" style="stroke:#181818;stroke-width:0.5;" width="123.9775" x="1403" y="474"/><ellipse cx="1418" cy="490" fill="#ADD1B2" rx="11" ry="11" style="stroke:#181818;stroke-width:1;"/><path d="M1420.9688,495.6406 Q1420.3906,495.9375 1419.75,496.0781 Q1419.1094,496.2344 1418.4063,496.2344 Q1415.9063,496.2344 1414.5781,494.5938 Q1413.2656,492.9375 1413.2656,489.8125 Q1413.2656,486.6875 1414.5781,485.0313 Q1415.9063,483.375 1418.4063,483.375 Q1419.1094,483.375 1419.75,483.5313 Q1420.4063,483.6875 1420.9688,483.9844 L1420.9688,486.7031 Q1420.3438,486.125 1419.75,485.8594 Q1419.1563,485.5781 1418.5313,485.5781 Q1417.1875,485.5781 1416.5,486.6563 Q1415.8125,487.7188 1415.8125,489.8125 Q1415.8125,491.9063 1416.5,492.9844 Q1417.1875,494.0469 1418.5313,494.0469 Q1419.1563,494.0469 1419.75,493.7813 Q1420.3438,493.5 1420.9688,492.9219 L1420.9688,495.6406 Z " fill="#000000"/><text fill="#000000" font-family="sans-serif" font-size="14" lengthAdjust="spacing" textLength="91.9775" x="1432" y="494.8467">OutputWriter</text></g><!--class GameAbortedException--><g class="entity" data-entity="GameAbortedException" data-source-line="105" data-uid="ent0026" id="entity_GameAbortedException"><rect fill="#F1F1F1" height="32" rx="2.5" ry="2.5" style="stroke:#181818;stroke-width:0.5;" width="198.5986" x="1804.5" y="299"/><ellipse cx="1819.5" cy="315" fill="#ADD1B2" rx="11" ry="11" style="stroke:#181818;stroke-width:1;"/><path d="M1822.4688,320.6406 Q1821.8906,320.9375 1821.25,321.0781 Q1820.6094,321.2344 1819.9063,321.2344 Q1817.4063,321.2344 1816.0781,319.5938 Q1814.7656,317.9375 1814.7656,314.8125 Q1814.7656,311.6875 1816.0781,310.0313 Q1817.4063,308.375 1819.9063,308.375 Q1820.6094,308.375 1821.25,308.5313 Q1821.9063,308.6875 1822.4688,308.9844 L1822.4688,311.7031 Q1821.8438,311.125 1821.25,310.8594 Q1820.6563,310.5781 1820.0313,310.5781 Q1818.6875,310.5781 1818,311.6563 Q1817.3125,312.7188 1817.3125,314.8125 Q1817.3125,316.9063 1818,317.9844 Q1818.6875,319.0469 1820.0313,319.0469 Q1820.6563,319.0469 1821.25,318.7813 Q1821.8438,318.5 1822.4688,317.9219 L1822.4688,320.6406 Z " fill="#000000"/><text fill="#000000" font-family="sans-serif" font-size="14" lengthAdjust="spacing" textLength="166.5986" x="1833.5" y="319.8467">GameAbortedException</text></g><!--class MatchAbortedException--><g class="entity" data-entity="MatchAbortedException" data-source-line="109" data-uid="ent0028" id="entity_MatchAbortedException"><rect fill="#F1F1F1" height="32" rx="2.5" ry="2.5" style="stroke:#181818;stroke-width:0.5;" width="199.6377" x="1569" y="299"/><ellipse cx="1584" cy="315" fill="#ADD1B2" rx="11" ry="11" style="stroke:#181818;stroke-width:1;"/><path d="M1586.9688,320.6406 Q1586.3906,320.9375 1585.75,321.0781 Q1585.1094,321.2344 1584.4063,321.2344 Q1581.9063,321.2344 1580.5781,319.5938 Q1579.2656,317.9375 1579.2656,314.8125 Q1579.2656,311.6875 1580.5781,310.0313 Q1581.9063,308.375 1584.4063,308.375 Q1585.1094,308.375 1585.75,308.5313 Q1586.4063,308.6875 1586.9688,308.9844 L1586.9688,311.7031 Q1586.3438,311.125 1585.75,310.8594 Q1585.1563,310.5781 1584.5313,310.5781 Q1583.1875,310.5781 1582.5,311.6563 Q1581.8125,312.7188 1581.8125,314.8125 Q1581.8125,316.9063 1582.5,317.9844 Q1583.1875,319.0469 1584.5313,319.0469 Q1585.1563,319.0469 1585.75,318.7813 Q1586.3438,318.5 1586.9688,317.9219 L1586.9688,320.6406 Z " fill="#000000"/><text fill="#000000" font-family="sans-serif" font-size="14" lengthAdjust="spacing" textLength="167.6377" x="1598" y="319.8467">MatchAbortedException</text></g><!--class HomeScreen--><g class="entity" data-entity="HomeScreen" data-source-line="113" data-uid="ent0029" id="entity_HomeScreen"><rect fill="#F1F1F1" height="32" rx="2.5" ry="2.5" style="stroke:#181818;stroke-width:0.5;" width="121.7832" x="1391" y="299"/><ellipse cx="1406" cy="315" fill="#ADD1B2" rx="11" ry="11" style="stroke:#181818;stroke-width:1;"/><path d="M1408.9688,320.6406 Q1408.3906,320.9375 1407.75,321.0781 Q1407.1094,321.2344 1406.4063,321.2344 Q1403.9063,321.2344 1402.5781,319.5938 Q1401.2656,317.9375 1401.2656,314.8125 Q1401.2656,311.6875 1402.5781,310.0313 Q1403.9063,308.375 1406.4063,308.375 Q1407.1094,308.375 1407.75,308.5313 Q1408.4063,308.6875 1408.9688,308.9844 L1408.9688,311.7031 Q1408.3438,311.125 1407.75,310.8594 Q1407.1563,310.5781 1406.5313,310.5781 Q1405.1875,310.5781 1404.5,311.6563 Q1403.8125,312.7188 1403.8125,314.8125 Q1403.8125,316.9063 1404.5,317.9844 Q1405.1875,319.0469 1406.5313,319.0469 Q1407.1563,319.0469 1407.75,318.7813 Q1408.3438,318.5 1408.9688,317.9219 L1408.9688,320.6406 Z " fill="#000000"/><text fill="#000000" font-family="sans-serif" font-size="14" lengthAdjust="spacing" textLength="89.7832" x="1420" y="319.8467">HomeScreen</text></g><!--class MatchScreen--><g class="entity" data-entity="MatchScreen" data-source-line="119" data-uid="ent0031" id="entity_MatchScreen"><rect fill="#F1F1F1" height="32" rx="2.5" ry="2.5" style="stroke:#181818;stroke-width:0.5;" width="123.1572" x="1232.5" y="299"/><ellipse cx="1247.5" cy="315" fill="#ADD1B2" rx="11" ry="11" style="stroke:#181818;stroke-width:1;"/><path d="M1250.4688,320.6406 Q1249.8906,320.9375 1249.25,321.0781 Q1248.6094,321.2344 1247.9063,321.2344 Q1245.4063,321.2344 1244.0781,319.5938 Q1242.7656,317.9375 1242.7656,314.8125 Q1242.7656,311.6875 1244.0781,310.0313 Q1245.4063,308.375 1247.9063,308.375 Q1248.6094,308.375 1249.25,308.5313 Q1249.9063,308.6875 1250.4688,308.9844 L1250.4688,311.7031 Q1249.8438,311.125 1249.25,310.8594 Q1248.6563,310.5781 1248.0313,310.5781 Q1246.6875,310.5781 1246,311.6563 Q1245.3125,312.7188 1245.3125,314.8125 Q1245.3125,316.9063 1246,317.9844 Q1246.6875,319.0469 1248.0313,319.0469 Q1248.6563,319.0469 1249.25,318.7813 Q1249.8438,318.5 1250.4688,317.9219 L1250.4688,320.6406 Z " fill="#000000"/><text fill="#000000" font-family="sans-serif" font-size="14" lengthAdjust="spacing" textLength="91.1572" x="1261.5" y="319.8467">MatchScreen</text></g><!--class AbstractPlayer--><g class="entity" data-entity="AbstractPlayer" data-source-line="127" data-uid="ent0032" id="entity_AbstractPlayer"><rect fill="#F1F1F1" height="32" rx="2.5" ry="2.5" style="stroke:#181818;stroke-width:0.5;" width="134.334" x="736" y="474"/><ellipse cx="751" cy="490" fill="#A9DCDF" rx="11" ry="11" style="stroke:#181818;stroke-width:1;"/><path d="M751.1094,485.3438 L749.9531,490.4219 L752.2813,490.4219 L751.1094,485.3438 Z M749.625,483.1094 L752.6094,483.1094 L755.9688,495.5 L753.5156,495.5 L752.75,492.4375 L749.4688,492.4375 L748.7188,495.5 L746.2813,495.5 L749.625,483.1094 Z " fill="#000000"/><text fill="#000000" font-family="sans-serif" font-size="14" font-style="italic" lengthAdjust="spacing" textLength="102.334" x="765" y="494.8467">AbstractPlayer</text></g><!--class BotPlayer--><g class="entity" data-entity="BotPlayer" data-source-line="132" data-uid="ent0034" id="entity_BotPlayer"><rect fill="#F1F1F1" height="32" rx="2.5" ry="2.5" style="stroke:#181818;stroke-width:0.5;" width="99.2246" x="365.5" y="299"/><ellipse cx="380.5" cy="315" fill="#ADD1B2" rx="11" ry="11" style="stroke:#181818;stroke-width:1;"/><path d="M383.4688,320.6406 Q382.8906,320.9375 382.25,321.0781 Q381.6094,321.2344 380.9063,321.2344 Q378.4063,321.2344 377.0781,319.5938 Q375.7656,317.9375 375.7656,314.8125 Q375.7656,311.6875 377.0781,310.0313 Q378.4063,308.375 380.9063,308.375 Q381.6094,308.375 382.25,308.5313 Q382.9063,308.6875 383.4688,308.9844 L383.4688,311.7031 Q382.8438,311.125 382.25,310.8594 Q381.6563,310.5781 381.0313,310.5781 Q379.6875,310.5781 379,311.6563 Q378.3125,312.7188 378.3125,314.8125 Q378.3125,316.9063 379,317.9844 Q379.6875,319.0469 381.0313,319.0469 Q381.6563,319.0469 382.25,318.7813 Q382.8438,318.5 383.4688,317.9219 L383.4688,320.6406 Z " fill="#000000"/><text fill="#000000" font-family="sans-serif" font-size="14" lengthAdjust="spacing" textLength="67.2246" x="394.5" y="319.8467">BotPlayer</text></g><!--class HumanPlayer--><g class="entity" data-entity="HumanPlayer" data-source-line="137" data-uid="ent0035" id="entity_HumanPlayer"><rect fill="#F1F1F1" height="32" rx="2.5" ry="2.5" style="stroke:#181818;stroke-width:0.5;" width="126.0557" x="500" y="299"/><ellipse cx="515" cy="315" fill="#ADD1B2" rx="11" ry="11" style="stroke:#181818;stroke-width:1;"/><path d="M517.9688,320.6406 Q517.3906,320.9375 516.75,321.0781 Q516.1094,321.2344 515.4063,321.2344 Q512.9063,321.2344 511.5781,319.5938 Q510.2656,317.9375 510.2656,314.8125 Q510.2656,311.6875 511.5781,310.0313 Q512.9063,308.375 515.4063,308.375 Q516.1094,308.375 516.75,308.5313 Q517.4063,308.6875 517.9688,308.9844 L517.9688,311.7031 Q517.3438,311.125 516.75,310.8594 Q516.1563,310.5781 515.5313,310.5781 Q514.1875,310.5781 513.5,311.6563 Q512.8125,312.7188 512.8125,314.8125 Q512.8125,316.9063 513.5,317.9844 Q514.1875,319.0469 515.5313,319.0469 Q516.1563,319.0469 516.75,318.7813 Q517.3438,318.5 517.9688,317.9219 L517.9688,320.6406 Z " fill="#000000"/><text fill="#000000" font-family="sans-serif" font-size="14" lengthAdjust="spacing" textLength="94.0557" x="529" y="319.8467">HumanPlayer</text></g><!--class InvalidMoveException--><g class="entity" data-entity="InvalidMoveException" data-source-line="142" data-uid="ent0036" id="entity_InvalidMoveException"><rect fill="#F1F1F1" height="32" rx="2.5" ry="2.5" style="stroke:#181818;stroke-width:0.5;" width="185.2207" x="661.5" y="299"/><ellipse cx="676.5" cy="315" fill="#ADD1B2" rx="11" ry="11" style="stroke:#181818;stroke-width:1;"/><path d="M679.4688,320.6406 Q678.8906,320.9375 678.25,321.0781 Q677.6094,321.2344 676.9063,321.2344 Q674.4063,321.2344 673.0781,319.5938 Q671.7656,317.9375 671.7656,314.8125 Q671.7656,311.6875 673.0781,310.0313 Q674.4063,308.375 676.9063,308.375 Q677.6094,308.375 678.25,308.5313 Q678.9063,308.6875 679.4688,308.9844 L679.4688,311.7031 Q678.8438,311.125 678.25,310.8594 Q677.6563,310.5781 677.0313,310.5781 Q675.6875,310.5781 675,311.6563 Q674.3125,312.7188 674.3125,314.8125 Q674.3125,316.9063 675,317.9844 Q675.6875,319.0469 677.0313,319.0469 Q677.6563,319.0469 678.25,318.7813 Q678.8438,318.5 679.4688,317.9219 L679.4688,320.6406 Z " fill="#000000"/><text fill="#000000" font-family="sans-serif" font-size="14" lengthAdjust="spacing" textLength="153.2207" x="690.5" y="319.8467">InvalidMoveException</text></g><!--class MiniMax--><g class="entity" data-entity="MiniMax" data-source-line="147" data-uid="ent0038" id="entity_MiniMax"><rect fill="#F1F1F1" height="32" rx="2.5" ry="2.5" style="stroke:#181818;stroke-width:0.5;" width="89.6748" x="219" y="299"/><ellipse cx="234" cy="315" fill="#ADD1B2" rx="11" ry="11" style="stroke:#181818;stroke-width:1;"/><path d="M236.9688,320.6406 Q236.3906,320.9375 235.75,321.0781 Q235.1094,321.2344 234.4063,321.2344 Q231.9063,321.2344 230.5781,319.5938 Q229.2656,317.9375 229.2656,314.8125 Q229.2656,311.6875 230.5781,310.0313 Q231.9063,308.375 234.4063,308.375 Q235.1094,308.375 235.75,308.5313 Q236.4063,308.6875 236.9688,308.9844 L236.9688,311.7031 Q236.3438,311.125 235.75,310.8594 Q235.1563,310.5781 234.5313,310.5781 Q233.1875,310.5781 232.5,311.6563 Q231.8125,312.7188 231.8125,314.8125 Q231.8125,316.9063 232.5,317.9844 Q233.1875,319.0469 234.5313,319.0469 Q235.1563,319.0469 235.75,318.7813 Q236.3438,318.5 236.9688,317.9219 L236.9688,320.6406 Z " fill="#000000"/><text fill="#000000" font-family="sans-serif" font-size="14" lengthAdjust="spacing" textLength="57.6748" x="248" y="319.8467">MiniMax</text></g><!--reverse link Piece to PieceType--><g class="link" data-entity-1="Piece" data-entity-2="PieceType" data-source-line="156" data-uid="lnk40" id="link_Piece_PieceType"><path codeLine="156" d="M2227.6264,516.1712 C2241.3864,536.9912 2259.36,564.22 2273.07,584.97" fill="none" id="Piece-backto-PieceType" style="stroke:#181818;stroke-width:1;"/><polygon fill="#181818" points="2221.01,506.16,2220.9811,513.371,2227.6264,516.1712,2227.6553,508.9601,2221.01,506.16" style="stroke:#181818;stroke-width:1;"/><text fill="#000000" font-family="sans-serif" font-size="13" lengthAdjust="spacing" textLength="29.0405" x="2252" y="551.0669">type</text></g><!--reverse link Piece to PlayerColor--><g class="link" data-entity-1="Piece" data-entity-2="PlayerColor" data-source-line="157" data-uid="lnk41" id="link_Piece_PlayerColor"><path codeLine="157" d="M2194.5776,516.2132 C2181.0076,537.0332 2163.31,564.22 2149.79,584.97" fill="none" id="Piece-backto-PlayerColor" style="stroke:#181818;stroke-width:1;"/><polygon fill="#181818" points="2201.13,506.16,2194.5027,509.0024,2194.5776,516.2132,2201.2048,513.3707,2201.13,506.16" style="stroke:#181818;stroke-width:1;"/><text fill="#000000" font-family="sans-serif" font-size="13" lengthAdjust="spacing" textLength="32.0112" x="2180" y="551.0669">color</text></g><!--reverse link BoardRenderer to FieldRenderer--><g class="link" data-entity-1="BoardRenderer" data-entity-2="FieldRenderer" data-source-line="158" data-uid="lnk42" id="link_BoardRenderer_FieldRenderer"><path codeLine="158" d="M2776,629.16 C2776,649.98 2776,675.22 2776,695.97" fill="none" id="BoardRenderer-backto-FieldRenderer" style="stroke:#181818;stroke-width:1;"/><polygon fill="#181818" points="2776,617.16,2772,623.16,2776,629.16,2780,623.16,2776,617.16" style="stroke:#181818;stroke-width:1;"/><text fill="#000000" font-family="sans-serif" font-size="13" lengthAdjust="spacing" textLength="43.1768" x="2777" y="662.0669">render</text></g><!--reverse link ChessBoardRenderer to BoardRenderer--><g class="link" data-entity-1="ChessBoardRenderer" data-entity-2="BoardRenderer" data-source-line="159" data-uid="lnk43" id="link_ChessBoardRenderer_BoardRenderer"><path codeLine="159" d="M2782.762,518.1193 C2781.042,538.9393 2778.95,564.22 2777.24,584.97" fill="none" id="ChessBoardRenderer-backto-BoardRenderer" style="stroke:#181818;stroke-width:1;"/><polygon fill="#181818" points="2783.75,506.16,2779.2696,511.8103,2782.762,518.1193,2787.2424,512.469,2783.75,506.16" style="stroke:#181818;stroke-width:1;"/><text fill="#000000" font-family="sans-serif" font-size="13" lengthAdjust="spacing" textLength="97.9761" x="2782" y="551.0669">boardRenderer</text></g><!--reverse link MatchConfig to AbstractPlayer--><g class="link" data-entity-1="MatchConfig" data-entity-2="AbstractPlayer" data-source-line="160" data-uid="lnk44" id="link_MatchConfig_AbstractPlayer"><path codeLine="160" d="M914.3928,331.5361 C891.5628,338.5761 878.17,346.02 860,363 C826.84,393.98 811.58,447.89 805.86,473.99" fill="none" id="MatchConfig-backto-AbstractPlayer" style="stroke:#181818;stroke-width:1;"/><polygon fill="#181818" points="925.86,328,918.9477,325.9457,914.3928,331.5361,921.3051,333.5904,925.86,328" style="stroke:#181818;stroke-width:1;"/><text fill="#000000" font-family="sans-serif" font-size="13" lengthAdjust="spacing" textLength="34.5059" x="861" y="376.0669">black</text></g><!--reverse link MatchConfig to AbstractPlayer--><g class="link" data-entity-1="MatchConfig" data-entity-2="AbstractPlayer" data-source-line="161" data-uid="lnk45" id="link_MatchConfig_AbstractPlayer"><path codeLine="161" d="M933.2452,334.9217 C909.3752,343.0817 889.99,348.84 862,355 C848.43,357.98 809.17,352.57 800,363 C772.84,393.89 787.19,447.36 796.73,473.59" fill="none" id="MatchConfig-backto-AbstractPlayer-1" style="stroke:#181818;stroke-width:1;"/><polygon fill="#181818" points="944.6,331.04,937.6287,329.1959,933.2452,334.9217,940.2165,336.7658,944.6,331.04" style="stroke:#181818;stroke-width:1;"/><text fill="#000000" font-family="sans-serif" font-size="13" lengthAdjust="spacing" textLength="35.5786" x="801" y="376.0669">white</text></g><!--reverse link HomeScreen to InputReader--><g class="link" data-entity-1="HomeScreen" data-entity-2="InputReader" data-source-line="162" data-uid="lnk46" id="link_HomeScreen_InputReader"><path codeLine="162" d="M1416.8291,336.8818 C1401.6991,345.3518 1392.1,349.46 1373,355 C1356.9,359.67 1310.79,352.16 1298,363 C1265.09,390.89 1261.75,446.79 1262.22,473.75" fill="none" id="HomeScreen-backto-InputReader" style="stroke:#181818;stroke-width:1;"/><polygon fill="#181818" points="1427.3,331.02,1420.1106,330.4606,1416.8291,336.8818,1424.0185,337.4412,1427.3,331.02" style="stroke:#181818;stroke-width:1;"/><text fill="#000000" font-family="sans-serif" font-size="13" lengthAdjust="spacing" textLength="42.9038" x="1299" y="376.0669">reader</text></g><!--link HomeScreen to OutputWriter--><g class="link" data-entity-1="HomeScreen" data-entity-2="OutputWriter" data-source-line="163" data-uid="lnk47" id="link_HomeScreen_OutputWriter"><path codeLine="163" d="M1453.13,331.05 C1455.59,363.77 1460.9513,435.0768 1463.4113,467.8768" fill="none" id="HomeScreen-to-OutputWriter" style="stroke:#181818;stroke-width:1;"/><polygon fill="#181818" points="1463.86,473.86,1467.1757,464.586,1463.4861,468.874,1459.1981,465.1844,1463.86,473.86" style="stroke:#181818;stroke-width:1;"/><text fill="#000000" font-family="sans-serif" font-size="13" lengthAdjust="spacing" textLength="38.0288" x="1457" y="376.0669">writer</text></g><!--link MatchScreen to ChessBoard--><g class="link" data-entity-1="MatchScreen" data-entity-2="ChessBoard" data-source-line="164" data-uid="lnk48" id="link_MatchScreen_ChessBoard"><path codeLine="164" d="M1317.81,331.06 C1333.2,339.9 1354.01,350.24 1374,355 C1406.11,362.64 1935.02,361.7 1968,363 C2053.23,366.35 2273.57,352.23 2351,388 C2391.59,406.75 2420.9361,445.295 2436.2461,468.605" fill="none" id="MatchScreen-to-ChessBoard" style="stroke:#181818;stroke-width:1;"/><polygon fill="#181818" points="2439.54,473.62,2437.9426,463.9016,2436.7951,469.4408,2431.2559,468.2934,2439.54,473.62" style="stroke:#181818;stroke-width:1;"/><text fill="#000000" font-family="sans-serif" font-size="13" lengthAdjust="spacing" textLength="74.6992" x="2324" y="376.0669">chessboard</text></g><!--link MatchScreen to ChessBoardRenderer--><g class="link" data-entity-1="MatchScreen" data-entity-2="ChessBoardRenderer" data-source-line="165" data-uid="lnk49" id="link_MatchScreen_ChessBoardRenderer"><path codeLine="165" d="M1317.8,331.1 C1333.18,339.96 1353.99,350.3 1374,355 C1429.87,368.12 2349.68,360.14 2407,363 C2527.81,369.03 2567.77,338.21 2678,388 C2720.6,407.24 2753.381,445.7818 2770.661,468.9318" fill="none" id="MatchScreen-to-ChessBoardRenderer" style="stroke:#181818;stroke-width:1;"/><polygon fill="#181818" points="2774.25,473.74,2772.0719,464.135,2771.2591,469.7332,2765.661,468.9204,2774.25,473.74" style="stroke:#181818;stroke-width:1;"/><text fill="#000000" font-family="sans-serif" font-size="13" lengthAdjust="spacing" textLength="135.5732" x="2659" y="376.0669">chessBoardRenderer</text></g><!--link MatchScreen to OutputWriter--><g class="link" data-entity-1="MatchScreen" data-entity-2="OutputWriter" data-source-line="166" data-uid="lnk50" id="link_MatchScreen_OutputWriter"><path codeLine="166" d="M1313.21,331.06 C1324.28,340 1338.28,351.75 1350,363 C1389.33,400.72 1427.6515,444.7321 1448.2815,469.0821" fill="none" id="MatchScreen-to-OutputWriter" style="stroke:#181818;stroke-width:1;"/><polygon fill="#181818" points="1452.16,473.66,1449.3942,464.2075,1448.9279,469.8451,1443.2903,469.3788,1452.16,473.66" style="stroke:#181818;stroke-width:1;"/><text fill="#000000" font-family="sans-serif" font-size="13" lengthAdjust="spacing" textLength="38.0288" x="1367" y="376.0669">writer</text></g><!--link MatchScreen to AbstractPlayer--><g class="link" data-entity-1="MatchScreen" data-entity-2="AbstractPlayer" data-source-line="167" data-uid="lnk51" id="link_MatchScreen_AbstractPlayer"><path codeLine="167" d="M1274.74,331.1 C1262.41,339.84 1245.65,350.05 1229,355 C1182.96,368.68 1059.67,351.62 1013,363 C995.81,367.19 994.01,375.11 977,380 C948.18,388.29 937.16,375.29 910,388 C867.66,407.81 834.799,446.1243 817.429,469.0943" fill="none" id="MatchScreen-to-AbstractPlayer" style="stroke:#181818;stroke-width:1;"/><polygon fill="#181818" points="813.81,473.88,822.4289,469.1141,816.8258,469.8919,816.048,464.2888,813.81,473.88" style="stroke:#181818;stroke-width:1;"/><text fill="#000000" font-family="sans-serif" font-size="13" lengthAdjust="spacing" textLength="34.5059" x="1014" y="376.0669">black</text></g><!--link MatchScreen to AbstractPlayer--><g class="link" data-entity-1="MatchScreen" data-entity-2="AbstractPlayer" data-source-line="168" data-uid="lnk52" id="link_MatchScreen_AbstractPlayer"><path codeLine="168" d="M1274.42,331.18 C1262.11,339.82 1245.47,349.92 1229,355 C1170.72,372.99 1151.32,348.82 1092,363 C1073.61,367.4 1071.4,375.63 1053,380 C1022.04,387.36 939.24,375.42 910,388 C866.82,406.57 833.9836,445.7782 816.9236,469.0882" fill="none" id="MatchScreen-to-AbstractPlayer-1" style="stroke:#181818;stroke-width:1;"/><polygon fill="#181818" points="813.38,473.93,821.9232,469.0297,816.333,469.8952,815.4675,464.3049,813.38,473.93" style="stroke:#181818;stroke-width:1;"/><text fill="#000000" font-family="sans-serif" font-size="13" lengthAdjust="spacing" textLength="87.8643" x="1093" y="376.0669">currentPlayer</text></g><!--link MatchScreen to AbstractPlayer--><g class="link" data-entity-1="MatchScreen" data-entity-2="AbstractPlayer" data-source-line="169" data-uid="lnk53" id="link_MatchScreen_AbstractPlayer"><path codeLine="169" d="M1274.76,331.16 C1262.44,339.92 1245.68,350.14 1229,355 C1197.31,364.24 962.4,350.14 932,363 C876.64,386.42 835.1175,440.6174 816.1375,468.7274" fill="none" id="MatchScreen-to-AbstractPlayer-2" style="stroke:#181818;stroke-width:1;"/><polygon fill="#181818" points="812.78,473.7,821.1314,468.4794,815.5779,469.5561,814.5012,464.0027,812.78,473.7" style="stroke:#181818;stroke-width:1;"/><text fill="#000000" font-family="sans-serif" font-size="13" lengthAdjust="spacing" textLength="35.5786" x="933" y="376.0669">white</text></g><!--reverse link AbstractPlayer to PlayerColor--><g class="link" data-entity-1="AbstractPlayer" data-entity-2="PlayerColor" data-source-line="170" data-uid="lnk54" id="link_AbstractPlayer_PlayerColor"><path codeLine="170" d="M847.5548,510.6764 C868.2948,519.2764 884.63,524.77 910,530 C1139,577.18 1873.93,594.83 2083.65,598.98" fill="none" id="AbstractPlayer-backto-PlayerColor" style="stroke:#181818;stroke-width:1;"/><polygon fill="#181818" points="836.47,506.08,840.4803,512.0731,847.5548,510.6764,843.5445,504.6833,836.47,506.08" style="stroke:#181818;stroke-width:1;"/><text fill="#000000" font-family="sans-serif" font-size="13" lengthAdjust="spacing" textLength="74.8071" x="1086" y="551.0669">playerColor</text></g><!--link BotPlayer to AbstractPlayer--><g class="link" data-entity-1="BotPlayer" data-entity-2="AbstractPlayer" data-source-line="171" data-uid="lnk55" id="link_BotPlayer_AbstractPlayer"><path codeLine="171" d="M439.47,331.02 C452.24,338.6 468.23,347.71 483,355 C581.15,403.47 684.4001,444.2761 745.8001,467.5661" fill="none" id="BotPlayer-to-AbstractPlayer" style="stroke:#181818;stroke-width:1;"/><polygon fill="none" points="762.63,473.95,747.928,461.9562,743.6721,473.1761,762.63,473.95" style="stroke:#181818;stroke-width:1;"/></g><!--reverse link HumanPlayer to InputReader--><g class="link" data-entity-1="HumanPlayer" data-entity-2="InputReader" data-source-line="172" data-uid="lnk56" id="link_HumanPlayer_InputReader"><path codeLine="172" d="M598.2847,336.8609 C614.2747,345.6909 625.37,350.23 646,355 C675.02,361.71 1155.97,348.53 1182,363 C1225.64,387.25 1249.38,446 1258.53,473.86" fill="none" id="HumanPlayer-backto-InputReader" style="stroke:#181818;stroke-width:1;"/><polygon fill="#181818" points="587.78,331.06,591.0987,337.462,598.2847,336.8609,594.966,330.4589,587.78,331.06" style="stroke:#181818;stroke-width:1;"/><text fill="#000000" font-family="sans-serif" font-size="13" lengthAdjust="spacing" textLength="42.9038" x="1205" y="376.0669">reader</text></g><!--link HumanPlayer to AbstractPlayer--><g class="link" data-entity-1="HumanPlayer" data-entity-2="AbstractPlayer" data-source-line="173" data-uid="lnk57" id="link_HumanPlayer_AbstractPlayer"><path codeLine="173" d="M583.88,331.05 C629.27,363.77 721.8985,430.5341 767.3985,463.3341" fill="none" id="HumanPlayer-to-AbstractPlayer" style="stroke:#181818;stroke-width:1;"/><polygon fill="none" points="782,473.86,770.9071,458.4669,763.8898,468.2012,782,473.86" style="stroke:#181818;stroke-width:1;"/></g><!--reverse link MiniMax to EvalStrategy--><g class="link" data-entity-1="MiniMax" data-entity-2="EvalStrategy" data-source-line="174" data-uid="lnk58" id="link_MiniMax_EvalStrategy"><path codeLine="174" d="M261.5035,342.9989 C258.4735,375.7189 252.43,441.06 249.4,473.86" fill="none" id="MiniMax-backto-EvalStrategy" style="stroke:#181818;stroke-width:1;"/><polygon fill="#181818" points="262.61,331.05,258.0738,336.6556,261.5035,342.9989,266.0397,337.3933,262.61,331.05" style="stroke:#181818;stroke-width:1;"/><text fill="#000000" font-family="sans-serif" font-size="13" lengthAdjust="spacing" textLength="82.9702" x="260" y="376.0669">evalStrategy</text></g><!--SRC=[pLXBK-is55xNlqBBszv6Cw4x5fq94203UPI4OTcHxHDRLB5II-R2KFZjrSCcSc9YYzVSdIthlC_vzCaH8qAWACMfO0MEYC0h0J4E6G-NLAHuJ6Y67eDV7bSWKnu_8VGe994qUaBFA_tjsw_e4Drn6WTFGH14BUf28W3FA4HGK_ezuepdLbURC2CFa1_h_Qu2-BSWJA1lQ4roifg6jn39lj9cdv1M77BEW6Ikr1BA08vJ9HP9gEbCYKYFUGns2ysa-r7okSnfbjYFzhds_M4DtGBIsLYetIQ1a1MhpX8cXqiAJ1iy6itFfpDduM8qENDV9wEpyuMpC1lSJ9pNlww7G_VzQZgzwExIfYfrfou7nnVE-ytvQ37irYcSv34-Ja688_tegdrfmTvyCRXQpARpqM8qdVnzEfoujIXtzumgNGY-mWcLQH7YC6KaItX6RtCSQHkCXjZOSMiOyp6_WwgfhDx-YmNKKjoj05p52SZX7M65YeAN7HZp8cImjUcqwi_T_gBYZAnWUWVbs3HqDnNQ_Kj82DiRGuCeqq9QMbZjj-IEu49IXY-fa1u5BAXDwnLaCUIGryR-EJUhbNFNr6pjTqYhKblkHhzROQS33xnG13dvzOfhKzfQS5NNAQ-4MkeKYwgpKJGpCcuXwXdQATz71wz03l8bKV3SnMiTQMDXqIC9XTI8kXF2DJLYdOjiTc-xsGP9bVXSdGevxCBIoU3AHQLBWunTumSrkLYFhtA8I4WUNWzzQyxtp60v_bqQC55pRvjF8q2jvvJpAvgfSJz4F4_mBQCPu6eHBye7nzkUI7cXYwWGDPULXwDiNSWh8Afi- -jaN75sL_quBQHQkycfidtGhi7T_XeYbGw-i0qdXXzQS9Z5EXrZbHQIl62sgxd_1aSw4vkTJBXboUsIMnIxfD0q0ojG7teIwozxEyO3ienpOo8ZHMUo9Ktgt2ja9FgdZQgi3MRWGTdR5aBUJy3UHR5-fAfERtEySzPg7U7KzDbxrBulMI7InWx-lbQXoRtLRfGOPF6fLUehoRAto7Itrpc_S1_1MgEZm7fy1o7F9SJ3QbMb_2sgJA-_HvU8Se0Cd_CLpCrZVMGKhhlZrDA2s-FdOfVIv1x7lZSWtu2C5mqHQJycS2yjtsqSjvvfWXaNr3tC76Vw_inZ6ydjQNH2XPvQI-zAE_NvxVkFVDTpHMUqEi5HMsgRBUsZ0viasxWs9BBlTPlmFG9AJuzuavC_WMFdnOfaFwTh3gwCCiNcQAoTSM5bSzBpd2OQzusxNiO4a3nAfPfCFAOP7PFxckA8iAXWXaUUABlfpcbfTbIIxqrKIUEKXGDhg5ef1-YFpIoXLo-lHufKVbRfL3wx_6FwhTT3tV-c72Bzq-O3DJjef_y-QC3slY-t6Mg-Z1qYU-iAtdQFxMgqBgLxmdaFF0XfYy5cd5NsD7Nz0Zk6QGRUdA75siwTGLUDnEsPsxNKw_s9lAYiYiay1FwyeSNMpkZgELSlPlspp3MtSMdvoASh_JtuokI-Qn0-pbnKv0fVgilKbvbj6yDcEN-eNZiCsuDIzNh_-OSLU56ZJq2K1YiV7KW3jsa9PFSVso42vpK8KXe3Ckn8s6TBFKJmFm00]--></g></svg>