<svg xmlns="http://www.w3.org/2000/svg" xmlns:xlink="http://www.w3.org/1999/xlink" contentStyleType="text/css" data-diagram-type="CLASS" height="895px" preserveAspectRatio="none" style="width:2895px;height:895px;background:#FFFFFF;" version="1.1" viewBox="0 0 2895 895" width="2895px" zoomAndPan="magnify"><defs/><g><!--cluster ch--><g class="cluster" data-entity="ch" data-source-line="2" data-uid="ent0003" id="cluster_ch"><path d="M8.5,6 L27.7656,6 A3.75,3.75 0 0 1 30.2656,8.5 L37.2656,28.2969 L2885.5,28.2969 A2.5,2.5 0 0 1 2888,30.7969 L2888,885.5 A2.5,2.5 0 0 1 2885.5,888 L8.5,888 A2.5,2.5 0 0 1 6,885.5 L6,8.5 A2.5,2.5 0 0 1 8.5,6" fill="none" style="stroke:#000000;stroke-width:1.5;"/><line style="stroke:#000000;stroke-width:1.5;" x1="6" x2="37.2656" y1="28.2969" y2="28.2969"/><text fill="#000000" font-family="sans-serif" font-size="14" font-weight="bold" lengthAdjust="spacing" textLength="18.2656" x="10" y="20.9951">ch</text></g><!--cluster hslu--><g class="cluster" data-entity="hslu" data-source-line="2" data-uid="ent0004" id="cluster_hslu"><path d="M32.5,49 L66.5654,49 A3.75,3.75 0 0 1 69.0654,51.5 L76.0654,71.2969 L2861.5,71.2969 A2.5,2.5 0 0 1 2864,73.7969 L2864,861.5 A2.5,2.5 0 0 1 2861.5,864 L32.5,864 A2.5,2.5 0 0 1 30,861.5 L30,51.5 A2.5,2.5 0 0 1 32.5,49" fill="none" style="stroke:#000000;stroke-width:1.5;"/><line style="stroke:#000000;stroke-width:1.5;" x1="30" x2="76.0654" y1="71.2969" y2="71.2969"/><text fill="#000000" font-family="sans-serif" font-size="14" font-weight="bold" lengthAdjust="spacing" textLength="33.0654" x="34" y="63.9951">hslu</text></g><!--cluster cas--><g class="cluster" data-entity="cas" data-source-line="2" data-uid="ent0005" id="cluster_cas"><path d="M56.5,92 L83.5791,92 A3.75,3.75 0 0 1 86.0791,94.5 L93.0791,114.2969 L2837.5,114.2969 A2.5,2.5 0 0 1 2840,116.7969 L2840,837.5 A2.5,2.5 0 0 1 2837.5,840 L56.5,840 A2.5,2.5 0 0 1 54,837.5 L54,94.5 A2.5,2.5 0 0 1 56.5,92" fill="none" style="stroke:#000000;stroke-width:1.5;"/><line style="stroke:#000000;stroke-width:1.5;" x1="54" x2="93.0791" y1="114.2969" y2="114.2969"/><text fill="#000000" font-family="sans-serif" font-size="14" font-weight="bold" lengthAdjust="spacing" textLength="26.0791" x="58" y="106.9951">cas</text></g><!--cluster msed--><g class="cluster" data-entity="msed" data-source-line="2" data-uid="ent0006" id="cluster_msed"><path d="M80.5,135 L123.9375,135 A3.75,3.75 0 0 1 126.4375,137.5 L133.4375,157.2969 L2813.5,157.2969 A2.5,2.5 0 0 1 2816,159.7969 L2816,813.5 A2.5,2.5 0 0 1 2813.5,816 L80.5,816 A2.5,2.5 0 0 1 78,813.5 L78,137.5 A2.5,2.5 0 0 1 80.5,135" fill="none" style="stroke:#000000;stroke-width:1.5;"/><line style="stroke:#000000;stroke-width:1.5;" x1="78" x2="133.4375" y1="157.2969" y2="157.2969"/><text fill="#000000" font-family="sans-serif" font-size="14" font-weight="bold" lengthAdjust="spacing" textLength="42.4375" x="82" y="149.9951">msed</text></g><!--cluster blobfish--><g class="cluster" data-entity="blobfish" data-source-line="2" data-uid="ent0007" id="cluster_blobfish"><path d="M104.5,178 L169.1494,178 A3.75,3.75 0 0 1 171.6494,180.5 L178.6494,200.2969 L2789.5,200.2969 A2.5,2.5 0 0 1 2792,202.7969 L2792,789.5 A2.5,2.5 0 0 1 2789.5,792 L104.5,792 A2.5,2.5 0 0 1 102,789.5 L102,180.5 A2.5,2.5 0 0 1 104.5,178" fill="none" style="stroke:#000000;stroke-width:1.5;"/><line style="stroke:#000000;stroke-width:1.5;" x1="102" x2="178.6494" y1="200.2969" y2="200.2969"/><text fill="#000000" font-family="sans-serif" font-size="14" font-weight="bold" lengthAdjust="spacing" textLength="63.6494" x="106" y="192.9951">blobfish</text></g><!--cluster base--><g class="cluster" data-entity="base" data-source-line="7" data-uid="ent0009" id="cluster_base"><path d="M1923.5,439 L1961.7969,439 A3.75,3.75 0 0 1 1964.2969,441.5 L1971.2969,461.2969 L2201.5,461.2969 A2.5,2.5 0 0 1 2204,463.7969 L2204,630.5 A2.5,2.5 0 0 1 2201.5,633 L1923.5,633 A2.5,2.5 0 0 1 1921,630.5 L1921,441.5 A2.5,2.5 0 0 1 1923.5,439" fill="none" style="stroke:#000000;stroke-width:1.5;"/><line style="stroke:#000000;stroke-width:1.5;" x1="1921" x2="1971.2969" y1="461.2969" y2="461.2969"/><text fill="#000000" font-family="sans-serif" font-size="14" font-weight="bold" lengthAdjust="spacing" textLength="37.2969" x="1925" y="453.9951">base</text></g><!--cluster board--><g class="cluster" data-entity="board" data-source-line="33" data-uid="ent0013" id="cluster_board"><path d="M2230.5,396 L2277.5127,396 A3.75,3.75 0 0 1 2280.0127,398.5 L2287.0127,418.2969 L2765.5,418.2969 A2.5,2.5 0 0 1 2768,420.7969 L2768,765.5 A2.5,2.5 0 0 1 2765.5,768 L2230.5,768 A2.5,2.5 0 0 1 2228,765.5 L2228,398.5 A2.5,2.5 0 0 1 2230.5,396" fill="none" style="stroke:#000000;stroke-width:1.5;"/><line style="stroke:#000000;stroke-width:1.5;" x1="2228" x2="2287.0127" y1="418.2969" y2="418.2969"/><text fill="#000000" font-family="sans-serif" font-size="14" font-weight="bold" lengthAdjust="spacing" textLength="46.0127" x="2232" y="410.9951">board</text></g><!--cluster ui--><g class="cluster" data-entity="ui" data-source-line="45" data-uid="ent0015" id="cluster_ui"><path d="M2381.5,439 L2397.2656,439 A3.75,3.75 0 0 1 2399.7656,441.5 L2406.7656,461.2969 L2741.5,461.2969 A2.5,2.5 0 0 1 2744,463.7969 L2744,741.5 A2.5,2.5 0 0 1 2741.5,744 L2381.5,744 A2.5,2.5 0 0 1 2379,741.5 L2379,441.5 A2.5,2.5 0 0 1 2381.5,439" fill="none" style="stroke:#000000;stroke-width:1.5;"/><line style="stroke:#000000;stroke-width:1.5;" x1="2379" x2="2406.7656" y1="461.2969" y2="461.2969"/><text fill="#000000" font-family="sans-serif" font-size="14" font-weight="bold" lengthAdjust="spacing" textLength="14.7656" x="2383" y="453.9951">ui</text></g><!--cluster game--><g class="cluster" data-entity="game" data-source-line="67" data-uid="ent0020" id="cluster_game"><path d="M765.5,221 L810.0518,221 A3.75,3.75 0 0 1 812.5518,223.5 L819.5518,243.2969 L1894.5,243.2969 A2.5,2.5 0 0 1 1897,245.7969 L1897,519.5 A2.5,2.5 0 0 1 1894.5,522 L765.5,522 A2.5,2.5 0 0 1 763,519.5 L763,223.5 A2.5,2.5 0 0 1 765.5,221" fill="none" style="stroke:#000000;stroke-width:1.5;"/><line style="stroke:#000000;stroke-width:1.5;" x1="763" x2="819.5518" y1="243.2969" y2="243.2969"/><text fill="#000000" font-family="sans-serif" font-size="14" font-weight="bold" lengthAdjust="spacing" textLength="43.5518" x="767" y="235.9951">game</text></g><!--cluster exceptions--><g class="cluster" data-entity="exceptions" data-source-line="100" data-uid="ent0025" id="cluster_exceptions"><path d="M1408.5,264 L1495.25,264 A3.75,3.75 0 0 1 1497.75,266.5 L1504.75,286.2969 L1870.5,286.2969 A2.5,2.5 0 0 1 1873,288.7969 L1873,344.5 A2.5,2.5 0 0 1 1870.5,347 L1408.5,347 A2.5,2.5 0 0 1 1406,344.5 L1406,266.5 A2.5,2.5 0 0 1 1408.5,264" fill="none" style="stroke:#000000;stroke-width:1.5;"/><line style="stroke:#000000;stroke-width:1.5;" x1="1406" x2="1504.75" y1="286.2969" y2="286.2969"/><text fill="#000000" font-family="sans-serif" font-size="14" font-weight="bold" lengthAdjust="spacing" textLength="85.75" x="1410" y="278.9951">exceptions</text></g><!--cluster screen--><g class="cluster" data-entity="screen" data-source-line="108" data-uid="ent0028" id="cluster_screen"><path d="M1071.5,264 L1124.9932,264 A3.75,3.75 0 0 1 1127.4932,266.5 L1134.4932,286.2969 L1379.5,286.2969 A2.5,2.5 0 0 1 1382,288.7969 L1382,344.5 A2.5,2.5 0 0 1 1379.5,347 L1071.5,347 A2.5,2.5 0 0 1 1069,344.5 L1069,266.5 A2.5,2.5 0 0 1 1071.5,264" fill="none" style="stroke:#000000;stroke-width:1.5;"/><line style="stroke:#000000;stroke-width:1.5;" x1="1069" x2="1134.4932" y1="286.2969" y2="286.2969"/><text fill="#000000" font-family="sans-serif" font-size="14" font-weight="bold" lengthAdjust="spacing" textLength="52.4932" x="1073" y="278.9951">screen</text></g><!--cluster player--><g class="cluster" data-entity="player" data-source-line="122" data-uid="ent0031" id="cluster_player"><path d="M204.5,221 L255.293,221 A3.75,3.75 0 0 1 257.793,223.5 L264.793,243.2969 L736.5,243.2969 A2.5,2.5 0 0 1 739,245.7969 L739,519.5 A2.5,2.5 0 0 1 736.5,522 L204.5,522 A2.5,2.5 0 0 1 202,519.5 L202,223.5 A2.5,2.5 0 0 1 204.5,221" fill="none" style="stroke:#000000;stroke-width:1.5;"/><line style="stroke:#000000;stroke-width:1.5;" x1="202" x2="264.793" y1="243.2969" y2="243.2969"/><text fill="#000000" font-family="sans-serif" font-size="14" font-weight="bold" lengthAdjust="spacing" textLength="49.793" x="206" y="235.9951">player</text></g><!--cluster exceptions--><g class="cluster" data-entity="exceptions" data-source-line="137" data-uid="ent0035" id="cluster_exceptions"><path d="M501.5,264 L588.25,264 A3.75,3.75 0 0 1 590.75,266.5 L597.75,286.2969 L712.5,286.2969 A2.5,2.5 0 0 1 715,288.7969 L715,344.5 A2.5,2.5 0 0 1 712.5,347 L501.5,347 A2.5,2.5 0 0 1 499,344.5 L499,266.5 A2.5,2.5 0 0 1 501.5,264" fill="none" style="stroke:#000000;stroke-width:1.5;"/><line style="stroke:#000000;stroke-width:1.5;" x1="499" x2="597.75" y1="286.2969" y2="286.2969"/><text fill="#000000" font-family="sans-serif" font-size="14" font-weight="bold" lengthAdjust="spacing" textLength="85.75" x="503" y="278.9951">exceptions</text></g><!--class Main--><g class="entity" data-entity="Main" data-source-line="2" data-uid="ent0002" id="entity_Main"><rect fill="#F1F1F1" height="32" rx="2.5" ry="2.5" style="stroke:#181818;stroke-width:0.5;" width="65.4209" x="118.5" y="299"/><ellipse cx="133.5" cy="315" fill="#ADD1B2" rx="11" ry="11" style="stroke:#181818;stroke-width:1;"/><path d="M136.4688,320.6406 Q135.8906,320.9375 135.25,321.0781 Q134.6094,321.2344 133.9063,321.2344 Q131.4063,321.2344 130.0781,319.5938 Q128.7656,317.9375 128.7656,314.8125 Q128.7656,311.6875 130.0781,310.0313 Q131.4063,308.375 133.9063,308.375 Q134.6094,308.375 135.25,308.5313 Q135.9063,308.6875 136.4688,308.9844 L136.4688,311.7031 Q135.8438,311.125 135.25,310.8594 Q134.6563,310.5781 134.0313,310.5781 Q132.6875,310.5781 132,311.6563 Q131.3125,312.7188 131.3125,314.8125 Q131.3125,316.9063 132,317.9844 Q132.6875,319.0469 134.0313,319.0469 Q134.6563,319.0469 135.25,318.7813 Q135.8438,318.5 136.4688,317.9219 L136.4688,320.6406 Z " fill="#000000"/><text fill="#000000" font-family="sans-serif" font-size="14" lengthAdjust="spacing" textLength="33.4209" x="147.5" y="319.8467">Main</text></g><!--class Piece--><g class="entity" data-entity="Piece" data-source-line="7" data-uid="ent0008" id="entity_Piece"><rect fill="#F1F1F1" height="32" rx="2.5" ry="2.5" style="stroke:#181818;stroke-width:0.5;" width="69.2559" x="2029.5" y="474"/><ellipse cx="2044.5" cy="490" fill="#ADD1B2" rx="11" ry="11" style="stroke:#181818;stroke-width:1;"/><path d="M2047.4688,495.6406 Q2046.8906,495.9375 2046.25,496.0781 Q2045.6094,496.2344 2044.9063,496.2344 Q2042.4063,496.2344 2041.0781,494.5938 Q2039.7656,492.9375 2039.7656,489.8125 Q2039.7656,486.6875 2041.0781,485.0313 Q2042.4063,483.375 2044.9063,483.375 Q2045.6094,483.375 2046.25,483.5313 Q2046.9063,483.6875 2047.4688,483.9844 L2047.4688,486.7031 Q2046.8438,486.125 2046.25,485.8594 Q2045.6563,485.5781 2045.0313,485.5781 Q2043.6875,485.5781 2043,486.6563 Q2042.3125,487.7188 2042.3125,489.8125 Q2042.3125,491.9063 2043,492.9844 Q2043.6875,494.0469 2045.0313,494.0469 Q2045.6563,494.0469 2046.25,493.7813 Q2046.8438,493.5 2047.4688,492.9219 L2047.4688,495.6406 Z " fill="#000000"/><text fill="#000000" font-family="sans-serif" font-size="14" lengthAdjust="spacing" textLength="37.2559" x="2058.5" y="494.8467">Piece</text></g><!--class PieceType--><g class="entity" data-entity="PieceType" data-source-line="17" data-uid="ent0010" id="entity_PieceType"><rect fill="#F1F1F1" height="32" rx="2.5" ry="2.5" style="stroke:#181818;stroke-width:0.5;" width="103.5928" x="2084" y="585"/><ellipse cx="2099" cy="601" fill="#EB937F" rx="11" ry="11" style="stroke:#181818;stroke-width:1;"/><path d="M2103.1094,607 L2095.3906,607 L2095.3906,594.6094 L2103.1094,594.6094 L2103.1094,596.7656 L2097.8438,596.7656 L2097.8438,599.4375 L2102.6094,599.4375 L2102.6094,601.5938 L2097.8438,601.5938 L2097.8438,604.8438 L2103.1094,604.8438 L2103.1094,607 Z " fill="#000000"/><text fill="#000000" font-family="sans-serif" font-size="14" lengthAdjust="spacing" textLength="71.5928" x="2113" y="605.8467">PieceType</text></g><!--class PlayerColor--><g class="entity" data-entity="PlayerColor" data-source-line="27" data-uid="ent0011" id="entity_PlayerColor"><rect fill="#F1F1F1" height="32" rx="2.5" ry="2.5" style="stroke:#181818;stroke-width:0.5;" width="112.1172" x="1937" y="585"/><ellipse cx="1952" cy="601" fill="#EB937F" rx="11" ry="11" style="stroke:#181818;stroke-width:1;"/><path d="M1956.1094,607 L1948.3906,607 L1948.3906,594.6094 L1956.1094,594.6094 L1956.1094,596.7656 L1950.8438,596.7656 L1950.8438,599.4375 L1955.6094,599.4375 L1955.6094,601.5938 L1950.8438,601.5938 L1950.8438,604.8438 L1956.1094,604.8438 L1956.1094,607 Z " fill="#000000"/><text fill="#000000" font-family="sans-serif" font-size="14" lengthAdjust="spacing" textLength="80.1172" x="1966" y="605.8467">PlayerColor</text></g><!--class ChessBoard--><g class="entity" data-entity="ChessBoard" data-source-line="33" data-uid="ent0012" id="entity_ChessBoard"><rect fill="#F1F1F1" height="32" rx="2.5" ry="2.5" style="stroke:#181818;stroke-width:0.5;" width="115.2412" x="2244.5" y="474"/><ellipse cx="2259.5" cy="490" fill="#ADD1B2" rx="11" ry="11" style="stroke:#181818;stroke-width:1;"/><path d="M2262.4688,495.6406 Q2261.8906,495.9375 2261.25,496.0781 Q2260.6094,496.2344 2259.9063,496.2344 Q2257.4063,496.2344 2256.0781,494.5938 Q2254.7656,492.9375 2254.7656,489.8125 Q2254.7656,486.6875 2256.0781,485.0313 Q2257.4063,483.375 2259.9063,483.375 Q2260.6094,483.375 2261.25,483.5313 Q2261.9063,483.6875 2262.4688,483.9844 L2262.4688,486.7031 Q2261.8438,486.125 2261.25,485.8594 Q2260.6563,485.5781 2260.0313,485.5781 Q2258.6875,485.5781 2258,486.6563 Q2257.3125,487.7188 2257.3125,489.8125 Q2257.3125,491.9063 2258,492.9844 Q2258.6875,494.0469 2260.0313,494.0469 Q2260.6563,494.0469 2261.25,493.7813 Q2261.8438,493.5 2262.4688,492.9219 L2262.4688,495.6406 Z " fill="#000000"/><text fill="#000000" font-family="sans-serif" font-size="14" lengthAdjust="spacing" textLength="83.2412" x="2273.5" y="494.8467">ChessBoard</text></g><!--class BoardRenderer--><g class="entity" data-entity="BoardRenderer" data-source-line="45" data-uid="ent0014" id="entity_BoardRenderer"><rect fill="#F1F1F1" height="32" rx="2.5" ry="2.5" style="stroke:#181818;stroke-width:0.5;" width="138.2305" x="2560" y="585"/><ellipse cx="2575" cy="601" fill="#ADD1B2" rx="11" ry="11" style="stroke:#181818;stroke-width:1;"/><path d="M2577.9688,606.6406 Q2577.3906,606.9375 2576.75,607.0781 Q2576.1094,607.2344 2575.4063,607.2344 Q2572.9063,607.2344 2571.5781,605.5938 Q2570.2656,603.9375 2570.2656,600.8125 Q2570.2656,597.6875 2571.5781,596.0313 Q2572.9063,594.375 2575.4063,594.375 Q2576.1094,594.375 2576.75,594.5313 Q2577.4063,594.6875 2577.9688,594.9844 L2577.9688,597.7031 Q2577.3438,597.125 2576.75,596.8594 Q2576.1563,596.5781 2575.5313,596.5781 Q2574.1875,596.5781 2573.5,597.6563 Q2572.8125,598.7188 2572.8125,600.8125 Q2572.8125,602.9063 2573.5,603.9844 Q2574.1875,605.0469 2575.5313,605.0469 Q2576.1563,605.0469 2576.75,604.7813 Q2577.3438,604.5 2577.9688,603.9219 L2577.9688,606.6406 Z " fill="#000000"/><text fill="#000000" font-family="sans-serif" font-size="14" lengthAdjust="spacing" textLength="106.2305" x="2589" y="605.8467">BoardRenderer</text></g><!--class ChessBoardRenderer--><g class="entity" data-entity="ChessBoardRenderer" data-source-line="50" data-uid="ent0016" id="entity_ChessBoardRenderer"><rect fill="#F1F1F1" height="32" rx="2.5" ry="2.5" style="stroke:#181818;stroke-width:0.5;" width="180.0801" x="2548" y="474"/><ellipse cx="2563" cy="490" fill="#ADD1B2" rx="11" ry="11" style="stroke:#181818;stroke-width:1;"/><path d="M2565.9688,495.6406 Q2565.3906,495.9375 2564.75,496.0781 Q2564.1094,496.2344 2563.4063,496.2344 Q2560.9063,496.2344 2559.5781,494.5938 Q2558.2656,492.9375 2558.2656,489.8125 Q2558.2656,486.6875 2559.5781,485.0313 Q2560.9063,483.375 2563.4063,483.375 Q2564.1094,483.375 2564.75,483.5313 Q2565.4063,483.6875 2565.9688,483.9844 L2565.9688,486.7031 Q2565.3438,486.125 2564.75,485.8594 Q2564.1563,485.5781 2563.5313,485.5781 Q2562.1875,485.5781 2561.5,486.6563 Q2560.8125,487.7188 2560.8125,489.8125 Q2560.8125,491.9063 2561.5,492.9844 Q2562.1875,494.0469 2563.5313,494.0469 Q2564.1563,494.0469 2564.75,493.7813 Q2565.3438,493.5 2565.9688,492.9219 L2565.9688,495.6406 Z " fill="#000000"/><text fill="#000000" font-family="sans-serif" font-size="14" lengthAdjust="spacing" textLength="148.0801" x="2577" y="494.8467">ChessBoardRenderer</text></g><!--class FieldRenderer--><g class="entity" data-entity="FieldRenderer" data-source-line="56" data-uid="ent0017" id="entity_FieldRenderer"><rect fill="#F1F1F1" height="32" rx="2.5" ry="2.5" style="stroke:#181818;stroke-width:0.5;" width="130.1709" x="2564" y="696"/><ellipse cx="2579" cy="712" fill="#B4A7E5" rx="11" ry="11" style="stroke:#181818;stroke-width:1;"/><path d="M2574.9219,707.7656 L2574.9219,705.6094 L2582.3125,705.6094 L2582.3125,707.7656 L2579.8438,707.7656 L2579.8438,715.8438 L2582.3125,715.8438 L2582.3125,718 L2574.9219,718 L2574.9219,715.8438 L2577.3906,715.8438 L2577.3906,707.7656 L2574.9219,707.7656 Z " fill="#000000"/><text fill="#000000" font-family="sans-serif" font-size="14" font-style="italic" lengthAdjust="spacing" textLength="98.1709" x="2593" y="716.8467">FieldRenderer</text></g><!--class SquareColor--><g class="entity" data-entity="SquareColor" data-source-line="61" data-uid="ent0018" id="entity_SquareColor"><rect fill="#F1F1F1" height="32" rx="2.5" ry="2.5" style="stroke:#181818;stroke-width:0.5;" width="118.1465" x="2395" y="474"/><ellipse cx="2410" cy="490" fill="#EB937F" rx="11" ry="11" style="stroke:#181818;stroke-width:1;"/><path d="M2414.1094,496 L2406.3906,496 L2406.3906,483.6094 L2414.1094,483.6094 L2414.1094,485.7656 L2408.8438,485.7656 L2408.8438,488.4375 L2413.6094,488.4375 L2413.6094,490.5938 L2408.8438,490.5938 L2408.8438,493.8438 L2414.1094,493.8438 L2414.1094,496 Z " fill="#000000"/><text fill="#000000" font-family="sans-serif" font-size="14" lengthAdjust="spacing" textLength="86.1465" x="2424" y="494.8467">SquareColor</text></g><!--class ChessGame--><g class="entity" data-entity="ChessGame" data-source-line="67" data-uid="ent0019" id="entity_ChessGame"><rect fill="#F1F1F1" height="32" rx="2.5" ry="2.5" style="stroke:#181818;stroke-width:0.5;" width="115.5283" x="934" y="299"/><ellipse cx="949" cy="315" fill="#ADD1B2" rx="11" ry="11" style="stroke:#181818;stroke-width:1;"/><path d="M951.9688,320.6406 Q951.3906,320.9375 950.75,321.0781 Q950.1094,321.2344 949.4063,321.2344 Q946.9063,321.2344 945.5781,319.5938 Q944.2656,317.9375 944.2656,314.8125 Q944.2656,311.6875 945.5781,310.0313 Q946.9063,308.375 949.4063,308.375 Q950.1094,308.375 950.75,308.5313 Q951.4063,308.6875 951.9688,308.9844 L951.9688,311.7031 Q951.3438,311.125 950.75,310.8594 Q950.1563,310.5781 949.5313,310.5781 Q948.1875,310.5781 947.5,311.6563 Q946.8125,312.7188 946.8125,314.8125 Q946.8125,316.9063 947.5,317.9844 Q948.1875,319.0469 949.5313,319.0469 Q950.1563,319.0469 950.75,318.7813 Q951.3438,318.5 951.9688,317.9219 L951.9688,320.6406 Z " fill="#000000"/><text fill="#000000" font-family="sans-serif" font-size="14" lengthAdjust="spacing" textLength="83.5283" x="963" y="319.8467">ChessGame</text></g><!--class InputReader--><g class="entity" data-entity="InputReader" data-source-line="75" data-uid="ent0021" id="entity_InputReader"><rect fill="#F1F1F1" height="32" rx="2.5" ry="2.5" style="stroke:#181818;stroke-width:0.5;" width="118.4268" x="1057" y="474"/><ellipse cx="1072" cy="490" fill="#ADD1B2" rx="11" ry="11" style="stroke:#181818;stroke-width:1;"/><path d="M1074.9688,495.6406 Q1074.3906,495.9375 1073.75,496.0781 Q1073.1094,496.2344 1072.4063,496.2344 Q1069.9063,496.2344 1068.5781,494.5938 Q1067.2656,492.9375 1067.2656,489.8125 Q1067.2656,486.6875 1068.5781,485.0313 Q1069.9063,483.375 1072.4063,483.375 Q1073.1094,483.375 1073.75,483.5313 Q1074.4063,483.6875 1074.9688,483.9844 L1074.9688,486.7031 Q1074.3438,486.125 1073.75,485.8594 Q1073.1563,485.5781 1072.5313,485.5781 Q1071.1875,485.5781 1070.5,486.6563 Q1069.8125,487.7188 1069.8125,489.8125 Q1069.8125,491.9063 1070.5,492.9844 Q1071.1875,494.0469 1072.5313,494.0469 Q1073.1563,494.0469 1073.75,493.7813 Q1074.3438,493.5 1074.9688,492.9219 L1074.9688,495.6406 Z " fill="#000000"/><text fill="#000000" font-family="sans-serif" font-size="14" lengthAdjust="spacing" textLength="86.4268" x="1086" y="494.8467">InputReader</text></g><!--class MatchConfig--><g class="entity" data-entity="MatchConfig" data-source-line="81" data-uid="ent0022" id="entity_MatchConfig"><rect fill="#F1F1F1" height="32" rx="2.5" ry="2.5" style="stroke:#181818;stroke-width:0.5;" width="119.6367" x="779" y="299"/><ellipse cx="794" cy="315" fill="#ADD1B2" rx="11" ry="11" style="stroke:#181818;stroke-width:1;"/><path d="M796.9688,320.6406 Q796.3906,320.9375 795.75,321.0781 Q795.1094,321.2344 794.4063,321.2344 Q791.9063,321.2344 790.5781,319.5938 Q789.2656,317.9375 789.2656,314.8125 Q789.2656,311.6875 790.5781,310.0313 Q791.9063,308.375 794.4063,308.375 Q795.1094,308.375 795.75,308.5313 Q796.4063,308.6875 796.9688,308.9844 L796.9688,311.7031 Q796.3438,311.125 795.75,310.8594 Q795.1563,310.5781 794.5313,310.5781 Q793.1875,310.5781 792.5,311.6563 Q791.8125,312.7188 791.8125,314.8125 Q791.8125,316.9063 792.5,317.9844 Q793.1875,319.0469 794.5313,319.0469 Q795.1563,319.0469 795.75,318.7813 Q796.3438,318.5 796.9688,317.9219 L796.9688,320.6406 Z " fill="#000000"/><text fill="#000000" font-family="sans-serif" font-size="14" lengthAdjust="spacing" textLength="87.6367" x="808" y="319.8467">MatchConfig</text></g><!--class OutputWriter--><g class="entity" data-entity="OutputWriter" data-source-line="90" data-uid="ent0023" id="entity_OutputWriter"><rect fill="#F1F1F1" height="32" rx="2.5" ry="2.5" style="stroke:#181818;stroke-width:0.5;" width="123.9775" x="1256" y="474"/><ellipse cx="1271" cy="490" fill="#ADD1B2" rx="11" ry="11" style="stroke:#181818;stroke-width:1;"/><path d="M1273.9688,495.6406 Q1273.3906,495.9375 1272.75,496.0781 Q1272.1094,496.2344 1271.4063,496.2344 Q1268.9063,496.2344 1267.5781,494.5938 Q1266.2656,492.9375 1266.2656,489.8125 Q1266.2656,486.6875 1267.5781,485.0313 Q1268.9063,483.375 1271.4063,483.375 Q1272.1094,483.375 1272.75,483.5313 Q1273.4063,483.6875 1273.9688,483.9844 L1273.9688,486.7031 Q1273.3438,486.125 1272.75,485.8594 Q1272.1563,485.5781 1271.5313,485.5781 Q1270.1875,485.5781 1269.5,486.6563 Q1268.8125,487.7188 1268.8125,489.8125 Q1268.8125,491.9063 1269.5,492.9844 Q1270.1875,494.0469 1271.5313,494.0469 Q1272.1563,494.0469 1272.75,493.7813 Q1273.3438,493.5 1273.9688,492.9219 L1273.9688,495.6406 Z " fill="#000000"/><text fill="#000000" font-family="sans-serif" font-size="14" lengthAdjust="spacing" textLength="91.9775" x="1285" y="494.8467">OutputWriter</text></g><!--class GameAbortedException--><g class="entity" data-entity="GameAbortedException" data-source-line="100" data-uid="ent0024" id="entity_GameAbortedException"><rect fill="#F1F1F1" height="32" rx="2.5" ry="2.5" style="stroke:#181818;stroke-width:0.5;" width="198.5986" x="1657.5" y="299"/><ellipse cx="1672.5" cy="315" fill="#ADD1B2" rx="11" ry="11" style="stroke:#181818;stroke-width:1;"/><path d="M1675.4688,320.6406 Q1674.8906,320.9375 1674.25,321.0781 Q1673.6094,321.2344 1672.9063,321.2344 Q1670.4063,321.2344 1669.0781,319.5938 Q1667.7656,317.9375 1667.7656,314.8125 Q1667.7656,311.6875 1669.0781,310.0313 Q1670.4063,308.375 1672.9063,308.375 Q1673.6094,308.375 1674.25,308.5313 Q1674.9063,308.6875 1675.4688,308.9844 L1675.4688,311.7031 Q1674.8438,311.125 1674.25,310.8594 Q1673.6563,310.5781 1673.0313,310.5781 Q1671.6875,310.5781 1671,311.6563 Q1670.3125,312.7188 1670.3125,314.8125 Q1670.3125,316.9063 1671,317.9844 Q1671.6875,319.0469 1673.0313,319.0469 Q1673.6563,319.0469 1674.25,318.7813 Q1674.8438,318.5 1675.4688,317.9219 L1675.4688,320.6406 Z " fill="#000000"/><text fill="#000000" font-family="sans-serif" font-size="14" lengthAdjust="spacing" textLength="166.5986" x="1686.5" y="319.8467">GameAbortedException</text></g><!--class MatchAbortedException--><g class="entity" data-entity="MatchAbortedException" data-source-line="104" data-uid="ent0026" id="entity_MatchAbortedException"><rect fill="#F1F1F1" height="32" rx="2.5" ry="2.5" style="stroke:#181818;stroke-width:0.5;" width="199.6377" x="1422" y="299"/><ellipse cx="1437" cy="315" fill="#ADD1B2" rx="11" ry="11" style="stroke:#181818;stroke-width:1;"/><path d="M1439.9688,320.6406 Q1439.3906,320.9375 1438.75,321.0781 Q1438.1094,321.2344 1437.4063,321.2344 Q1434.9063,321.2344 1433.5781,319.5938 Q1432.2656,317.9375 1432.2656,314.8125 Q1432.2656,311.6875 1433.5781,310.0313 Q1434.9063,308.375 1437.4063,308.375 Q1438.1094,308.375 1438.75,308.5313 Q1439.4063,308.6875 1439.9688,308.9844 L1439.9688,311.7031 Q1439.3438,311.125 1438.75,310.8594 Q1438.1563,310.5781 1437.5313,310.5781 Q1436.1875,310.5781 1435.5,311.6563 Q1434.8125,312.7188 1434.8125,314.8125 Q1434.8125,316.9063 1435.5,317.9844 Q1436.1875,319.0469 1437.5313,319.0469 Q1438.1563,319.0469 1438.75,318.7813 Q1439.3438,318.5 1439.9688,317.9219 L1439.9688,320.6406 Z " fill="#000000"/><text fill="#000000" font-family="sans-serif" font-size="14" lengthAdjust="spacing" textLength="167.6377" x="1451" y="319.8467">MatchAbortedException</text></g><!--class HomeScreen--><g class="entity" data-entity="HomeScreen" data-source-line="108" data-uid="ent0027" id="entity_HomeScreen"><rect fill="#F1F1F1" height="32" rx="2.5" ry="2.5" style="stroke:#181818;stroke-width:0.5;" width="121.7832" x="1244" y="299"/><ellipse cx="1259" cy="315" fill="#ADD1B2" rx="11" ry="11" style="stroke:#181818;stroke-width:1;"/><path d="M1261.9688,320.6406 Q1261.3906,320.9375 1260.75,321.0781 Q1260.1094,321.2344 1259.4063,321.2344 Q1256.9063,321.2344 1255.5781,319.5938 Q1254.2656,317.9375 1254.2656,314.8125 Q1254.2656,311.6875 1255.5781,310.0313 Q1256.9063,308.375 1259.4063,308.375 Q1260.1094,308.375 1260.75,308.5313 Q1261.4063,308.6875 1261.9688,308.9844 L1261.9688,311.7031 Q1261.3438,311.125 1260.75,310.8594 Q1260.1563,310.5781 1259.5313,310.5781 Q1258.1875,310.5781 1257.5,311.6563 Q1256.8125,312.7188 1256.8125,314.8125 Q1256.8125,316.9063 1257.5,317.9844 Q1258.1875,319.0469 1259.5313,319.0469 Q1260.1563,319.0469 1260.75,318.7813 Q1261.3438,318.5 1261.9688,317.9219 L1261.9688,320.6406 Z " fill="#000000"/><text fill="#000000" font-family="sans-serif" font-size="14" lengthAdjust="spacing" textLength="89.7832" x="1273" y="319.8467">HomeScreen</text></g><!--class MatchScreen--><g class="entity" data-entity="MatchScreen" data-source-line="114" data-uid="ent0029" id="entity_MatchScreen"><rect fill="#F1F1F1" height="32" rx="2.5" ry="2.5" style="stroke:#181818;stroke-width:0.5;" width="123.1572" x="1085.5" y="299"/><ellipse cx="1100.5" cy="315" fill="#ADD1B2" rx="11" ry="11" style="stroke:#181818;stroke-width:1;"/><path d="M1103.4688,320.6406 Q1102.8906,320.9375 1102.25,321.0781 Q1101.6094,321.2344 1100.9063,321.2344 Q1098.4063,321.2344 1097.0781,319.5938 Q1095.7656,317.9375 1095.7656,314.8125 Q1095.7656,311.6875 1097.0781,310.0313 Q1098.4063,308.375 1100.9063,308.375 Q1101.6094,308.375 1102.25,308.5313 Q1102.9063,308.6875 1103.4688,308.9844 L1103.4688,311.7031 Q1102.8438,311.125 1102.25,310.8594 Q1101.6563,310.5781 1101.0313,310.5781 Q1099.6875,310.5781 1099,311.6563 Q1098.3125,312.7188 1098.3125,314.8125 Q1098.3125,316.9063 1099,317.9844 Q1099.6875,319.0469 1101.0313,319.0469 Q1101.6563,319.0469 1102.25,318.7813 Q1102.8438,318.5 1103.4688,317.9219 L1103.4688,320.6406 Z " fill="#000000"/><text fill="#000000" font-family="sans-serif" font-size="14" lengthAdjust="spacing" textLength="91.1572" x="1114.5" y="319.8467">MatchScreen</text></g><!--class AbstractPlayer--><g class="entity" data-entity="AbstractPlayer" data-source-line="122" data-uid="ent0030" id="entity_AbstractPlayer"><rect fill="#F1F1F1" height="32" rx="2.5" ry="2.5" style="stroke:#181818;stroke-width:0.5;" width="134.334" x="589" y="474"/><ellipse cx="604" cy="490" fill="#A9DCDF" rx="11" ry="11" style="stroke:#181818;stroke-width:1;"/><path d="M604.1094,485.3438 L602.9531,490.4219 L605.2813,490.4219 L604.1094,485.3438 Z M602.625,483.1094 L605.6094,483.1094 L608.9688,495.5 L606.5156,495.5 L605.75,492.4375 L602.4688,492.4375 L601.7188,495.5 L599.2813,495.5 L602.625,483.1094 Z " fill="#000000"/><text fill="#000000" font-family="sans-serif" font-size="14" font-style="italic" lengthAdjust="spacing" textLength="102.334" x="618" y="494.8467">AbstractPlayer</text></g><!--class BotPlayer--><g class="entity" data-entity="BotPlayer" data-source-line="127" data-uid="ent0032" id="entity_BotPlayer"><rect fill="#F1F1F1" height="32" rx="2.5" ry="2.5" style="stroke:#181818;stroke-width:0.5;" width="99.2246" x="218.5" y="299"/><ellipse cx="233.5" cy="315" fill="#ADD1B2" rx="11" ry="11" style="stroke:#181818;stroke-width:1;"/><path d="M236.4688,320.6406 Q235.8906,320.9375 235.25,321.0781 Q234.6094,321.2344 233.9063,321.2344 Q231.4063,321.2344 230.0781,319.5938 Q228.7656,317.9375 228.7656,314.8125 Q228.7656,311.6875 230.0781,310.0313 Q231.4063,308.375 233.9063,308.375 Q234.6094,308.375 235.25,308.5313 Q235.9063,308.6875 236.4688,308.9844 L236.4688,311.7031 Q235.8438,311.125 235.25,310.8594 Q234.6563,310.5781 234.0313,310.5781 Q232.6875,310.5781 232,311.6563 Q231.3125,312.7188 231.3125,314.8125 Q231.3125,316.9063 232,317.9844 Q232.6875,319.0469 234.0313,319.0469 Q234.6563,319.0469 235.25,318.7813 Q235.8438,318.5 236.4688,317.9219 L236.4688,320.6406 Z " fill="#000000"/><text fill="#000000" font-family="sans-serif" font-size="14" lengthAdjust="spacing" textLength="67.2246" x="247.5" y="319.8467">BotPlayer</text></g><!--class HumanPlayer--><g class="entity" data-entity="HumanPlayer" data-source-line="132" data-uid="ent0033" id="entity_HumanPlayer"><rect fill="#F1F1F1" height="32" rx="2.5" ry="2.5" style="stroke:#181818;stroke-width:0.5;" width="126.0557" x="353" y="299"/><ellipse cx="368" cy="315" fill="#ADD1B2" rx="11" ry="11" style="stroke:#181818;stroke-width:1;"/><path d="M370.9688,320.6406 Q370.3906,320.9375 369.75,321.0781 Q369.1094,321.2344 368.4063,321.2344 Q365.9063,321.2344 364.5781,319.5938 Q363.2656,317.9375 363.2656,314.8125 Q363.2656,311.6875 364.5781,310.0313 Q365.9063,308.375 368.4063,308.375 Q369.1094,308.375 369.75,308.5313 Q370.4063,308.6875 370.9688,308.9844 L370.9688,311.7031 Q370.3438,311.125 369.75,310.8594 Q369.1563,310.5781 368.5313,310.5781 Q367.1875,310.5781 366.5,311.6563 Q365.8125,312.7188 365.8125,314.8125 Q365.8125,316.9063 366.5,317.9844 Q367.1875,319.0469 368.5313,319.0469 Q369.1563,319.0469 369.75,318.7813 Q370.3438,318.5 370.9688,317.9219 L370.9688,320.6406 Z " fill="#000000"/><text fill="#000000" font-family="sans-serif" font-size="14" lengthAdjust="spacing" textLength="94.0557" x="382" y="319.8467">HumanPlayer</text></g><!--class InvalidMoveException--><g class="entity" data-entity="InvalidMoveException" data-source-line="137" data-uid="ent0034" id="entity_InvalidMoveException"><rect fill="#F1F1F1" height="32" rx="2.5" ry="2.5" style="stroke:#181818;stroke-width:0.5;" width="185.2207" x="514.5" y="299"/><ellipse cx="529.5" cy="315" fill="#ADD1B2" rx="11" ry="11" style="stroke:#181818;stroke-width:1;"/><path d="M532.4688,320.6406 Q531.8906,320.9375 531.25,321.0781 Q530.6094,321.2344 529.9063,321.2344 Q527.4063,321.2344 526.0781,319.5938 Q524.7656,317.9375 524.7656,314.8125 Q524.7656,311.6875 526.0781,310.0313 Q527.4063,308.375 529.9063,308.375 Q530.6094,308.375 531.25,308.5313 Q531.9063,308.6875 532.4688,308.9844 L532.4688,311.7031 Q531.8438,311.125 531.25,310.8594 Q530.6563,310.5781 530.0313,310.5781 Q528.6875,310.5781 528,311.6563 Q527.3125,312.7188 527.3125,314.8125 Q527.3125,316.9063 528,317.9844 Q528.6875,319.0469 530.0313,319.0469 Q530.6563,319.0469 531.25,318.7813 Q531.8438,318.5 532.4688,317.9219 L532.4688,320.6406 Z " fill="#000000"/><text fill="#000000" font-family="sans-serif" font-size="14" lengthAdjust="spacing" textLength="153.2207" x="543.5" y="319.8467">InvalidMoveException</text></g><!--reverse link Piece to PieceType--><g class="link" data-entity-1="Piece" data-entity-2="PieceType" data-source-line="144" data-uid="lnk36" id="link_Piece_PieceType"><path codeLine="144" d="M2080.6264,516.1712 C2094.3864,536.9912 2112.36,564.22 2126.07,584.97" fill="none" id="Piece-backto-PieceType" style="stroke:#181818;stroke-width:1;"/><polygon fill="#181818" points="2074.01,506.16,2073.9811,513.371,2080.6264,516.1712,2080.6553,508.9601,2074.01,506.16" style="stroke:#181818;stroke-width:1;"/><text fill="#000000" font-family="sans-serif" font-size="13" lengthAdjust="spacing" textLength="29.0405" x="2105" y="551.0669">type</text></g><!--reverse link Piece to PlayerColor--><g class="link" data-entity-1="Piece" data-entity-2="PlayerColor" data-source-line="145" data-uid="lnk37" id="link_Piece_PlayerColor"><path codeLine="145" d="M2047.5776,516.2132 C2034.0076,537.0332 2016.31,564.22 2002.79,584.97" fill="none" id="Piece-backto-PlayerColor" style="stroke:#181818;stroke-width:1;"/><polygon fill="#181818" points="2054.13,506.16,2047.5027,509.0024,2047.5776,516.2132,2054.2048,513.3707,2054.13,506.16" style="stroke:#181818;stroke-width:1;"/><text fill="#000000" font-family="sans-serif" font-size="13" lengthAdjust="spacing" textLength="32.0112" x="2033" y="551.0669">color</text></g><!--reverse link BoardRenderer to FieldRenderer--><g class="link" data-entity-1="BoardRenderer" data-entity-2="FieldRenderer" data-source-line="146" data-uid="lnk38" id="link_BoardRenderer_FieldRenderer"><path codeLine="146" d="M2629,629.16 C2629,649.98 2629,675.22 2629,695.97" fill="none" id="BoardRenderer-backto-FieldRenderer" style="stroke:#181818;stroke-width:1;"/><polygon fill="#181818" points="2629,617.16,2625,623.16,2629,629.16,2633,623.16,2629,617.16" style="stroke:#181818;stroke-width:1;"/><text fill="#000000" font-family="sans-serif" font-size="13" lengthAdjust="spacing" textLength="43.1768" x="2630" y="662.0669">render</text></g><!--reverse link ChessBoardRenderer to BoardRenderer--><g class="link" data-entity-1="ChessBoardRenderer" data-entity-2="BoardRenderer" data-source-line="147" data-uid="lnk39" id="link_ChessBoardRenderer_BoardRenderer"><path codeLine="147" d="M2635.762,518.1193 C2634.042,538.9393 2631.95,564.22 2630.24,584.97" fill="none" id="ChessBoardRenderer-backto-BoardRenderer" style="stroke:#181818;stroke-width:1;"/><polygon fill="#181818" points="2636.75,506.16,2632.2696,511.8103,2635.762,518.1193,2640.2424,512.469,2636.75,506.16" style="stroke:#181818;stroke-width:1;"/><text fill="#000000" font-family="sans-serif" font-size="13" lengthAdjust="spacing" textLength="97.9761" x="2635" y="551.0669">boardRenderer</text></g><!--reverse link MatchConfig to AbstractPlayer--><g class="link" data-entity-1="MatchConfig" data-entity-2="AbstractPlayer" data-source-line="148" data-uid="lnk40" id="link_MatchConfig_AbstractPlayer"><path codeLine="148" d="M787.164,334.9764 C763.204,343.2964 743.4,349.16 715,355 C697.72,358.55 647.83,349.91 636,363 C608.08,393.89 631.95,447.36 646.61,473.59" fill="none" id="MatchConfig-backto-AbstractPlayer" style="stroke:#181818;stroke-width:1;"/><polygon fill="#181818" points="798.5,331.04,791.5199,329.2295,787.164,334.9764,794.1441,336.7869,798.5,331.04" style="stroke:#181818;stroke-width:1;"/><text fill="#000000" font-family="sans-serif" font-size="13" lengthAdjust="spacing" textLength="34.5059" x="637" y="376.0669">black</text></g><!--reverse link MatchConfig to AbstractPlayer--><g class="link" data-entity-1="MatchConfig" data-entity-2="AbstractPlayer" data-source-line="149" data-uid="lnk41" id="link_MatchConfig_AbstractPlayer"><path codeLine="149" d="M767.4929,331.1109 C744.2929,338.1209 730.43,345.71 712,363 C679,393.96 664.21,447.88 658.72,473.99" fill="none" id="MatchConfig-backto-AbstractPlayer-1" style="stroke:#181818;stroke-width:1;"/><polygon fill="#181818" points="778.98,327.64,772.0795,325.5464,767.4929,331.1109,774.3934,333.2045,778.98,327.64" style="stroke:#181818;stroke-width:1;"/><text fill="#000000" font-family="sans-serif" font-size="13" lengthAdjust="spacing" textLength="35.5786" x="713" y="376.0669">white</text></g><!--reverse link HomeScreen to InputReader--><g class="link" data-entity-1="HomeScreen" data-entity-2="InputReader" data-source-line="150" data-uid="lnk42" id="link_HomeScreen_InputReader"><path codeLine="150" d="M1269.8291,336.8818 C1254.6991,345.3518 1245.1,349.46 1226,355 C1209.9,359.67 1163.79,352.16 1151,363 C1118.09,390.89 1114.75,446.79 1115.22,473.75" fill="none" id="HomeScreen-backto-InputReader" style="stroke:#181818;stroke-width:1;"/><polygon fill="#181818" points="1280.3,331.02,1273.1106,330.4606,1269.8291,336.8818,1277.0185,337.4412,1280.3,331.02" style="stroke:#181818;stroke-width:1;"/><text fill="#000000" font-family="sans-serif" font-size="13" lengthAdjust="spacing" textLength="42.9038" x="1152" y="376.0669">reader</text></g><!--link HomeScreen to OutputWriter--><g class="link" data-entity-1="HomeScreen" data-entity-2="OutputWriter" data-source-line="151" data-uid="lnk43" id="link_HomeScreen_OutputWriter"><path codeLine="151" d="M1306.13,331.05 C1308.59,363.77 1313.9513,435.0768 1316.4113,467.8768" fill="none" id="HomeScreen-to-OutputWriter" style="stroke:#181818;stroke-width:1;"/><polygon fill="#181818" points="1316.86,473.86,1320.1757,464.586,1316.4861,468.874,1312.1981,465.1844,1316.86,473.86" style="stroke:#181818;stroke-width:1;"/><text fill="#000000" font-family="sans-serif" font-size="13" lengthAdjust="spacing" textLength="38.0288" x="1310" y="376.0669">writer</text></g><!--link MatchScreen to ChessBoard--><g class="link" data-entity-1="MatchScreen" data-entity-2="ChessBoard" data-source-line="152" data-uid="lnk44" id="link_MatchScreen_ChessBoard"><path codeLine="152" d="M1170.81,331.06 C1186.2,339.9 1207.01,350.24 1227,355 C1259.11,362.64 1788.02,361.7 1821,363 C1906.23,366.35 2126.57,352.23 2204,388 C2244.59,406.75 2273.9361,445.295 2289.2461,468.605" fill="none" id="MatchScreen-to-ChessBoard" style="stroke:#181818;stroke-width:1;"/><polygon fill="#181818" points="2292.54,473.62,2290.9426,463.9016,2289.7951,469.4408,2284.2559,468.2934,2292.54,473.62" style="stroke:#181818;stroke-width:1;"/><text fill="#000000" font-family="sans-serif" font-size="13" lengthAdjust="spacing" textLength="74.6992" x="2177" y="376.0669">chessboard</text></g><!--link MatchScreen to ChessBoardRenderer--><g class="link" data-entity-1="MatchScreen" data-entity-2="ChessBoardRenderer" data-source-line="153" data-uid="lnk45" id="link_MatchScreen_ChessBoardRenderer"><path codeLine="153" d="M1170.8,331.1 C1186.18,339.96 1206.99,350.3 1227,355 C1282.87,368.12 2202.68,360.14 2260,363 C2380.81,369.03 2420.77,338.21 2531,388 C2573.6,407.24 2606.381,445.7818 2623.661,468.9318" fill="none" id="MatchScreen-to-ChessBoardRenderer" style="stroke:#181818;stroke-width:1;"/><polygon fill="#181818" points="2627.25,473.74,2625.0719,464.135,2624.2591,469.7332,2618.661,468.9204,2627.25,473.74" style="stroke:#181818;stroke-width:1;"/><text fill="#000000" font-family="sans-serif" font-size="13" lengthAdjust="spacing" textLength="135.5732" x="2512" y="376.0669">chessBoardRenderer</text></g><!--link MatchScreen to OutputWriter--><g class="link" data-entity-1="MatchScreen" data-entity-2="OutputWriter" data-source-line="154" data-uid="lnk46" id="link_MatchScreen_OutputWriter"><path codeLine="154" d="M1166.21,331.06 C1177.28,340 1191.28,351.75 1203,363 C1242.33,400.72 1280.6515,444.7321 1301.2815,469.0821" fill="none" id="MatchScreen-to-OutputWriter" style="stroke:#181818;stroke-width:1;"/><polygon fill="#181818" points="1305.16,473.66,1302.3942,464.2075,1301.9279,469.8451,1296.2903,469.3788,1305.16,473.66" style="stroke:#181818;stroke-width:1;"/><text fill="#000000" font-family="sans-serif" font-size="13" lengthAdjust="spacing" textLength="38.0288" x="1220" y="376.0669">writer</text></g><!--link MatchScreen to AbstractPlayer--><g class="link" data-entity-1="MatchScreen" data-entity-2="AbstractPlayer" data-source-line="155" data-uid="lnk47" id="link_MatchScreen_AbstractPlayer"><path codeLine="155" d="M1127.74,331.1 C1115.41,339.84 1098.65,350.05 1082,355 C1035.96,368.68 912.67,351.62 866,363 C848.81,367.19 847.01,375.11 830,380 C801.18,388.29 790.16,375.29 763,388 C720.66,407.81 687.799,446.1243 670.429,469.0943" fill="none" id="MatchScreen-to-AbstractPlayer" style="stroke:#181818;stroke-width:1;"/><polygon fill="#181818" points="666.81,473.88,675.4289,469.1141,669.8258,469.8919,669.048,464.2888,666.81,473.88" style="stroke:#181818;stroke-width:1;"/><text fill="#000000" font-family="sans-serif" font-size="13" lengthAdjust="spacing" textLength="34.5059" x="867" y="376.0669">black</text></g><!--link MatchScreen to AbstractPlayer--><g class="link" data-entity-1="MatchScreen" data-entity-2="AbstractPlayer" data-source-line="156" data-uid="lnk48" id="link_MatchScreen_AbstractPlayer"><path codeLine="156" d="M1127.42,331.18 C1115.11,339.82 1098.47,349.92 1082,355 C1023.72,372.99 1004.32,348.82 945,363 C926.61,367.4 924.4,375.63 906,380 C875.04,387.36 792.24,375.42 763,388 C719.82,406.57 686.9836,445.7782 669.9236,469.0882" fill="none" id="MatchScreen-to-AbstractPlayer-1" style="stroke:#181818;stroke-width:1;"/><polygon fill="#181818" points="666.38,473.93,674.9232,469.0297,669.333,469.8952,668.4675,464.3049,666.38,473.93" style="stroke:#181818;stroke-width:1;"/><text fill="#000000" font-family="sans-serif" font-size="13" lengthAdjust="spacing" textLength="87.8643" x="946" y="376.0669">currentPlayer</text></g><!--link MatchScreen to AbstractPlayer--><g class="link" data-entity-1="MatchScreen" data-entity-2="AbstractPlayer" data-source-line="157" data-uid="lnk49" id="link_MatchScreen_AbstractPlayer"><path codeLine="157" d="M1127.76,331.16 C1115.44,339.92 1098.68,350.14 1082,355 C1050.31,364.24 815.4,350.14 785,363 C729.64,386.42 688.1175,440.6174 669.1375,468.7274" fill="none" id="MatchScreen-to-AbstractPlayer-2" style="stroke:#181818;stroke-width:1;"/><polygon fill="#181818" points="665.78,473.7,674.1314,468.4794,668.5779,469.5561,667.5012,464.0027,665.78,473.7" style="stroke:#181818;stroke-width:1;"/><text fill="#000000" font-family="sans-serif" font-size="13" lengthAdjust="spacing" textLength="35.5786" x="786" y="376.0669">white</text></g><!--reverse link AbstractPlayer to PlayerColor--><g class="link" data-entity-1="AbstractPlayer" data-entity-2="PlayerColor" data-source-line="158" data-uid="lnk50" id="link_AbstractPlayer_PlayerColor"><path codeLine="158" d="M700.5548,510.6764 C721.2948,519.2764 737.63,524.77 763,530 C992,577.18 1726.93,594.83 1936.65,598.98" fill="none" id="AbstractPlayer-backto-PlayerColor" style="stroke:#181818;stroke-width:1;"/><polygon fill="#181818" points="689.47,506.08,693.4803,512.0731,700.5548,510.6764,696.5445,504.6833,689.47,506.08" style="stroke:#181818;stroke-width:1;"/><text fill="#000000" font-family="sans-serif" font-size="13" lengthAdjust="spacing" textLength="74.8071" x="939" y="551.0669">playerColor</text></g><!--link BotPlayer to AbstractPlayer--><g class="link" data-entity-1="BotPlayer" data-entity-2="AbstractPlayer" data-source-line="159" data-uid="lnk51" id="link_BotPlayer_AbstractPlayer"><path codeLine="159" d="M292.08,331.05 C304.65,338.64 320.42,347.75 335,355 C433.15,403.79 536.6319,444.4142 598.3519,467.6242" fill="none" id="BotPlayer-to-AbstractPlayer" style="stroke:#181818;stroke-width:1;"/><polygon fill="none" points="615.2,473.96,600.4638,462.0082,596.24,473.2403,615.2,473.96" style="stroke:#181818;stroke-width:1;"/></g><!--link HumanPlayer to InputReader--><g class="link" data-entity-1="HumanPlayer" data-entity-2="InputReader" data-source-line="160" data-uid="lnk52" id="link_HumanPlayer_InputReader"><path codeLine="160" d="M440.78,331.06 C456.77,339.89 478.37,350.23 499,355 C528.02,361.71 1008.97,348.53 1035,363 C1078.64,387.25 1100.5078,440.2996 1109.6578,468.1596" fill="none" id="HumanPlayer-to-InputReader" style="stroke:#181818;stroke-width:1;"/><polygon fill="#181818" points="1111.53,473.86,1112.522,464.0612,1109.9698,469.1096,1104.9214,466.5575,1111.53,473.86" style="stroke:#181818;stroke-width:1;"/><text fill="#000000" font-family="sans-serif" font-size="13" lengthAdjust="spacing" textLength="42.9038" x="1058" y="376.0669">reader</text></g><!--link HumanPlayer to AbstractPlayer--><g class="link" data-entity-1="HumanPlayer" data-entity-2="AbstractPlayer" data-source-line="161" data-uid="lnk53" id="link_HumanPlayer_AbstractPlayer"><path codeLine="161" d="M436.88,331.05 C482.27,363.77 574.8985,430.5341 620.3985,463.3341" fill="none" id="HumanPlayer-to-AbstractPlayer" style="stroke:#181818;stroke-width:1;"/><polygon fill="none" points="635,473.86,623.9071,458.4669,616.8898,468.2012,635,473.86" style="stroke:#181818;stroke-width:1;"/></g><!--SRC=[pLXDSzeu63wlVuMEtMQj6NhCeJD0IM2I00KoEUx8jh2LbILgoRITRFBRLnzs8WStjaWsqviiz7w_xwD7n1G90U8CPeAMC4O2vW8dCA8ysXAHmIj46BWB_hZBiSnuSW_0dP18alWUFEJwjmz_WbEmvoG9xeCWY3lKHKXWk2GunWsb9p6dlB2wkeGf-ecBiJxlAi3VIaG5-01sg43v8hh5iHmeRNO5jEA8SueHSwMsk0fWd2cnMEA6pWo9RCmJR8yG9jqV9L_BWh3K_cZNZTz_xd2_W7GsDkgqII1cPTvRmkHmIp3L1aUpzNInT3OkPlDpztC-Evzkd8tby6RkV7wzdapSxzLYST7VfQUgD9sw78uldE-RwMmpwTSf71K976TOY95UkceVMp1SRuQhpNAndcrcY_dVPvEvMulgT6XKwKBm7AP4PcK4eumYbd96RWiOQnkKHD3OSMkOy2k-ntLJMRs3HmlWiVCTaHJBoHxHKld7gzvAU1bH_EpGMTrvXvr3n3dAyMAFgu5ewLiYj6ENE4NqHUzQHAaMqjB2Qhz5UmHBIIYy949wbAOaDc4hp19SuA8nq0-5sQsTkoRcwE3bQQZLLgV1NrROwQrFNlW0dFnwnVNKTOtWwdvINWcrrIiMLMUZQ6bat48qCtHGlhSENi4NBhP80MyVhtMahOK5ToWIKcFbGGZNn8ZrBh8v_TpDBh2fnTSAxmjy23XVXYiNRouDvlKfVgfcpXPUJr-ZtYfnEM5gr4u1Br9uImd3iDw4cshX92aK6Izr0XLE5RBEpupjIhd2IANivHmPLvpJTIyiIgdsRWgYR7_grk0U_nKQL0ws85duNGjEMABJSQNIWj9797Gr3uvmf3TTECY4MvR2Rhb5iLiAoHYs0is1Gud-vKN4z80BuzmLah4Y2MnBqYQZYIYA_-aY03ipht1OZPGTtzVJcbSHb- -PgjDnZlVEMgCZd9e-U8_QoPQM8clju9ET2arwtTv6OiYICwlKLvAoOsJws-kTN_mZnZlDG0JKupkCU25nCgbtLSgFKMLw_JMwH5nWpE2KvtXjbisHKRJ87QUE5dm-VYvsAKtkLUZxhl0Do7ZH4f7sOuv_ICiYMySjD4smv89OmdXmwm_yR_tdI6vleoz4wAcrrAgoqvpVWV_86tkZxdj5PxGc3g0hjUsMVib26acsSJqHk3vin7baU5u1bQSZtkRaR-3OjCmH-prTSt1bnjIBYIJQ6HTMdcvwNf1Kuxvnjs5CcUlpNyF7C0JzNzMdG3_Utr2pCv_w5QeXnljrrMMedRgV0ilHW-DUFNsDDgKq9t6-0myArM6m7HcKFKssti6EuKQ1zotNOUs0vUggeQGxSuUMml0py29VAYQp2FnlkWvR1pYXGKLzcFt_ornx6rUMHpvTwU_1UoRtLOFmTkRYib3uKjF_TpFRDORjSlvGlNCueGS92CD__SCAl2xpFgteYIYjLeu99CY8UdgQkrlOjQKT8lWF]--></g></svg>