<svg xmlns="http://www.w3.org/2000/svg" xmlns:xlink="http://www.w3.org/1999/xlink" contentStyleType="text/css" data-diagram-type="CLASS" height="1118px" preserveAspectRatio="none" style="width:5988px;height:1118px;background:#FFFFFF;" version="1.1" viewBox="0 0 5988 1118" width="5988px" zoomAndPan="magnify"><defs/><g><!--cluster ch--><g class="cluster" data-entity="ch" data-source-line="2" data-uid="ent0003" id="cluster_ch"><path d="M8.5,6 L27.7656,6 A3.75,3.75 0 0 1 30.2656,8.5 L37.2656,28.2969 L5978.5,28.2969 A2.5,2.5 0 0 1 5981,30.7969 L5981,1108.5 A2.5,2.5 0 0 1 5978.5,1111 L8.5,1111 A2.5,2.5 0 0 1 6,1108.5 L6,8.5 A2.5,2.5 0 0 1 8.5,6" fill="none" style="stroke:#000000;stroke-width:1.5;"/><line style="stroke:#000000;stroke-width:1.5;" x1="6" x2="37.2656" y1="28.2969" y2="28.2969"/><text fill="#000000" font-family="sans-serif" font-size="14" font-weight="bold" lengthAdjust="spacing" textLength="18.2656" x="10" y="20.9951">ch</text></g><!--cluster hslu--><g class="cluster" data-entity="hslu" data-source-line="2" data-uid="ent0004" id="cluster_hslu"><path d="M32.5,49 L66.5654,49 A3.75,3.75 0 0 1 69.0654,51.5 L76.0654,71.2969 L5954.5,71.2969 A2.5,2.5 0 0 1 5957,73.7969 L5957,1084.5 A2.5,2.5 0 0 1 5954.5,1087 L32.5,1087 A2.5,2.5 0 0 1 30,1084.5 L30,51.5 A2.5,2.5 0 0 1 32.5,49" fill="none" style="stroke:#000000;stroke-width:1.5;"/><line style="stroke:#000000;stroke-width:1.5;" x1="30" x2="76.0654" y1="71.2969" y2="71.2969"/><text fill="#000000" font-family="sans-serif" font-size="14" font-weight="bold" lengthAdjust="spacing" textLength="33.0654" x="34" y="63.9951">hslu</text></g><!--cluster cas--><g class="cluster" data-entity="cas" data-source-line="2" data-uid="ent0005" id="cluster_cas"><path d="M56.5,92 L83.5791,92 A3.75,3.75 0 0 1 86.0791,94.5 L93.0791,114.2969 L5930.5,114.2969 A2.5,2.5 0 0 1 5933,116.7969 L5933,1060.5 A2.5,2.5 0 0 1 5930.5,1063 L56.5,1063 A2.5,2.5 0 0 1 54,1060.5 L54,94.5 A2.5,2.5 0 0 1 56.5,92" fill="none" style="stroke:#000000;stroke-width:1.5;"/><line style="stroke:#000000;stroke-width:1.5;" x1="54" x2="93.0791" y1="114.2969" y2="114.2969"/><text fill="#000000" font-family="sans-serif" font-size="14" font-weight="bold" lengthAdjust="spacing" textLength="26.0791" x="58" y="106.9951">cas</text></g><!--cluster msed--><g class="cluster" data-entity="msed" data-source-line="2" data-uid="ent0006" id="cluster_msed"><path d="M80.5,135 L123.9375,135 A3.75,3.75 0 0 1 126.4375,137.5 L133.4375,157.2969 L5906.5,157.2969 A2.5,2.5 0 0 1 5909,159.7969 L5909,1036.5 A2.5,2.5 0 0 1 5906.5,1039 L80.5,1039 A2.5,2.5 0 0 1 78,1036.5 L78,137.5 A2.5,2.5 0 0 1 80.5,135" fill="none" style="stroke:#000000;stroke-width:1.5;"/><line style="stroke:#000000;stroke-width:1.5;" x1="78" x2="133.4375" y1="157.2969" y2="157.2969"/><text fill="#000000" font-family="sans-serif" font-size="14" font-weight="bold" lengthAdjust="spacing" textLength="42.4375" x="82" y="149.9951">msed</text></g><!--cluster blobfish--><g class="cluster" data-entity="blobfish" data-source-line="2" data-uid="ent0007" id="cluster_blobfish"><path d="M104.5,178 L169.1494,178 A3.75,3.75 0 0 1 171.6494,180.5 L178.6494,200.2969 L5882.5,200.2969 A2.5,2.5 0 0 1 5885,202.7969 L5885,1012.5 A2.5,2.5 0 0 1 5882.5,1015 L104.5,1015 A2.5,2.5 0 0 1 102,1012.5 L102,180.5 A2.5,2.5 0 0 1 104.5,178" fill="none" style="stroke:#000000;stroke-width:1.5;"/><line style="stroke:#000000;stroke-width:1.5;" x1="102" x2="178.6494" y1="200.2969" y2="200.2969"/><text fill="#000000" font-family="sans-serif" font-size="14" font-weight="bold" lengthAdjust="spacing" textLength="63.6494" x="106" y="192.9951">blobfish</text></g><!--cluster player--><g class="cluster" data-entity="player" data-source-line="2" data-uid="ent0008" id="cluster_player"><path d="M128.5,221 L179.293,221 A3.75,3.75 0 0 1 181.793,223.5 L188.793,243.2969 L5858.5,243.2969 A2.5,2.5 0 0 1 5861,245.7969 L5861,988.5 A2.5,2.5 0 0 1 5858.5,991 L128.5,991 A2.5,2.5 0 0 1 126,988.5 L126,223.5 A2.5,2.5 0 0 1 128.5,221" fill="none" style="stroke:#000000;stroke-width:1.5;"/><line style="stroke:#000000;stroke-width:1.5;" x1="126" x2="188.793" y1="243.2969" y2="243.2969"/><text fill="#000000" font-family="sans-serif" font-size="14" font-weight="bold" lengthAdjust="spacing" textLength="49.793" x="130" y="235.9951">player</text></g><!--cluster bot--><g class="cluster" data-entity="bot" data-source-line="14" data-uid="ent0011" id="cluster_bot"><path d="M824.5,264 L851.832,264 A3.75,3.75 0 0 1 854.332,266.5 L861.332,286.2969 L5834.5,286.2969 A2.5,2.5 0 0 1 5837,288.7969 L5837,964.5 A2.5,2.5 0 0 1 5834.5,967 L824.5,967 A2.5,2.5 0 0 1 822,964.5 L822,266.5 A2.5,2.5 0 0 1 824.5,264" fill="none" style="stroke:#000000;stroke-width:1.5;"/><line style="stroke:#000000;stroke-width:1.5;" x1="822" x2="861.332" y1="286.2969" y2="286.2969"/><text fill="#000000" font-family="sans-serif" font-size="14" font-weight="bold" lengthAdjust="spacing" textLength="26.332" x="826" y="278.9951">bot</text></g><!--cluster minimax--><g class="cluster" data-entity="minimax" data-source-line="26" data-uid="ent0014" id="cluster_minimax"><path d="M848.5,307 L916.7178,307 A3.75,3.75 0 0 1 919.2178,309.5 L926.2178,329.2969 L5702.5,329.2969 A2.5,2.5 0 0 1 5705,331.7969 L5705,772.5 A2.5,2.5 0 0 1 5702.5,775 L848.5,775 A2.5,2.5 0 0 1 846,772.5 L846,309.5 A2.5,2.5 0 0 1 848.5,307" fill="none" style="stroke:#000000;stroke-width:1.5;"/><line style="stroke:#000000;stroke-width:1.5;" x1="846" x2="926.2178" y1="329.2969" y2="329.2969"/><text fill="#000000" font-family="sans-serif" font-size="14" font-weight="bold" lengthAdjust="spacing" textLength="67.2178" x="850" y="321.9951">minimax</text></g><!--cluster exceptions--><g class="cluster" data-entity="exceptions" data-source-line="81" data-uid="ent0022" id="cluster_exceptions"><path d="M368.5,356 L455.25,356 A3.75,3.75 0 0 1 457.75,358.5 L464.75,378.2969 L579.5,378.2969 A2.5,2.5 0 0 1 582,380.7969 L582,468.5 A2.5,2.5 0 0 1 579.5,471 L368.5,471 A2.5,2.5 0 0 1 366,468.5 L366,358.5 A2.5,2.5 0 0 1 368.5,356" fill="none" style="stroke:#000000;stroke-width:1.5;"/><line style="stroke:#000000;stroke-width:1.5;" x1="366" x2="464.75" y1="378.2969" y2="378.2969"/><text fill="#000000" font-family="sans-serif" font-size="14" font-weight="bold" lengthAdjust="spacing" textLength="85.75" x="370" y="370.9951">exceptions</text></g><!--class AbstractPlayer--><g class="entity" data-entity="AbstractPlayer" data-source-line="2" data-uid="ent0002" id="entity_AbstractPlayer"><rect fill="#F1F1F1" height="80.5938" rx="2.5" ry="2.5" style="stroke:#181818;stroke-width:0.5;" width="663.6016" x="142" y="854"/><ellipse cx="418.3838" cy="870" fill="#A9DCDF" rx="11" ry="11" style="stroke:#181818;stroke-width:1;"/><path d="M418.4932,865.3438 L417.3369,870.4219 L419.665,870.4219 L418.4932,865.3438 Z M417.0088,863.1094 L419.9932,863.1094 L423.3525,875.5 L420.8994,875.5 L420.1338,872.4375 L416.8525,872.4375 L416.1025,875.5 L413.665,875.5 L417.0088,863.1094 Z " fill="#000000"/><text fill="#000000" font-family="sans-serif" font-size="14" font-style="italic" lengthAdjust="spacing" textLength="102.334" x="438.8838" y="874.8467">AbstractPlayer</text><line style="stroke:#181818;stroke-width:0.5;" x1="143" x2="804.6016" y1="886" y2="886"/><rect fill="none" height="6" style="stroke:#C82930;stroke-width:1;" width="6" x="150" y="896.6484"/><text fill="#000000" font-family="sans-serif" font-size="14" lengthAdjust="spacing" textLength="397.0859" x="162" y="902.9951">playerColor : ch.hslu.cas.msed.blobfish.base.PlayerColor</text><line style="stroke:#181818;stroke-width:0.5;" x1="143" x2="804.6016" y1="910.2969" y2="910.2969"/><ellipse cx="153" cy="923.9453" fill="#84BE84" rx="3" ry="3" style="stroke:#038048;stroke-width:1;"/><text fill="#000000" font-family="sans-serif" font-size="14" font-style="italic" lengthAdjust="spacing" textLength="637.6016" x="162" y="927.292">getNextMove ( paramChessBoard1 : ch.hslu.cas.msed.blobfish.board.ChessBoard ) : String</text></g><!--class HumanPlayer--><g class="entity" data-entity="HumanPlayer" data-source-line="8" data-uid="ent0009" id="entity_HumanPlayer"><rect fill="#F1F1F1" height="80.5938" rx="2.5" ry="2.5" style="stroke:#181818;stroke-width:0.5;" width="663.6016" x="142" y="629.5"/><ellipse cx="422.5229" cy="645.5" fill="#ADD1B2" rx="11" ry="11" style="stroke:#181818;stroke-width:1;"/><path d="M425.4917,651.1406 Q424.9136,651.4375 424.2729,651.5781 Q423.6323,651.7344 422.9292,651.7344 Q420.4292,651.7344 419.1011,650.0938 Q417.7886,648.4375 417.7886,645.3125 Q417.7886,642.1875 419.1011,640.5313 Q420.4292,638.875 422.9292,638.875 Q423.6323,638.875 424.2729,639.0313 Q424.9292,639.1875 425.4917,639.4844 L425.4917,642.2031 Q424.8667,641.625 424.2729,641.3594 Q423.6792,641.0781 423.0542,641.0781 Q421.7104,641.0781 421.0229,642.1563 Q420.3354,643.2188 420.3354,645.3125 Q420.3354,647.4063 421.0229,648.4844 Q421.7104,649.5469 423.0542,649.5469 Q423.6792,649.5469 424.2729,649.2813 Q424.8667,649 425.4917,648.4219 L425.4917,651.1406 Z " fill="#000000"/><text fill="#000000" font-family="sans-serif" font-size="14" lengthAdjust="spacing" textLength="94.0557" x="443.0229" y="650.3467">HumanPlayer</text><line style="stroke:#181818;stroke-width:0.5;" x1="143" x2="804.6016" y1="661.5" y2="661.5"/><rect fill="none" height="6" style="stroke:#C82930;stroke-width:1;" width="6" x="150" y="672.1484"/><text fill="#000000" font-family="sans-serif" font-size="14" lengthAdjust="spacing" textLength="375.3818" x="162" y="678.4951">reader : ch.hslu.cas.msed.blobfish.game.InputReader</text><line style="stroke:#181818;stroke-width:0.5;" x1="143" x2="804.6016" y1="685.7969" y2="685.7969"/><ellipse cx="153" cy="699.4453" fill="#84BE84" rx="3" ry="3" style="stroke:#038048;stroke-width:1;"/><text fill="#000000" font-family="sans-serif" font-size="14" lengthAdjust="spacing" textLength="637.6016" x="162" y="702.792">getNextMove ( paramChessBoard1 : ch.hslu.cas.msed.blobfish.board.ChessBoard ) : String</text></g><!--class BotAlgorithm--><g class="entity" data-entity="BotAlgorithm" data-source-line="14" data-uid="ent0010" id="entity_BotAlgorithm"><rect fill="#F1F1F1" height="113.1875" rx="2.5" ry="2.5" style="stroke:#181818;stroke-width:0.5;" width="694.6025" x="4710.5" y="838"/><ellipse cx="5007.4395" cy="854" fill="#A9DCDF" rx="11" ry="11" style="stroke:#181818;stroke-width:1;"/><path d="M5007.5488,849.3438 L5006.3926,854.4219 L5008.7207,854.4219 L5007.5488,849.3438 Z M5006.0645,847.1094 L5009.0488,847.1094 L5012.4082,859.5 L5009.9551,859.5 L5009.1895,856.4375 L5005.9082,856.4375 L5005.1582,859.5 L5002.7207,859.5 L5006.0645,847.1094 Z " fill="#000000"/><text fill="#000000" font-family="sans-serif" font-size="14" font-style="italic" lengthAdjust="spacing" textLength="92.2236" x="5027.9395" y="858.8467">BotAlgorithm</text><line style="stroke:#181818;stroke-width:0.5;" x1="4711.5" x2="5404.1025" y1="870" y2="870"/><rect fill="none" height="6" style="stroke:#C82930;stroke-width:1;" width="6" x="4718.5" y="880.6484"/><text fill="#000000" font-family="sans-serif" font-size="14" lengthAdjust="spacing" textLength="150.5342" x="4730.5" y="886.9951">calculationDepth : int</text><rect fill="none" height="6" style="stroke:#C82930;stroke-width:1;" width="6" x="4718.5" y="896.9453"/><text fill="#000000" font-family="sans-serif" font-size="14" lengthAdjust="spacing" textLength="411.3389" x="4730.5" y="903.292">evalStrategy : ch.hslu.cas.msed.blobfish.eval.EvalStrategy</text><rect fill="none" height="6" style="stroke:#C82930;stroke-width:1;" width="6" x="4718.5" y="913.2422"/><text fill="#000000" font-family="sans-serif" font-size="14" lengthAdjust="spacing" textLength="425.5303" x="4730.5" y="919.5889">ownPlayerColor : ch.hslu.cas.msed.blobfish.base.PlayerColor</text><line style="stroke:#181818;stroke-width:0.5;" x1="4711.5" x2="5404.1025" y1="926.8906" y2="926.8906"/><ellipse cx="4721.5" cy="940.5391" fill="#84BE84" rx="3" ry="3" style="stroke:#038048;stroke-width:1;"/><text fill="#000000" font-family="sans-serif" font-size="14" font-style="italic" lengthAdjust="spacing" textLength="668.6025" x="4730.5" y="943.8857">getNextBestMove ( paramChessBoard1 : ch.hslu.cas.msed.blobfish.board.ChessBoard ) : String</text></g><!--class BotPlayer--><g class="entity" data-entity="BotPlayer" data-source-line="22" data-uid="ent0012" id="entity_BotPlayer"><rect fill="#F1F1F1" height="48" rx="2.5" ry="2.5" style="stroke:#181818;stroke-width:0.5;" width="99.2246" x="5721.5" y="646"/><ellipse cx="5736.5" cy="662" fill="#A9DCDF" rx="11" ry="11" style="stroke:#181818;stroke-width:1;"/><path d="M5736.6094,657.3438 L5735.4531,662.4219 L5737.7813,662.4219 L5736.6094,657.3438 Z M5735.125,655.1094 L5738.1094,655.1094 L5741.4688,667.5 L5739.0156,667.5 L5738.25,664.4375 L5734.9688,664.4375 L5734.2188,667.5 L5731.7813,667.5 L5735.125,655.1094 Z " fill="#000000"/><text fill="#000000" font-family="sans-serif" font-size="14" font-style="italic" lengthAdjust="spacing" textLength="67.2246" x="5750.5" y="666.8467">BotPlayer</text><line style="stroke:#181818;stroke-width:0.5;" x1="5722.5" x2="5819.7246" y1="678" y2="678"/><line style="stroke:#181818;stroke-width:0.5;" x1="5722.5" x2="5819.7246" y1="686" y2="686"/></g><!--class MiniMaxAlgo--><g class="entity" data-entity="MiniMaxAlgo" data-source-line="26" data-uid="ent0013" id="entity_MiniMaxAlgo"><rect fill="#F1F1F1" height="48" rx="2.5" ry="2.5" style="stroke:#181818;stroke-width:0.5;" width="120.5938" x="4581.5" y="646"/><ellipse cx="4596.5" cy="662" fill="#A9DCDF" rx="11" ry="11" style="stroke:#181818;stroke-width:1;"/><path d="M4596.6094,657.3438 L4595.4531,662.4219 L4597.7813,662.4219 L4596.6094,657.3438 Z M4595.125,655.1094 L4598.1094,655.1094 L4601.4688,667.5 L4599.0156,667.5 L4598.25,664.4375 L4594.9688,664.4375 L4594.2188,667.5 L4591.7813,667.5 L4595.125,655.1094 Z " fill="#000000"/><text fill="#000000" font-family="sans-serif" font-size="14" font-style="italic" lengthAdjust="spacing" textLength="88.5938" x="4610.5" y="666.8467">MiniMaxAlgo</text><line style="stroke:#181818;stroke-width:0.5;" x1="4582.5" x2="4701.0938" y1="678" y2="678"/><line style="stroke:#181818;stroke-width:0.5;" x1="4582.5" x2="4701.0938" y1="686" y2="686"/></g><!--class MiniMaxBotPlayer--><g class="entity" data-entity="MiniMaxBotPlayer" data-source-line="30" data-uid="ent0015" id="entity_MiniMaxBotPlayer"><rect fill="#F1F1F1" height="64.2969" rx="2.5" ry="2.5" style="stroke:#181818;stroke-width:0.5;" width="663.6016" x="5025" y="391"/><ellipse cx="5290.1011" cy="407" fill="#ADD1B2" rx="11" ry="11" style="stroke:#181818;stroke-width:1;"/><path d="M5293.0698,412.6406 Q5292.4917,412.9375 5291.8511,413.0781 Q5291.2104,413.2344 5290.5073,413.2344 Q5288.0073,413.2344 5286.6792,411.5938 Q5285.3667,409.9375 5285.3667,406.8125 Q5285.3667,403.6875 5286.6792,402.0313 Q5288.0073,400.375 5290.5073,400.375 Q5291.2104,400.375 5291.8511,400.5313 Q5292.5073,400.6875 5293.0698,400.9844 L5293.0698,403.7031 Q5292.4448,403.125 5291.8511,402.8594 Q5291.2573,402.5781 5290.6323,402.5781 Q5289.2886,402.5781 5288.6011,403.6563 Q5287.9136,404.7188 5287.9136,406.8125 Q5287.9136,408.9063 5288.6011,409.9844 Q5289.2886,411.0469 5290.6323,411.0469 Q5291.2573,411.0469 5291.8511,410.7813 Q5292.4448,410.5 5293.0698,409.9219 L5293.0698,412.6406 Z " fill="#000000"/><text fill="#000000" font-family="sans-serif" font-size="14" lengthAdjust="spacing" textLength="124.8994" x="5310.6011" y="411.8467">MiniMaxBotPlayer</text><line style="stroke:#181818;stroke-width:0.5;" x1="5026" x2="5687.6016" y1="423" y2="423"/><line style="stroke:#181818;stroke-width:0.5;" x1="5026" x2="5687.6016" y1="431" y2="431"/><ellipse cx="5036" cy="444.6484" fill="#84BE84" rx="3" ry="3" style="stroke:#038048;stroke-width:1;"/><text fill="#000000" font-family="sans-serif" font-size="14" lengthAdjust="spacing" textLength="637.6016" x="5045" y="447.9951">getNextMove ( paramChessBoard1 : ch.hslu.cas.msed.blobfish.board.ChessBoard ) : String</text></g><!--class MiniMaxParallel--><g class="entity" data-entity="MiniMaxParallel" data-source-line="35" data-uid="ent0016" id="entity_MiniMaxParallel"><rect fill="#F1F1F1" height="64.2969" rx="2.5" ry="2.5" style="stroke:#181818;stroke-width:0.5;" width="694.6025" x="4294.5" y="391"/><ellipse cx="4582.8945" cy="407" fill="#ADD1B2" rx="11" ry="11" style="stroke:#181818;stroke-width:1;"/><path d="M4585.8633,412.6406 Q4585.2852,412.9375 4584.6445,413.0781 Q4584.0039,413.2344 4583.3008,413.2344 Q4580.8008,413.2344 4579.4727,411.5938 Q4578.1602,409.9375 4578.1602,406.8125 Q4578.1602,403.6875 4579.4727,402.0313 Q4580.8008,400.375 4583.3008,400.375 Q4584.0039,400.375 4584.6445,400.5313 Q4585.3008,400.6875 4585.8633,400.9844 L4585.8633,403.7031 Q4585.2383,403.125 4584.6445,402.8594 Q4584.0508,402.5781 4583.4258,402.5781 Q4582.082,402.5781 4581.3945,403.6563 Q4580.707,404.7188 4580.707,406.8125 Q4580.707,408.9063 4581.3945,409.9844 Q4582.082,411.0469 4583.4258,411.0469 Q4584.0508,411.0469 4584.6445,410.7813 Q4585.2383,410.5 4585.8633,409.9219 L4585.8633,412.6406 Z " fill="#000000"/><text fill="#000000" font-family="sans-serif" font-size="14" lengthAdjust="spacing" textLength="109.3135" x="4603.3945" y="411.8467">MiniMaxParallel</text><line style="stroke:#181818;stroke-width:0.5;" x1="4295.5" x2="4988.1025" y1="423" y2="423"/><line style="stroke:#181818;stroke-width:0.5;" x1="4295.5" x2="4988.1025" y1="431" y2="431"/><ellipse cx="4305.5" cy="444.6484" fill="#84BE84" rx="3" ry="3" style="stroke:#038048;stroke-width:1;"/><text fill="#000000" font-family="sans-serif" font-size="14" lengthAdjust="spacing" textLength="668.6025" x="4314.5" y="447.9951">getNextBestMove ( paramChessBoard1 : ch.hslu.cas.msed.blobfish.board.ChessBoard ) : String</text></g><!--class MiniMaxRecursiveTask--><g class="entity" data-entity="MiniMaxRecursiveTask" data-source-line="40" data-uid="ent0017" id="entity_MiniMaxRecursiveTask"><rect fill="#F1F1F1" height="162.0781" rx="2.5" ry="2.5" style="stroke:#181818;stroke-width:0.5;" width="516.8955" x="862.5" y="342"/><ellipse cx="1037.2197" cy="358" fill="#ADD1B2" rx="11" ry="11" style="stroke:#181818;stroke-width:1;"/><path d="M1040.1885,363.6406 Q1039.6104,363.9375 1038.9697,364.0781 Q1038.3291,364.2344 1037.626,364.2344 Q1035.126,364.2344 1033.7979,362.5938 Q1032.4854,360.9375 1032.4854,357.8125 Q1032.4854,354.6875 1033.7979,353.0313 Q1035.126,351.375 1037.626,351.375 Q1038.3291,351.375 1038.9697,351.5313 Q1039.626,351.6875 1040.1885,351.9844 L1040.1885,354.7031 Q1039.5635,354.125 1038.9697,353.8594 Q1038.376,353.5781 1037.751,353.5781 Q1036.4072,353.5781 1035.7197,354.6563 Q1035.0322,355.7188 1035.0322,357.8125 Q1035.0322,359.9063 1035.7197,360.9844 Q1036.4072,362.0469 1037.751,362.0469 Q1038.376,362.0469 1038.9697,361.7813 Q1039.5635,361.5 1040.1885,360.9219 L1040.1885,363.6406 Z " fill="#000000"/><text fill="#000000" font-family="sans-serif" font-size="14" lengthAdjust="spacing" textLength="158.9561" x="1057.7197" y="362.8467">MiniMaxRecursiveTask</text><line style="stroke:#181818;stroke-width:0.5;" x1="863.5" x2="1378.3955" y1="374" y2="374"/><rect fill="none" height="6" style="stroke:#C82930;stroke-width:1;" width="6" x="870.5" y="384.6484"/><text fill="#000000" font-family="sans-serif" font-size="14" lengthAdjust="spacing" textLength="408.1123" x="882.5" y="390.9951">chessBoard : ch.hslu.cas.msed.blobfish.board.ChessBoard</text><rect fill="none" height="6" style="stroke:#C82930;stroke-width:1;" width="6" x="870.5" y="400.9453"/><text fill="#000000" font-family="sans-serif" font-size="14" lengthAdjust="spacing" textLength="72.6182" x="882.5" y="407.292">depth : int</text><rect fill="none" height="6" style="stroke:#C82930;stroke-width:1;" width="6" x="870.5" y="417.2422"/><text fill="#000000" font-family="sans-serif" font-size="14" lengthAdjust="spacing" textLength="411.3389" x="882.5" y="423.5889">evalStrategy : ch.hslu.cas.msed.blobfish.eval.EvalStrategy</text><rect fill="none" height="6" style="stroke:#C82930;stroke-width:1;" width="6" x="870.5" y="433.5391"/><text fill="#000000" font-family="sans-serif" font-size="14" lengthAdjust="spacing" textLength="407.6543" x="882.5" y="439.8857">playerAtTurn : ch.hslu.cas.msed.blobfish.base.PlayerColor</text><line style="stroke:#181818;stroke-width:0.5;" x1="863.5" x2="1378.3955" y1="447.1875" y2="447.1875"/><polygon fill="#FFFF44" points="873.5,455.8359,877.5,459.8359,873.5,463.8359,869.5,459.8359" style="stroke:#B38D22;stroke-width:1;"/><text fill="#000000" font-family="sans-serif" font-size="14" lengthAdjust="spacing" textLength="490.8955" x="882.5" y="464.1826">compute () : ch.hslu.cas.msed.blobfish.player.bot.minimax.MoveNode</text><rect fill="#F24D5C" height="6" style="stroke:#C82930;stroke-width:1;" width="6" x="870.5" y="474.1328"/><text fill="#000000" font-family="sans-serif" font-size="14" lengthAdjust="spacing" textLength="269.835" x="882.5" y="480.4795">createSubTasks () : java.util.Collection</text><rect fill="#F24D5C" height="6" style="stroke:#C82930;stroke-width:1;" width="6" x="870.5" y="490.4297"/><text fill="#000000" font-family="sans-serif" font-size="14" lengthAdjust="spacing" textLength="353.6162" x="882.5" y="496.7764">getMoveNodeComparator () : java.util.Comparator</text></g><!--class MiniMaxSequential--><g class="entity" data-entity="MiniMaxSequential" data-source-line="51" data-uid="ent0018" id="entity_MiniMaxSequential"><rect fill="#F1F1F1" height="96.8906" rx="2.5" ry="2.5" style="stroke:#181818;stroke-width:0.5;" width="2256.1221" x="2003" y="374.5"/><ellipse cx="3060.6768" cy="390.5" fill="#ADD1B2" rx="11" ry="11" style="stroke:#181818;stroke-width:1;"/><path d="M3063.6455,396.1406 Q3063.0674,396.4375 3062.4268,396.5781 Q3061.7861,396.7344 3061.083,396.7344 Q3058.583,396.7344 3057.2549,395.0938 Q3055.9424,393.4375 3055.9424,390.3125 Q3055.9424,387.1875 3057.2549,385.5313 Q3058.583,383.875 3061.083,383.875 Q3061.7861,383.875 3062.4268,384.0313 Q3063.083,384.1875 3063.6455,384.4844 L3063.6455,387.2031 Q3063.0205,386.625 3062.4268,386.3594 Q3061.833,386.0781 3061.208,386.0781 Q3059.8643,386.0781 3059.1768,387.1563 Q3058.4893,388.2188 3058.4893,390.3125 Q3058.4893,392.4063 3059.1768,393.4844 Q3059.8643,394.5469 3061.208,394.5469 Q3061.833,394.5469 3062.4268,394.2813 Q3063.0205,394 3063.6455,393.4219 L3063.6455,396.1406 Z " fill="#000000"/><text fill="#000000" font-family="sans-serif" font-size="14" lengthAdjust="spacing" textLength="132.2686" x="3081.1768" y="395.3467">MiniMaxSequential</text><line style="stroke:#181818;stroke-width:0.5;" x1="2004" x2="4258.1221" y1="406.5" y2="406.5"/><line style="stroke:#181818;stroke-width:0.5;" x1="2004" x2="4258.1221" y1="414.5" y2="414.5"/><rect fill="#F24D5C" height="6" style="stroke:#C82930;stroke-width:1;" width="6" x="2011" y="425.1484"/><text fill="#000000" font-family="sans-serif" font-size="14" lengthAdjust="spacing" textLength="2230.1221" x="2023" y="431.4951">calcBestPath ( paramChessBoard1 : ch.hslu.cas.msed.blobfish.board.ChessBoard , paramint2 : int , paramPlayerColor3 : ch.hslu.cas.msed.blobfish.base.PlayerColor , paramMoveHistoryNode4 : ch.hslu.cas.msed.blobfish.player.bot.minimax.MoveHistoryNode ) : ch.hslu.cas.msed.blobfish.player.bot.minimax.MoveNode</text><ellipse cx="2014" cy="444.4453" fill="#84BE84" rx="3" ry="3" style="stroke:#038048;stroke-width:1;"/><text fill="#000000" font-family="sans-serif" font-size="14" lengthAdjust="spacing" textLength="668.6025" x="2023" y="447.792">getNextBestMove ( paramChessBoard1 : ch.hslu.cas.msed.blobfish.board.ChessBoard ) : String</text><rect fill="#F24D5C" height="6" style="stroke:#C82930;stroke-width:1;" width="6" x="2011" y="457.7422"/><text fill="#000000" font-family="sans-serif" font-size="14" lengthAdjust="spacing" text-decoration="underline" textLength="597.0918" x="2023" y="464.0889">getSanOfMove ( paramMove1 : com.github.bhlangonijr.chesslib.move.Move ) : String</text></g><!--class MoveHistoryNode--><g class="entity" data-entity="MoveHistoryNode" data-source-line="58" data-uid="ent0019" id="entity_MoveHistoryNode"><rect fill="#F1F1F1" height="178.375" rx="2.5" ry="2.5" style="stroke:#181818;stroke-width:0.5;" width="551.1367" x="1001.5" y="581"/><ellipse cx="1210.8745" cy="597" fill="#ADD1B2" rx="11" ry="11" style="stroke:#181818;stroke-width:1;"/><path d="M1213.8433,602.6406 Q1213.2651,602.9375 1212.6245,603.0781 Q1211.9839,603.2344 1211.2808,603.2344 Q1208.7808,603.2344 1207.4526,601.5938 Q1206.1401,599.9375 1206.1401,596.8125 Q1206.1401,593.6875 1207.4526,592.0313 Q1208.7808,590.375 1211.2808,590.375 Q1211.9839,590.375 1212.6245,590.5313 Q1213.2808,590.6875 1213.8433,590.9844 L1213.8433,593.7031 Q1213.2183,593.125 1212.6245,592.8594 Q1212.0308,592.5781 1211.4058,592.5781 Q1210.062,592.5781 1209.3745,593.6563 Q1208.687,594.7188 1208.687,596.8125 Q1208.687,598.9063 1209.3745,599.9844 Q1210.062,601.0469 1211.4058,601.0469 Q1212.0308,601.0469 1212.6245,600.7813 Q1213.2183,600.5 1213.8433,599.9219 L1213.8433,602.6406 Z " fill="#000000"/><text fill="#000000" font-family="sans-serif" font-size="14" lengthAdjust="spacing" textLength="123.8877" x="1231.3745" y="601.8467">MoveHistoryNode</text><line style="stroke:#181818;stroke-width:0.5;" x1="1002.5" x2="1551.6367" y1="613" y2="613"/><rect fill="none" height="6" style="stroke:#C82930;stroke-width:1;" width="6" x="1009.5" y="623.6484"/><text fill="#000000" font-family="sans-serif" font-size="14" lengthAdjust="spacing" textLength="72.6182" x="1021.5" y="629.9951">depth : int</text><rect fill="none" height="6" style="stroke:#C82930;stroke-width:1;" width="6" x="1009.5" y="639.9453"/><text fill="#000000" font-family="sans-serif" font-size="14" lengthAdjust="spacing" textLength="94.5" x="1021.5" y="646.292">move : String</text><line style="stroke:#181818;stroke-width:0.5;" x1="1002.5" x2="1551.6367" y1="653.5938" y2="653.5938"/><ellipse cx="1012.5" cy="667.2422" fill="#84BE84" rx="3" ry="3" style="stroke:#038048;stroke-width:1;"/><text fill="#000000" font-family="sans-serif" font-size="14" lengthAdjust="spacing" textLength="87.9922" x="1021.5" y="670.5889">depth () : int</text><ellipse cx="1012.5" cy="683.5391" fill="#84BE84" rx="3" ry="3" style="stroke:#038048;stroke-width:1;"/><text fill="#000000" font-family="sans-serif" font-size="14" lengthAdjust="spacing" textLength="299.1543" x="1021.5" y="686.8857">equals ( paramObject1 : Object ) : boolean</text><ellipse cx="1012.5" cy="699.8359" fill="#84BE84" rx="3" ry="3" style="stroke:#038048;stroke-width:1;"/><text fill="#000000" font-family="sans-serif" font-size="14" lengthAdjust="spacing" textLength="116.7031" x="1021.5" y="703.1826">hashCode () : int</text><ellipse cx="1012.5" cy="716.1328" fill="#84BE84" rx="3" ry="3" style="stroke:#038048;stroke-width:1;"/><text fill="#000000" font-family="sans-serif" font-size="14" lengthAdjust="spacing" textLength="109.874" x="1021.5" y="719.4795">move () : String</text><ellipse cx="1012.5" cy="732.4297" fill="#84BE84" rx="3" ry="3" style="stroke:#038048;stroke-width:1;"/><text fill="#000000" font-family="sans-serif" font-size="14" lengthAdjust="spacing" textLength="525.1367" x="1021.5" y="735.7764">parent () : ch.hslu.cas.msed.blobfish.player.bot.minimax.MoveHistoryNode</text><ellipse cx="1012.5" cy="748.7266" fill="#84BE84" rx="3" ry="3" style="stroke:#038048;stroke-width:1;"/><text fill="#000000" font-family="sans-serif" font-size="14" lengthAdjust="spacing" textLength="126.6084" x="1021.5" y="752.0732">toString () : String</text></g><!--class MoveNode--><g class="entity" data-entity="MoveNode" data-source-line="70" data-uid="ent0020" id="entity_MoveNode"><rect fill="#F1F1F1" height="162.0781" rx="2.5" ry="2.5" style="stroke:#181818;stroke-width:0.5;" width="553.0918" x="1414.5" y="342"/><ellipse cx="1649.7554" cy="358" fill="#ADD1B2" rx="11" ry="11" style="stroke:#181818;stroke-width:1;"/><path d="M1652.7241,363.6406 Q1652.146,363.9375 1651.5054,364.0781 Q1650.8647,364.2344 1650.1616,364.2344 Q1647.6616,364.2344 1646.3335,362.5938 Q1645.021,360.9375 1645.021,357.8125 Q1645.021,354.6875 1646.3335,353.0313 Q1647.6616,351.375 1650.1616,351.375 Q1650.8647,351.375 1651.5054,351.5313 Q1652.1616,351.6875 1652.7241,351.9844 L1652.7241,354.7031 Q1652.0991,354.125 1651.5054,353.8594 Q1650.9116,353.5781 1650.2866,353.5781 Q1648.9429,353.5781 1648.2554,354.6563 Q1647.5679,355.7188 1647.5679,357.8125 Q1647.5679,359.9063 1648.2554,360.9844 Q1648.9429,362.0469 1650.2866,362.0469 Q1650.9116,362.0469 1651.5054,361.7813 Q1652.0991,361.5 1652.7241,360.9219 L1652.7241,363.6406 Z " fill="#000000"/><text fill="#000000" font-family="sans-serif" font-size="14" lengthAdjust="spacing" textLength="74.0811" x="1670.2554" y="362.8467">MoveNode</text><line style="stroke:#181818;stroke-width:0.5;" x1="1415.5" x2="1966.5918" y1="374" y2="374"/><rect fill="none" height="6" style="stroke:#C82930;stroke-width:1;" width="6" x="1422.5" y="384.6484"/><text fill="#000000" font-family="sans-serif" font-size="14" lengthAdjust="spacing" textLength="90.6992" x="1434.5" y="390.9951">eval : double</text><line style="stroke:#181818;stroke-width:0.5;" x1="1415.5" x2="1966.5918" y1="398.2969" y2="398.2969"/><ellipse cx="1425.5" cy="411.9453" fill="#84BE84" rx="3" ry="3" style="stroke:#038048;stroke-width:1;"/><text fill="#000000" font-family="sans-serif" font-size="14" lengthAdjust="spacing" textLength="299.1543" x="1434.5" y="415.292">equals ( paramObject1 : Object ) : boolean</text><ellipse cx="1425.5" cy="428.2422" fill="#84BE84" rx="3" ry="3" style="stroke:#038048;stroke-width:1;"/><text fill="#000000" font-family="sans-serif" font-size="14" lengthAdjust="spacing" textLength="106.0732" x="1434.5" y="431.5889">eval () : double</text><ellipse cx="1425.5" cy="444.5391" fill="#84BE84" rx="3" ry="3" style="stroke:#038048;stroke-width:1;"/><text fill="#000000" font-family="sans-serif" font-size="14" lengthAdjust="spacing" textLength="135.6729" x="1434.5" y="447.8857">firstMove () : String</text><ellipse cx="1425.5" cy="460.8359" fill="#84BE84" rx="3" ry="3" style="stroke:#038048;stroke-width:1;"/><text fill="#000000" font-family="sans-serif" font-size="14" lengthAdjust="spacing" textLength="116.7031" x="1434.5" y="464.1826">hashCode () : int</text><ellipse cx="1425.5" cy="477.1328" fill="#84BE84" rx="3" ry="3" style="stroke:#038048;stroke-width:1;"/><text fill="#000000" font-family="sans-serif" font-size="14" lengthAdjust="spacing" textLength="527.0918" x="1434.5" y="480.4795">history () : ch.hslu.cas.msed.blobfish.player.bot.minimax.MoveHistoryNode</text><ellipse cx="1425.5" cy="493.4297" fill="#84BE84" rx="3" ry="3" style="stroke:#038048;stroke-width:1;"/><text fill="#000000" font-family="sans-serif" font-size="14" lengthAdjust="spacing" textLength="126.6084" x="1434.5" y="496.7764">toString () : String</text></g><!--class InvalidMoveException--><g class="entity" data-entity="InvalidMoveException" data-source-line="81" data-uid="ent0021" id="entity_InvalidMoveException"><rect fill="#F1F1F1" height="64.2969" rx="2.5" ry="2.5" style="stroke:#181818;stroke-width:0.5;" width="185.2207" x="381.5" y="391"/><ellipse cx="396.5" cy="407" fill="#ADD1B2" rx="11" ry="11" style="stroke:#181818;stroke-width:1;"/><path d="M399.4688,412.6406 Q398.8906,412.9375 398.25,413.0781 Q397.6094,413.2344 396.9063,413.2344 Q394.4063,413.2344 393.0781,411.5938 Q391.7656,409.9375 391.7656,406.8125 Q391.7656,403.6875 393.0781,402.0313 Q394.4063,400.375 396.9063,400.375 Q397.6094,400.375 398.25,400.5313 Q398.9063,400.6875 399.4688,400.9844 L399.4688,403.7031 Q398.8438,403.125 398.25,402.8594 Q397.6563,402.5781 397.0313,402.5781 Q395.6875,402.5781 395,403.6563 Q394.3125,404.7188 394.3125,406.8125 Q394.3125,408.9063 395,409.9844 Q395.6875,411.0469 397.0313,411.0469 Q397.6563,411.0469 398.25,410.7813 Q398.8438,410.5 399.4688,409.9219 L399.4688,412.6406 Z " fill="#000000"/><text fill="#000000" font-family="sans-serif" font-size="14" lengthAdjust="spacing" textLength="153.2207" x="410.5" y="411.8467">InvalidMoveException</text><line style="stroke:#181818;stroke-width:0.5;" x1="382.5" x2="565.7207" y1="423" y2="423"/><rect fill="none" height="6" style="stroke:#C82930;stroke-width:1;" width="6" x="389.5" y="433.6484"/><text fill="#000000" font-family="sans-serif" font-size="14" lengthAdjust="spacing" textLength="145.2705" x="401.5" y="439.9951">originalMove : String</text><line style="stroke:#181818;stroke-width:0.5;" x1="382.5" x2="565.7207" y1="447.2969" y2="447.2969"/></g><!--link HumanPlayer to AbstractPlayer--><g class="link" data-entity-1="HumanPlayer" data-entity-2="AbstractPlayer" data-source-line="88" data-uid="lnk23" id="link_HumanPlayer_AbstractPlayer"><path codeLine="88" d="M474,710.52 C474,750.98 474,795.51 474,835.97" fill="none" id="HumanPlayer-to-AbstractPlayer" style="stroke:#181818;stroke-width:1;"/><polygon fill="none" points="474,853.97,480,835.97,468,835.97,474,853.97" style="stroke:#181818;stroke-width:1;"/></g><!--reverse link BotPlayer to BotAlgorithm--><g class="link" data-entity-1="BotPlayer" data-entity-2="BotAlgorithm" data-source-line="89" data-uid="lnk24" id="link_BotPlayer_BotAlgorithm"><path codeLine="89" d="M5759.8659,705.7523 C5750.6559,731.7723 5736.03,761.6 5705,783 C5654.34,817.93 5531.28,843.06 5405.91,860.43" fill="none" id="BotPlayer-backto-BotAlgorithm" style="stroke:#181818;stroke-width:1;"/><polygon fill="#181818" points="5763.87,694.44,5758.0972,698.7614,5759.8659,705.7523,5765.6387,701.4308,5763.87,694.44" style="stroke:#181818;stroke-width:1;"/><text fill="#000000" font-family="sans-serif" font-size="13" lengthAdjust="spacing" textLength="84.9697" x="5689" y="804.0669">botAlgorithm</text></g><!--link BotPlayer to AbstractPlayer--><g class="link" data-entity-1="BotPlayer" data-entity-2="AbstractPlayer" data-source-line="90" data-uid="lnk25" id="link_BotPlayer_AbstractPlayer"><path codeLine="90" d="M5764.75,694.39 C5756.2,721.2 5738.01,763.89 5705,783 C5646.3,816.98 889.58,832.26 822,838 C779.18,841.64 751.4507,844.7891 707.9307,851.3191" fill="none" id="BotPlayer-to-AbstractPlayer" style="stroke:#181818;stroke-width:1;"/><polygon fill="none" points="690.13,853.99,708.821,857.2526,707.0404,845.3855,690.13,853.99" style="stroke:#181818;stroke-width:1;"/></g><!--link MiniMaxAlgo to BotAlgorithm--><g class="link" data-entity-1="MiniMaxAlgo" data-entity-2="BotAlgorithm" data-source-line="91" data-uid="lnk26" id="link_MiniMaxAlgo_BotAlgorithm"><path codeLine="91" d="M4648.22,694.09 C4656.71,720.61 4674.68,763.02 4707,783 C4731.24,797.99 4807.36,784.04 4835,791 C4876.84,801.53 4904.268,811.9074 4941.728,830.0974" fill="none" id="MiniMaxAlgo-to-BotAlgorithm" style="stroke:#181818;stroke-width:1;"/><polygon fill="none" points="4957.92,837.96,4944.3489,824.7001,4939.1072,835.4948,4957.92,837.96" style="stroke:#181818;stroke-width:1;"/></g><!--link MiniMaxBotPlayer to BotPlayer--><g class="link" data-entity-1="MiniMaxBotPlayer" data-entity-2="BotPlayer" data-source-line="92" data-uid="lnk27" id="link_MiniMaxBotPlayer_BotPlayer"><path codeLine="92" d="M5460.04,455.07 C5533.56,480.72 5631.94,522.46 5705,581 C5727.5,599.03 5737.1078,611.006 5748.8478,630.426" fill="none" id="MiniMaxBotPlayer-to-BotPlayer" style="stroke:#181818;stroke-width:1;"/><polygon fill="none" points="5758.16,645.83,5753.9825,627.3219,5743.7131,633.5301,5758.16,645.83" style="stroke:#181818;stroke-width:1;"/></g><!--link MiniMaxParallel to MiniMaxAlgo--><g class="link" data-entity-1="MiniMaxParallel" data-entity-2="MiniMaxAlgo" data-source-line="93" data-uid="lnk28" id="link_MiniMaxParallel_MiniMaxAlgo"><path codeLine="93" d="M4642,455.03 C4642,504.86 4642,583.61 4642,627.88" fill="none" id="MiniMaxParallel-to-MiniMaxAlgo" style="stroke:#181818;stroke-width:1;"/><polygon fill="none" points="4642,645.88,4648,627.88,4636,627.88,4642,645.88" style="stroke:#181818;stroke-width:1;"/></g><!--reverse link MiniMaxRecursiveTask to MoveHistoryNode--><g class="link" data-entity-1="MiniMaxRecursiveTask" data-entity-2="MoveHistoryNode" data-source-line="94" data-uid="lnk29" id="link_MiniMaxRecursiveTask_MoveHistoryNode"><path codeLine="94" d="M1178.5257,514.3419 C1194.1657,538.9019 1205,555.93 1220.96,580.98" fill="none" id="MiniMaxRecursiveTask-backto-MoveHistoryNode" style="stroke:#181818;stroke-width:1;"/><polygon fill="#181818" points="1172.08,504.22,1171.9289,511.4295,1178.5257,514.3419,1178.6768,507.1324,1172.08,504.22" style="stroke:#181818;stroke-width:1;"/><text fill="#000000" font-family="sans-serif" font-size="13" lengthAdjust="spacing" textLength="44.7129" x="1200" y="547.0669">history</text></g><!--link MiniMaxSequential to MiniMaxAlgo--><g class="link" data-entity-1="MiniMaxSequential" data-entity-2="MiniMaxAlgo" data-source-line="95" data-uid="lnk30" id="link_MiniMaxSequential_MiniMaxAlgo"><path codeLine="95" d="M3424.13,471.53 C3789.73,530.81 4372.2821,625.2688 4563.6421,656.2988" fill="none" id="MiniMaxSequential-to-MiniMaxAlgo" style="stroke:#181818;stroke-width:1;"/><polygon fill="none" points="4581.41,659.18,4564.6025,650.3762,4562.6817,662.2215,4581.41,659.18" style="stroke:#181818;stroke-width:1;"/></g><!--reverse link MoveHistoryNode to MoveHistoryNode--><g class="link" data-entity-1="MoveHistoryNode" data-entity-2="MoveHistoryNode" data-source-line="96" data-uid="lnk31" id="link_MoveHistoryNode_MoveHistoryNode"><path codeLine="96" d="M1564.3564,654.2471 C1585.9664,658.1771 1587.5,662 1587.5,670 C1587.5,678 1574.16,683.97 1552.55,687.9" fill="none" id="MoveHistoryNode-backto-MoveHistoryNode" style="stroke:#181818;stroke-width:1;"/><polygon fill="#181818" points="1552.55,652.1,1557.7375,657.109,1564.3564,654.2471,1559.1689,649.2381,1552.55,652.1" style="stroke:#181818;stroke-width:1;"/><text fill="#000000" font-family="sans-serif" font-size="13" lengthAdjust="spacing" textLength="42.8975" x="1593.5" y="674.5669">parent</text></g><!--reverse link MoveNode to MoveHistoryNode--><g class="link" data-entity-1="MoveNode" data-entity-2="MoveHistoryNode" data-source-line="97" data-uid="lnk32" id="link_MoveNode_MoveHistoryNode"><path codeLine="97" d="M1545.4027,510.1613 C1503.8827,534.7313 1468.3,555.79 1425.92,580.87" fill="none" id="MoveNode-backto-MoveHistoryNode" style="stroke:#181818;stroke-width:1;"/><polygon fill="#181818" points="1555.73,504.05,1548.5293,503.6632,1545.4027,510.1613,1552.6035,510.5481,1555.73,504.05" style="stroke:#181818;stroke-width:1;"/><text fill="#000000" font-family="sans-serif" font-size="13" lengthAdjust="spacing" textLength="44.7129" x="1497" y="547.0669">history</text></g><!--SRC=[pLTDSzem43tNlq8plIIbQAOVfnmwaz3Cf0SI9kGFhEt5LYfBr98f6Ph_tfMDGIGkZMt8v0J6g_TsttveWT3O72BB8Wd6i2ZbgP45Zy3mp63CGwd3cJ0fdqjum9oVh-qdvIDR1UzMCu4oVcJ3ocAafSxPsHwa40pooTQO83AqgIOCje8r_YCR96YlSMd7Ue7iXCqXXsoKeZ4N6lBuqtuAPyAtrkoKpASs5oe97eCWU66mLqK6gY7I7276_K4ca27_eUQ5lIsDlI2F6HYqJ6UeBR_GzbmcEXSspNR2Z416XGGhjFgESviIbL3MCy05I287Yyd3NhUT8R_qh3qG_LjDZbCv5sZUaiYRGkgAaGabCbZoCNsEOUcIjaRh3kBxzJebsjtN2RaX9Sf6Lu-LxExktc9Kv4Oiy0xCpzt6shArSSr3Y8_NZrL0v_Qko5NNRdmVwOn67oNZT2z4atYKmsiTeuSsZ6ZWMfmMeLFILA3ti01UM24vaKkCt9Jopr1Pr50ZSePAmj9qUNQqVjCprrFyLQ2o0dQBinoXhZ8dGEdgMvaVg_EKyyzLwkjVl2HyQPMo6i0fTIKCwV3W1FlQ9MdUUNQ8h1-piVrxmrYwuQAgOgQWRcO-cVjUqkYC9tH15Y4FKmagqKhSvxniP2b2df5T6SGXniSJCLV_xNl7tXJSe38lYxuwiNb3zGhIr67UXFVKGIxGwbiPHQYrHF2RQf22IKVEfoR8qekJHfK7n4BjqN4SU6Buc5PNF3kSFJH_9hQRaeGSwoAKs5-y4gxqzJdYJEHrbJSBk5Vvj1BeRScBouYgZwQoeJsOGXUn8xkiVzrHcfRFH2YGuvr2TcH4rsPB7mx_V6Dj_yK4BJUu3yCXwx1QkwBOFhObFM9aJNlb2-cU1Xdqsq7RiVQ8SRDAjc1ia2delnU-l9Z-TJ-SiNN_1pqtbrVLuaaGXv2XkcI2ReF_a7a8_W80]--></g></svg>