<svg xmlns="http://www.w3.org/2000/svg" xmlns:xlink="http://www.w3.org/1999/xlink" contentStyleType="text/css" data-diagram-type="CLASS" height="655px" preserveAspectRatio="none" style="width:1892px;height:655px;background:#FFFFFF;" version="1.1" viewBox="0 0 1892 655" width="1892px" zoomAndPan="magnify"><defs/><g><!--cluster ch--><g class="cluster" data-entity="ch" data-source-line="2" data-uid="ent0003" id="cluster_ch"><path d="M8.5,6 L27.7656,6 A3.75,3.75 0 0 1 30.2656,8.5 L37.2656,28.2969 L1882.5,28.2969 A2.5,2.5 0 0 1 1885,30.7969 L1885,646 A2.5,2.5 0 0 1 1882.5,648.5 L8.5,648.5 A2.5,2.5 0 0 1 6,646 L6,8.5 A2.5,2.5 0 0 1 8.5,6" fill="none" style="stroke:#000000;stroke-width:1.5;"/><line style="stroke:#000000;stroke-width:1.5;" x1="6" x2="37.2656" y1="28.2969" y2="28.2969"/><text fill="#000000" font-family="sans-serif" font-size="14" font-weight="bold" lengthAdjust="spacing" textLength="18.2656" x="10" y="20.9951">ch</text></g><!--cluster hslu--><g class="cluster" data-entity="hslu" data-source-line="2" data-uid="ent0004" id="cluster_hslu"><path d="M32.5,49 L66.5654,49 A3.75,3.75 0 0 1 69.0654,51.5 L76.0654,71.2969 L1858.5,71.2969 A2.5,2.5 0 0 1 1861,73.7969 L1861,622 A2.5,2.5 0 0 1 1858.5,624.5 L32.5,624.5 A2.5,2.5 0 0 1 30,622 L30,51.5 A2.5,2.5 0 0 1 32.5,49" fill="none" style="stroke:#000000;stroke-width:1.5;"/><line style="stroke:#000000;stroke-width:1.5;" x1="30" x2="76.0654" y1="71.2969" y2="71.2969"/><text fill="#000000" font-family="sans-serif" font-size="14" font-weight="bold" lengthAdjust="spacing" textLength="33.0654" x="34" y="63.9951">hslu</text></g><!--cluster cas--><g class="cluster" data-entity="cas" data-source-line="2" data-uid="ent0005" id="cluster_cas"><path d="M56.5,92 L83.5791,92 A3.75,3.75 0 0 1 86.0791,94.5 L93.0791,114.2969 L1834.5,114.2969 A2.5,2.5 0 0 1 1837,116.7969 L1837,598 A2.5,2.5 0 0 1 1834.5,600.5 L56.5,600.5 A2.5,2.5 0 0 1 54,598 L54,94.5 A2.5,2.5 0 0 1 56.5,92" fill="none" style="stroke:#000000;stroke-width:1.5;"/><line style="stroke:#000000;stroke-width:1.5;" x1="54" x2="93.0791" y1="114.2969" y2="114.2969"/><text fill="#000000" font-family="sans-serif" font-size="14" font-weight="bold" lengthAdjust="spacing" textLength="26.0791" x="58" y="106.9951">cas</text></g><!--cluster msed--><g class="cluster" data-entity="msed" data-source-line="2" data-uid="ent0006" id="cluster_msed"><path d="M80.5,135 L123.9375,135 A3.75,3.75 0 0 1 126.4375,137.5 L133.4375,157.2969 L1810.5,157.2969 A2.5,2.5 0 0 1 1813,159.7969 L1813,574 A2.5,2.5 0 0 1 1810.5,576.5 L80.5,576.5 A2.5,2.5 0 0 1 78,574 L78,137.5 A2.5,2.5 0 0 1 80.5,135" fill="none" style="stroke:#000000;stroke-width:1.5;"/><line style="stroke:#000000;stroke-width:1.5;" x1="78" x2="133.4375" y1="157.2969" y2="157.2969"/><text fill="#000000" font-family="sans-serif" font-size="14" font-weight="bold" lengthAdjust="spacing" textLength="42.4375" x="82" y="149.9951">msed</text></g><!--cluster blobfish--><g class="cluster" data-entity="blobfish" data-source-line="2" data-uid="ent0007" id="cluster_blobfish"><path d="M104.5,178 L169.1494,178 A3.75,3.75 0 0 1 171.6494,180.5 L178.6494,200.2969 L1786.5,200.2969 A2.5,2.5 0 0 1 1789,202.7969 L1789,550 A2.5,2.5 0 0 1 1786.5,552.5 L104.5,552.5 A2.5,2.5 0 0 1 102,550 L102,180.5 A2.5,2.5 0 0 1 104.5,178" fill="none" style="stroke:#000000;stroke-width:1.5;"/><line style="stroke:#000000;stroke-width:1.5;" x1="102" x2="178.6494" y1="200.2969" y2="200.2969"/><text fill="#000000" font-family="sans-serif" font-size="14" font-weight="bold" lengthAdjust="spacing" textLength="63.6494" x="106" y="192.9951">blobfish</text></g><!--cluster player--><g class="cluster" data-entity="player" data-source-line="2" data-uid="ent0008" id="cluster_player"><path d="M128.5,221 L179.293,221 A3.75,3.75 0 0 1 181.793,223.5 L188.793,243.2969 L1762.5,243.2969 A2.5,2.5 0 0 1 1765,245.7969 L1765,526 A2.5,2.5 0 0 1 1762.5,528.5 L128.5,528.5 A2.5,2.5 0 0 1 126,526 L126,223.5 A2.5,2.5 0 0 1 128.5,221" fill="none" style="stroke:#000000;stroke-width:1.5;"/><line style="stroke:#000000;stroke-width:1.5;" x1="126" x2="188.793" y1="243.2969" y2="243.2969"/><text fill="#000000" font-family="sans-serif" font-size="14" font-weight="bold" lengthAdjust="spacing" textLength="49.793" x="130" y="235.9951">player</text></g><!--cluster exceptions--><g class="cluster" data-entity="exceptions" data-source-line="19" data-uid="ent0012" id="cluster_exceptions"><path d="M1527.5,264 L1614.25,264 A3.75,3.75 0 0 1 1616.75,266.5 L1623.75,286.2969 L1738.5,286.2969 A2.5,2.5 0 0 1 1741,288.7969 L1741,376.5 A2.5,2.5 0 0 1 1738.5,379 L1527.5,379 A2.5,2.5 0 0 1 1525,376.5 L1525,266.5 A2.5,2.5 0 0 1 1527.5,264" fill="none" style="stroke:#000000;stroke-width:1.5;"/><line style="stroke:#000000;stroke-width:1.5;" x1="1525" x2="1623.75" y1="286.2969" y2="286.2969"/><text fill="#000000" font-family="sans-serif" font-size="14" font-weight="bold" lengthAdjust="spacing" textLength="85.75" x="1529" y="278.9951">exceptions</text></g><!--class AbstractPlayer--><g class="entity" data-entity="AbstractPlayer" data-source-line="2" data-uid="ent0002" id="entity_AbstractPlayer"><rect fill="#F1F1F1" height="80.5938" rx="2.5" ry="2.5" style="stroke:#181818;stroke-width:0.5;" width="663.6016" x="491" y="431.5"/><ellipse cx="767.3838" cy="447.5" fill="#A9DCDF" rx="11" ry="11" style="stroke:#181818;stroke-width:1;"/><path d="M767.4932,442.8438 L766.3369,447.9219 L768.665,447.9219 L767.4932,442.8438 Z M766.0088,440.6094 L768.9932,440.6094 L772.3525,453 L769.8994,453 L769.1338,449.9375 L765.8525,449.9375 L765.1025,453 L762.665,453 L766.0088,440.6094 Z " fill="#000000"/><text fill="#000000" font-family="sans-serif" font-size="14" font-style="italic" lengthAdjust="spacing" textLength="102.334" x="787.8838" y="452.3467">AbstractPlayer</text><line style="stroke:#181818;stroke-width:0.5;" x1="492" x2="1153.6016" y1="463.5" y2="463.5"/><rect fill="none" height="6" style="stroke:#C82930;stroke-width:1;" width="6" x="499" y="474.1484"/><text fill="#000000" font-family="sans-serif" font-size="14" lengthAdjust="spacing" textLength="397.0859" x="511" y="480.4951">playerColor : ch.hslu.cas.msed.blobfish.base.PlayerColor</text><line style="stroke:#181818;stroke-width:0.5;" x1="492" x2="1153.6016" y1="487.7969" y2="487.7969"/><ellipse cx="502" cy="501.4453" fill="#84BE84" rx="3" ry="3" style="stroke:#038048;stroke-width:1;"/><text fill="#000000" font-family="sans-serif" font-size="14" font-style="italic" lengthAdjust="spacing" textLength="637.6016" x="511" y="504.792">getNextMove ( paramChessBoard1 : ch.hslu.cas.msed.blobfish.board.ChessBoard ) : String</text></g><!--class BotPlayer--><g class="entity" data-entity="BotPlayer" data-source-line="8" data-uid="ent0009" id="entity_BotPlayer"><rect fill="#F1F1F1" height="64.2969" rx="2.5" ry="2.5" style="stroke:#181818;stroke-width:0.5;" width="663.6016" x="841" y="299"/><ellipse cx="1134.9385" cy="315" fill="#ADD1B2" rx="11" ry="11" style="stroke:#181818;stroke-width:1;"/><path d="M1137.9072,320.6406 Q1137.3291,320.9375 1136.6885,321.0781 Q1136.0479,321.2344 1135.3447,321.2344 Q1132.8447,321.2344 1131.5166,319.5938 Q1130.2041,317.9375 1130.2041,314.8125 Q1130.2041,311.6875 1131.5166,310.0313 Q1132.8447,308.375 1135.3447,308.375 Q1136.0479,308.375 1136.6885,308.5313 Q1137.3447,308.6875 1137.9072,308.9844 L1137.9072,311.7031 Q1137.2822,311.125 1136.6885,310.8594 Q1136.0947,310.5781 1135.4697,310.5781 Q1134.126,310.5781 1133.4385,311.6563 Q1132.751,312.7188 1132.751,314.8125 Q1132.751,316.9063 1133.4385,317.9844 Q1134.126,319.0469 1135.4697,319.0469 Q1136.0947,319.0469 1136.6885,318.7813 Q1137.2822,318.5 1137.9072,317.9219 L1137.9072,320.6406 Z " fill="#000000"/><text fill="#000000" font-family="sans-serif" font-size="14" lengthAdjust="spacing" textLength="67.2246" x="1155.4385" y="319.8467">BotPlayer</text><line style="stroke:#181818;stroke-width:0.5;" x1="842" x2="1503.6016" y1="331" y2="331"/><line style="stroke:#181818;stroke-width:0.5;" x1="842" x2="1503.6016" y1="339" y2="339"/><ellipse cx="852" cy="352.6484" fill="#84BE84" rx="3" ry="3" style="stroke:#038048;stroke-width:1;"/><text fill="#000000" font-family="sans-serif" font-size="14" lengthAdjust="spacing" textLength="637.6016" x="861" y="355.9951">getNextMove ( paramChessBoard1 : ch.hslu.cas.msed.blobfish.board.ChessBoard ) : String</text></g><!--class HumanPlayer--><g class="entity" data-entity="HumanPlayer" data-source-line="13" data-uid="ent0010" id="entity_HumanPlayer"><rect fill="#F1F1F1" height="80.5938" rx="2.5" ry="2.5" style="stroke:#181818;stroke-width:0.5;" width="663.6016" x="142" y="290.5"/><ellipse cx="422.5229" cy="306.5" fill="#ADD1B2" rx="11" ry="11" style="stroke:#181818;stroke-width:1;"/><path d="M425.4917,312.1406 Q424.9136,312.4375 424.2729,312.5781 Q423.6323,312.7344 422.9292,312.7344 Q420.4292,312.7344 419.1011,311.0938 Q417.7886,309.4375 417.7886,306.3125 Q417.7886,303.1875 419.1011,301.5313 Q420.4292,299.875 422.9292,299.875 Q423.6323,299.875 424.2729,300.0313 Q424.9292,300.1875 425.4917,300.4844 L425.4917,303.2031 Q424.8667,302.625 424.2729,302.3594 Q423.6792,302.0781 423.0542,302.0781 Q421.7104,302.0781 421.0229,303.1563 Q420.3354,304.2188 420.3354,306.3125 Q420.3354,308.4063 421.0229,309.4844 Q421.7104,310.5469 423.0542,310.5469 Q423.6792,310.5469 424.2729,310.2813 Q424.8667,310 425.4917,309.4219 L425.4917,312.1406 Z " fill="#000000"/><text fill="#000000" font-family="sans-serif" font-size="14" lengthAdjust="spacing" textLength="94.0557" x="443.0229" y="311.3467">HumanPlayer</text><line style="stroke:#181818;stroke-width:0.5;" x1="143" x2="804.6016" y1="322.5" y2="322.5"/><polygon fill="none" points="153,332.1484,149,338.1484,157,338.1484" style="stroke:#1963A0;stroke-width:1;"/><text fill="#000000" font-family="sans-serif" font-size="14" lengthAdjust="spacing" textLength="375.3818" x="162" y="339.4951">reader : ch.hslu.cas.msed.blobfish.game.InputReader</text><line style="stroke:#181818;stroke-width:0.5;" x1="143" x2="804.6016" y1="346.7969" y2="346.7969"/><ellipse cx="153" cy="360.4453" fill="#84BE84" rx="3" ry="3" style="stroke:#038048;stroke-width:1;"/><text fill="#000000" font-family="sans-serif" font-size="14" lengthAdjust="spacing" textLength="637.6016" x="162" y="363.792">getNextMove ( paramChessBoard1 : ch.hslu.cas.msed.blobfish.board.ChessBoard ) : String</text></g><!--class InvalidMoveException--><g class="entity" data-entity="InvalidMoveException" data-source-line="19" data-uid="ent0011" id="entity_InvalidMoveException"><rect fill="#F1F1F1" height="64.2969" rx="2.5" ry="2.5" style="stroke:#181818;stroke-width:0.5;" width="185.2207" x="1540.5" y="299"/><ellipse cx="1555.5" cy="315" fill="#ADD1B2" rx="11" ry="11" style="stroke:#181818;stroke-width:1;"/><path d="M1558.4688,320.6406 Q1557.8906,320.9375 1557.25,321.0781 Q1556.6094,321.2344 1555.9063,321.2344 Q1553.4063,321.2344 1552.0781,319.5938 Q1550.7656,317.9375 1550.7656,314.8125 Q1550.7656,311.6875 1552.0781,310.0313 Q1553.4063,308.375 1555.9063,308.375 Q1556.6094,308.375 1557.25,308.5313 Q1557.9063,308.6875 1558.4688,308.9844 L1558.4688,311.7031 Q1557.8438,311.125 1557.25,310.8594 Q1556.6563,310.5781 1556.0313,310.5781 Q1554.6875,310.5781 1554,311.6563 Q1553.3125,312.7188 1553.3125,314.8125 Q1553.3125,316.9063 1554,317.9844 Q1554.6875,319.0469 1556.0313,319.0469 Q1556.6563,319.0469 1557.25,318.7813 Q1557.8438,318.5 1558.4688,317.9219 L1558.4688,320.6406 Z " fill="#000000"/><text fill="#000000" font-family="sans-serif" font-size="14" lengthAdjust="spacing" textLength="153.2207" x="1569.5" y="319.8467">InvalidMoveException</text><line style="stroke:#181818;stroke-width:0.5;" x1="1541.5" x2="1724.7207" y1="331" y2="331"/><rect fill="none" height="6" style="stroke:#C82930;stroke-width:1;" width="6" x="1548.5" y="341.6484"/><text fill="#000000" font-family="sans-serif" font-size="14" lengthAdjust="spacing" textLength="145.2705" x="1560.5" y="347.9951">originalMove : String</text><line style="stroke:#181818;stroke-width:0.5;" x1="1541.5" x2="1724.7207" y1="355.2969" y2="355.2969"/></g><!--link BotPlayer to AbstractPlayer--><g class="link" data-entity-1="BotPlayer" data-entity-2="AbstractPlayer" data-source-line="26" data-uid="lnk13" id="link_BotPlayer_AbstractPlayer"><path codeLine="26" d="M1094.89,363.02 C1044.02,383.22 993.9292,403.1167 939.2592,424.8267" fill="none" id="BotPlayer-to-AbstractPlayer" style="stroke:#181818;stroke-width:1;"/><polygon fill="none" points="922.53,431.47,941.4736,430.4031,937.0448,419.2503,922.53,431.47" style="stroke:#181818;stroke-width:1;"/></g><!--link HumanPlayer to AbstractPlayer--><g class="link" data-entity-1="HumanPlayer" data-entity-2="AbstractPlayer" data-source-line="27" data-uid="lnk14" id="link_HumanPlayer_AbstractPlayer"><path codeLine="27" d="M573.54,371.65 C620.59,390.38 659.8879,406.0289 706.9079,424.7589" fill="none" id="HumanPlayer-to-AbstractPlayer" style="stroke:#181818;stroke-width:1;"/><polygon fill="none" points="723.63,431.42,709.1282,419.1848,704.6875,430.3329,723.63,431.42" style="stroke:#181818;stroke-width:1;"/></g><!--SRC=[pP9FImCn4CNFvbFCKP4DUFKWs2BKWrBq4ymcqqqWVvPCjbJMzRERhYsr24lhgSU47- -zcJTOSqweCYY7pA2CDEmwgP2bPzAoTh5UMJQoTVX1IJxk-ENuX5vSzIjBJWzG_H3pw6A2-mcb6fdayW0N2K_PnA81FUxq1xXjAB_I9h_4DS4rj9ZGpmqnpo8cVJTjiKNaWOQRWh_dP4CZ1Y74YSFEukyvzo4l8DYYynZ-Ll2L23LDRxz1J_8vj5r-6-7B6emsYjfiO-2ISOtEwcsOf_tlqRt5P1iRq8rnZyoAtUdLLjNd0vnx-EAiYlvd8Ru1]--></g></svg>