<svg xmlns="http://www.w3.org/2000/svg" xmlns:xlink="http://www.w3.org/1999/xlink" contentStyleType="text/css" data-diagram-type="CLASS" height="1038px" preserveAspectRatio="none" style="width:5917px;height:1038px;background:#FFFFFF;" version="1.1" viewBox="0 0 5917 1038" width="5917px" zoomAndPan="magnify"><defs/><g><!--cluster ch--><g class="cluster" data-entity="ch" data-source-line="2" data-uid="ent0003" id="cluster_ch"><path d="M8.5,6 L27.7656,6 A3.75,3.75 0 0 1 30.2656,8.5 L37.2656,28.2969 L5907.5,28.2969 A2.5,2.5 0 0 1 5910,30.7969 L5910,1028.5 A2.5,2.5 0 0 1 5907.5,1031 L8.5,1031 A2.5,2.5 0 0 1 6,1028.5 L6,8.5 A2.5,2.5 0 0 1 8.5,6" fill="none" style="stroke:#000000;stroke-width:1.5;"/><line style="stroke:#000000;stroke-width:1.5;" x1="6" x2="37.2656" y1="28.2969" y2="28.2969"/><text fill="#000000" font-family="sans-serif" font-size="14" font-weight="bold" lengthAdjust="spacing" textLength="18.2656" x="10" y="20.9951">ch</text></g><!--cluster hslu--><g class="cluster" data-entity="hslu" data-source-line="2" data-uid="ent0004" id="cluster_hslu"><path d="M32.5,49 L66.5654,49 A3.75,3.75 0 0 1 69.0654,51.5 L76.0654,71.2969 L5883.5,71.2969 A2.5,2.5 0 0 1 5886,73.7969 L5886,1004.5 A2.5,2.5 0 0 1 5883.5,1007 L32.5,1007 A2.5,2.5 0 0 1 30,1004.5 L30,51.5 A2.5,2.5 0 0 1 32.5,49" fill="none" style="stroke:#000000;stroke-width:1.5;"/><line style="stroke:#000000;stroke-width:1.5;" x1="30" x2="76.0654" y1="71.2969" y2="71.2969"/><text fill="#000000" font-family="sans-serif" font-size="14" font-weight="bold" lengthAdjust="spacing" textLength="33.0654" x="34" y="63.9951">hslu</text></g><!--cluster cas--><g class="cluster" data-entity="cas" data-source-line="2" data-uid="ent0005" id="cluster_cas"><path d="M56.5,92 L83.5791,92 A3.75,3.75 0 0 1 86.0791,94.5 L93.0791,114.2969 L5859.5,114.2969 A2.5,2.5 0 0 1 5862,116.7969 L5862,980.5 A2.5,2.5 0 0 1 5859.5,983 L56.5,983 A2.5,2.5 0 0 1 54,980.5 L54,94.5 A2.5,2.5 0 0 1 56.5,92" fill="none" style="stroke:#000000;stroke-width:1.5;"/><line style="stroke:#000000;stroke-width:1.5;" x1="54" x2="93.0791" y1="114.2969" y2="114.2969"/><text fill="#000000" font-family="sans-serif" font-size="14" font-weight="bold" lengthAdjust="spacing" textLength="26.0791" x="58" y="106.9951">cas</text></g><!--cluster msed--><g class="cluster" data-entity="msed" data-source-line="2" data-uid="ent0006" id="cluster_msed"><path d="M80.5,135 L123.9375,135 A3.75,3.75 0 0 1 126.4375,137.5 L133.4375,157.2969 L5835.5,157.2969 A2.5,2.5 0 0 1 5838,159.7969 L5838,956.5 A2.5,2.5 0 0 1 5835.5,959 L80.5,959 A2.5,2.5 0 0 1 78,956.5 L78,137.5 A2.5,2.5 0 0 1 80.5,135" fill="none" style="stroke:#000000;stroke-width:1.5;"/><line style="stroke:#000000;stroke-width:1.5;" x1="78" x2="133.4375" y1="157.2969" y2="157.2969"/><text fill="#000000" font-family="sans-serif" font-size="14" font-weight="bold" lengthAdjust="spacing" textLength="42.4375" x="82" y="149.9951">msed</text></g><!--cluster blobfish--><g class="cluster" data-entity="blobfish" data-source-line="2" data-uid="ent0007" id="cluster_blobfish"><path d="M104.5,178 L169.1494,178 A3.75,3.75 0 0 1 171.6494,180.5 L178.6494,200.2969 L5811.5,200.2969 A2.5,2.5 0 0 1 5814,202.7969 L5814,932.5 A2.5,2.5 0 0 1 5811.5,935 L104.5,935 A2.5,2.5 0 0 1 102,932.5 L102,180.5 A2.5,2.5 0 0 1 104.5,178" fill="none" style="stroke:#000000;stroke-width:1.5;"/><line style="stroke:#000000;stroke-width:1.5;" x1="102" x2="178.6494" y1="200.2969" y2="200.2969"/><text fill="#000000" font-family="sans-serif" font-size="14" font-weight="bold" lengthAdjust="spacing" textLength="63.6494" x="106" y="192.9951">blobfish</text></g><!--cluster player--><g class="cluster" data-entity="player" data-source-line="2" data-uid="ent0008" id="cluster_player"><path d="M128.5,221 L179.293,221 A3.75,3.75 0 0 1 181.793,223.5 L188.793,243.2969 L5787.5,243.2969 A2.5,2.5 0 0 1 5790,245.7969 L5790,908.5 A2.5,2.5 0 0 1 5787.5,911 L128.5,911 A2.5,2.5 0 0 1 126,908.5 L126,223.5 A2.5,2.5 0 0 1 128.5,221" fill="none" style="stroke:#000000;stroke-width:1.5;"/><line style="stroke:#000000;stroke-width:1.5;" x1="126" x2="188.793" y1="243.2969" y2="243.2969"/><text fill="#000000" font-family="sans-serif" font-size="14" font-weight="bold" lengthAdjust="spacing" textLength="49.793" x="130" y="235.9951">player</text></g><!--cluster bot--><g class="cluster" data-entity="bot" data-source-line="14" data-uid="ent0011" id="cluster_bot"><path d="M824.5,264 L851.832,264 A3.75,3.75 0 0 1 854.332,266.5 L861.332,286.2969 L5763.5,286.2969 A2.5,2.5 0 0 1 5766,288.7969 L5766,764.5 A2.5,2.5 0 0 1 5763.5,767 L824.5,767 A2.5,2.5 0 0 1 822,764.5 L822,266.5 A2.5,2.5 0 0 1 824.5,264" fill="none" style="stroke:#000000;stroke-width:1.5;"/><line style="stroke:#000000;stroke-width:1.5;" x1="822" x2="861.332" y1="286.2969" y2="286.2969"/><text fill="#000000" font-family="sans-serif" font-size="14" font-weight="bold" lengthAdjust="spacing" textLength="26.332" x="826" y="278.9951">bot</text></g><!--cluster minimax--><g class="cluster" data-entity="minimax" data-source-line="18" data-uid="ent0013" id="cluster_minimax"><path d="M848.5,307 L916.7178,307 A3.75,3.75 0 0 1 919.2178,309.5 L926.2178,329.2969 L5631.5,329.2969 A2.5,2.5 0 0 1 5634,331.7969 L5634,740.5 A2.5,2.5 0 0 1 5631.5,743 L848.5,743 A2.5,2.5 0 0 1 846,740.5 L846,309.5 A2.5,2.5 0 0 1 848.5,307" fill="none" style="stroke:#000000;stroke-width:1.5;"/><line style="stroke:#000000;stroke-width:1.5;" x1="846" x2="926.2178" y1="329.2969" y2="329.2969"/><text fill="#000000" font-family="sans-serif" font-size="14" font-weight="bold" lengthAdjust="spacing" textLength="67.2178" x="850" y="321.9951">minimax</text></g><!--cluster exceptions--><g class="cluster" data-entity="exceptions" data-source-line="68" data-uid="ent0020" id="cluster_exceptions"><path d="M368.5,372.5 L455.25,372.5 A3.75,3.75 0 0 1 457.75,375 L464.75,394.7969 L579.5,394.7969 A2.5,2.5 0 0 1 582,397.2969 L582,485 A2.5,2.5 0 0 1 579.5,487.5 L368.5,487.5 A2.5,2.5 0 0 1 366,485 L366,375 A2.5,2.5 0 0 1 368.5,372.5" fill="none" style="stroke:#000000;stroke-width:1.5;"/><line style="stroke:#000000;stroke-width:1.5;" x1="366" x2="464.75" y1="394.7969" y2="394.7969"/><text fill="#000000" font-family="sans-serif" font-size="14" font-weight="bold" lengthAdjust="spacing" textLength="85.75" x="370" y="387.4951">exceptions</text></g><!--class AbstractPlayer--><g class="entity" data-entity="AbstractPlayer" data-source-line="2" data-uid="ent0002" id="entity_AbstractPlayer"><rect fill="#F1F1F1" height="80.5938" rx="2.5" ry="2.5" style="stroke:#181818;stroke-width:0.5;" width="663.6016" x="2755" y="814"/><ellipse cx="3031.3838" cy="830" fill="#A9DCDF" rx="11" ry="11" style="stroke:#181818;stroke-width:1;"/><path d="M3031.4932,825.3438 L3030.3369,830.4219 L3032.665,830.4219 L3031.4932,825.3438 Z M3030.0088,823.1094 L3032.9932,823.1094 L3036.3525,835.5 L3033.8994,835.5 L3033.1338,832.4375 L3029.8525,832.4375 L3029.1025,835.5 L3026.665,835.5 L3030.0088,823.1094 Z " fill="#000000"/><text fill="#000000" font-family="sans-serif" font-size="14" font-style="italic" lengthAdjust="spacing" textLength="102.334" x="3051.8838" y="834.8467">AbstractPlayer</text><line style="stroke:#181818;stroke-width:0.5;" x1="2756" x2="3417.6016" y1="846" y2="846"/><rect fill="none" height="6" style="stroke:#C82930;stroke-width:1;" width="6" x="2763" y="856.6484"/><text fill="#000000" font-family="sans-serif" font-size="14" lengthAdjust="spacing" textLength="397.0859" x="2775" y="862.9951">playerColor : ch.hslu.cas.msed.blobfish.base.PlayerColor</text><line style="stroke:#181818;stroke-width:0.5;" x1="2756" x2="3417.6016" y1="870.2969" y2="870.2969"/><ellipse cx="2766" cy="883.9453" fill="#84BE84" rx="3" ry="3" style="stroke:#038048;stroke-width:1;"/><text fill="#000000" font-family="sans-serif" font-size="14" font-style="italic" lengthAdjust="spacing" textLength="637.6016" x="2775" y="887.292">getNextMove ( paramChessBoard1 : ch.hslu.cas.msed.blobfish.board.ChessBoard ) : String</text></g><!--class HumanPlayer--><g class="entity" data-entity="HumanPlayer" data-source-line="8" data-uid="ent0009" id="entity_HumanPlayer"><rect fill="#F1F1F1" height="80.5938" rx="2.5" ry="2.5" style="stroke:#181818;stroke-width:0.5;" width="663.6016" x="142" y="630"/><ellipse cx="422.5229" cy="646" fill="#ADD1B2" rx="11" ry="11" style="stroke:#181818;stroke-width:1;"/><path d="M425.4917,651.6406 Q424.9136,651.9375 424.2729,652.0781 Q423.6323,652.2344 422.9292,652.2344 Q420.4292,652.2344 419.1011,650.5938 Q417.7886,648.9375 417.7886,645.8125 Q417.7886,642.6875 419.1011,641.0313 Q420.4292,639.375 422.9292,639.375 Q423.6323,639.375 424.2729,639.5313 Q424.9292,639.6875 425.4917,639.9844 L425.4917,642.7031 Q424.8667,642.125 424.2729,641.8594 Q423.6792,641.5781 423.0542,641.5781 Q421.7104,641.5781 421.0229,642.6563 Q420.3354,643.7188 420.3354,645.8125 Q420.3354,647.9063 421.0229,648.9844 Q421.7104,650.0469 423.0542,650.0469 Q423.6792,650.0469 424.2729,649.7813 Q424.8667,649.5 425.4917,648.9219 L425.4917,651.6406 Z " fill="#000000"/><text fill="#000000" font-family="sans-serif" font-size="14" lengthAdjust="spacing" textLength="94.0557" x="443.0229" y="650.8467">HumanPlayer</text><line style="stroke:#181818;stroke-width:0.5;" x1="143" x2="804.6016" y1="662" y2="662"/><rect fill="none" height="6" style="stroke:#C82930;stroke-width:1;" width="6" x="150" y="672.6484"/><text fill="#000000" font-family="sans-serif" font-size="14" lengthAdjust="spacing" textLength="375.3818" x="162" y="678.9951">reader : ch.hslu.cas.msed.blobfish.game.InputReader</text><line style="stroke:#181818;stroke-width:0.5;" x1="143" x2="804.6016" y1="686.2969" y2="686.2969"/><ellipse cx="153" cy="699.9453" fill="#84BE84" rx="3" ry="3" style="stroke:#038048;stroke-width:1;"/><text fill="#000000" font-family="sans-serif" font-size="14" lengthAdjust="spacing" textLength="637.6016" x="162" y="703.292">getNextMove ( paramChessBoard1 : ch.hslu.cas.msed.blobfish.board.ChessBoard ) : String</text></g><!--class BotPlayer--><g class="entity" data-entity="BotPlayer" data-source-line="14" data-uid="ent0010" id="entity_BotPlayer"><rect fill="#F1F1F1" height="48" rx="2.5" ry="2.5" style="stroke:#181818;stroke-width:0.5;" width="99.2246" x="5650.5" y="646.5"/><ellipse cx="5665.5" cy="662.5" fill="#A9DCDF" rx="11" ry="11" style="stroke:#181818;stroke-width:1;"/><path d="M5665.6094,657.8438 L5664.4531,662.9219 L5666.7813,662.9219 L5665.6094,657.8438 Z M5664.125,655.6094 L5667.1094,655.6094 L5670.4688,668 L5668.0156,668 L5667.25,664.9375 L5663.9688,664.9375 L5663.2188,668 L5660.7813,668 L5664.125,655.6094 Z " fill="#000000"/><text fill="#000000" font-family="sans-serif" font-size="14" font-style="italic" lengthAdjust="spacing" textLength="67.2246" x="5679.5" y="667.3467">BotPlayer</text><line style="stroke:#181818;stroke-width:0.5;" x1="5651.5" x2="5748.7246" y1="678.5" y2="678.5"/><line style="stroke:#181818;stroke-width:0.5;" x1="5651.5" x2="5748.7246" y1="686.5" y2="686.5"/></g><!--class MiniMaxAlgo--><g class="entity" data-entity="MiniMaxAlgo" data-source-line="18" data-uid="ent0012" id="entity_MiniMaxAlgo"><rect fill="#F1F1F1" height="113.1875" rx="2.5" ry="2.5" style="stroke:#181818;stroke-width:0.5;" width="694.6025" x="4223.5" y="614"/><ellipse cx="4522.2544" cy="630" fill="#A9DCDF" rx="11" ry="11" style="stroke:#181818;stroke-width:1;"/><path d="M4522.3638,625.3438 L4521.2075,630.4219 L4523.5356,630.4219 L4522.3638,625.3438 Z M4520.8794,623.1094 L4523.8638,623.1094 L4527.2231,635.5 L4524.77,635.5 L4524.0044,632.4375 L4520.7231,632.4375 L4519.9731,635.5 L4517.5356,635.5 L4520.8794,623.1094 Z " fill="#000000"/><text fill="#000000" font-family="sans-serif" font-size="14" font-style="italic" lengthAdjust="spacing" textLength="88.5938" x="4542.7544" y="634.8467">MiniMaxAlgo</text><line style="stroke:#181818;stroke-width:0.5;" x1="4224.5" x2="4917.1025" y1="646" y2="646"/><rect fill="none" height="6" style="stroke:#C82930;stroke-width:1;" width="6" x="4231.5" y="656.6484"/><text fill="#000000" font-family="sans-serif" font-size="14" lengthAdjust="spacing" textLength="150.5342" x="4243.5" y="662.9951">calculationDepth : int</text><rect fill="none" height="6" style="stroke:#C82930;stroke-width:1;" width="6" x="4231.5" y="672.9453"/><text fill="#000000" font-family="sans-serif" font-size="14" lengthAdjust="spacing" textLength="411.3389" x="4243.5" y="679.292">evalStrategy : ch.hslu.cas.msed.blobfish.eval.EvalStrategy</text><rect fill="none" height="6" style="stroke:#C82930;stroke-width:1;" width="6" x="4231.5" y="689.2422"/><text fill="#000000" font-family="sans-serif" font-size="14" lengthAdjust="spacing" textLength="425.5303" x="4243.5" y="695.5889">ownPlayerColor : ch.hslu.cas.msed.blobfish.base.PlayerColor</text><line style="stroke:#181818;stroke-width:0.5;" x1="4224.5" x2="4917.1025" y1="702.8906" y2="702.8906"/><ellipse cx="4234.5" cy="716.5391" fill="#84BE84" rx="3" ry="3" style="stroke:#038048;stroke-width:1;"/><text fill="#000000" font-family="sans-serif" font-size="14" font-style="italic" lengthAdjust="spacing" textLength="668.6025" x="4243.5" y="719.8857">getNextBestMove ( paramChessBoard1 : ch.hslu.cas.msed.blobfish.board.ChessBoard ) : String</text></g><!--class MiniMaxBotPlayer--><g class="entity" data-entity="MiniMaxBotPlayer" data-source-line="26" data-uid="ent0014" id="entity_MiniMaxBotPlayer"><rect fill="#F1F1F1" height="64.2969" rx="2.5" ry="2.5" style="stroke:#181818;stroke-width:0.5;" width="663.6016" x="4954" y="407.5"/><ellipse cx="5219.1011" cy="423.5" fill="#ADD1B2" rx="11" ry="11" style="stroke:#181818;stroke-width:1;"/><path d="M5222.0698,429.1406 Q5221.4917,429.4375 5220.8511,429.5781 Q5220.2104,429.7344 5219.5073,429.7344 Q5217.0073,429.7344 5215.6792,428.0938 Q5214.3667,426.4375 5214.3667,423.3125 Q5214.3667,420.1875 5215.6792,418.5313 Q5217.0073,416.875 5219.5073,416.875 Q5220.2104,416.875 5220.8511,417.0313 Q5221.5073,417.1875 5222.0698,417.4844 L5222.0698,420.2031 Q5221.4448,419.625 5220.8511,419.3594 Q5220.2573,419.0781 5219.6323,419.0781 Q5218.2886,419.0781 5217.6011,420.1563 Q5216.9136,421.2188 5216.9136,423.3125 Q5216.9136,425.4063 5217.6011,426.4844 Q5218.2886,427.5469 5219.6323,427.5469 Q5220.2573,427.5469 5220.8511,427.2813 Q5221.4448,427 5222.0698,426.4219 L5222.0698,429.1406 Z " fill="#000000"/><text fill="#000000" font-family="sans-serif" font-size="14" lengthAdjust="spacing" textLength="124.8994" x="5239.6011" y="428.3467">MiniMaxBotPlayer</text><line style="stroke:#181818;stroke-width:0.5;" x1="4955" x2="5616.6016" y1="439.5" y2="439.5"/><line style="stroke:#181818;stroke-width:0.5;" x1="4955" x2="5616.6016" y1="447.5" y2="447.5"/><ellipse cx="4965" cy="461.1484" fill="#84BE84" rx="3" ry="3" style="stroke:#038048;stroke-width:1;"/><text fill="#000000" font-family="sans-serif" font-size="14" lengthAdjust="spacing" textLength="637.6016" x="4974" y="464.4951">getNextMove ( paramChessBoard1 : ch.hslu.cas.msed.blobfish.board.ChessBoard ) : String</text></g><!--class MiniMaxParallel--><g class="entity" data-entity="MiniMaxParallel" data-source-line="31" data-uid="ent0015" id="entity_MiniMaxParallel"><rect fill="#F1F1F1" height="64.2969" rx="2.5" ry="2.5" style="stroke:#181818;stroke-width:0.5;" width="694.6025" x="4223.5" y="407.5"/><ellipse cx="4511.8945" cy="423.5" fill="#ADD1B2" rx="11" ry="11" style="stroke:#181818;stroke-width:1;"/><path d="M4514.8633,429.1406 Q4514.2852,429.4375 4513.6445,429.5781 Q4513.0039,429.7344 4512.3008,429.7344 Q4509.8008,429.7344 4508.4727,428.0938 Q4507.1602,426.4375 4507.1602,423.3125 Q4507.1602,420.1875 4508.4727,418.5313 Q4509.8008,416.875 4512.3008,416.875 Q4513.0039,416.875 4513.6445,417.0313 Q4514.3008,417.1875 4514.8633,417.4844 L4514.8633,420.2031 Q4514.2383,419.625 4513.6445,419.3594 Q4513.0508,419.0781 4512.4258,419.0781 Q4511.082,419.0781 4510.3945,420.1563 Q4509.707,421.2188 4509.707,423.3125 Q4509.707,425.4063 4510.3945,426.4844 Q4511.082,427.5469 4512.4258,427.5469 Q4513.0508,427.5469 4513.6445,427.2813 Q4514.2383,427 4514.8633,426.4219 L4514.8633,429.1406 Z " fill="#000000"/><text fill="#000000" font-family="sans-serif" font-size="14" lengthAdjust="spacing" textLength="109.3135" x="4532.3945" y="428.3467">MiniMaxParallel</text><line style="stroke:#181818;stroke-width:0.5;" x1="4224.5" x2="4917.1025" y1="439.5" y2="439.5"/><line style="stroke:#181818;stroke-width:0.5;" x1="4224.5" x2="4917.1025" y1="447.5" y2="447.5"/><ellipse cx="4234.5" cy="461.1484" fill="#84BE84" rx="3" ry="3" style="stroke:#038048;stroke-width:1;"/><text fill="#000000" font-family="sans-serif" font-size="14" lengthAdjust="spacing" textLength="668.6025" x="4243.5" y="464.4951">getNextBestMove ( paramChessBoard1 : ch.hslu.cas.msed.blobfish.board.ChessBoard ) : String</text></g><!--class MiniMaxRecursiveTask--><g class="entity" data-entity="MiniMaxRecursiveTask" data-source-line="36" data-uid="ent0016" id="entity_MiniMaxRecursiveTask"><rect fill="#F1F1F1" height="194.6719" rx="2.5" ry="2.5" style="stroke:#181818;stroke-width:0.5;" width="1047.5283" x="3140" y="342"/><ellipse cx="3580.0361" cy="358" fill="#ADD1B2" rx="11" ry="11" style="stroke:#181818;stroke-width:1;"/><path d="M3583.0049,363.6406 Q3582.4268,363.9375 3581.7861,364.0781 Q3581.1455,364.2344 3580.4424,364.2344 Q3577.9424,364.2344 3576.6143,362.5938 Q3575.3018,360.9375 3575.3018,357.8125 Q3575.3018,354.6875 3576.6143,353.0313 Q3577.9424,351.375 3580.4424,351.375 Q3581.1455,351.375 3581.7861,351.5313 Q3582.4424,351.6875 3583.0049,351.9844 L3583.0049,354.7031 Q3582.3799,354.125 3581.7861,353.8594 Q3581.1924,353.5781 3580.5674,353.5781 Q3579.2236,353.5781 3578.5361,354.6563 Q3577.8486,355.7188 3577.8486,357.8125 Q3577.8486,359.9063 3578.5361,360.9844 Q3579.2236,362.0469 3580.5674,362.0469 Q3581.1924,362.0469 3581.7861,361.7813 Q3582.3799,361.5 3583.0049,360.9219 L3583.0049,363.6406 Z " fill="#000000"/><text fill="#000000" font-family="sans-serif" font-size="14" lengthAdjust="spacing" textLength="158.9561" x="3600.5361" y="362.8467">MiniMaxRecursiveTask</text><line style="stroke:#181818;stroke-width:0.5;" x1="3141" x2="4186.5283" y1="374" y2="374"/><rect fill="none" height="6" style="stroke:#C82930;stroke-width:1;" width="6" x="3148" y="384.6484"/><text fill="#000000" font-family="sans-serif" font-size="14" lengthAdjust="spacing" textLength="408.1123" x="3160" y="390.9951">chessBoard : ch.hslu.cas.msed.blobfish.board.ChessBoard</text><rect fill="none" height="6" style="stroke:#C82930;stroke-width:1;" width="6" x="3148" y="400.9453"/><text fill="#000000" font-family="sans-serif" font-size="14" lengthAdjust="spacing" textLength="72.6182" x="3160" y="407.292">depth : int</text><rect fill="none" height="6" style="stroke:#C82930;stroke-width:1;" width="6" x="3148" y="417.2422"/><text fill="#000000" font-family="sans-serif" font-size="14" lengthAdjust="spacing" textLength="411.3389" x="3160" y="423.5889">evalStrategy : ch.hslu.cas.msed.blobfish.eval.EvalStrategy</text><rect fill="none" height="6" style="stroke:#C82930;stroke-width:1;" width="6" x="3148" y="433.5391"/><text fill="#000000" font-family="sans-serif" font-size="14" lengthAdjust="spacing" textLength="192.7871" x="3160" y="439.8857">history : java.util.LinkedList</text><rect fill="none" height="6" style="stroke:#C82930;stroke-width:1;" width="6" x="3148" y="449.8359"/><text fill="#000000" font-family="sans-serif" font-size="14" lengthAdjust="spacing" textLength="407.6543" x="3160" y="456.1826">playerAtTurn : ch.hslu.cas.msed.blobfish.base.PlayerColor</text><line style="stroke:#181818;stroke-width:0.5;" x1="3141" x2="4186.5283" y1="463.4844" y2="463.4844"/><polygon fill="#FFFF44" points="3151,472.1328,3155,476.1328,3151,480.1328,3147,476.1328" style="stroke:#B38D22;stroke-width:1;"/><text fill="#000000" font-family="sans-serif" font-size="14" lengthAdjust="spacing" textLength="490.8955" x="3160" y="480.4795">compute () : ch.hslu.cas.msed.blobfish.player.bot.minimax.MoveNode</text><rect fill="#F24D5C" height="6" style="stroke:#C82930;stroke-width:1;" width="6" x="3148" y="490.4297"/><text fill="#000000" font-family="sans-serif" font-size="14" lengthAdjust="spacing" textLength="1021.5283" x="3160" y="496.7764">copyAndAddToHistory ( paramLinkedList1 : java.util.LinkedList , paramMove2 : com.github.bhlangonijr.chesslib.move.Move ) : java.util.LinkedList</text><rect fill="#F24D5C" height="6" style="stroke:#C82930;stroke-width:1;" width="6" x="3148" y="506.7266"/><text fill="#000000" font-family="sans-serif" font-size="14" lengthAdjust="spacing" textLength="269.835" x="3160" y="513.0732">createSubTasks () : java.util.Collection</text><rect fill="#F24D5C" height="6" style="stroke:#C82930;stroke-width:1;" width="6" x="3148" y="523.0234"/><text fill="#000000" font-family="sans-serif" font-size="14" lengthAdjust="spacing" textLength="353.6162" x="3160" y="529.3701">getMoveNodeComparator () : java.util.Comparator</text></g><!--class MiniMaxSequential--><g class="entity" data-entity="MiniMaxSequential" data-source-line="49" data-uid="ent0017" id="entity_MiniMaxSequential"><rect fill="#F1F1F1" height="113.1875" rx="2.5" ry="2.5" style="stroke:#181818;stroke-width:0.5;" width="1883.9463" x="1221" y="383"/><ellipse cx="2092.5889" cy="399" fill="#ADD1B2" rx="11" ry="11" style="stroke:#181818;stroke-width:1;"/><path d="M2095.5576,404.6406 Q2094.9795,404.9375 2094.3389,405.0781 Q2093.6982,405.2344 2092.9951,405.2344 Q2090.4951,405.2344 2089.167,403.5938 Q2087.8545,401.9375 2087.8545,398.8125 Q2087.8545,395.6875 2089.167,394.0313 Q2090.4951,392.375 2092.9951,392.375 Q2093.6982,392.375 2094.3389,392.5313 Q2094.9951,392.6875 2095.5576,392.9844 L2095.5576,395.7031 Q2094.9326,395.125 2094.3389,394.8594 Q2093.7451,394.5781 2093.1201,394.5781 Q2091.7764,394.5781 2091.0889,395.6563 Q2090.4014,396.7188 2090.4014,398.8125 Q2090.4014,400.9063 2091.0889,401.9844 Q2091.7764,403.0469 2093.1201,403.0469 Q2093.7451,403.0469 2094.3389,402.7813 Q2094.9326,402.5 2095.5576,401.9219 L2095.5576,404.6406 Z " fill="#000000"/><text fill="#000000" font-family="sans-serif" font-size="14" lengthAdjust="spacing" textLength="132.2686" x="2113.0889" y="403.8467">MiniMaxSequential</text><line style="stroke:#181818;stroke-width:0.5;" x1="1222" x2="3103.9463" y1="415" y2="415"/><line style="stroke:#181818;stroke-width:0.5;" x1="1222" x2="3103.9463" y1="423" y2="423"/><rect fill="#F24D5C" height="6" style="stroke:#C82930;stroke-width:1;" width="6" x="1229" y="433.6484"/><text fill="#000000" font-family="sans-serif" font-size="14" lengthAdjust="spacing" textLength="1857.9463" x="1241" y="439.9951">calcBestPath ( paramChessBoard1 : ch.hslu.cas.msed.blobfish.board.ChessBoard , paramint2 : int , paramPlayerColor3 : ch.hslu.cas.msed.blobfish.base.PlayerColor , paramLinkedList4 : java.util.LinkedList ) : ch.hslu.cas.msed.blobfish.player.bot.minimax.MoveNode</text><rect fill="#F24D5C" height="6" style="stroke:#C82930;stroke-width:1;" width="6" x="1229" y="449.9453"/><text fill="#000000" font-family="sans-serif" font-size="14" lengthAdjust="spacing" textLength="1021.5283" x="1241" y="456.292">copyAndAddToHistory ( paramLinkedList1 : java.util.LinkedList , paramMove2 : com.github.bhlangonijr.chesslib.move.Move ) : java.util.LinkedList</text><ellipse cx="1232" cy="469.2422" fill="#84BE84" rx="3" ry="3" style="stroke:#038048;stroke-width:1;"/><text fill="#000000" font-family="sans-serif" font-size="14" lengthAdjust="spacing" textLength="668.6025" x="1241" y="472.5889">getNextBestMove ( paramChessBoard1 : ch.hslu.cas.msed.blobfish.board.ChessBoard ) : String</text><rect fill="#F24D5C" height="6" style="stroke:#C82930;stroke-width:1;" width="6" x="1229" y="482.5391"/><text fill="#000000" font-family="sans-serif" font-size="14" lengthAdjust="spacing" text-decoration="underline" textLength="597.0918" x="1241" y="488.8857">getSanOfMove ( paramMove1 : com.github.bhlangonijr.chesslib.move.Move ) : String</text></g><!--class MoveNode--><g class="entity" data-entity="MoveNode" data-source-line="57" data-uid="ent0018" id="entity_MoveNode"><rect fill="#F1F1F1" height="162.0781" rx="2.5" ry="2.5" style="stroke:#181818;stroke-width:0.5;" width="325.1543" x="861.5" y="358.5"/><ellipse cx="982.7866" cy="374.5" fill="#ADD1B2" rx="11" ry="11" style="stroke:#181818;stroke-width:1;"/><path d="M985.7554,380.1406 Q985.1772,380.4375 984.5366,380.5781 Q983.896,380.7344 983.1929,380.7344 Q980.6929,380.7344 979.3647,379.0938 Q978.0522,377.4375 978.0522,374.3125 Q978.0522,371.1875 979.3647,369.5313 Q980.6929,367.875 983.1929,367.875 Q983.896,367.875 984.5366,368.0313 Q985.1929,368.1875 985.7554,368.4844 L985.7554,371.2031 Q985.1304,370.625 984.5366,370.3594 Q983.9429,370.0781 983.3179,370.0781 Q981.9741,370.0781 981.2866,371.1563 Q980.5991,372.2188 980.5991,374.3125 Q980.5991,376.4063 981.2866,377.4844 Q981.9741,378.5469 983.3179,378.5469 Q983.9429,378.5469 984.5366,378.2813 Q985.1304,378 985.7554,377.4219 L985.7554,380.1406 Z " fill="#000000"/><text fill="#000000" font-family="sans-serif" font-size="14" lengthAdjust="spacing" textLength="74.0811" x="1003.2866" y="379.3467">MoveNode</text><line style="stroke:#181818;stroke-width:0.5;" x1="862.5" x2="1185.6543" y1="390.5" y2="390.5"/><rect fill="none" height="6" style="stroke:#C82930;stroke-width:1;" width="6" x="869.5" y="401.1484"/><text fill="#000000" font-family="sans-serif" font-size="14" lengthAdjust="spacing" textLength="90.6992" x="881.5" y="407.4951">eval : double</text><rect fill="none" height="6" style="stroke:#C82930;stroke-width:1;" width="6" x="869.5" y="417.4453"/><text fill="#000000" font-family="sans-serif" font-size="14" lengthAdjust="spacing" textLength="192.7871" x="881.5" y="423.792">history : java.util.LinkedList</text><line style="stroke:#181818;stroke-width:0.5;" x1="862.5" x2="1185.6543" y1="431.0938" y2="431.0938"/><ellipse cx="872.5" cy="444.7422" fill="#84BE84" rx="3" ry="3" style="stroke:#038048;stroke-width:1;"/><text fill="#000000" font-family="sans-serif" font-size="14" lengthAdjust="spacing" textLength="299.1543" x="881.5" y="448.0889">equals ( paramObject1 : Object ) : boolean</text><ellipse cx="872.5" cy="461.0391" fill="#84BE84" rx="3" ry="3" style="stroke:#038048;stroke-width:1;"/><text fill="#000000" font-family="sans-serif" font-size="14" lengthAdjust="spacing" textLength="106.0732" x="881.5" y="464.3857">eval () : double</text><ellipse cx="872.5" cy="477.3359" fill="#84BE84" rx="3" ry="3" style="stroke:#038048;stroke-width:1;"/><text fill="#000000" font-family="sans-serif" font-size="14" lengthAdjust="spacing" textLength="116.7031" x="881.5" y="480.6826">hashCode () : int</text><ellipse cx="872.5" cy="493.6328" fill="#84BE84" rx="3" ry="3" style="stroke:#038048;stroke-width:1;"/><text fill="#000000" font-family="sans-serif" font-size="14" lengthAdjust="spacing" textLength="208.1611" x="881.5" y="496.9795">history () : java.util.LinkedList</text><ellipse cx="872.5" cy="509.9297" fill="#84BE84" rx="3" ry="3" style="stroke:#038048;stroke-width:1;"/><text fill="#000000" font-family="sans-serif" font-size="14" lengthAdjust="spacing" textLength="126.6084" x="881.5" y="513.2764">toString () : String</text></g><!--class InvalidMoveException--><g class="entity" data-entity="InvalidMoveException" data-source-line="68" data-uid="ent0019" id="entity_InvalidMoveException"><rect fill="#F1F1F1" height="64.2969" rx="2.5" ry="2.5" style="stroke:#181818;stroke-width:0.5;" width="185.2207" x="381.5" y="407.5"/><ellipse cx="396.5" cy="423.5" fill="#ADD1B2" rx="11" ry="11" style="stroke:#181818;stroke-width:1;"/><path d="M399.4688,429.1406 Q398.8906,429.4375 398.25,429.5781 Q397.6094,429.7344 396.9063,429.7344 Q394.4063,429.7344 393.0781,428.0938 Q391.7656,426.4375 391.7656,423.3125 Q391.7656,420.1875 393.0781,418.5313 Q394.4063,416.875 396.9063,416.875 Q397.6094,416.875 398.25,417.0313 Q398.9063,417.1875 399.4688,417.4844 L399.4688,420.2031 Q398.8438,419.625 398.25,419.3594 Q397.6563,419.0781 397.0313,419.0781 Q395.6875,419.0781 395,420.1563 Q394.3125,421.2188 394.3125,423.3125 Q394.3125,425.4063 395,426.4844 Q395.6875,427.5469 397.0313,427.5469 Q397.6563,427.5469 398.25,427.2813 Q398.8438,427 399.4688,426.4219 L399.4688,429.1406 Z " fill="#000000"/><text fill="#000000" font-family="sans-serif" font-size="14" lengthAdjust="spacing" textLength="153.2207" x="410.5" y="428.3467">InvalidMoveException</text><line style="stroke:#181818;stroke-width:0.5;" x1="382.5" x2="565.7207" y1="439.5" y2="439.5"/><rect fill="none" height="6" style="stroke:#C82930;stroke-width:1;" width="6" x="389.5" y="450.1484"/><text fill="#000000" font-family="sans-serif" font-size="14" lengthAdjust="spacing" textLength="145.2705" x="401.5" y="456.4951">originalMove : String</text><line style="stroke:#181818;stroke-width:0.5;" x1="382.5" x2="565.7207" y1="463.7969" y2="463.7969"/></g><!--link HumanPlayer to AbstractPlayer--><g class="link" data-entity-1="HumanPlayer" data-entity-2="AbstractPlayer" data-source-line="75" data-uid="lnk21" id="link_HumanPlayer_AbstractPlayer"><path codeLine="75" d="M588.91,711.06 C661.65,734.2 758.22,761.45 846,775 C1203.51,830.2 2204.9708,846.4555 2736.8808,851.3155" fill="none" id="HumanPlayer-to-AbstractPlayer" style="stroke:#181818;stroke-width:1;"/><polygon fill="none" points="2754.88,851.48,2736.9356,845.3158,2736.8259,857.3153,2754.88,851.48" style="stroke:#181818;stroke-width:1;"/></g><!--link BotPlayer to AbstractPlayer--><g class="link" data-entity-1="BotPlayer" data-entity-2="AbstractPlayer" data-source-line="76" data-uid="lnk22" id="link_BotPlayer_AbstractPlayer"><path codeLine="76" d="M5692.5,694.85 C5683.15,719.65 5664.57,757.62 5634,775 C5539.48,828.74 4105.6095,846.0994 3437.2195,851.3194" fill="none" id="BotPlayer-to-AbstractPlayer" style="stroke:#181818;stroke-width:1;"/><polygon fill="none" points="3419.22,851.46,3437.2663,857.3192,3437.1726,845.3196,3419.22,851.46" style="stroke:#181818;stroke-width:1;"/></g><!--reverse link MiniMaxBotPlayer to MiniMaxAlgo--><g class="link" data-entity-1="MiniMaxBotPlayer" data-entity-2="MiniMaxAlgo" data-source-line="77" data-uid="lnk23" id="link_MiniMaxBotPlayer_MiniMaxAlgo"><path codeLine="77" d="M5177.772,475.1608 C5063.892,511.6408 4884.1,569.22 4744.43,613.95" fill="none" id="MiniMaxBotPlayer-backto-MiniMaxAlgo" style="stroke:#181818;stroke-width:1;"/><polygon fill="#181818" points="5189.2,471.5,5182.2657,469.5211,5177.772,475.1608,5184.7063,477.1397,5189.2,471.5" style="stroke:#181818;stroke-width:1;"/><text fill="#000000" font-family="sans-serif" font-size="13" lengthAdjust="spacing" textLength="83.7129" x="4886" y="580.0669">miniMaxAlgo</text></g><!--link MiniMaxBotPlayer to BotPlayer--><g class="link" data-entity-1="MiniMaxBotPlayer" data-entity-2="BotPlayer" data-source-line="78" data-uid="lnk24" id="link_MiniMaxBotPlayer_BotPlayer"><path codeLine="78" d="M5360.75,471.58 C5433.17,503.1 5544.83,555.47 5634,614 C5648.52,623.53 5649.9487,623.8929 5661.9187,634.4829" fill="none" id="MiniMaxBotPlayer-to-BotPlayer" style="stroke:#181818;stroke-width:1;"/><polygon fill="none" points="5675.4,646.41,5665.8944,629.9892,5657.943,638.9767,5675.4,646.41" style="stroke:#181818;stroke-width:1;"/></g><!--link MiniMaxParallel to MiniMaxAlgo--><g class="link" data-entity-1="MiniMaxParallel" data-entity-2="MiniMaxAlgo" data-source-line="79" data-uid="lnk25" id="link_MiniMaxParallel_MiniMaxAlgo"><path codeLine="79" d="M4571,471.86 C4571,508.36 4571,551.33 4571,595.91" fill="none" id="MiniMaxParallel-to-MiniMaxAlgo" style="stroke:#181818;stroke-width:1;"/><polygon fill="none" points="4571,613.91,4577,595.91,4565,595.91,4571,613.91" style="stroke:#181818;stroke-width:1;"/></g><!--link MiniMaxSequential to MiniMaxAlgo--><g class="link" data-entity-1="MiniMaxSequential" data-entity-2="MiniMaxAlgo" data-source-line="80" data-uid="lnk26" id="link_MiniMaxSequential_MiniMaxAlgo"><path codeLine="80" d="M2686.51,496.01 C2828.09,510.23 2981.34,524.91 3123,537 C3609.99,578.56 3734.39,558.67 4220,614 C4221.07,614.12 4204.2621,612.2439 4205.3321,612.3639" fill="none" id="MiniMaxSequential-to-MiniMaxAlgo" style="stroke:#181818;stroke-width:1;"/><polygon fill="none" points="4223.22,614.37,4206.0008,606.4013,4204.6634,618.3265,4223.22,614.37" style="stroke:#181818;stroke-width:1;"/></g><!--SRC=[tLVRRjim37sUlqB0NjPj4T1kJtqea6O5Eg2NeEaFq1PhgvMbp9Ap15d_VPGljOqcGHqZsx2ds1P5yXmUKWg4rcKGEHOfi9P52K-ioda4bgSM1G-L2H-aJVXSmGepFgxifyKhMmVlrWyIbNXcez9YOfJ9sEaEJo5OvDF6c5oaw193FjWQAl_Fx5ECxWQNxjeia7rWSyWWdIHexRc1J1pl3k5DU6FDZiXyvZAfu-0v288tWhtCKz0Ra6O80dU3Z255_btFStTN6BT07X8Oz2ndQ1m_Dqqrz_MHIYrJMF9h-hs6vLZ5fiDO12hA5JXfz3USkuIobjgr3701Yd20mtYram5lo2zQrYqdvgUU7aQ4vsZ_fX0tKDoksf_HrlwvJYaDfL1jJFNVe_OEepopSe7tO9-wCcwYzKcjvK4SJls9jCvaVlyZB83dJYf-9VKJYYjQUJMen-u-p_I-JV8-CYaDDwhQqKuNcrYcOjyOWIrleyZCLsCjnaBScyiAHwM71iBn5cZiSsdf7P_uR4pAO-cIFEHXea37Hil7Z1V5KpBaATaLMHIIsK9ManfDUuUpFFHgi2NUPW_neZ3oSwszXwHTevmGJvGS8NgzjLuPgDSP_iXHEmdT1Yk6hk-kAP3aXdPNnJ7fzgIKR_sbfOyllTHKEsXe_xgjmF-vnWuv2jldcdLq0aUbFcUWRn_QmVppSMza0mTkLQREaFKpZZmBauSA-yot5pgf7q3P6jXj-4WTwg6LJqNUeJ4AGNTs-RX5Zxw4VbbBm2OJdsYnNWxlPh4MqrjAxKn9MMdTdpvSHdI4qBonTBsaZANm95xKNpjCcap6KeCggjK9Hk7wN7v7erzdhE-VWw3dxVE0GRRUdJwEHcp_6-ufIvktWPcy4Ns7ic3GPQn7n0tWWu4drS3emMy0]--></g></svg>