<svg xmlns="http://www.w3.org/2000/svg" xmlns:xlink="http://www.w3.org/1999/xlink" contentStyleType="text/css" data-diagram-type="CLASS" height="934px" preserveAspectRatio="none" style="width:3792px;height:934px;background:#FFFFFF;" version="1.1" viewBox="0 0 3792 934" width="3792px" zoomAndPan="magnify"><defs/><g><!--cluster ch--><g class="cluster" data-entity="ch" data-source-line="2" data-uid="ent0003" id="cluster_ch"><path d="M8.5,6 L27.7656,6 A3.75,3.75 0 0 1 30.2656,8.5 L37.2656,28.2969 L3782.5,28.2969 A2.5,2.5 0 0 1 3785,30.7969 L3785,924.5 A2.5,2.5 0 0 1 3782.5,927 L8.5,927 A2.5,2.5 0 0 1 6,924.5 L6,8.5 A2.5,2.5 0 0 1 8.5,6" fill="none" style="stroke:#000000;stroke-width:1.5;"/><line style="stroke:#000000;stroke-width:1.5;" x1="6" x2="37.2656" y1="28.2969" y2="28.2969"/><text fill="#000000" font-family="sans-serif" font-size="14" font-weight="bold" lengthAdjust="spacing" textLength="18.2656" x="10" y="20.9951">ch</text></g><!--cluster hslu--><g class="cluster" data-entity="hslu" data-source-line="2" data-uid="ent0004" id="cluster_hslu"><path d="M32.5,49 L66.5654,49 A3.75,3.75 0 0 1 69.0654,51.5 L76.0654,71.2969 L3758.5,71.2969 A2.5,2.5 0 0 1 3761,73.7969 L3761,900.5 A2.5,2.5 0 0 1 3758.5,903 L32.5,903 A2.5,2.5 0 0 1 30,900.5 L30,51.5 A2.5,2.5 0 0 1 32.5,49" fill="none" style="stroke:#000000;stroke-width:1.5;"/><line style="stroke:#000000;stroke-width:1.5;" x1="30" x2="76.0654" y1="71.2969" y2="71.2969"/><text fill="#000000" font-family="sans-serif" font-size="14" font-weight="bold" lengthAdjust="spacing" textLength="33.0654" x="34" y="63.9951">hslu</text></g><!--cluster cas--><g class="cluster" data-entity="cas" data-source-line="2" data-uid="ent0005" id="cluster_cas"><path d="M56.5,92 L83.5791,92 A3.75,3.75 0 0 1 86.0791,94.5 L93.0791,114.2969 L3734.5,114.2969 A2.5,2.5 0 0 1 3737,116.7969 L3737,876.5 A2.5,2.5 0 0 1 3734.5,879 L56.5,879 A2.5,2.5 0 0 1 54,876.5 L54,94.5 A2.5,2.5 0 0 1 56.5,92" fill="none" style="stroke:#000000;stroke-width:1.5;"/><line style="stroke:#000000;stroke-width:1.5;" x1="54" x2="93.0791" y1="114.2969" y2="114.2969"/><text fill="#000000" font-family="sans-serif" font-size="14" font-weight="bold" lengthAdjust="spacing" textLength="26.0791" x="58" y="106.9951">cas</text></g><!--cluster msed--><g class="cluster" data-entity="msed" data-source-line="2" data-uid="ent0006" id="cluster_msed"><path d="M80.5,135 L123.9375,135 A3.75,3.75 0 0 1 126.4375,137.5 L133.4375,157.2969 L3710.5,157.2969 A2.5,2.5 0 0 1 3713,159.7969 L3713,852.5 A2.5,2.5 0 0 1 3710.5,855 L80.5,855 A2.5,2.5 0 0 1 78,852.5 L78,137.5 A2.5,2.5 0 0 1 80.5,135" fill="none" style="stroke:#000000;stroke-width:1.5;"/><line style="stroke:#000000;stroke-width:1.5;" x1="78" x2="133.4375" y1="157.2969" y2="157.2969"/><text fill="#000000" font-family="sans-serif" font-size="14" font-weight="bold" lengthAdjust="spacing" textLength="42.4375" x="82" y="149.9951">msed</text></g><!--cluster blobfish--><g class="cluster" data-entity="blobfish" data-source-line="2" data-uid="ent0007" id="cluster_blobfish"><path d="M104.5,178 L169.1494,178 A3.75,3.75 0 0 1 171.6494,180.5 L178.6494,200.2969 L3686.5,200.2969 A2.5,2.5 0 0 1 3689,202.7969 L3689,828.5 A2.5,2.5 0 0 1 3686.5,831 L104.5,831 A2.5,2.5 0 0 1 102,828.5 L102,180.5 A2.5,2.5 0 0 1 104.5,178" fill="none" style="stroke:#000000;stroke-width:1.5;"/><line style="stroke:#000000;stroke-width:1.5;" x1="102" x2="178.6494" y1="200.2969" y2="200.2969"/><text fill="#000000" font-family="sans-serif" font-size="14" font-weight="bold" lengthAdjust="spacing" textLength="63.6494" x="106" y="192.9951">blobfish</text></g><!--cluster player--><g class="cluster" data-entity="player" data-source-line="2" data-uid="ent0008" id="cluster_player"><path d="M128.5,221 L179.293,221 A3.75,3.75 0 0 1 181.793,223.5 L188.793,243.2969 L3662.5,243.2969 A2.5,2.5 0 0 1 3665,245.7969 L3665,804.5 A2.5,2.5 0 0 1 3662.5,807 L128.5,807 A2.5,2.5 0 0 1 126,804.5 L126,223.5 A2.5,2.5 0 0 1 128.5,221" fill="none" style="stroke:#000000;stroke-width:1.5;"/><line style="stroke:#000000;stroke-width:1.5;" x1="126" x2="188.793" y1="243.2969" y2="243.2969"/><text fill="#000000" font-family="sans-serif" font-size="14" font-weight="bold" lengthAdjust="spacing" textLength="49.793" x="130" y="235.9951">player</text></g><!--cluster bot--><g class="cluster" data-entity="bot" data-source-line="14" data-uid="ent0011" id="cluster_bot"><path d="M824.5,264 L851.832,264 A3.75,3.75 0 0 1 854.332,266.5 L861.332,286.2969 L3638.5,286.2969 A2.5,2.5 0 0 1 3641,288.7969 L3641,660.5 A2.5,2.5 0 0 1 3638.5,663 L824.5,663 A2.5,2.5 0 0 1 822,660.5 L822,266.5 A2.5,2.5 0 0 1 824.5,264" fill="none" style="stroke:#000000;stroke-width:1.5;"/><line style="stroke:#000000;stroke-width:1.5;" x1="822" x2="861.332" y1="286.2969" y2="286.2969"/><text fill="#000000" font-family="sans-serif" font-size="14" font-weight="bold" lengthAdjust="spacing" textLength="26.332" x="826" y="278.9951">bot</text></g><!--cluster minimax--><g class="cluster" data-entity="minimax" data-source-line="26" data-uid="ent0014" id="cluster_minimax"><path d="M848.5,307 L916.7178,307 A3.75,3.75 0 0 1 919.2178,309.5 L926.2178,329.2969 L3614.5,329.2969 A2.5,2.5 0 0 1 3617,331.7969 L3617,468.5 A2.5,2.5 0 0 1 3614.5,471 L848.5,471 A2.5,2.5 0 0 1 846,468.5 L846,309.5 A2.5,2.5 0 0 1 848.5,307" fill="none" style="stroke:#000000;stroke-width:1.5;"/><line style="stroke:#000000;stroke-width:1.5;" x1="846" x2="926.2178" y1="329.2969" y2="329.2969"/><text fill="#000000" font-family="sans-serif" font-size="14" font-weight="bold" lengthAdjust="spacing" textLength="67.2178" x="850" y="321.9951">minimax</text></g><!--cluster exceptions--><g class="cluster" data-entity="exceptions" data-source-line="39" data-uid="ent0017" id="cluster_exceptions"><path d="M368.5,331.5 L455.25,331.5 A3.75,3.75 0 0 1 457.75,334 L464.75,353.7969 L579.5,353.7969 A2.5,2.5 0 0 1 582,356.2969 L582,444 A2.5,2.5 0 0 1 579.5,446.5 L368.5,446.5 A2.5,2.5 0 0 1 366,444 L366,334 A2.5,2.5 0 0 1 368.5,331.5" fill="none" style="stroke:#000000;stroke-width:1.5;"/><line style="stroke:#000000;stroke-width:1.5;" x1="366" x2="464.75" y1="353.7969" y2="353.7969"/><text fill="#000000" font-family="sans-serif" font-size="14" font-weight="bold" lengthAdjust="spacing" textLength="85.75" x="370" y="346.4951">exceptions</text></g><!--class AbstractPlayer--><g class="entity" data-entity="AbstractPlayer" data-source-line="2" data-uid="ent0002" id="entity_AbstractPlayer"><rect fill="#F1F1F1" height="80.5938" rx="2.5" ry="2.5" style="stroke:#181818;stroke-width:0.5;" width="663.6016" x="416" y="710"/><ellipse cx="692.3838" cy="726" fill="#A9DCDF" rx="11" ry="11" style="stroke:#181818;stroke-width:1;"/><path d="M692.4932,721.3438 L691.3369,726.4219 L693.665,726.4219 L692.4932,721.3438 Z M691.0088,719.1094 L693.9932,719.1094 L697.3525,731.5 L694.8994,731.5 L694.1338,728.4375 L690.8525,728.4375 L690.1025,731.5 L687.665,731.5 L691.0088,719.1094 Z " fill="#000000"/><text fill="#000000" font-family="sans-serif" font-size="14" font-style="italic" lengthAdjust="spacing" textLength="102.334" x="712.8838" y="730.8467">AbstractPlayer</text><line style="stroke:#181818;stroke-width:0.5;" x1="417" x2="1078.6016" y1="742" y2="742"/><rect fill="none" height="6" style="stroke:#C82930;stroke-width:1;" width="6" x="424" y="752.6484"/><text fill="#000000" font-family="sans-serif" font-size="14" lengthAdjust="spacing" textLength="397.0859" x="436" y="758.9951">playerColor : ch.hslu.cas.msed.blobfish.base.PlayerColor</text><line style="stroke:#181818;stroke-width:0.5;" x1="417" x2="1078.6016" y1="766.2969" y2="766.2969"/><ellipse cx="427" cy="779.9453" fill="#84BE84" rx="3" ry="3" style="stroke:#038048;stroke-width:1;"/><text fill="#000000" font-family="sans-serif" font-size="14" font-style="italic" lengthAdjust="spacing" textLength="637.6016" x="436" y="783.292">getNextMove ( paramChessBoard1 : ch.hslu.cas.msed.blobfish.board.ChessBoard ) : String</text></g><!--class HumanPlayer--><g class="entity" data-entity="HumanPlayer" data-source-line="8" data-uid="ent0009" id="entity_HumanPlayer"><rect fill="#F1F1F1" height="80.5938" rx="2.5" ry="2.5" style="stroke:#181818;stroke-width:0.5;" width="663.6016" x="142" y="550"/><ellipse cx="422.5229" cy="566" fill="#ADD1B2" rx="11" ry="11" style="stroke:#181818;stroke-width:1;"/><path d="M425.4917,571.6406 Q424.9136,571.9375 424.2729,572.0781 Q423.6323,572.2344 422.9292,572.2344 Q420.4292,572.2344 419.1011,570.5938 Q417.7886,568.9375 417.7886,565.8125 Q417.7886,562.6875 419.1011,561.0313 Q420.4292,559.375 422.9292,559.375 Q423.6323,559.375 424.2729,559.5313 Q424.9292,559.6875 425.4917,559.9844 L425.4917,562.7031 Q424.8667,562.125 424.2729,561.8594 Q423.6792,561.5781 423.0542,561.5781 Q421.7104,561.5781 421.0229,562.6563 Q420.3354,563.7188 420.3354,565.8125 Q420.3354,567.9063 421.0229,568.9844 Q421.7104,570.0469 423.0542,570.0469 Q423.6792,570.0469 424.2729,569.7813 Q424.8667,569.5 425.4917,568.9219 L425.4917,571.6406 Z " fill="#000000"/><text fill="#000000" font-family="sans-serif" font-size="14" lengthAdjust="spacing" textLength="94.0557" x="443.0229" y="570.8467">HumanPlayer</text><line style="stroke:#181818;stroke-width:0.5;" x1="143" x2="804.6016" y1="582" y2="582"/><rect fill="none" height="6" style="stroke:#C82930;stroke-width:1;" width="6" x="150" y="592.6484"/><text fill="#000000" font-family="sans-serif" font-size="14" lengthAdjust="spacing" textLength="375.3818" x="162" y="598.9951">reader : ch.hslu.cas.msed.blobfish.game.InputReader</text><line style="stroke:#181818;stroke-width:0.5;" x1="143" x2="804.6016" y1="606.2969" y2="606.2969"/><ellipse cx="153" cy="619.9453" fill="#84BE84" rx="3" ry="3" style="stroke:#038048;stroke-width:1;"/><text fill="#000000" font-family="sans-serif" font-size="14" lengthAdjust="spacing" textLength="637.6016" x="162" y="623.292">getNextMove ( paramChessBoard1 : ch.hslu.cas.msed.blobfish.board.ChessBoard ) : String</text></g><!--class BotPlayer--><g class="entity" data-entity="BotPlayer" data-source-line="14" data-uid="ent0010" id="entity_BotPlayer"><rect fill="#F1F1F1" height="48" rx="2.5" ry="2.5" style="stroke:#181818;stroke-width:0.5;" width="99.2246" x="972.5" y="566.5"/><ellipse cx="987.5" cy="582.5" fill="#A9DCDF" rx="11" ry="11" style="stroke:#181818;stroke-width:1;"/><path d="M987.6094,577.8438 L986.4531,582.9219 L988.7813,582.9219 L987.6094,577.8438 Z M986.125,575.6094 L989.1094,575.6094 L992.4688,588 L990.0156,588 L989.25,584.9375 L985.9688,584.9375 L985.2188,588 L982.7813,588 L986.125,575.6094 Z " fill="#000000"/><text fill="#000000" font-family="sans-serif" font-size="14" font-style="italic" lengthAdjust="spacing" textLength="67.2246" x="1001.5" y="587.3467">BotPlayer</text><line style="stroke:#181818;stroke-width:0.5;" x1="973.5" x2="1070.7246" y1="598.5" y2="598.5"/><line style="stroke:#181818;stroke-width:0.5;" x1="973.5" x2="1070.7246" y1="606.5" y2="606.5"/></g><!--class MiniMaxAlgo--><g class="entity" data-entity="MiniMaxAlgo" data-source-line="18" data-uid="ent0012" id="entity_MiniMaxAlgo"><rect fill="#F1F1F1" height="113.1875" rx="2.5" ry="2.5" style="stroke:#181818;stroke-width:0.5;" width="694.6025" x="1669.5" y="534"/><ellipse cx="1968.2544" cy="550" fill="#A9DCDF" rx="11" ry="11" style="stroke:#181818;stroke-width:1;"/><path d="M1968.3638,545.3438 L1967.2075,550.4219 L1969.5356,550.4219 L1968.3638,545.3438 Z M1966.8794,543.1094 L1969.8638,543.1094 L1973.2231,555.5 L1970.77,555.5 L1970.0044,552.4375 L1966.7231,552.4375 L1965.9731,555.5 L1963.5356,555.5 L1966.8794,543.1094 Z " fill="#000000"/><text fill="#000000" font-family="sans-serif" font-size="14" font-style="italic" lengthAdjust="spacing" textLength="88.5938" x="1988.7544" y="554.8467">MiniMaxAlgo</text><line style="stroke:#181818;stroke-width:0.5;" x1="1670.5" x2="2363.1025" y1="566" y2="566"/><rect fill="none" height="6" style="stroke:#C82930;stroke-width:1;" width="6" x="1677.5" y="576.6484"/><text fill="#000000" font-family="sans-serif" font-size="14" lengthAdjust="spacing" textLength="150.5342" x="1689.5" y="582.9951">calculationDepth : int</text><rect fill="none" height="6" style="stroke:#C82930;stroke-width:1;" width="6" x="1677.5" y="592.9453"/><text fill="#000000" font-family="sans-serif" font-size="14" lengthAdjust="spacing" textLength="411.3389" x="1689.5" y="599.292">evalStrategy : ch.hslu.cas.msed.blobfish.eval.EvalStrategy</text><rect fill="none" height="6" style="stroke:#C82930;stroke-width:1;" width="6" x="1677.5" y="609.2422"/><text fill="#000000" font-family="sans-serif" font-size="14" lengthAdjust="spacing" textLength="425.5303" x="1689.5" y="615.5889">ownPlayerColor : ch.hslu.cas.msed.blobfish.base.PlayerColor</text><line style="stroke:#181818;stroke-width:0.5;" x1="1670.5" x2="2363.1025" y1="622.8906" y2="622.8906"/><ellipse cx="1680.5" cy="636.5391" fill="#84BE84" rx="3" ry="3" style="stroke:#038048;stroke-width:1;"/><text fill="#000000" font-family="sans-serif" font-size="14" font-style="italic" lengthAdjust="spacing" textLength="668.6025" x="1689.5" y="639.8857">getBestNextMove ( paramChessBoard1 : ch.hslu.cas.msed.blobfish.board.ChessBoard ) : String</text></g><!--class MiniMaxBotPlayer--><g class="entity" data-entity="MiniMaxBotPlayer" data-source-line="26" data-uid="ent0013" id="entity_MiniMaxBotPlayer"><rect fill="#F1F1F1" height="64.2969" rx="2.5" ry="2.5" style="stroke:#181818;stroke-width:0.5;" width="663.6016" x="862" y="366.5"/><ellipse cx="1127.1011" cy="382.5" fill="#ADD1B2" rx="11" ry="11" style="stroke:#181818;stroke-width:1;"/><path d="M1130.0698,388.1406 Q1129.4917,388.4375 1128.8511,388.5781 Q1128.2104,388.7344 1127.5073,388.7344 Q1125.0073,388.7344 1123.6792,387.0938 Q1122.3667,385.4375 1122.3667,382.3125 Q1122.3667,379.1875 1123.6792,377.5313 Q1125.0073,375.875 1127.5073,375.875 Q1128.2104,375.875 1128.8511,376.0313 Q1129.5073,376.1875 1130.0698,376.4844 L1130.0698,379.2031 Q1129.4448,378.625 1128.8511,378.3594 Q1128.2573,378.0781 1127.6323,378.0781 Q1126.2886,378.0781 1125.6011,379.1563 Q1124.9136,380.2188 1124.9136,382.3125 Q1124.9136,384.4063 1125.6011,385.4844 Q1126.2886,386.5469 1127.6323,386.5469 Q1128.2573,386.5469 1128.8511,386.2813 Q1129.4448,386 1130.0698,385.4219 L1130.0698,388.1406 Z " fill="#000000"/><text fill="#000000" font-family="sans-serif" font-size="14" lengthAdjust="spacing" textLength="124.8994" x="1147.6011" y="387.3467">MiniMaxBotPlayer</text><line style="stroke:#181818;stroke-width:0.5;" x1="863" x2="1524.6016" y1="398.5" y2="398.5"/><line style="stroke:#181818;stroke-width:0.5;" x1="863" x2="1524.6016" y1="406.5" y2="406.5"/><ellipse cx="873" cy="420.1484" fill="#84BE84" rx="3" ry="3" style="stroke:#038048;stroke-width:1;"/><text fill="#000000" font-family="sans-serif" font-size="14" lengthAdjust="spacing" textLength="637.6016" x="882" y="423.4951">getNextMove ( paramChessBoard1 : ch.hslu.cas.msed.blobfish.board.ChessBoard ) : String</text></g><!--class MiniMaxSequential--><g class="entity" data-entity="MiniMaxSequential" data-source-line="31" data-uid="ent0015" id="entity_MiniMaxSequential"><rect fill="#F1F1F1" height="113.1875" rx="2.5" ry="2.5" style="stroke:#181818;stroke-width:0.5;" width="2039.2383" x="1561.5" y="342"/><ellipse cx="2510.7349" cy="358" fill="#ADD1B2" rx="11" ry="11" style="stroke:#181818;stroke-width:1;"/><path d="M2513.7036,363.6406 Q2513.1255,363.9375 2512.4849,364.0781 Q2511.8442,364.2344 2511.1411,364.2344 Q2508.6411,364.2344 2507.313,362.5938 Q2506.0005,360.9375 2506.0005,357.8125 Q2506.0005,354.6875 2507.313,353.0313 Q2508.6411,351.375 2511.1411,351.375 Q2511.8442,351.375 2512.4849,351.5313 Q2513.1411,351.6875 2513.7036,351.9844 L2513.7036,354.7031 Q2513.0786,354.125 2512.4849,353.8594 Q2511.8911,353.5781 2511.2661,353.5781 Q2509.9224,353.5781 2509.2349,354.6563 Q2508.5474,355.7188 2508.5474,357.8125 Q2508.5474,359.9063 2509.2349,360.9844 Q2509.9224,362.0469 2511.2661,362.0469 Q2511.8911,362.0469 2512.4849,361.7813 Q2513.0786,361.5 2513.7036,360.9219 L2513.7036,363.6406 Z " fill="#000000"/><text fill="#000000" font-family="sans-serif" font-size="14" lengthAdjust="spacing" textLength="132.2686" x="2531.2349" y="362.8467">MiniMaxSequential</text><line style="stroke:#181818;stroke-width:0.5;" x1="1562.5" x2="3599.7383" y1="374" y2="374"/><line style="stroke:#181818;stroke-width:0.5;" x1="1562.5" x2="3599.7383" y1="382" y2="382"/><rect fill="#F24D5C" height="6" style="stroke:#C82930;stroke-width:1;" width="6" x="1569.5" y="392.6484"/><text fill="#000000" font-family="sans-serif" font-size="14" lengthAdjust="spacing" textLength="2013.2383" x="1581.5" y="398.9951">calcBestPath ( paramChessBoard1 : ch.hslu.cas.msed.blobfish.board.ChessBoard , paramint2 : int , paramPlayerColor3 : ch.hslu.cas.msed.blobfish.base.PlayerColor , paramLinkedList4 : java.util.LinkedList ) : ch.hslu.cas.msed.blobfish.player.bot.minimax.MiniMaxSequential$ButtomNode</text><rect fill="#F24D5C" height="6" style="stroke:#C82930;stroke-width:1;" width="6" x="1569.5" y="408.9453"/><text fill="#000000" font-family="sans-serif" font-size="14" lengthAdjust="spacing" textLength="1021.5283" x="1581.5" y="415.292">copyAndAddToHistory ( paramLinkedList1 : java.util.LinkedList , paramMove2 : com.github.bhlangonijr.chesslib.move.Move ) : java.util.LinkedList</text><ellipse cx="1572.5" cy="428.2422" fill="#84BE84" rx="3" ry="3" style="stroke:#038048;stroke-width:1;"/><text fill="#000000" font-family="sans-serif" font-size="14" lengthAdjust="spacing" textLength="668.6025" x="1581.5" y="431.5889">getBestNextMove ( paramChessBoard1 : ch.hslu.cas.msed.blobfish.board.ChessBoard ) : String</text><rect fill="#F24D5C" height="6" style="stroke:#C82930;stroke-width:1;" width="6" x="1569.5" y="441.5391"/><text fill="#000000" font-family="sans-serif" font-size="14" lengthAdjust="spacing" text-decoration="underline" textLength="597.0918" x="1581.5" y="447.8857">getSanOfMove ( paramMove1 : com.github.bhlangonijr.chesslib.move.Move ) : String</text></g><!--class InvalidMoveException--><g class="entity" data-entity="InvalidMoveException" data-source-line="39" data-uid="ent0016" id="entity_InvalidMoveException"><rect fill="#F1F1F1" height="64.2969" rx="2.5" ry="2.5" style="stroke:#181818;stroke-width:0.5;" width="185.2207" x="381.5" y="366.5"/><ellipse cx="396.5" cy="382.5" fill="#ADD1B2" rx="11" ry="11" style="stroke:#181818;stroke-width:1;"/><path d="M399.4688,388.1406 Q398.8906,388.4375 398.25,388.5781 Q397.6094,388.7344 396.9063,388.7344 Q394.4063,388.7344 393.0781,387.0938 Q391.7656,385.4375 391.7656,382.3125 Q391.7656,379.1875 393.0781,377.5313 Q394.4063,375.875 396.9063,375.875 Q397.6094,375.875 398.25,376.0313 Q398.9063,376.1875 399.4688,376.4844 L399.4688,379.2031 Q398.8438,378.625 398.25,378.3594 Q397.6563,378.0781 397.0313,378.0781 Q395.6875,378.0781 395,379.1563 Q394.3125,380.2188 394.3125,382.3125 Q394.3125,384.4063 395,385.4844 Q395.6875,386.5469 397.0313,386.5469 Q397.6563,386.5469 398.25,386.2813 Q398.8438,386 399.4688,385.4219 L399.4688,388.1406 Z " fill="#000000"/><text fill="#000000" font-family="sans-serif" font-size="14" lengthAdjust="spacing" textLength="153.2207" x="410.5" y="387.3467">InvalidMoveException</text><line style="stroke:#181818;stroke-width:0.5;" x1="382.5" x2="565.7207" y1="398.5" y2="398.5"/><rect fill="none" height="6" style="stroke:#C82930;stroke-width:1;" width="6" x="389.5" y="409.1484"/><text fill="#000000" font-family="sans-serif" font-size="14" lengthAdjust="spacing" textLength="145.2705" x="401.5" y="415.4951">originalMove : String</text><line style="stroke:#181818;stroke-width:0.5;" x1="382.5" x2="565.7207" y1="422.7969" y2="422.7969"/></g><!--link HumanPlayer to AbstractPlayer--><g class="link" data-entity-1="HumanPlayer" data-entity-2="AbstractPlayer" data-source-line="46" data-uid="lnk18" id="link_HumanPlayer_AbstractPlayer"><path codeLine="46" d="M542.79,631.17 C584.48,655.21 621.8983,676.7755 663.5883,700.8255" fill="none" id="HumanPlayer-to-AbstractPlayer" style="stroke:#181818;stroke-width:1;"/><polygon fill="none" points="679.18,709.82,666.5865,695.6283,660.5902,706.0228,679.18,709.82" style="stroke:#181818;stroke-width:1;"/></g><!--link BotPlayer to AbstractPlayer--><g class="link" data-entity-1="BotPlayer" data-entity-2="AbstractPlayer" data-source-line="47" data-uid="lnk19" id="link_BotPlayer_AbstractPlayer"><path codeLine="47" d="M1011.63,614.67 C1002.65,632.35 988.1,656.11 969,671 C948.69,686.83 941.4896,692.598 917.2196,702.898" fill="none" id="BotPlayer-to-AbstractPlayer" style="stroke:#181818;stroke-width:1;"/><polygon fill="none" points="900.65,709.93,919.5636,708.4212,914.8756,697.3748,900.65,709.93" style="stroke:#181818;stroke-width:1;"/></g><!--reverse link MiniMaxBotPlayer to MiniMaxAlgo--><g class="link" data-entity-1="MiniMaxBotPlayer" data-entity-2="MiniMaxAlgo" data-source-line="48" data-uid="lnk20" id="link_MiniMaxBotPlayer_MiniMaxAlgo"><path codeLine="48" d="M1340.2125,433.2592 C1461.3325,461.2192 1630.5,500.27 1776.47,533.97" fill="none" id="MiniMaxBotPlayer-backto-MiniMaxAlgo" style="stroke:#181818;stroke-width:1;"/><polygon fill="#181818" points="1328.52,430.56,1333.4665,435.8071,1340.2125,433.2592,1335.266,428.0121,1328.52,430.56" style="stroke:#181818;stroke-width:1;"/><text fill="#000000" font-family="sans-serif" font-size="13" lengthAdjust="spacing" textLength="83.7129" x="1631" y="500.0669">miniMaxAlgo</text></g><!--link MiniMaxBotPlayer to BotPlayer--><g class="link" data-entity-1="MiniMaxBotPlayer" data-entity-2="BotPlayer" data-source-line="49" data-uid="lnk21" id="link_MiniMaxBotPlayer_BotPlayer"><path codeLine="49" d="M1165.6,430.87 C1131.06,469.03 1085.6611,519.1865 1054.9411,553.1165" fill="none" id="MiniMaxBotPlayer-to-BotPlayer" style="stroke:#181818;stroke-width:1;"/><polygon fill="none" points="1042.86,566.46,1059.3889,557.1436,1050.4933,549.0895,1042.86,566.46" style="stroke:#181818;stroke-width:1;"/></g><!--link MiniMaxSequential to MiniMaxAlgo--><g class="link" data-entity-1="MiniMaxSequential" data-entity-2="MiniMaxAlgo" data-source-line="50" data-uid="lnk22" id="link_MiniMaxSequential_MiniMaxAlgo"><path codeLine="50" d="M2415.97,455.09 C2342.34,479.9 2272.8279,503.313 2199.1879,528.123" fill="none" id="MiniMaxSequential-to-MiniMaxAlgo" style="stroke:#181818;stroke-width:1;"/><polygon fill="none" points="2182.13,533.87,2201.1036,533.809,2197.2723,522.4371,2182.13,533.87" style="stroke:#181818;stroke-width:1;"/></g><!--SRC=[nLLTRzCm57qcly8FF316B1LusWDIEoODQHqLtH-uiMyJ3ty4socjIlyxJjee2LghUQNm5bl7zznpV78DcVCMc2TCWdE45RHmig8C75KEESsaoHR25RIKi4PBntlyh5cIJV9gin0e-PQaEyIraSQIgoELCd18Pnqub53e2nDga0tiws_9POx-7bT-QfP8tf0IBAZh0fsR6B1yT9oYXj0EJIu2VEwjq7coJPBacM9lAmNw2QKMWUDnaJaef5zqMVbl3RWdyfp28F8wC-Ffn7It-T8QKw7555PZcPk1KmmagoHuOVHdB7qHkXNQzm2u11dw1u_v-gZo6aXlUkXU4VDJp_v- -2Re_dS0QsjLi5R1ghMuVrl_9bClxtMEFohKNe0SDDkaedPt1Y4HftRxRdS-nEhzBbtjJk-MFqHbeYrm9_Htv7V2-O_X_2CiWLPUIDhjDrQTviphIUMzKVU6uy0YKwx7ceyvVp2tWSdOTUjKHpywrDPUG9s6sXHc5Cs5BwgCPeK4dHij7YrbjObIP5G576sYSt6WuXzHEzUlqVyPdGzZWmKh0jySzDT5dwp-7aKhYmyrhbWOMs5wkJ3Cm_0Hl2vsq-uEPfsn8XSQP4Ct80jqCKzDclxwH6AVuYHorf-HvE34Ufkc9FuzkIAgMvtOmJDL3wnAJXnz4PmzsKdo6m00]--></g></svg>