<svg xmlns="http://www.w3.org/2000/svg" xmlns:xlink="http://www.w3.org/1999/xlink" contentStyleType="text/css" data-diagram-type="CLASS" height="805px" preserveAspectRatio="none" style="width:1669px;height:805px;background:#FFFFFF;" version="1.1" viewBox="0 0 1669 805" width="1669px" zoomAndPan="magnify"><defs/><g><!--cluster ch--><g class="cluster" data-entity="ch" data-source-line="2" data-uid="ent0003" id="cluster_ch"><path d="M8.5,6 L27.7656,6 A3.75,3.75 0 0 1 30.2656,8.5 L37.2656,28.2969 L1659.5,28.2969 A2.5,2.5 0 0 1 1662,30.7969 L1662,795.5 A2.5,2.5 0 0 1 1659.5,798 L8.5,798 A2.5,2.5 0 0 1 6,795.5 L6,8.5 A2.5,2.5 0 0 1 8.5,6" fill="none" style="stroke:#000000;stroke-width:1.5;"/><line style="stroke:#000000;stroke-width:1.5;" x1="6" x2="37.2656" y1="28.2969" y2="28.2969"/><text fill="#000000" font-family="sans-serif" font-size="14" font-weight="bold" lengthAdjust="spacing" textLength="18.2656" x="10" y="20.9951">ch</text></g><!--cluster hslu--><g class="cluster" data-entity="hslu" data-source-line="2" data-uid="ent0004" id="cluster_hslu"><path d="M32.5,49 L66.5654,49 A3.75,3.75 0 0 1 69.0654,51.5 L76.0654,71.2969 L1635.5,71.2969 A2.5,2.5 0 0 1 1638,73.7969 L1638,771.5 A2.5,2.5 0 0 1 1635.5,774 L32.5,774 A2.5,2.5 0 0 1 30,771.5 L30,51.5 A2.5,2.5 0 0 1 32.5,49" fill="none" style="stroke:#000000;stroke-width:1.5;"/><line style="stroke:#000000;stroke-width:1.5;" x1="30" x2="76.0654" y1="71.2969" y2="71.2969"/><text fill="#000000" font-family="sans-serif" font-size="14" font-weight="bold" lengthAdjust="spacing" textLength="33.0654" x="34" y="63.9951">hslu</text></g><!--cluster cas--><g class="cluster" data-entity="cas" data-source-line="2" data-uid="ent0005" id="cluster_cas"><path d="M56.5,92 L83.5791,92 A3.75,3.75 0 0 1 86.0791,94.5 L93.0791,114.2969 L1611.5,114.2969 A2.5,2.5 0 0 1 1614,116.7969 L1614,747.5 A2.5,2.5 0 0 1 1611.5,750 L56.5,750 A2.5,2.5 0 0 1 54,747.5 L54,94.5 A2.5,2.5 0 0 1 56.5,92" fill="none" style="stroke:#000000;stroke-width:1.5;"/><line style="stroke:#000000;stroke-width:1.5;" x1="54" x2="93.0791" y1="114.2969" y2="114.2969"/><text fill="#000000" font-family="sans-serif" font-size="14" font-weight="bold" lengthAdjust="spacing" textLength="26.0791" x="58" y="106.9951">cas</text></g><!--cluster msed--><g class="cluster" data-entity="msed" data-source-line="2" data-uid="ent0006" id="cluster_msed"><path d="M80.5,135 L123.9375,135 A3.75,3.75 0 0 1 126.4375,137.5 L133.4375,157.2969 L1587.5,157.2969 A2.5,2.5 0 0 1 1590,159.7969 L1590,723.5 A2.5,2.5 0 0 1 1587.5,726 L80.5,726 A2.5,2.5 0 0 1 78,723.5 L78,137.5 A2.5,2.5 0 0 1 80.5,135" fill="none" style="stroke:#000000;stroke-width:1.5;"/><line style="stroke:#000000;stroke-width:1.5;" x1="78" x2="133.4375" y1="157.2969" y2="157.2969"/><text fill="#000000" font-family="sans-serif" font-size="14" font-weight="bold" lengthAdjust="spacing" textLength="42.4375" x="82" y="149.9951">msed</text></g><!--cluster blobfish--><g class="cluster" data-entity="blobfish" data-source-line="2" data-uid="ent0007" id="cluster_blobfish"><path d="M104.5,178 L169.1494,178 A3.75,3.75 0 0 1 171.6494,180.5 L178.6494,200.2969 L1563.5,200.2969 A2.5,2.5 0 0 1 1566,202.7969 L1566,699.5 A2.5,2.5 0 0 1 1563.5,702 L104.5,702 A2.5,2.5 0 0 1 102,699.5 L102,180.5 A2.5,2.5 0 0 1 104.5,178" fill="none" style="stroke:#000000;stroke-width:1.5;"/><line style="stroke:#000000;stroke-width:1.5;" x1="102" x2="178.6494" y1="200.2969" y2="200.2969"/><text fill="#000000" font-family="sans-serif" font-size="14" font-weight="bold" lengthAdjust="spacing" textLength="63.6494" x="106" y="192.9951">blobfish</text></g><!--cluster player--><g class="cluster" data-entity="player" data-source-line="2" data-uid="ent0008" id="cluster_player"><path d="M128.5,221 L179.293,221 A3.75,3.75 0 0 1 181.793,223.5 L188.793,243.2969 L1539.5,243.2969 A2.5,2.5 0 0 1 1542,245.7969 L1542,675.5 A2.5,2.5 0 0 1 1539.5,678 L128.5,678 A2.5,2.5 0 0 1 126,675.5 L126,223.5 A2.5,2.5 0 0 1 128.5,221" fill="none" style="stroke:#000000;stroke-width:1.5;"/><line style="stroke:#000000;stroke-width:1.5;" x1="126" x2="188.793" y1="243.2969" y2="243.2969"/><text fill="#000000" font-family="sans-serif" font-size="14" font-weight="bold" lengthAdjust="spacing" textLength="49.793" x="130" y="235.9951">player</text></g><!--cluster bot--><g class="cluster" data-entity="bot" data-source-line="14" data-uid="ent0011" id="cluster_bot"><path d="M824.5,264 L851.832,264 A3.75,3.75 0 0 1 854.332,266.5 L861.332,286.2969 L1515.5,286.2969 A2.5,2.5 0 0 1 1518,288.7969 L1518,518 A2.5,2.5 0 0 1 1515.5,520.5 L824.5,520.5 A2.5,2.5 0 0 1 822,518 L822,266.5 A2.5,2.5 0 0 1 824.5,264" fill="none" style="stroke:#000000;stroke-width:1.5;"/><line style="stroke:#000000;stroke-width:1.5;" x1="822" x2="861.332" y1="286.2969" y2="286.2969"/><text fill="#000000" font-family="sans-serif" font-size="14" font-weight="bold" lengthAdjust="spacing" textLength="26.332" x="826" y="278.9951">bot</text></g><!--cluster exceptions--><g class="cluster" data-entity="exceptions" data-source-line="24" data-uid="ent0014" id="cluster_exceptions"><path d="M368.5,272.5 L455.25,272.5 A3.75,3.75 0 0 1 457.75,275 L464.75,294.7969 L579.5,294.7969 A2.5,2.5 0 0 1 582,297.2969 L582,385 A2.5,2.5 0 0 1 579.5,387.5 L368.5,387.5 A2.5,2.5 0 0 1 366,385 L366,275 A2.5,2.5 0 0 1 368.5,272.5" fill="none" style="stroke:#000000;stroke-width:1.5;"/><line style="stroke:#000000;stroke-width:1.5;" x1="366" x2="464.75" y1="294.7969" y2="294.7969"/><text fill="#000000" font-family="sans-serif" font-size="14" font-weight="bold" lengthAdjust="spacing" textLength="85.75" x="370" y="287.4951">exceptions</text></g><!--class AbstractPlayer--><g class="entity" data-entity="AbstractPlayer" data-source-line="2" data-uid="ent0002" id="entity_AbstractPlayer"><rect fill="#F1F1F1" height="80.5938" rx="2.5" ry="2.5" style="stroke:#181818;stroke-width:0.5;" width="663.6016" x="350" y="581"/><ellipse cx="626.3838" cy="597" fill="#A9DCDF" rx="11" ry="11" style="stroke:#181818;stroke-width:1;"/><path d="M626.4932,592.3438 L625.3369,597.4219 L627.665,597.4219 L626.4932,592.3438 Z M625.0088,590.1094 L627.9932,590.1094 L631.3525,602.5 L628.8994,602.5 L628.1338,599.4375 L624.8525,599.4375 L624.1025,602.5 L621.665,602.5 L625.0088,590.1094 Z " fill="#000000"/><text fill="#000000" font-family="sans-serif" font-size="14" font-style="italic" lengthAdjust="spacing" textLength="102.334" x="646.8838" y="601.8467">AbstractPlayer</text><line style="stroke:#181818;stroke-width:0.5;" x1="351" x2="1012.6016" y1="613" y2="613"/><rect fill="none" height="6" style="stroke:#C82930;stroke-width:1;" width="6" x="358" y="623.6484"/><text fill="#000000" font-family="sans-serif" font-size="14" lengthAdjust="spacing" textLength="397.0859" x="370" y="629.9951">playerColor : ch.hslu.cas.msed.blobfish.base.PlayerColor</text><line style="stroke:#181818;stroke-width:0.5;" x1="351" x2="1012.6016" y1="637.2969" y2="637.2969"/><ellipse cx="361" cy="650.9453" fill="#84BE84" rx="3" ry="3" style="stroke:#038048;stroke-width:1;"/><text fill="#000000" font-family="sans-serif" font-size="14" font-style="italic" lengthAdjust="spacing" textLength="637.6016" x="370" y="654.292">getNextMove ( paramChessBoard1 : ch.hslu.cas.msed.blobfish.board.ChessBoard ) : String</text></g><!--class HumanPlayer--><g class="entity" data-entity="HumanPlayer" data-source-line="8" data-uid="ent0009" id="entity_HumanPlayer"><rect fill="#F1F1F1" height="80.5938" rx="2.5" ry="2.5" style="stroke:#181818;stroke-width:0.5;" width="663.6016" x="142" y="440"/><ellipse cx="422.5229" cy="456" fill="#ADD1B2" rx="11" ry="11" style="stroke:#181818;stroke-width:1;"/><path d="M425.4917,461.6406 Q424.9136,461.9375 424.2729,462.0781 Q423.6323,462.2344 422.9292,462.2344 Q420.4292,462.2344 419.1011,460.5938 Q417.7886,458.9375 417.7886,455.8125 Q417.7886,452.6875 419.1011,451.0313 Q420.4292,449.375 422.9292,449.375 Q423.6323,449.375 424.2729,449.5313 Q424.9292,449.6875 425.4917,449.9844 L425.4917,452.7031 Q424.8667,452.125 424.2729,451.8594 Q423.6792,451.5781 423.0542,451.5781 Q421.7104,451.5781 421.0229,452.6563 Q420.3354,453.7188 420.3354,455.8125 Q420.3354,457.9063 421.0229,458.9844 Q421.7104,460.0469 423.0542,460.0469 Q423.6792,460.0469 424.2729,459.7813 Q424.8667,459.5 425.4917,458.9219 L425.4917,461.6406 Z " fill="#000000"/><text fill="#000000" font-family="sans-serif" font-size="14" lengthAdjust="spacing" textLength="94.0557" x="443.0229" y="460.8467">HumanPlayer</text><line style="stroke:#181818;stroke-width:0.5;" x1="143" x2="804.6016" y1="472" y2="472"/><rect fill="none" height="6" style="stroke:#C82930;stroke-width:1;" width="6" x="150" y="482.6484"/><text fill="#000000" font-family="sans-serif" font-size="14" lengthAdjust="spacing" textLength="375.3818" x="162" y="488.9951">reader : ch.hslu.cas.msed.blobfish.game.InputReader</text><line style="stroke:#181818;stroke-width:0.5;" x1="143" x2="804.6016" y1="496.2969" y2="496.2969"/><ellipse cx="153" cy="509.9453" fill="#84BE84" rx="3" ry="3" style="stroke:#038048;stroke-width:1;"/><text fill="#000000" font-family="sans-serif" font-size="14" lengthAdjust="spacing" textLength="637.6016" x="162" y="513.292">getNextMove ( paramChessBoard1 : ch.hslu.cas.msed.blobfish.board.ChessBoard ) : String</text></g><!--class BotPlayer--><g class="entity" data-entity="BotPlayer" data-source-line="14" data-uid="ent0010" id="entity_BotPlayer"><rect fill="#F1F1F1" height="48" rx="2.5" ry="2.5" style="stroke:#181818;stroke-width:0.5;" width="99.2246" x="980.5" y="456.5"/><ellipse cx="995.5" cy="472.5" fill="#A9DCDF" rx="11" ry="11" style="stroke:#181818;stroke-width:1;"/><path d="M995.6094,467.8438 L994.4531,472.9219 L996.7813,472.9219 L995.6094,467.8438 Z M994.125,465.6094 L997.1094,465.6094 L1000.4688,478 L998.0156,478 L997.25,474.9375 L993.9688,474.9375 L993.2188,478 L990.7813,478 L994.125,465.6094 Z " fill="#000000"/><text fill="#000000" font-family="sans-serif" font-size="14" font-style="italic" lengthAdjust="spacing" textLength="67.2246" x="1009.5" y="477.3467">BotPlayer</text><line style="stroke:#181818;stroke-width:0.5;" x1="981.5" x2="1078.7246" y1="488.5" y2="488.5"/><line style="stroke:#181818;stroke-width:0.5;" x1="981.5" x2="1078.7246" y1="496.5" y2="496.5"/></g><!--class MiniMaxBotPlayer--><g class="entity" data-entity="MiniMaxBotPlayer" data-source-line="18" data-uid="ent0012" id="entity_MiniMaxBotPlayer"><rect fill="#F1F1F1" height="80.5938" rx="2.5" ry="2.5" style="stroke:#181818;stroke-width:0.5;" width="663.6016" x="838" y="299"/><ellipse cx="1103.1011" cy="315" fill="#ADD1B2" rx="11" ry="11" style="stroke:#181818;stroke-width:1;"/><path d="M1106.0698,320.6406 Q1105.4917,320.9375 1104.8511,321.0781 Q1104.2104,321.2344 1103.5073,321.2344 Q1101.0073,321.2344 1099.6792,319.5938 Q1098.3667,317.9375 1098.3667,314.8125 Q1098.3667,311.6875 1099.6792,310.0313 Q1101.0073,308.375 1103.5073,308.375 Q1104.2104,308.375 1104.8511,308.5313 Q1105.5073,308.6875 1106.0698,308.9844 L1106.0698,311.7031 Q1105.4448,311.125 1104.8511,310.8594 Q1104.2573,310.5781 1103.6323,310.5781 Q1102.2886,310.5781 1101.6011,311.6563 Q1100.9136,312.7188 1100.9136,314.8125 Q1100.9136,316.9063 1101.6011,317.9844 Q1102.2886,319.0469 1103.6323,319.0469 Q1104.2573,319.0469 1104.8511,318.7813 Q1105.4448,318.5 1106.0698,317.9219 L1106.0698,320.6406 Z " fill="#000000"/><text fill="#000000" font-family="sans-serif" font-size="14" lengthAdjust="spacing" textLength="124.8994" x="1123.6011" y="319.8467">MiniMaxBotPlayer</text><line style="stroke:#181818;stroke-width:0.5;" x1="839" x2="1500.6016" y1="331" y2="331"/><rect fill="none" height="6" style="stroke:#C82930;stroke-width:1;" width="6" x="846" y="341.6484"/><text fill="#000000" font-family="sans-serif" font-size="14" lengthAdjust="spacing" textLength="395.2266" x="858" y="347.9951">miniMax : ch.hslu.cas.msed.blobfish.searchtree.MiniMax</text><line style="stroke:#181818;stroke-width:0.5;" x1="839" x2="1500.6016" y1="355.2969" y2="355.2969"/><ellipse cx="849" cy="368.9453" fill="#84BE84" rx="3" ry="3" style="stroke:#038048;stroke-width:1;"/><text fill="#000000" font-family="sans-serif" font-size="14" lengthAdjust="spacing" textLength="637.6016" x="858" y="372.292">getNextMove ( paramChessBoard1 : ch.hslu.cas.msed.blobfish.board.ChessBoard ) : String</text></g><!--class InvalidMoveException--><g class="entity" data-entity="InvalidMoveException" data-source-line="24" data-uid="ent0013" id="entity_InvalidMoveException"><rect fill="#F1F1F1" height="64.2969" rx="2.5" ry="2.5" style="stroke:#181818;stroke-width:0.5;" width="185.2207" x="381.5" y="307.5"/><ellipse cx="396.5" cy="323.5" fill="#ADD1B2" rx="11" ry="11" style="stroke:#181818;stroke-width:1;"/><path d="M399.4688,329.1406 Q398.8906,329.4375 398.25,329.5781 Q397.6094,329.7344 396.9063,329.7344 Q394.4063,329.7344 393.0781,328.0938 Q391.7656,326.4375 391.7656,323.3125 Q391.7656,320.1875 393.0781,318.5313 Q394.4063,316.875 396.9063,316.875 Q397.6094,316.875 398.25,317.0313 Q398.9063,317.1875 399.4688,317.4844 L399.4688,320.2031 Q398.8438,319.625 398.25,319.3594 Q397.6563,319.0781 397.0313,319.0781 Q395.6875,319.0781 395,320.1563 Q394.3125,321.2188 394.3125,323.3125 Q394.3125,325.4063 395,326.4844 Q395.6875,327.5469 397.0313,327.5469 Q397.6563,327.5469 398.25,327.2813 Q398.8438,327 399.4688,326.4219 L399.4688,329.1406 Z " fill="#000000"/><text fill="#000000" font-family="sans-serif" font-size="14" lengthAdjust="spacing" textLength="153.2207" x="410.5" y="328.3467">InvalidMoveException</text><line style="stroke:#181818;stroke-width:0.5;" x1="382.5" x2="565.7207" y1="339.5" y2="339.5"/><rect fill="none" height="6" style="stroke:#C82930;stroke-width:1;" width="6" x="389.5" y="350.1484"/><text fill="#000000" font-family="sans-serif" font-size="14" lengthAdjust="spacing" textLength="145.2705" x="401.5" y="356.4951">originalMove : String</text><line style="stroke:#181818;stroke-width:0.5;" x1="382.5" x2="565.7207" y1="363.7969" y2="363.7969"/></g><!--link HumanPlayer to AbstractPlayer--><g class="link" data-entity-1="HumanPlayer" data-entity-2="AbstractPlayer" data-source-line="31" data-uid="lnk15" id="link_HumanPlayer_AbstractPlayer"><path codeLine="31" d="M533.33,521.15 C561.3,539.84 579.643,552.1006 607.633,570.8006" fill="none" id="HumanPlayer-to-AbstractPlayer" style="stroke:#181818;stroke-width:1;"/><polygon fill="none" points="622.6,580.8,610.9661,565.8116,604.2998,575.7896,622.6,580.8" style="stroke:#181818;stroke-width:1;"/></g><!--link BotPlayer to AbstractPlayer--><g class="link" data-entity-1="BotPlayer" data-entity-2="AbstractPlayer" data-source-line="32" data-uid="lnk16" id="link_BotPlayer_AbstractPlayer"><path codeLine="32" d="M1008.17,504.64 C999.18,513.11 988.25,522.15 977,528.5 C938.46,550.26 911.2786,562.111 868.8786,575.551" fill="none" id="BotPlayer-to-AbstractPlayer" style="stroke:#181818;stroke-width:1;"/><polygon fill="none" points="851.72,580.99,870.6916,581.2706,867.0656,569.8315,851.72,580.99" style="stroke:#181818;stroke-width:1;"/></g><!--link MiniMaxBotPlayer to BotPlayer--><g class="link" data-entity-1="MiniMaxBotPlayer" data-entity-2="BotPlayer" data-source-line="33" data-uid="lnk17" id="link_MiniMaxBotPlayer_BotPlayer"><path codeLine="33" d="M1129.88,380.33 C1105.16,404.88 1087.0839,422.8282 1066.2639,443.4982" fill="none" id="MiniMaxBotPlayer-to-BotPlayer" style="stroke:#181818;stroke-width:1;"/><polygon fill="none" points="1053.49,456.18,1070.4911,447.7561,1062.0366,439.2402,1053.49,456.18" style="stroke:#181818;stroke-width:1;"/></g><!--SRC=[lPFFIiGm4CRFvYboLAG1hnu4Tn7qK5dq2QRfR1F8dv99bqhjkzjsT-aMfRI7zPZao_VDRoQ1Z6806RaqGCIb4efC9IIGi8Ivo8pFzfgKA0ryOH3F9_rkMFA6tJHxZIPlUN9KRBtnWJ_EE6L0A7QZkBEm69NlF7W39_-MtnSOtx6EgJyWl-Kb1B1RXKGR3o5_c8_e9M9KyxjE_Xc3TWLh6MCBOLyh2-uFqe2Gupna0HR5cokh-368Bo2l2GOhnvdvA3P-dEQAvlHNK-rq2lMbmzWbUpoSvI6485KCY6UlVshKGaYi9PPHUqVTC0zWTDuNytBUdV3we0ljm0pbJiAwk3LFBKc-d_ZQhyXMplgA8RzUnSAiIO6C_G00]--></g></svg>