<svg xmlns="http://www.w3.org/2000/svg" xmlns:xlink="http://www.w3.org/1999/xlink" contentStyleType="text/css" data-diagram-type="CLASS" height="956px" preserveAspectRatio="none" style="width:3900px;height:956px;background:#FFFFFF;" version="1.1" viewBox="0 0 3900 956" width="3900px" zoomAndPan="magnify"><defs/><g><!--cluster ch--><g class="cluster" data-entity="ch" data-source-line="2" data-uid="ent0003" id="cluster_ch"><path d="M8.5,6 L27.7656,6 A3.75,3.75 0 0 1 30.2656,8.5 L37.2656,28.2969 L3890.5,28.2969 A2.5,2.5 0 0 1 3893,30.7969 L3893,946.5 A2.5,2.5 0 0 1 3890.5,949 L8.5,949 A2.5,2.5 0 0 1 6,946.5 L6,8.5 A2.5,2.5 0 0 1 8.5,6" fill="none" style="stroke:#000000;stroke-width:1.5;"/><line style="stroke:#000000;stroke-width:1.5;" x1="6" x2="37.2656" y1="28.2969" y2="28.2969"/><text fill="#000000" font-family="sans-serif" font-size="14" font-weight="bold" lengthAdjust="spacing" textLength="18.2656" x="10" y="20.9951">ch</text></g><!--cluster hslu--><g class="cluster" data-entity="hslu" data-source-line="2" data-uid="ent0004" id="cluster_hslu"><path d="M32.5,49 L66.5654,49 A3.75,3.75 0 0 1 69.0654,51.5 L76.0654,71.2969 L3866.5,71.2969 A2.5,2.5 0 0 1 3869,73.7969 L3869,922.5 A2.5,2.5 0 0 1 3866.5,925 L32.5,925 A2.5,2.5 0 0 1 30,922.5 L30,51.5 A2.5,2.5 0 0 1 32.5,49" fill="none" style="stroke:#000000;stroke-width:1.5;"/><line style="stroke:#000000;stroke-width:1.5;" x1="30" x2="76.0654" y1="71.2969" y2="71.2969"/><text fill="#000000" font-family="sans-serif" font-size="14" font-weight="bold" lengthAdjust="spacing" textLength="33.0654" x="34" y="63.9951">hslu</text></g><!--cluster cas--><g class="cluster" data-entity="cas" data-source-line="2" data-uid="ent0005" id="cluster_cas"><path d="M56.5,92 L83.5791,92 A3.75,3.75 0 0 1 86.0791,94.5 L93.0791,114.2969 L3842.5,114.2969 A2.5,2.5 0 0 1 3845,116.7969 L3845,898.5 A2.5,2.5 0 0 1 3842.5,901 L56.5,901 A2.5,2.5 0 0 1 54,898.5 L54,94.5 A2.5,2.5 0 0 1 56.5,92" fill="none" style="stroke:#000000;stroke-width:1.5;"/><line style="stroke:#000000;stroke-width:1.5;" x1="54" x2="93.0791" y1="114.2969" y2="114.2969"/><text fill="#000000" font-family="sans-serif" font-size="14" font-weight="bold" lengthAdjust="spacing" textLength="26.0791" x="58" y="106.9951">cas</text></g><!--cluster msed--><g class="cluster" data-entity="msed" data-source-line="2" data-uid="ent0006" id="cluster_msed"><path d="M80.5,135 L123.9375,135 A3.75,3.75 0 0 1 126.4375,137.5 L133.4375,157.2969 L3818.5,157.2969 A2.5,2.5 0 0 1 3821,159.7969 L3821,874.5 A2.5,2.5 0 0 1 3818.5,877 L80.5,877 A2.5,2.5 0 0 1 78,874.5 L78,137.5 A2.5,2.5 0 0 1 80.5,135" fill="none" style="stroke:#000000;stroke-width:1.5;"/><line style="stroke:#000000;stroke-width:1.5;" x1="78" x2="133.4375" y1="157.2969" y2="157.2969"/><text fill="#000000" font-family="sans-serif" font-size="14" font-weight="bold" lengthAdjust="spacing" textLength="42.4375" x="82" y="149.9951">msed</text></g><!--cluster blobfish--><g class="cluster" data-entity="blobfish" data-source-line="2" data-uid="ent0007" id="cluster_blobfish"><path d="M104.5,178 L169.1494,178 A3.75,3.75 0 0 1 171.6494,180.5 L178.6494,200.2969 L3794.5,200.2969 A2.5,2.5 0 0 1 3797,202.7969 L3797,850.5 A2.5,2.5 0 0 1 3794.5,853 L104.5,853 A2.5,2.5 0 0 1 102,850.5 L102,180.5 A2.5,2.5 0 0 1 104.5,178" fill="none" style="stroke:#000000;stroke-width:1.5;"/><line style="stroke:#000000;stroke-width:1.5;" x1="102" x2="178.6494" y1="200.2969" y2="200.2969"/><text fill="#000000" font-family="sans-serif" font-size="14" font-weight="bold" lengthAdjust="spacing" textLength="63.6494" x="106" y="192.9951">blobfish</text></g><!--cluster player--><g class="cluster" data-entity="player" data-source-line="2" data-uid="ent0008" id="cluster_player"><path d="M128.5,221 L179.293,221 A3.75,3.75 0 0 1 181.793,223.5 L188.793,243.2969 L3770.5,243.2969 A2.5,2.5 0 0 1 3773,245.7969 L3773,826.5 A2.5,2.5 0 0 1 3770.5,829 L128.5,829 A2.5,2.5 0 0 1 126,826.5 L126,223.5 A2.5,2.5 0 0 1 128.5,221" fill="none" style="stroke:#000000;stroke-width:1.5;"/><line style="stroke:#000000;stroke-width:1.5;" x1="126" x2="188.793" y1="243.2969" y2="243.2969"/><text fill="#000000" font-family="sans-serif" font-size="14" font-weight="bold" lengthAdjust="spacing" textLength="49.793" x="130" y="235.9951">player</text></g><!--cluster bot--><g class="cluster" data-entity="bot" data-source-line="14" data-uid="ent0011" id="cluster_bot"><path d="M824.5,264 L851.832,264 A3.75,3.75 0 0 1 854.332,266.5 L861.332,286.2969 L3746.5,286.2969 A2.5,2.5 0 0 1 3749,288.7969 L3749,682.5 A2.5,2.5 0 0 1 3746.5,685 L824.5,685 A2.5,2.5 0 0 1 822,682.5 L822,266.5 A2.5,2.5 0 0 1 824.5,264" fill="none" style="stroke:#000000;stroke-width:1.5;"/><line style="stroke:#000000;stroke-width:1.5;" x1="822" x2="861.332" y1="286.2969" y2="286.2969"/><text fill="#000000" font-family="sans-serif" font-size="14" font-weight="bold" lengthAdjust="spacing" textLength="26.332" x="826" y="278.9951">bot</text></g><!--cluster minimax--><g class="cluster" data-entity="minimax" data-source-line="18" data-uid="ent0013" id="cluster_minimax"><path d="M848.5,307 L916.7178,307 A3.75,3.75 0 0 1 919.2178,309.5 L926.2178,329.2969 L3614.5,329.2969 A2.5,2.5 0 0 1 3617,331.7969 L3617,658.5 A2.5,2.5 0 0 1 3614.5,661 L848.5,661 A2.5,2.5 0 0 1 846,658.5 L846,309.5 A2.5,2.5 0 0 1 848.5,307" fill="none" style="stroke:#000000;stroke-width:1.5;"/><line style="stroke:#000000;stroke-width:1.5;" x1="846" x2="926.2178" y1="329.2969" y2="329.2969"/><text fill="#000000" font-family="sans-serif" font-size="14" font-weight="bold" lengthAdjust="spacing" textLength="67.2178" x="850" y="321.9951">minimax</text></g><!--cluster exceptions--><g class="cluster" data-entity="exceptions" data-source-line="39" data-uid="ent0017" id="cluster_exceptions"><path d="M368.5,331.5 L455.25,331.5 A3.75,3.75 0 0 1 457.75,334 L464.75,353.7969 L579.5,353.7969 A2.5,2.5 0 0 1 582,356.2969 L582,444 A2.5,2.5 0 0 1 579.5,446.5 L368.5,446.5 A2.5,2.5 0 0 1 366,444 L366,334 A2.5,2.5 0 0 1 368.5,331.5" fill="none" style="stroke:#000000;stroke-width:1.5;"/><line style="stroke:#000000;stroke-width:1.5;" x1="366" x2="464.75" y1="353.7969" y2="353.7969"/><text fill="#000000" font-family="sans-serif" font-size="14" font-weight="bold" lengthAdjust="spacing" textLength="85.75" x="370" y="346.4951">exceptions</text></g><!--class AbstractPlayer--><g class="entity" data-entity="AbstractPlayer" data-source-line="2" data-uid="ent0002" id="entity_AbstractPlayer"><rect fill="#F1F1F1" height="80.5938" rx="2.5" ry="2.5" style="stroke:#181818;stroke-width:0.5;" width="663.6016" x="1747" y="732"/><ellipse cx="2023.3838" cy="748" fill="#A9DCDF" rx="11" ry="11" style="stroke:#181818;stroke-width:1;"/><path d="M2023.4932,743.3438 L2022.3369,748.4219 L2024.665,748.4219 L2023.4932,743.3438 Z M2022.0088,741.1094 L2024.9932,741.1094 L2028.3525,753.5 L2025.8994,753.5 L2025.1338,750.4375 L2021.8525,750.4375 L2021.1025,753.5 L2018.665,753.5 L2022.0088,741.1094 Z " fill="#000000"/><text fill="#000000" font-family="sans-serif" font-size="14" font-style="italic" lengthAdjust="spacing" textLength="102.334" x="2043.8838" y="752.8467">AbstractPlayer</text><line style="stroke:#181818;stroke-width:0.5;" x1="1748" x2="2409.6016" y1="764" y2="764"/><rect fill="none" height="6" style="stroke:#C82930;stroke-width:1;" width="6" x="1755" y="774.6484"/><text fill="#000000" font-family="sans-serif" font-size="14" lengthAdjust="spacing" textLength="397.0859" x="1767" y="780.9951">playerColor : ch.hslu.cas.msed.blobfish.base.PlayerColor</text><line style="stroke:#181818;stroke-width:0.5;" x1="1748" x2="2409.6016" y1="788.2969" y2="788.2969"/><ellipse cx="1758" cy="801.9453" fill="#84BE84" rx="3" ry="3" style="stroke:#038048;stroke-width:1;"/><text fill="#000000" font-family="sans-serif" font-size="14" font-style="italic" lengthAdjust="spacing" textLength="637.6016" x="1767" y="805.292">getNextMove ( paramChessBoard1 : ch.hslu.cas.msed.blobfish.board.ChessBoard ) : String</text></g><!--class HumanPlayer--><g class="entity" data-entity="HumanPlayer" data-source-line="8" data-uid="ent0009" id="entity_HumanPlayer"><rect fill="#F1F1F1" height="80.5938" rx="2.5" ry="2.5" style="stroke:#181818;stroke-width:0.5;" width="663.6016" x="142" y="548"/><ellipse cx="422.5229" cy="564" fill="#ADD1B2" rx="11" ry="11" style="stroke:#181818;stroke-width:1;"/><path d="M425.4917,569.6406 Q424.9136,569.9375 424.2729,570.0781 Q423.6323,570.2344 422.9292,570.2344 Q420.4292,570.2344 419.1011,568.5938 Q417.7886,566.9375 417.7886,563.8125 Q417.7886,560.6875 419.1011,559.0313 Q420.4292,557.375 422.9292,557.375 Q423.6323,557.375 424.2729,557.5313 Q424.9292,557.6875 425.4917,557.9844 L425.4917,560.7031 Q424.8667,560.125 424.2729,559.8594 Q423.6792,559.5781 423.0542,559.5781 Q421.7104,559.5781 421.0229,560.6563 Q420.3354,561.7188 420.3354,563.8125 Q420.3354,565.9063 421.0229,566.9844 Q421.7104,568.0469 423.0542,568.0469 Q423.6792,568.0469 424.2729,567.7813 Q424.8667,567.5 425.4917,566.9219 L425.4917,569.6406 Z " fill="#000000"/><text fill="#000000" font-family="sans-serif" font-size="14" lengthAdjust="spacing" textLength="94.0557" x="443.0229" y="568.8467">HumanPlayer</text><line style="stroke:#181818;stroke-width:0.5;" x1="143" x2="804.6016" y1="580" y2="580"/><rect fill="none" height="6" style="stroke:#C82930;stroke-width:1;" width="6" x="150" y="590.6484"/><text fill="#000000" font-family="sans-serif" font-size="14" lengthAdjust="spacing" textLength="375.3818" x="162" y="596.9951">reader : ch.hslu.cas.msed.blobfish.game.InputReader</text><line style="stroke:#181818;stroke-width:0.5;" x1="143" x2="804.6016" y1="604.2969" y2="604.2969"/><ellipse cx="153" cy="617.9453" fill="#84BE84" rx="3" ry="3" style="stroke:#038048;stroke-width:1;"/><text fill="#000000" font-family="sans-serif" font-size="14" lengthAdjust="spacing" textLength="637.6016" x="162" y="621.292">getNextMove ( paramChessBoard1 : ch.hslu.cas.msed.blobfish.board.ChessBoard ) : String</text></g><!--class BotPlayer--><g class="entity" data-entity="BotPlayer" data-source-line="14" data-uid="ent0010" id="entity_BotPlayer"><rect fill="#F1F1F1" height="48" rx="2.5" ry="2.5" style="stroke:#181818;stroke-width:0.5;" width="99.2246" x="3633.5" y="564.5"/><ellipse cx="3648.5" cy="580.5" fill="#A9DCDF" rx="11" ry="11" style="stroke:#181818;stroke-width:1;"/><path d="M3648.6094,575.8438 L3647.4531,580.9219 L3649.7813,580.9219 L3648.6094,575.8438 Z M3647.125,573.6094 L3650.1094,573.6094 L3653.4688,586 L3651.0156,586 L3650.25,582.9375 L3646.9688,582.9375 L3646.2188,586 L3643.7813,586 L3647.125,573.6094 Z " fill="#000000"/><text fill="#000000" font-family="sans-serif" font-size="14" font-style="italic" lengthAdjust="spacing" textLength="67.2246" x="3662.5" y="585.3467">BotPlayer</text><line style="stroke:#181818;stroke-width:0.5;" x1="3634.5" x2="3731.7246" y1="596.5" y2="596.5"/><line style="stroke:#181818;stroke-width:0.5;" x1="3634.5" x2="3731.7246" y1="604.5" y2="604.5"/></g><!--class MiniMaxAlgo--><g class="entity" data-entity="MiniMaxAlgo" data-source-line="18" data-uid="ent0012" id="entity_MiniMaxAlgo"><rect fill="#F1F1F1" height="113.1875" rx="2.5" ry="2.5" style="stroke:#181818;stroke-width:0.5;" width="694.6025" x="2076.5" y="532"/><ellipse cx="2375.2544" cy="548" fill="#A9DCDF" rx="11" ry="11" style="stroke:#181818;stroke-width:1;"/><path d="M2375.3638,543.3438 L2374.2075,548.4219 L2376.5356,548.4219 L2375.3638,543.3438 Z M2373.8794,541.1094 L2376.8638,541.1094 L2380.2231,553.5 L2377.77,553.5 L2377.0044,550.4375 L2373.7231,550.4375 L2372.9731,553.5 L2370.5356,553.5 L2373.8794,541.1094 Z " fill="#000000"/><text fill="#000000" font-family="sans-serif" font-size="14" font-style="italic" lengthAdjust="spacing" textLength="88.5938" x="2395.7544" y="552.8467">MiniMaxAlgo</text><line style="stroke:#181818;stroke-width:0.5;" x1="2077.5" x2="2770.1025" y1="564" y2="564"/><rect fill="none" height="6" style="stroke:#C82930;stroke-width:1;" width="6" x="2084.5" y="574.6484"/><text fill="#000000" font-family="sans-serif" font-size="14" lengthAdjust="spacing" textLength="150.5342" x="2096.5" y="580.9951">calculationDepth : int</text><rect fill="none" height="6" style="stroke:#C82930;stroke-width:1;" width="6" x="2084.5" y="590.9453"/><text fill="#000000" font-family="sans-serif" font-size="14" lengthAdjust="spacing" textLength="411.3389" x="2096.5" y="597.292">evalStrategy : ch.hslu.cas.msed.blobfish.eval.EvalStrategy</text><rect fill="none" height="6" style="stroke:#C82930;stroke-width:1;" width="6" x="2084.5" y="607.2422"/><text fill="#000000" font-family="sans-serif" font-size="14" lengthAdjust="spacing" textLength="425.5303" x="2096.5" y="613.5889">ownPlayerColor : ch.hslu.cas.msed.blobfish.base.PlayerColor</text><line style="stroke:#181818;stroke-width:0.5;" x1="2077.5" x2="2770.1025" y1="620.8906" y2="620.8906"/><ellipse cx="2087.5" cy="634.5391" fill="#84BE84" rx="3" ry="3" style="stroke:#038048;stroke-width:1;"/><text fill="#000000" font-family="sans-serif" font-size="14" font-style="italic" lengthAdjust="spacing" textLength="668.6025" x="2096.5" y="637.8857">getBestNextMove ( paramChessBoard1 : ch.hslu.cas.msed.blobfish.board.ChessBoard ) : String</text></g><!--class MiniMaxBotPlayer--><g class="entity" data-entity="MiniMaxBotPlayer" data-source-line="26" data-uid="ent0014" id="entity_MiniMaxBotPlayer"><rect fill="#F1F1F1" height="64.2969" rx="2.5" ry="2.5" style="stroke:#181818;stroke-width:0.5;" width="663.6016" x="2937" y="366.5"/><ellipse cx="3202.1011" cy="382.5" fill="#ADD1B2" rx="11" ry="11" style="stroke:#181818;stroke-width:1;"/><path d="M3205.0698,388.1406 Q3204.4917,388.4375 3203.8511,388.5781 Q3203.2104,388.7344 3202.5073,388.7344 Q3200.0073,388.7344 3198.6792,387.0938 Q3197.3667,385.4375 3197.3667,382.3125 Q3197.3667,379.1875 3198.6792,377.5313 Q3200.0073,375.875 3202.5073,375.875 Q3203.2104,375.875 3203.8511,376.0313 Q3204.5073,376.1875 3205.0698,376.4844 L3205.0698,379.2031 Q3204.4448,378.625 3203.8511,378.3594 Q3203.2573,378.0781 3202.6323,378.0781 Q3201.2886,378.0781 3200.6011,379.1563 Q3199.9136,380.2188 3199.9136,382.3125 Q3199.9136,384.4063 3200.6011,385.4844 Q3201.2886,386.5469 3202.6323,386.5469 Q3203.2573,386.5469 3203.8511,386.2813 Q3204.4448,386 3205.0698,385.4219 L3205.0698,388.1406 Z " fill="#000000"/><text fill="#000000" font-family="sans-serif" font-size="14" lengthAdjust="spacing" textLength="124.8994" x="3222.6011" y="387.3467">MiniMaxBotPlayer</text><line style="stroke:#181818;stroke-width:0.5;" x1="2938" x2="3599.6016" y1="398.5" y2="398.5"/><line style="stroke:#181818;stroke-width:0.5;" x1="2938" x2="3599.6016" y1="406.5" y2="406.5"/><ellipse cx="2948" cy="420.1484" fill="#84BE84" rx="3" ry="3" style="stroke:#038048;stroke-width:1;"/><text fill="#000000" font-family="sans-serif" font-size="14" lengthAdjust="spacing" textLength="637.6016" x="2957" y="423.4951">getNextMove ( paramChessBoard1 : ch.hslu.cas.msed.blobfish.board.ChessBoard ) : String</text></g><!--class MiniMaxSequential--><g class="entity" data-entity="MiniMaxSequential" data-source-line="31" data-uid="ent0015" id="entity_MiniMaxSequential"><rect fill="#F1F1F1" height="113.1875" rx="2.5" ry="2.5" style="stroke:#181818;stroke-width:0.5;" width="2038.9307" x="862.5" y="342"/><ellipse cx="1811.5811" cy="358" fill="#ADD1B2" rx="11" ry="11" style="stroke:#181818;stroke-width:1;"/><path d="M1814.5498,363.6406 Q1813.9717,363.9375 1813.3311,364.0781 Q1812.6904,364.2344 1811.9873,364.2344 Q1809.4873,364.2344 1808.1592,362.5938 Q1806.8467,360.9375 1806.8467,357.8125 Q1806.8467,354.6875 1808.1592,353.0313 Q1809.4873,351.375 1811.9873,351.375 Q1812.6904,351.375 1813.3311,351.5313 Q1813.9873,351.6875 1814.5498,351.9844 L1814.5498,354.7031 Q1813.9248,354.125 1813.3311,353.8594 Q1812.7373,353.5781 1812.1123,353.5781 Q1810.7686,353.5781 1810.0811,354.6563 Q1809.3936,355.7188 1809.3936,357.8125 Q1809.3936,359.9063 1810.0811,360.9844 Q1810.7686,362.0469 1812.1123,362.0469 Q1812.7373,362.0469 1813.3311,361.7813 Q1813.9248,361.5 1814.5498,360.9219 L1814.5498,363.6406 Z " fill="#000000"/><text fill="#000000" font-family="sans-serif" font-size="14" lengthAdjust="spacing" textLength="132.2686" x="1832.0811" y="362.8467">MiniMaxSequential</text><line style="stroke:#181818;stroke-width:0.5;" x1="863.5" x2="2900.4307" y1="374" y2="374"/><line style="stroke:#181818;stroke-width:0.5;" x1="863.5" x2="2900.4307" y1="382" y2="382"/><rect fill="#F24D5C" height="6" style="stroke:#C82930;stroke-width:1;" width="6" x="870.5" y="392.6484"/><text fill="#000000" font-family="sans-serif" font-size="14" lengthAdjust="spacing" textLength="2012.9307" x="882.5" y="398.9951">calcBestPath ( paramChessBoard1 : ch.hslu.cas.msed.blobfish.board.ChessBoard , paramint2 : int , paramPlayerColor3 : ch.hslu.cas.msed.blobfish.base.PlayerColor , paramLinkedList4 : java.util.LinkedList ) : ch.hslu.cas.msed.blobfish.player.bot.minimax.MiniMaxSequential$BottomNode</text><rect fill="#F24D5C" height="6" style="stroke:#C82930;stroke-width:1;" width="6" x="870.5" y="408.9453"/><text fill="#000000" font-family="sans-serif" font-size="14" lengthAdjust="spacing" textLength="1021.5283" x="882.5" y="415.292">copyAndAddToHistory ( paramLinkedList1 : java.util.LinkedList , paramMove2 : com.github.bhlangonijr.chesslib.move.Move ) : java.util.LinkedList</text><ellipse cx="873.5" cy="428.2422" fill="#84BE84" rx="3" ry="3" style="stroke:#038048;stroke-width:1;"/><text fill="#000000" font-family="sans-serif" font-size="14" lengthAdjust="spacing" textLength="668.6025" x="882.5" y="431.5889">getBestNextMove ( paramChessBoard1 : ch.hslu.cas.msed.blobfish.board.ChessBoard ) : String</text><rect fill="#F24D5C" height="6" style="stroke:#C82930;stroke-width:1;" width="6" x="870.5" y="441.5391"/><text fill="#000000" font-family="sans-serif" font-size="14" lengthAdjust="spacing" text-decoration="underline" textLength="597.0918" x="882.5" y="447.8857">getSanOfMove ( paramMove1 : com.github.bhlangonijr.chesslib.move.Move ) : String</text></g><!--class InvalidMoveException--><g class="entity" data-entity="InvalidMoveException" data-source-line="39" data-uid="ent0016" id="entity_InvalidMoveException"><rect fill="#F1F1F1" height="64.2969" rx="2.5" ry="2.5" style="stroke:#181818;stroke-width:0.5;" width="185.2207" x="381.5" y="366.5"/><ellipse cx="396.5" cy="382.5" fill="#ADD1B2" rx="11" ry="11" style="stroke:#181818;stroke-width:1;"/><path d="M399.4688,388.1406 Q398.8906,388.4375 398.25,388.5781 Q397.6094,388.7344 396.9063,388.7344 Q394.4063,388.7344 393.0781,387.0938 Q391.7656,385.4375 391.7656,382.3125 Q391.7656,379.1875 393.0781,377.5313 Q394.4063,375.875 396.9063,375.875 Q397.6094,375.875 398.25,376.0313 Q398.9063,376.1875 399.4688,376.4844 L399.4688,379.2031 Q398.8438,378.625 398.25,378.3594 Q397.6563,378.0781 397.0313,378.0781 Q395.6875,378.0781 395,379.1563 Q394.3125,380.2188 394.3125,382.3125 Q394.3125,384.4063 395,385.4844 Q395.6875,386.5469 397.0313,386.5469 Q397.6563,386.5469 398.25,386.2813 Q398.8438,386 399.4688,385.4219 L399.4688,388.1406 Z " fill="#000000"/><text fill="#000000" font-family="sans-serif" font-size="14" lengthAdjust="spacing" textLength="153.2207" x="410.5" y="387.3467">InvalidMoveException</text><line style="stroke:#181818;stroke-width:0.5;" x1="382.5" x2="565.7207" y1="398.5" y2="398.5"/><rect fill="none" height="6" style="stroke:#C82930;stroke-width:1;" width="6" x="389.5" y="409.1484"/><text fill="#000000" font-family="sans-serif" font-size="14" lengthAdjust="spacing" textLength="145.2705" x="401.5" y="415.4951">originalMove : String</text><line style="stroke:#181818;stroke-width:0.5;" x1="382.5" x2="565.7207" y1="422.7969" y2="422.7969"/></g><!--link HumanPlayer to AbstractPlayer--><g class="link" data-entity-1="HumanPlayer" data-entity-2="AbstractPlayer" data-source-line="46" data-uid="lnk18" id="link_HumanPlayer_AbstractPlayer"><path codeLine="46" d="M591.94,629.09 C664.39,651.7 759.58,678.39 846,693 C1148.31,744.11 1479.4259,762.149 1728.8359,768.539" fill="none" id="HumanPlayer-to-AbstractPlayer" style="stroke:#181818;stroke-width:1;"/><polygon fill="none" points="1746.83,769,1728.9896,762.541,1728.6822,774.537,1746.83,769" style="stroke:#181818;stroke-width:1;"/></g><!--link BotPlayer to AbstractPlayer--><g class="link" data-entity-1="BotPlayer" data-entity-2="AbstractPlayer" data-source-line="47" data-uid="lnk19" id="link_BotPlayer_AbstractPlayer"><path codeLine="47" d="M3675.43,612.73 C3666.02,637.43 3647.39,675.31 3617,693 C3515.76,751.92 2850.3693,766.8052 2429.3193,770.4252" fill="none" id="BotPlayer-to-AbstractPlayer" style="stroke:#181818;stroke-width:1;"/><polygon fill="none" points="2411.32,770.58,2429.3709,776.425,2429.2678,764.4255,2411.32,770.58" style="stroke:#181818;stroke-width:1;"/></g><!--reverse link MiniMaxBotPlayer to MiniMaxAlgo--><g class="link" data-entity-1="MiniMaxBotPlayer" data-entity-2="MiniMaxAlgo" data-source-line="48" data-uid="lnk20" id="link_MiniMaxBotPlayer_MiniMaxAlgo"><path codeLine="48" d="M3068.3982,432.4003 C3016.2082,440.6803 2971.38,447.52 2919,455 C2814.33,469.95 2785.4,458.67 2683,485 C2637.22,496.77 2588.64,514.5 2546.07,531.91" fill="none" id="MiniMaxBotPlayer-backto-MiniMaxAlgo" style="stroke:#181818;stroke-width:1;"/><polygon fill="#181818" points="3080.25,430.52,3073.6973,427.5096,3068.3982,432.4003,3074.9509,435.4107,3080.25,430.52" style="stroke:#181818;stroke-width:1;"/><text fill="#000000" font-family="sans-serif" font-size="13" lengthAdjust="spacing" textLength="83.7129" x="2684" y="498.0669">miniMaxAlgo</text></g><!--link MiniMaxBotPlayer to BotPlayer--><g class="link" data-entity-1="MiniMaxBotPlayer" data-entity-2="BotPlayer" data-source-line="49" data-uid="lnk21" id="link_MiniMaxBotPlayer_BotPlayer"><path codeLine="49" d="M3377.92,430.55 C3448.76,453.21 3541.63,487.69 3617,532 C3632.23,540.95 3634.1095,541.3446 3646.0895,552.2146" fill="none" id="MiniMaxBotPlayer-to-BotPlayer" style="stroke:#181818;stroke-width:1;"/><polygon fill="none" points="3659.42,564.31,3650.1213,547.7711,3642.0577,556.6581,3659.42,564.31" style="stroke:#181818;stroke-width:1;"/></g><!--link MiniMaxSequential to MiniMaxAlgo--><g class="link" data-entity-1="MiniMaxSequential" data-entity-2="MiniMaxAlgo" data-source-line="50" data-uid="lnk22" id="link_MiniMaxSequential_MiniMaxAlgo"><path codeLine="50" d="M2042.05,455.02 C2111.99,479.27 2176.8345,501.7597 2246.7845,526.0297" fill="none" id="MiniMaxSequential-to-MiniMaxAlgo" style="stroke:#181818;stroke-width:1;"/><polygon fill="none" points="2263.79,531.93,2248.7513,520.3612,2244.8177,531.6982,2263.79,531.93" style="stroke:#181818;stroke-width:1;"/></g><!--SRC=[nLLDRzf043tNls8FFJHjl19jJpbKWZHIAeKKbVw1yUvWRxeVhdTDGPJ_th41sQu0nH3Q4tZrF6_Uc-TPI7meG0GcD7ZFHCOphqikm7FZKV94ksIcVCPp3Kii-72BdzIFR1MzMiqKQhbcyGPnwxGhsCsHIWbuv9C6J2KCXinH3RQ2RVqrUvTYUCH56BiviZSiXmBCRORUZnmKSd2SeeBm1isk23uDXR9fj8wYw9bYxqi3Te_I0a7YSP4f6EHVR5w6RpMu9VAImg3dE1CN-CWrqporXb5M6LZmCVsEOJ7KgUiu9a2BKaDGpdx6F6JKjRAX1S0vQD810TFbKGSg8BzheLj5t2yxUVaGZj3_xo3kiRWzjN-JhTDxdUBF4crGe3lDrgcet9q09UBSRgytxrEitc_IjJjfJVb3hqpi2Zme-mFbW_BX8xt_17FWPL2QD-UrLUSvyve66fnvT18x5hbyERHoAELtTqzChbZkd6he1uVQsWgeqb2P8fpXgGfPcV0aqs1JPzLJmKLbebO9DuJZTNIk3bJyAsgN-ZJQ7wCFj3O4MK5yKx1VPssowl-WjxB-eSQ5eBL5sylJKgVbesHLx6vtsjbrhb2fig1hkWuPqVMvSkBuzoVMzqgEUkxy2v8St5XluvYTVg_SCDCydTd9CzLtB8lEN84zEFV8Zw8_]--></g></svg>