<svg xmlns="http://www.w3.org/2000/svg" xmlns:xlink="http://www.w3.org/1999/xlink" contentStyleType="text/css" data-diagram-type="CLASS" height="604px" preserveAspectRatio="none" style="width:1648px;height:604px;background:#FFFFFF;" version="1.1" viewBox="0 0 1648 604" width="1648px" zoomAndPan="magnify"><defs/><g><!--cluster ch--><g class="cluster" data-entity="ch" data-source-line="2" data-uid="ent0003" id="cluster_ch"><path d="M8.5,6 L27.7656,6 A3.75,3.75 0 0 1 30.2656,8.5 L37.2656,28.2969 L1638.5,28.2969 A2.5,2.5 0 0 1 1641,30.7969 L1641,594.5 A2.5,2.5 0 0 1 1638.5,597 L8.5,597 A2.5,2.5 0 0 1 6,594.5 L6,8.5 A2.5,2.5 0 0 1 8.5,6" fill="none" style="stroke:#000000;stroke-width:1.5;"/><line style="stroke:#000000;stroke-width:1.5;" x1="6" x2="37.2656" y1="28.2969" y2="28.2969"/><text fill="#000000" font-family="sans-serif" font-size="14" font-weight="bold" lengthAdjust="spacing" textLength="18.2656" x="10" y="20.9951">ch</text></g><!--cluster hslu--><g class="cluster" data-entity="hslu" data-source-line="2" data-uid="ent0004" id="cluster_hslu"><path d="M32.5,49 L66.5654,49 A3.75,3.75 0 0 1 69.0654,51.5 L76.0654,71.2969 L1614.5,71.2969 A2.5,2.5 0 0 1 1617,73.7969 L1617,570.5 A2.5,2.5 0 0 1 1614.5,573 L32.5,573 A2.5,2.5 0 0 1 30,570.5 L30,51.5 A2.5,2.5 0 0 1 32.5,49" fill="none" style="stroke:#000000;stroke-width:1.5;"/><line style="stroke:#000000;stroke-width:1.5;" x1="30" x2="76.0654" y1="71.2969" y2="71.2969"/><text fill="#000000" font-family="sans-serif" font-size="14" font-weight="bold" lengthAdjust="spacing" textLength="33.0654" x="34" y="63.9951">hslu</text></g><!--cluster cas--><g class="cluster" data-entity="cas" data-source-line="2" data-uid="ent0005" id="cluster_cas"><path d="M56.5,92 L83.5791,92 A3.75,3.75 0 0 1 86.0791,94.5 L93.0791,114.2969 L1590.5,114.2969 A2.5,2.5 0 0 1 1593,116.7969 L1593,546.5 A2.5,2.5 0 0 1 1590.5,549 L56.5,549 A2.5,2.5 0 0 1 54,546.5 L54,94.5 A2.5,2.5 0 0 1 56.5,92" fill="none" style="stroke:#000000;stroke-width:1.5;"/><line style="stroke:#000000;stroke-width:1.5;" x1="54" x2="93.0791" y1="114.2969" y2="114.2969"/><text fill="#000000" font-family="sans-serif" font-size="14" font-weight="bold" lengthAdjust="spacing" textLength="26.0791" x="58" y="106.9951">cas</text></g><!--cluster msed--><g class="cluster" data-entity="msed" data-source-line="2" data-uid="ent0006" id="cluster_msed"><path d="M80.5,135 L123.9375,135 A3.75,3.75 0 0 1 126.4375,137.5 L133.4375,157.2969 L1566.5,157.2969 A2.5,2.5 0 0 1 1569,159.7969 L1569,522.5 A2.5,2.5 0 0 1 1566.5,525 L80.5,525 A2.5,2.5 0 0 1 78,522.5 L78,137.5 A2.5,2.5 0 0 1 80.5,135" fill="none" style="stroke:#000000;stroke-width:1.5;"/><line style="stroke:#000000;stroke-width:1.5;" x1="78" x2="133.4375" y1="157.2969" y2="157.2969"/><text fill="#000000" font-family="sans-serif" font-size="14" font-weight="bold" lengthAdjust="spacing" textLength="42.4375" x="82" y="149.9951">msed</text></g><!--cluster blobfish--><g class="cluster" data-entity="blobfish" data-source-line="2" data-uid="ent0007" id="cluster_blobfish"><path d="M104.5,178 L169.1494,178 A3.75,3.75 0 0 1 171.6494,180.5 L178.6494,200.2969 L1542.5,200.2969 A2.5,2.5 0 0 1 1545,202.7969 L1545,498.5 A2.5,2.5 0 0 1 1542.5,501 L104.5,501 A2.5,2.5 0 0 1 102,498.5 L102,180.5 A2.5,2.5 0 0 1 104.5,178" fill="none" style="stroke:#000000;stroke-width:1.5;"/><line style="stroke:#000000;stroke-width:1.5;" x1="102" x2="178.6494" y1="200.2969" y2="200.2969"/><text fill="#000000" font-family="sans-serif" font-size="14" font-weight="bold" lengthAdjust="spacing" textLength="63.6494" x="106" y="192.9951">blobfish</text></g><!--cluster player--><g class="cluster" data-entity="player" data-source-line="2" data-uid="ent0008" id="cluster_player"><path d="M128.5,221 L179.293,221 A3.75,3.75 0 0 1 181.793,223.5 L188.793,243.2969 L1518.5,243.2969 A2.5,2.5 0 0 1 1521,245.7969 L1521,474.5 A2.5,2.5 0 0 1 1518.5,477 L128.5,477 A2.5,2.5 0 0 1 126,474.5 L126,223.5 A2.5,2.5 0 0 1 128.5,221" fill="none" style="stroke:#000000;stroke-width:1.5;"/><line style="stroke:#000000;stroke-width:1.5;" x1="126" x2="188.793" y1="243.2969" y2="243.2969"/><text fill="#000000" font-family="sans-serif" font-size="14" font-weight="bold" lengthAdjust="spacing" textLength="49.793" x="130" y="235.9951">player</text></g><!--class AbstractPlayer--><g class="entity" data-entity="AbstractPlayer" data-source-line="2" data-uid="ent0002" id="entity_AbstractPlayer"><rect fill="#F1F1F1" height="80.5938" rx="2.5" ry="2.5" style="stroke:#181818;stroke-width:0.5;" width="663.6016" x="491" y="380"/><ellipse cx="767.3838" cy="396" fill="#A9DCDF" rx="11" ry="11" style="stroke:#181818;stroke-width:1;"/><path d="M767.4932,391.3438 L766.3369,396.4219 L768.665,396.4219 L767.4932,391.3438 Z M766.0088,389.1094 L768.9932,389.1094 L772.3525,401.5 L769.8994,401.5 L769.1338,398.4375 L765.8525,398.4375 L765.1025,401.5 L762.665,401.5 L766.0088,389.1094 Z " fill="#000000"/><text fill="#000000" font-family="sans-serif" font-size="14" font-style="italic" lengthAdjust="spacing" textLength="102.334" x="787.8838" y="400.8467">AbstractPlayer</text><line style="stroke:#181818;stroke-width:0.5;" x1="492" x2="1153.6016" y1="412" y2="412"/><rect fill="none" height="6" style="stroke:#C82930;stroke-width:1;" width="6" x="499" y="422.6484"/><text fill="#000000" font-family="sans-serif" font-size="14" lengthAdjust="spacing" textLength="397.0859" x="511" y="428.9951">playerColor : ch.hslu.cas.msed.blobfish.base.PlayerColor</text><line style="stroke:#181818;stroke-width:0.5;" x1="492" x2="1153.6016" y1="436.2969" y2="436.2969"/><ellipse cx="502" cy="449.9453" fill="#84BE84" rx="3" ry="3" style="stroke:#038048;stroke-width:1;"/><text fill="#000000" font-family="sans-serif" font-size="14" font-style="italic" lengthAdjust="spacing" textLength="637.6016" x="511" y="453.292">getNextMove ( paramChessBoard1 : ch.hslu.cas.msed.blobfish.board.ChessBoard ) : String</text></g><!--class BotPlayer--><g class="entity" data-entity="BotPlayer" data-source-line="8" data-uid="ent0009" id="entity_BotPlayer"><rect fill="#F1F1F1" height="64.2969" rx="2.5" ry="2.5" style="stroke:#181818;stroke-width:0.5;" width="663.6016" x="841" y="256"/><ellipse cx="1134.9385" cy="272" fill="#ADD1B2" rx="11" ry="11" style="stroke:#181818;stroke-width:1;"/><path d="M1137.9072,277.6406 Q1137.3291,277.9375 1136.6885,278.0781 Q1136.0479,278.2344 1135.3447,278.2344 Q1132.8447,278.2344 1131.5166,276.5938 Q1130.2041,274.9375 1130.2041,271.8125 Q1130.2041,268.6875 1131.5166,267.0313 Q1132.8447,265.375 1135.3447,265.375 Q1136.0479,265.375 1136.6885,265.5313 Q1137.3447,265.6875 1137.9072,265.9844 L1137.9072,268.7031 Q1137.2822,268.125 1136.6885,267.8594 Q1136.0947,267.5781 1135.4697,267.5781 Q1134.126,267.5781 1133.4385,268.6563 Q1132.751,269.7188 1132.751,271.8125 Q1132.751,273.9063 1133.4385,274.9844 Q1134.126,276.0469 1135.4697,276.0469 Q1136.0947,276.0469 1136.6885,275.7813 Q1137.2822,275.5 1137.9072,274.9219 L1137.9072,277.6406 Z " fill="#000000"/><text fill="#000000" font-family="sans-serif" font-size="14" lengthAdjust="spacing" textLength="67.2246" x="1155.4385" y="276.8467">BotPlayer</text><line style="stroke:#181818;stroke-width:0.5;" x1="842" x2="1503.6016" y1="288" y2="288"/><line style="stroke:#181818;stroke-width:0.5;" x1="842" x2="1503.6016" y1="296" y2="296"/><ellipse cx="852" cy="309.6484" fill="#84BE84" rx="3" ry="3" style="stroke:#038048;stroke-width:1;"/><text fill="#000000" font-family="sans-serif" font-size="14" lengthAdjust="spacing" textLength="637.6016" x="861" y="312.9951">getNextMove ( paramChessBoard1 : ch.hslu.cas.msed.blobfish.board.ChessBoard ) : String</text></g><!--class HumanPlayer--><g class="entity" data-entity="HumanPlayer" data-source-line="13" data-uid="ent0010" id="entity_HumanPlayer"><rect fill="#F1F1F1" height="64.2969" rx="2.5" ry="2.5" style="stroke:#181818;stroke-width:0.5;" width="663.6016" x="142" y="256"/><ellipse cx="422.5229" cy="272" fill="#ADD1B2" rx="11" ry="11" style="stroke:#181818;stroke-width:1;"/><path d="M425.4917,277.6406 Q424.9136,277.9375 424.2729,278.0781 Q423.6323,278.2344 422.9292,278.2344 Q420.4292,278.2344 419.1011,276.5938 Q417.7886,274.9375 417.7886,271.8125 Q417.7886,268.6875 419.1011,267.0313 Q420.4292,265.375 422.9292,265.375 Q423.6323,265.375 424.2729,265.5313 Q424.9292,265.6875 425.4917,265.9844 L425.4917,268.7031 Q424.8667,268.125 424.2729,267.8594 Q423.6792,267.5781 423.0542,267.5781 Q421.7104,267.5781 421.0229,268.6563 Q420.3354,269.7188 420.3354,271.8125 Q420.3354,273.9063 421.0229,274.9844 Q421.7104,276.0469 423.0542,276.0469 Q423.6792,276.0469 424.2729,275.7813 Q424.8667,275.5 425.4917,274.9219 L425.4917,277.6406 Z " fill="#000000"/><text fill="#000000" font-family="sans-serif" font-size="14" lengthAdjust="spacing" textLength="94.0557" x="443.0229" y="276.8467">HumanPlayer</text><line style="stroke:#181818;stroke-width:0.5;" x1="143" x2="804.6016" y1="288" y2="288"/><line style="stroke:#181818;stroke-width:0.5;" x1="143" x2="804.6016" y1="296" y2="296"/><ellipse cx="153" cy="309.6484" fill="#84BE84" rx="3" ry="3" style="stroke:#038048;stroke-width:1;"/><text fill="#000000" font-family="sans-serif" font-size="14" lengthAdjust="spacing" textLength="637.6016" x="162" y="312.9951">getNextMove ( paramChessBoard1 : ch.hslu.cas.msed.blobfish.board.ChessBoard ) : String</text></g><!--link BotPlayer to AbstractPlayer--><g class="link" data-entity-1="BotPlayer" data-entity-2="AbstractPlayer" data-source-line="20" data-uid="lnk11" id="link_BotPlayer_AbstractPlayer"><path codeLine="20" d="M1089.61,320.09 C1041.49,338.03 997.366,354.4921 945.866,373.6921" fill="none" id="BotPlayer-to-AbstractPlayer" style="stroke:#181818;stroke-width:1;"/><polygon fill="none" points="929,379.98,947.962,379.3141,943.77,368.0701,929,379.98" style="stroke:#181818;stroke-width:1;"/></g><!--link HumanPlayer to AbstractPlayer--><g class="link" data-entity-1="HumanPlayer" data-entity-2="AbstractPlayer" data-source-line="21" data-uid="lnk12" id="link_HumanPlayer_AbstractPlayer"><path codeLine="21" d="M557.15,320.09 C605.14,338.03 649.0896,354.477 700.4496,373.677" fill="none" id="HumanPlayer-to-AbstractPlayer" style="stroke:#181818;stroke-width:1;"/><polygon fill="none" points="717.31,379.98,702.5506,368.0569,698.3486,379.2972,717.31,379.98" style="stroke:#181818;stroke-width:1;"/></g><!--SRC=[pPB12e9048RFxLFCiGWNkdO8qakNGkW9HXrTOMrbPut2VFUi33k9TeYE0n_V_Fym6B6p63k8DJ93hAHYNSaOMHPCYOoqYTASbImrNidARSU7pn5gCQlJd7JIWFSY0gEDXVM0AK8c6VPmgoZ8ATCweCREty0o8tUWYzkRCy4SIhHO18gOVOCsMGslU22ofs7HuaTdyrCc6Y74oBA- -Upv3la7mNPLWQSVHsl3ZR-NvzqsCFMRnAJUtwqGTm00]--></g></svg>