<svg xmlns="http://www.w3.org/2000/svg" xmlns:xlink="http://www.w3.org/1999/xlink" contentStyleType="text/css" data-diagram-type="CLASS" height="891px" preserveAspectRatio="none" style="width:3042px;height:891px;background:#FFFFFF;" version="1.1" viewBox="0 0 3042 891" width="3042px" zoomAndPan="magnify"><defs/><g><!--cluster ch--><g class="cluster" data-entity="ch" data-source-line="2" data-uid="ent0003" id="cluster_ch"><path d="M8.5,6 L27.7656,6 A3.75,3.75 0 0 1 30.2656,8.5 L37.2656,28.2969 L3032.5,28.2969 A2.5,2.5 0 0 1 3035,30.7969 L3035,881.5 A2.5,2.5 0 0 1 3032.5,884 L8.5,884 A2.5,2.5 0 0 1 6,881.5 L6,8.5 A2.5,2.5 0 0 1 8.5,6" fill="none" style="stroke:#000000;stroke-width:1.5;"/><line style="stroke:#000000;stroke-width:1.5;" x1="6" x2="37.2656" y1="28.2969" y2="28.2969"/><text fill="#000000" font-family="sans-serif" font-size="14" font-weight="bold" lengthAdjust="spacing" textLength="18.2656" x="10" y="20.9951">ch</text></g><!--cluster hslu--><g class="cluster" data-entity="hslu" data-source-line="2" data-uid="ent0004" id="cluster_hslu"><path d="M32.5,49 L66.5654,49 A3.75,3.75 0 0 1 69.0654,51.5 L76.0654,71.2969 L3008.5,71.2969 A2.5,2.5 0 0 1 3011,73.7969 L3011,857.5 A2.5,2.5 0 0 1 3008.5,860 L32.5,860 A2.5,2.5 0 0 1 30,857.5 L30,51.5 A2.5,2.5 0 0 1 32.5,49" fill="none" style="stroke:#000000;stroke-width:1.5;"/><line style="stroke:#000000;stroke-width:1.5;" x1="30" x2="76.0654" y1="71.2969" y2="71.2969"/><text fill="#000000" font-family="sans-serif" font-size="14" font-weight="bold" lengthAdjust="spacing" textLength="33.0654" x="34" y="63.9951">hslu</text></g><!--cluster cas--><g class="cluster" data-entity="cas" data-source-line="2" data-uid="ent0005" id="cluster_cas"><path d="M56.5,92 L83.5791,92 A3.75,3.75 0 0 1 86.0791,94.5 L93.0791,114.2969 L2984.5,114.2969 A2.5,2.5 0 0 1 2987,116.7969 L2987,833.5 A2.5,2.5 0 0 1 2984.5,836 L56.5,836 A2.5,2.5 0 0 1 54,833.5 L54,94.5 A2.5,2.5 0 0 1 56.5,92" fill="none" style="stroke:#000000;stroke-width:1.5;"/><line style="stroke:#000000;stroke-width:1.5;" x1="54" x2="93.0791" y1="114.2969" y2="114.2969"/><text fill="#000000" font-family="sans-serif" font-size="14" font-weight="bold" lengthAdjust="spacing" textLength="26.0791" x="58" y="106.9951">cas</text></g><!--cluster msed--><g class="cluster" data-entity="msed" data-source-line="2" data-uid="ent0006" id="cluster_msed"><path d="M80.5,135 L123.9375,135 A3.75,3.75 0 0 1 126.4375,137.5 L133.4375,157.2969 L2960.5,157.2969 A2.5,2.5 0 0 1 2963,159.7969 L2963,809.5 A2.5,2.5 0 0 1 2960.5,812 L80.5,812 A2.5,2.5 0 0 1 78,809.5 L78,137.5 A2.5,2.5 0 0 1 80.5,135" fill="none" style="stroke:#000000;stroke-width:1.5;"/><line style="stroke:#000000;stroke-width:1.5;" x1="78" x2="133.4375" y1="157.2969" y2="157.2969"/><text fill="#000000" font-family="sans-serif" font-size="14" font-weight="bold" lengthAdjust="spacing" textLength="42.4375" x="82" y="149.9951">msed</text></g><!--cluster blobfish--><g class="cluster" data-entity="blobfish" data-source-line="2" data-uid="ent0007" id="cluster_blobfish"><path d="M104.5,178 L169.1494,178 A3.75,3.75 0 0 1 171.6494,180.5 L178.6494,200.2969 L2936.5,200.2969 A2.5,2.5 0 0 1 2939,202.7969 L2939,785.5 A2.5,2.5 0 0 1 2936.5,788 L104.5,788 A2.5,2.5 0 0 1 102,785.5 L102,180.5 A2.5,2.5 0 0 1 104.5,178" fill="none" style="stroke:#000000;stroke-width:1.5;"/><line style="stroke:#000000;stroke-width:1.5;" x1="102" x2="178.6494" y1="200.2969" y2="200.2969"/><text fill="#000000" font-family="sans-serif" font-size="14" font-weight="bold" lengthAdjust="spacing" textLength="63.6494" x="106" y="192.9951">blobfish</text></g><!--cluster player--><g class="cluster" data-entity="player" data-source-line="2" data-uid="ent0008" id="cluster_player"><path d="M128.5,221 L179.293,221 A3.75,3.75 0 0 1 181.793,223.5 L188.793,243.2969 L2912.5,243.2969 A2.5,2.5 0 0 1 2915,245.7969 L2915,761.5 A2.5,2.5 0 0 1 2912.5,764 L128.5,764 A2.5,2.5 0 0 1 126,761.5 L126,223.5 A2.5,2.5 0 0 1 128.5,221" fill="none" style="stroke:#000000;stroke-width:1.5;"/><line style="stroke:#000000;stroke-width:1.5;" x1="126" x2="188.793" y1="243.2969" y2="243.2969"/><text fill="#000000" font-family="sans-serif" font-size="14" font-weight="bold" lengthAdjust="spacing" textLength="49.793" x="130" y="235.9951">player</text></g><!--cluster bot--><g class="cluster" data-entity="bot" data-source-line="14" data-uid="ent0011" id="cluster_bot"><path d="M827.5,264 L854.832,264 A3.75,3.75 0 0 1 857.332,266.5 L864.332,286.2969 L2888.5,286.2969 A2.5,2.5 0 0 1 2891,288.7969 L2891,617.5 A2.5,2.5 0 0 1 2888.5,620 L827.5,620 A2.5,2.5 0 0 1 825,617.5 L825,266.5 A2.5,2.5 0 0 1 827.5,264" fill="none" style="stroke:#000000;stroke-width:1.5;"/><line style="stroke:#000000;stroke-width:1.5;" x1="825" x2="864.332" y1="286.2969" y2="286.2969"/><text fill="#000000" font-family="sans-serif" font-size="14" font-weight="bold" lengthAdjust="spacing" textLength="26.332" x="829" y="278.9951">bot</text></g><!--cluster exceptions--><g class="cluster" data-entity="exceptions" data-source-line="34" data-uid="ent0015" id="cluster_exceptions"><path d="M369.5,264 L456.25,264 A3.75,3.75 0 0 1 458.75,266.5 L465.75,286.2969 L580.5,286.2969 A2.5,2.5 0 0 1 583,288.7969 L583,376.5 A2.5,2.5 0 0 1 580.5,379 L369.5,379 A2.5,2.5 0 0 1 367,376.5 L367,266.5 A2.5,2.5 0 0 1 369.5,264" fill="none" style="stroke:#000000;stroke-width:1.5;"/><line style="stroke:#000000;stroke-width:1.5;" x1="367" x2="465.75" y1="286.2969" y2="286.2969"/><text fill="#000000" font-family="sans-serif" font-size="14" font-weight="bold" lengthAdjust="spacing" textLength="85.75" x="371" y="278.9951">exceptions</text></g><!--class AbstractPlayer--><g class="entity" data-entity="AbstractPlayer" data-source-line="2" data-uid="ent0002" id="entity_AbstractPlayer"><rect fill="#F1F1F1" height="80.5938" rx="2.5" ry="2.5" style="stroke:#181818;stroke-width:0.5;" width="663.6016" x="350" y="667"/><ellipse cx="626.3838" cy="683" fill="#A9DCDF" rx="11" ry="11" style="stroke:#181818;stroke-width:1;"/><path d="M626.4932,678.3438 L625.3369,683.4219 L627.665,683.4219 L626.4932,678.3438 Z M625.0088,676.1094 L627.9932,676.1094 L631.3525,688.5 L628.8994,688.5 L628.1338,685.4375 L624.8525,685.4375 L624.1025,688.5 L621.665,688.5 L625.0088,676.1094 Z " fill="#000000"/><text fill="#000000" font-family="sans-serif" font-size="14" font-style="italic" lengthAdjust="spacing" textLength="102.334" x="646.8838" y="687.8467">AbstractPlayer</text><line style="stroke:#181818;stroke-width:0.5;" x1="351" x2="1012.6016" y1="699" y2="699"/><rect fill="none" height="6" style="stroke:#C82930;stroke-width:1;" width="6" x="358" y="709.6484"/><text fill="#000000" font-family="sans-serif" font-size="14" lengthAdjust="spacing" textLength="397.0859" x="370" y="715.9951">playerColor : ch.hslu.cas.msed.blobfish.base.PlayerColor</text><line style="stroke:#181818;stroke-width:0.5;" x1="351" x2="1012.6016" y1="723.2969" y2="723.2969"/><ellipse cx="361" cy="736.9453" fill="#84BE84" rx="3" ry="3" style="stroke:#038048;stroke-width:1;"/><text fill="#000000" font-family="sans-serif" font-size="14" font-style="italic" lengthAdjust="spacing" textLength="637.6016" x="370" y="740.292">getNextMove ( paramChessBoard1 : ch.hslu.cas.msed.blobfish.board.ChessBoard ) : String</text></g><!--class HumanPlayer--><g class="entity" data-entity="HumanPlayer" data-source-line="8" data-uid="ent0009" id="entity_HumanPlayer"><rect fill="#F1F1F1" height="80.5938" rx="2.5" ry="2.5" style="stroke:#181818;stroke-width:0.5;" width="663.6016" x="142" y="482.5"/><ellipse cx="422.5229" cy="498.5" fill="#ADD1B2" rx="11" ry="11" style="stroke:#181818;stroke-width:1;"/><path d="M425.4917,504.1406 Q424.9136,504.4375 424.2729,504.5781 Q423.6323,504.7344 422.9292,504.7344 Q420.4292,504.7344 419.1011,503.0938 Q417.7886,501.4375 417.7886,498.3125 Q417.7886,495.1875 419.1011,493.5313 Q420.4292,491.875 422.9292,491.875 Q423.6323,491.875 424.2729,492.0313 Q424.9292,492.1875 425.4917,492.4844 L425.4917,495.2031 Q424.8667,494.625 424.2729,494.3594 Q423.6792,494.0781 423.0542,494.0781 Q421.7104,494.0781 421.0229,495.1563 Q420.3354,496.2188 420.3354,498.3125 Q420.3354,500.4063 421.0229,501.4844 Q421.7104,502.5469 423.0542,502.5469 Q423.6792,502.5469 424.2729,502.2813 Q424.8667,502 425.4917,501.4219 L425.4917,504.1406 Z " fill="#000000"/><text fill="#000000" font-family="sans-serif" font-size="14" lengthAdjust="spacing" textLength="94.0557" x="443.0229" y="503.3467">HumanPlayer</text><line style="stroke:#181818;stroke-width:0.5;" x1="143" x2="804.6016" y1="514.5" y2="514.5"/><rect fill="none" height="6" style="stroke:#C82930;stroke-width:1;" width="6" x="150" y="525.1484"/><text fill="#000000" font-family="sans-serif" font-size="14" lengthAdjust="spacing" textLength="375.3818" x="162" y="531.4951">reader : ch.hslu.cas.msed.blobfish.game.InputReader</text><line style="stroke:#181818;stroke-width:0.5;" x1="143" x2="804.6016" y1="538.7969" y2="538.7969"/><ellipse cx="153" cy="552.4453" fill="#84BE84" rx="3" ry="3" style="stroke:#038048;stroke-width:1;"/><text fill="#000000" font-family="sans-serif" font-size="14" lengthAdjust="spacing" textLength="637.6016" x="162" y="555.792">getNextMove ( paramChessBoard1 : ch.hslu.cas.msed.blobfish.board.ChessBoard ) : String</text></g><!--class BotPlayer--><g class="entity" data-entity="BotPlayer" data-source-line="14" data-uid="ent0010" id="entity_BotPlayer"><rect fill="#F1F1F1" height="48" rx="2.5" ry="2.5" style="stroke:#181818;stroke-width:0.5;" width="99.2246" x="841.5" y="499"/><ellipse cx="856.5" cy="515" fill="#A9DCDF" rx="11" ry="11" style="stroke:#181818;stroke-width:1;"/><path d="M856.6094,510.3438 L855.4531,515.4219 L857.7813,515.4219 L856.6094,510.3438 Z M855.125,508.1094 L858.1094,508.1094 L861.4688,520.5 L859.0156,520.5 L858.25,517.4375 L854.9688,517.4375 L854.2188,520.5 L851.7813,520.5 L855.125,508.1094 Z " fill="#000000"/><text fill="#000000" font-family="sans-serif" font-size="14" font-style="italic" lengthAdjust="spacing" textLength="67.2246" x="870.5" y="519.8467">BotPlayer</text><line style="stroke:#181818;stroke-width:0.5;" x1="842.5" x2="939.7246" y1="531" y2="531"/><line style="stroke:#181818;stroke-width:0.5;" x1="842.5" x2="939.7246" y1="539" y2="539"/></g><!--class MiniMax--><g class="entity" data-entity="MiniMax" data-source-line="18" data-uid="ent0012" id="entity_MiniMax"><rect fill="#F1F1F1" height="162.0781" rx="2.5" ry="2.5" style="stroke:#181818;stroke-width:0.5;" width="1899.4023" x="975.5" y="442"/><ellipse cx="1892.1138" cy="458" fill="#ADD1B2" rx="11" ry="11" style="stroke:#181818;stroke-width:1;"/><path d="M1895.0825,463.6406 Q1894.5044,463.9375 1893.8638,464.0781 Q1893.2231,464.2344 1892.52,464.2344 Q1890.02,464.2344 1888.6919,462.5938 Q1887.3794,460.9375 1887.3794,457.8125 Q1887.3794,454.6875 1888.6919,453.0313 Q1890.02,451.375 1892.52,451.375 Q1893.2231,451.375 1893.8638,451.5313 Q1894.52,451.6875 1895.0825,451.9844 L1895.0825,454.7031 Q1894.4575,454.125 1893.8638,453.8594 Q1893.27,453.5781 1892.645,453.5781 Q1891.3013,453.5781 1890.6138,454.6563 Q1889.9263,455.7188 1889.9263,457.8125 Q1889.9263,459.9063 1890.6138,460.9844 Q1891.3013,462.0469 1892.645,462.0469 Q1893.27,462.0469 1893.8638,461.7813 Q1894.4575,461.5 1895.0825,460.9219 L1895.0825,463.6406 Z " fill="#000000"/><text fill="#000000" font-family="sans-serif" font-size="14" lengthAdjust="spacing" textLength="57.6748" x="1912.6138" y="462.8467">MiniMax</text><line style="stroke:#181818;stroke-width:0.5;" x1="976.5" x2="2873.9023" y1="474" y2="474"/><rect fill="none" height="6" style="stroke:#C82930;stroke-width:1;" width="6" x="983.5" y="484.6484"/><text fill="#000000" font-family="sans-serif" font-size="14" lengthAdjust="spacing" textLength="150.5342" x="995.5" y="490.9951">calculationDepth : int</text><rect fill="none" height="6" style="stroke:#C82930;stroke-width:1;" width="6" x="983.5" y="500.9453"/><text fill="#000000" font-family="sans-serif" font-size="14" lengthAdjust="spacing" textLength="411.3389" x="995.5" y="507.292">evalStrategy : ch.hslu.cas.msed.blobfish.eval.EvalStrategy</text><rect fill="none" height="6" style="stroke:#C82930;stroke-width:1;" width="6" x="983.5" y="517.2422"/><text fill="#000000" font-family="sans-serif" font-size="14" lengthAdjust="spacing" textLength="425.5303" x="995.5" y="523.5889">ownPlayerColor : ch.hslu.cas.msed.blobfish.base.PlayerColor</text><line style="stroke:#181818;stroke-width:0.5;" x1="976.5" x2="2873.9023" y1="530.8906" y2="530.8906"/><rect fill="#F24D5C" height="6" style="stroke:#C82930;stroke-width:1;" width="6" x="983.5" y="541.5391"/><text fill="#000000" font-family="sans-serif" font-size="14" lengthAdjust="spacing" textLength="1873.4023" x="995.5" y="547.8857">calcBestPath ( paramChessBoard1 : ch.hslu.cas.msed.blobfish.board.ChessBoard , paramint2 : int , paramPlayerColor3 : ch.hslu.cas.msed.blobfish.base.PlayerColor , paramLinkedList4 : java.util.LinkedList ) : ch.hslu.cas.msed.blobfish.player.bot.MiniMax$ButtomNode</text><rect fill="#F24D5C" height="6" style="stroke:#C82930;stroke-width:1;" width="6" x="983.5" y="557.8359"/><text fill="#000000" font-family="sans-serif" font-size="14" lengthAdjust="spacing" textLength="1021.5283" x="995.5" y="564.1826">copyAndAddToHistory ( paramLinkedList1 : java.util.LinkedList , paramMove2 : com.github.bhlangonijr.chesslib.move.Move ) : java.util.LinkedList</text><ellipse cx="986.5" cy="577.1328" fill="#84BE84" rx="3" ry="3" style="stroke:#038048;stroke-width:1;"/><text fill="#000000" font-family="sans-serif" font-size="14" lengthAdjust="spacing" textLength="668.6025" x="995.5" y="580.4795">getBestNextMove ( paramChessBoard1 : ch.hslu.cas.msed.blobfish.board.ChessBoard ) : String</text><rect fill="#F24D5C" height="6" style="stroke:#C82930;stroke-width:1;" width="6" x="983.5" y="590.4297"/><text fill="#000000" font-family="sans-serif" font-size="14" lengthAdjust="spacing" text-decoration="underline" textLength="597.0918" x="995.5" y="596.7764">getSanOfMove ( paramMove1 : com.github.bhlangonijr.chesslib.move.Move ) : String</text></g><!--class MiniMaxBotPlayer--><g class="entity" data-entity="MiniMaxBotPlayer" data-source-line="29" data-uid="ent0013" id="entity_MiniMaxBotPlayer"><rect fill="#F1F1F1" height="64.2969" rx="2.5" ry="2.5" style="stroke:#181818;stroke-width:0.5;" width="663.6016" x="1217" y="299"/><ellipse cx="1482.1011" cy="315" fill="#ADD1B2" rx="11" ry="11" style="stroke:#181818;stroke-width:1;"/><path d="M1485.0698,320.6406 Q1484.4917,320.9375 1483.8511,321.0781 Q1483.2104,321.2344 1482.5073,321.2344 Q1480.0073,321.2344 1478.6792,319.5938 Q1477.3667,317.9375 1477.3667,314.8125 Q1477.3667,311.6875 1478.6792,310.0313 Q1480.0073,308.375 1482.5073,308.375 Q1483.2104,308.375 1483.8511,308.5313 Q1484.5073,308.6875 1485.0698,308.9844 L1485.0698,311.7031 Q1484.4448,311.125 1483.8511,310.8594 Q1483.2573,310.5781 1482.6323,310.5781 Q1481.2886,310.5781 1480.6011,311.6563 Q1479.9136,312.7188 1479.9136,314.8125 Q1479.9136,316.9063 1480.6011,317.9844 Q1481.2886,319.0469 1482.6323,319.0469 Q1483.2573,319.0469 1483.8511,318.7813 Q1484.4448,318.5 1485.0698,317.9219 L1485.0698,320.6406 Z " fill="#000000"/><text fill="#000000" font-family="sans-serif" font-size="14" lengthAdjust="spacing" textLength="124.8994" x="1502.6011" y="319.8467">MiniMaxBotPlayer</text><line style="stroke:#181818;stroke-width:0.5;" x1="1218" x2="1879.6016" y1="331" y2="331"/><line style="stroke:#181818;stroke-width:0.5;" x1="1218" x2="1879.6016" y1="339" y2="339"/><ellipse cx="1228" cy="352.6484" fill="#84BE84" rx="3" ry="3" style="stroke:#038048;stroke-width:1;"/><text fill="#000000" font-family="sans-serif" font-size="14" lengthAdjust="spacing" textLength="637.6016" x="1237" y="355.9951">getNextMove ( paramChessBoard1 : ch.hslu.cas.msed.blobfish.board.ChessBoard ) : String</text></g><!--class InvalidMoveException--><g class="entity" data-entity="InvalidMoveException" data-source-line="34" data-uid="ent0014" id="entity_InvalidMoveException"><rect fill="#F1F1F1" height="64.2969" rx="2.5" ry="2.5" style="stroke:#181818;stroke-width:0.5;" width="185.2207" x="382.5" y="299"/><ellipse cx="397.5" cy="315" fill="#ADD1B2" rx="11" ry="11" style="stroke:#181818;stroke-width:1;"/><path d="M400.4688,320.6406 Q399.8906,320.9375 399.25,321.0781 Q398.6094,321.2344 397.9063,321.2344 Q395.4063,321.2344 394.0781,319.5938 Q392.7656,317.9375 392.7656,314.8125 Q392.7656,311.6875 394.0781,310.0313 Q395.4063,308.375 397.9063,308.375 Q398.6094,308.375 399.25,308.5313 Q399.9063,308.6875 400.4688,308.9844 L400.4688,311.7031 Q399.8438,311.125 399.25,310.8594 Q398.6563,310.5781 398.0313,310.5781 Q396.6875,310.5781 396,311.6563 Q395.3125,312.7188 395.3125,314.8125 Q395.3125,316.9063 396,317.9844 Q396.6875,319.0469 398.0313,319.0469 Q398.6563,319.0469 399.25,318.7813 Q399.8438,318.5 400.4688,317.9219 L400.4688,320.6406 Z " fill="#000000"/><text fill="#000000" font-family="sans-serif" font-size="14" lengthAdjust="spacing" textLength="153.2207" x="411.5" y="319.8467">InvalidMoveException</text><line style="stroke:#181818;stroke-width:0.5;" x1="383.5" x2="566.7207" y1="331" y2="331"/><rect fill="none" height="6" style="stroke:#C82930;stroke-width:1;" width="6" x="390.5" y="341.6484"/><text fill="#000000" font-family="sans-serif" font-size="14" lengthAdjust="spacing" textLength="145.2705" x="402.5" y="347.9951">originalMove : String</text><line style="stroke:#181818;stroke-width:0.5;" x1="383.5" x2="566.7207" y1="355.2969" y2="355.2969"/></g><!--link HumanPlayer to AbstractPlayer--><g class="link" data-entity-1="HumanPlayer" data-entity-2="AbstractPlayer" data-source-line="41" data-uid="lnk16" id="link_HumanPlayer_AbstractPlayer"><path codeLine="41" d="M519.13,563.6 C554.02,594.21 588.5588,624.5196 623.4288,655.1096" fill="none" id="HumanPlayer-to-AbstractPlayer" style="stroke:#181818;stroke-width:1;"/><polygon fill="none" points="636.96,666.98,627.3856,650.5992,619.472,659.62,636.96,666.98" style="stroke:#181818;stroke-width:1;"/></g><!--link BotPlayer to AbstractPlayer--><g class="link" data-entity-1="BotPlayer" data-entity-2="AbstractPlayer" data-source-line="42" data-uid="lnk17" id="link_BotPlayer_AbstractPlayer"><path codeLine="42" d="M883.93,547.26 C875.94,570.22 860.99,605.13 838,628 C822.52,643.4 819.1985,647.6957 799.7285,658.3557" fill="none" id="BotPlayer-to-AbstractPlayer" style="stroke:#181818;stroke-width:1;"/><polygon fill="none" points="783.94,667,802.6099,663.6185,796.847,653.0929,783.94,667" style="stroke:#181818;stroke-width:1;"/></g><!--reverse link MiniMaxBotPlayer to MiniMax--><g class="link" data-entity-1="MiniMaxBotPlayer" data-entity-2="MiniMax" data-source-line="43" data-uid="lnk18" id="link_MiniMaxBotPlayer_MiniMax"><path codeLine="43" d="M1621.3793,368.574 C1663.7693,390.004 1711.42,414.07 1766.34,441.83" fill="none" id="MiniMaxBotPlayer-backto-MiniMax" style="stroke:#181818;stroke-width:1;"/><polygon fill="#181818" points="1610.67,363.16,1614.22,369.4368,1621.3793,368.574,1617.8293,362.2972,1610.67,363.16" style="stroke:#181818;stroke-width:1;"/><text fill="#000000" font-family="sans-serif" font-size="13" lengthAdjust="spacing" textLength="55.0024" x="1704" y="408.0669">miniMax</text></g><!--link MiniMaxBotPlayer to BotPlayer--><g class="link" data-entity-1="MiniMaxBotPlayer" data-entity-2="BotPlayer" data-source-line="44" data-uid="lnk19" id="link_MiniMaxBotPlayer_BotPlayer"><path codeLine="44" d="M1287.75,363.02 C1156.83,382.04 1014.38,409.06 958,442 C934.69,455.62 925.4747,465.2883 913.7747,483.6983" fill="none" id="MiniMaxBotPlayer-to-BotPlayer" style="stroke:#181818;stroke-width:1;"/><polygon fill="none" points="904.12,498.89,918.8386,486.9165,908.7108,480.4801,904.12,498.89" style="stroke:#181818;stroke-width:1;"/></g><!--SRC=[lLLTRzCm57qcly8FF316B7Nmr0UaTamQqZegnX-uiMyJ3yUEx9kkLUb_nqbR9O6jgfdAcsCTttFE_GfadXm8OaA3zqmKlF2wvW8yBprAdccRBPGlUALXZOvFzlXv-yasoPlDGg6MMvRk4DTMMyV6Ho9bu97FEt08KI8LDiHW6zZ7txBB7EaULpIpIsJlM0KEoki2lPzQS79qdAA1y0xDBWByWPmoUR9DakH4ixTr2UOPfmv1ud6JEPJ8lvggfkyjk6VodCOWifoP9JwrNJKZajCydIcZPh0Q94U05hK6KjPymOgA850PwW5m2Jf81i9yVTHi0-GtFNGlY7qoyzVtMojsYfxc48I-jXOVTk-3swkTwSDDZ_nZbDH3W3jbVgAyKvu-XVUFi0HUazAyksyR8QPcRwSraItlhSH1GcordXWvaVA7lGrnhLiVyjAHZLuIiPVRT7QJ0c5BdYigwendXGQJMwCU7HTDohJAU1bml1s3YnSY_Z4sJQdECJhz3UGfzAu8gGXy3s2-BVfapNaKxIn-y_GArH_F_xD4JjI8An7cEuov3uikJAcIZPYRm-rWALYdScL0jt87P84kPWsdwQ_FBFOtbKJkmJEI_5NKzsdAufRjc9MxqpyodkXka98a-Gq0]--></g></svg>