<svg xmlns="http://www.w3.org/2000/svg" xmlns:xlink="http://www.w3.org/1999/xlink" contentStyleType="text/css" data-diagram-type="ACTIVITY" height="2971.875px" preserveAspectRatio="none" style="width:2625px;height:2971px;background:#FFFFFF;" version="1.1" viewBox="0 0 2625 2971" width="2625px" zoomAndPan="magnify"><defs/><g><ellipse cx="1045.9457" cy="62.5" fill="#222222" rx="31.25" ry="31.25" style="stroke:#222222;stroke-width:3.125;"/><rect fill="#F1F1F1" height="106.1523" rx="39.0625" ry="39.0625" style="stroke:#181818;stroke-width:1.5625;" width="1000.7507" x="545.5704" y="156.25"/><text fill="#000000" font-family="sans-serif" font-size="37.5" lengthAdjust="spacing" textLength="938.2507" x="576.8204" y="222.3083">call Minimax(position, depth, playerColor, history)</text><polygon fill="#F1F1F1" points="780.085,324.9023,1311.8065,324.9023,1349.3065,362.4023,1311.8065,399.9023,780.085,399.9023,742.585,362.4023,780.085,324.9023" style="stroke:#181818;stroke-width:1.5625;"/><text fill="#000000" font-family="sans-serif" font-size="34.375" lengthAdjust="spacing" textLength="531.7215" x="780.085" y="374.3027">depth &lt;= 0 OR isGameOver()?</text><text fill="#000000" font-family="sans-serif" font-size="34.375" lengthAdjust="spacing" textLength="59.4009" x="683.1841" y="354.2953">yes</text><text fill="#000000" font-family="sans-serif" font-size="34.375" lengthAdjust="spacing" textLength="42.8177" x="1349.3065" y="354.2953">no</text><rect fill="#F1F1F1" height="106.1523" rx="39.0625" ry="39.0625" style="stroke:#181818;stroke-width:1.5625;" width="386.1389" x="210.8887" y="431.1523"/><text fill="#000000" font-family="sans-serif" font-size="37.5" lengthAdjust="spacing" textLength="323.6389" x="242.1387" y="497.2107">evaluate position</text><rect fill="#F1F1F1" height="106.1523" rx="39.0625" ry="39.0625" style="stroke:#181818;stroke-width:1.5625;" width="739.1663" x="34.375" y="646.6797"/><text fill="#000000" font-family="sans-serif" font-size="37.5" lengthAdjust="spacing" textLength="676.6663" x="65.625" y="712.738">return new MoveNode(eval, history)</text><ellipse cx="403.9581" cy="896.582" fill="none" rx="34.375" ry="34.375" style="stroke:#222222;stroke-width:3.125;"/><ellipse cx="403.9581" cy="896.582" fill="#222222" rx="18.75" ry="18.75" style="stroke:#222222;stroke-width:3.125;"/><polygon fill="#F1F1F1" points="1483.8318,431.1523,1892.0349,431.1523,1929.5349,468.6523,1892.0349,506.1523,1483.8318,506.1523,1446.3318,468.6523,1483.8318,431.1523" style="stroke:#181818;stroke-width:1.5625;"/><text fill="#000000" font-family="sans-serif" font-size="34.375" lengthAdjust="spacing" textLength="408.2031" x="1483.8318" y="480.5527">playerColor == WHITE?</text><text fill="#000000" font-family="sans-serif" font-size="34.375" lengthAdjust="spacing" textLength="59.4009" x="1386.9308" y="460.5453">yes</text><text fill="#000000" font-family="sans-serif" font-size="34.375" lengthAdjust="spacing" textLength="42.8177" x="1929.5349" y="460.5453">no</text><rect fill="#F1F1F1" height="106.1523" rx="39.0625" ry="39.0625" style="stroke:#181818;stroke-width:1.5625;" width="447.1863" x="1191.4886" y="537.4023"/><text fill="#000000" font-family="sans-serif" font-size="37.5" lengthAdjust="spacing" textLength="384.6863" x="1222.7386" y="603.4607">bestValue = -infinity</text><rect fill="#F1F1F1" height="106.1523" rx="39.0625" ry="39.0625" style="stroke:#181818;stroke-width:1.5625;" width="437.2437" x="1196.46" y="752.9297"/><text fill="#000000" font-family="sans-serif" font-size="37.5" lengthAdjust="spacing" textLength="374.7437" x="1227.71" y="818.988">isMaximizing = true</text><rect fill="#F1F1F1" height="106.1523" rx="39.0625" ry="39.0625" style="stroke:#181818;stroke-width:1.5625;" width="465.0757" x="1728.2471" y="537.4023"/><text fill="#000000" font-family="sans-serif" font-size="37.5" lengthAdjust="spacing" textLength="402.5757" x="1759.4971" y="603.4607">bestValue = +infinity</text><rect fill="#F1F1F1" height="106.1523" rx="39.0625" ry="39.0625" style="stroke:#181818;stroke-width:1.5625;" width="449.4934" x="1736.0382" y="752.9297"/><text fill="#000000" font-family="sans-serif" font-size="37.5" lengthAdjust="spacing" textLength="386.9934" x="1767.2882" y="818.988">isMaximizing = false</text><polygon fill="#F1F1F1" points="1687.9333,877.832,1725.4333,915.332,1687.9333,952.832,1650.4333,915.332,1687.9333,877.832" style="stroke:#181818;stroke-width:1.5625;"/><rect fill="#F1F1F1" height="106.1523" rx="39.0625" ry="39.0625" style="stroke:#181818;stroke-width:1.5625;" width="770.7153" x="1302.5757" y="1015.332"/><text fill="#000000" font-family="sans-serif" font-size="37.5" lengthAdjust="spacing" textLength="708.2153" x="1333.8257" y="1081.3904">nextPlayerColor = invert(playerColor)</text><rect fill="#F1F1F1" height="106.1523" rx="39.0625" ry="39.0625" style="stroke:#181818;stroke-width:1.5625;" width="953.6926" x="1211.087" y="1183.9844"/><text fill="#000000" font-family="sans-serif" font-size="37.5" lengthAdjust="spacing" textLength="891.1926" x="1242.337" y="1250.0427">bestNode = new MoveNode(bestValue, history)</text><rect fill="#F1F1F1" height="106.1523" rx="39.0625" ry="39.0625" style="stroke:#181818;stroke-width:1.5625;" width="439.0015" x="1468.4326" y="1490.1367"/><text fill="#000000" font-family="sans-serif" font-size="37.5" lengthAdjust="spacing" textLength="376.5015" x="1499.6826" y="1556.1951">get next legal move</text><rect fill="#F1F1F1" height="106.1523" rx="39.0625" ry="39.0625" style="stroke:#181818;stroke-width:1.5625;" width="623.9197" x="1375.9735" y="1658.7891"/><text fill="#000000" font-family="sans-serif" font-size="37.5" lengthAdjust="spacing" textLength="561.4197" x="1407.2235" y="1724.8474">newPosition = doMove(move)</text><rect fill="#F1F1F1" height="106.1523" rx="39.0625" ry="39.0625" style="stroke:#181818;stroke-width:1.5625;" width="617.6575" x="1379.1046" y="1827.4414"/><text fill="#000000" font-family="sans-serif" font-size="37.5" lengthAdjust="spacing" textLength="555.1575" x="1410.3546" y="1893.4998">newHistory = history + move</text><rect fill="#F1F1F1" height="106.1523" rx="39.0625" ry="39.0625" style="stroke:#181818;stroke-width:1.5625;" width="1539.6484" x="918.1091" y="2027.2949"/><text fill="#000000" font-family="sans-serif" font-size="37.5" lengthAdjust="spacing" textLength="1477.1484" x="949.3591" y="2093.3533">nextNode = call Minimax(newPosition, depth - 1, nextPlayerColor, newHistory)</text><polygon fill="#F1F1F1" points="1567.6544,2195.9473,1808.2123,2195.9473,1845.7123,2233.4473,1808.2123,2270.9473,1567.6544,2270.9473,1530.1544,2233.4473,1567.6544,2195.9473" style="stroke:#181818;stroke-width:1.5625;"/><text fill="#000000" font-family="sans-serif" font-size="34.375" lengthAdjust="spacing" textLength="240.5579" x="1567.6544" y="2245.3476">isMaximizing?</text><text fill="#000000" font-family="sans-serif" font-size="34.375" lengthAdjust="spacing" textLength="59.4009" x="1470.7535" y="2225.3403">yes</text><text fill="#000000" font-family="sans-serif" font-size="34.375" lengthAdjust="spacing" textLength="42.8177" x="1845.7123" y="2225.3403">no</text><rect fill="#F1F1F1" height="106.1523" rx="39.0625" ry="39.0625" style="stroke:#181818;stroke-width:1.5625;" width="792.1387" x="867.2913" y="2302.1973"/><text fill="#000000" font-family="sans-serif" font-size="37.5" lengthAdjust="spacing" textLength="729.6387" x="898.5413" y="2368.2556">bestNode = max(nextNode, bestNode)</text><rect fill="#F1F1F1" height="106.1523" rx="39.0625" ry="39.0625" style="stroke:#181818;stroke-width:1.5625;" width="781.1523" x="1721.9299" y="2302.1973"/><text fill="#000000" font-family="sans-serif" font-size="37.5" lengthAdjust="spacing" textLength="718.6523" x="1753.1799" y="2368.2556">bestNode = min(nextNode, bestNode)</text><polygon fill="#F1F1F1" points="1687.9333,2427.0996,1725.4333,2464.5996,1687.9333,2502.0996,1650.4333,2464.5996,1687.9333,2427.0996" style="stroke:#181818;stroke-width:1.5625;"/><polygon fill="#F1F1F1" points="1687.9333,1352.6367,1725.4333,1390.1367,1687.9333,1427.6367,1650.4333,1390.1367,1687.9333,1352.6367" style="stroke:#181818;stroke-width:1.5625;"/><polygon fill="#F1F1F1" points="1524.4591,2564.5996,1851.4076,2564.5996,1888.9076,2602.0996,1851.4076,2639.5996,1524.4591,2639.5996,1486.9591,2602.0996,1524.4591,2564.5996" style="stroke:#181818;stroke-width:1.5625;"/><text fill="#000000" font-family="sans-serif" font-size="34.375" lengthAdjust="spacing" textLength="326.9485" x="1524.4591" y="2613.9999">more legal moves?</text><rect fill="#F1F1F1" height="106.1523" rx="39.0625" ry="39.0625" style="stroke:#181818;stroke-width:1.5625;" width="369.5496" x="1503.1586" y="2702.0996"/><text fill="#000000" font-family="sans-serif" font-size="37.5" lengthAdjust="spacing" textLength="307.0496" x="1534.4086" y="2768.158">return bestNode</text><ellipse cx="1687.9333" cy="2905.127" fill="none" rx="34.375" ry="34.375" style="stroke:#222222;stroke-width:3.125;"/><ellipse cx="1687.9333" cy="2905.127" fill="#222222" rx="18.75" ry="18.75" style="stroke:#222222;stroke-width:3.125;"/><line style="stroke:#181818;stroke-width:3.125;" x1="1045.9457" x2="1045.9457" y1="93.75" y2="156.25"/><polygon fill="#181818" points="1033.4457,125,1045.9457,156.25,1058.4457,125,1045.9457,137.5" style="stroke:#181818;stroke-width:3.125;"/><line style="stroke:#181818;stroke-width:3.125;" x1="403.9581" x2="403.9581" y1="537.3047" y2="646.6797"/><polygon fill="#181818" points="391.4581,615.4297,403.9581,646.6797,416.4581,615.4297,403.9581,627.9297" style="stroke:#181818;stroke-width:3.125;"/><line style="stroke:#181818;stroke-width:3.125;" x1="403.9581" x2="403.9581" y1="752.832" y2="862.207"/><polygon fill="#181818" points="391.4581,830.957,403.9581,862.207,416.4581,830.957,403.9581,843.457" style="stroke:#181818;stroke-width:3.125;"/><line style="stroke:#181818;stroke-width:3.125;" x1="1415.0818" x2="1415.0818" y1="643.5547" y2="752.9297"/><polygon fill="#181818" points="1402.5818,721.6797,1415.0818,752.9297,1427.5818,721.6797,1415.0818,734.1797" style="stroke:#181818;stroke-width:3.125;"/><line style="stroke:#181818;stroke-width:3.125;" x1="1960.7849" x2="1960.7849" y1="643.5547" y2="752.9297"/><polygon fill="#181818" points="1948.2849,721.6797,1960.7849,752.9297,1973.2849,721.6797,1960.7849,734.1797" style="stroke:#181818;stroke-width:3.125;"/><line style="stroke:#181818;stroke-width:3.125;" x1="1446.3318" x2="1415.0818" y1="468.6523" y2="468.6523"/><line style="stroke:#181818;stroke-width:3.125;" x1="1415.0818" x2="1415.0818" y1="468.6523" y2="537.4023"/><polygon fill="#181818" points="1402.5818,506.1523,1415.0818,537.4023,1427.5818,506.1523,1415.0818,518.6523" style="stroke:#181818;stroke-width:3.125;"/><line style="stroke:#181818;stroke-width:3.125;" x1="1929.5349" x2="1960.7849" y1="468.6523" y2="468.6523"/><line style="stroke:#181818;stroke-width:3.125;" x1="1960.7849" x2="1960.7849" y1="468.6523" y2="537.4023"/><polygon fill="#181818" points="1948.2849,506.1523,1960.7849,537.4023,1973.2849,506.1523,1960.7849,518.6523" style="stroke:#181818;stroke-width:3.125;"/><line style="stroke:#181818;stroke-width:3.125;" x1="1415.0818" x2="1415.0818" y1="859.082" y2="915.332"/><line style="stroke:#181818;stroke-width:3.125;" x1="1415.0818" x2="1650.4333" y1="915.332" y2="915.332"/><polygon fill="#181818" points="1619.1833,902.832,1650.4333,915.332,1619.1833,927.832,1631.6833,915.332" style="stroke:#181818;stroke-width:3.125;"/><line style="stroke:#181818;stroke-width:3.125;" x1="1960.7849" x2="1960.7849" y1="859.082" y2="915.332"/><line style="stroke:#181818;stroke-width:3.125;" x1="1960.7849" x2="1725.4333" y1="915.332" y2="915.332"/><polygon fill="#181818" points="1756.6833,902.832,1725.4333,915.332,1756.6833,927.832,1744.1833,915.332" style="stroke:#181818;stroke-width:3.125;"/><line style="stroke:#181818;stroke-width:3.125;" x1="1687.9333" x2="1687.9333" y1="952.832" y2="1015.332"/><polygon fill="#181818" points="1675.4333,984.082,1687.9333,1015.332,1700.4333,984.082,1687.9333,996.582" style="stroke:#181818;stroke-width:3.125;"/><line style="stroke:#181818;stroke-width:3.125;" x1="1687.9333" x2="1687.9333" y1="1121.4844" y2="1183.9844"/><polygon fill="#181818" points="1675.4333,1152.7344,1687.9333,1183.9844,1700.4333,1152.7344,1687.9333,1165.2344" style="stroke:#181818;stroke-width:3.125;"/><line style="stroke:#181818;stroke-width:3.125;" x1="1687.9333" x2="1687.9333" y1="1596.2891" y2="1658.7891"/><polygon fill="#181818" points="1675.4333,1627.5391,1687.9333,1658.7891,1700.4333,1627.5391,1687.9333,1640.0391" style="stroke:#181818;stroke-width:3.125;"/><line style="stroke:#181818;stroke-width:3.125;" x1="1687.9333" x2="1687.9333" y1="1764.9414" y2="1827.4414"/><polygon fill="#181818" points="1675.4333,1796.1914,1687.9333,1827.4414,1700.4333,1796.1914,1687.9333,1808.6914" style="stroke:#181818;stroke-width:3.125;"/><line style="stroke:#181818;stroke-width:3.125;" x1="1687.9333" x2="1687.9333" y1="1933.5938" y2="2027.2949"/><polygon fill="#181818" points="1675.4333,1996.0449,1687.9333,2027.2949,1700.4333,1996.0449,1687.9333,2008.5449" style="stroke:#181818;stroke-width:3.125;"/><line style="stroke:#181818;stroke-width:3.125;" x1="1530.1544" x2="1263.3606" y1="2233.4473" y2="2233.4473"/><line style="stroke:#181818;stroke-width:3.125;" x1="1263.3606" x2="1263.3606" y1="2233.4473" y2="2302.1973"/><polygon fill="#181818" points="1250.8606,2270.9473,1263.3606,2302.1973,1275.8606,2270.9473,1263.3606,2283.4473" style="stroke:#181818;stroke-width:3.125;"/><line style="stroke:#181818;stroke-width:3.125;" x1="1845.7123" x2="2112.5061" y1="2233.4473" y2="2233.4473"/><line style="stroke:#181818;stroke-width:3.125;" x1="2112.5061" x2="2112.5061" y1="2233.4473" y2="2302.1973"/><polygon fill="#181818" points="2100.0061,2270.9473,2112.5061,2302.1973,2125.0061,2270.9473,2112.5061,2283.4473" style="stroke:#181818;stroke-width:3.125;"/><line style="stroke:#181818;stroke-width:3.125;" x1="1263.3606" x2="1263.3606" y1="2408.3496" y2="2464.5996"/><line style="stroke:#181818;stroke-width:3.125;" x1="1263.3606" x2="1650.4333" y1="2464.5996" y2="2464.5996"/><polygon fill="#181818" points="1619.1833,2452.0996,1650.4333,2464.5996,1619.1833,2477.0996,1631.6833,2464.5996" style="stroke:#181818;stroke-width:3.125;"/><line style="stroke:#181818;stroke-width:3.125;" x1="2112.5061" x2="2112.5061" y1="2408.3496" y2="2464.5996"/><line style="stroke:#181818;stroke-width:3.125;" x1="2112.5061" x2="1725.4333" y1="2464.5996" y2="2464.5996"/><polygon fill="#181818" points="1756.6833,2452.0996,1725.4333,2464.5996,1756.6833,2477.0996,1744.1833,2464.5996" style="stroke:#181818;stroke-width:3.125;"/><line style="stroke:#181818;stroke-width:3.125;" x1="1687.9333" x2="1687.9333" y1="2133.4473" y2="2195.9473"/><polygon fill="#181818" points="1675.4333,2164.6973,1687.9333,2195.9473,1700.4333,2164.6973,1687.9333,2177.1973" style="stroke:#181818;stroke-width:3.125;"/><line style="stroke:#181818;stroke-width:3.125;" x1="1687.9333" x2="1687.9333" y1="1427.6367" y2="1490.1367"/><polygon fill="#181818" points="1675.4333,1458.8867,1687.9333,1490.1367,1700.4333,1458.8867,1687.9333,1471.3867" style="stroke:#181818;stroke-width:3.125;"/><line style="stroke:#181818;stroke-width:3.125;" x1="1888.9076" x2="2546.8323" y1="2602.0996" y2="2602.0996"/><polygon fill="#181818" points="2534.3323,1996.0938,2546.8323,1964.8438,2559.3323,1996.0938,2546.8323,1983.5938" style="stroke:#181818;stroke-width:3.125;"/><line style="stroke:#181818;stroke-width:3.125;" x1="2546.8323" x2="2546.8323" y1="1390.1367" y2="2602.0996"/><line style="stroke:#181818;stroke-width:3.125;" x1="2546.8323" x2="1725.4333" y1="1390.1367" y2="1390.1367"/><polygon fill="#181818" points="1756.6833,1377.6367,1725.4333,1390.1367,1756.6833,1402.6367,1744.1833,1390.1367" style="stroke:#181818;stroke-width:3.125;"/><line style="stroke:#181818;stroke-width:3.125;" x1="1687.9333" x2="1687.9333" y1="2502.0996" y2="2564.5996"/><polygon fill="#181818" points="1675.4333,2533.3496,1687.9333,2564.5996,1700.4333,2533.3496,1687.9333,2545.8496" style="stroke:#181818;stroke-width:3.125;"/><line style="stroke:#181818;stroke-width:3.125;" x1="1687.9333" x2="1687.9333" y1="1290.1367" y2="1352.6367"/><polygon fill="#181818" points="1675.4333,1321.3867,1687.9333,1352.6367,1700.4333,1321.3867,1687.9333,1333.8867" style="stroke:#181818;stroke-width:3.125;"/><line style="stroke:#181818;stroke-width:3.125;" x1="1687.9333" x2="1687.9333" y1="2639.5996" y2="2702.0996"/><polygon fill="#181818" points="1675.4333,2670.8496,1687.9333,2702.0996,1700.4333,2670.8496,1687.9333,2683.3496" style="stroke:#181818;stroke-width:3.125;"/><line style="stroke:#181818;stroke-width:3.125;" x1="1687.9333" x2="1687.9333" y1="2808.252" y2="2870.752"/><polygon fill="#181818" points="1675.4333,2839.502,1687.9333,2870.752,1700.4333,2839.502,1687.9333,2852.002" style="stroke:#181818;stroke-width:3.125;"/><line style="stroke:#181818;stroke-width:3.125;" x1="742.585" x2="403.9581" y1="362.4023" y2="362.4023"/><line style="stroke:#181818;stroke-width:3.125;" x1="403.9581" x2="403.9581" y1="362.4023" y2="431.1523"/><polygon fill="#181818" points="391.4581,399.9023,403.9581,431.1523,416.4581,399.9023,403.9581,412.4023" style="stroke:#181818;stroke-width:3.125;"/><line style="stroke:#181818;stroke-width:3.125;" x1="1349.3065" x2="1687.9333" y1="362.4023" y2="362.4023"/><line style="stroke:#181818;stroke-width:3.125;" x1="1687.9333" x2="1687.9333" y1="362.4023" y2="431.1523"/><polygon fill="#181818" points="1675.4333,399.9023,1687.9333,431.1523,1700.4333,399.9023,1687.9333,412.4023" style="stroke:#181818;stroke-width:3.125;"/><line style="stroke:#181818;stroke-width:3.125;" x1="1045.9457" x2="1045.9457" y1="262.4023" y2="324.9023"/><polygon fill="#181818" points="1033.4457,293.6523,1045.9457,324.9023,1058.4457,293.6523,1045.9457,306.1523" style="stroke:#181818;stroke-width:3.125;"/><!--SRC=[XP9BJyCm48Jl_XLpJDHKAkBMKlM04ELGYX22io7RTeLZHxRxujTZDm-I245ELZpxpNfstIVhKbfP82yPrvE9S5vQByJqGog55Mikv2afZMFFHcV8gVIx3AMIPxAtHXcROSVE6tjEPqBm1ib5Wfiv9bW_WzszB6Xz89kaYnH-Hnh9cLmgW2aTfDfBJsWCPl6l9R-t6fgEM9a3FPgSagZiEW7XL0f1oX4IRI8EYFQTrZ2Vustvy78tD8xVz9sSVmt-X3d6h3VXhVuyQsxPhUI92_vYlGq2R_TKtVKT1vpHVvoD3EKrIEUy4PVZLDF9FtKR1-iGcU- -9kRR6iPGWggNKTj8RoInn599qZSjRSaZ6aBHLYeKeRvjDm2Vwba4V6uYF8cAj2jPLlYWg8qmgZ4_ebFJOs-JElnwcJ36LOP10F57uvAsr3ZURfw_ZRMVJsLPjPAXkMZVCfpbe9ZrdyMN-Vt4Y-EELS0Lnb8dMhT8wxdLUzs0AawznXVMDm00]--></g></svg>