<svg xmlns="http://www.w3.org/2000/svg" xmlns:xlink="http://www.w3.org/1999/xlink" contentStyleType="text/css" data-diagram-type="ACTIVITY" height="1122px" preserveAspectRatio="none" style="width:574px;height:1122px;background:#FFFFFF;" version="1.1" viewBox="0 0 574 1122" width="574px" zoomAndPan="magnify"><defs/><g><ellipse cx="273.6055" cy="20" fill="#222222" rx="10" ry="10" style="stroke:#222222;stroke-width:1;"/><rect fill="#F1F1F1" height="33.9688" rx="12.5" ry="12.5" style="stroke:#181818;stroke-width:0.5;" width="320.2402" x="113.4854" y="50"/><text fill="#000000" font-family="sans-serif" font-size="12" lengthAdjust="spacing" textLength="300.2402" x="123.4854" y="71.1387">call Minimax(position, depth, playerColor, history)</text><rect fill="#F1F1F1" height="33.9688" rx="12.5" ry="12.5" style="stroke:#181818;stroke-width:0.5;" width="123.5645" x="211.8232" y="152.3711"/><text fill="#000000" font-family="sans-serif" font-size="12" lengthAdjust="spacing" textLength="103.5645" x="221.8232" y="173.5098">evaluate position</text><rect fill="#F1F1F1" height="33.9688" rx="12.5" ry="12.5" style="stroke:#181818;stroke-width:0.5;" width="236.5332" x="155.3389" y="206.3398"/><text fill="#000000" font-family="sans-serif" font-size="12" lengthAdjust="spacing" textLength="216.5332" x="165.3389" y="227.4785">return new MoveNode(eval, history)</text><ellipse cx="273.6055" cy="271.3086" fill="none" rx="11" ry="11" style="stroke:#222222;stroke-width:1;"/><ellipse cx="273.6055" cy="271.3086" fill="#222222" rx="6" ry="6" style="stroke:#222222;stroke-width:1;"/><polygon fill="#F1F1F1" points="188.53,103.9688,358.6809,103.9688,370.6809,115.9688,358.6809,127.9688,188.53,127.9688,176.53,115.9688,188.53,103.9688" style="stroke:#181818;stroke-width:0.5;"/><text fill="#000000" font-family="sans-serif" font-size="11" lengthAdjust="spacing" textLength="19.0083" x="277.6055" y="138.1792">yes</text><text fill="#000000" font-family="sans-serif" font-size="11" lengthAdjust="spacing" textLength="170.1509" x="188.53" y="119.7769">depth &lt;= 0 OR isGameOver()?</text><polygon fill="#F1F1F1" points="208.293,324.3086,338.918,324.3086,350.918,336.3086,338.918,348.3086,208.293,348.3086,196.293,336.3086,208.293,324.3086" style="stroke:#181818;stroke-width:0.5;"/><text fill="#000000" font-family="sans-serif" font-size="11" lengthAdjust="spacing" textLength="130.625" x="208.293" y="340.1167">playerColor == WHITE?</text><text fill="#000000" font-family="sans-serif" font-size="11" lengthAdjust="spacing" textLength="19.0083" x="177.2847" y="333.7144">yes</text><text fill="#000000" font-family="sans-serif" font-size="11" lengthAdjust="spacing" textLength="13.7017" x="350.918" y="333.7144">no</text><rect fill="#F1F1F1" height="33.9688" rx="12.5" ry="12.5" style="stroke:#181818;stroke-width:0.5;" width="143.0996" x="114.7432" y="358.3086"/><text fill="#000000" font-family="sans-serif" font-size="12" lengthAdjust="spacing" textLength="123.0996" x="124.7432" y="379.4473">bestValue = -infinity</text><rect fill="#F1F1F1" height="33.9688" rx="12.5" ry="12.5" style="stroke:#181818;stroke-width:0.5;" width="139.918" x="116.334" y="412.2773"/><text fill="#000000" font-family="sans-serif" font-size="12" lengthAdjust="spacing" textLength="119.918" x="126.334" y="433.416">isMaximizing = true</text><rect fill="#F1F1F1" height="33.9688" rx="12.5" ry="12.5" style="stroke:#181818;stroke-width:0.5;" width="148.8242" x="286.5059" y="358.3086"/><text fill="#000000" font-family="sans-serif" font-size="12" lengthAdjust="spacing" textLength="128.8242" x="296.5059" y="379.4473">bestValue = +infinity</text><rect fill="#F1F1F1" height="33.9688" rx="12.5" ry="12.5" style="stroke:#181818;stroke-width:0.5;" width="143.8379" x="288.999" y="412.2773"/><text fill="#000000" font-family="sans-serif" font-size="12" lengthAdjust="spacing" textLength="123.8379" x="298.999" y="433.416">isMaximizing = false</text><polygon fill="#F1F1F1" points="273.6055,452.2461,285.6055,464.2461,273.6055,476.2461,261.6055,464.2461,273.6055,452.2461" style="stroke:#181818;stroke-width:0.5;"/><rect fill="#F1F1F1" height="33.9688" rx="12.5" ry="12.5" style="stroke:#181818;stroke-width:0.5;" width="246.6289" x="150.291" y="496.2461"/><text fill="#000000" font-family="sans-serif" font-size="12" lengthAdjust="spacing" textLength="226.6289" x="160.291" y="517.3848">nextPlayerColor = invert(playerColor)</text><rect fill="#F1F1F1" height="33.9688" rx="12.5" ry="12.5" style="stroke:#181818;stroke-width:0.5;" width="305.1816" x="121.0146" y="550.2148"/><text fill="#000000" font-family="sans-serif" font-size="12" lengthAdjust="spacing" textLength="285.1816" x="131.0146" y="571.3535">bestNode = new MoveNode(bestValue, history)</text><rect fill="#F1F1F1" height="33.9688" rx="12.5" ry="12.5" style="stroke:#181818;stroke-width:0.5;" width="140.4805" x="203.3652" y="648.1836"/><text fill="#000000" font-family="sans-serif" font-size="12" lengthAdjust="spacing" textLength="120.4805" x="213.3652" y="669.3223">get next legal move</text><rect fill="#F1F1F1" height="33.9688" rx="12.5" ry="12.5" style="stroke:#181818;stroke-width:0.5;" width="199.6543" x="173.7783" y="702.1523"/><text fill="#000000" font-family="sans-serif" font-size="12" lengthAdjust="spacing" textLength="179.6543" x="183.7783" y="723.291">newPosition = doMove(move)</text><rect fill="#F1F1F1" height="33.9688" rx="12.5" ry="12.5" style="stroke:#181818;stroke-width:0.5;" width="197.6504" x="174.7803" y="756.1211"/><text fill="#000000" font-family="sans-serif" font-size="12" lengthAdjust="spacing" textLength="177.6504" x="184.7803" y="777.2598">newHistory = history + move</text><rect fill="#F1F1F1" height="33.9688" rx="12.5" ry="12.5" style="stroke:#181818;stroke-width:0.5;" width="492.6875" x="27.2617" y="820.0742"/><text fill="#000000" font-family="sans-serif" font-size="12" lengthAdjust="spacing" textLength="472.6875" x="37.2617" y="841.2129">nextNode = call Minimax(newPosition, depth - 1, nextPlayerColor, newHistory)</text><polygon fill="#F1F1F1" points="235.1162,874.043,312.0947,874.043,324.0947,886.043,312.0947,898.043,235.1162,898.043,223.1162,886.043,235.1162,874.043" style="stroke:#181818;stroke-width:0.5;"/><text fill="#000000" font-family="sans-serif" font-size="11" lengthAdjust="spacing" textLength="76.9785" x="235.1162" y="889.8511">isMaximizing?</text><text fill="#000000" font-family="sans-serif" font-size="11" lengthAdjust="spacing" textLength="19.0083" x="204.1079" y="883.4487">yes</text><text fill="#000000" font-family="sans-serif" font-size="11" lengthAdjust="spacing" textLength="13.7017" x="324.0947" y="883.4487">no</text><rect fill="#F1F1F1" height="33.9688" rx="12.5" ry="12.5" style="stroke:#181818;stroke-width:0.5;" width="253.4844" x="11" y="908.043"/><text fill="#000000" font-family="sans-serif" font-size="12" lengthAdjust="spacing" textLength="233.4844" x="21" y="929.1816">bestNode = max(nextNode, bestNode)</text><rect fill="#F1F1F1" height="33.9688" rx="12.5" ry="12.5" style="stroke:#181818;stroke-width:0.5;" width="249.9688" x="284.4844" y="908.043"/><text fill="#000000" font-family="sans-serif" font-size="12" lengthAdjust="spacing" textLength="229.9688" x="294.4844" y="929.1816">bestNode = min(nextNode, bestNode)</text><polygon fill="#F1F1F1" points="273.6055,948.0117,285.6055,960.0117,273.6055,972.0117,261.6055,960.0117,273.6055,948.0117" style="stroke:#181818;stroke-width:0.5;"/><polygon fill="#F1F1F1" points="273.6055,604.1836,285.6055,616.1836,273.6055,628.1836,261.6055,616.1836,273.6055,604.1836" style="stroke:#181818;stroke-width:0.5;"/><polygon fill="#F1F1F1" points="221.2937,992.0117,325.9172,992.0117,337.9172,1004.0117,325.9172,1016.0117,221.2937,1016.0117,209.2937,1004.0117,221.2937,992.0117" style="stroke:#181818;stroke-width:0.5;"/><text fill="#000000" font-family="sans-serif" font-size="11" lengthAdjust="spacing" textLength="104.6235" x="221.2937" y="1007.8198">more legal moves?</text><rect fill="#F1F1F1" height="33.9688" rx="12.5" ry="12.5" style="stroke:#181818;stroke-width:0.5;" width="118.2559" x="214.4775" y="1036.0117"/><text fill="#000000" font-family="sans-serif" font-size="12" lengthAdjust="spacing" textLength="98.2559" x="224.4775" y="1057.1504">return bestNode</text><ellipse cx="273.6055" cy="1100.9805" fill="none" rx="11" ry="11" style="stroke:#222222;stroke-width:1;"/><ellipse cx="273.6055" cy="1100.9805" fill="#222222" rx="6" ry="6" style="stroke:#222222;stroke-width:1;"/><line style="stroke:#181818;stroke-width:1;" x1="273.6055" x2="273.6055" y1="30" y2="50"/><polygon fill="#181818" points="269.6055,40,273.6055,50,277.6055,40,273.6055,44" style="stroke:#181818;stroke-width:1;"/><line style="stroke:#181818;stroke-width:1;" x1="273.6055" x2="273.6055" y1="186.3398" y2="206.3398"/><polygon fill="#181818" points="269.6055,196.3398,273.6055,206.3398,277.6055,196.3398,273.6055,200.3398" style="stroke:#181818;stroke-width:1;"/><line style="stroke:#181818;stroke-width:1;" x1="273.6055" x2="273.6055" y1="240.3086" y2="260.3086"/><polygon fill="#181818" points="269.6055,250.3086,273.6055,260.3086,277.6055,250.3086,273.6055,254.3086" style="stroke:#181818;stroke-width:1;"/><line style="stroke:#181818;stroke-width:1;" x1="273.6055" x2="273.6055" y1="127.9688" y2="152.3711"/><polygon fill="#181818" points="269.6055,142.3711,273.6055,152.3711,277.6055,142.3711,273.6055,146.3711" style="stroke:#181818;stroke-width:1;"/><line style="stroke:#181818;stroke-width:1;" x1="370.6809" x2="401.8721" y1="115.9688" y2="115.9688"/><polygon fill="#181818" points="397.8721,204.3398,401.8721,214.3398,405.8721,204.3398,401.8721,208.3398" style="stroke:#181818;stroke-width:1;"/><line style="stroke:#181818;stroke-width:1;" x1="401.8721" x2="401.8721" y1="115.9688" y2="304.3086"/><line style="stroke:#181818;stroke-width:1;" x1="401.8721" x2="273.6055" y1="304.3086" y2="304.3086"/><line style="stroke:#181818;stroke-width:1;" x1="273.6055" x2="273.6055" y1="304.3086" y2="324.3086"/><polygon fill="#181818" points="269.6055,314.3086,273.6055,324.3086,277.6055,314.3086,273.6055,318.3086" style="stroke:#181818;stroke-width:1;"/><line style="stroke:#181818;stroke-width:1;" x1="273.6055" x2="273.6055" y1="83.9688" y2="103.9688"/><polygon fill="#181818" points="269.6055,93.9688,273.6055,103.9688,277.6055,93.9688,273.6055,97.9688" style="stroke:#181818;stroke-width:1;"/><line style="stroke:#181818;stroke-width:1;" x1="186.293" x2="186.293" y1="392.2773" y2="412.2773"/><polygon fill="#181818" points="182.293,402.2773,186.293,412.2773,190.293,402.2773,186.293,406.2773" style="stroke:#181818;stroke-width:1;"/><line style="stroke:#181818;stroke-width:1;" x1="360.918" x2="360.918" y1="392.2773" y2="412.2773"/><polygon fill="#181818" points="356.918,402.2773,360.918,412.2773,364.918,402.2773,360.918,406.2773" style="stroke:#181818;stroke-width:1;"/><line style="stroke:#181818;stroke-width:1;" x1="196.293" x2="186.293" y1="336.3086" y2="336.3086"/><line style="stroke:#181818;stroke-width:1;" x1="186.293" x2="186.293" y1="336.3086" y2="358.3086"/><polygon fill="#181818" points="182.293,348.3086,186.293,358.3086,190.293,348.3086,186.293,352.3086" style="stroke:#181818;stroke-width:1;"/><line style="stroke:#181818;stroke-width:1;" x1="350.918" x2="360.918" y1="336.3086" y2="336.3086"/><line style="stroke:#181818;stroke-width:1;" x1="360.918" x2="360.918" y1="336.3086" y2="358.3086"/><polygon fill="#181818" points="356.918,348.3086,360.918,358.3086,364.918,348.3086,360.918,352.3086" style="stroke:#181818;stroke-width:1;"/><line style="stroke:#181818;stroke-width:1;" x1="186.293" x2="186.293" y1="446.2461" y2="464.2461"/><line style="stroke:#181818;stroke-width:1;" x1="186.293" x2="261.6055" y1="464.2461" y2="464.2461"/><polygon fill="#181818" points="251.6055,460.2461,261.6055,464.2461,251.6055,468.2461,255.6055,464.2461" style="stroke:#181818;stroke-width:1;"/><line style="stroke:#181818;stroke-width:1;" x1="360.918" x2="360.918" y1="446.2461" y2="464.2461"/><line style="stroke:#181818;stroke-width:1;" x1="360.918" x2="285.6055" y1="464.2461" y2="464.2461"/><polygon fill="#181818" points="295.6055,460.2461,285.6055,464.2461,295.6055,468.2461,291.6055,464.2461" style="stroke:#181818;stroke-width:1;"/><line style="stroke:#181818;stroke-width:1;" x1="273.6055" x2="273.6055" y1="476.2461" y2="496.2461"/><polygon fill="#181818" points="269.6055,486.2461,273.6055,496.2461,277.6055,486.2461,273.6055,490.2461" style="stroke:#181818;stroke-width:1;"/><line style="stroke:#181818;stroke-width:1;" x1="273.6055" x2="273.6055" y1="530.2148" y2="550.2148"/><polygon fill="#181818" points="269.6055,540.2148,273.6055,550.2148,277.6055,540.2148,273.6055,544.2148" style="stroke:#181818;stroke-width:1;"/><line style="stroke:#181818;stroke-width:1;" x1="273.6055" x2="273.6055" y1="682.1523" y2="702.1523"/><polygon fill="#181818" points="269.6055,692.1523,273.6055,702.1523,277.6055,692.1523,273.6055,696.1523" style="stroke:#181818;stroke-width:1;"/><line style="stroke:#181818;stroke-width:1;" x1="273.6055" x2="273.6055" y1="736.1211" y2="756.1211"/><polygon fill="#181818" points="269.6055,746.1211,273.6055,756.1211,277.6055,746.1211,273.6055,750.1211" style="stroke:#181818;stroke-width:1;"/><line style="stroke:#181818;stroke-width:1;" x1="273.6055" x2="273.6055" y1="790.0898" y2="820.0742"/><polygon fill="#181818" points="269.6055,810.0742,273.6055,820.0742,277.6055,810.0742,273.6055,814.0742" style="stroke:#181818;stroke-width:1;"/><line style="stroke:#181818;stroke-width:1;" x1="223.1162" x2="137.7422" y1="886.043" y2="886.043"/><line style="stroke:#181818;stroke-width:1;" x1="137.7422" x2="137.7422" y1="886.043" y2="908.043"/><polygon fill="#181818" points="133.7422,898.043,137.7422,908.043,141.7422,898.043,137.7422,902.043" style="stroke:#181818;stroke-width:1;"/><line style="stroke:#181818;stroke-width:1;" x1="324.0947" x2="409.4688" y1="886.043" y2="886.043"/><line style="stroke:#181818;stroke-width:1;" x1="409.4688" x2="409.4688" y1="886.043" y2="908.043"/><polygon fill="#181818" points="405.4688,898.043,409.4688,908.043,413.4688,898.043,409.4688,902.043" style="stroke:#181818;stroke-width:1;"/><line style="stroke:#181818;stroke-width:1;" x1="137.7422" x2="137.7422" y1="942.0117" y2="960.0117"/><line style="stroke:#181818;stroke-width:1;" x1="137.7422" x2="261.6055" y1="960.0117" y2="960.0117"/><polygon fill="#181818" points="251.6055,956.0117,261.6055,960.0117,251.6055,964.0117,255.6055,960.0117" style="stroke:#181818;stroke-width:1;"/><line style="stroke:#181818;stroke-width:1;" x1="409.4688" x2="409.4688" y1="942.0117" y2="960.0117"/><line style="stroke:#181818;stroke-width:1;" x1="409.4688" x2="285.6055" y1="960.0117" y2="960.0117"/><polygon fill="#181818" points="295.6055,956.0117,285.6055,960.0117,295.6055,964.0117,291.6055,960.0117" style="stroke:#181818;stroke-width:1;"/><line style="stroke:#181818;stroke-width:1;" x1="273.6055" x2="273.6055" y1="854.043" y2="874.043"/><polygon fill="#181818" points="269.6055,864.043,273.6055,874.043,277.6055,864.043,273.6055,868.043" style="stroke:#181818;stroke-width:1;"/><line style="stroke:#181818;stroke-width:1;" x1="273.6055" x2="273.6055" y1="628.1836" y2="648.1836"/><polygon fill="#181818" points="269.6055,638.1836,273.6055,648.1836,277.6055,638.1836,273.6055,642.1836" style="stroke:#181818;stroke-width:1;"/><line style="stroke:#181818;stroke-width:1;" x1="337.9172" x2="548.4531" y1="1004.0117" y2="1004.0117"/><polygon fill="#181818" points="544.4531,810.0898,548.4531,800.0898,552.4531,810.0898,548.4531,806.0898" style="stroke:#181818;stroke-width:1;"/><line style="stroke:#181818;stroke-width:1;" x1="548.4531" x2="548.4531" y1="616.1836" y2="1004.0117"/><line style="stroke:#181818;stroke-width:1;" x1="548.4531" x2="285.6055" y1="616.1836" y2="616.1836"/><polygon fill="#181818" points="295.6055,612.1836,285.6055,616.1836,295.6055,620.1836,291.6055,616.1836" style="stroke:#181818;stroke-width:1;"/><line style="stroke:#181818;stroke-width:1;" x1="273.6055" x2="273.6055" y1="972.0117" y2="992.0117"/><polygon fill="#181818" points="269.6055,982.0117,273.6055,992.0117,277.6055,982.0117,273.6055,986.0117" style="stroke:#181818;stroke-width:1;"/><line style="stroke:#181818;stroke-width:1;" x1="273.6055" x2="273.6055" y1="584.1836" y2="604.1836"/><polygon fill="#181818" points="269.6055,594.1836,273.6055,604.1836,277.6055,594.1836,273.6055,598.1836" style="stroke:#181818;stroke-width:1;"/><line style="stroke:#181818;stroke-width:1;" x1="273.6055" x2="273.6055" y1="1016.0117" y2="1036.0117"/><polygon fill="#181818" points="269.6055,1026.0117,273.6055,1036.0117,277.6055,1026.0117,273.6055,1030.0117" style="stroke:#181818;stroke-width:1;"/><line style="stroke:#181818;stroke-width:1;" x1="273.6055" x2="273.6055" y1="1069.9805" y2="1089.9805"/><polygon fill="#181818" points="269.6055,1079.9805,273.6055,1089.9805,277.6055,1079.9805,273.6055,1083.9805" style="stroke:#181818;stroke-width:1;"/><!--SRC=[VLBBJiCm4BpxA-QOg462QqFK0qAKGsc549mDsJIM73kotJRXwx7pG6uhk5dUdSVEhdNSECQMNrnAR8GI3U-ILblXX5OPIcfTdQ6Ll2VpeAKs6MfXdJPzcZCcAYH32-uBt6Bx2c6VU4FR8vaaNQLmDIaaFTcK0KiwSddWZZ0BvE7Na3iO1KKdRFIHNdH9IUYCbG3_QXcfKbIZR6G9HO6FzVFRuvNW9rdtxZK91Mw4glnyhXz4XTtmJZJYMwYzBpfpe9oHj8H4wIliuZzinJqidxqj5NLk5vk3K3uE5piEsGq2OLZVSJRxh_1Pr8PQuYx8xyaXY43Idaiq7ZVOyYIxALTFMUf0c8HgEfVN8vslJiHOJF2nePlzd5r3n3iT16vmb-5YqF0nAwG3OrXJdDNbUgQG9yrHQhIGOIuCtkEzN824-XCqx6EC3QTQI4_HQ4DHR7QL-ZrCzpU3SpQSsWy0]--></g></svg>