<?plantuml 1.2026.1?><svg xmlns="http://www.w3.org/2000/svg" xmlns:xlink="http://www.w3.org/1999/xlink" contentStyleType="text/css" data-diagram-type="CHART" height="436px" preserveAspectRatio="none" style="width:835px;height:436px;background:#FFFFFF;" version="1.1" viewBox="0 0 835 436" width="835px" zoomAndPan="magnify"><title>FEN: r3k2r/pNp1ppbp/2nq2pn/7P/2B3b1/3P1N2/PPP2PP1/R1BQK2R b KQkq - 0 11</title><defs/><g><g class="title" data-source-line="2"><text fill="#000000" font-family="sans-serif" font-size="14" font-weight="bold" lengthAdjust="spacing" textLength="541.4951" x="165.2725" y="34.5332">FEN: r3k2r/pNp1ppbp/2nq2pn/7P/2B3b1/3P1N2/PPP2PP1/R1BQK2R b KQkq - 0 11</text></g><line style="stroke:#181818;stroke-width:0.5;" x1="70" x2="70" y1="98.6094" y2="398.6094"/><line style="stroke:#181818;stroke-width:0.5;" x1="70" x2="65" y1="398.6094" y2="398.6094"/><text fill="#000000" font-family="sans-serif" font-size="14" lengthAdjust="spacing" textLength="7.7861" x="52.2139" y="404.3379">0</text><line style="stroke:#181818;stroke-width:0.5;" x1="70" x2="65" y1="338.6094" y2="338.6094"/><text fill="#000000" font-family="sans-serif" font-size="14" lengthAdjust="spacing" textLength="15.5723" x="44.4277" y="344.3379">10</text><line style="stroke:#181818;stroke-width:0.5;" x1="70" x2="65" y1="278.6094" y2="278.6094"/><text fill="#000000" font-family="sans-serif" font-size="14" lengthAdjust="spacing" textLength="15.5723" x="44.4277" y="284.3379">20</text><line style="stroke:#181818;stroke-width:0.5;" x1="70" x2="65" y1="218.6094" y2="218.6094"/><text fill="#000000" font-family="sans-serif" font-size="14" lengthAdjust="spacing" textLength="15.5723" x="44.4277" y="224.3379">30</text><line style="stroke:#181818;stroke-width:0.5;" x1="70" x2="65" y1="158.6094" y2="158.6094"/><text fill="#000000" font-family="sans-serif" font-size="14" lengthAdjust="spacing" textLength="15.5723" x="44.4277" y="164.3379">40</text><line style="stroke:#181818;stroke-width:0.5;" x1="70" x2="65" y1="98.6094" y2="98.6094"/><text fill="#000000" font-family="sans-serif" font-size="14" lengthAdjust="spacing" textLength="15.5723" x="44.4277" y="104.3379">50</text><text fill="#000000" font-family="sans-serif" font-size="14" lengthAdjust="spacing" textLength="118.2686" transform="rotate(-90 28.8047 307.7437)" x="28.8047" y="307.7437">Calculation time [s]</text><line style="stroke:#181818;stroke-width:0.5;" x1="70" x2="470" y1="398.6094" y2="398.6094"/><line style="stroke:#181818;stroke-width:0.5;" x1="120" x2="120" y1="398.6094" y2="403.6094"/><text fill="#000000" font-family="sans-serif" font-size="14" lengthAdjust="spacing" textLength="49.0342" x="95.4829" y="423.1426">Depth 1</text><line style="stroke:#181818;stroke-width:0.5;" x1="220" x2="220" y1="398.6094" y2="403.6094"/><text fill="#000000" font-family="sans-serif" font-size="14" lengthAdjust="spacing" textLength="49.0342" x="195.4829" y="423.1426">Depth 2</text><line style="stroke:#181818;stroke-width:0.5;" x1="320" x2="320" y1="398.6094" y2="403.6094"/><text fill="#000000" font-family="sans-serif" font-size="14" lengthAdjust="spacing" textLength="49.0342" x="295.4829" y="423.1426">Depth 3</text><line style="stroke:#181818;stroke-width:0.5;" x1="420" x2="420" y1="398.6094" y2="403.6094"/><text fill="#000000" font-family="sans-serif" font-size="14" lengthAdjust="spacing" textLength="49.0342" x="395.4829" y="423.1426">Depth 4</text><line style="stroke:#181818;stroke-width:0.5;" x1="70" x2="470" y1="398.6094" y2="398.6094"/><line style="stroke:#181818;stroke-width:0.5;" x1="70" x2="470" y1="338.6094" y2="338.6094"/><line style="stroke:#181818;stroke-width:0.5;" x1="70" x2="470" y1="278.6094" y2="278.6094"/><line style="stroke:#181818;stroke-width:0.5;" x1="70" x2="470" y1="218.6094" y2="218.6094"/><line style="stroke:#181818;stroke-width:0.5;" x1="70" x2="470" y1="158.6094" y2="158.6094"/><line style="stroke:#181818;stroke-width:0.5;" x1="70" x2="470" y1="98.6094" y2="98.6094"/><rect fill="#1F77B4" height="0.0001" style="stroke:#181818;stroke-width:0.5;" width="20" x="80" y="398.6093"/><rect fill="#FF7F0E" height="0.006" style="stroke:#181818;stroke-width:0.5;" width="20" x="100" y="398.6034"/><rect fill="#2CA02C" height="0.006" style="stroke:#181818;stroke-width:0.5;" width="20" x="120" y="398.6034"/><rect fill="#D62728" height="0.0001" style="stroke:#181818;stroke-width:0.5;" width="20" x="140" y="398.6093"/><rect fill="#1F77B4" height="0.102" style="stroke:#181818;stroke-width:0.5;" width="20" x="180" y="398.5074"/><rect fill="#FF7F0E" height="0.126" style="stroke:#181818;stroke-width:0.5;" width="20" x="200" y="398.4834"/><rect fill="#2CA02C" height="0.018" style="stroke:#181818;stroke-width:0.5;" width="20" x="220" y="398.5914"/><rect fill="#D62728" height="0.024" style="stroke:#181818;stroke-width:0.5;" width="20" x="240" y="398.5854"/><rect fill="#1F77B4" height="4.932" style="stroke:#181818;stroke-width:0.5;" width="20" x="280" y="393.6774"/><rect fill="#FF7F0E" height="5.988" style="stroke:#181818;stroke-width:0.5;" width="20" x="300" y="392.6214"/><rect fill="#2CA02C" height="0.69" style="stroke:#181818;stroke-width:0.5;" width="20" x="320" y="397.9194"/><rect fill="#D62728" height="0.87" style="stroke:#181818;stroke-width:0.5;" width="20" x="340" y="397.7394"/><rect fill="#1F77B4" height="192.228" style="stroke:#181818;stroke-width:0.5;" width="20" x="380" y="206.3814"/><rect fill="#FF7F0E" height="234.09" style="stroke:#181818;stroke-width:0.5;" width="20" x="400" y="164.5194"/><rect fill="#2CA02C" height="26.646" style="stroke:#181818;stroke-width:0.5;" width="20" x="420" y="371.9634"/><rect fill="#D62728" height="33.528" style="stroke:#181818;stroke-width:0.5;" width="20" x="440" y="365.0814"/><rect fill="#1F77B4" height="12" style="stroke:#1F77B4;stroke-width:1;" width="12" x="480" y="98.6094"/><text fill="#000000" font-family="sans-serif" font-size="14" lengthAdjust="spacing" textLength="295.6885" x="497" y="113.1426">MiniMaxSequential (Simple material evaluation)</text><rect fill="#FF7F0E" height="12" style="stroke:#FF7F0E;stroke-width:1;" width="12" x="480" y="131.2188"/><text fill="#000000" font-family="sans-serif" font-size="14" lengthAdjust="spacing" textLength="326.04" x="497" y="145.752">MiniMaxSequential (Mate aware material evaluation)</text><rect fill="#2CA02C" height="12" style="stroke:#2CA02C;stroke-width:1;" width="12" x="480" y="163.8281"/><text fill="#000000" font-family="sans-serif" font-size="14" lengthAdjust="spacing" textLength="276.2129" x="497" y="178.3613">MiniMaxParallel (Simple material evaluation)</text><rect fill="#D62728" height="12" style="stroke:#D62728;stroke-width:1;" width="12" x="480" y="196.4375"/><text fill="#000000" font-family="sans-serif" font-size="14" lengthAdjust="spacing" textLength="306.5645" x="497" y="210.9707">MiniMaxParallel (Mate aware material evaluation)</text><?plantuml-src XTBFJy8m50VmU_-A5xneiXzzRniR7eo2x48WKuw4GuVDrbXcAKNvy-s0Q3mGBz_NDisdBsqVzqvOjsbzCEQKqvALqyKzsEITR6mM1esfJKpTZamNvrLCuwJ6EAbmGN5LLLHL6B_Y-6L6hr33xELz1o5mG6IoUuEpoDfG7DKULl0iZMi1WtEbIqqkDOKr-pnl7Ko4tXoqSEgZyyfMmcg_7dWu31yWun67lH4RrJM0_QInwesnMbWOp5MdvkAubBk3x9mI6cwNQckqXArmqlOBybFemuc-6wm08puDiy0pcFiiY8A48fuKi8ORBFDyd5wLvvu4yINiLTsp77kS-XoDYY0P-PEo7Y_BlEJJFtWbhD1Q_jlq3yiJduXPa4PfYhrAaoTEaolg_mt_NWTFUphDWYpAYjDjF0yffu8nBPl-TQrgMiSU_V3oWJ0YJiC8lm40?></g></svg>