<?plantuml 1.2026.2beta1?><svg xmlns="http://www.w3.org/2000/svg" xmlns:xlink="http://www.w3.org/1999/xlink" contentStyleType="text/css" data-diagram-type="CHART" height="716px" preserveAspectRatio="none" style="width:775px;height:716px;background:#FFFFFF;" version="1.1" viewBox="0 0 775 716" width="775px" zoomAndPan="magnify"><title>Calculation time with depth 4</title><defs/><g><g class="title" data-source-line="2"><text fill="#000000" font-family="sans-serif" font-size="14" font-weight="bold" lengthAdjust="spacing" textLength="233.5088" x="285.0244" y="32.9951">Calculation time with depth 4</text></g><line style="stroke:#181818;stroke-width:0.5;" x1="70" x2="70" y1="97.2969" y2="397.2969"/><line style="stroke:#181818;stroke-width:0.5;" x1="70" x2="65" y1="397.2969" y2="397.2969"/><text fill="#000000" font-family="sans-serif" font-size="14" lengthAdjust="spacing" textLength="8.9072" x="51.0928" y="402.1436">0</text><line style="stroke:#181818;stroke-width:0.5;" x1="70" x2="65" y1="382.2969" y2="382.2969"/><text fill="#000000" font-family="sans-serif" font-size="14" lengthAdjust="spacing" textLength="8.9072" x="51.0928" y="387.1436">2</text><line style="stroke:#181818;stroke-width:0.5;" x1="70" x2="65" y1="367.2969" y2="367.2969"/><text fill="#000000" font-family="sans-serif" font-size="14" lengthAdjust="spacing" textLength="8.9072" x="51.0928" y="372.1436">4</text><line style="stroke:#181818;stroke-width:0.5;" x1="70" x2="65" y1="352.2969" y2="352.2969"/><text fill="#000000" font-family="sans-serif" font-size="14" lengthAdjust="spacing" textLength="8.9072" x="51.0928" y="357.1436">6</text><line style="stroke:#181818;stroke-width:0.5;" x1="70" x2="65" y1="337.2969" y2="337.2969"/><text fill="#000000" font-family="sans-serif" font-size="14" lengthAdjust="spacing" textLength="8.9072" x="51.0928" y="342.1436">8</text><line style="stroke:#181818;stroke-width:0.5;" x1="70" x2="65" y1="322.2969" y2="322.2969"/><text fill="#000000" font-family="sans-serif" font-size="14" lengthAdjust="spacing" textLength="17.8145" x="42.1855" y="327.1436">10</text><line style="stroke:#181818;stroke-width:0.5;" x1="70" x2="65" y1="307.2969" y2="307.2969"/><text fill="#000000" font-family="sans-serif" font-size="14" lengthAdjust="spacing" textLength="17.8145" x="42.1855" y="312.1436">12</text><line style="stroke:#181818;stroke-width:0.5;" x1="70" x2="65" y1="292.2969" y2="292.2969"/><text fill="#000000" font-family="sans-serif" font-size="14" lengthAdjust="spacing" textLength="17.8145" x="42.1855" y="297.1436">14</text><line style="stroke:#181818;stroke-width:0.5;" x1="70" x2="65" y1="277.2969" y2="277.2969"/><text fill="#000000" font-family="sans-serif" font-size="14" lengthAdjust="spacing" textLength="17.8145" x="42.1855" y="282.1436">16</text><line style="stroke:#181818;stroke-width:0.5;" x1="70" x2="65" y1="262.2969" y2="262.2969"/><text fill="#000000" font-family="sans-serif" font-size="14" lengthAdjust="spacing" textLength="17.8145" x="42.1855" y="267.1436">18</text><line style="stroke:#181818;stroke-width:0.5;" x1="70" x2="65" y1="247.2969" y2="247.2969"/><text fill="#000000" font-family="sans-serif" font-size="14" lengthAdjust="spacing" textLength="17.8145" x="42.1855" y="252.1436">20</text><line style="stroke:#181818;stroke-width:0.5;" x1="70" x2="65" y1="232.2969" y2="232.2969"/><text fill="#000000" font-family="sans-serif" font-size="14" lengthAdjust="spacing" textLength="17.8145" x="42.1855" y="237.1436">22</text><line style="stroke:#181818;stroke-width:0.5;" x1="70" x2="65" y1="217.2969" y2="217.2969"/><text fill="#000000" font-family="sans-serif" font-size="14" lengthAdjust="spacing" textLength="17.8145" x="42.1855" y="222.1436">24</text><line style="stroke:#181818;stroke-width:0.5;" x1="70" x2="65" y1="202.2969" y2="202.2969"/><text fill="#000000" font-family="sans-serif" font-size="14" lengthAdjust="spacing" textLength="17.8145" x="42.1855" y="207.1436">26</text><line style="stroke:#181818;stroke-width:0.5;" x1="70" x2="65" y1="187.2969" y2="187.2969"/><text fill="#000000" font-family="sans-serif" font-size="14" lengthAdjust="spacing" textLength="17.8145" x="42.1855" y="192.1436">28</text><line style="stroke:#181818;stroke-width:0.5;" x1="70" x2="65" y1="172.2969" y2="172.2969"/><text fill="#000000" font-family="sans-serif" font-size="14" lengthAdjust="spacing" textLength="17.8145" x="42.1855" y="177.1436">30</text><line style="stroke:#181818;stroke-width:0.5;" x1="70" x2="65" y1="157.2969" y2="157.2969"/><text fill="#000000" font-family="sans-serif" font-size="14" lengthAdjust="spacing" textLength="17.8145" x="42.1855" y="162.1436">32</text><line style="stroke:#181818;stroke-width:0.5;" x1="70" x2="65" y1="142.2969" y2="142.2969"/><text fill="#000000" font-family="sans-serif" font-size="14" lengthAdjust="spacing" textLength="17.8145" x="42.1855" y="147.1436">34</text><line style="stroke:#181818;stroke-width:0.5;" x1="70" x2="65" y1="127.2969" y2="127.2969"/><text fill="#000000" font-family="sans-serif" font-size="14" lengthAdjust="spacing" textLength="17.8145" x="42.1855" y="132.1436">36</text><line style="stroke:#181818;stroke-width:0.5;" x1="70" x2="65" y1="112.2969" y2="112.2969"/><text fill="#000000" font-family="sans-serif" font-size="14" lengthAdjust="spacing" textLength="17.8145" x="42.1855" y="117.1436">38</text><line style="stroke:#181818;stroke-width:0.5;" x1="70" x2="65" y1="97.2969" y2="97.2969"/><text fill="#000000" font-family="sans-serif" font-size="14" lengthAdjust="spacing" textLength="17.8145" x="42.1855" y="102.1436">40</text><text fill="#000000" font-family="sans-serif" font-size="14" lengthAdjust="spacing" textLength="136.8486" transform="rotate(-90 28.1484 315.7212)" x="28.1484" y="315.7212">Calculation time [s]</text><line style="stroke:#181818;stroke-width:0.5;" x1="70" x2="470" y1="397.2969" y2="397.2969"/><line style="stroke:#181818;stroke-width:0.5;" x1="120" x2="120" y1="397.2969" y2="402.2969"/><text fill="#000000" font-family="sans-serif" font-size="14" lengthAdjust="spacing" textLength="18.4844" x="110.7578" y="420.292">V1</text><line style="stroke:#181818;stroke-width:0.5;" x1="220" x2="220" y1="397.2969" y2="402.2969"/><text fill="#000000" font-family="sans-serif" font-size="14" lengthAdjust="spacing" textLength="18.4844" x="210.7578" y="420.292">V2</text><line style="stroke:#181818;stroke-width:0.5;" x1="320" x2="320" y1="397.2969" y2="402.2969"/><text fill="#000000" font-family="sans-serif" font-size="14" lengthAdjust="spacing" textLength="18.4844" x="310.7578" y="420.292">V3</text><line style="stroke:#181818;stroke-width:0.5;" x1="420" x2="420" y1="397.2969" y2="402.2969"/><text fill="#000000" font-family="sans-serif" font-size="14" lengthAdjust="spacing" textLength="18.4844" x="410.7578" y="420.292">V4</text><line style="stroke:#181818;stroke-width:0.5;" x1="70" x2="470" y1="397.2969" y2="397.2969"/><line style="stroke:#181818;stroke-width:0.5;" x1="70" x2="470" y1="382.2969" y2="382.2969"/><line style="stroke:#181818;stroke-width:0.5;" x1="70" x2="470" y1="367.2969" y2="367.2969"/><line style="stroke:#181818;stroke-width:0.5;" x1="70" x2="470" y1="352.2969" y2="352.2969"/><line style="stroke:#181818;stroke-width:0.5;" x1="70" x2="470" y1="337.2969" y2="337.2969"/><line style="stroke:#181818;stroke-width:0.5;" x1="70" x2="470" y1="322.2969" y2="322.2969"/><line style="stroke:#181818;stroke-width:0.5;" x1="70" x2="470" y1="307.2969" y2="307.2969"/><line style="stroke:#181818;stroke-width:0.5;" x1="70" x2="470" y1="292.2969" y2="292.2969"/><line style="stroke:#181818;stroke-width:0.5;" x1="70" x2="470" y1="277.2969" y2="277.2969"/><line style="stroke:#181818;stroke-width:0.5;" x1="70" x2="470" y1="262.2969" y2="262.2969"/><line style="stroke:#181818;stroke-width:0.5;" x1="70" x2="470" y1="247.2969" y2="247.2969"/><line style="stroke:#181818;stroke-width:0.5;" x1="70" x2="470" y1="232.2969" y2="232.2969"/><line style="stroke:#181818;stroke-width:0.5;" x1="70" x2="470" y1="217.2969" y2="217.2969"/><line style="stroke:#181818;stroke-width:0.5;" x1="70" x2="470" y1="202.2969" y2="202.2969"/><line style="stroke:#181818;stroke-width:0.5;" x1="70" x2="470" y1="187.2969" y2="187.2969"/><line style="stroke:#181818;stroke-width:0.5;" x1="70" x2="470" y1="172.2969" y2="172.2969"/><line style="stroke:#181818;stroke-width:0.5;" x1="70" x2="470" y1="157.2969" y2="157.2969"/><line style="stroke:#181818;stroke-width:0.5;" x1="70" x2="470" y1="142.2969" y2="142.2969"/><line style="stroke:#181818;stroke-width:0.5;" x1="70" x2="470" y1="127.2969" y2="127.2969"/><line style="stroke:#181818;stroke-width:0.5;" x1="70" x2="470" y1="112.2969" y2="112.2969"/><line style="stroke:#181818;stroke-width:0.5;" x1="70" x2="470" y1="97.2969" y2="97.2969"/><rect fill="#1F77B4" height="180.7275" style="stroke:#181818;stroke-width:0.5;" width="10" x="80" y="216.5694"/><rect fill="#FF7F0E" height="44.325" style="stroke:#181818;stroke-width:0.5;" width="10" x="90" y="352.9719"/><rect fill="#2CA02C" height="103.38" style="stroke:#181818;stroke-width:0.5;" width="10" x="100" y="293.9169"/><rect fill="#D62728" height="42.5325" style="stroke:#181818;stroke-width:0.5;" width="10" x="110" y="354.7644"/><rect fill="#9467BD" height="75.81" style="stroke:#181818;stroke-width:0.5;" width="10" x="120" y="321.4869"/><rect fill="#8C564B" height="83.4675" style="stroke:#181818;stroke-width:0.5;" width="10" x="130" y="313.8294"/><rect fill="#E377C2" height="240.285" style="stroke:#181818;stroke-width:0.5;" width="10" x="140" y="157.0119"/><rect fill="#7F7F7F" height="69.84" style="stroke:#181818;stroke-width:0.5;" width="10" x="150" y="327.4569"/><rect fill="#1F77B4" height="222.4125" style="stroke:#181818;stroke-width:0.5;" width="10" x="180" y="174.8844"/><rect fill="#FF7F0E" height="55.9875" style="stroke:#181818;stroke-width:0.5;" width="10" x="190" y="341.3094"/><rect fill="#2CA02C" height="132.555" style="stroke:#181818;stroke-width:0.5;" width="10" x="200" y="264.7419"/><rect fill="#D62728" height="53.6175" style="stroke:#181818;stroke-width:0.5;" width="10" x="210" y="343.6794"/><rect fill="#9467BD" height="94.2225" style="stroke:#181818;stroke-width:0.5;" width="10" x="220" y="303.0744"/><rect fill="#8C564B" height="102.9375" style="stroke:#181818;stroke-width:0.5;" width="10" x="230" y="294.3594"/><rect fill="#E377C2" height="292.6125" style="stroke:#181818;stroke-width:0.5;" width="10" x="240" y="104.6844"/><rect fill="#7F7F7F" height="86.31" style="stroke:#181818;stroke-width:0.5;" width="10" x="250" y="310.9869"/><rect fill="#1F77B4" height="25.5675" style="stroke:#181818;stroke-width:0.5;" width="10" x="280" y="371.7294"/><rect fill="#FF7F0E" height="6.4125" style="stroke:#181818;stroke-width:0.5;" width="10" x="290" y="390.8844"/><rect fill="#2CA02C" height="13.8975" style="stroke:#181818;stroke-width:0.5;" width="10" x="300" y="383.3994"/><rect fill="#D62728" height="6.0675" style="stroke:#181818;stroke-width:0.5;" width="10" x="310" y="391.2294"/><rect fill="#9467BD" height="10.755" style="stroke:#181818;stroke-width:0.5;" width="10" x="320" y="386.5419"/><rect fill="#8C564B" height="11.73" style="stroke:#181818;stroke-width:0.5;" width="10" x="330" y="385.5669"/><rect fill="#E377C2" height="33.3075" style="stroke:#181818;stroke-width:0.5;" width="10" x="340" y="363.9894"/><rect fill="#7F7F7F" height="9.8625" style="stroke:#181818;stroke-width:0.5;" width="10" x="350" y="387.4344"/><rect fill="#1F77B4" height="32.7675" style="stroke:#181818;stroke-width:0.5;" width="10" x="380" y="364.5294"/><rect fill="#FF7F0E" height="8.205" style="stroke:#181818;stroke-width:0.5;" width="10" x="390" y="389.0919"/><rect fill="#2CA02C" height="18.0525" style="stroke:#181818;stroke-width:0.5;" width="10" x="400" y="379.2444"/><rect fill="#D62728" height="7.695" style="stroke:#181818;stroke-width:0.5;" width="10" x="410" y="389.6019"/><rect fill="#9467BD" height="13.62" style="stroke:#181818;stroke-width:0.5;" width="10" x="420" y="383.6769"/><rect fill="#8C564B" height="14.73" style="stroke:#181818;stroke-width:0.5;" width="10" x="430" y="382.5669"/><rect fill="#E377C2" height="41.91" style="stroke:#181818;stroke-width:0.5;" width="10" x="440" y="355.3869"/><rect fill="#7F7F7F" height="12.4125" style="stroke:#181818;stroke-width:0.5;" width="10" x="450" y="384.8844"/><rect fill="#1F77B4" height="12" style="stroke:#1F77B4;stroke-width:1;" width="12" x="480" y="97.2969"/><text fill="#000000" font-family="sans-serif" font-size="14" lengthAdjust="spacing" textLength="257.5576" x="497" y="110.292">Complex Position with many Options</text><rect fill="#FF7F0E" height="12" style="stroke:#FF7F0E;stroke-width:1;" width="12" x="480" y="128.5938"/><text fill="#000000" font-family="sans-serif" font-size="14" lengthAdjust="spacing" textLength="142.1123" x="497" y="141.5889">Endgame Deflection</text><rect fill="#2CA02C" height="12" style="stroke:#2CA02C;stroke-width:1;" width="12" x="480" y="159.8906"/><text fill="#000000" font-family="sans-serif" font-size="14" lengthAdjust="spacing" textLength="140.3623" x="497" y="172.8857">Midgame Deflection</text><rect fill="#D62728" height="12" style="stroke:#D62728;stroke-width:1;" width="12" x="480" y="191.1875"/><text fill="#000000" font-family="sans-serif" font-size="14" lengthAdjust="spacing" textLength="163.625" x="497" y="204.1826">Midgame Discovery M2</text><rect fill="#9467BD" height="12" style="stroke:#9467BD;stroke-width:1;" width="12" x="480" y="222.4844"/><text fill="#000000" font-family="sans-serif" font-size="14" lengthAdjust="spacing" textLength="180.209" x="497" y="235.4795">Midgame Discovery Short</text><rect fill="#8C564B" height="12" style="stroke:#8C564B;stroke-width:1;" width="12" x="480" y="253.7813"/><text fill="#000000" font-family="sans-serif" font-size="14" lengthAdjust="spacing" textLength="145.9541" x="497" y="266.7764">Midgame en passant</text><rect fill="#E377C2" height="12" style="stroke:#E377C2;stroke-width:1;" width="12" x="480" y="285.0781"/><text fill="#000000" font-family="sans-serif" font-size="14" lengthAdjust="spacing" textLength="96.3799" x="497" y="298.0732">Midgame fork</text><rect fill="#7F7F7F" height="12" style="stroke:#7F7F7F;stroke-width:1;" width="12" x="480" y="316.375"/><text fill="#000000" font-family="sans-serif" font-size="14" lengthAdjust="spacing" textLength="141.251" x="497" y="329.3701">Midgame promotion</text><g class="legend" data-source-line="19"><rect fill="#DDDDDD" height="221.8594" rx="7.5" ry="7.5" style="stroke:#000000;stroke-width:1;" width="698.0508" x="52.7534" y="469.2969"/><text fill="#000000" font-family="sans-serif" font-size="14" lengthAdjust="spacing" textLength="688.0508" x="57.7534" y="487.292">ComplexPositionWithManyOptions = 1r4r1/5p1k/p2p1q1p/2b1nPQ1/p7/6RP/B1R2PPK/2B5 b - - 0 1</text><text fill="#000000" font-family="sans-serif" font-size="14" lengthAdjust="spacing" textLength="540.2441" x="57.7534" y="503.5889">EndGame Deflection = 8/5ppk/4p1p1/3pq3/3Q4/1B2r2P/P5P1/3R3K b - - 8 42</text><text fill="#000000" font-family="sans-serif" font-size="14" lengthAdjust="spacing" textLength="599.5527" x="57.7534" y="519.8857">MidGame Deflection = 5rk1/5q1p/p2PR1p1/4p1b1/1pP5/1P1Q4/P5PP/1K2R3 b - - 0 31</text><text fill="#000000" font-family="sans-serif" font-size="14" lengthAdjust="spacing" textLength="626.6504" x="57.7534" y="536.1826">Midgame Discovery M2 = Q7/p1pk3p/2p2qp1/3p1b2/8/1PN1P3/P1PP2PP/R4KNR b - - 4 15</text><text fill="#000000" font-family="sans-serif" font-size="14" lengthAdjust="spacing" textLength="664.6992" x="57.7534" y="552.4795">Midgame Discovery Short = r5k1/7p/1p1Qp1p1/p1np1r2/1q3P1P/1P6/2P3P1/RB3RK1 w - - 3 26</text><text fill="#000000" font-family="sans-serif" font-size="14" lengthAdjust="spacing" textLength="664.6172" x="57.7534" y="568.7764">Midgame en passant = rn1q1r1k/pbpp1p1p/1p2p3/4P3/3P2Qp/P2B4/1PP2PPP/R4RK1 w - - 0 17</text><text fill="#000000" font-family="sans-serif" font-size="14" lengthAdjust="spacing" textLength="648.9014" x="57.7534" y="585.0732">Midgame fork = r3k2r/pNp1ppbp/2nq2pn/7P/2B3b1/3P1N2/PPP2PP1/R1BQK2R b KQkq - 0 11</text><text fill="#000000" font-family="sans-serif" font-size="14" lengthAdjust="spacing" textLength="625.6592" x="57.7534" y="601.3701">Midgame promotion = 5r1k/1pqnbr1P/p2p1pQp/2p5/3PP2P/1PN5/1PP3R1/R5K1 w - - 0 24</text><text fill="#000000" font-family="sans-serif" font-size="14" lengthAdjust="spacing" textLength="4.4502" x="57.7534" y="617.667">&#160;</text><text fill="#000000" font-family="sans-serif" font-size="14" lengthAdjust="spacing" textLength="379.9824" x="57.7534" y="633.9639">V1 = MiniMaxSequential (Simple material evaluation),</text><text fill="#000000" font-family="sans-serif" font-size="14" lengthAdjust="spacing" textLength="414.3672" x="57.7534" y="650.2607">V2 = MiniMaxSequential (Mate aware material evaluation),</text><text fill="#000000" font-family="sans-serif" font-size="14" lengthAdjust="spacing" textLength="357.0273" x="57.7534" y="666.5576">V3 = MiniMaxParallel (Simple material evaluation),</text><text fill="#000000" font-family="sans-serif" font-size="14" lengthAdjust="spacing" textLength="386.9619" x="57.7534" y="682.8545">V4 = MiniMaxParallel (Mate aware material evaluation)</text></g><?plantuml-src XPLFSviw5CNt-XIQTFCwuqZSAmd1uhtfmucxy3YLoKowo6I17Mep9bYMoPz--rvXjscQP3eC633dftEl3kBJlgz2lrpJWR6-wTkQZQjsUTzMVRFjUD_SrVonwTVyjlPqrApkRldXERO-hPwQFR--WX6_GjeLxVg6iOV37oUlIDVxcnEUyDFJ_xXE-DvNowPRSUIhqDmojgW2QRPtlgsVkDlkcq4uZ7vNTT_v5nzlx4_uDKSjajoEEEOYDMR4bT19Fk9Qg3JdD_m3JAmjz85utjskAXhyhFxMrik8Y0GZShBDhT0fwHEHHGmGLKVzP68doVb1FslUqeCIDjCaiIAryPS8L3-I4Hi9EFu_mV4VX6Q_t3xKuJkVuS53Qic45Q3pmKEiWJnW6WbdALhCtYDShhUX7uma0fACT2XCgg9UguCV632vJcrnzX9JTznN-ttL7GWW0EF8L18ENJ3fGCZJeHdPcAwBbuHlsx29MeKYKJIwoaK29iw0rbII4IRBelPSMJl6breVjdVRdttCXGBA3damGnLqELYWQOrwEuaROsszekInOpf-XkChPMD6qJWcW__B8UW0qdZOI8yUTk0bBg1pSv3UohHqie0IdPjAB0nVy5FQ4WwCGlBvvIGJB2EGtqZjmODKVgUacci91GPqqXb7DqirFL8ohf5HYQyn9cp8KhJYqPMHHSG5IF3EI710J88v2LCirIzF2jXRkI7Ut4foj55KciVTO0qMA3DYNO1Jqe5pLA8izVIYFF8q1yFUIH4XWo6BrfCbc0_LUkWy19ImKuGZSYhHqQai2rLEWJyELCKnPQz35O4TzJx4MLZu28nez4fgygSSphrqM50l1wVHwZEKfiEottCMSMg3GVeB0X5GOhT3tqdhQ1OLTPACNQ1q0umiGZ6dLbBbq_bcTo0-D_DN-eQP8OVWTzqYK94nC7uUksg8IApOq3X3JfL4DRyvHCtO5H1XrdJDh7gwh7VtTTStLSl_kMnYHcd9wkiGRzGFLNi_B88VH-mAtnRDw6bUFLRXNQ5w5hegL6rR_tKi_PRaBoCD2_pnRJk-TJmqgpLz7ZxH-V5B0G9fbHAugFiAVW00?></g></svg>