<?plantuml 1.2026.1?><svg xmlns="http://www.w3.org/2000/svg" xmlns:xlink="http://www.w3.org/1999/xlink" contentStyleType="text/css" data-diagram-type="CHART" height="436px" preserveAspectRatio="none" style="width:835px;height:436px;background:#FFFFFF;" version="1.1" viewBox="0 0 835 436" width="835px" zoomAndPan="magnify"><title>FEN: 8/5ppk/4p1p1/3pq3/3Q4/1B2r2P/P5P1/3R3K b - - 8 42</title><defs/><g><g class="title" data-source-line="2"><text fill="#000000" font-family="sans-serif" font-size="14" font-weight="bold" lengthAdjust="spacing" textLength="382.8193" x="244.6104" y="34.5332">FEN: 8/5ppk/4p1p1/3pq3/3Q4/1B2r2P/P5P1/3R3K b - - 8 42</text></g><line style="stroke:#181818;stroke-width:0.5;" x1="70" x2="70" y1="98.6094" y2="398.6094"/><line style="stroke:#181818;stroke-width:0.5;" x1="70" x2="65" y1="398.6094" y2="398.6094"/><text fill="#000000" font-family="sans-serif" font-size="14" lengthAdjust="spacing" textLength="7.7861" x="52.2139" y="404.3379">0</text><line style="stroke:#181818;stroke-width:0.5;" x1="70" x2="65" y1="338.6094" y2="338.6094"/><text fill="#000000" font-family="sans-serif" font-size="14" lengthAdjust="spacing" textLength="7.7861" x="52.2139" y="344.3379">2</text><line style="stroke:#181818;stroke-width:0.5;" x1="70" x2="65" y1="278.6094" y2="278.6094"/><text fill="#000000" font-family="sans-serif" font-size="14" lengthAdjust="spacing" textLength="7.7861" x="52.2139" y="284.3379">4</text><line style="stroke:#181818;stroke-width:0.5;" x1="70" x2="65" y1="218.6094" y2="218.6094"/><text fill="#000000" font-family="sans-serif" font-size="14" lengthAdjust="spacing" textLength="7.7861" x="52.2139" y="224.3379">6</text><line style="stroke:#181818;stroke-width:0.5;" x1="70" x2="65" y1="158.6094" y2="158.6094"/><text fill="#000000" font-family="sans-serif" font-size="14" lengthAdjust="spacing" textLength="7.7861" x="52.2139" y="164.3379">8</text><line style="stroke:#181818;stroke-width:0.5;" x1="70" x2="65" y1="98.6094" y2="98.6094"/><text fill="#000000" font-family="sans-serif" font-size="14" lengthAdjust="spacing" textLength="15.5723" x="44.4277" y="104.3379">10</text><text fill="#000000" font-family="sans-serif" font-size="14" lengthAdjust="spacing" textLength="118.2686" transform="rotate(-90 28.8047 307.7437)" x="28.8047" y="307.7437">Calculation time [s]</text><line style="stroke:#181818;stroke-width:0.5;" x1="70" x2="470" y1="398.6094" y2="398.6094"/><line style="stroke:#181818;stroke-width:0.5;" x1="120" x2="120" y1="398.6094" y2="403.6094"/><text fill="#000000" font-family="sans-serif" font-size="14" lengthAdjust="spacing" textLength="49.0342" x="95.4829" y="423.1426">Depth 1</text><line style="stroke:#181818;stroke-width:0.5;" x1="220" x2="220" y1="398.6094" y2="403.6094"/><text fill="#000000" font-family="sans-serif" font-size="14" lengthAdjust="spacing" textLength="49.0342" x="195.4829" y="423.1426">Depth 2</text><line style="stroke:#181818;stroke-width:0.5;" x1="320" x2="320" y1="398.6094" y2="403.6094"/><text fill="#000000" font-family="sans-serif" font-size="14" lengthAdjust="spacing" textLength="49.0342" x="295.4829" y="423.1426">Depth 3</text><line style="stroke:#181818;stroke-width:0.5;" x1="420" x2="420" y1="398.6094" y2="403.6094"/><text fill="#000000" font-family="sans-serif" font-size="14" lengthAdjust="spacing" textLength="49.0342" x="395.4829" y="423.1426">Depth 4</text><line style="stroke:#181818;stroke-width:0.5;" x1="70" x2="470" y1="398.6094" y2="398.6094"/><line style="stroke:#181818;stroke-width:0.5;" x1="70" x2="470" y1="338.6094" y2="338.6094"/><line style="stroke:#181818;stroke-width:0.5;" x1="70" x2="470" y1="278.6094" y2="278.6094"/><line style="stroke:#181818;stroke-width:0.5;" x1="70" x2="470" y1="218.6094" y2="218.6094"/><line style="stroke:#181818;stroke-width:0.5;" x1="70" x2="470" y1="158.6094" y2="158.6094"/><line style="stroke:#181818;stroke-width:0.5;" x1="70" x2="470" y1="98.6094" y2="98.6094"/><rect fill="#1F77B4" height="0.0003" style="stroke:#181818;stroke-width:0.5;" width="20" x="80" y="398.6091"/><rect fill="#FF7F0E" height="0.0003" style="stroke:#181818;stroke-width:0.5;" width="20" x="100" y="398.6091"/><rect fill="#2CA02C" height="0.0003" style="stroke:#181818;stroke-width:0.5;" width="20" x="120" y="398.6091"/><rect fill="#D62728" height="0.0003" style="stroke:#181818;stroke-width:0.5;" width="20" x="140" y="398.6091"/><rect fill="#1F77B4" height="0.18" style="stroke:#181818;stroke-width:0.5;" width="20" x="180" y="398.4294"/><rect fill="#FF7F0E" height="0.24" style="stroke:#181818;stroke-width:0.5;" width="20" x="200" y="398.3694"/><rect fill="#2CA02C" height="0.03" style="stroke:#181818;stroke-width:0.5;" width="20" x="220" y="398.5794"/><rect fill="#D62728" height="0.03" style="stroke:#181818;stroke-width:0.5;" width="20" x="240" y="398.5794"/><rect fill="#1F77B4" height="5.58" style="stroke:#181818;stroke-width:0.5;" width="20" x="280" y="393.0294"/><rect fill="#FF7F0E" height="6.99" style="stroke:#181818;stroke-width:0.5;" width="20" x="300" y="391.6194"/><rect fill="#2CA02C" height="0.81" style="stroke:#181818;stroke-width:0.5;" width="20" x="320" y="397.7994"/><rect fill="#D62728" height="1.02" style="stroke:#181818;stroke-width:0.5;" width="20" x="340" y="397.5894"/><rect fill="#1F77B4" height="177.3" style="stroke:#181818;stroke-width:0.5;" width="20" x="380" y="221.3094"/><rect fill="#FF7F0E" height="223.95" style="stroke:#181818;stroke-width:0.5;" width="20" x="400" y="174.6594"/><rect fill="#2CA02C" height="25.65" style="stroke:#181818;stroke-width:0.5;" width="20" x="420" y="372.9594"/><rect fill="#D62728" height="32.82" style="stroke:#181818;stroke-width:0.5;" width="20" x="440" y="365.7894"/><rect fill="#1F77B4" height="12" style="stroke:#1F77B4;stroke-width:1;" width="12" x="480" y="98.6094"/><text fill="#000000" font-family="sans-serif" font-size="14" lengthAdjust="spacing" textLength="295.6885" x="497" y="113.1426">MiniMaxSequential (Simple material evaluation)</text><rect fill="#FF7F0E" height="12" style="stroke:#FF7F0E;stroke-width:1;" width="12" x="480" y="131.2188"/><text fill="#000000" font-family="sans-serif" font-size="14" lengthAdjust="spacing" textLength="326.04" x="497" y="145.752">MiniMaxSequential (Mate aware material evaluation)</text><rect fill="#2CA02C" height="12" style="stroke:#2CA02C;stroke-width:1;" width="12" x="480" y="163.8281"/><text fill="#000000" font-family="sans-serif" font-size="14" lengthAdjust="spacing" textLength="276.2129" x="497" y="178.3613">MiniMaxParallel (Simple material evaluation)</text><rect fill="#D62728" height="12" style="stroke:#D62728;stroke-width:1;" width="12" x="480" y="196.4375"/><text fill="#000000" font-family="sans-serif" font-size="14" lengthAdjust="spacing" textLength="306.5645" x="497" y="210.9707">MiniMaxParallel (Mate aware material evaluation)</text><?plantuml-src bTB9QiCm40RWkvvYS2yjUD7c9JsKD8il9SLjZY479H6sgE8gifBcyIl7kVGGQ13yCmpYOq0QTqvOjsry8EIKqnALy_TdA9BKcA-46s98mio19Uo39sH2BQsIAgtyy9EzmGOYVmhW5Cbs1mE0caYSLGShc4dZ6Y3XKEcriclbi4QduMem5NfxrCAfxzOhUmchRXq0XYXw0O9Z39qHMzNMG7rVMxL3Q2Ci10lLgeKuB-NXA5kdX8R7fTeRBM4ldBJzG9w4Fbxafs059CRpA0qzYJEVfCZ2D1uHMCC3AVDymc-w2m-2-17sFtRXap8MvZ7FqXuloxp4ypzu9QpGMjwpCkcJvZwBzCBIwIkcqnliNHjVQCP3FnhndfvbDAS5GbhM_TjQLJSEZNrx_IqaffXcCVa5?></g></svg>